<svg version="1.1" xmlns="http://www.w3.org/2000/svg" xmlns:xlink="http://www.w3.org/1999/xlink" width="445" height="282"><defs><clipPath id="nyAuOrNbqOed"><path fill="none" stroke="none" d=" M 0 0 L 445 0 L 445 282 L 0 282 L 0 0 Z"/></clipPath></defs><g transform="scale(1,1)" clip-path="url(#nyAuOrNbqOed)"><g transform="translate(-176,-151)"><rect fill="rgb(255,255,255)" stroke="none" x="0" y="0" width="1060" height="806" fill-opacity="1"/><path fill="none" stroke="rgb(0,0,0)" paint-order="fill stroke markers" d=" M 608.992174520126 165.28236488380327 L 188.02062488987977 254.76263003410904" stroke-opacity="1" stroke-linecap="round" stroke-linejoin="round" stroke-miterlimit="10" stroke-width="2.5"/><path fill="none" stroke="rgb(0,0,0)" paint-order="fill stroke markers" d=" M 188.02062488987977 254.76263003410904 L 443.246532280156 420.5082722740781" stroke-opacity="1" stroke-linecap="round" stroke-linejoin="round" stroke-miterlimit="10" stroke-width="2.5"/><path fill="none" stroke="rgb(0,0,0)" paint-order="fill stroke markers" d=" M 443.246532280156 420.5082722740781 L 608.992174520126 165.28236488380327" stroke-opacity="1" stroke-linecap="round" stroke-linejoin="round" stroke-miterlimit="10" stroke-width="2.5"/><path fill="none" stroke="rgb(0,0,0)" paint-order="fill stroke markers" d=" M 456.13851771395616 400.65635559056125 L 436.2866010304392 387.76437015676106" stroke-opacity="1" stroke-linecap="round" stroke-linejoin="round" stroke-miterlimit="10" stroke-width="2.5"/><path fill="none" stroke="rgb(0,0,0)" paint-order="fill stroke markers" d=" M 436.2866010304392 387.76437015676106 L 423.394615596639 407.6162868402779" stroke-opacity="1" stroke-linecap="round" stroke-linejoin="round" stroke-miterlimit="10" stroke-width="2.5"/><path fill="none" stroke="rgb(0,0,0)" paint-order="fill stroke markers" d=" M 456.13851771395616 400.65635559056125 L 436.2866010304392 387.76437015676106" stroke-opacity="1" stroke-linecap="round" stroke-linejoin="round" stroke-miterlimit="10" stroke-width="2.5"/><g transform="scale(25,25)"><g transform="translate(10.52,13.724445)"><path fill="rgb(163,143,140)" stroke="none" paint-order="stroke fill markers" d=" M 0.399 -0.289 L 0.399 0 L 0.324 0 L 0.324 -0.036000000000000004 Q 0.263 0.011 0.158 0.011 Q 0.1 0.011 0.07200000000000001 -0.029500000000000002 Q 0.044 -0.07 0.044 -0.113 Q 0.044 -0.176 0.1225 -0.2095 Q 0.201 -0.243 0.321 -0.245 L 0.321 -0.28800000000000003 Q 0.321 -0.341 0.296 -0.3715 Q 0.271 -0.402 0.234 -0.402 Q 0.153 -0.402 0.083 -0.352 L 0.077 -0.418 Q 0.152 -0.461 0.234 -0.461 Q 0.304 -0.461 0.35150000000000003 -0.41250000000000003 Q 0.399 -0.364 0.399 -0.289 M 0.321 -0.132 L 0.321 -0.194 Q 0.116 -0.184 0.116 -0.115 Q 0.116 -0.085 0.14350000000000002 -0.0675 Q 0.171 -0.05 0.209 -0.05 Q 0.256 -0.05 0.28700000000000003 -0.069 Q 0.321 -0.088 0.321 -0.132 Z"/></g></g><g transform="scale(25,25)"><g transform="translate(21.88,12.174445)"><path fill="rgb(163,143,140)" stroke="none" paint-order="stroke fill markers" d=" M 0.157 -0.6940000000000001 L 0.157 -0.396 Q 0.229 -0.455 0.318 -0.455 Q 0.387 -0.455 0.4335 -0.3865 Q 0.48 -0.318 0.48 -0.223 Q 0.48 -0.124 0.425 -0.0565 Q 0.37 0.011 0.294 0.011 Q 0.222 0.011 0.16 -0.046 L 0.16 0 L 0.082 0 L 0.082 -0.6940000000000001 L 0.157 -0.6940000000000001 M 0.16 -0.335 L 0.16 -0.114 Q 0.195 -0.05 0.257 -0.05 Q 0.312 -0.05 0.357 -0.0925 Q 0.402 -0.135 0.402 -0.223 Q 0.402 -0.31 0.361 -0.352 Q 0.32 -0.394 0.267 -0.394 Q 0.199 -0.394 0.16 -0.335 Z"/></g></g><g transform="scale(25,25)"><g transform="translate(21.6,8.3640042)"><path fill="rgb(0,0,0)" stroke="none" paint-order="stroke fill markers" d=" M 0.372 -0.171 L 0.372 0 L 0.293 0 L 0.293 -0.171 L 0.028 -0.171 L 0.028 -0.232 L 0.281 -0.656 L 0.372 -0.656 L 0.372 -0.232 L 0.47100000000000003 -0.232 L 0.47100000000000003 -0.171 L 0.372 -0.171 M 0.106 -0.232 L 0.299 -0.232 L 0.299 -0.612 Q 0.299 -0.551 0.106 -0.232 Z"/></g><g transform="translate(22.100002,8.3640042)"><path fill="rgb(0,0,0)" stroke="none" paint-order="stroke fill markers" d=" M 0.153 -0.592 L 0.153 -0.386 Q 0.199 -0.427 0.26 -0.427 Q 0.338 -0.427 0.3935 -0.3615 Q 0.449 -0.296 0.449 -0.203 Q 0.449 -0.109 0.3845 -0.043500000000000004 Q 0.32 0.022 0.23 0.022 Q 0.171 0.022 0.121 -0.005 Q 0.07100000000000001 -0.032 0.039 -0.076 L 0.07200000000000001 -0.132 Q 0.094 -0.091 0.137 -0.065 Q 0.18 -0.039 0.229 -0.039 Q 0.23700000000000002 -0.039 0.2465 -0.04 Q 0.256 -0.041 0.2785 -0.05 Q 0.301 -0.059000000000000004 0.317 -0.0745 Q 0.333 -0.09 0.34650000000000003 -0.124 Q 0.36 -0.158 0.36 -0.20500000000000002 Q 0.36 -0.28800000000000003 0.33 -0.327 Q 0.3 -0.366 0.259 -0.366 Q 0.219 -0.366 0.19 -0.3435 Q 0.161 -0.321 0.147 -0.28700000000000003 L 0.081 -0.28700000000000003 L 0.081 -0.656 L 0.41600000000000004 -0.656 L 0.41600000000000004 -0.592 L 0.153 -0.592 Z"/></g><g transform="translate(22.600004,7.9511122) scale(0.7,0.7)"><path fill="rgb(0,0,0)" stroke="none" paint-order="stroke fill markers" d=" M 0.443 -0.25 L 0.443 -0.25 Q 0.443 -0.161 0.376 -0.10300000000000001 Q 0.321 -0.056 0.249 -0.056 Q 0.161 -0.056 0.10300000000000001 -0.124 Q 0.056 -0.179 0.056 -0.25 Q 0.056 -0.339 0.123 -0.397 Q 0.178 -0.444 0.25 -0.444 Q 0.338 -0.444 0.396 -0.376 Q 0.443 -0.321 0.443 -0.25 M 0.25 -0.096 L 0.25 -0.096 Q 0.325 -0.096 0.371 -0.156 Q 0.403 -0.198 0.403 -0.25 Q 0.403 -0.326 0.343 -0.372 Q 0.302 -0.404 0.25 -0.404 Q 0.17300000000000001 -0.404 0.126 -0.342 Q 0.096 -0.301 0.096 -0.25 Q 0.096 -0.17500000000000002 0.155 -0.129 Q 0.197 -0.096 0.25 -0.096 Z"/></g></g><text fill="rgb(0,0,0)" stroke="none" font-family="geogebra-sans-serif, sans-serif" font-size="22px" font-style="normal" font-weight="normal" text-decoration="normal" x="387" y="194" text-anchor="start" dominant-baseline="alphabetic" fill-opacity="1">2</text></g></g></svg>