<svg version="1.1" xmlns="http://www.w3.org/2000/svg" xmlns:xlink="http://www.w3.org/1999/xlink" width="381" height="193"><defs><clipPath id="OuQouKscTNOz"><path fill="none" stroke="none" d=" M 0 0 L 381 0 L 381 193 L 0 193 L 0 0 Z"/></clipPath></defs><g transform="scale(1,1)" clip-path="url(#OuQouKscTNOz)"><g transform="translate(-247,-242)"><rect fill="rgb(255,255,255)" stroke="none" x="0" y="0" width="1060" height="756" fill-opacity="1"/><path fill="none" stroke="rgb(0,0,0)" paint-order="fill stroke markers" d=" M 437.5 2.5 L 437.5 756.5" stroke-opacity="1" stroke-miterlimit="10"/><path fill="none" stroke="rgb(0,0,0)" paint-order="fill stroke markers" d=" M 437.5 1.5 L 433.5 5.5" stroke-opacity="1" stroke-miterlimit="10"/><path fill="none" stroke="rgb(0,0,0)" paint-order="fill stroke markers" d=" M 437.5 1.5 L 441.5 5.5" stroke-opacity="1" stroke-miterlimit="10"/><path fill="none" stroke="rgb(0,0,0)" paint-order="fill stroke markers" d=" M 0.5 331.5 L 1058.5 331.5" stroke-opacity="1" stroke-miterlimit="10"/><path fill="none" stroke="rgb(0,0,0)" paint-order="fill stroke markers" d=" M 1059.5 331.5 L 1055.5 327.5" stroke-opacity="1" stroke-miterlimit="10"/><path fill="none" stroke="rgb(0,0,0)" paint-order="fill stroke markers" d=" M 1059.5 331.5 L 1055.5 335.5" stroke-opacity="1" stroke-miterlimit="10"/><path fill="none" stroke="rgb(102,153,255)" paint-order="fill stroke markers" d=" M 0 296.4570817756297 L 4.140625 296.48233124801476 L 8.28125 296.5083136875277 L 12.421875 296.53505772719177 L 16.5625 296.5625934110038 L 20.703125 296.5909522781198 L 24.84375 296.62016745295165 L 28.984375 296.6502737416537 L 33.125 296.68130773552167 L 37.265625 296.7133079218741 L 41.40625 296.746314803041 L 45.546875 296.78037102414277 L 49.6875 296.8155215104079 L 53.828125 296.85181361485036 L 57.96874999999994 296.8892972772077 L 62.10937499999994 296.9280251951292 L 66.24999999999994 296.96805300870363 L 70.39062499999994 297.0094394995236 L 74.53124999999994 297.05224680560707 L 78.67187499999994 297.09654065363355 L 82.81249999999994 297.1423906101003 L 86.953125 297.1898703531783 L 91.09375 297.2390579672332 L 95.234375 297.29003626218906 L 99.375 297.3428931201523 L 103.515625 297.39772187197593 L 107.65625 297.4546217067462 L 111.796875 297.5136981175095 L 115.9375 297.5750633869344 L 120.078125 297.6388371170344 L 124.21875 297.7051468075556 L 128.359375 297.7741284881817 L 132.5 297.8459274103259 L 136.640625 297.92069880497706 L 140.78125 297.9986087138672 L 144.921875 298.0798349021264 L 149.0625 298.16456786162496 L 153.203125 298.2530119153748 L 157.34375 298.3453864347035 L 161.484375 298.44192718244926 L 165.625 298.54288779718297 L 169.76562500000006 298.64854143548007 L 173.90625000000006 298.75918259158425 L 178.046875 298.87512911647264 L 182.18750000000003 298.996724461409 L 186.328125 299.12434017462607 L 190.46875 299.25837868388385 L 194.609375 299.39927640241297 L 198.75 299.5475072012728 L 202.890625 299.70358629756856 L 207.03125 299.86807461543657 L 211.17187499999997 300.0415836854026 L 215.31249999999997 300.2247811578634 L 219.45312499999997 300.41839701829133 L 223.59374999999997 300.62323060561636 L 227.73437499999997 300.84015855145157 L 231.875 301.07014377681367 L 236.015625 301.31424570522546 L 240.15625 301.5736318771342 L 244.296875 301.84959118107497 L 248.4375 302.1435489526676 L 252.578125 302.45708423416454 L 256.71875 302.7919495357154 L 260.859375 303.1500934956622 L 265 303.5336869018544 L 269.140625 303.94515260981507 L 273.28125 304.3871999768565 L 277.421875 304.8628645234393 L 281.5625 305.3755536324015 L 285.703125 305.92909919917895 L 289.84375 306.527818244254 L 293.984375 307.17658257957896 L 298.125 307.88089866145333 L 302.265625 308.646998727213 L 306.40625 309.48194414474773 L 310.546875 310.393741512658 L 314.6875 311.3914712970172 L 318.82812499999994 312.48542746995713 L 322.96874999999994 313.68726441672527 L 327.10937499999994 315.0101438541861 L 331.24999999999994 316.4688690281725 L 335.390625 318.07998519322456 L 339.53125 319.8618132954172 L 343.671875 321.83436678713406 L 347.8125 324.0190788464161 L 351.953125 326.438239418319 L 356.09375 329.1140118242391 L 360.234375 332.0668762690969 L 364.375 335.3133507750988 L 368.515625 338.8628991739295 L 372.65625 342.71408988147476 L 376.796875 346.8503488347894 L 380.9375 351.2360383663737 L 385.078125 355.81397474145905 L 389.21875 360.50563504426384 L 393.359375 365.21493124436535 L 397.5 369.8354646857151 L 401.640625 374.2599327960402 L 405.78125 378.38948141147216 L 409.921875 382.1408151719605 L 414.0625 385.44978423572815 L 418.203125 388.27141183761097 L 422.34375 390.57728060544065 L 426.484375 392.3515571133361 L 430.62499999999994 393.5867967916286 L 434.76562499999994 394.2803058785104 L 438.90624999999994 394.4314760416097 L 443.04687499999994 394.0402612370467 L 447.18749999999994 393.1068443095205 L 451.32812499999994 391.6324989686716 L 455.46874999999994 389.62162906662877 L 459.60937499999994 387.0848968415945 L 463.75 384.0431781745035 L 467.890625 380.5317799337091 L 472.03125 376.60397029578456 L 476.171875 372.3325739203064 L 480.3125 367.80843833539313 L 484.453125 363.1352099660077 L 488.59375 358.4210039137184 L 492.734375 353.76873277171273 L 496.875 349.2674157849003 L 501.015625 344.9863741545647 L 505.15625 340.97309434590846 L 509.296875 337.25435615488544 L 513.4375 333.8395070231283 L 517.578125 330.72464451617515 L 521.71875 327.89674926323 L 525.859375 325.33721730913055 L 530 323.02458838702296 L 534.140625 320.9364888048446 L 538.28125 319.05091477918404 L 542.421875 317.34701191924955 L 546.5625 315.805495422804 L 550.703125 314.4088282911508 L 554.84375 313.1412452983593 L 558.984375 311.98868470257094 L 563.125 310.9386695813089 L 567.265625 309.9801659800471 L 571.40625 309.1034348068851 L 575.546875 308.2998874932378 L 579.6875 307.561950919089 L 583.828125 306.8829442298842 L 587.96875 306.2569684080946 L 592.109375 305.67880842485783 L 596.25 305.1438472257737 L 600.390625 304.6479905260672 L 604.53125 304.1876012897866 L 608.671875 303.75944277176364 L 612.8125 303.3606290628842 L 616.953125 302.98858216963185 L 621.09375 302.64099476015656 L 625.234375 302.31579781089243 L 629.375 302.0111324842595 L 633.515625 301.7253256563581 L 637.65625 301.4568685926627 L 641.7968749999999 301.204398339451 L 645.9374999999999 300.96668145950804 L 650.0781249999999 300.74259979327985 L 654.2187499999999 300.5311379719733 L 658.3593749999999 300.3313724479814 L 662.4999999999999 300.1424618412957 L 666.640625 299.96363842900786 L 670.78125 299.7942006292886 L 674.921875 299.6335063519677 L 679.0625 299.48096710553824 L 683.203125 299.3360427655321 L 687.34375 299.19823692213913 L 691.484375 299.0670927360038 L 695.625 298.942189240609 L 699.765625 298.8231380377806 L 703.90625 298.7095803398281 L 708.046875 298.60118431783695 L 712.1875 298.4976427207971 L 716.328125 298.3986707347133 L 720.46875 298.30400405469203 L 724.609375 298.2133971463357 L 728.75 298.1266216756606 L 732.890625 298.04346508926403 L 737.03125 297.96372932864426 L 741.171875 297.88722966447574 L 745.3125 297.8137936382953 L 749.453125 297.74326010050214 L 753.59375 297.6754783348381 L 757.734375 297.6103072606216 L 761.875 297.54761470498215 L 766.015625 297.4872767381949 L 770.15625 297.4291770659669 L 774.296875 297.3732064731888 L 778.4375 297.3192623142512 L 782.578125 297.2672480455382 L 786.71875 297.21707279617294 L 790.859375 297.1686509734893 L 795 297.12190190006817 L 799.140625 297.0767494794924 L 803.28125 297.0331218882609 L 807.421875 296.99095129155495 L 811.5625 296.95017358077376 L 815.703125 296.9107281309606 L 819.84375 296.872557576419 L 823.984375 296.8356076029802 L 828.125 296.79982675552765 L 832.265625 296.7651662595142 L 836.40625 296.73157985532384 L 840.546875 296.6990236444334 L 844.6875 296.66745594642714 L 848.828125 296.63683716599667 L 852.96875 296.6071296691414 L 857.109375 296.57829766784795 L 861.25 296.5503071125946 L 865.390625 296.52312559207866 L 869.53125 296.49672223961977 L 873.671875 296.4710676457357 L 877.8125 296.44613377643117 L 881.953125 296.4218938967768 L 886.09375 296.39832249939116 L 890.234375 296.3753952374707 L 894.375 296.3530888620389 L 898.515625 296.33138116311585 L 902.65625 296.3102509145295 L 906.796875 296.28967782211424 L 910.9375 296.2696424750614 L 915.078125 296.2501263002047 L 919.21875 296.23111151903987 L 923.3593749999999 296.2125811072937 L 927.5 296.19451875687105 L 931.640625 296.17690884002127 L 935.78125 296.1597363755784 L 939.921875 296.14298699713777 L 944.0625 296.126646923044 L 948.203125 296.1107029280743 L 952.34375 296.0951423167068 L 956.484375 296.0799528978752 L 960.625 296.06512296111475 L 964.765625 296.0506412540136 L 968.90625 296.03649696088826 L 973.046875 296.0226796826072 L 977.1875 296.00917941749395 L 981.328125 295.9959865432427 L 985.46875 295.98309179978656 L 989.609375 295.9704862730614 L 993.75 295.9581613796115 L 997.890625 295.9461088519889 L 1002.03125 295.93432072489855 L 1006.171875 295.9227893220467 L 1010.3125 295.911507243653 L 1014.4531249999998 295.900467354586 L 1018.59375 295.8896627730896 L 1022.7343749999998 295.87908686006426 L 1026.875 295.86873320887463 L 1031.0156249999998 295.85859563565197 L 1035.15625 295.84866817006576 L 1039.2968749999998 295.8389450465379 L 1043.4375 295.82942069587574 L 1047.5781249999998 295.820089737301 L 1051.71875 295.8109469708536 L 1055.8593749999998 295.80198737015064 L 1059.9999999999998 295.79320607548067" stroke-opacity="0.8" stroke-linecap="round" stroke-linejoin="round" stroke-miterlimit="10" stroke-width="2.5"/><path fill="rgb(97,97,97)" stroke="none" paint-order="stroke fill markers" d=" M 367.12686037236 333.5134819273256 C 367.12686037236 336.27490567647953 364.88828412151395 338.5134819273256 362.12686037236 338.5134819273256 C 359.36543662320605 338.5134819273256 357.12686037236 336.27490567647953 357.12686037236 333.5134819273256 C 357.12686037236 330.75205817817164 359.36543662320605 328.5134819273256 362.12686037236 328.5134819273256 C 364.88828412151395 328.5134819273256 367.12686037236 330.75205817817164 367.12686037236 333.5134819273256 Z" fill-opacity="1"/><path fill="none" stroke="rgb(0,0,0)" paint-order="fill stroke markers" d=" M 367.12686037236 333.5134819273256 C 367.12686037236 336.27490567647953 364.88828412151395 338.5134819273256 362.12686037236 338.5134819273256 C 359.36543662320605 338.5134819273256 357.12686037236 336.27490567647953 357.12686037236 333.5134819273256 C 357.12686037236 330.75205817817164 359.36543662320605 328.5134819273256 362.12686037236 328.5134819273256 C 364.88828412151395 328.5134819273256 367.12686037236 330.75205817817164 367.12686037236 333.5134819273256 Z" stroke-opacity="1" stroke-linecap="round" stroke-linejoin="round" stroke-miterlimit="10"/><text fill="none" stroke="rgb(255,255,255)" font-family="geogebra-sans-serif, sans-serif" font-size="16px" font-style="normal" font-weight="normal" text-decoration="normal" x="366" y="324" text-anchor="start" dominant-baseline="alphabetic" stroke-opacity="1" stroke-linecap="round" stroke-linejoin="bevel" stroke-miterlimit="10" stroke-width="3">P</text><text fill="rgb(97,97,97)" stroke="none" font-family="geogebra-sans-serif, sans-serif" font-size="16px" font-style="normal" font-weight="normal" text-decoration="normal" x="366" y="324" text-anchor="start" dominant-baseline="alphabetic" fill-opacity="1">P</text></g></g></svg>