<svg version="1.1" xmlns="http://www.w3.org/2000/svg" xmlns:xlink="http://www.w3.org/1999/xlink" width="220" height="269" viewBox="0 0 220 269">
  <defs>
    <clipPath id="AcvloWFsurDr">
      <path fill="none" stroke="none" d=" M 0 0 L 220 0 L 220 269 L 0 269 L 0 0 Z" />
    </clipPath>
  </defs>
  <g transform="scale(1,1)" clip-path="url(#AcvloWFsurDr)">
    <g transform="translate(-655,-281)">
      <rect fill="rgba(255,255,255,0)" stroke="none" x="0" y="0" width="1478" height="932" fill-opacity="1" />
      <path fill="none" stroke="rgb(192,192,192)" paint-order="fill stroke markers" d=" M 14.5 0.5 L 14.5 932.5 M 14.5 0.5 L 14.5 932.5 M 64.5 0.5 L 64.5 932.5 M 114.5 0.5 L 114.5 932.5 M 164.5 0.5 L 164.5 932.5 M 214.5 0.5 L 214.5 932.5 M 264.5 0.5 L 264.5 932.5 M 314.5 0.5 L 314.5 932.5 M 364.5 0.5 L 364.5 932.5 M 414.5 0.5 L 414.5 932.5 M 464.5 0.5 L 464.5 932.5 M 514.5 0.5 L 514.5 932.5 M 564.5 0.5 L 564.5 932.5 M 614.5 0.5 L 614.5 932.5 M 664.5 0.5 L 664.5 932.5 M 714.5 0.5 L 714.5 932.5 M 814.5 0.5 L 814.5 932.5 M 864.5 0.5 L 864.5 932.5 M 914.5 0.5 L 914.5 932.5 M 964.5 0.5 L 964.5 932.5 M 1014.5 0.5 L 1014.5 932.5 M 1064.5 0.5 L 1064.5 932.5 M 1114.5 0.5 L 1114.5 932.5 M 1164.5 0.5 L 1164.5 932.5 M 1213.5 0.5 L 1213.5 932.5 M 1263.5 0.5 L 1263.5 932.5 M 1313.5 0.5 L 1313.5 932.5 M 1363.5 0.5 L 1363.5 932.5 M 1413.5 0.5 L 1413.5 932.5 M 1463.5 0.5 L 1463.5 932.5" stroke-opacity="1" stroke-linecap="round" stroke-linejoin="round" stroke-miterlimit="10" />
      <path fill="none" stroke="rgb(192,192,192)" paint-order="fill stroke markers" d="" stroke-opacity="0.23529411764705882" stroke-linecap="round" stroke-linejoin="round" stroke-miterlimit="10" />
      <path fill="none" stroke="rgb(192,192,192)" paint-order="fill stroke markers" d=" M 0.5 40.5 L 1478.5 40.5 M 0.5 40.5 L 1478.5 40.5 M 0.5 90.5 L 1478.5 90.5 M 0.5 140.5 L 1478.5 140.5 M 0.5 190.5 L 1478.5 190.5 M 0.5 240.5 L 1478.5 240.5 M 0.5 290.5 L 1478.5 290.5 M 0.5 340.5 L 1478.5 340.5 M 0.5 390.5 L 1478.5 390.5 M 0.5 440.5 L 1478.5 440.5 M 0.5 540.5 L 1478.5 540.5 M 0.5 590.5 L 1478.5 590.5 M 0.5 640.5 L 1478.5 640.5 M 0.5 690.5 L 1478.5 690.5 M 0.5 740.5 L 1478.5 740.5 M 0.5 790.5 L 1478.5 790.5 M 0.5 840.5 L 1478.5 840.5 M 0.5 890.5 L 1478.5 890.5" stroke-opacity="1" stroke-linecap="round" stroke-linejoin="round" stroke-miterlimit="10" />
      <path fill="none" stroke="rgb(192,192,192)" paint-order="fill stroke markers" d="" stroke-opacity="0.23529411764705882" stroke-linecap="round" stroke-linejoin="round" stroke-miterlimit="10" />
      <path fill="none" stroke="rgb(0,0,0)" paint-order="fill stroke markers" d=" M 764.5 2.5 L 764.5 932.5" stroke-opacity="1" stroke-miterlimit="10" />
      <path fill="none" stroke="rgb(0,0,0)" paint-order="fill stroke markers" d=" M 764.5 1.5 L 760.5 5.5" stroke-opacity="1" stroke-miterlimit="10" />
      <path fill="none" stroke="rgb(0,0,0)" paint-order="fill stroke markers" d=" M 764.5 1.5 L 768.5 5.5" stroke-opacity="1" stroke-miterlimit="10" />
      <path fill="none" stroke="rgb(0,0,0)" paint-order="fill stroke markers" d=" M 0.5 490.5 L 1476.5 490.5" stroke-opacity="1" stroke-miterlimit="10" />
      <path fill="none" stroke="rgb(0,0,0)" paint-order="fill stroke markers" d=" M 1477.5 490.5 L 1473.5 486.5" stroke-opacity="1" stroke-miterlimit="10" />
      <path fill="none" stroke="rgb(0,0,0)" paint-order="fill stroke markers" d=" M 1477.5 490.5 L 1473.5 494.5" stroke-opacity="1" stroke-miterlimit="10" />
      <text fill="rgb(0,0,0)" stroke="none" font-family="geogebra-sans-serif, sans-serif" font-size="12px" font-style="normal" font-weight="normal" text-decoration="normal" x="6" y="506" text-anchor="start" dominant-baseline="alphabetic" fill-opacity="1">–15</text>
      <text fill="rgb(0,0,0)" stroke="none" font-family="geogebra-sans-serif, sans-serif" font-size="12px" font-style="normal" font-weight="normal" text-decoration="normal" x="56" y="506" text-anchor="start" dominant-baseline="alphabetic" fill-opacity="1">–14</text>
      <text fill="rgb(0,0,0)" stroke="none" font-family="geogebra-sans-serif, sans-serif" font-size="12px" font-style="normal" font-weight="normal" text-decoration="normal" x="106" y="506" text-anchor="start" dominant-baseline="alphabetic" fill-opacity="1">–13</text>
      <text fill="rgb(0,0,0)" stroke="none" font-family="geogebra-sans-serif, sans-serif" font-size="12px" font-style="normal" font-weight="normal" text-decoration="normal" x="156" y="506" text-anchor="start" dominant-baseline="alphabetic" fill-opacity="1">–12</text>
      <text fill="rgb(0,0,0)" stroke="none" font-family="geogebra-sans-serif, sans-serif" font-size="12px" font-style="normal" font-weight="normal" text-decoration="normal" x="206" y="506" text-anchor="start" dominant-baseline="alphabetic" fill-opacity="1">–11</text>
      <text fill="rgb(0,0,0)" stroke="none" font-family="geogebra-sans-serif, sans-serif" font-size="12px" font-style="normal" font-weight="normal" text-decoration="normal" x="256" y="506" text-anchor="start" dominant-baseline="alphabetic" fill-opacity="1">–10</text>
      <text fill="rgb(0,0,0)" stroke="none" font-family="geogebra-sans-serif, sans-serif" font-size="12px" font-style="normal" font-weight="normal" text-decoration="normal" x="309" y="506" text-anchor="start" dominant-baseline="alphabetic" fill-opacity="1">–9</text>
      <text fill="rgb(0,0,0)" stroke="none" font-family="geogebra-sans-serif, sans-serif" font-size="12px" font-style="normal" font-weight="normal" text-decoration="normal" x="359" y="506" text-anchor="start" dominant-baseline="alphabetic" fill-opacity="1">–8</text>
      <text fill="rgb(0,0,0)" stroke="none" font-family="geogebra-sans-serif, sans-serif" font-size="12px" font-style="normal" font-weight="normal" text-decoration="normal" x="409" y="506" text-anchor="start" dominant-baseline="alphabetic" fill-opacity="1">–7</text>
      <text fill="rgb(0,0,0)" stroke="none" font-family="geogebra-sans-serif, sans-serif" font-size="12px" font-style="normal" font-weight="normal" text-decoration="normal" x="459" y="506" text-anchor="start" dominant-baseline="alphabetic" fill-opacity="1">–6</text>
      <text fill="rgb(0,0,0)" stroke="none" font-family="geogebra-sans-serif, sans-serif" font-size="12px" font-style="normal" font-weight="normal" text-decoration="normal" x="509" y="506" text-anchor="start" dominant-baseline="alphabetic" fill-opacity="1">–5</text>
      <text fill="rgb(0,0,0)" stroke="none" font-family="geogebra-sans-serif, sans-serif" font-size="12px" font-style="normal" font-weight="normal" text-decoration="normal" x="559" y="506" text-anchor="start" dominant-baseline="alphabetic" fill-opacity="1">–4</text>
      <text fill="rgb(0,0,0)" stroke="none" font-family="geogebra-sans-serif, sans-serif" font-size="12px" font-style="normal" font-weight="normal" text-decoration="normal" x="609" y="506" text-anchor="start" dominant-baseline="alphabetic" fill-opacity="1">–3</text>
      <text fill="rgb(0,0,0)" stroke="none" font-family="geogebra-sans-serif, sans-serif" font-size="12px" font-style="normal" font-weight="normal" text-decoration="normal" x="659" y="506" text-anchor="start" dominant-baseline="alphabetic" fill-opacity="1">–2</text>
      <text fill="rgb(0,0,0)" stroke="none" font-family="geogebra-sans-serif, sans-serif" font-size="12px" font-style="normal" font-weight="normal" text-decoration="normal" x="709" y="506" text-anchor="start" dominant-baseline="alphabetic" fill-opacity="1">–1</text>
      <text fill="rgb(0,0,0)" stroke="none" font-family="geogebra-sans-serif, sans-serif" font-size="12px" font-style="normal" font-weight="normal" text-decoration="normal" x="812" y="506" text-anchor="start" dominant-baseline="alphabetic" fill-opacity="1">1</text>
      <text fill="rgb(0,0,0)" stroke="none" font-family="geogebra-sans-serif, sans-serif" font-size="12px" font-style="normal" font-weight="normal" text-decoration="normal" x="862" y="506" text-anchor="start" dominant-baseline="alphabetic" fill-opacity="1">2</text>
      <text fill="rgb(0,0,0)" stroke="none" font-family="geogebra-sans-serif, sans-serif" font-size="12px" font-style="normal" font-weight="normal" text-decoration="normal" x="912" y="506" text-anchor="start" dominant-baseline="alphabetic" fill-opacity="1">3</text>
      <text fill="rgb(0,0,0)" stroke="none" font-family="geogebra-sans-serif, sans-serif" font-size="12px" font-style="normal" font-weight="normal" text-decoration="normal" x="962" y="506" text-anchor="start" dominant-baseline="alphabetic" fill-opacity="1">4</text>
      <text fill="rgb(0,0,0)" stroke="none" font-family="geogebra-sans-serif, sans-serif" font-size="12px" font-style="normal" font-weight="normal" text-decoration="normal" x="1012" y="506" text-anchor="start" dominant-baseline="alphabetic" fill-opacity="1">5</text>
      <text fill="rgb(0,0,0)" stroke="none" font-family="geogebra-sans-serif, sans-serif" font-size="12px" font-style="normal" font-weight="normal" text-decoration="normal" x="1062" y="506" text-anchor="start" dominant-baseline="alphabetic" fill-opacity="1">6</text>
      <text fill="rgb(0,0,0)" stroke="none" font-family="geogebra-sans-serif, sans-serif" font-size="12px" font-style="normal" font-weight="normal" text-decoration="normal" x="1112" y="506" text-anchor="start" dominant-baseline="alphabetic" fill-opacity="1">7</text>
      <text fill="rgb(0,0,0)" stroke="none" font-family="geogebra-sans-serif, sans-serif" font-size="12px" font-style="normal" font-weight="normal" text-decoration="normal" x="1162" y="506" text-anchor="start" dominant-baseline="alphabetic" fill-opacity="1">8</text>
      <text fill="rgb(0,0,0)" stroke="none" font-family="geogebra-sans-serif, sans-serif" font-size="12px" font-style="normal" font-weight="normal" text-decoration="normal" x="1212" y="506" text-anchor="start" dominant-baseline="alphabetic" fill-opacity="1">9</text>
      <text fill="rgb(0,0,0)" stroke="none" font-family="geogebra-sans-serif, sans-serif" font-size="12px" font-style="normal" font-weight="normal" text-decoration="normal" x="1259" y="506" text-anchor="start" dominant-baseline="alphabetic" fill-opacity="1">10</text>
      <text fill="rgb(0,0,0)" stroke="none" font-family="geogebra-sans-serif, sans-serif" font-size="12px" font-style="normal" font-weight="normal" text-decoration="normal" x="1309" y="506" text-anchor="start" dominant-baseline="alphabetic" fill-opacity="1">11</text>
      <text fill="rgb(0,0,0)" stroke="none" font-family="geogebra-sans-serif, sans-serif" font-size="12px" font-style="normal" font-weight="normal" text-decoration="normal" x="1359" y="506" text-anchor="start" dominant-baseline="alphabetic" fill-opacity="1">12</text>
      <text fill="rgb(0,0,0)" stroke="none" font-family="geogebra-sans-serif, sans-serif" font-size="12px" font-style="normal" font-weight="normal" text-decoration="normal" x="1409" y="506" text-anchor="start" dominant-baseline="alphabetic" fill-opacity="1">13</text>
      <text fill="rgb(0,0,0)" stroke="none" font-family="geogebra-sans-serif, sans-serif" font-size="12px" font-style="normal" font-weight="normal" text-decoration="normal" x="1459" y="506" text-anchor="start" dominant-baseline="alphabetic" fill-opacity="1">14</text>
      <text fill="rgb(0,0,0)" stroke="none" font-family="geogebra-sans-serif, sans-serif" font-size="12px" font-style="normal" font-weight="normal" text-decoration="normal" x="744" y="895" text-anchor="start" dominant-baseline="alphabetic" fill-opacity="1">–8</text>
      <text fill="rgb(0,0,0)" stroke="none" font-family="geogebra-sans-serif, sans-serif" font-size="12px" font-style="normal" font-weight="normal" text-decoration="normal" x="744" y="845" text-anchor="start" dominant-baseline="alphabetic" fill-opacity="1">–7</text>
      <text fill="rgb(0,0,0)" stroke="none" font-family="geogebra-sans-serif, sans-serif" font-size="12px" font-style="normal" font-weight="normal" text-decoration="normal" x="744" y="795" text-anchor="start" dominant-baseline="alphabetic" fill-opacity="1">–6</text>
      <text fill="rgb(0,0,0)" stroke="none" font-family="geogebra-sans-serif, sans-serif" font-size="12px" font-style="normal" font-weight="normal" text-decoration="normal" x="744" y="745" text-anchor="start" dominant-baseline="alphabetic" fill-opacity="1">–5</text>
      <text fill="rgb(0,0,0)" stroke="none" font-family="geogebra-sans-serif, sans-serif" font-size="12px" font-style="normal" font-weight="normal" text-decoration="normal" x="744" y="695" text-anchor="start" dominant-baseline="alphabetic" fill-opacity="1">–4</text>
      <text fill="rgb(0,0,0)" stroke="none" font-family="geogebra-sans-serif, sans-serif" font-size="12px" font-style="normal" font-weight="normal" text-decoration="normal" x="744" y="645" text-anchor="start" dominant-baseline="alphabetic" fill-opacity="1">–3</text>
      <text fill="rgb(0,0,0)" stroke="none" font-family="geogebra-sans-serif, sans-serif" font-size="12px" font-style="normal" font-weight="normal" text-decoration="normal" x="744" y="595" text-anchor="start" dominant-baseline="alphabetic" fill-opacity="1">–2</text>
      <text fill="rgb(0,0,0)" stroke="none" font-family="geogebra-sans-serif, sans-serif" font-size="12px" font-style="normal" font-weight="normal" text-decoration="normal" x="744" y="545" text-anchor="start" dominant-baseline="alphabetic" fill-opacity="1">–1</text>
      <text fill="rgb(0,0,0)" stroke="none" font-family="geogebra-sans-serif, sans-serif" font-size="12px" font-style="normal" font-weight="normal" text-decoration="normal" x="751" y="445" text-anchor="start" dominant-baseline="alphabetic" fill-opacity="1">1</text>
      <text fill="rgb(0,0,0)" stroke="none" font-family="geogebra-sans-serif, sans-serif" font-size="12px" font-style="normal" font-weight="normal" text-decoration="normal" x="751" y="395" text-anchor="start" dominant-baseline="alphabetic" fill-opacity="1">2</text>
      <text fill="rgb(0,0,0)" stroke="none" font-family="geogebra-sans-serif, sans-serif" font-size="12px" font-style="normal" font-weight="normal" text-decoration="normal" x="751" y="345" text-anchor="start" dominant-baseline="alphabetic" fill-opacity="1">3</text>
      <text fill="rgb(0,0,0)" stroke="none" font-family="geogebra-sans-serif, sans-serif" font-size="12px" font-style="normal" font-weight="normal" text-decoration="normal" x="751" y="295" text-anchor="start" dominant-baseline="alphabetic" fill-opacity="1">4</text>
      <text fill="rgb(0,0,0)" stroke="none" font-family="geogebra-sans-serif, sans-serif" font-size="12px" font-style="normal" font-weight="normal" text-decoration="normal" x="751" y="245" text-anchor="start" dominant-baseline="alphabetic" fill-opacity="1">5</text>
      <text fill="rgb(0,0,0)" stroke="none" font-family="geogebra-sans-serif, sans-serif" font-size="12px" font-style="normal" font-weight="normal" text-decoration="normal" x="751" y="195" text-anchor="start" dominant-baseline="alphabetic" fill-opacity="1">6</text>
      <text fill="rgb(0,0,0)" stroke="none" font-family="geogebra-sans-serif, sans-serif" font-size="12px" font-style="normal" font-weight="normal" text-decoration="normal" x="751" y="145" text-anchor="start" dominant-baseline="alphabetic" fill-opacity="1">7</text>
      <text fill="rgb(0,0,0)" stroke="none" font-family="geogebra-sans-serif, sans-serif" font-size="12px" font-style="normal" font-weight="normal" text-decoration="normal" x="751" y="95" text-anchor="start" dominant-baseline="alphabetic" fill-opacity="1">8</text>
      <text fill="rgb(0,0,0)" stroke="none" font-family="geogebra-sans-serif, sans-serif" font-size="12px" font-style="normal" font-weight="normal" text-decoration="normal" x="751" y="45" text-anchor="start" dominant-baseline="alphabetic" fill-opacity="1">9</text>
      <text fill="rgb(0,0,0)" stroke="none" font-family="geogebra-sans-serif, sans-serif" font-size="12px" font-style="normal" font-weight="normal" text-decoration="normal" x="751" y="506" text-anchor="start" dominant-baseline="alphabetic" fill-opacity="1">0</text>
      <path fill="none" stroke="rgb(102,153,255)" paint-order="fill stroke markers" d=" M 0 490.49998844019996 L 5.7734375 490.49998702528694 L 11.546875 490.49998543718937 L 17.3203125 490.49998365470947 L 23.09375 490.4999816540551 L 28.8671875 490.49997940852177 L 34.640625 490.49997688813636 L 40.4140625 490.4999740592572 L 46.1875 490.4999708841248 L 51.9609375 490.49996732035805 L 57.734375 490.49996332038825 L 63.5078125 490.4999588308243 L 69.28125 490.4999537917403 L 75.0546875 490.49994813587523 L 80.828125 490.49994178773545 L 86.6015625 490.49993466258695 L 92.375 490.4999266653242 L 98.1484375 490.4999176892011 L 103.921875 490.49990761440546 L 109.6953125 490.4998963064605 L 115.46875 490.49988361442945 L 121.2421875 490.4998693689009 L 127.015625 490.49985337972765 L 132.7890625 490.49983543348856 L 138.5625 490.49981529063984 L 144.3359375 490.49979268231783 L 150.109375 490.4997673067498 L 155.8828125 490.49973882522653 L 161.65625 490.49970685758075 L 167.4296875 490.4996709771131 L 173.203125 490.49963070489633 L 178.9765625 490.4995855033828 L 184.7500000000001 490.4995347692294 L 190.5234375 490.499477825244 L 196.296875 490.49941391134683 L 202.0703125 490.4993421744245 L 207.84375 490.4992616569431 L 213.6171875 490.49917128416706 L 219.390625 490.499069849814 L 225.1640625000001 490.49895599995307 L 230.9375 490.498828214933 L 236.7109375 490.49868478909815 L 242.484375 490.49852380802156 L 248.2578125 490.4983431229515 L 254.03125 490.49814032213027 L 259.8046875 490.49791269860225 L 265.57812500000006 490.4976572140821 L 271.35156249999994 490.49737045840004 L 277.12500000000006 490.49704860398333 L 282.8984375 490.49668735476655 L 288.671875 490.49628188884833 L 294.4453125 490.49582679412913 L 300.21875 490.49531599607167 L 305.99218750000006 490.49474267661844 L 311.76562499999994 490.4940991831858 L 317.53906250000006 490.493376926518 L 323.31250000000006 490.49256626603926 L 329.0859375 490.4916563811727 L 334.859375 490.4906351269088 L 340.6328125 490.489488871696 L 346.40625000000006 490.48820231548814 L 352.17968749999994 490.48675828552217 L 357.95312500000006 490.48513750709844 L 363.72656250000006 490.4833183463049 L 369.5 490.4812765212507 L 375.2734375 490.4789847779553 L 381.04687500000006 490.4764125265662 L 386.8203125 490.4735254330501 L 392.59375 490.4702849609072 L 398.3671875 490.46664785679184 L 404.14062500000006 490.4625655731731 L 409.9140625 490.4579836203295 L 415.6875 490.4528408390283 L 421.4609375 490.44706858418084 L 427.234375 490.4405898085781 L 433.00781250000006 490.43331803447614 L 438.78125000000006 490.42515619930344 L 444.55468750000006 490.41599536008425 L 450.328125 490.40571323928367 L 456.1015625 490.39417259266514 L 461.875 490.3812193773747 L 467.6484375 490.3666806957992 L 473.42187500000006 490.35036248775475 L 479.19531250000006 490.3320469401999 L 484.96875000000006 490.31148957989905 L 490.7421875 490.2884160102297 L 496.515625 490.26251824857667 L 502.2890625 490.2334506154255 L 508.0625 490.20082512028307 L 513.8359375 490.16420628283754 L 519.609375 490.12310532023116 L 525.3828125 490.07697362285865 L 531.15625 490.02519543160685 L 536.9296875 489.96707961879247 L 542.703125 489.90185046309153 L 548.4765625 489.82863729532517 L 554.25 489.7464628768955 L 560.0234375 489.6542303557485 L 565.796875 489.5507086257539 L 571.5703125 489.43451589408176 L 577.34375 489.30410123723505 L 583.1171875 489.15772389955055 L 588.890625 488.9934300578486 L 594.6640625 488.80902674208824 L 600.4375 488.60205256392584 L 606.2109375 488.36974486246515 L 611.984375 488.1090028286662 L 617.7578125 487.8163461162019 L 623.53125 487.4878683863072 L 629.3046875 487.1191851665435 L 635.078125 486.7053753275055 L 640.8515625 486.2409153963093 L 646.625 485.71960583008837 L 652.3984375 485.1344882654074 L 658.171875 484.4777526390501 L 663.9453125 483.7406329404437 L 669.71875 482.9132902042389 L 675.4921875 481.98468118124714 L 681.2656250000001 480.94241093477444 L 687.0390625 479.77256739482857 L 692.8125 478.4595356618548 L 698.5859375 476.9857895813525 L 704.359375 475.33165780734214 L 710.1328125 473.4750612321314 L 715.90625 471.3912182776326 L 721.6796875000001 469.05231411450205 L 727.453125 466.42712939388804 L 733.2265625 463.48062353615285 L 739 460.1734670143684 L 744.7734375 456.46151638957355 L 750.546875 452.29522509064225 L 756.3203125 447.6189820739371 L 762.0937500000001 442.37036953527655 L 767.8671875000001 436.4793297662624 L 773.640625 429.8672300342897 L 779.4140625 422.44581300439404 L 785.1875 414.1160186933223 L 790.9609375 404.76666223144207 L 793.84765625 399.671225932046 L 796.734375 394.27294978345066 L 799.62109375 388.55383493945783 L 802.5078125 382.4948128186114 L 805.3945312500001 376.07568152603557 L 808.2812500000001 369.2750384966014 L 811.16796875 362.07020913483336 L 814.0546875 354.43717121363636 L 816.9414062500001 346.3504747797688 L 819.828125 337.783157299016 L 822.71484375 328.70665375813667 L 825.6015625000001 319.0907014238521 L 827.044921875 314.070485924924 L 828.48828125 308.90323894132644 L 829.931640625 303.58465423212584 L 831.375 298.11029943570475 L 832.8183593750001 292.4756123759588 L 834.26171875 286.67589726030343 L 835.705078125 280.7063207663275 L 837.1484375000001 274.56190801384025 L 838.591796875 268.23753841894165 L 840.03515625 261.72794142666646 L 841.4785156250001 255.02769211865422 L 842.921875 248.13120669216983 L 844.365234375 241.03273780671375 L 845.8085937500001 233.72636979435237 L 847.251953125 226.2060137297613 L 848.6953125000001 218.46540235588014 L 850.138671875 210.4980848609602 L 851.58203125 202.29742150262854 L 853.0253906250001 193.85657807451668 L 854.46875 185.16852021081905 L 855.912109375 176.22600752404344 L 857.3554687500001 167.0215875710785 L 858.798828125 157.54758964253017 L 860.2421875 147.79611837016097 L 860.9638671875 142.8137998820037 L 861.6855468750001 137.75904714711487 L 862.4072265625 132.63080709751011 L 863.12890625 127.42801135542436 L 863.8505859375001 122.14957601073752 L 864.572265625 116.79440139516504 L 865.2939453125 111.36137185315408 L 866.0156250000001 105.84935550946 L 866.7373046875 100.25720403334452 L 867.458984375 94.58375239933315 L 868.1806640625001 88.82781864450709 L 868.9023437500001 82.98820362226598 L 869.6240234375 77.06369075249933 L 870.345703125 71.05304576813876 L 871.0673828125001 64.95501645801721 L 871.7890625 58.76833240599984 L 872.5107421875 52.4917047263055 L 873.2324218750001 46.123825794995184 L 873.9541015625 39.663368977556615 L 874.67578125 33.10898835251362 L 875.3974609375001 26.459318431032386 L 876.119140625 19.71297387245113 L 876.8408203125 12.868549195658545 L 877.5625000000001 5.924618486292388 L 878.2841796875 -1.120264900319853 L 879.005859375 -8.267568640553804" stroke-opacity="0.6980392156862745" stroke-linecap="round" stroke-linejoin="round" stroke-miterlimit="10" stroke-width="2.5" />
      <text fill="rgb(102,153,255)" stroke="none" font-family="geogebra-sans-serif, sans-serif" font-size="16px" font-style="normal" font-weight="normal" text-decoration="normal" x="5" y="505" text-anchor="start" dominant-baseline="alphabetic" fill-opacity="1">f</text>
      <path fill="none" stroke="rgb(96,96,96)" paint-order="fill stroke markers" d=" M 597.55078125 942.9558866893301 L 600.4375 935.1089715673329 L 603.32421875 927.2620564453362 L 606.2109375 919.415141323339 L 609.09765625 911.568226201342 L 611.984375 903.7213110793449 L 614.87109375 895.874395957348 L 617.7578125 888.027480835351 L 620.64453125 880.1805657133539 L 623.53125 872.3336505913569 L 626.41796875 864.4867354693598 L 629.3046875 856.639820347363 L 632.19140625 848.7929052253659 L 635.078125 840.945990103369 L 637.96484375 833.0990749813718 L 640.8515625 825.2521598593747 L 643.73828125 817.4052447373779 L 646.625 809.5583296153808 L 649.51171875 801.7114144933839 L 652.3984375 793.8644993713867 L 655.28515625 786.0175842493899 L 658.171875 778.1706691273928 L 661.0585937500001 770.3237540053956 L 663.9453125 762.4768388833988 L 666.83203125 754.6299237614016 L 669.71875 746.7830086394048 L 672.60546875 738.9360935174076 L 675.4921875 731.0891783954107 L 678.37890625 723.2422632734138 L 681.2656250000001 715.3953481514166 L 684.15234375 707.5484330294197 L 687.0390625 699.7015179074225 L 689.92578125 691.8546027854256 L 692.8125 684.0076876634286 L 695.69921875 676.1607725414317 L 698.5859375 668.3138574194345 L 701.4726562500001 660.4669422974374 L 704.359375 652.6200271754406 L 707.24609375 644.7731120534435 L 710.1328125 636.9261969314466 L 713.01953125 629.0792818094494 L 715.90625 621.2323666874527 L 718.79296875 613.3854515654555 L 721.6796875000001 605.5385364434583 L 724.56640625 597.6916213214615 L 727.453125 589.8447061994643 L 730.33984375 581.9977910774675 L 733.2265625 574.1508759554704 L 736.11328125 566.3039608334735 L 739 558.4570457114763 L 741.8867187500001 550.6101305894792 L 744.7734375 542.7632154674824 L 747.66015625 534.9163003454853 L 750.546875 527.0693852234884 L 753.43359375 519.2224701014912 L 756.3203125 511.3755549794944 L 759.20703125 503.5286398574973 L 762.0937500000001 495.6817247355002 L 764.98046875 487.8348096135033 L 767.8671875000001 479.98789449150615 L 770.75390625 472.1409793695093 L 773.640625 464.2940642475122 L 776.52734375 456.4471491255153 L 779.4140625 448.6002340035182 L 782.3007812500001 440.75331888152107 L 785.1875 432.9064037595242 L 788.0742187500001 425.0594886375271 L 790.9609375 417.2125735155302 L 793.84765625 409.36565839353307 L 796.734375 401.5187432715362 L 799.62109375 393.6718281495391 L 802.5078125 385.82491302754227 L 805.3945312500001 377.97799790554484 L 808.2812500000001 370.131082783548 L 811.16796875 362.2841676615511 L 814.0546875 354.43725253955427 L 816.9414062500001 346.5903374175569 L 819.828125 338.74342229556004 L 822.71484375 330.8965071735631 L 825.6015625000001 323.0495920515658 L 828.48828125 315.2026769295689 L 831.375 307.35576180757204 L 834.26171875 299.5088466855752 L 837.1484375000001 291.6619315635778 L 840.03515625 283.8150164415809 L 842.921875 275.96810131958404 L 845.8085937500001 268.12118619758667 L 848.6953125000001 260.2742710755898 L 851.58203125 252.42735595359295 L 854.46875 244.58044083159606 L 857.3554687500001 236.73352570959872 L 860.2421875 228.8866105876018 L 863.12890625 221.039695465605 L 866.0156250000001 213.19278034360764 L 868.9023437500001 205.34586522161072 L 871.7890625 197.49895009961386 L 874.67578125 189.65203497761695 L 877.5625000000001 181.80511985561964 L 880.44921875 173.95820473362278 L 883.3359375 166.11128961162586 L 886.2226562500001 158.26437448962855 L 889.1093750000001 150.41745936763164 L 891.99609375 142.57054424563478 L 894.8828125 134.72362912363786 L 897.7695312500001 126.87671400164055 L 900.65625 119.02979887964364 L 903.54296875 111.18288375764678 L 906.4296875000001 103.33596863564941 L 909.31640625 95.4890535136525 L 912.203125 87.64213839165569 L 915.08984375 79.79522326965878 L 917.9765625000001 71.94830814766141 L 920.86328125 64.1013930256646 L 923.75 56.25447790366769 L 926.6367187500001 48.40756278167032 L 929.5234375 40.56064765967341 L 932.41015625 32.713732537676606 L 935.296875 24.86681741567969 L 938.1835937500001 17.01990229368232 L 941.0703125 9.17298717168552 L 943.95703125 1.3260720496886051 L 946.8437500000001 -6.5208430723087645" stroke-opacity="0.6980392156862745" stroke-linecap="round" stroke-linejoin="round" stroke-miterlimit="10" stroke-width="2.5" />
      <text fill="rgb(96,96,96)" stroke="none" font-family="geogebra-sans-serif, sans-serif" font-size="16px" font-style="normal" font-weight="normal" text-decoration="normal" x="613" y="927" text-anchor="start" dominant-baseline="alphabetic" fill-opacity="1">g</text>
      <path fill="rgb(96,96,96)" stroke="none" paint-order="stroke fill markers" d=" M 819.0000000000001 354.5859085770477 C 819.0000000000001 357.34733232620164 816.7614237491541 359.5859085770477 814.0000000000001 359.5859085770477 C 811.2385762508461 359.5859085770477 809.0000000000001 357.34733232620164 809.0000000000001 354.5859085770477 C 809.0000000000001 351.82448482789374 811.2385762508461 349.5859085770477 814.0000000000001 349.5859085770477 C 816.7614237491541 349.5859085770477 819.0000000000001 351.82448482789374 819.0000000000001 354.5859085770477 Z" fill-opacity="1" />
      <path fill="none" stroke="rgb(0,0,0)" paint-order="fill stroke markers" d=" M 819.0000000000001 354.5859085770477 C 819.0000000000001 357.34733232620164 816.7614237491541 359.5859085770477 814.0000000000001 359.5859085770477 C 811.2385762508461 359.5859085770477 809.0000000000001 357.34733232620164 809.0000000000001 354.5859085770477 C 809.0000000000001 351.82448482789374 811.2385762508461 349.5859085770477 814.0000000000001 349.5859085770477 C 816.7614237491541 349.5859085770477 819.0000000000001 351.82448482789374 819.0000000000001 354.5859085770477 Z" stroke-opacity="1" stroke-linecap="round" stroke-linejoin="round" stroke-miterlimit="10" />
      <text fill="rgb(96,96,96)" stroke="none" font-family="geogebra-sans-serif, sans-serif" font-size="16px" font-style="normal" font-weight="normal" text-decoration="normal" x="799" y="344" text-anchor="start" dominant-baseline="alphabetic" fill-opacity="1">S</text>
    </g>
  </g>
</svg>