<svg version="1.1" xmlns="http://www.w3.org/2000/svg" xmlns:xlink="http://www.w3.org/1999/xlink" width="445" height="306"><defs><clipPath id="JhvVpwpviBop"><path fill="none" stroke="none" d=" M 0 0 L 445 0 L 445 306 L 0 306 L 0 0 Z"/></clipPath></defs><g transform="scale(1,1)" clip-path="url(#JhvVpwpviBop)"><g transform="translate(-223,-205)"><rect fill="rgb(255,255,255)" stroke="none" x="0" y="0" width="1060" height="806" fill-opacity="1"/><path fill="none" stroke="rgb(192,192,192)" paint-order="fill stroke markers" d=" M 30.5 0.5 L 30.5 806.5 M 30.5 0.5 L 30.5 806.5 M 100.5 0.5 L 100.5 806.5 M 169.5 0.5 L 169.5 806.5 M 238.5 0.5 L 238.5 806.5 M 307.5 0.5 L 307.5 806.5 M 376.5 0.5 L 376.5 806.5 M 514.5 0.5 L 514.5 806.5 M 583.5 0.5 L 583.5 806.5 M 652.5 0.5 L 652.5 806.5 M 722.5 0.5 L 722.5 806.5 M 791.5 0.5 L 791.5 806.5 M 860.5 0.5 L 860.5 806.5 M 929.5 0.5 L 929.5 806.5 M 998.5 0.5 L 998.5 806.5" stroke-opacity="1" stroke-linecap="round" stroke-linejoin="round" stroke-miterlimit="10"/><path fill="none" stroke="rgb(192,192,192)" paint-order="fill stroke markers" d="" stroke-opacity="0.23529411764705882" stroke-linecap="round" stroke-linejoin="round" stroke-miterlimit="10"/><path fill="none" stroke="rgb(192,192,192)" paint-order="fill stroke markers" d=" M 0.5 10.5 L 1060.5 10.5 M 0.5 10.5 L 1060.5 10.5 M 0.5 79.5 L 1060.5 79.5 M 0.5 148.5 L 1060.5 148.5 M 0.5 218.5 L 1060.5 218.5 M 0.5 287.5 L 1060.5 287.5 M 0.5 425.5 L 1060.5 425.5 M 0.5 494.5 L 1060.5 494.5 M 0.5 563.5 L 1060.5 563.5 M 0.5 632.5 L 1060.5 632.5 M 0.5 701.5 L 1060.5 701.5 M 0.5 771.5 L 1060.5 771.5" stroke-opacity="1" stroke-linecap="round" stroke-linejoin="round" stroke-miterlimit="10"/><path fill="none" stroke="rgb(192,192,192)" paint-order="fill stroke markers" d="" stroke-opacity="0.23529411764705882" stroke-linecap="round" stroke-linejoin="round" stroke-miterlimit="10"/><path fill="none" stroke="rgb(0,0,0)" paint-order="fill stroke markers" d=" M 445.5 2.5 L 445.5 806.5" stroke-opacity="1" stroke-miterlimit="10"/><path fill="none" stroke="rgb(0,0,0)" paint-order="fill stroke markers" d=" M 445.5 1.5 L 441.5 5.5" stroke-opacity="1" stroke-miterlimit="10"/><path fill="none" stroke="rgb(0,0,0)" paint-order="fill stroke markers" d=" M 445.5 1.5 L 449.5 5.5" stroke-opacity="1" stroke-miterlimit="10"/><path fill="none" stroke="rgb(0,0,0)" paint-order="fill stroke markers" d=" M 0.5 356.5 L 1058.5 356.5" stroke-opacity="1" stroke-miterlimit="10"/><path fill="none" stroke="rgb(0,0,0)" paint-order="fill stroke markers" d=" M 1059.5 356.5 L 1055.5 352.5" stroke-opacity="1" stroke-miterlimit="10"/><path fill="none" stroke="rgb(0,0,0)" paint-order="fill stroke markers" d=" M 1059.5 356.5 L 1055.5 360.5" stroke-opacity="1" stroke-miterlimit="10"/><text fill="none" stroke="rgb(255,255,255)" font-family="geogebra-sans-serif, sans-serif" font-size="12px" font-style="normal" font-weight="normal" text-decoration="normal" x="22" y="372" text-anchor="start" dominant-baseline="alphabetic" stroke-opacity="1" stroke-linejoin="bevel" stroke-miterlimit="10" stroke-width="3">–12</text><text fill="rgb(0,0,0)" stroke="none" font-family="geogebra-sans-serif, sans-serif" font-size="12px" font-style="normal" font-weight="normal" text-decoration="normal" x="22" y="372" text-anchor="start" dominant-baseline="alphabetic" fill-opacity="1">–12</text><text fill="none" stroke="rgb(255,255,255)" font-family="geogebra-sans-serif, sans-serif" font-size="12px" font-style="normal" font-weight="normal" text-decoration="normal" x="92" y="372" text-anchor="start" dominant-baseline="alphabetic" stroke-opacity="1" stroke-linejoin="bevel" stroke-miterlimit="10" stroke-width="3">–10</text><text fill="rgb(0,0,0)" stroke="none" font-family="geogebra-sans-serif, sans-serif" font-size="12px" font-style="normal" font-weight="normal" text-decoration="normal" x="92" y="372" text-anchor="start" dominant-baseline="alphabetic" fill-opacity="1">–10</text><text fill="none" stroke="rgb(255,255,255)" font-family="geogebra-sans-serif, sans-serif" font-size="12px" font-style="normal" font-weight="normal" text-decoration="normal" x="164" y="372" text-anchor="start" dominant-baseline="alphabetic" stroke-opacity="1" stroke-linejoin="bevel" stroke-miterlimit="10" stroke-width="3">–8</text><text fill="rgb(0,0,0)" stroke="none" font-family="geogebra-sans-serif, sans-serif" font-size="12px" font-style="normal" font-weight="normal" text-decoration="normal" x="164" y="372" text-anchor="start" dominant-baseline="alphabetic" fill-opacity="1">–8</text><text fill="none" stroke="rgb(255,255,255)" font-family="geogebra-sans-serif, sans-serif" font-size="12px" font-style="normal" font-weight="normal" text-decoration="normal" x="233" y="372" text-anchor="start" dominant-baseline="alphabetic" stroke-opacity="1" stroke-linejoin="bevel" stroke-miterlimit="10" stroke-width="3">–6</text><text fill="rgb(0,0,0)" stroke="none" font-family="geogebra-sans-serif, sans-serif" font-size="12px" font-style="normal" font-weight="normal" text-decoration="normal" x="233" y="372" text-anchor="start" dominant-baseline="alphabetic" fill-opacity="1">–6</text><text fill="none" stroke="rgb(255,255,255)" font-family="geogebra-sans-serif, sans-serif" font-size="12px" font-style="normal" font-weight="normal" text-decoration="normal" x="302" y="372" text-anchor="start" dominant-baseline="alphabetic" stroke-opacity="1" stroke-linejoin="bevel" stroke-miterlimit="10" stroke-width="3">–4</text><text fill="rgb(0,0,0)" stroke="none" font-family="geogebra-sans-serif, sans-serif" font-size="12px" font-style="normal" font-weight="normal" text-decoration="normal" x="302" y="372" text-anchor="start" dominant-baseline="alphabetic" fill-opacity="1">–4</text><text fill="none" stroke="rgb(255,255,255)" font-family="geogebra-sans-serif, sans-serif" font-size="12px" font-style="normal" font-weight="normal" text-decoration="normal" x="371" y="372" text-anchor="start" dominant-baseline="alphabetic" stroke-opacity="1" stroke-linejoin="bevel" stroke-miterlimit="10" stroke-width="3">–2</text><text fill="rgb(0,0,0)" stroke="none" font-family="geogebra-sans-serif, sans-serif" font-size="12px" font-style="normal" font-weight="normal" text-decoration="normal" x="371" y="372" text-anchor="start" dominant-baseline="alphabetic" fill-opacity="1">–2</text><text fill="none" stroke="rgb(255,255,255)" font-family="geogebra-sans-serif, sans-serif" font-size="12px" font-style="normal" font-weight="normal" text-decoration="normal" x="512" y="372" text-anchor="start" dominant-baseline="alphabetic" stroke-opacity="1" stroke-linejoin="bevel" stroke-miterlimit="10" stroke-width="3">2</text><text fill="rgb(0,0,0)" stroke="none" font-family="geogebra-sans-serif, sans-serif" font-size="12px" font-style="normal" font-weight="normal" text-decoration="normal" x="512" y="372" text-anchor="start" dominant-baseline="alphabetic" fill-opacity="1">2</text><text fill="none" stroke="rgb(255,255,255)" font-family="geogebra-sans-serif, sans-serif" font-size="12px" font-style="normal" font-weight="normal" text-decoration="normal" x="581" y="372" text-anchor="start" dominant-baseline="alphabetic" stroke-opacity="1" stroke-linejoin="bevel" stroke-miterlimit="10" stroke-width="3">4</text><text fill="rgb(0,0,0)" stroke="none" font-family="geogebra-sans-serif, sans-serif" font-size="12px" font-style="normal" font-weight="normal" text-decoration="normal" x="581" y="372" text-anchor="start" dominant-baseline="alphabetic" fill-opacity="1">4</text><text fill="none" stroke="rgb(255,255,255)" font-family="geogebra-sans-serif, sans-serif" font-size="12px" font-style="normal" font-weight="normal" text-decoration="normal" x="650" y="372" text-anchor="start" dominant-baseline="alphabetic" stroke-opacity="1" stroke-linejoin="bevel" stroke-miterlimit="10" stroke-width="3">6</text><text fill="rgb(0,0,0)" stroke="none" font-family="geogebra-sans-serif, sans-serif" font-size="12px" font-style="normal" font-weight="normal" text-decoration="normal" x="650" y="372" text-anchor="start" dominant-baseline="alphabetic" fill-opacity="1">6</text><text fill="none" stroke="rgb(255,255,255)" font-family="geogebra-sans-serif, sans-serif" font-size="12px" font-style="normal" font-weight="normal" text-decoration="normal" x="720" y="372" text-anchor="start" dominant-baseline="alphabetic" stroke-opacity="1" stroke-linejoin="bevel" stroke-miterlimit="10" stroke-width="3">8</text><text fill="rgb(0,0,0)" stroke="none" font-family="geogebra-sans-serif, sans-serif" font-size="12px" font-style="normal" font-weight="normal" text-decoration="normal" x="720" y="372" text-anchor="start" dominant-baseline="alphabetic" fill-opacity="1">8</text><text fill="none" stroke="rgb(255,255,255)" font-family="geogebra-sans-serif, sans-serif" font-size="12px" font-style="normal" font-weight="normal" text-decoration="normal" x="786" y="372" text-anchor="start" dominant-baseline="alphabetic" stroke-opacity="1" stroke-linejoin="bevel" stroke-miterlimit="10" stroke-width="3">10</text><text fill="rgb(0,0,0)" stroke="none" font-family="geogebra-sans-serif, sans-serif" font-size="12px" font-style="normal" font-weight="normal" text-decoration="normal" x="786" y="372" text-anchor="start" dominant-baseline="alphabetic" fill-opacity="1">10</text><text fill="none" stroke="rgb(255,255,255)" font-family="geogebra-sans-serif, sans-serif" font-size="12px" font-style="normal" font-weight="normal" text-decoration="normal" x="855" y="372" text-anchor="start" dominant-baseline="alphabetic" stroke-opacity="1" stroke-linejoin="bevel" stroke-miterlimit="10" stroke-width="3">12</text><text fill="rgb(0,0,0)" stroke="none" font-family="geogebra-sans-serif, sans-serif" font-size="12px" font-style="normal" font-weight="normal" text-decoration="normal" x="855" y="372" text-anchor="start" dominant-baseline="alphabetic" fill-opacity="1">12</text><text fill="none" stroke="rgb(255,255,255)" font-family="geogebra-sans-serif, sans-serif" font-size="12px" font-style="normal" font-weight="normal" text-decoration="normal" x="924" y="372" text-anchor="start" dominant-baseline="alphabetic" stroke-opacity="1" stroke-linejoin="bevel" stroke-miterlimit="10" stroke-width="3">14</text><text fill="rgb(0,0,0)" stroke="none" font-family="geogebra-sans-serif, sans-serif" font-size="12px" font-style="normal" font-weight="normal" text-decoration="normal" x="924" y="372" text-anchor="start" dominant-baseline="alphabetic" fill-opacity="1">14</text><text fill="none" stroke="rgb(255,255,255)" font-family="geogebra-sans-serif, sans-serif" font-size="12px" font-style="normal" font-weight="normal" text-decoration="normal" x="993" y="372" text-anchor="start" dominant-baseline="alphabetic" stroke-opacity="1" stroke-linejoin="bevel" stroke-miterlimit="10" stroke-width="3">16</text><text fill="rgb(0,0,0)" stroke="none" font-family="geogebra-sans-serif, sans-serif" font-size="12px" font-style="normal" font-weight="normal" text-decoration="normal" x="993" y="372" text-anchor="start" dominant-baseline="alphabetic" fill-opacity="1">16</text><text fill="none" stroke="rgb(255,255,255)" font-family="geogebra-sans-serif, sans-serif" font-size="12px" font-style="normal" font-weight="normal" text-decoration="normal" x="418" y="776" text-anchor="start" dominant-baseline="alphabetic" stroke-opacity="1" stroke-linejoin="bevel" stroke-miterlimit="10" stroke-width="3">–12</text><text fill="rgb(0,0,0)" stroke="none" font-family="geogebra-sans-serif, sans-serif" font-size="12px" font-style="normal" font-weight="normal" text-decoration="normal" x="418" y="776" text-anchor="start" dominant-baseline="alphabetic" fill-opacity="1">–12</text><text fill="none" stroke="rgb(255,255,255)" font-family="geogebra-sans-serif, sans-serif" font-size="12px" font-style="normal" font-weight="normal" text-decoration="normal" x="418" y="706" text-anchor="start" dominant-baseline="alphabetic" stroke-opacity="1" stroke-linejoin="bevel" stroke-miterlimit="10" stroke-width="3">–10</text><text fill="rgb(0,0,0)" stroke="none" font-family="geogebra-sans-serif, sans-serif" font-size="12px" font-style="normal" font-weight="normal" text-decoration="normal" x="418" y="706" text-anchor="start" dominant-baseline="alphabetic" fill-opacity="1">–10</text><text fill="none" stroke="rgb(255,255,255)" font-family="geogebra-sans-serif, sans-serif" font-size="12px" font-style="normal" font-weight="normal" text-decoration="normal" x="425" y="637" text-anchor="start" dominant-baseline="alphabetic" stroke-opacity="1" stroke-linejoin="bevel" stroke-miterlimit="10" stroke-width="3">–8</text><text fill="rgb(0,0,0)" stroke="none" font-family="geogebra-sans-serif, sans-serif" font-size="12px" font-style="normal" font-weight="normal" text-decoration="normal" x="425" y="637" text-anchor="start" dominant-baseline="alphabetic" fill-opacity="1">–8</text><text fill="none" stroke="rgb(255,255,255)" font-family="geogebra-sans-serif, sans-serif" font-size="12px" font-style="normal" font-weight="normal" text-decoration="normal" x="425" y="568" text-anchor="start" dominant-baseline="alphabetic" stroke-opacity="1" stroke-linejoin="bevel" stroke-miterlimit="10" stroke-width="3">–6</text><text fill="rgb(0,0,0)" stroke="none" font-family="geogebra-sans-serif, sans-serif" font-size="12px" font-style="normal" font-weight="normal" text-decoration="normal" x="425" y="568" text-anchor="start" dominant-baseline="alphabetic" fill-opacity="1">–6</text><text fill="none" stroke="rgb(255,255,255)" font-family="geogebra-sans-serif, sans-serif" font-size="12px" font-style="normal" font-weight="normal" text-decoration="normal" x="425" y="499" text-anchor="start" dominant-baseline="alphabetic" stroke-opacity="1" stroke-linejoin="bevel" stroke-miterlimit="10" stroke-width="3">–4</text><text fill="rgb(0,0,0)" stroke="none" font-family="geogebra-sans-serif, sans-serif" font-size="12px" font-style="normal" font-weight="normal" text-decoration="normal" x="425" y="499" text-anchor="start" dominant-baseline="alphabetic" fill-opacity="1">–4</text><text fill="none" stroke="rgb(255,255,255)" font-family="geogebra-sans-serif, sans-serif" font-size="12px" font-style="normal" font-weight="normal" text-decoration="normal" x="425" y="430" text-anchor="start" dominant-baseline="alphabetic" stroke-opacity="1" stroke-linejoin="bevel" stroke-miterlimit="10" stroke-width="3">–2</text><text fill="rgb(0,0,0)" stroke="none" font-family="geogebra-sans-serif, sans-serif" font-size="12px" font-style="normal" font-weight="normal" text-decoration="normal" x="425" y="430" text-anchor="start" dominant-baseline="alphabetic" fill-opacity="1">–2</text><text fill="none" stroke="rgb(255,255,255)" font-family="geogebra-sans-serif, sans-serif" font-size="12px" font-style="normal" font-weight="normal" text-decoration="normal" x="432" y="292" text-anchor="start" dominant-baseline="alphabetic" stroke-opacity="1" stroke-linejoin="bevel" stroke-miterlimit="10" stroke-width="3">2</text><text fill="rgb(0,0,0)" stroke="none" font-family="geogebra-sans-serif, sans-serif" font-size="12px" font-style="normal" font-weight="normal" text-decoration="normal" x="432" y="292" text-anchor="start" dominant-baseline="alphabetic" fill-opacity="1">2</text><text fill="none" stroke="rgb(255,255,255)" font-family="geogebra-sans-serif, sans-serif" font-size="12px" font-style="normal" font-weight="normal" text-decoration="normal" x="432" y="223" text-anchor="start" dominant-baseline="alphabetic" stroke-opacity="1" stroke-linejoin="bevel" stroke-miterlimit="10" stroke-width="3">4</text><text fill="rgb(0,0,0)" stroke="none" font-family="geogebra-sans-serif, sans-serif" font-size="12px" font-style="normal" font-weight="normal" text-decoration="normal" x="432" y="223" text-anchor="start" dominant-baseline="alphabetic" fill-opacity="1">4</text><text fill="none" stroke="rgb(255,255,255)" font-family="geogebra-sans-serif, sans-serif" font-size="12px" font-style="normal" font-weight="normal" text-decoration="normal" x="432" y="153" text-anchor="start" dominant-baseline="alphabetic" stroke-opacity="1" stroke-linejoin="bevel" stroke-miterlimit="10" stroke-width="3">6</text><text fill="rgb(0,0,0)" stroke="none" font-family="geogebra-sans-serif, sans-serif" font-size="12px" font-style="normal" font-weight="normal" text-decoration="normal" x="432" y="153" text-anchor="start" dominant-baseline="alphabetic" fill-opacity="1">6</text><text fill="none" stroke="rgb(255,255,255)" font-family="geogebra-sans-serif, sans-serif" font-size="12px" font-style="normal" font-weight="normal" text-decoration="normal" x="432" y="84" text-anchor="start" dominant-baseline="alphabetic" stroke-opacity="1" stroke-linejoin="bevel" stroke-miterlimit="10" stroke-width="3">8</text><text fill="rgb(0,0,0)" stroke="none" font-family="geogebra-sans-serif, sans-serif" font-size="12px" font-style="normal" font-weight="normal" text-decoration="normal" x="432" y="84" text-anchor="start" dominant-baseline="alphabetic" fill-opacity="1">8</text><text fill="none" stroke="rgb(255,255,255)" font-family="geogebra-sans-serif, sans-serif" font-size="12px" font-style="normal" font-weight="normal" text-decoration="normal" x="425" y="15" text-anchor="start" dominant-baseline="alphabetic" stroke-opacity="1" stroke-linejoin="bevel" stroke-miterlimit="10" stroke-width="3">10</text><text fill="rgb(0,0,0)" stroke="none" font-family="geogebra-sans-serif, sans-serif" font-size="12px" font-style="normal" font-weight="normal" text-decoration="normal" x="425" y="15" text-anchor="start" dominant-baseline="alphabetic" fill-opacity="1">10</text><text fill="none" stroke="rgb(255,255,255)" font-family="geogebra-sans-serif, sans-serif" font-size="12px" font-style="normal" font-weight="normal" text-decoration="normal" x="432" y="372" text-anchor="start" dominant-baseline="alphabetic" stroke-opacity="1" stroke-linejoin="bevel" stroke-miterlimit="10" stroke-width="3">0</text><text fill="rgb(0,0,0)" stroke="none" font-family="geogebra-sans-serif, sans-serif" font-size="12px" font-style="normal" font-weight="normal" text-decoration="normal" x="432" y="372" text-anchor="start" dominant-baseline="alphabetic" fill-opacity="1">0</text><path fill="none" stroke="rgb(102,153,255)" paint-order="fill stroke markers" d=" M 1067.5894649444185 482.5187179258429 L 1059.9687548173333 486.86910538988 L 1052.4924995533174 490.4002486152378 L 1045.1922339126577 492.9333050892138 L 1038.0928004987236 494.3273854069686 L 1031.2114050965884 494.48491071242097 L 1027.8555928628516 494.0822639575244 L 1024.5569624082432 493.3553232182451 L 1018.1297570633777 490.9370087092527 L 1011.9214327960935 487.2773579243161 L 1005.9153101991062 482.47096448272805 L 1000.0870209725657 476.65602788040394 L 994.4054345496336 470.0090983350885 L 988.8338418630842 462.7383633123537 L 983.3313512391846 455.0757310180153 L 977.8544433387872 447.2680118889823 L 972.3586260176622 439.5675334139422 L 966.8001261785795 432.2225451634028 L 961.1375542810111 425.46777888608335 L 955.3334782140369 419.51552263211505 L 949.3558466845838 414.5475483171996 L 943.1792079954336 410.70819968904743 L 936.7856778679189 408.0989035321217 L 933.5042326068867 407.27450071694545 L 930.1656195070142 406.774312826852 L 923.3180100487609 406.7402285230087 L 919.8109257360286 407.1954883595355 L 916.2504794555512 407.95337895359467 L 908.9790203802388 410.3230652772306 L 901.5273800317493 413.7146103796711 L 893.9261571670189 417.954480087002 L 886.2116385469226 422.83688195198033 L 878.4244191009566 428.1315906889838 L 870.6078582701011 433.59270268867266 L 862.8064312267538 438.96798671440524 L 855.0640376680149 444.0084752121294 L 847.4223324919172 448.4779315159337 L 839.9191418340722 452.1618329506185 L 832.5870246963029 454.8755282410793 L 825.4520348625738 456.47125903598794 L 818.5327301814277 456.84377854629105 L 815.1575294547822 456.5510893987373 L 811.8394668878211 455.93435364495855 L 805.3740057983762 453.7329982446962 L 802.2248777661255 452.1581871355103 L 799.1294453548117 450.27885302751054 L 793.0904840616381 445.658697086584 L 787.2340023386948 440.0036480765581 L 781.5299416630872 433.4841763518509 L 775.9424475703931 426.30362268469173 L 770.4312330515357 418.6904660572232 L 764.953110500983 410.8896355515338 L 759.4636339626225 403.1531967104785 L 753.9187892255018 395.73076652843724 L 748.2766675020864 388.8600215502357 L 742.4990590459809 382.7576600159393 L 736.5529061104257 377.61116172374307 L 730.4115599975734 373.5716589492651 L 724.0557943981635 370.74818951067294 L 720.7937118182381 369.81397547415673 L 717.4745364884817 369.2035505117894 L 710.665287984013 368.95191042816464 L 707.1767613070351 369.30192468242177 L 703.6342201388609 369.95827033859734 L 696.395939078498 372.1397947892399 L 688.9729303892718 375.368961683035 L 681.3947040846293 379.4784114172258 L 673.6966724614529 384.26731087631174 L 665.9188035169892 389.5089902841406 L 658.1041011313501 394.9595625172614 L 650.2969698079539 400.3671971227288 L 642.5415261540602 405.4816963878492 L 634.8799213088032 410.0640093235733 L 627.3507381098435 413.8953217841271 L 619.9875239477544 416.78537706325744 L 612.8175150976178 418.5797105692586 L 605.8606010362195 419.1655234740328 L 602.4660687710057 418.98246892970656 L 599.128568127574 418.4759719856247 L 592.6246514362874 416.4927091409491 L 589.4568723284967 415.02367353738924 L 586.3434117114409 413.24658246485467 L 580.2709422187888 408.81646096643897 L 574.3853975562992 403.3262360770874 L 568.6578243443705 396.94011057215073 L 563.0532622030136 389.8563546190686 L 557.5320731503944 382.2997663835835 L 552.0514488712125 374.5131238859852 L 546.5670385397407 366.7479531579083 L 541.0346352981481 359.25496374846864 L 535.4118572603238 352.27451527785047 L 529.6597591195766 346.0274775558497 L 523.7443130774466 340.7068318172347 L 517.6377027800315 336.4703324441775 L 511.31938105878896 333.4345082200792 L 508.0765935527306 332.39086638193254 L 504.7768512543059 331.6702312222741 L 498.0061424125304 331.2000218502832 L 494.5363551160534 331.44375979659503 L 491.0119602837176 331.9971924682372 L 483.8075083822254 333.9868622252029 L 476.4139859115158 337.04880446399636 L 468.8597816461949 341.0220184433122 L 461.1793944244221 345.7108515294993 L 453.41212129989276 350.89243905637073 L 445.60056323754486 356.3251789459755 L 437.78900517519696 361.75791883558026 L 430.0217320506676 366.9395063624517 L 422.3413448288948 371.62833944863877 L 414.7871405635739 375.6015534279546 L 407.3936180928643 378.6634956667481 L 400.1891661913721 380.6531654237138 L 393.19498406255934 381.4503360416678 L 389.7811985003034 381.3764723708248 L 386.42427522078384 380.9801266696769 L 379.88174541630076 379.2158496718718 L 376.69514378218406 377.85356191966343 L 373.5634236950582 376.1800254477735 L 367.4568133976432 371.9435260747163 L 361.5413673555131 366.6228803361013 L 355.78926921476585 360.3758426141005 L 350.1664911769415 353.39539414348235 L 344.63408793534904 345.9024047340427 L 339.14967760387714 338.1372340059658 L 333.6690533246954 330.3505915083675 L 328.14786427207616 322.7940032728824 L 322.54330213071927 315.71024731980026 L 316.81572891879057 309.3241218148636 L 310.93018425630095 303.833896925512 L 304.8577147636488 299.4037754270963 L 298.57647503880224 296.1576487510019 L 295.35289375233924 295.0050830288409 L 292.0725583475157 294.1743859063263 L 285.34052543887026 293.4848344179182 L 281.88963863251763 293.62138235820595 L 278.38361137747194 294.07064732269237 L 271.2136025273353 295.86498082869355 L 263.8503883652462 298.7550361078239 L 256.3212051662866 302.5863485683777 L 248.6596003210295 307.1686615041018 L 240.90415666713574 312.2831607692222 L 233.09702534373957 317.69079537468957 L 225.2823229581005 323.14136760781037 L 217.50445401363686 328.38304701563925 L 209.8064223904604 333.1719464747252 L 202.22819608581787 337.28139620891596 L 194.80518739659175 340.5105631027111 L 187.56690633622884 342.69208755335364 L 180.53583849107673 343.69844746378635 L 177.10289907433355 343.73321069967216 L 173.72658998660802 343.4468073801616 L 167.14533207692625 341.90216838127805 L 163.9397571923776 340.6474832793034 L 160.78956647751636 339.0786989426859 L 154.64822036466404 335.0391961682079 L 148.70206742910887 329.8926978760117 L 142.9244589730033 323.7903363417153 L 137.282337249588 316.91959136351375 L 131.7374925124672 309.4971611814725 L 126.24801597410675 301.7607223404172 L 120.76989342355398 293.9598918347278 L 115.25867890469664 286.34673520725926 L 109.67118481200248 279.16618154010007 L 103.96712413639483 272.6467098153929 L 98.11064241345167 266.99166080536696 L 92.07168112027801 262.37150486444045 L 85.82712067671349 258.9173596472548 L 82.62263560638502 257.65649390170637 L 79.36165958726855 256.71600424699244 L 72.66839629366206 255.80657934565994 L 69.23655027452656 255.83514161557247 L 65.74909161251594 256.17909885596305 L 58.61410177878673 257.7748296508717 L 51.281984641017516 260.4885249413325 L 43.77879398317248 264.1724263760173 L 36.13708880707486 268.6418826798216 L 28.394695248335893 273.68237117754575 L 20.593268204988533 279.05765520327833 L 12.776707374133196 284.5187672029672 L 4.989487928167193 289.81347593997066 L -2.7250306919291916 294.69587780494896 L -10.326253556659651 298.9357475122799" stroke-opacity="0.8" stroke-linecap="round" stroke-linejoin="round" stroke-miterlimit="10" stroke-width="2.5"/><path fill="rgb(97,97,97)" stroke="none" paint-order="stroke fill markers" d=" M 320.8108894174858 308.30631990322985 C 320.8108894174858 311.0677436523838 318.57231316663973 313.30631990322985 315.8108894174858 313.30631990322985 C 313.04946566833183 313.30631990322985 310.8108894174858 311.0677436523838 310.8108894174858 308.30631990322985 C 310.8108894174858 305.5448961540759 313.04946566833183 303.30631990322985 315.8108894174858 303.30631990322985 C 318.57231316663973 303.30631990322985 320.8108894174858 305.5448961540759 320.8108894174858 308.30631990322985 Z" fill-opacity="1"/><path fill="none" stroke="rgb(0,0,0)" paint-order="fill stroke markers" d=" M 320.8108894174858 308.30631990322985 C 320.8108894174858 311.0677436523838 318.57231316663973 313.30631990322985 315.8108894174858 313.30631990322985 C 313.04946566833183 313.30631990322985 310.8108894174858 311.0677436523838 310.8108894174858 308.30631990322985 C 310.8108894174858 305.5448961540759 313.04946566833183 303.30631990322985 315.8108894174858 303.30631990322985 C 318.57231316663973 303.30631990322985 320.8108894174858 305.5448961540759 320.8108894174858 308.30631990322985 Z" stroke-opacity="1" stroke-linecap="round" stroke-linejoin="round" stroke-miterlimit="10"/><path fill="rgb(97,97,97)" stroke="none" paint-order="stroke fill markers" d=" M 320.8108894174858 308.30631990322985 C 320.8108894174858 311.0677436523838 318.57231316663973 313.30631990322985 315.8108894174858 313.30631990322985 C 313.04946566833183 313.30631990322985 310.8108894174858 311.0677436523838 310.8108894174858 308.30631990322985 C 310.8108894174858 305.5448961540759 313.04946566833183 303.30631990322985 315.8108894174858 303.30631990322985 C 318.57231316663973 303.30631990322985 320.8108894174858 305.5448961540759 320.8108894174858 308.30631990322985 Z" fill-opacity="1"/><path fill="none" stroke="rgb(0,0,0)" paint-order="fill stroke markers" d=" M 320.8108894174858 308.30631990322985 C 320.8108894174858 311.0677436523838 318.57231316663973 313.30631990322985 315.8108894174858 313.30631990322985 C 313.04946566833183 313.30631990322985 310.8108894174858 311.0677436523838 310.8108894174858 308.30631990322985 C 310.8108894174858 305.5448961540759 313.04946566833183 303.30631990322985 315.8108894174858 303.30631990322985 C 318.57231316663973 303.30631990322985 320.8108894174858 305.5448961540759 320.8108894174858 308.30631990322985 Z" stroke-opacity="1" stroke-linecap="round" stroke-linejoin="round" stroke-miterlimit="10"/><text fill="none" stroke="rgb(255,255,255)" font-family="geogebra-sans-serif, sans-serif" font-size="16px" font-style="normal" font-weight="normal" text-decoration="normal" x="320" y="298" text-anchor="start" dominant-baseline="alphabetic" stroke-opacity="1" stroke-linecap="round" stroke-linejoin="bevel" stroke-miterlimit="10" stroke-width="3">R</text><text fill="rgb(97,97,97)" stroke="none" font-family="geogebra-sans-serif, sans-serif" font-size="16px" font-style="normal" font-weight="normal" text-decoration="normal" x="320" y="298" text-anchor="start" dominant-baseline="alphabetic" fill-opacity="1">R</text></g></g></svg>