<svg version="1.1" xmlns="http://www.w3.org/2000/svg" xmlns:xlink="http://www.w3.org/1999/xlink" width="279" height="386"><defs><clipPath id="DbwgcwJgtzaJ"><path fill="none" stroke="none" d=" M 0 0 L 279 0 L 279 386 L 0 386 L 0 0 Z"/></clipPath></defs><g transform="scale(1,1)" clip-path="url(#DbwgcwJgtzaJ)"><g transform="translate(-275,-83)"><rect fill="rgb(255,255,255)" stroke="none" x="0" y="0" width="1060" height="756" fill-opacity="1"/><path fill="none" stroke="rgb(0,0,0)" paint-order="fill stroke markers" d=" M 334.5 2.5 L 334.5 756.5" stroke-opacity="1" stroke-miterlimit="10"/><path fill="none" stroke="rgb(0,0,0)" paint-order="fill stroke markers" d=" M 334.5 1.5 L 330.5 5.5" stroke-opacity="1" stroke-miterlimit="10"/><path fill="none" stroke="rgb(0,0,0)" paint-order="fill stroke markers" d=" M 334.5 1.5 L 338.5 5.5" stroke-opacity="1" stroke-miterlimit="10"/><path fill="none" stroke="rgb(0,0,0)" paint-order="fill stroke markers" d=" M 0.5 297.5 L 1058.5 297.5" stroke-opacity="1" stroke-miterlimit="10"/><path fill="none" stroke="rgb(0,0,0)" paint-order="fill stroke markers" d=" M 1059.5 297.5 L 1055.5 293.5" stroke-opacity="1" stroke-miterlimit="10"/><path fill="none" stroke="rgb(0,0,0)" paint-order="fill stroke markers" d=" M 1059.5 297.5 L 1055.5 301.5" stroke-opacity="1" stroke-miterlimit="10"/><path fill="none" stroke="rgb(102,153,255)" paint-order="fill stroke markers" d=" M 289.8697541841997 241.76024790137973 L 291.92706459209984 249.1394255121429 L 293.984375 256.07051686617115 M 293.984375 256.07051686617115 L 296.0546875 262.39878760749343 L 298.125 267.9187244605482 M 298.125 267.9187244605482 L 302.265625 276.0936758380167 L 303.30078125 277.4949299532284 L 304.3359375 278.6341649007997 L 305.37109375 279.5134074729637 L 306.40625 280.13716430147116 L 306.923828125 280.3552969322549 L 307.44140625 280.512318474254 L 308.4765625 280.6480065023885 L 308.994140625 280.62948761972524 L 309.51171875 280.55547701973956 L 310.546875 280.24793273306074 L 311.58203125 279.7403572614027 L 312.6171875 279.0493286096679 L 314.6875 277.1899977496201 L 318.828125 272.1282074046264 L 322.96875 266.4176945579038 L 327.109375 261.37860626573945 L 329.1796875 259.4617756463554 L 331.25 258.0879471352124 M 331.25 258.0879471352124 L 333.3203125 257.32698262314176 L 333.837890625 257.23766151391084 L 334.35546875 257.18944022827907 L 335.390625 257.2167139989104 L 336.42578125 257.40832711322133 L 337.4609375 257.76171746805295 L 338.49609375 258.27226908353197 L 339.53125 258.9333629230651 L 341.6015625 260.6711221888379 L 343.671875 262.88507775024664 L 347.8125 268.2575959774354 L 351.953125 273.9038730266953 L 356.09375 278.5229270972177 L 357.12890625 279.3665405939446 L 358.1640625 280.0487402168442 L 359.19921875 280.55292734536806 L 360.234375 280.8638663243798 L 360.751953125 280.9425203672613 L 361.26953125 280.9678503429272 L 362.3046875 280.8528551173925 L 362.822265625 280.7099775535494 L 363.33984375 280.50867904294705 L 364.375 279.92706858679975 L 365.41015625 279.10182781564924 L 366.4453125 278.0289110770809 L 368.515625 275.13505003516997 L 370.5859375 271.2585112542349 L 372.65625 266.44956824546136 L 374.7265625 260.7953835686074 L 376.796875 254.41839934448578 L 378.8671875 247.4735135618474 L 380.9375 240.14411699313422 L 383.0078125 232.63710141179615 L 385.078125 225.17698230204203 L 387.1484375 217.99930742332813 L 389.21875 211.34354562530677 L 391.2890625 205.44566755001972 L 393.359375 200.53064082613145 L 395.4296875 196.80506675941274 L 396.46484375 195.44613237118 L 397.5 194.4501832502179 M 397.5 194.4501832502179 L 398.53515625 193.83485807455202 L 399.052734375 193.67480448701647 L 399.5703125 193.6154498099524 L 400.087890625 193.65831375937722 L 400.60546875 193.8047509909365 L 401.123046875 194.0559471791617 L 401.640625 194.41291537921467 L 402.158203125 194.87649267891464 L 402.67578125 195.4473371483413 L 403.7109375 196.91254862232074 L 405.78125 201.1386841006846 L 407.8515625 207.0677069688883 L 409.921875 214.62706447091466 L 411.9921875 223.6956555136841 L 413.02734375 228.74520450138255 L 414.0625 234.10561100167305 L 415.09765625 239.74910003239972 L 416.1328125 245.64543850871036 L 417.16796875 251.7621031721974 L 418.203125 258.06446632756547 L 419.23828125 264.51599825416866 L 420.2734375 271.07848503917364 L 421.30859375 277.71226046681824 L 422.34375 284.37645049503715 L 423.37890625 291.0292287572941 L 424.4140625 297.62808144442783 L 425.44921875 304.1300798492634 L 426.484375 310.49215879611467 L 427.51953125 316.6713991285467 L 428.5546875 322.6253123921721 L 429.58984375 328.31212582509755 L 430.625 333.6910657570425 L 432.6953125 343.3688999808449 L 434.765625 351.36309494918936 L 438.90625 361.29127287235667 L 439.423828125 361.9010612971729 L 439.94140625 362.3620057108518 L 440.458984375 362.67210394360075 L 440.9765625 362.8295723749051 L 441.494140625 362.8328501295322 L 442.01171875 362.6806029394641 L 442.529296875 362.371726664343 L 443.046875 361.9053504635426 L 443.564453125 361.2808396135269 L 444.08203125 360.4977979647118 L 445.1171875 358.4557427186209 L 447.1875 352.4787259707337 L 449.2578125 344.0346771387769 L 450.29296875 338.9234803495664 L 451.328125 333.24638165930776 L 452.36328125 327.02822386866774 L 453.3984375 320.29746936338256 L 454.43359375 313.0860668891278 L 455.46875 305.42929548963997 L 456.50390625 297.3655864308181 L 457.5390625 288.9363240751069 L 458.57421875 280.18562680627076 L 459.609375 271.1601092338332 L 460.64453125 261.9086270281721 L 461.6796875 252.48200585079303 L 462.71484375 242.9327559488871 L 463.75 233.31477407834268 L 464.78515625 223.68303450424744 L 465.8203125 214.09327090214282 L 466.85546875 204.60165104636167 L 467.890625 195.26444622333338 L 468.92578125 186.13769734746467 L 469.9609375 177.27687978483758 L 470.99609375 168.73656890537436 L 472.03125 160.57010838717747 L 473.06640625 152.8292832874827 L 474.1015625 145.56399987309075 L 475.13671875 138.8219741694457 L 476.171875 132.6484311418731 L 477.20703125 127.08581636520239 L 478.2421875 122.17352196939754 L 480.3125 114.44066479714547 L 482.3828125 109.69457320099127 L 482.900390625 108.99745452194404 L 483.41796875 108.50085455247097 L 483.935546875 108.20667726973329 L 484.453125 108.1165488859123 L 484.970703125 108.23181430166039 L 485.48828125 108.55353395550333 L 486.005859375 109.08248107478076 L 486.5234375 109.81913933313163 L 487.55859375 111.91606501856907 L 488.59375 114.84232632250794 L 490.6640625 123.1513502335084 L 491.69921875 128.50659968762588 L 492.734375 134.6362371388653 L 493.76953125 141.51496997604494 L 494.8046875 149.1130561490098 L 495.83984375 157.39643676803254 L 496.875 166.32689418045024 L 497.91015625000006 175.86223472975934 L 498.427734375 180.84251382346275 L 498.9453125 185.9564952576578 L 499.462890625 191.19788225416107 L 499.98046875 196.56017227015343 L 500.498046875 202.0366653125157 L 501.015625 207.62047255561197 L 501.53320312500006 213.3045252509017 L 502.05078125 219.0815839163327 L 502.568359375 224.94424779304714 L 503.0859375 230.88496455653473 L 503.60351562500006 236.8960402689951 L 504.12109375 242.9696495593087 L 504.638671875 249.09784601668014 L 505.15625000000006 255.27257278368097 L 505.673828125 261.4856733341416 L 506.19140625 267.7289024210579 L 506.708984375 273.9939371793994 L 507.22656250000006 280.27238836849824 L 507.744140625 286.5558117384672 L 508.26171875 292.8357195049069 L 508.779296875 299.1035919159868 L 509.296875 305.3508888958487 L 509.814453125 311.5690617481457 L 510.33203125 317.74956490343584 L 510.84960937500006 323.8838676940584 L 511.3671875 329.96346614008723 L 511.884765625 335.979894729901 L 512.40234375 341.9247381789123 L 512.919921875 347.789643150014 L 513.4375 353.5663299193286 L 513.955078125 359.2466039709246 L 514.47265625 364.8223675042249 L 514.990234375 370.28563083795495 L 515.5078125 375.628523694612 L 516.025390625 380.84330634957007 L 516.54296875 385.9223806291214 L 517.578125 395.6437839288231 L 518.61328125 404.73518615245086 L 519.6484375 413.1419776628686 L 520.68359375 420.8128030323384 L 521.71875 427.699861191252 L 522.75390625 433.75918761220635 L 523.7890625 438.9509169179945 L 525.859375 446.59404510966624 L 526.89453125 448.98826908997296 L 527.412109375 449.8184218783483 L 527.9296875 450.4009118776014 L 528.447265625 450.73387184732576 L 528.96484375 450.815758997819 L 529.482421875 450.64535803147857 L 530 450.22178374968007 M 530 450.22178374968007 L 530.517578125 449.54448322096783 L 531.03515625 448.6132375069855 L 532.0703125 445.9897119718482 L 534.140625 437.72296546993755 L 535.17578125 432.1057898797558 L 536.2109375 425.52564940052963 L 537.24609375 418.0087689106912 L 538.28125 409.58648557935476 M 538.28125 409.58648557935476 L 538.4841665910043 407.8324023948462" stroke-opacity="0.8" stroke-linecap="round" stroke-linejoin="round" stroke-miterlimit="10" stroke-width="2.5"/><path fill="rgb(97,97,97)" stroke="none" paint-order="stroke fill markers" d=" M 484.79486289371897 116.1025922689009 C 484.79486289371897 118.86401601805487 482.5562866428729 121.1025922689009 479.79486289371897 121.1025922689009 C 477.033439144565 121.1025922689009 474.79486289371897 118.86401601805487 474.79486289371897 116.1025922689009 C 474.79486289371897 113.34116851974694 477.033439144565 111.1025922689009 479.79486289371897 111.1025922689009 C 482.5562866428729 111.1025922689009 484.79486289371897 113.34116851974694 484.79486289371897 116.1025922689009 Z" fill-opacity="1"/><path fill="none" stroke="rgb(0,0,0)" paint-order="fill stroke markers" d=" M 484.79486289371897 116.1025922689009 C 484.79486289371897 118.86401601805487 482.5562866428729 121.1025922689009 479.79486289371897 121.1025922689009 C 477.033439144565 121.1025922689009 474.79486289371897 118.86401601805487 474.79486289371897 116.1025922689009 C 474.79486289371897 113.34116851974694 477.033439144565 111.1025922689009 479.79486289371897 111.1025922689009 C 482.5562866428729 111.1025922689009 484.79486289371897 113.34116851974694 484.79486289371897 116.1025922689009 Z" stroke-opacity="1" stroke-linecap="round" stroke-linejoin="round" stroke-miterlimit="10"/><text fill="rgb(96,96,96)" stroke="none" font-family="geogebra-sans-serif, sans-serif" font-size="16px" font-style="normal" font-weight="normal" text-decoration="normal" x="462" y="106" text-anchor="start" dominant-baseline="alphabetic" fill-opacity="1">Q</text></g></g></svg>