<svg version="1.1" xmlns="http://www.w3.org/2000/svg" xmlns:xlink="http://www.w3.org/1999/xlink" width="320" height="270" viewBox="0 0 320 270">
  <defs>
    <clipPath id="SlhwXJsCncnp">
      <path fill="none" stroke="none" d=" M 0 0 L 320 0 L 320 270 L 0 270 L 0 0 Z" />
    </clipPath>
  </defs>
  <g transform="scale(1,1)" clip-path="url(#SlhwXJsCncnp)">
    <g transform="translate(-579,-361)">
      <rect fill="rgba(255,255,255,0)" stroke="none" x="0" y="0" width="1478" height="932" fill-opacity="1" />
      <path fill="none" stroke="rgb(192,192,192)" paint-order="fill stroke markers" d=" M 39.5 0.5 L 39.5 932.5 M 39.5 0.5 L 39.5 932.5 M 89.5 0.5 L 89.5 932.5 M 139.5 0.5 L 139.5 932.5 M 189.5 0.5 L 189.5 932.5 M 239.5 0.5 L 239.5 932.5 M 289.5 0.5 L 289.5 932.5 M 339.5 0.5 L 339.5 932.5 M 389.5 0.5 L 389.5 932.5 M 439.5 0.5 L 439.5 932.5 M 489.5 0.5 L 489.5 932.5 M 539.5 0.5 L 539.5 932.5 M 589.5 0.5 L 589.5 932.5 M 639.5 0.5 L 639.5 932.5 M 689.5 0.5 L 689.5 932.5 M 789.5 0.5 L 789.5 932.5 M 839.5 0.5 L 839.5 932.5 M 889.5 0.5 L 889.5 932.5 M 939.5 0.5 L 939.5 932.5 M 989.5 0.5 L 989.5 932.5 M 1039.5 0.5 L 1039.5 932.5 M 1089.5 0.5 L 1089.5 932.5 M 1139.5 0.5 L 1139.5 932.5 M 1189.5 0.5 L 1189.5 932.5 M 1239.5 0.5 L 1239.5 932.5 M 1289.5 0.5 L 1289.5 932.5 M 1339.5 0.5 L 1339.5 932.5 M 1389.5 0.5 L 1389.5 932.5 M 1439.5 0.5 L 1439.5 932.5" stroke-opacity="1" stroke-linecap="round" stroke-linejoin="round" stroke-miterlimit="10" />
      <path fill="none" stroke="rgb(192,192,192)" paint-order="fill stroke markers" d="" stroke-opacity="0.23529411764705882" stroke-linecap="round" stroke-linejoin="round" stroke-miterlimit="10" />
      <path fill="none" stroke="rgb(192,192,192)" paint-order="fill stroke markers" d=" M 0.5 40.5 L 1478.5 40.5 M 0.5 40.5 L 1478.5 40.5 M 0.5 90.5 L 1478.5 90.5 M 0.5 140.5 L 1478.5 140.5 M 0.5 190.5 L 1478.5 190.5 M 0.5 240.5 L 1478.5 240.5 M 0.5 290.5 L 1478.5 290.5 M 0.5 340.5 L 1478.5 340.5 M 0.5 390.5 L 1478.5 390.5 M 0.5 440.5 L 1478.5 440.5 M 0.5 540.5 L 1478.5 540.5 M 0.5 590.5 L 1478.5 590.5 M 0.5 640.5 L 1478.5 640.5 M 0.5 690.5 L 1478.5 690.5 M 0.5 740.5 L 1478.5 740.5 M 0.5 790.5 L 1478.5 790.5 M 0.5 840.5 L 1478.5 840.5 M 0.5 890.5 L 1478.5 890.5" stroke-opacity="1" stroke-linecap="round" stroke-linejoin="round" stroke-miterlimit="10" />
      <path fill="none" stroke="rgb(192,192,192)" paint-order="fill stroke markers" d="" stroke-opacity="0.23529411764705882" stroke-linecap="round" stroke-linejoin="round" stroke-miterlimit="10" />
      <path fill="none" stroke="rgb(0,0,0)" paint-order="fill stroke markers" d=" M 739.5 2.5 L 739.5 932.5" stroke-opacity="1" stroke-miterlimit="10" />
      <path fill="none" stroke="rgb(0,0,0)" paint-order="fill stroke markers" d=" M 739.5 1.5 L 735.5 5.5" stroke-opacity="1" stroke-miterlimit="10" />
      <path fill="none" stroke="rgb(0,0,0)" paint-order="fill stroke markers" d=" M 739.5 1.5 L 743.5 5.5" stroke-opacity="1" stroke-miterlimit="10" />
      <path fill="none" stroke="rgb(0,0,0)" paint-order="fill stroke markers" d=" M 0.5 490.5 L 1476.5 490.5" stroke-opacity="1" stroke-miterlimit="10" />
      <path fill="none" stroke="rgb(0,0,0)" paint-order="fill stroke markers" d=" M 1477.5 490.5 L 1473.5 486.5" stroke-opacity="1" stroke-miterlimit="10" />
      <path fill="none" stroke="rgb(0,0,0)" paint-order="fill stroke markers" d=" M 1477.5 490.5 L 1473.5 494.5" stroke-opacity="1" stroke-miterlimit="10" />
      <text fill="rgb(0,0,0)" stroke="none" font-family="geogebra-sans-serif, sans-serif" font-size="12px" font-style="normal" font-weight="normal" text-decoration="normal" x="31" y="506" text-anchor="start" dominant-baseline="alphabetic" fill-opacity="1">–14</text>
      <text fill="rgb(0,0,0)" stroke="none" font-family="geogebra-sans-serif, sans-serif" font-size="12px" font-style="normal" font-weight="normal" text-decoration="normal" x="81" y="506" text-anchor="start" dominant-baseline="alphabetic" fill-opacity="1">–13</text>
      <text fill="rgb(0,0,0)" stroke="none" font-family="geogebra-sans-serif, sans-serif" font-size="12px" font-style="normal" font-weight="normal" text-decoration="normal" x="131" y="506" text-anchor="start" dominant-baseline="alphabetic" fill-opacity="1">–12</text>
      <text fill="rgb(0,0,0)" stroke="none" font-family="geogebra-sans-serif, sans-serif" font-size="12px" font-style="normal" font-weight="normal" text-decoration="normal" x="181" y="506" text-anchor="start" dominant-baseline="alphabetic" fill-opacity="1">–11</text>
      <text fill="rgb(0,0,0)" stroke="none" font-family="geogebra-sans-serif, sans-serif" font-size="12px" font-style="normal" font-weight="normal" text-decoration="normal" x="231" y="506" text-anchor="start" dominant-baseline="alphabetic" fill-opacity="1">–10</text>
      <text fill="rgb(0,0,0)" stroke="none" font-family="geogebra-sans-serif, sans-serif" font-size="12px" font-style="normal" font-weight="normal" text-decoration="normal" x="284" y="506" text-anchor="start" dominant-baseline="alphabetic" fill-opacity="1">–9</text>
      <text fill="rgb(0,0,0)" stroke="none" font-family="geogebra-sans-serif, sans-serif" font-size="12px" font-style="normal" font-weight="normal" text-decoration="normal" x="334" y="506" text-anchor="start" dominant-baseline="alphabetic" fill-opacity="1">–8</text>
      <text fill="rgb(0,0,0)" stroke="none" font-family="geogebra-sans-serif, sans-serif" font-size="12px" font-style="normal" font-weight="normal" text-decoration="normal" x="384" y="506" text-anchor="start" dominant-baseline="alphabetic" fill-opacity="1">–7</text>
      <text fill="rgb(0,0,0)" stroke="none" font-family="geogebra-sans-serif, sans-serif" font-size="12px" font-style="normal" font-weight="normal" text-decoration="normal" x="434" y="506" text-anchor="start" dominant-baseline="alphabetic" fill-opacity="1">–6</text>
      <text fill="rgb(0,0,0)" stroke="none" font-family="geogebra-sans-serif, sans-serif" font-size="12px" font-style="normal" font-weight="normal" text-decoration="normal" x="484" y="506" text-anchor="start" dominant-baseline="alphabetic" fill-opacity="1">–5</text>
      <text fill="rgb(0,0,0)" stroke="none" font-family="geogebra-sans-serif, sans-serif" font-size="12px" font-style="normal" font-weight="normal" text-decoration="normal" x="534" y="506" text-anchor="start" dominant-baseline="alphabetic" fill-opacity="1">–4</text>
      <text fill="rgb(0,0,0)" stroke="none" font-family="geogebra-sans-serif, sans-serif" font-size="12px" font-style="normal" font-weight="normal" text-decoration="normal" x="584" y="506" text-anchor="start" dominant-baseline="alphabetic" fill-opacity="1">–3</text>
      <text fill="rgb(0,0,0)" stroke="none" font-family="geogebra-sans-serif, sans-serif" font-size="12px" font-style="normal" font-weight="normal" text-decoration="normal" x="634" y="506" text-anchor="start" dominant-baseline="alphabetic" fill-opacity="1">–2</text>
      <text fill="rgb(0,0,0)" stroke="none" font-family="geogebra-sans-serif, sans-serif" font-size="12px" font-style="normal" font-weight="normal" text-decoration="normal" x="684" y="506" text-anchor="start" dominant-baseline="alphabetic" fill-opacity="1">–1</text>
      <text fill="rgb(0,0,0)" stroke="none" font-family="geogebra-sans-serif, sans-serif" font-size="12px" font-style="normal" font-weight="normal" text-decoration="normal" x="787" y="506" text-anchor="start" dominant-baseline="alphabetic" fill-opacity="1">1</text>
      <text fill="rgb(0,0,0)" stroke="none" font-family="geogebra-sans-serif, sans-serif" font-size="12px" font-style="normal" font-weight="normal" text-decoration="normal" x="837" y="506" text-anchor="start" dominant-baseline="alphabetic" fill-opacity="1">2</text>
      <text fill="rgb(0,0,0)" stroke="none" font-family="geogebra-sans-serif, sans-serif" font-size="12px" font-style="normal" font-weight="normal" text-decoration="normal" x="887" y="506" text-anchor="start" dominant-baseline="alphabetic" fill-opacity="1">3</text>
      <text fill="rgb(0,0,0)" stroke="none" font-family="geogebra-sans-serif, sans-serif" font-size="12px" font-style="normal" font-weight="normal" text-decoration="normal" x="937" y="506" text-anchor="start" dominant-baseline="alphabetic" fill-opacity="1">4</text>
      <text fill="rgb(0,0,0)" stroke="none" font-family="geogebra-sans-serif, sans-serif" font-size="12px" font-style="normal" font-weight="normal" text-decoration="normal" x="987" y="506" text-anchor="start" dominant-baseline="alphabetic" fill-opacity="1">5</text>
      <text fill="rgb(0,0,0)" stroke="none" font-family="geogebra-sans-serif, sans-serif" font-size="12px" font-style="normal" font-weight="normal" text-decoration="normal" x="1037" y="506" text-anchor="start" dominant-baseline="alphabetic" fill-opacity="1">6</text>
      <text fill="rgb(0,0,0)" stroke="none" font-family="geogebra-sans-serif, sans-serif" font-size="12px" font-style="normal" font-weight="normal" text-decoration="normal" x="1087" y="506" text-anchor="start" dominant-baseline="alphabetic" fill-opacity="1">7</text>
      <text fill="rgb(0,0,0)" stroke="none" font-family="geogebra-sans-serif, sans-serif" font-size="12px" font-style="normal" font-weight="normal" text-decoration="normal" x="1137" y="506" text-anchor="start" dominant-baseline="alphabetic" fill-opacity="1">8</text>
      <text fill="rgb(0,0,0)" stroke="none" font-family="geogebra-sans-serif, sans-serif" font-size="12px" font-style="normal" font-weight="normal" text-decoration="normal" x="1187" y="506" text-anchor="start" dominant-baseline="alphabetic" fill-opacity="1">9</text>
      <text fill="rgb(0,0,0)" stroke="none" font-family="geogebra-sans-serif, sans-serif" font-size="12px" font-style="normal" font-weight="normal" text-decoration="normal" x="1234" y="506" text-anchor="start" dominant-baseline="alphabetic" fill-opacity="1">10</text>
      <text fill="rgb(0,0,0)" stroke="none" font-family="geogebra-sans-serif, sans-serif" font-size="12px" font-style="normal" font-weight="normal" text-decoration="normal" x="1284" y="506" text-anchor="start" dominant-baseline="alphabetic" fill-opacity="1">11</text>
      <text fill="rgb(0,0,0)" stroke="none" font-family="geogebra-sans-serif, sans-serif" font-size="12px" font-style="normal" font-weight="normal" text-decoration="normal" x="1334" y="506" text-anchor="start" dominant-baseline="alphabetic" fill-opacity="1">12</text>
      <text fill="rgb(0,0,0)" stroke="none" font-family="geogebra-sans-serif, sans-serif" font-size="12px" font-style="normal" font-weight="normal" text-decoration="normal" x="1384" y="506" text-anchor="start" dominant-baseline="alphabetic" fill-opacity="1">13</text>
      <text fill="rgb(0,0,0)" stroke="none" font-family="geogebra-sans-serif, sans-serif" font-size="12px" font-style="normal" font-weight="normal" text-decoration="normal" x="1434" y="506" text-anchor="start" dominant-baseline="alphabetic" fill-opacity="1">14</text>
      <text fill="rgb(0,0,0)" stroke="none" font-family="geogebra-sans-serif, sans-serif" font-size="12px" font-style="normal" font-weight="normal" text-decoration="normal" x="719" y="895" text-anchor="start" dominant-baseline="alphabetic" fill-opacity="1">–8</text>
      <text fill="rgb(0,0,0)" stroke="none" font-family="geogebra-sans-serif, sans-serif" font-size="12px" font-style="normal" font-weight="normal" text-decoration="normal" x="719" y="845" text-anchor="start" dominant-baseline="alphabetic" fill-opacity="1">–7</text>
      <text fill="rgb(0,0,0)" stroke="none" font-family="geogebra-sans-serif, sans-serif" font-size="12px" font-style="normal" font-weight="normal" text-decoration="normal" x="719" y="795" text-anchor="start" dominant-baseline="alphabetic" fill-opacity="1">–6</text>
      <text fill="rgb(0,0,0)" stroke="none" font-family="geogebra-sans-serif, sans-serif" font-size="12px" font-style="normal" font-weight="normal" text-decoration="normal" x="719" y="745" text-anchor="start" dominant-baseline="alphabetic" fill-opacity="1">–5</text>
      <text fill="rgb(0,0,0)" stroke="none" font-family="geogebra-sans-serif, sans-serif" font-size="12px" font-style="normal" font-weight="normal" text-decoration="normal" x="719" y="695" text-anchor="start" dominant-baseline="alphabetic" fill-opacity="1">–4</text>
      <text fill="rgb(0,0,0)" stroke="none" font-family="geogebra-sans-serif, sans-serif" font-size="12px" font-style="normal" font-weight="normal" text-decoration="normal" x="719" y="645" text-anchor="start" dominant-baseline="alphabetic" fill-opacity="1">–3</text>
      <text fill="rgb(0,0,0)" stroke="none" font-family="geogebra-sans-serif, sans-serif" font-size="12px" font-style="normal" font-weight="normal" text-decoration="normal" x="719" y="595" text-anchor="start" dominant-baseline="alphabetic" fill-opacity="1">–2</text>
      <text fill="rgb(0,0,0)" stroke="none" font-family="geogebra-sans-serif, sans-serif" font-size="12px" font-style="normal" font-weight="normal" text-decoration="normal" x="719" y="545" text-anchor="start" dominant-baseline="alphabetic" fill-opacity="1">–1</text>
      <text fill="rgb(0,0,0)" stroke="none" font-family="geogebra-sans-serif, sans-serif" font-size="12px" font-style="normal" font-weight="normal" text-decoration="normal" x="726" y="445" text-anchor="start" dominant-baseline="alphabetic" fill-opacity="1">1</text>
      <text fill="rgb(0,0,0)" stroke="none" font-family="geogebra-sans-serif, sans-serif" font-size="12px" font-style="normal" font-weight="normal" text-decoration="normal" x="726" y="395" text-anchor="start" dominant-baseline="alphabetic" fill-opacity="1">2</text>
      <text fill="rgb(0,0,0)" stroke="none" font-family="geogebra-sans-serif, sans-serif" font-size="12px" font-style="normal" font-weight="normal" text-decoration="normal" x="726" y="345" text-anchor="start" dominant-baseline="alphabetic" fill-opacity="1">3</text>
      <text fill="rgb(0,0,0)" stroke="none" font-family="geogebra-sans-serif, sans-serif" font-size="12px" font-style="normal" font-weight="normal" text-decoration="normal" x="726" y="295" text-anchor="start" dominant-baseline="alphabetic" fill-opacity="1">4</text>
      <text fill="rgb(0,0,0)" stroke="none" font-family="geogebra-sans-serif, sans-serif" font-size="12px" font-style="normal" font-weight="normal" text-decoration="normal" x="726" y="245" text-anchor="start" dominant-baseline="alphabetic" fill-opacity="1">5</text>
      <text fill="rgb(0,0,0)" stroke="none" font-family="geogebra-sans-serif, sans-serif" font-size="12px" font-style="normal" font-weight="normal" text-decoration="normal" x="726" y="195" text-anchor="start" dominant-baseline="alphabetic" fill-opacity="1">6</text>
      <text fill="rgb(0,0,0)" stroke="none" font-family="geogebra-sans-serif, sans-serif" font-size="12px" font-style="normal" font-weight="normal" text-decoration="normal" x="726" y="145" text-anchor="start" dominant-baseline="alphabetic" fill-opacity="1">7</text>
      <text fill="rgb(0,0,0)" stroke="none" font-family="geogebra-sans-serif, sans-serif" font-size="12px" font-style="normal" font-weight="normal" text-decoration="normal" x="726" y="95" text-anchor="start" dominant-baseline="alphabetic" fill-opacity="1">8</text>
      <text fill="rgb(0,0,0)" stroke="none" font-family="geogebra-sans-serif, sans-serif" font-size="12px" font-style="normal" font-weight="normal" text-decoration="normal" x="726" y="45" text-anchor="start" dominant-baseline="alphabetic" fill-opacity="1">9</text>
      <text fill="rgb(0,0,0)" stroke="none" font-family="geogebra-sans-serif, sans-serif" font-size="12px" font-style="normal" font-weight="normal" text-decoration="normal" x="726" y="506" text-anchor="start" dominant-baseline="alphabetic" fill-opacity="1">0</text>
      <path fill="none" stroke="rgb(102,153,255)" paint-order="fill stroke markers" d=" M 0 462.1887596615564 L 5.773437499999886 462.1923709315706 L 11.546874999999886 462.1960684629235 L 17.320312499999886 462.19985502492 L 23.09375 462.20373349889115 L 28.8671875 462.20770688367617 L 34.640625 462.2117783014201 L 40.4140625 462.215951003708 L 46.187499999999886 462.2202283780584 L 51.960937499999886 462.2246139547992 L 57.734374999999886 462.2291114143539 L 63.507812499999886 462.233724594964 L 69.28124999999989 462.2384575008798 L 75.0546875 462.2433143110511 L 80.828125 462.2482993883533 L 86.6015625 462.25341728938696 L 92.37499999999989 462.2586727748921 L 98.14843749999989 462.26407082082113 L 103.92187499999989 462.2696166301194 L 109.69531249999989 462.2753156452641 L 115.46875 462.2811735616196 L 121.24218749999989 462.28719634166885 L 127.015625 462.2933902301883 L 132.7890625 462.2997617704381 L 138.5624999999999 462.30631782144536 L 144.3359374999999 462.31306557646707 L 150.1093749999999 462.320012582724 L 155.8828125 462.3271667625077 L 161.6562499999999 462.3345364357702 L 167.4296875 462.34213034431673 L 173.203125 462.34995767773336 L 178.9765625 462.35802810119225 L 184.7499999999999 462.3663517852925 L 190.5234374999999 462.37493943810745 L 196.2968749999999 462.3838023396281 L 202.0703124999999 462.3929523788092 L 207.84375 462.4024020934441 L 213.6171874999999 462.4121647131198 L 219.390625 462.4222542055252 L 225.1640624999999 462.4326853264163 L 230.93749999999994 462.4434736735717 L 236.71093749999994 462.4546357451063 L 242.4843749999999 462.4661890025506 L 248.2578125 462.47815193914533 L 254.0312499999999 462.4905441538508 L 259.80468749999994 462.50338643162286 L 265.57812499999994 462.5167008305695 L 271.35156249999994 462.5305107766707 L 277.12499999999994 462.54484116682 L 282.89843749999994 462.5597184810334 L 288.6718749999999 462.5751709047711 L 294.4453124999999 462.5912284624238 L 300.21874999999994 462.6079231631461 L 305.9921874999999 462.6252891603566 L 311.76562499999994 462.64336292638905 L 317.53906249999994 462.6621834439601 L 323.31249999999994 462.68179241632936 L 329.0859374999999 462.70223449826574 L 334.8593749999999 462.72355755020504 L 340.63281249999994 462.7458129182992 L 346.40624999999994 462.7690557434115 L 352.1796874999999 462.7933453025273 L 357.95312499999994 462.8187453865211 L 363.72656249999994 462.8453247187704 L 369.49999999999994 462.87315741973725 L 375.2734374999999 462.902323523372 L 381.0468749999999 462.93290955204685 L 386.82031249999994 462.96500915771543 L 392.59374999999994 462.9987238381526 L 398.3671874999999 463.0341637384793 L 404.14062499999994 463.071448549764 L 409.91406249999994 463.11070851835296 L 415.68749999999994 463.15208558177807 L 421.4609374999999 463.19573464968244 L 427.2343749999999 463.2418250512768 L 433.0078124999999 463.29054217448765 L 438.78124999999994 463.3420893263084 L 444.55468749999994 463.39668984905825 L 450.32812499999994 463.4545895334872 L 456.10156249999994 463.51605937715425 L 461.87499999999994 463.5813987455521 L 467.6484374999999 463.65093900439535 L 473.4218749999999 463.7250477047977 L 479.1953124999999 463.8041334192859 L 484.9687499999999 463.88865134646477 L 490.74218749999994 463.97910982655964 L 496.51562499999994 464.076077940188 L 502.2890624999999 464.1801944000401 L 508.0624999999999 464.2921779915971 L 513.8359374999999 464.41283987707186 L 519.6093749999999 464.5430981496469 L 525.3828124999999 464.68399511702165 L 531.15625 464.8367179097937 L 536.9296875 465.00262315856577 L 542.703125 465.1832666735229 L 548.4765624999999 465.38043930435754 L 554.2499999999999 465.5962104738747 L 560.0234374999999 465.83298128818996 L 565.7968749999999 466.0935496606469 L 571.5703124999999 466.3811905863404 L 577.3437499999999 466.69975562414174 L 583.1171875 467.05379685621324 L 588.890625 467.4487221971517 L 594.6640624999999 467.89099104026144 L 600.4374999999999 468.3883620122722 L 606.2109374999999 468.95020824203147 L 611.9843749999999 469.58792021827185 L 617.7578124999999 470.31542213482896 L 623.53125 471.14983447728144 L 629.3046875 472.11232273264045 L 635.0781249999999 473.22917722408505 L 640.8515624999999 474.5331665088612 L 646.6249999999999 476.06518357906015 L 652.3984374999999 477.8761324214881 L 658.1718749999999 480.02882576403044 L 663.9453124999999 482.59927694422106 L 669.7187499999999 485.6759975624706 L 675.4921874999999 489.35456572948596 L 681.2656249999999 493.72288779212715 L 687.0390624999999 498.83148830990825 L 692.8124999999999 504.64673330217016 L 698.5859374999999 510.9990140870225 L 704.3593749999999 517.5603891887961 L 710.1328124999999 523.8905431488047 L 715.90625 529.5454092442535 L 721.6796874999999 534.1825625147475 L 727.4531249999999 537.6007099101156 L 730.3398437499999 538.8224604769418 L 733.2265624999999 539.7129446512826 L 738.9999999999999 540.4950000000166 L 741.8867187499999 540.3860716693351 L 744.7734374999999 539.9438400768701 L 750.5468749999999 538.0612667860497 L 753.4335937499999 536.6248768042504 L 756.3203124999999 534.8655142511975 L 762.0937499999999 530.4288942236805 L 767.8671874999999 524.9296793048813 L 773.6406249999999 518.6864543151153 L 779.4140624999999 512.131902622595 L 785.1874999999999 505.71574142049514 L 790.9609374999999 499.79088646966295 L 796.7343749999999 494.5542900101746 L 802.5078124999999 490.059690397654 L 808.28125 486.2673782205574 L 814.0546874999999 483.0932991965543 L 819.8281249999999 480.44180106455804 L 825.6015624999998 478.2225679957198 L 831.3749999999999 476.3572835323768 L 837.1484375 474.78090870920823 L 842.9218749999999 473.4406067090771 L 848.6953125 472.2938903307224 L 854.4687499999999 471.3067096976706 L 860.2421874999999 470.4517574968761 L 866.0156249999998 469.70706507378816 L 871.7890624999999 469.0548779711253 L 877.5625 468.48077048205835 L 883.3359374999999 467.9729538699897 L 889.109375 467.52173724190226 L 894.8828124999999 467.1191070688142 L 900.65625 466.75839833153765 L 906.4296874999998 466.43403629170854 L 912.2031249999999 466.1413327526501 L 917.9765624999998 465.87632447553773 L 923.7499999999999 465.6356443338653 L 929.5234375 465.41641800837135 L 935.2968749999999 465.21618070588215 L 941.0703125 465.0328096584072 L 946.8437499999998 464.8644691238008 L 952.6171874999999 464.7095653428466 L 958.3906249999998 464.5667094672431 L 964.1640624999999 464.4346869016981 L 969.9374999999998 464.3124318332778 L 975.7109374999999 464.19900597628236 L 981.484375 464.0935807591562 L 987.2578124999999 463.9954223347265 L 993.0312499999999 463.9038789165145 L 998.8046874999998 463.81837003962164 L 1004.5781249999999 463.73837742054604 L 1010.3515624999998 463.6634371506556 L 1016.1249999999999 463.59313300630697 L 1021.8984375 463.52709069735744 L 1027.6718749999998 463.4649729070706 L 1033.4453125 463.4064750017287 L 1039.2187499999998 463.3513213088447 L 1044.9921875 463.299261879668 L 1050.7656249999998 463.2500696654422 L 1056.5390625 463.20353804819604 L 1062.3125 463.15947867619195 L 1068.0859375 463.1177195618951 L 1073.859375 463.0781034067581 L 1079.6328124999998 463.04048612247584 L 1085.40625 463.0047355228502 L 1091.1796874999998 462.9707301641641 L 1096.953125 462.93835831512865 L 1102.7265624999998 462.9075170401377 L 1108.5 462.8781113818206 L 1114.2734375 462.8500536308027 L 1120.0468749999998 462.82326267221043 L 1125.8203125 462.79766339984826 L 1131.5937499999998 462.7731861901631 L 1137.3671875 462.74976642912793 L 1143.1406249999998 462.7273440860526 L 1148.9140625 462.7058633290793 L 1154.6874999999998 462.68527217777137 L 1160.4609375 462.66552218876393 L 1166.234375 462.64656817093135 L 1172.0078124999998 462.62836792694696 L 1177.78125 462.6108820184793 L 1183.5546874999998 462.5940735525864 L 1189.328125 462.5779079871513 L 1195.1015624999998 462.562352953443 L 1200.875 462.5473780941026 L 1206.6484375 462.5329549150424 L 1212.4218749999998 462.5190566499083 L 1218.1953125 462.505658135904 L 1223.9687499999998 462.4927356999005 L 1229.7421875 462.4802670538697 L 1235.5156249999998 462.46823119878024 L 1241.2890625 462.4566083361816 L 1247.0625 462.44537978678187 L 1252.8359375 462.43452791539465 L 1258.609375 462.42403606169137 L 1264.3828125 462.41388847625234 L 1270.15625 462.40407026145783 L 1275.9296874999998 462.394567316805 L 1281.703125 462.38536628827677 L 1287.4765624999998 462.3764545214221 L 1293.25 462.367820017841 L 1299.0234375 462.35945139479435 L 1304.796875 462.3513378476851 L 1310.5703125 462.3434691151791 L 1316.3437499999998 462.335835446757 L 1322.1171875 462.3284275725036 L 1327.8906249999998 462.321236674962 L 1333.6640625 462.3142543628914 L 1339.4374999999998 462.30747264678354 L 1345.2109375 462.300883916004 L 1350.984375 462.294480917437 L 1356.7578124999998 462.2882567355207 L 1362.53125 462.2822047735714 L 1368.3046874999998 462.276318736302 L 1374.078125 462.2705926134484 L 1379.8515624999998 462.265020664424 L 1385.625 462.25959740392966 L 1391.3984375 462.2543175884515 L 1397.171875 462.2491762035843 L 1402.9453125 462.24416845212386 L 1408.7187499999998 462.2392897428747 L 1414.4921875 462.23453568012525 L 1420.2656249999998 462.22990205374464 L 1426.0390625 462.2253848298603 L 1431.8125 462.22098014207677 L 1437.5859375 462.2166842832011 L 1443.359375 462.21249369744135 L 1449.1328124999998 462.2084049730468 L 1454.90625 462.2044148353632 L 1460.6796874999998 462.2005201402745 L 1466.453125 462.1967178680083 L 1472.2265624999998 462.1930051172816 L 1477.9999999999998 462.1893790997649" stroke-opacity="0.8" stroke-linecap="round" stroke-linejoin="round" stroke-miterlimit="10" stroke-width="2.5" />
      <path fill="none" stroke="rgb(97,97,97)" paint-order="fill stroke markers" d=" M 178.9765625 -9.293345669872735 L 184.7499999999999 -3.5199081698726786 L 190.5234374999999 2.2535293301272645 L 196.2968749999999 8.026966830127321 L 202.0703124999999 13.800404330127208 L 207.84375 19.57384183012732 L 213.6171874999999 25.347279330127208 L 219.390625 31.120716830127265 L 225.1640624999999 36.89415433012738 L 230.93749999999994 42.667591830127265 L 236.71093749999994 48.44102933012738 L 242.4843749999999 54.214466830127265 L 248.2578125 59.98790433012732 L 254.0312499999999 65.76134183012726 L 259.80468749999994 71.53477933012732 L 265.57812499999994 77.30821683012738 L 271.35156249999994 83.08165433012732 L 277.12499999999994 88.85509183012738 L 282.89843749999994 94.62852933012732 L 288.6718749999999 100.40196683012732 L 294.4453124999999 106.17540433012732 L 300.21874999999994 111.94884183012738 L 305.9921874999999 117.72227933012726 L 311.76562499999994 123.49571683012738 L 317.53906249999994 129.26915433012738 L 323.31249999999994 135.04259183012738 L 329.0859374999999 140.81602933012732 L 334.8593749999999 146.58946683012732 L 340.63281249999994 152.36290433012738 L 346.40624999999994 158.13634183012738 L 352.1796874999999 163.90977933012732 L 357.95312499999994 169.68321683012738 L 363.72656249999994 175.45665433012738 L 369.49999999999994 181.23009183012738 L 375.2734374999999 187.00352933012738 L 381.0468749999999 192.77696683012732 L 386.82031249999994 198.55040433012738 L 392.59374999999994 204.32384183012738 L 398.3671874999999 210.09727933012738 L 404.14062499999994 215.87071683012738 L 409.91406249999994 221.64415433012738 L 415.68749999999994 227.41759183012738 L 421.4609374999999 233.19102933012738 L 427.2343749999999 238.96446683012738 L 433.0078124999999 244.73790433012735 L 438.78124999999994 250.51134183012744 L 444.55468749999994 256.28477933012744 L 450.32812499999994 262.05821683012744 L 456.10156249999994 267.83165433012744 L 461.87499999999994 273.60509183012744 L 467.6484374999999 279.3785293301274 L 473.4218749999999 285.1519668301274 L 479.1953124999999 290.9254043301274 L 484.9687499999999 296.6988418301273 L 490.74218749999994 302.47227933012744 L 496.51562499999994 308.24571683012744 L 502.2890624999999 314.01915433012744 L 508.0624999999999 319.79259183012744 L 513.8359374999999 325.56602933012744 L 519.6093749999999 331.33946683012744 L 525.3828124999999 337.1129043301274 L 531.15625 342.88634183012744 L 536.9296875 348.65977933012744 L 542.703125 354.43321683012744 L 548.4765624999999 360.20665433012744 L 554.2499999999999 365.98009183012744 L 560.0234374999999 371.75352933012744 L 565.7968749999999 377.52696683012744 L 571.5703124999999 383.30040433012744 L 577.3437499999999 389.0738418301274 L 583.1171875 394.8472793301275 L 588.890625 400.62071683012744 L 594.6640624999999 406.39415433012744 L 600.4374999999999 412.16759183012744 L 606.2109374999999 417.94102933012744 L 611.9843749999999 423.71446683012744 L 617.7578124999999 429.48790433012744 L 623.53125 435.2613418301275 L 629.3046875 441.0347793301275 L 635.0781249999999 446.8082168301275 L 640.8515624999999 452.5816543301275 L 646.6249999999999 458.35509183012744 L 652.3984374999999 464.12852933012744 L 658.1718749999999 469.90196683012744 L 663.9453124999999 475.67540433012744 L 669.7187499999999 481.44884183012744 L 675.4921874999999 487.2222793301275 L 681.2656249999999 492.9957168301275 L 687.0390624999999 498.7691543301275 L 692.8124999999999 504.5425918301275 L 698.5859374999999 510.3160293301275 L 704.3593749999999 516.0894668301274 L 710.1328124999999 521.8629043301274 L 715.90625 527.6363418301275 L 721.6796874999999 533.4097793301275 L 727.4531249999999 539.1832168301275 L 733.2265624999999 544.9566543301275 L 738.9999999999999 550.7300918301275 L 744.7734374999999 556.5035293301275 L 750.5468749999999 562.2769668301274 L 756.3203124999999 568.0504043301274 L 762.0937499999999 573.8238418301274 L 767.8671874999999 579.5972793301275 L 773.6406249999999 585.3707168301275 L 779.4140624999999 591.1441543301275 L 785.1874999999999 596.9175918301275 L 790.9609374999999 602.6910293301275 L 796.7343749999999 608.4644668301275 L 802.5078124999999 614.2379043301275 L 808.28125 620.0113418301275 L 814.0546874999999 625.7847793301274 L 819.8281249999999 631.5582168301275 L 825.6015624999998 637.3316543301274 L 831.3749999999999 643.1050918301275 L 837.1484375 648.8785293301275 L 842.9218749999999 654.6519668301275 L 848.6953125 660.4254043301275 L 854.4687499999999 666.1988418301275 L 860.2421874999999 671.9722793301275 L 866.0156249999998 677.7457168301275 L 871.7890624999999 683.5191543301275 L 877.5625 689.2925918301277 L 883.3359374999999 695.0660293301275 L 889.109375 700.8394668301277 L 894.8828124999999 706.6129043301275 L 900.65625 712.3863418301275 L 906.4296874999998 718.1597793301275 L 912.2031249999999 723.9332168301275 L 917.9765624999998 729.7066543301275 L 923.7499999999999 735.4800918301275 L 929.5234375 741.2535293301277 L 935.2968749999999 747.0269668301275 L 941.0703125 752.8004043301275 L 946.8437499999998 758.5738418301275 L 952.6171874999999 764.3472793301275 L 958.3906249999998 770.1207168301275 L 964.1640624999999 775.8941543301275 L 969.9374999999998 781.6675918301275 L 975.7109374999999 787.4410293301275 L 981.484375 793.2144668301277 L 987.2578124999999 798.9879043301275 L 993.0312499999999 804.7613418301277 L 998.8046874999998 810.5347793301275 L 1004.5781249999999 816.3082168301275 L 1010.3515624999998 822.0816543301275 L 1016.1249999999999 827.8550918301275 L 1021.8984375 833.6285293301277 L 1027.6718749999998 839.4019668301275 L 1033.4453125 845.1754043301277 L 1039.2187499999998 850.9488418301275 L 1044.9921875 856.7222793301277 L 1050.7656249999998 862.4957168301275 L 1056.5390625 868.2691543301275 L 1062.3125 874.0425918301278 L 1068.0859375 879.8160293301275 L 1073.859375 885.5894668301277 L 1079.6328124999998 891.3629043301277 L 1085.40625 897.1363418301278 L 1091.1796874999998 902.9097793301275 L 1096.953125 908.6832168301278 L 1102.7265624999998 914.4566543301275 L 1108.5 920.2300918301277 L 1114.2734375 926.0035293301278 L 1120.0468749999998 931.7769668301277 L 1125.8203125 937.5504043301278" stroke-opacity="0.8" stroke-linecap="round" stroke-linejoin="round" stroke-miterlimit="10" stroke-width="2.5" />
      <path fill="rgb(97,97,97)" stroke="none" paint-order="stroke fill markers" d=" M 694.4999999999999 501.2300918301275 C 694.4999999999999 503.99151557928144 692.2614237491539 506.2300918301275 689.4999999999999 506.2300918301275 C 686.7385762508459 506.2300918301275 684.4999999999999 503.99151557928144 684.4999999999999 501.2300918301275 C 684.4999999999999 498.46866808097354 686.7385762508459 496.2300918301275 689.4999999999999 496.2300918301275 C 692.2614237491539 496.2300918301275 694.4999999999999 498.46866808097354 694.4999999999999 501.2300918301275 Z" fill-opacity="1" />
      <path fill="none" stroke="rgb(0,0,0)" paint-order="fill stroke markers" d=" M 694.4999999999999 501.2300918301275 C 694.4999999999999 503.99151557928144 692.2614237491539 506.2300918301275 689.4999999999999 506.2300918301275 C 686.7385762508459 506.2300918301275 684.4999999999999 503.99151557928144 684.4999999999999 501.2300918301275 C 684.4999999999999 498.46866808097354 686.7385762508459 496.2300918301275 689.4999999999999 496.2300918301275 C 692.2614237491539 496.2300918301275 694.4999999999999 498.46866808097354 694.4999999999999 501.2300918301275 Z" stroke-opacity="1" stroke-linecap="round" stroke-linejoin="round" stroke-miterlimit="10" />
      <text fill="rgb(97,97,97)" stroke="none" font-family="geogebra-sans-serif, sans-serif" font-size="16px" font-style="normal" font-weight="normal" text-decoration="normal" x="693" y="491" text-anchor="start" dominant-baseline="alphabetic" fill-opacity="1">R</text>
    </g>
  </g>
</svg>