<svg version="1.1" xmlns="http://www.w3.org/2000/svg" xmlns:xlink="http://www.w3.org/1999/xlink" width="443" height="305"><defs><clipPath id="NTTSZkxHJApg"><path fill="none" stroke="none" d=" M 0 0 L 443 0 L 443 305 L 0 305 L 0 0 Z"/></clipPath></defs><g transform="scale(1,1)" clip-path="url(#NTTSZkxHJApg)"><g transform="translate(-224,-204)"><rect fill="rgb(255,255,255)" stroke="none" x="0" y="0" width="1478" height="932" fill-opacity="1"/><path fill="none" stroke="rgb(192,192,192)" paint-order="fill stroke markers" d=" M 30.5 0.5 L 30.5 932.5 M 30.5 0.5 L 30.5 932.5 M 100.5 0.5 L 100.5 932.5 M 169.5 0.5 L 169.5 932.5 M 238.5 0.5 L 238.5 932.5 M 307.5 0.5 L 307.5 932.5 M 376.5 0.5 L 376.5 932.5 M 514.5 0.5 L 514.5 932.5 M 583.5 0.5 L 583.5 932.5 M 652.5 0.5 L 652.5 932.5 M 722.5 0.5 L 722.5 932.5 M 791.5 0.5 L 791.5 932.5 M 860.5 0.5 L 860.5 932.5 M 929.5 0.5 L 929.5 932.5 M 998.5 0.5 L 998.5 932.5 M 1067.5 0.5 L 1067.5 932.5 M 1136.5 0.5 L 1136.5 932.5 M 1205.5 0.5 L 1205.5 932.5 M 1274.5 0.5 L 1274.5 932.5 M 1344.5 0.5 L 1344.5 932.5 M 1413.5 0.5 L 1413.5 932.5" stroke-opacity="1" stroke-linecap="round" stroke-linejoin="round" stroke-miterlimit="10"/><path fill="none" stroke="rgb(192,192,192)" paint-order="fill stroke markers" d="" stroke-opacity="0.23529411764705882" stroke-linecap="round" stroke-linejoin="round" stroke-miterlimit="10"/><path fill="none" stroke="rgb(192,192,192)" paint-order="fill stroke markers" d=" M 0.5 10.5 L 1478.5 10.5 M 0.5 10.5 L 1478.5 10.5 M 0.5 79.5 L 1478.5 79.5 M 0.5 148.5 L 1478.5 148.5 M 0.5 218.5 L 1478.5 218.5 M 0.5 287.5 L 1478.5 287.5 M 0.5 425.5 L 1478.5 425.5 M 0.5 494.5 L 1478.5 494.5 M 0.5 563.5 L 1478.5 563.5 M 0.5 632.5 L 1478.5 632.5 M 0.5 701.5 L 1478.5 701.5 M 0.5 771.5 L 1478.5 771.5 M 0.5 840.5 L 1478.5 840.5 M 0.5 909.5 L 1478.5 909.5" stroke-opacity="1" stroke-linecap="round" stroke-linejoin="round" stroke-miterlimit="10"/><path fill="none" stroke="rgb(192,192,192)" paint-order="fill stroke markers" d="" stroke-opacity="0.23529411764705882" stroke-linecap="round" stroke-linejoin="round" stroke-miterlimit="10"/><path fill="none" stroke="rgb(0,0,0)" paint-order="fill stroke markers" d=" M 445.5 2.5 L 445.5 932.5" stroke-opacity="1" stroke-miterlimit="10"/><path fill="none" stroke="rgb(0,0,0)" paint-order="fill stroke markers" d=" M 445.5 1.5 L 441.5 5.5" stroke-opacity="1" stroke-miterlimit="10"/><path fill="none" stroke="rgb(0,0,0)" paint-order="fill stroke markers" d=" M 445.5 1.5 L 449.5 5.5" stroke-opacity="1" stroke-miterlimit="10"/><path fill="none" stroke="rgb(0,0,0)" paint-order="fill stroke markers" d=" M 0.5 356.5 L 1476.5 356.5" stroke-opacity="1" stroke-miterlimit="10"/><path fill="none" stroke="rgb(0,0,0)" paint-order="fill stroke markers" d=" M 1477.5 356.5 L 1473.5 352.5" stroke-opacity="1" stroke-miterlimit="10"/><path fill="none" stroke="rgb(0,0,0)" paint-order="fill stroke markers" d=" M 1477.5 356.5 L 1473.5 360.5" stroke-opacity="1" stroke-miterlimit="10"/><text fill="none" stroke="rgb(255,255,255)" font-family="geogebra-sans-serif, sans-serif" font-size="12px" font-style="normal" font-weight="normal" text-decoration="normal" x="22" y="372" text-anchor="start" dominant-baseline="alphabetic" stroke-opacity="1" stroke-linejoin="bevel" stroke-miterlimit="10" stroke-width="3">–12</text><text fill="rgb(0,0,0)" stroke="none" font-family="geogebra-sans-serif, sans-serif" font-size="12px" font-style="normal" font-weight="normal" text-decoration="normal" x="22" y="372" text-anchor="start" dominant-baseline="alphabetic" fill-opacity="1">–12</text><text fill="none" stroke="rgb(255,255,255)" font-family="geogebra-sans-serif, sans-serif" font-size="12px" font-style="normal" font-weight="normal" text-decoration="normal" x="92" y="372" text-anchor="start" dominant-baseline="alphabetic" stroke-opacity="1" stroke-linejoin="bevel" stroke-miterlimit="10" stroke-width="3">–10</text><text fill="rgb(0,0,0)" stroke="none" font-family="geogebra-sans-serif, sans-serif" font-size="12px" font-style="normal" font-weight="normal" text-decoration="normal" x="92" y="372" text-anchor="start" dominant-baseline="alphabetic" fill-opacity="1">–10</text><text fill="none" stroke="rgb(255,255,255)" font-family="geogebra-sans-serif, sans-serif" font-size="12px" font-style="normal" font-weight="normal" text-decoration="normal" x="164" y="372" text-anchor="start" dominant-baseline="alphabetic" stroke-opacity="1" stroke-linejoin="bevel" stroke-miterlimit="10" stroke-width="3">–8</text><text fill="rgb(0,0,0)" stroke="none" font-family="geogebra-sans-serif, sans-serif" font-size="12px" font-style="normal" font-weight="normal" text-decoration="normal" x="164" y="372" text-anchor="start" dominant-baseline="alphabetic" fill-opacity="1">–8</text><text fill="none" stroke="rgb(255,255,255)" font-family="geogebra-sans-serif, sans-serif" font-size="12px" font-style="normal" font-weight="normal" text-decoration="normal" x="233" y="372" text-anchor="start" dominant-baseline="alphabetic" stroke-opacity="1" stroke-linejoin="bevel" stroke-miterlimit="10" stroke-width="3">–6</text><text fill="rgb(0,0,0)" stroke="none" font-family="geogebra-sans-serif, sans-serif" font-size="12px" font-style="normal" font-weight="normal" text-decoration="normal" x="233" y="372" text-anchor="start" dominant-baseline="alphabetic" fill-opacity="1">–6</text><text fill="none" stroke="rgb(255,255,255)" font-family="geogebra-sans-serif, sans-serif" font-size="12px" font-style="normal" font-weight="normal" text-decoration="normal" x="302" y="372" text-anchor="start" dominant-baseline="alphabetic" stroke-opacity="1" stroke-linejoin="bevel" stroke-miterlimit="10" stroke-width="3">–4</text><text fill="rgb(0,0,0)" stroke="none" font-family="geogebra-sans-serif, sans-serif" font-size="12px" font-style="normal" font-weight="normal" text-decoration="normal" x="302" y="372" text-anchor="start" dominant-baseline="alphabetic" fill-opacity="1">–4</text><text fill="none" stroke="rgb(255,255,255)" font-family="geogebra-sans-serif, sans-serif" font-size="12px" font-style="normal" font-weight="normal" text-decoration="normal" x="371" y="372" text-anchor="start" dominant-baseline="alphabetic" stroke-opacity="1" stroke-linejoin="bevel" stroke-miterlimit="10" stroke-width="3">–2</text><text fill="rgb(0,0,0)" stroke="none" font-family="geogebra-sans-serif, sans-serif" font-size="12px" font-style="normal" font-weight="normal" text-decoration="normal" x="371" y="372" text-anchor="start" dominant-baseline="alphabetic" fill-opacity="1">–2</text><text fill="none" stroke="rgb(255,255,255)" font-family="geogebra-sans-serif, sans-serif" font-size="12px" font-style="normal" font-weight="normal" text-decoration="normal" x="512" y="372" text-anchor="start" dominant-baseline="alphabetic" stroke-opacity="1" stroke-linejoin="bevel" stroke-miterlimit="10" stroke-width="3">2</text><text fill="rgb(0,0,0)" stroke="none" font-family="geogebra-sans-serif, sans-serif" font-size="12px" font-style="normal" font-weight="normal" text-decoration="normal" x="512" y="372" text-anchor="start" dominant-baseline="alphabetic" fill-opacity="1">2</text><text fill="none" stroke="rgb(255,255,255)" font-family="geogebra-sans-serif, sans-serif" font-size="12px" font-style="normal" font-weight="normal" text-decoration="normal" x="581" y="372" text-anchor="start" dominant-baseline="alphabetic" stroke-opacity="1" stroke-linejoin="bevel" stroke-miterlimit="10" stroke-width="3">4</text><text fill="rgb(0,0,0)" stroke="none" font-family="geogebra-sans-serif, sans-serif" font-size="12px" font-style="normal" font-weight="normal" text-decoration="normal" x="581" y="372" text-anchor="start" dominant-baseline="alphabetic" fill-opacity="1">4</text><text fill="none" stroke="rgb(255,255,255)" font-family="geogebra-sans-serif, sans-serif" font-size="12px" font-style="normal" font-weight="normal" text-decoration="normal" x="650" y="372" text-anchor="start" dominant-baseline="alphabetic" stroke-opacity="1" stroke-linejoin="bevel" stroke-miterlimit="10" stroke-width="3">6</text><text fill="rgb(0,0,0)" stroke="none" font-family="geogebra-sans-serif, sans-serif" font-size="12px" font-style="normal" font-weight="normal" text-decoration="normal" x="650" y="372" text-anchor="start" dominant-baseline="alphabetic" fill-opacity="1">6</text><text fill="none" stroke="rgb(255,255,255)" font-family="geogebra-sans-serif, sans-serif" font-size="12px" font-style="normal" font-weight="normal" text-decoration="normal" x="720" y="372" text-anchor="start" dominant-baseline="alphabetic" stroke-opacity="1" stroke-linejoin="bevel" stroke-miterlimit="10" stroke-width="3">8</text><text fill="rgb(0,0,0)" stroke="none" font-family="geogebra-sans-serif, sans-serif" font-size="12px" font-style="normal" font-weight="normal" text-decoration="normal" x="720" y="372" text-anchor="start" dominant-baseline="alphabetic" fill-opacity="1">8</text><text fill="none" stroke="rgb(255,255,255)" font-family="geogebra-sans-serif, sans-serif" font-size="12px" font-style="normal" font-weight="normal" text-decoration="normal" x="786" y="372" text-anchor="start" dominant-baseline="alphabetic" stroke-opacity="1" stroke-linejoin="bevel" stroke-miterlimit="10" stroke-width="3">10</text><text fill="rgb(0,0,0)" stroke="none" font-family="geogebra-sans-serif, sans-serif" font-size="12px" font-style="normal" font-weight="normal" text-decoration="normal" x="786" y="372" text-anchor="start" dominant-baseline="alphabetic" fill-opacity="1">10</text><text fill="none" stroke="rgb(255,255,255)" font-family="geogebra-sans-serif, sans-serif" font-size="12px" font-style="normal" font-weight="normal" text-decoration="normal" x="855" y="372" text-anchor="start" dominant-baseline="alphabetic" stroke-opacity="1" stroke-linejoin="bevel" stroke-miterlimit="10" stroke-width="3">12</text><text fill="rgb(0,0,0)" stroke="none" font-family="geogebra-sans-serif, sans-serif" font-size="12px" font-style="normal" font-weight="normal" text-decoration="normal" x="855" y="372" text-anchor="start" dominant-baseline="alphabetic" fill-opacity="1">12</text><text fill="none" stroke="rgb(255,255,255)" font-family="geogebra-sans-serif, sans-serif" font-size="12px" font-style="normal" font-weight="normal" text-decoration="normal" x="924" y="372" text-anchor="start" dominant-baseline="alphabetic" stroke-opacity="1" stroke-linejoin="bevel" stroke-miterlimit="10" stroke-width="3">14</text><text fill="rgb(0,0,0)" stroke="none" font-family="geogebra-sans-serif, sans-serif" font-size="12px" font-style="normal" font-weight="normal" text-decoration="normal" x="924" y="372" text-anchor="start" dominant-baseline="alphabetic" fill-opacity="1">14</text><text fill="none" stroke="rgb(255,255,255)" font-family="geogebra-sans-serif, sans-serif" font-size="12px" font-style="normal" font-weight="normal" text-decoration="normal" x="993" y="372" text-anchor="start" dominant-baseline="alphabetic" stroke-opacity="1" stroke-linejoin="bevel" stroke-miterlimit="10" stroke-width="3">16</text><text fill="rgb(0,0,0)" stroke="none" font-family="geogebra-sans-serif, sans-serif" font-size="12px" font-style="normal" font-weight="normal" text-decoration="normal" x="993" y="372" text-anchor="start" dominant-baseline="alphabetic" fill-opacity="1">16</text><text fill="none" stroke="rgb(255,255,255)" font-family="geogebra-sans-serif, sans-serif" font-size="12px" font-style="normal" font-weight="normal" text-decoration="normal" x="1062" y="372" text-anchor="start" dominant-baseline="alphabetic" stroke-opacity="1" stroke-linejoin="bevel" stroke-miterlimit="10" stroke-width="3">18</text><text fill="rgb(0,0,0)" stroke="none" font-family="geogebra-sans-serif, sans-serif" font-size="12px" font-style="normal" font-weight="normal" text-decoration="normal" x="1062" y="372" text-anchor="start" dominant-baseline="alphabetic" fill-opacity="1">18</text><text fill="none" stroke="rgb(255,255,255)" font-family="geogebra-sans-serif, sans-serif" font-size="12px" font-style="normal" font-weight="normal" text-decoration="normal" x="1131" y="372" text-anchor="start" dominant-baseline="alphabetic" stroke-opacity="1" stroke-linejoin="bevel" stroke-miterlimit="10" stroke-width="3">20</text><text fill="rgb(0,0,0)" stroke="none" font-family="geogebra-sans-serif, sans-serif" font-size="12px" font-style="normal" font-weight="normal" text-decoration="normal" x="1131" y="372" text-anchor="start" dominant-baseline="alphabetic" fill-opacity="1">20</text><text fill="none" stroke="rgb(255,255,255)" font-family="geogebra-sans-serif, sans-serif" font-size="12px" font-style="normal" font-weight="normal" text-decoration="normal" x="1200" y="372" text-anchor="start" dominant-baseline="alphabetic" stroke-opacity="1" stroke-linejoin="bevel" stroke-miterlimit="10" stroke-width="3">22</text><text fill="rgb(0,0,0)" stroke="none" font-family="geogebra-sans-serif, sans-serif" font-size="12px" font-style="normal" font-weight="normal" text-decoration="normal" x="1200" y="372" text-anchor="start" dominant-baseline="alphabetic" fill-opacity="1">22</text><text fill="none" stroke="rgb(255,255,255)" font-family="geogebra-sans-serif, sans-serif" font-size="12px" font-style="normal" font-weight="normal" text-decoration="normal" x="1269" y="372" text-anchor="start" dominant-baseline="alphabetic" stroke-opacity="1" stroke-linejoin="bevel" stroke-miterlimit="10" stroke-width="3">24</text><text fill="rgb(0,0,0)" stroke="none" font-family="geogebra-sans-serif, sans-serif" font-size="12px" font-style="normal" font-weight="normal" text-decoration="normal" x="1269" y="372" text-anchor="start" dominant-baseline="alphabetic" fill-opacity="1">24</text><text fill="none" stroke="rgb(255,255,255)" font-family="geogebra-sans-serif, sans-serif" font-size="12px" font-style="normal" font-weight="normal" text-decoration="normal" x="1339" y="372" text-anchor="start" dominant-baseline="alphabetic" stroke-opacity="1" stroke-linejoin="bevel" stroke-miterlimit="10" stroke-width="3">26</text><text fill="rgb(0,0,0)" stroke="none" font-family="geogebra-sans-serif, sans-serif" font-size="12px" font-style="normal" font-weight="normal" text-decoration="normal" x="1339" y="372" text-anchor="start" dominant-baseline="alphabetic" fill-opacity="1">26</text><text fill="none" stroke="rgb(255,255,255)" font-family="geogebra-sans-serif, sans-serif" font-size="12px" font-style="normal" font-weight="normal" text-decoration="normal" x="1408" y="372" text-anchor="start" dominant-baseline="alphabetic" stroke-opacity="1" stroke-linejoin="bevel" stroke-miterlimit="10" stroke-width="3">28</text><text fill="rgb(0,0,0)" stroke="none" font-family="geogebra-sans-serif, sans-serif" font-size="12px" font-style="normal" font-weight="normal" text-decoration="normal" x="1408" y="372" text-anchor="start" dominant-baseline="alphabetic" fill-opacity="1">28</text><text fill="none" stroke="rgb(255,255,255)" font-family="geogebra-sans-serif, sans-serif" font-size="12px" font-style="normal" font-weight="normal" text-decoration="normal" x="418" y="914" text-anchor="start" dominant-baseline="alphabetic" stroke-opacity="1" stroke-linejoin="bevel" stroke-miterlimit="10" stroke-width="3">–16</text><text fill="rgb(0,0,0)" stroke="none" font-family="geogebra-sans-serif, sans-serif" font-size="12px" font-style="normal" font-weight="normal" text-decoration="normal" x="418" y="914" text-anchor="start" dominant-baseline="alphabetic" fill-opacity="1">–16</text><text fill="none" stroke="rgb(255,255,255)" font-family="geogebra-sans-serif, sans-serif" font-size="12px" font-style="normal" font-weight="normal" text-decoration="normal" x="418" y="845" text-anchor="start" dominant-baseline="alphabetic" stroke-opacity="1" stroke-linejoin="bevel" stroke-miterlimit="10" stroke-width="3">–14</text><text fill="rgb(0,0,0)" stroke="none" font-family="geogebra-sans-serif, sans-serif" font-size="12px" font-style="normal" font-weight="normal" text-decoration="normal" x="418" y="845" text-anchor="start" dominant-baseline="alphabetic" fill-opacity="1">–14</text><text fill="none" stroke="rgb(255,255,255)" font-family="geogebra-sans-serif, sans-serif" font-size="12px" font-style="normal" font-weight="normal" text-decoration="normal" x="418" y="776" text-anchor="start" dominant-baseline="alphabetic" stroke-opacity="1" stroke-linejoin="bevel" stroke-miterlimit="10" stroke-width="3">–12</text><text fill="rgb(0,0,0)" stroke="none" font-family="geogebra-sans-serif, sans-serif" font-size="12px" font-style="normal" font-weight="normal" text-decoration="normal" x="418" y="776" text-anchor="start" dominant-baseline="alphabetic" fill-opacity="1">–12</text><text fill="none" stroke="rgb(255,255,255)" font-family="geogebra-sans-serif, sans-serif" font-size="12px" font-style="normal" font-weight="normal" text-decoration="normal" x="418" y="706" text-anchor="start" dominant-baseline="alphabetic" stroke-opacity="1" stroke-linejoin="bevel" stroke-miterlimit="10" stroke-width="3">–10</text><text fill="rgb(0,0,0)" stroke="none" font-family="geogebra-sans-serif, sans-serif" font-size="12px" font-style="normal" font-weight="normal" text-decoration="normal" x="418" y="706" text-anchor="start" dominant-baseline="alphabetic" fill-opacity="1">–10</text><text fill="none" stroke="rgb(255,255,255)" font-family="geogebra-sans-serif, sans-serif" font-size="12px" font-style="normal" font-weight="normal" text-decoration="normal" x="425" y="637" text-anchor="start" dominant-baseline="alphabetic" stroke-opacity="1" stroke-linejoin="bevel" stroke-miterlimit="10" stroke-width="3">–8</text><text fill="rgb(0,0,0)" stroke="none" font-family="geogebra-sans-serif, sans-serif" font-size="12px" font-style="normal" font-weight="normal" text-decoration="normal" x="425" y="637" text-anchor="start" dominant-baseline="alphabetic" fill-opacity="1">–8</text><text fill="none" stroke="rgb(255,255,255)" font-family="geogebra-sans-serif, sans-serif" font-size="12px" font-style="normal" font-weight="normal" text-decoration="normal" x="425" y="568" text-anchor="start" dominant-baseline="alphabetic" stroke-opacity="1" stroke-linejoin="bevel" stroke-miterlimit="10" stroke-width="3">–6</text><text fill="rgb(0,0,0)" stroke="none" font-family="geogebra-sans-serif, sans-serif" font-size="12px" font-style="normal" font-weight="normal" text-decoration="normal" x="425" y="568" text-anchor="start" dominant-baseline="alphabetic" fill-opacity="1">–6</text><text fill="none" stroke="rgb(255,255,255)" font-family="geogebra-sans-serif, sans-serif" font-size="12px" font-style="normal" font-weight="normal" text-decoration="normal" x="425" y="499" text-anchor="start" dominant-baseline="alphabetic" stroke-opacity="1" stroke-linejoin="bevel" stroke-miterlimit="10" stroke-width="3">–4</text><text fill="rgb(0,0,0)" stroke="none" font-family="geogebra-sans-serif, sans-serif" font-size="12px" font-style="normal" font-weight="normal" text-decoration="normal" x="425" y="499" text-anchor="start" dominant-baseline="alphabetic" fill-opacity="1">–4</text><text fill="none" stroke="rgb(255,255,255)" font-family="geogebra-sans-serif, sans-serif" font-size="12px" font-style="normal" font-weight="normal" text-decoration="normal" x="425" y="430" text-anchor="start" dominant-baseline="alphabetic" stroke-opacity="1" stroke-linejoin="bevel" stroke-miterlimit="10" stroke-width="3">–2</text><text fill="rgb(0,0,0)" stroke="none" font-family="geogebra-sans-serif, sans-serif" font-size="12px" font-style="normal" font-weight="normal" text-decoration="normal" x="425" y="430" text-anchor="start" dominant-baseline="alphabetic" fill-opacity="1">–2</text><text fill="none" stroke="rgb(255,255,255)" font-family="geogebra-sans-serif, sans-serif" font-size="12px" font-style="normal" font-weight="normal" text-decoration="normal" x="432" y="292" text-anchor="start" dominant-baseline="alphabetic" stroke-opacity="1" stroke-linejoin="bevel" stroke-miterlimit="10" stroke-width="3">2</text><text fill="rgb(0,0,0)" stroke="none" font-family="geogebra-sans-serif, sans-serif" font-size="12px" font-style="normal" font-weight="normal" text-decoration="normal" x="432" y="292" text-anchor="start" dominant-baseline="alphabetic" fill-opacity="1">2</text><text fill="none" stroke="rgb(255,255,255)" font-family="geogebra-sans-serif, sans-serif" font-size="12px" font-style="normal" font-weight="normal" text-decoration="normal" x="432" y="223" text-anchor="start" dominant-baseline="alphabetic" stroke-opacity="1" stroke-linejoin="bevel" stroke-miterlimit="10" stroke-width="3">4</text><text fill="rgb(0,0,0)" stroke="none" font-family="geogebra-sans-serif, sans-serif" font-size="12px" font-style="normal" font-weight="normal" text-decoration="normal" x="432" y="223" text-anchor="start" dominant-baseline="alphabetic" fill-opacity="1">4</text><text fill="none" stroke="rgb(255,255,255)" font-family="geogebra-sans-serif, sans-serif" font-size="12px" font-style="normal" font-weight="normal" text-decoration="normal" x="432" y="153" text-anchor="start" dominant-baseline="alphabetic" stroke-opacity="1" stroke-linejoin="bevel" stroke-miterlimit="10" stroke-width="3">6</text><text fill="rgb(0,0,0)" stroke="none" font-family="geogebra-sans-serif, sans-serif" font-size="12px" font-style="normal" font-weight="normal" text-decoration="normal" x="432" y="153" text-anchor="start" dominant-baseline="alphabetic" fill-opacity="1">6</text><text fill="none" stroke="rgb(255,255,255)" font-family="geogebra-sans-serif, sans-serif" font-size="12px" font-style="normal" font-weight="normal" text-decoration="normal" x="432" y="84" text-anchor="start" dominant-baseline="alphabetic" stroke-opacity="1" stroke-linejoin="bevel" stroke-miterlimit="10" stroke-width="3">8</text><text fill="rgb(0,0,0)" stroke="none" font-family="geogebra-sans-serif, sans-serif" font-size="12px" font-style="normal" font-weight="normal" text-decoration="normal" x="432" y="84" text-anchor="start" dominant-baseline="alphabetic" fill-opacity="1">8</text><text fill="none" stroke="rgb(255,255,255)" font-family="geogebra-sans-serif, sans-serif" font-size="12px" font-style="normal" font-weight="normal" text-decoration="normal" x="425" y="15" text-anchor="start" dominant-baseline="alphabetic" stroke-opacity="1" stroke-linejoin="bevel" stroke-miterlimit="10" stroke-width="3">10</text><text fill="rgb(0,0,0)" stroke="none" font-family="geogebra-sans-serif, sans-serif" font-size="12px" font-style="normal" font-weight="normal" text-decoration="normal" x="425" y="15" text-anchor="start" dominant-baseline="alphabetic" fill-opacity="1">10</text><text fill="none" stroke="rgb(255,255,255)" font-family="geogebra-sans-serif, sans-serif" font-size="12px" font-style="normal" font-weight="normal" text-decoration="normal" x="432" y="372" text-anchor="start" dominant-baseline="alphabetic" stroke-opacity="1" stroke-linejoin="bevel" stroke-miterlimit="10" stroke-width="3">0</text><text fill="rgb(0,0,0)" stroke="none" font-family="geogebra-sans-serif, sans-serif" font-size="12px" font-style="normal" font-weight="normal" text-decoration="normal" x="432" y="372" text-anchor="start" dominant-baseline="alphabetic" fill-opacity="1">0</text><path fill="none" stroke="rgb(102,153,255)" paint-order="fill stroke markers" d=" M 1485.074316377415 563.5793319615472 L 1477.654640812531 566.7895957678601 L 1470.4202004974525 568.949338269597 L 1463.3933349708818 569.9318656470573 L 1459.9625827404243 569.9542247331259 L 1456.5884905615108 569.6552486989747 L 1450.011671053935 568.0854382709184 L 1446.8082753684082 566.81839431715 L 1443.6602093895794 565.2375600037003 L 1437.5228690838944 561.1753391678626 L 1431.5802715033535 556.0086774554114 L 1425.8056327546744 549.8894738733765 L 1420.165782165417 543.0058486533155 L 1414.622423627354 535.5749898175778 L 1409.1335918389527 527.8348944178011 L 1403.6552480720882 520.0353184921585 L 1398.142954782589 512.4282798770184 L 1392.5535653861052 505.25847501178436 L 1386.8468649441181 498.7539741461534 L 1380.9870993715945 493.1175487725516 L 1374.9443350168463 488.51896106559104 L 1368.6955969144033 485.0885085292511 L 1365.4889317901489 483.84000648389963 L 1362.225742427851 482.91206932213044 L 1355.528037061615 482.027836666544 L 1352.0940046422804 482.06879862815475 L 1348.6044105459523 482.4248665183677 L 1341.4653834572973 484.043493723737 L 1334.1296671642872 486.7776008378818 L 1326.6234523118621 490.4786533323081 L 1318.9794128994472 494.96134774810116 L 1311.2354638239992 500.0106580194579 L 1303.4333191334126 505.3900120249308 L 1295.6169058139421 510.8502874459846 L 1287.8306934287375 516.1392848576006 L 1280.1180031244267 521.0113178285028 L 1272.5193603072248 525.2365553591918 L 1265.0709536294783 528.6097614035365 L 1257.8032588850103 530.9580991460931 L 1250.7398801408249 532.1477032707883 L 1247.2900797250525 532.2780899839298 L 1243.8966521721438 532.0887703047924 L 1237.2810383314459 530.7389734728764 L 1234.0585533644496 529.5801902140555 L 1230.8918467480664 528.1050722094735 L 1224.7192756501042 524.2426551253668 L 1218.7452860852359 519.2540262029142 L 1212.9442878674047 513.284314599057 L 1207.284112665675 506.5159559842018 L 1201.7272372327036 499.16175526881466 L 1196.2322102585224 491.4567945135208 L 1190.7552285922784 483.6494937313928 L 1185.2518028947516 475.992164503117 L 1179.6784493837736 468.73141561195075 L 1173.9943433424767 462.0987755324607 L 1168.1628715142917 456.3018883609808 L 1162.153024353548 451.51661797011116 L 1155.940575190138 447.88036063358095 L 1149.5090014695031 445.4868204146707 L 1146.2081472416032 444.77249132042937 L 1142.850113036994 444.3824459885467 L 1135.9643635755488 444.564664391405 L 1128.860833354012 445.98197885963543 L 1121.5568839420923 448.5359270385851 L 1114.0774980217325 452.0848250983497 L 1106.4543293991217 456.44915538336534 L 1098.724499341469 461.4183927257881 L 1090.929185008864 466.75900984621916 L 1083.1120536573194 472.22335742952123 L 1075.3176021537727 477.5590812032008 L 1067.5894649444188 482.5187179258429 L 1059.9687548173338 486.86910538988 L 1052.4924995533177 490.4002486152378 L 1045.1922339126581 492.9333050892138 L 1038.0928004987238 494.3273854069686 L 1031.2114050965888 494.48491071242097 L 1027.8555928628518 494.0822639575244 L 1024.5569624082434 493.3553232182451 L 1018.1297570633781 490.9370087092527 L 1011.921432796094 487.2773579243161 L 1005.9153101991064 482.47096448272805 L 1000.087020972566 476.65602788040394 L 994.4054345496338 470.0090983350885 L 988.8338418630844 462.7383633123537 L 983.3313512391849 455.0757310180153 L 977.8544433387874 447.2680118889823 L 972.3586260176626 439.5675334139422 L 966.8001261785796 432.2225451634028 L 961.1375542810113 425.46777888608335 L 955.3334782140372 419.51552263211505 L 949.3558466845841 414.5475483171996 L 943.1792079954338 410.70819968904743 L 936.7856778679193 408.0989035321217 L 933.5042326068871 407.27450071694545 L 930.1656195070145 406.774312826852 L 923.3180100487612 406.7402285230087 L 919.8109257360289 407.1954883595355 L 916.2504794555514 407.95337895359467 L 908.979020380239 410.3230652772306 L 901.5273800317497 413.7146103796711 L 893.9261571670193 417.954480087002 L 886.2116385469228 422.83688195198033 L 878.4244191009568 428.1315906889838 L 870.6078582701014 433.59270268867266 L 862.8064312267541 438.96798671440524 L 855.0640376680151 444.0084752121294 L 847.4223324919175 448.4779315159337 L 839.9191418340724 452.1618329506185 L 832.5870246963033 454.8755282410793 L 825.452034862574 456.47125903598794 L 818.532730181428 456.84377854629105 L 815.1575294547824 456.5510893987373 L 811.8394668878213 455.93435364495855 L 805.3740057983764 453.7329982446962 L 802.2248777661257 452.1581871355103 L 799.1294453548119 450.27885302751054 L 793.0904840616383 445.658697086584 L 787.2340023386951 440.0036480765581 L 781.5299416630875 433.4841763518509 L 775.9424475703934 426.30362268469173 L 770.431233051536 418.6904660572232 L 764.9531105009833 410.8896355515338 L 759.4636339626227 403.1531967104785 L 753.918789225502 395.73076652843724 L 748.2766675020866 388.8600215502357 L 742.4990590459811 382.7576600159393 L 736.552906110426 377.61116172374307 L 730.4115599975736 373.5716589492651 L 724.0557943981637 370.74818951067294 L 720.7937118182383 369.81397547415673 L 717.4745364884819 369.2035505117894 L 710.6652879840133 368.95191042816464 L 707.1767613070353 369.30192468242177 L 703.6342201388611 369.95827033859734 L 696.3959390784983 372.1397947892399 L 688.972930389272 375.368961683035 L 681.3947040846296 379.4784114172258 L 673.6966724614531 384.26731087631174 L 665.9188035169894 389.5089902841406 L 658.1041011313504 394.9595625172614 L 650.2969698079542 400.3671971227288 L 642.5415261540604 405.4816963878492 L 634.8799213088034 410.0640093235733 L 627.3507381098437 413.8953217841271 L 619.9875239477547 416.78537706325744 L 612.817515097618 418.5797105692586 L 605.8606010362196 419.1655234740328 L 602.4660687710059 418.98246892970656 L 599.1285681275742 418.4759719856247 L 592.6246514362876 416.4927091409491 L 589.4568723284968 415.02367353738924 L 586.3434117114411 413.24658246485467 L 580.270942218789 408.81646096643897 L 574.3853975562993 403.3262360770874 L 568.6578243443706 396.94011057215073 L 563.0532622030138 389.8563546190686 L 557.5320731503945 382.2997663835835 L 552.0514488712128 374.5131238859852 L 546.5670385397409 366.7479531579083 L 541.0346352981484 359.25496374846864 L 535.411857260324 352.27451527785047 L 529.6597591195768 346.0274775558497 L 523.7443130774467 340.7068318172347 L 517.6377027800318 336.4703324441775 L 511.31938105878913 333.4345082200792 L 508.07659355273086 332.39086638193254 L 504.77685125430605 331.6702312222741 L 498.00614241253055 331.2000218502832 L 494.5363551160536 331.44375979659503 L 491.01196028371777 331.9971924682372 L 483.8075083822256 333.9868622252029 L 476.41398591151597 337.04880446399636 L 468.8597816461951 341.0220184433122 L 461.1793944244223 345.7108515294993 L 453.41212129989293 350.89243905637073 L 445.60056323754503 356.3251789459755 L 437.78900517519713 361.75791883558026 L 430.02173205066777 366.9395063624517 L 422.341344828895 371.62833944863877 L 414.7871405635741 375.6015534279546 L 407.3936180928645 378.6634956667481 L 400.1891661913723 380.6531654237138 L 393.1949840625595 381.4503360416678 L 389.78119850030356 381.3764723708248 L 386.424275220784 380.9801266696769 L 379.88174541630093 379.2158496718718 L 376.69514378218423 377.85356191966343 L 373.5634236950583 376.1800254477735 L 367.4568133976433 371.9435260747163 L 361.5413673555132 366.6228803361013 L 355.789269214766 360.3758426141005 L 350.1664911769417 353.39539414348235 L 344.6340879353492 345.9024047340427 L 339.1496776038773 338.1372340059658 L 333.6690533246956 330.3505915083675 L 328.1478642720763 322.7940032728824 L 322.54330213071944 315.71024731980026 L 316.81572891879074 309.3241218148636 L 310.9301842563011 303.833896925512 L 304.8577147636489 299.4037754270963 L 298.5764750388024 296.1576487510019 L 295.35289375233936 295.0050830288409 L 292.0725583475159 294.1743859063263 L 285.34052543887043 293.4848344179182 L 281.8896386325178 293.62138235820595 L 278.3836113774721 294.07064732269237 L 271.2136025273354 295.86498082869355 L 263.8503883652463 298.7550361078239 L 256.3212051662867 302.5863485683777 L 248.65960032102964 307.1686615041018 L 240.90415666713585 312.2831607692222 L 233.09702534373972 317.69079537468957 L 225.28232295810065 323.14136760781037 L 217.504454013637 328.38304701563925 L 209.8064223904605 333.1719464747252 L 202.22819608581798 337.28139620891596 L 194.80518739659186 340.5105631027111 L 187.56690633622895 342.69208755335364 L 180.53583849107685 343.69844746378635 L 177.10289907433366 343.73321069967216 L 173.72658998660813 343.4468073801616 L 167.14533207692637 341.90216838127805 L 163.93975719237773 340.6474832793034 L 160.78956647751647 339.0786989426859 L 154.64822036466416 335.0391961682079 L 148.70206742910898 329.8926978760117 L 142.92445897300342 323.7903363417153 L 137.28233724958807 316.91959136351375 L 131.73749251246733 309.4971611814725 L 126.24801597410686 301.7607223404172 L 120.7698934235541 293.9598918347278 L 115.25867890469675 286.34673520725926 L 109.6711848120026 279.16618154010007 L 103.96712413639494 272.6467098153929 L 98.11064241345179 266.99166080536696 L 92.07168112027813 262.37150486444045 L 85.8271206767136 258.9173596472548 L 82.62263560638513 257.65649390170637 L 79.36165958726866 256.71600424699244 L 72.66839629366217 255.80657934565994 L 69.23655027452668 255.83514161557247 L 65.74909161251605 256.17909885596305 L 58.61410177878679 257.7748296508717 L 51.28198464101757 260.4885249413325 L 43.77879398317259 264.1724263760173 L 36.13708880707492 268.6418826798216 L 28.394695248336006 273.68237117754575 L 20.593268204988647 279.05765520327833 L 12.776707374133252 284.5187672029672 L 4.98948792816725 289.81347593997066 L -2.7250306919291347 294.69587780494896 L -10.326253556659594 298.9357475122799" stroke-opacity="0.8" stroke-linecap="round" stroke-linejoin="round" stroke-miterlimit="10" stroke-width="2.5"/><path fill="rgb(97,97,97)" stroke="none" paint-order="stroke fill markers" d=" M 320.8108894174859 308.30631990322985 C 320.8108894174859 311.0677436523838 318.57231316663984 313.30631990322985 315.8108894174859 313.30631990322985 C 313.04946566833195 313.30631990322985 310.8108894174859 311.0677436523838 310.8108894174859 308.30631990322985 C 310.8108894174859 305.5448961540759 313.04946566833195 303.30631990322985 315.8108894174859 303.30631990322985 C 318.57231316663984 303.30631990322985 320.8108894174859 305.5448961540759 320.8108894174859 308.30631990322985 Z" fill-opacity="1"/><path fill="none" stroke="rgb(0,0,0)" paint-order="fill stroke markers" d=" M 320.8108894174859 308.30631990322985 C 320.8108894174859 311.0677436523838 318.57231316663984 313.30631990322985 315.8108894174859 313.30631990322985 C 313.04946566833195 313.30631990322985 310.8108894174859 311.0677436523838 310.8108894174859 308.30631990322985 C 310.8108894174859 305.5448961540759 313.04946566833195 303.30631990322985 315.8108894174859 303.30631990322985 C 318.57231316663984 303.30631990322985 320.8108894174859 305.5448961540759 320.8108894174859 308.30631990322985 Z" stroke-opacity="1" stroke-linecap="round" stroke-linejoin="round" stroke-miterlimit="10"/><path fill="rgb(97,97,97)" stroke="none" paint-order="stroke fill markers" d=" M 320.8108894174859 308.30631990322985 C 320.8108894174859 311.0677436523838 318.57231316663984 313.30631990322985 315.8108894174859 313.30631990322985 C 313.04946566833195 313.30631990322985 310.8108894174859 311.0677436523838 310.8108894174859 308.30631990322985 C 310.8108894174859 305.5448961540759 313.04946566833195 303.30631990322985 315.8108894174859 303.30631990322985 C 318.57231316663984 303.30631990322985 320.8108894174859 305.5448961540759 320.8108894174859 308.30631990322985 Z" fill-opacity="1"/><path fill="none" stroke="rgb(0,0,0)" paint-order="fill stroke markers" d=" M 320.8108894174859 308.30631990322985 C 320.8108894174859 311.0677436523838 318.57231316663984 313.30631990322985 315.8108894174859 313.30631990322985 C 313.04946566833195 313.30631990322985 310.8108894174859 311.0677436523838 310.8108894174859 308.30631990322985 C 310.8108894174859 305.5448961540759 313.04946566833195 303.30631990322985 315.8108894174859 303.30631990322985 C 318.57231316663984 303.30631990322985 320.8108894174859 305.5448961540759 320.8108894174859 308.30631990322985 Z" stroke-opacity="1" stroke-linecap="round" stroke-linejoin="round" stroke-miterlimit="10"/><text fill="none" stroke="rgb(255,255,255)" font-family="geogebra-sans-serif, sans-serif" font-size="16px" font-style="normal" font-weight="normal" text-decoration="normal" x="320" y="298" text-anchor="start" dominant-baseline="alphabetic" stroke-opacity="1" stroke-linecap="round" stroke-linejoin="bevel" stroke-miterlimit="10" stroke-width="3">Q</text><text fill="rgb(97,97,97)" stroke="none" font-family="geogebra-sans-serif, sans-serif" font-size="16px" font-style="normal" font-weight="normal" text-decoration="normal" x="320" y="298" text-anchor="start" dominant-baseline="alphabetic" fill-opacity="1">Q</text></g></g></svg>