<svg version="1.1" xmlns="http://www.w3.org/2000/svg" xmlns:xlink="http://www.w3.org/1999/xlink" width="260" height="195" viewBox="0 0 260 195">
<defs><clipPath id="RemtBbyOtBED"><path fill="none" stroke="none" d=" M 0 0 L 260 0 L 260 195 L 0 195 L 0 0 Z"/></clipPath></defs>
<g transform="scale(1,1)" clip-path="url(#RemtBbyOtBED)"><g transform="translate(-107,-340)">
<rect fill="rgba(255,255,255,0)" stroke="none" x="0" y="0" width="723" height="857" fill-opacity="1"/><path fill="none" stroke="rgb(0,0,0)" paint-order="fill stroke markers" d=" M 112.08754312153422 529.2691736288805 L 361.5 428.5" stroke-opacity="1" stroke-linecap="round" stroke-linejoin="round" stroke-miterlimit="10" stroke-width="2.5"/><path fill="none" stroke="rgb(0,0,0)" paint-order="fill stroke markers" d=" M 361.5 428.5 L 255.5125536398959 345.6935315686988" stroke-opacity="1" stroke-linecap="round" stroke-linejoin="round" stroke-miterlimit="10" stroke-width="2.5"/><path fill="none" stroke="rgb(0,0,0)" paint-order="fill stroke markers" d=" M 255.5125536398959 345.6935315686988 L 112.08754312153422 529.2691736288805" stroke-opacity="1" stroke-linecap="round" stroke-linejoin="round" stroke-miterlimit="10" stroke-width="2.5"/><path fill="none" stroke="rgb(0,0,0)" paint-order="fill stroke markers" d=" M 240.12101675675444 365.3938004088669 L 259.8212855969225 380.78533729200836" stroke-opacity="1" stroke-linecap="round" stroke-linejoin="round" stroke-miterlimit="10" stroke-width="2.5"/><path fill="none" stroke="rgb(0,0,0)" paint-order="fill stroke markers" d=" M 259.8212855969225 380.78533729200836 L 275.21282248006395 361.0850684518403" stroke-opacity="1" stroke-linecap="round" stroke-linejoin="round" stroke-miterlimit="10" stroke-width="2.5"/><path fill="none" stroke="rgb(0,0,0)" paint-order="fill stroke markers" d=" M 240.12101675675444 365.3938004088669 L 259.8212855969225 380.78533729200836" stroke-opacity="1" stroke-linecap="round" stroke-linejoin="round" stroke-miterlimit="10" stroke-width="2.5"/><g transform="scale(19,19)"><g transform="translate(7.2631578947368425,26.957602894736844)"><path fill="rgb(0,0,0)" stroke="none" paint-order="stroke fill markers" d=" M 0.455 -0.5 L 0.455 -0.5 Q 0.455 -0.34700000000000003 0.377 -0.19 Q 0.307 -0.05 0.222 -0.005 Q 0.191 0.011 0.162 0.011 Q 0.08 0.011 0.052000000000000005 -0.101 Q 0.042 -0.14300000000000002 0.042 -0.194 Q 0.042 -0.35100000000000003 0.122 -0.509 Q 0.192 -0.646 0.277 -0.6900000000000001 Q 0.307 -0.705 0.335 -0.705 Q 0.422 -0.705 0.447 -0.578 Q 0.455 -0.54 0.455 -0.5 M 0.148 -0.363 L 0.148 -0.363 L 0.357 -0.363 Q 0.389 -0.495 0.389 -0.562 Q 0.389 -0.675 0.342 -0.682 Q 0.338 -0.683 0.334 -0.683 Q 0.28300000000000003 -0.683 0.225 -0.578 Q 0.187 -0.511 0.149 -0.368 Q 0.149 -0.365 0.148 -0.363 M 0.34800000000000003 -0.331 L 0.14 -0.331 Q 0.108 -0.21 0.108 -0.133 Q 0.108 -0.013000000000000001 0.162 -0.011 Q 0.218 -0.011 0.278 -0.128 Q 0.317 -0.202 0.34800000000000003 -0.331 Z"/></g></g><text fill="rgb(0,0,0)" stroke="none" font-family="geogebra-sans-serif, sans-serif" font-size="16px" font-style="normal" font-weight="normal" text-decoration="normal" x="309" y="383" text-anchor="start" dominant-baseline="alphabetic" fill-opacity="1">1</text><g transform="scale(19,19)"><g transform="translate(12.052631578947366,25.501050631578952)"><path fill="rgb(0,0,0)" stroke="none" paint-order="stroke fill markers" d=" M 0.389 0.855 L 0.812 -0.021 Q 0.8250000000000001 -0.038 0.833 -0.04 Q 0.85 -0.04 0.853 -0.02 Q 0.853 -0.016 0.847 -0.003 L 0.391 0.9410000000000001 Q 0.383 0.9570000000000001 0.375 0.9590000000000001 Q 0.372 0.96 0.366 0.96 Q 0.354 0.96 0.35000000000000003 0.9510000000000001 L 0.34700000000000003 0.9450000000000001 L 0.149 0.51 L 0.097 0.549 Q 0.088 0.557 0.083 0.557 Q 0.073 0.557 0.073 0.546 Q 0.073 0.542 0.085 0.532 L 0.184 0.457 Q 0.193 0.449 0.198 0.449 Q 0.20400000000000001 0.449 0.211 0.463 L 0.389 0.855 Z"/></g><rect fill="rgb(0,0,0)" stroke="none" x="12.885967578947366" y="25.46105163157895" width="0.5555577222222222" height="0.039999"/><g transform="translate(12.885967578947366,26.382648006578954)"><path fill="rgb(0,0,0)" stroke="none" paint-order="stroke fill markers" d=" M 0.092 -0.514 L 0.056 -0.5680000000000001 Q 0.08700000000000001 -0.62 0.1385 -0.649 Q 0.19 -0.678 0.248 -0.678 Q 0.323 -0.678 0.3765 -0.634 Q 0.43 -0.59 0.43 -0.526 Q 0.43 -0.47600000000000003 0.402 -0.4295 Q 0.374 -0.383 0.319 -0.354 Q 0.375 -0.337 0.41600000000000004 -0.2905 Q 0.457 -0.244 0.457 -0.18 Q 0.457 -0.099 0.3965 -0.0385 Q 0.336 0.022 0.247 0.022 Q 0.123 0.022 0.042 -0.082 L 0.053 -0.14200000000000002 Q 0.085 -0.093 0.138 -0.066 Q 0.191 -0.039 0.245 -0.039 Q 0.301 -0.039 0.3345 -0.08 Q 0.368 -0.121 0.368 -0.181 Q 0.368 -0.203 0.3625 -0.225 Q 0.357 -0.247 0.34400000000000003 -0.2705 Q 0.331 -0.294 0.3035 -0.309 Q 0.276 -0.324 0.23800000000000002 -0.324 L 0.167 -0.324 L 0.167 -0.385 Q 0.242 -0.391 0.246 -0.392 Q 0.291 -0.402 0.3195 -0.4405 Q 0.34800000000000003 -0.47900000000000004 0.34800000000000003 -0.526 Q 0.34800000000000003 -0.5710000000000001 0.3185 -0.5955 Q 0.289 -0.62 0.247 -0.62 Q 0.199 -0.62 0.156 -0.592 Q 0.113 -0.5640000000000001 0.092 -0.514 Z"/></g></g></g></g></svg>