<svg version="1.1" xmlns="http://www.w3.org/2000/svg" xmlns:xlink="http://www.w3.org/1999/xlink" width="543" height="159" viewBox="0 0 543 159">
  <defs>
    <clipPath id="xobuEdMkIvNv">
      <path fill="none" stroke="none" d=" M 0 0 L 543 0 L 543 159 L 0 159 L 0 0 Z" />
    </clipPath>
  </defs>
  <g transform="scale(1,1)" clip-path="url(#xobuEdMkIvNv)">
    <g transform="translate(-137,-220)">
      <rect fill="rgba(255,255,255,0)" stroke="none" x="0" y="0" width="1060" height="756" fill-opacity="1" />
      <path fill="none" stroke="rgb(0,0,0)" paint-order="fill stroke markers" d=" M 175.20652141535993 343.3248187111919 L 175.20652141535993 265.70611567782726" stroke-opacity="1" stroke-linecap="round" stroke-linejoin="round" stroke-miterlimit="10" stroke-width="2.5" />
      <path fill="none" stroke="rgb(0,0,0)" paint-order="fill stroke markers" d=" M 175.20652141535993 265.70611567782726 L 640.9187396155473 265.70611567782726" stroke-opacity="1" stroke-linecap="round" stroke-linejoin="round" stroke-miterlimit="10" stroke-width="2.5" />
      <path fill="none" stroke="rgb(0,0,0)" paint-order="fill stroke markers" d=" M 640.9187396155473 265.70611567782726 L 175.20652141535993 343.3248187111919" stroke-opacity="1" stroke-linecap="round" stroke-linejoin="round" stroke-miterlimit="10" stroke-width="2.5" />
      <path fill="none" stroke="rgb(0,0,0)" paint-order="fill stroke markers" d=" M 175.20652141535993 283.1703238603343 L 192.67072959786697 283.1703238603343" stroke-opacity="1" stroke-linecap="round" stroke-linejoin="round" stroke-miterlimit="10" stroke-width="2.5" />
      <path fill="none" stroke="rgb(0,0,0)" paint-order="fill stroke markers" d=" M 192.67072959786697 283.1703238603343 L 192.67072959786697 265.70611567782726" stroke-opacity="1" stroke-linecap="round" stroke-linejoin="round" stroke-miterlimit="10" stroke-width="2.5" />
      <g transform="scale(25,25)">
        <g transform="translate(16.2,10.135556000000001)">
          <path fill="rgb(0,0,0)" stroke="none" paint-order="stroke fill markers" d=" M 0.41500000000000004 -0.658 L 0.41500000000000004 -0.599 Q 0.362 -0.62 0.31 -0.62 Q 0.23800000000000002 -0.62 0.1865 -0.5575 Q 0.135 -0.495 0.126 -0.379 Q 0.194 -0.462 0.295 -0.462 Q 0.365 -0.462 0.41100000000000003 -0.3915 Q 0.457 -0.321 0.457 -0.222 Q 0.457 -0.164 0.4425 -0.1245 Q 0.428 -0.085 0.393 -0.046 Q 0.334 0.022 0.251 0.022 Q 0.223 0.022 0.1965 0.014 Q 0.17 0.006 0.14100000000000001 -0.0175 Q 0.112 -0.041 0.091 -0.078 Q 0.07 -0.115 0.056 -0.178 Q 0.042 -0.241 0.042 -0.322 Q 0.042 -0.47900000000000004 0.121 -0.5785 Q 0.2 -0.678 0.309 -0.678 Q 0.364 -0.678 0.41500000000000004 -0.658 M 0.127 -0.219 Q 0.129 -0.196 0.1335 -0.17500000000000002 Q 0.138 -0.154 0.15 -0.11850000000000001 Q 0.162 -0.083 0.188 -0.061 Q 0.214 -0.039 0.251 -0.039 Q 0.313 -0.039 0.35100000000000003 -0.101 Q 0.375 -0.14200000000000002 0.375 -0.222 Q 0.375 -0.298 0.352 -0.339 Q 0.318 -0.401 0.256 -0.401 Q 0.197 -0.401 0.1625 -0.354 Q 0.128 -0.307 0.128 -0.247 Q 0.127 -0.23500000000000001 0.127 -0.219 Z" />
        </g>
      </g>
      <g transform="scale(25,25)">
        <g transform="translate(6.08,12.495556)">
          <path fill="rgb(0,0,0)" stroke="none" paint-order="stroke fill markers" d=" M 0.299 -0.678 L 0.299 -0.058 L 0.424 -0.058 L 0.424 0 L 0.095 0 L 0.095 -0.058 L 0.22 -0.058 L 0.22 -0.578 Q 0.169 -0.556 0.089 -0.554 L 0.089 -0.612 Q 0.22 -0.617 0.279 -0.678 L 0.299 -0.678 Z" />
        </g>
      </g>
      <text fill="rgb(163,143,140)" stroke="none" font-family="geogebra-sans-serif, sans-serif" font-size="22px" font-style="normal" font-weight="normal" text-decoration="normal" x="152" y="361" text-anchor="start" dominant-baseline="alphabetic" fill-opacity="1">D</text>
      <text fill="rgb(0,0,0)" stroke="none" font-family="geogebra-sans-serif, sans-serif" font-size="22px" font-style="normal" font-weight="normal" text-decoration="normal" x="152" y="269" text-anchor="start" dominant-baseline="alphabetic" fill-opacity="1">E</text>
      <text fill="rgb(163,143,140)" stroke="none" font-family="geogebra-sans-serif, sans-serif" font-size="22px" font-style="normal" font-weight="normal" text-decoration="normal" x="649" y="269" text-anchor="start" dominant-baseline="alphabetic" fill-opacity="1">F</text>
      <text fill="rgb(163,143,140)" stroke="none" font-family="geogebra-sans-serif, sans-serif" font-size="22px" font-style="normal" font-weight="normal" text-decoration="normal" x="405" y="330" text-anchor="start" dominant-baseline="alphabetic" fill-opacity="1">e</text>
    </g>
  </g>
</svg>