<?xml version="1.0" encoding="UTF-8" standalone="no"?>
<svg xmlns:dc="http://purl.org/dc/elements/1.1/" xmlns:cc="http://creativecommons.org/ns#" xmlns:rdf="http://www.w3.org/1999/02/22-rdf-syntax-ns#" xmlns:svg="http://www.w3.org/2000/svg" xmlns="http://www.w3.org/2000/svg" xmlns:sodipodi="http://sodipodi.sourceforge.net/DTD/sodipodi-0.dtd" xmlns:inkscape="http://www.inkscape.org/namespaces/inkscape" version="1.1" width="874" height="362" id="svg175" sodipodi:docname="p3-q5.svg" inkscape:version="0.92.3 (2405546, 2018-03-11)" viewBox="0 0 874 362">
  <metadata id="metadata179">
    <rdf:RDF>
      <cc:Work rdf:about="">
        <dc:format>image/svg+xml</dc:format>
        <dc:type rdf:resource="http://purl.org/dc/dcmitype/StillImage" />
        <dc:title>
        </dc:title>
      </cc:Work>
    </rdf:RDF>
  </metadata>
  <sodipodi:namedview pagecolor="#ffffff" bordercolor="#666666" borderopacity="1" objecttolerance="10" gridtolerance="10" guidetolerance="10" inkscape:pageopacity="0" inkscape:pageshadow="2" inkscape:window-width="2160" inkscape:window-height="1360" id="namedview177" showgrid="false" inkscape:zoom="0.96567506" inkscape:cx="426.30419" inkscape:cy="171.41526" inkscape:window-x="-11" inkscape:window-y="-11" inkscape:window-maximized="1" inkscape:current-layer="svg175" />
  <defs id="defs5">
    <clipPath id="QfFZBCCrlExE">
      <path fill="none" stroke="none" d=" M 0 0 L 874 0 L 874 362 L 0 362 L 0 0 Z" id="path2" />
    </clipPath>
    <clipPath clipPathUnits="userSpaceOnUse" id="clipPath1649">
      <rect x="0" y="0" width="874" height="362" id="rect1651" style="fill:#ff5cff;fill-opacity:0.453125;stroke:none;stroke-width:1" />
    </clipPath>
  </defs>
  <g id="g1481" clip-path="url(#clipPath1649)">
    <path style="fill:none;stroke:#000000;stroke-miterlimit:10;stroke-opacity:1;paint-order:fill stroke markers" inkscape:connector-curvature="0" id="path9" stroke-miterlimit="10" d="m 437.5,-148.5 v 754" />
    <path style="fill:none;stroke:#000000;stroke-miterlimit:10;stroke-opacity:1;paint-order:fill stroke markers" inkscape:connector-curvature="0" id="path11" stroke-miterlimit="10" d="m 437.5,-149.5 -4,4" />
    <path style="fill:none;stroke:#000000;stroke-miterlimit:10;stroke-opacity:1;paint-order:fill stroke markers" inkscape:connector-curvature="0" id="path13" stroke-miterlimit="10" d="m 437.5,-149.5 4,4" />
    <path style="fill:none;stroke:#000000;stroke-miterlimit:10;stroke-opacity:1;paint-order:fill stroke markers" inkscape:connector-curvature="0" id="path15" stroke-miterlimit="10" d="m -77.5,181.5 h 1058" />
    <path style="fill:none;stroke:#000000;stroke-miterlimit:10;stroke-opacity:1;paint-order:fill stroke markers" inkscape:connector-curvature="0" id="path17" stroke-miterlimit="10" d="m 981.5,181.5 -4,-4" />
    <path style="fill:none;stroke:#000000;stroke-miterlimit:10;stroke-opacity:1;paint-order:fill stroke markers" inkscape:connector-curvature="0" id="path19" stroke-miterlimit="10" d="m 981.5,181.5 -4,4" />
    <path style="fill:none;stroke:#000000;stroke-miterlimit:10;stroke-opacity:1;paint-order:fill stroke markers" inkscape:connector-curvature="0" id="path21" stroke-miterlimit="10" d="m -74.5,181.5 v 3" />
    <text style="font-style:normal;font-weight:normal;font-size:12px;font-family:geogebra-sans-serif, sans-serif;dominant-baseline:alphabetic;text-anchor:start;fill:#000000;fill-opacity:1;stroke:none" id="text25" dominant-baseline="alphabetic" y="197" x="42" text-decoration="normal" font-weight="normal" font-style="normal" font-size="12px">–0.3</text>
    <path style="fill:none;stroke:#000000;stroke-miterlimit:10;stroke-opacity:1;paint-order:fill stroke markers" inkscape:connector-curvature="0" id="path27" stroke-miterlimit="10" d="m 53.5,181.5 v 3" />
    <text style="font-style:normal;font-weight:normal;font-size:12px;font-family:geogebra-sans-serif, sans-serif;dominant-baseline:alphabetic;text-anchor:start;fill:#000000;fill-opacity:1;stroke:none" id="text31" dominant-baseline="alphabetic" y="197" x="170" text-decoration="normal" font-weight="normal" font-style="normal" font-size="12px">–0.2</text>
    <path style="fill:none;stroke:#000000;stroke-miterlimit:10;stroke-opacity:1;paint-order:fill stroke markers" inkscape:connector-curvature="0" id="path33" stroke-miterlimit="10" d="m 181.5,181.5 v 3" />
    <text style="font-style:normal;font-weight:normal;font-size:12px;font-family:geogebra-sans-serif, sans-serif;dominant-baseline:alphabetic;text-anchor:start;fill:#000000;fill-opacity:1;stroke:none" id="text37" dominant-baseline="alphabetic" y="197" x="298" text-decoration="normal" font-weight="normal" font-style="normal" font-size="12px">–0.1</text>
    <path style="fill:none;stroke:#000000;stroke-miterlimit:10;stroke-opacity:1;paint-order:fill stroke markers" inkscape:connector-curvature="0" id="path39" stroke-miterlimit="10" d="m 309.5,181.5 v 3" />
    <path style="fill:none;stroke:#000000;stroke-miterlimit:10;stroke-opacity:1;paint-order:fill stroke markers" inkscape:connector-curvature="0" id="path41" stroke-miterlimit="10" d="m 437.5,181.5 v 3" />
    <text style="font-style:normal;font-weight:normal;font-size:12px;font-family:geogebra-sans-serif, sans-serif;dominant-baseline:alphabetic;text-anchor:start;fill:#000000;fill-opacity:1;stroke:none" id="text45" dominant-baseline="alphabetic" y="197" x="558" text-decoration="normal" font-weight="normal" font-style="normal" font-size="12px">0.1</text>
    <path style="fill:none;stroke:#000000;stroke-miterlimit:10;stroke-opacity:1;paint-order:fill stroke markers" inkscape:connector-curvature="0" id="path47" stroke-miterlimit="10" d="m 566.5,181.5 v 3" />
    <text style="font-style:normal;font-weight:normal;font-size:12px;font-family:geogebra-sans-serif, sans-serif;dominant-baseline:alphabetic;text-anchor:start;fill:#000000;fill-opacity:1;stroke:none" id="text51" dominant-baseline="alphabetic" y="197" x="686" text-decoration="normal" font-weight="normal" font-style="normal" font-size="12px">0.2</text>
    <path style="fill:none;stroke:#000000;stroke-miterlimit:10;stroke-opacity:1;paint-order:fill stroke markers" inkscape:connector-curvature="0" id="path53" stroke-miterlimit="10" d="m 694.5,181.5 v 3" />
    <text style="font-style:normal;font-weight:normal;font-size:12px;font-family:geogebra-sans-serif, sans-serif;dominant-baseline:alphabetic;text-anchor:start;fill:#000000;fill-opacity:1;stroke:none" id="text57" dominant-baseline="alphabetic" y="197" x="814" text-decoration="normal" font-weight="normal" font-style="normal" font-size="12px">0.3</text>
    <path style="fill:none;stroke:#000000;stroke-miterlimit:10;stroke-opacity:1;paint-order:fill stroke markers" inkscape:connector-curvature="0" id="path59" stroke-miterlimit="10" d="m 822.5,181.5 v 3" />
    <text style="font-style:normal;font-weight:normal;font-size:12px;font-family:geogebra-sans-serif, sans-serif;dominant-baseline:alphabetic;text-anchor:start;fill:#000000;fill-opacity:1;stroke:none" id="text63" dominant-baseline="alphabetic" y="197" x="942" text-decoration="normal" font-weight="normal" font-style="normal" font-size="12px">0.4</text>
    <path style="fill:none;stroke:#000000;stroke-miterlimit:10;stroke-opacity:1;paint-order:fill stroke markers" inkscape:connector-curvature="0" id="path65" stroke-miterlimit="10" d="m 950.5,181.5 v 3" />
    <path style="fill:none;stroke:#000000;stroke-miterlimit:10;stroke-opacity:1;paint-order:fill stroke markers" inkscape:connector-curvature="0" id="path67" stroke-miterlimit="10" d="m 434.5,565.5 h 3" />
    <path style="fill:none;stroke:#000000;stroke-miterlimit:10;stroke-opacity:1;paint-order:fill stroke markers" inkscape:connector-curvature="0" id="path69" stroke-miterlimit="10" d="m 434.5,437.5 h 3" />
    <path style="fill:none;stroke:#000000;stroke-miterlimit:10;stroke-opacity:1;paint-order:fill stroke markers" inkscape:connector-curvature="0" id="path71" stroke-miterlimit="10" d="m 434.5,309.5 h 3" />
    <path style="fill:none;stroke:#000000;stroke-miterlimit:10;stroke-opacity:1;paint-order:fill stroke markers" inkscape:connector-curvature="0" id="path73" stroke-miterlimit="10" d="m 434.5,52.5 h 3" />
    <path style="fill:none;stroke:#000000;stroke-miterlimit:10;stroke-opacity:1;paint-order:fill stroke markers" inkscape:connector-curvature="0" id="path75" stroke-miterlimit="10" d="m 434.5,-75.5 h 3" />
    <text style="font-style:normal;font-weight:normal;font-size:12px;font-family:geogebra-sans-serif, sans-serif;dominant-baseline:alphabetic;text-anchor:start;fill:#000000;fill-opacity:1;stroke:none" id="text79" dominant-baseline="alphabetic" y="570" x="407" text-decoration="normal" font-weight="normal" font-style="normal" font-size="12px">–0.3</text>
    <text style="font-style:normal;font-weight:normal;font-size:12px;font-family:geogebra-sans-serif, sans-serif;dominant-baseline:alphabetic;text-anchor:start;fill:#000000;fill-opacity:1;stroke:none" id="text83" dominant-baseline="alphabetic" y="442" x="407" text-decoration="normal" font-weight="normal" font-style="normal" font-size="12px">–0.2</text>
    <text style="font-style:normal;font-weight:normal;font-size:12px;font-family:geogebra-sans-serif, sans-serif;dominant-baseline:alphabetic;text-anchor:start;fill:#000000;fill-opacity:1;stroke:none" id="text87" dominant-baseline="alphabetic" y="314" x="407" text-decoration="normal" font-weight="normal" font-style="normal" font-size="12px">–0.1</text>
    <text style="font-style:normal;font-weight:normal;font-size:12px;font-family:geogebra-sans-serif, sans-serif;dominant-baseline:alphabetic;text-anchor:start;fill:#000000;fill-opacity:1;stroke:none" id="text91" dominant-baseline="alphabetic" y="57" x="414" text-decoration="normal" font-weight="normal" font-style="normal" font-size="12px">0.1</text>
    <text style="font-style:normal;font-weight:normal;font-size:12px;font-family:geogebra-sans-serif, sans-serif;dominant-baseline:alphabetic;text-anchor:start;fill:#000000;fill-opacity:1;stroke:none" id="text95" dominant-baseline="alphabetic" y="-71" x="414" text-decoration="normal" font-weight="normal" font-style="normal" font-size="12px">0.2</text>
    <text style="font-style:normal;font-weight:normal;font-size:12px;font-family:geogebra-sans-serif, sans-serif;dominant-baseline:alphabetic;text-anchor:start;fill:#000000;fill-opacity:1;stroke:none" id="text99" dominant-baseline="alphabetic" y="197" x="424" text-decoration="normal" font-weight="normal" font-style="normal" font-size="12px">0</text>
    <path style="fill:none;stroke:#6699ff;stroke-width:2.5;stroke-linecap:round;stroke-linejoin:round;stroke-miterlimit:10;stroke-opacity:0.8;paint-order:fill stroke markers" inkscape:connector-curvature="0" id="path101" stroke-miterlimit="10" d="m -78,-26.41411 4.140625,3.31864 4.140625,3.29189 4.140625,3.26515 4.140625,3.23842 4.140625,3.21167 4.140625,3.18493 4.140625,3.15819 4.140625,3.13145 4.140625,3.10471 4.140625,3.07797 4.140625,3.05123 4.140625,3.02449 4.140625,2.99774 4.140625,2.97101 4.140625,2.94426 4.140625,2.91753 4.140625,2.89078 4.140625,2.86404 4.140625,2.83731 4.140625,2.81056 4.140625,2.78382 4.140625,2.75708 4.140625,2.73034 4.140625,2.70359 4.14062,2.67686 4.14063,2.65012 4.14063,2.62337 4.14062,2.59664 4.14063,2.56989 4.14062,2.54315 4.14062,2.51642 4.14063,2.48967 4.14062,2.46293 4.14063,2.43619 4.14062,2.40945 4.14063,2.38271 4.14062,2.35597 4.14063,2.32922 4.14062,2.30249 4.14063,2.27575 4.14062,2.249 4.14063,2.22227 4.14062,2.19552 4.14063,2.16878 4.14062,2.14204 4.14063,2.1153 4.14062,2.08856 4.14063,2.06182 4.14062,2.03508 4.14063,2.00834 4.14062,1.9816 4.14063,1.95486 4.14062,1.92811 4.14063,1.90138 4.14062,1.87463 4.14063,1.84789 4.14062,1.82116 4.14063,1.79441 4.14062,1.76767 4.14063,1.74093 4.14062,1.71419 4.14063,1.68745 4.14062,1.66071 4.14063,1.63396 4.14062,1.60723 4.14063,1.58049 4.14062,1.55374 4.14063,1.527 4.14062,1.50027 4.14063,1.47352 4.14062,1.44678 4.14063,1.42004 4.14062,1.3933 4.14063,1.36656 4.14062,1.33982 4.14063,1.31308 4.14062,1.28634 4.14063,1.25959 4.14062,1.23286 4.14063,1.20612 4.14062,1.17937 4.14063,1.15263 4.14062,1.1259 4.14063,1.09915 4.14062,1.07241 4.14063,1.04567 4.14062,1.01893 4.14063,0.99219 4.14062,0.96545 4.14063,0.9387 4.14062,0.91197 4.14063,0.88523 4.14062,0.85848 4.14063,0.83174 4.14062,0.80501 4.14063,0.77826 4.14062,0.75152 4.14063,0.72478 4.14062,0.69804 4.14063,0.6713 4.14062,0.64456 4.14063,0.61782 4.14062,0.59108 4.14063,0.56434 4.14062,0.53759 4.14063,0.51086 4.14062,0.48411 4.14063,0.45737 4.14062,0.43064 4.14063,0.40389 4.14062,0.37715 4.14063,0.35041 4.14062,0.32367 4.14063,0.29693 4.14062,0.27019 4.14063,0.24344 4.14062,0.21671 4.14063,0.18997 4.14062,0.16322 4.14063,0.13649 4.14062,0.10974 4.14063,0.083 4.14062,0.0563 4.14063,0.0295 4.14062,0.003 4.14063,-0.024 4.14062,-0.0507 4.14063,-0.0774 4.14062,-0.10418 4.14063,-0.13092 4.14062,-0.15767 4.14063,-0.1844 4.14062,-0.21115 4.14063,-0.23788 4.14062,-0.26463 4.14063,-0.29137 4.14062,-0.31811 4.14063,-0.34485 4.14062,-0.37159 4.14063,-0.39833 4.14062,-0.42507 4.14063,-0.45181 4.14062,-0.47856 4.14063,-0.50529 4.14062,-0.53204 4.14063,-0.55877 4.14062,-0.58552 4.14063,-0.61225 4.14062,-0.639 4.14063,-0.66574 4.14062,-0.69248 4.14063,-0.71922 4.14062,-0.74596 4.14063,-0.7727 4.14062,-0.79945 4.14063,-0.82618 4.14062,-0.85292 4.14063,-0.87967 4.14062,-0.9064 4.14063,-0.93315 4.14062,-0.95989 4.14063,-0.98663 4.14062,-1.01336 4.14063,-1.04011 4.14062,-1.06685 4.14063,-1.09359 4.14062,-1.12034 4.14063,-1.14707 4.14062,-1.17381 4.14063,-1.20056 4.14062,-1.22729 4.14063,-1.25404 4.14062,-1.28077 4.14063,-1.30752 4.14062,-1.33426 4.14063,-1.361 4.14062,-1.38774 4.14063,-1.41448 4.14062,-1.44122 4.14063,-1.46796 4.14062,-1.4947 4.14063,-1.52144 4.14062,-1.54819 4.14063,-1.57492 4.14062,-1.60167 4.14063,-1.62841 4.14062,-1.65514 4.14063,-1.68189 4.14062,-1.70863 4.14063,-1.73537 4.14062,-1.76211 4.14063,-1.78885 4.14062,-1.81559 4.14063,-1.84233 4.14062,-1.86908 4.14063,-1.89581 4.14062,-1.92256 4.14063,-1.94929 4.14062,-1.97604 4.14063,-2.00277 4.14062,-2.02952 4.14063,-2.05626 4.14062,-2.083 4.14063,-2.10974 4.14062,-2.13648 4.14063,-2.16322 4.14062,-2.18997 4.14063,-2.2167 4.14062,-2.24344 4.14063,-2.27019 4.14062,-2.29692 4.14063,-2.32367 4.14062,-2.35041 4.14063,-2.37714 4.14062,-2.40389 4.14063,-2.43063 4.14062,-2.45737 4.14063,-2.48411 4.14062,-2.51085 4.14063,-2.5376 4.14062,-2.56433 4.14063,-2.59107 4.14062,-2.61782 4.14063,-2.64455 4.14062,-2.6713 4.14063,-2.69804 4.14062,-2.72478 4.14063,-2.75151 4.14062,-2.77826 4.14063,-2.805 4.14062,-2.83174 4.14063,-2.85849 4.14062,-2.88522 4.14063,-2.91196 4.14062,-2.93871 4.14063,-2.96544 4.14062,-2.99219 4.14063,-3.01892 4.14062,-3.04567 4.14063,-3.07241 4.14062,-3.09915 4.14058,-3.12588 4.1407,-3.15263 4.1406,-3.17938 4.1406,-3.20611 4.1406,-3.23285 4.1407,-3.25959 4.1406,-3.28634 4.1406,-3.31307 4.1407,-3.33982 4.1406,-3.36655 4.1406,-3.3933 4.1406,-3.42004 4.1407,-3.44678 4.1406,-3.47352 L 982,-49.6618" />
    <path style="fill:none;stroke:#000000;stroke-width:2.5;stroke-linecap:round;stroke-linejoin:round;stroke-miterlimit:10;stroke-opacity:0.8;paint-order:fill stroke markers" inkscape:connector-curvature="0" id="path103" stroke-miterlimit="10" d="m -78,345.65038 4.140625,-0.15618 4.140625,-0.24199 4.140625,-0.32881 4.140625,-0.41665 4.140625,-0.5055 4.140625,-0.59537 4.140625,-0.68626 4.140625,-0.77817 4.140625,-0.87107 4.140625,-0.96498 4.140625,-1.05988 4.140625,-1.15574 4.140625,-1.25255 4.140625,-1.3503 4.140625,-1.44895 4.140625,-1.54847 4.140625,-1.64883 4.140625,-1.74998 4.140625,-1.85188 4.140625,-1.95447 4.140625,-2.05768 4.140625,-2.16147 4.140625,-2.26573 4.140625,-2.37038 4.14062,-2.47534 4.14063,-2.58048 4.14063,-2.68569 4.14062,-2.79083 4.14063,-2.89575 4.14062,-3.00031 4.14062,-3.1043 4.14063,-3.20753 4.14062,-3.3098 4.14063,-3.41085 4.14062,-3.51043 4.14063,-3.60825 4.14062,-3.704 4.14063,-3.79735 4.14062,-3.88792 4.14063,-3.97531 4.14062,-4.05908 4.14063,-4.13877 4.14062,-4.21384 4.14063,-4.28377 4.14062,-4.34794 4.14063,-4.40572 4.14062,-4.45639 4.14063,-4.49925 4.14062,-4.53346 4.14063,-4.55821 4.14062,-4.57255 4.14063,-4.57557 4.14062,-4.5662 4.14063,-4.54341 4.14062,-4.50605 4.14063,-4.45296 4.14062,-4.38291 4.14063,-4.29464 4.14062,-4.18688 4.14063,-4.05834 4.14062,-3.90772 4.14063,-3.73374 4.14062,-3.53522 4.14063,-3.31101 4.14062,-3.06012 4.14063,-2.78173 4.14062,-2.47526 4.14063,-2.14043 4.14062,-1.77736 4.14063,-1.38665 4.14062,-0.96953 4.14063,-0.52791 4.14062,-0.0647 4.14063,0.41641 4.14062,0.91018 4.14063,1.41019 4.14062,1.90838 4.14063,2.39489 4.14062,2.85798 4.14063,3.28385 4.14062,3.65667 4.14063,3.95861 4.14062,4.17018 4.14063,4.27074 4.14062,4.23936 4.14063,4.05614 4.14062,3.70413 4.14063,3.1718 4.14062,2.45646 4.14063,1.56813 2.07031,0.40383 2.07031,0.1305 2.07032,-0.15306 2.07031,-0.44209 2.07031,-0.73096 2.07031,-1.01307 4.14063,-2.80727 4.14062,-3.65296 4.14063,-4.13143 4.14062,-4.09515 4.14063,-3.43307 2.07031,-1.26241 2.07031,-0.85837 1.03516,-0.25798 1.03516,-0.13561 1.03515,-0.009 1.03516,0.12054 1.03516,0.25061 1.03515,0.37921 2.07031,1.12615 2.07032,1.56002 2.07031,1.88712 4.14062,4.11365 4.14063,3.19766 0.51758,0.25017 0.51758,0.20724 1.03515,0.27687 0.51758,0.066 0.51758,0.016 1.03515,-0.12058 0.51758,-0.13671 0.51758,-0.18685 1.03516,-0.51827 1.03515,-0.69537 1.03516,-0.84511 4.14062,-4.01188 2.07032,-1.60321 0.51758,-0.27962 0.51757,-0.21871 0.51758,-0.15293 0.51758,-0.0833 0.51758,-0.0111 0.51758,0.0625 0.51757,0.13592 0.51758,0.20755 1.03516,0.61456 1.03515,0.83746 4.14063,3.78306 0.51758,0.2934 0.51758,0.21012 0.51757,0.11816 0.51758,0.0204 0.51758,-0.0799 0.51758,-0.1788 1.03515,-0.62866 4.14063,-3.56791 0.51758,-0.18186 0.51758,-0.0573 0.51757,0.0732 0.51758,0.20158 0.51758,0.31874 0.51758,0.41558 1.03515,0.99909 2.07032,1.55615 0.51758,0.0799 0.51757,-0.0849 0.51758,-0.24436 0.51758,-0.38044 2.07031,-1.88207 0.51758,-0.25168 0.51758,-0.0628 0.51758,0.14028 0.51757,0.32536 2.07032,1.78251 0.51758,0.12555 0.51757,-0.11827 0.51758,-0.34041 0.51758,-0.48368 1.03516,-0.88789 0.51757,-0.14871 0.51758,0.13925 0.51758,0.3885 0.51758,0.50758 0.51758,0.44013 0.51757,0.19607 0.51758,-0.13718 0.51758,-0.41714 1.03516,-0.83812 0.51758,0.0225 0.51757,0.37492 1.03516,0.7947 0.51758,-0.1295 0.51758,-0.46216 0.51757,-0.41879 0.51758,-0.002 0.51758,0.42491 0.51758,0.42026 0.51758,-0.0513 0.51757,-0.46726 0.51758,-0.28358 0.51758,0.29635 0.51758,0.4316 0.51758,-0.13421 0.51758,-0.45973 0.51757,0.0888 0.51758,0.44274 0.51758,-0.18617 0.51758,-0.34626 0.51758,0.3764 0.51757,0.0263 0.51758,-0.35936 0.51758,0.3854 0.51758,-0.20868 0.51758,0.0104 0.51757,0.11545 0.51758,-0.15811 0.51758,0.13084 0.51758,-0.0381 0.51758,-0.10586 0.5014,0.21101 0.53375,-0.10403 1.03516,-0.0952 4.14062,0.0861 4.14063,-7.6e-4 4.14062,-0.002 4.14063,0.007 4.14062,0.0603 4.14063,0.0844 4.14062,-0.21478 4.14063,-0.19786 4.14062,0.4081 4.14063,0.2266 0.51758,0.33846 0.51758,0.0233 0.51757,-0.29397 0.51758,-0.48464 1.03516,-0.80168 0.51758,-0.0419 0.51757,0.23769 2.07032,1.67109 0.51758,0.0358 0.51757,-0.20251 0.51758,-0.39195 0.51758,-0.49778 1.03516,-0.92778 0.51757,-0.2672 0.51758,-0.0723 0.51758,0.12934 0.51758,0.30722 0.51758,0.43775 0.51757,0.50652 2.07032,1.48894 0.51758,0.0292 0.51757,-0.13357 0.51758,-0.2799 0.51758,-0.39722 4.14062,-2.82002 0.51758,0.10028 0.51758,0.2211 0.51758,0.32668 0.51758,0.41188 2.07031,2.0025 2.07031,1.43941 0.51758,0.14592 0.51758,0.0461 0.51758,-0.0537 0.51757,-0.1499 0.51758,-0.23923 0.51758,-0.31902 1.03516,-0.82908 2.07031,-2.02519 2.07031,-1.77133 0.51758,-0.31828 0.51758,-0.2533 0.51758,-0.18376 0.51757,-0.11135 0.51758,-0.0377 0.51758,0.0356 0.51758,0.10708 0.51758,0.17554 1.03515,0.53865 1.03516,0.75029 4.14062,3.96731 4.14063,2.91785 0.51758,0.1701 0.51758,0.11966 1.03515,0.0863 0.51758,-0.033 0.51758,-0.0826 1.03515,-0.30838 1.03516,-0.486 1.03516,-0.64355 2.07031,-1.66236 4.14062,-4.06519 4.14063,-3.69276 2.07031,-1.31669 1.03516,-0.48333 1.03515,-0.35778 1.03516,-0.22879 1.03516,-0.0987 1.03515,0.0304 1.03516,0.15653 2.07031,0.67145 1.03516,0.5015 1.03515,0.60125 4.14063,3.21223 4.14062,4.01149 4.14063,4.17079 4.14062,3.7878 4.14063,3.00584 2.07031,1.12668 2.07031,0.84952 2.07032,0.56261 2.07031,0.27291 2.07031,-0.0136 2.07031,-0.29166 2.07032,-0.55717 2.07031,-0.80666 4.14062,-2.28535 4.14063,-3.038 4.14062,-3.60852 4.14063,-3.99732 4.14062,-4.21438 4.14063,-4.27577 4.14062,-4.20093 4.14063,-4.01073 4.14062,-3.72592 4.14063,-3.36631 4.14062,-2.95011 4.14063,-2.49354 4.14062,-2.01087 4.14063,-1.51425 4.14062,-1.01389 4.14063,-0.51824 4.14062,-0.0341 4.14063,0.43325 4.14062,0.87963 4.14063,1.30203 4.14062,1.69835 4.14063,2.06724 4.14062,2.40797 4.14063,2.72032 4.14062,3.00452 4.14063,3.26106 4.14062,3.49075 4.14063,3.69452 4.14062,3.8735 4.14063,4.02887 4.14062,4.16191 4.14063,4.27388 4.14062,4.36609 4.14063,4.43983 4.14062,4.49635 4.14063,4.53688 4.14062,4.5626 4.14063,4.57467 4.14062,4.57415 4.14063,4.56208 4.14062,4.53942 4.14063,4.5071 4.14062,4.46598 4.14063,4.41686 4.14062,4.3605 4.14063,4.29761 4.14062,4.22883 4.14063,4.15478 4.14062,4.076 4.14063,3.99304 4.14062,3.90637 4.14063,3.81643 4.14062,3.72363 4.14063,3.62834 4.14062,3.53093 4.14063,3.43169 4.14062,3.33091 4.14063,3.22889 4.14062,3.12584 4.14063,3.02198 4.14062,2.91754 4.14063,2.81267 4.14062,2.70756 4.14063,2.60236 4.14062,2.49719 4.14063,2.39219 4.14062,2.28746 4.14063,2.18312 4.14062,2.07922 4.14063,1.97588 4.14062,1.87316 4.14063,1.77111 4.14062,1.6698 4.14063,1.56928 4.14062,1.46957 4.14063,1.37074 4.14062,1.27281 4.14063,1.17579 4.14062,1.07973 4.14063,0.98464 4.14062,0.89052 4.14058,0.7974 4.1407,0.7053 4.1406,0.61419 4.1406,0.5241 4.1406,0.43504 4.1407,0.34699 4.1406,0.25996 4.1406,0.17395 4.1407,0.0889 4.1406,0.005 4.1406,-0.0781 4.1406,-0.1601 4.1407,-0.24115 4.1406,-0.32121 4.1406,-0.40034" />
    <path style="fill:none;stroke:#6699ff;stroke-width:2.5;stroke-linecap:round;stroke-linejoin:round;stroke-miterlimit:10;stroke-opacity:0.8;paint-order:fill stroke markers" inkscape:connector-curvature="0" id="path105" stroke-miterlimit="10" d="m -78,388.7671 4.140625,-3.31864 4.140625,-3.29189 4.140625,-3.26516 4.140625,-3.23841 4.140625,-3.21167 4.140625,-3.18494 4.140625,-3.15819 4.140625,-3.13145 4.140625,-3.10471 4.140625,-3.07797 4.140625,-3.05122 4.140625,-3.02449 4.140625,-2.99775 4.140625,-2.971 4.140625,-2.94427 4.140625,-2.91752 4.140625,-2.89078 4.140625,-2.86405 4.140625,-2.8373 4.140625,-2.81056 4.140625,-2.78382 4.140625,-2.75708 4.140625,-2.73034 4.140625,-2.7036 4.14062,-2.67685 4.14063,-2.65012 4.14063,-2.62338 4.14062,-2.59663 4.14063,-2.56989 4.14062,-2.54316 4.14062,-2.51641 4.14063,-2.48967 4.14062,-2.46293 4.14063,-2.43619 4.14062,-2.40945 4.14063,-2.38271 4.14062,-2.35597 4.14063,-2.32923 4.14062,-2.30248 4.14063,-2.27575 4.14062,-2.249 4.14063,-2.22227 4.14062,-2.19552 4.14063,-2.16878 4.14062,-2.14205 4.14063,-2.1153 4.14062,-2.08856 4.14063,-2.06182 4.14062,-2.03508 4.14063,-2.00833 4.14062,-1.9816 4.14063,-1.95486 4.14062,-1.92811 4.14063,-1.90138 4.14062,-1.87463 4.14063,-1.8479 4.14062,-1.82115 4.14063,-1.79441 4.14062,-1.76767 4.14063,-1.74093 4.14062,-1.71419 4.14063,-1.68745 4.14062,-1.66071 4.14063,-1.63397 4.14062,-1.60722 4.14063,-1.58049 4.14062,-1.55374 4.14063,-1.52701 4.14062,-1.50026 4.14063,-1.47352 4.14062,-1.44679 4.14063,-1.42004 4.14062,-1.3933 4.14063,-1.36656 4.14062,-1.33982 4.14063,-1.31307 4.14062,-1.28634 4.14063,-1.2596 4.14062,-1.23285 4.14063,-1.20612 4.14062,-1.17937 4.14063,-1.15264 4.14062,-1.12589 4.14063,-1.09915 4.14062,-1.07241 4.14063,-1.04567 4.14062,-1.01893 4.14063,-0.99219 4.14062,-0.96545 4.14063,-0.93871 4.14062,-0.91196 4.14063,-0.88523 4.14062,-0.85848 4.14063,-0.83175 4.14062,-0.805 4.14063,-0.77826 4.14062,-0.75153 4.14063,-0.72478 4.14062,-0.69804 4.14063,-0.6713 4.14062,-0.64456 4.14063,-0.61781 4.14062,-0.59108 4.14063,-0.56434 4.14062,-0.53759 4.14063,-0.51086 4.14062,-0.48411 4.14063,-0.45738 4.14062,-0.43063 4.14063,-0.40389 4.14062,-0.37715 4.14063,-0.35041 4.14062,-0.32367 4.14063,-0.29693 4.14062,-0.27019 4.14063,-0.24345 4.14062,-0.2167 4.14063,-0.18997 4.14062,-0.16323 4.14063,-0.13648 4.14062,-0.10974 4.14063,-0.083 4.14062,-0.0563 4.14063,-0.0295 4.14062,-0.003 4.14063,0.024 4.14062,0.0507 4.14063,0.0774 4.14062,0.10419 4.14063,0.13092 4.14062,0.15766 4.14063,0.18441 4.14062,0.21114 4.14063,0.23789 4.14062,0.26463 4.14063,0.29137 4.14062,0.3181 4.14063,0.34485 4.14062,0.37159 4.14063,0.39834 4.14062,0.42507 4.14063,0.45181 4.14062,0.47855 4.14063,0.5053 4.14062,0.53203 4.14063,0.55878 4.14062,0.58551 4.14063,0.61226 4.14062,0.639 4.14063,0.66574 4.14062,0.69248 4.14063,0.71922 4.14062,0.74596 4.14063,0.7727 4.14062,0.79944 4.14063,0.82619 4.14062,0.85292 4.14063,0.87966 4.14062,0.90641 4.14063,0.93315 4.14062,0.95988 4.14063,0.98663 4.14062,1.01337 4.14063,1.04011 4.14062,1.06685 4.14063,1.09359 4.14062,1.12033 4.14063,1.14708 4.14062,1.17381 4.14063,1.20055 4.14062,1.2273 4.14063,1.25403 4.14062,1.28078 4.14063,1.30752 4.14062,1.33425 4.14063,1.361 4.14062,1.38774 4.14063,1.41448 4.14062,1.44122 4.14063,1.46797 4.14062,1.4947 4.14063,1.52144 4.14062,1.54819 4.14063,1.57492 4.14062,1.60167 4.14063,1.6284 4.14062,1.65515 4.14063,1.68189 4.14062,1.70863 4.14063,1.73537 4.14062,1.76211 4.14063,1.78885 4.14062,1.81559 4.14063,1.84233 4.14062,1.86907 4.14063,1.89582 4.14062,1.92255 4.14063,1.9493 4.14062,1.97603 4.14063,2.00278 4.14062,2.02952 4.14063,2.05626 4.14062,2.083 4.14063,2.10974 4.14062,2.13648 4.14063,2.16322 4.14062,2.18996 4.14063,2.21671 4.14062,2.24344 4.14063,2.27018 4.14062,2.29693 4.14063,2.32367 4.14062,2.3504 4.14063,2.37715 4.14062,2.40389 4.14063,2.43063 4.14062,2.45737 4.14063,2.48411 4.14062,2.51085 4.14063,2.53759 4.14062,2.56434 4.14063,2.59107 4.14062,2.61782 4.14063,2.64455 4.14062,2.6713 4.14063,2.69803 4.14062,2.72478 4.14063,2.75152 4.14062,2.77826 4.14063,2.805 4.14062,2.83174 4.14063,2.85848 4.14062,2.88523 4.14063,2.91196 4.14062,2.9387 4.14063,2.96545 4.14062,2.99218 4.14063,3.01893 4.14062,3.04567 4.14063,3.0724 4.14062,3.09915 4.14058,3.12589 4.1407,3.15263 4.1406,3.17937 4.1406,3.20611 4.1406,3.23286 4.1407,3.25959 4.1406,3.28633 4.1406,3.31308 4.1407,3.33981 4.1406,3.36656 4.1406,3.3933 4.1406,3.42003 4.1407,3.44678 4.1406,3.47352 4.1406,3.50026" />
    <g id="g115" transform="matrix(25,0,0,25,-78,-151)">
      <g id="g109" transform="translate(7.4,9.3917812)">
        <path style="fill:#6699ff;stroke:none;paint-order:stroke fill markers" inkscape:connector-curvature="0" id="path107" d="M 0.26,-0.229 0.46,0 H 0.377 L 0.227,-0.188 0.082,0 H 0 L 0.194,-0.229 0.006,-0.444 h 0.083 l 0.138,0.165 0.134,-0.165 h 0.082 z" />
      </g>
      <g id="g113" transform="matrix(0.7,0,0,0.7,7.861113,8.9788892)">
        <path style="fill:#6699ff;stroke:none;paint-order:stroke fill markers" inkscape:connector-curvature="0" id="path111" d="M 0.174,-0.188 0.251,-0.259 Q 0.281,-0.29 0.2955,-0.3055 0.31,-0.321 0.33,-0.349 0.35,-0.377 0.3585,-0.404 0.367,-0.431 0.367,-0.461 0.367,-0.523 0.328,-0.5685 0.289,-0.614 0.222,-0.614 0.161,-0.614 0.1315,-0.573 0.102,-0.532 0.083,-0.459 0.066,-0.484 0.061,-0.488 0.06,-0.489 0.0545,-0.4965 0.049,-0.504 0.042,-0.514 q 0.046,-0.164 0.194,-0.164 0.096,0 0.1545,0.0625 0.0585,0.0625 0.0585,0.1525 0,0.039 -0.0175,0.0765 Q 0.414,-0.349 0.398,-0.3305 0.382,-0.312 0.35,-0.28 0.34,-0.271 0.3055,-0.241 0.271,-0.211 0.261,-0.202 0.254,-0.196 0.1975,-0.141 0.141,-0.086 0.122,-0.07 h 0.109 q 0.006,0 0.018,-5e-4 0.012,-5e-4 0.018,-5e-4 H 0.449 V 0 H 0.05 v -0.064 z" />
      </g>
    </g>
    <g id="g155" transform="matrix(25,0,0,25,-79.3,-147.10018)">
      <g id="g119" transform="translate(4.24,11.970012)">
        <path style="fill:#000000;stroke:none;paint-order:stroke fill markers" inkscape:connector-curvature="0" id="path117" d="M 0.26,-0.229 0.46,0 H 0.377 L 0.227,-0.188 0.082,0 H 0 L 0.194,-0.229 0.006,-0.444 h 0.083 l 0.138,0.165 0.134,-0.165 h 0.082 z" />
      </g>
      <g id="g123" transform="matrix(0.7,0,0,0.7,4.701113,11.55712)">
        <path style="fill:#000000;stroke:none;paint-order:stroke fill markers" inkscape:connector-curvature="0" id="path121" d="M 0.174,-0.188 0.251,-0.259 Q 0.281,-0.29 0.2955,-0.3055 0.31,-0.321 0.33,-0.349 0.35,-0.377 0.3585,-0.404 0.367,-0.431 0.367,-0.461 0.367,-0.523 0.328,-0.5685 0.289,-0.614 0.222,-0.614 0.161,-0.614 0.1315,-0.573 0.102,-0.532 0.083,-0.459 0.066,-0.484 0.061,-0.488 0.06,-0.489 0.0545,-0.4965 0.049,-0.504 0.042,-0.514 q 0.046,-0.164 0.194,-0.164 0.096,0 0.1545,0.0625 0.0585,0.0625 0.0585,0.1525 0,0.039 -0.0175,0.0765 Q 0.414,-0.349 0.398,-0.3305 0.382,-0.312 0.35,-0.28 0.34,-0.271 0.3055,-0.241 0.271,-0.211 0.261,-0.202 0.254,-0.196 0.1975,-0.141 0.141,-0.086 0.122,-0.07 h 0.109 q 0.006,0 0.018,-5e-4 0.012,-5e-4 0.018,-5e-4 H 0.449 V 0 H 0.05 v -0.064 z" />
      </g>
      <g id="g127" transform="translate(5.0711144,11.970012)">
        <path style="fill:#000000;stroke:none;paint-order:stroke fill markers" inkscape:connector-curvature="0" id="path125" d="m 0.41,-0.418 -0.012,0.065 q -0.04,-0.026 -0.07,-0.035 -0.03,-0.009 -0.071,-0.009 -0.05,0 -0.0835,0.028 Q 0.14,-0.341 0.127,-0.3035 0.114,-0.266 0.114,-0.223 q 0,0.074 0.0385,0.122 0.0385,0.048 0.1005,0.048 0.087,0 0.156,-0.054 L 0.415,-0.04 Q 0.341,0.011 0.252,0.011 0.16,0.011 0.098,-0.058 0.036,-0.127 0.036,-0.222 q 0,-0.095 0.0605,-0.167 0.0605,-0.072 0.1595,-0.072 0.046,0 0.078,0.009 0.032,0.009 0.076,0.034 z" />
      </g>
      <g id="g131" transform="translate(5.5155604,11.970012)">
        <path style="fill:#000000;stroke:none;paint-order:stroke fill markers" inkscape:connector-curvature="0" id="path129" d="m 0.469,-0.22 q 0,0.097 -0.0645,0.164 Q 0.34,0.011 0.249,0.011 0.16,0.011 0.095,-0.0555 0.03,-0.122 0.03,-0.22 q 0,-0.099 0.064,-0.17 0.064,-0.071 0.156,-0.071 0.09,0 0.1545,0.0705 Q 0.469,-0.32 0.469,-0.22 m -0.22,0.167 q 0.059,0 0.1005,-0.0465 Q 0.391,-0.146 0.391,-0.23 0.391,-0.313 0.349,-0.3565 0.307,-0.4 0.249,-0.4 0.193,-0.4 0.1505,-0.357 0.108,-0.314 0.108,-0.23 q 0,0.085 0.042,0.131 0.042,0.046 0.099,0.046 z" />
      </g>
      <g id="g135" transform="translate(6.0155624,11.970012)">
        <path style="fill:#000000;stroke:none;paint-order:stroke fill markers" inkscape:connector-curvature="0" id="path133" d="m 0.343,-0.429 -0.012,0.065 q -0.064,-0.038 -0.142,-0.038 -0.085,0 -0.085,0.062 0,0.014 0.006,0.025 0.006,0.011 0.0135,0.0175 0.0075,0.0065 0.023,0.012 0.0155,0.0055 0.0265,0.0085 0.011,0.003 0.032,0.007 0.043,0.008 0.066,0.017 0.023,0.009 0.05,0.033 l 0.005,0.006 q 0.005,0.005 0.01,0.0125 0.005,0.0075 0.011,0.018 0.006,0.0105 0.0095,0.0255 0.0035,0.015 0.0035,0.03 0,0.07 -0.048,0.107 -0.043,0.032 -0.116,0.032 -0.08,0 -0.168,-0.044 L 0.04,-0.101 q 0.074,0.049 0.155,0.049 0.094,0 0.094,-0.069 0,-0.015 -0.007,-0.027 Q 0.275,-0.16 0.2665,-0.167 0.258,-0.174 0.243,-0.18 0.228,-0.186 0.219,-0.188 0.21,-0.19 0.195,-0.193 0.161,-0.2 0.148,-0.203 0.135,-0.206 0.1185,-0.2125 0.102,-0.219 0.087,-0.23 0.033,-0.271 0.033,-0.33 0.033,-0.367 0.0485,-0.3935 0.064,-0.42 0.0835,-0.4325 0.103,-0.445 0.1305,-0.452 0.158,-0.459 0.171,-0.46 q 0.013,-0.001 0.028,-0.001 0.075,0 0.144,0.032 z" />
      </g>
      <g id="g139" transform="translate(6.5655636,10.559999)">
        <path style="fill:#000000;stroke:none;paint-order:stroke fill markers" inkscape:connector-curvature="0" id="path137" d="M 0.66210937,2.3569336 Q 0.5390625,2.2480469 0.45117188,2.1088867 0.36328125,1.9697266 0.31005859,1.8149414 0.25683594,1.6601562 0.23242188,1.494873 0.20800781,1.3295898 0.20800781,1.1601562 q 0,-0.17041011 0.0244141,-0.33618159 0.0244141,-0.16577149 0.0773926,-0.32006836 0.0529785,-0.15429687 0.14111328,-0.29370117 0.0881348,-0.1394043 0.21118164,-0.24829102 0,-0.0019531 0.004883,-0.0019531 h 0.0258789 q 0.00293,0 0.005615,0.0029297 0.002686,0.0029297 0.002686,0.0063477 0,0.0039063 -0.001953,0.0058594 Q 0.58496094,0.08789062 0.50610352,0.22607422 0.42724609,0.36425781 0.38085938,0.51708984 0.33447266,0.66992187 0.31469727,0.83105469 0.29492188,0.9921875 0.29492188,1.1601562 q 0,0.1674805 0.0195313,0.3264161 0.0195313,0.1589355 0.0664063,0.3137207 0.046875,0.1547851 0.12597656,0.2929687 0.0791016,0.1381836 0.19238281,0.2509766 0.001953,0.00195 0.001953,0.00586 0,0.00293 -0.00293,0.00586 -0.00293,0.00293 -0.005371,0.00293 h -0.0258789 q -0.004883,0 -0.004883,-0.00195 z" />
      </g>
      <g id="g143" transform="translate(7.4216781,11.293504)">
        <path style="fill:#000000;stroke:none;paint-order:stroke fill markers" inkscape:connector-curvature="0" id="path141" d="m 0.299,-0.678 v 0.62 H 0.424 V 0 H 0.095 V -0.058 H 0.22 v -0.52 q -0.051,0.022 -0.131,0.024 v -0.058 q 0.131,-0.005 0.19,-0.066 z" />
      </g>
      <rect id="rect145" height="0.039999001" width="0.50000203" y="11.700012" x="7.4216781" fill="rgba(0,0,0,0)" />
      <g id="g149" transform="translate(7.4411226,12.655963)">
        <path style="fill:#000000;stroke:none;paint-order:stroke fill markers" inkscape:connector-curvature="0" id="path147" d="M 0.26,-0.229 0.46,0 H 0.377 L 0.227,-0.188 0.082,0 H 0 L 0.194,-0.229 0.006,-0.444 h 0.083 l 0.138,0.165 0.134,-0.165 h 0.082 z" />
      </g>
      <g id="g153" transform="translate(8.0416801,10.559999)">
        <path style="fill:#000000;stroke:none;paint-order:stroke fill markers" inkscape:connector-curvature="0" id="path151" d="m 0.04296875,2.3588867 q -0.0087891,0 -0.0087891,-0.00879 0,-0.00391 0.0019531,-0.00586 0.11425781,-0.112793 0.1928711,-0.2512207 0.0786133,-0.1384278 0.125,-0.2910156 0.0463867,-0.1525879 0.0661621,-0.3120118 0.0197754,-0.1594238 0.0197754,-0.3308105 0,-0.17333986 -0.0197754,-0.33154298 -0.0197754,-0.15820313 -0.0656738,-0.3100586 -0.0458984,-0.15185546 -0.12548828,-0.29125976 -0.0795899,-0.1394043 -0.1928711,-0.2512207 -0.0019531,-0.0019531 -0.0019531,-0.0058594 0,-0.0092773 0.0087891,-0.0092773 h 0.02587891 q 0.003418,0 0.0053711,0.0019531 0.12353516,0.109375 0.21142578,0.2487793 0.0878906,0.1394043 0.140625,0.29418945 0.0527344,0.15478516 0.0766602,0.31982422 0.0239258,0.16503906 0.0239258,0.33544917 0,0.1694336 -0.0239258,0.3339844 -0.0239258,0.1645508 -0.0766602,0.3195801 -0.0527344,0.1550293 -0.140625,0.2944336 -0.0878906,0.1394043 -0.21142578,0.2487793 -0.0019531,0.00195 -0.0053711,0.00195 z" />
      </g>
    </g>
    <g id="g169" transform="matrix(25,0,0,25,-78,-151)">
      <g id="g159" transform="translate(6.6,18.071781)">
        <path style="fill:#6699ff;stroke:none;paint-order:stroke fill markers" inkscape:connector-curvature="0" id="path157" d="M 0.661,-0.23 H 0.116 q -0.032,0 -0.033,-0.02 0,-0.02 0.033,-0.02 h 0.545 q 0.032,0 0.033,0.02 0,0.02 -0.033,0.02 z" />
      </g>
      <g id="g163" transform="translate(7.377781,18.071781)">
        <path style="fill:#6699ff;stroke:none;paint-order:stroke fill markers" inkscape:connector-curvature="0" id="path161" d="M 0.26,-0.229 0.46,0 H 0.377 L 0.227,-0.188 0.082,0 H 0 L 0.194,-0.229 0.006,-0.444 h 0.083 l 0.138,0.165 0.134,-0.165 h 0.082 z" />
      </g>
      <g id="g167" transform="matrix(0.7,0,0,0.7,7.838894,17.658889)">
        <path style="fill:#6699ff;stroke:none;paint-order:stroke fill markers" inkscape:connector-curvature="0" id="path165" d="M 0.174,-0.188 0.251,-0.259 Q 0.281,-0.29 0.2955,-0.3055 0.31,-0.321 0.33,-0.349 0.35,-0.377 0.3585,-0.404 0.367,-0.431 0.367,-0.461 0.367,-0.523 0.328,-0.5685 0.289,-0.614 0.222,-0.614 0.161,-0.614 0.1315,-0.573 0.102,-0.532 0.083,-0.459 0.066,-0.484 0.061,-0.488 0.06,-0.489 0.0545,-0.4965 0.049,-0.504 0.042,-0.514 q 0.046,-0.164 0.194,-0.164 0.096,0 0.1545,0.0625 0.0585,0.0625 0.0585,0.1525 0,0.039 -0.0175,0.0765 Q 0.414,-0.349 0.398,-0.3305 0.382,-0.312 0.35,-0.28 0.34,-0.271 0.3055,-0.241 0.271,-0.211 0.261,-0.202 0.254,-0.196 0.1975,-0.141 0.141,-0.086 0.122,-0.07 h 0.109 q 0.006,0 0.018,-5e-4 0.012,-5e-4 0.018,-5e-4 H 0.449 V 0 H 0.05 v -0.064 z" />
      </g>
    </g>
  </g>
</svg>