<?xml version="1.0" encoding="UTF-8" standalone="no"?>
<svg xmlns:dc="http://purl.org/dc/elements/1.1/" xmlns:cc="http://creativecommons.org/ns#" xmlns:rdf="http://www.w3.org/1999/02/22-rdf-syntax-ns#" xmlns:svg="http://www.w3.org/2000/svg" xmlns="http://www.w3.org/2000/svg" xmlns:sodipodi="http://sodipodi.sourceforge.net/DTD/sodipodi-0.dtd" xmlns:inkscape="http://www.inkscape.org/namespaces/inkscape" version="1.1" width="518" height="518" id="svg241" sodipodi:docname="discontinuity-example-3.svg" inkscape:version="0.92.3 (2405546, 2018-03-11)" viewBox="0 0 518 518">
  <metadata id="metadata245">
    <rdf:RDF>
      <cc:Work rdf:about="">
        <dc:format>image/svg+xml</dc:format>
        <dc:type rdf:resource="http://purl.org/dc/dcmitype/StillImage" />
        <dc:title />
      </cc:Work>
    </rdf:RDF>
  </metadata>
  <sodipodi:namedview pagecolor="#ffffff" bordercolor="#666666" borderopacity="1" objecttolerance="10" gridtolerance="10" guidetolerance="10" inkscape:pageopacity="0" inkscape:pageshadow="2" inkscape:window-width="2160" inkscape:window-height="1360" id="namedview243" showgrid="false" inkscape:zoom="0.70140431" inkscape:cx="549.47557" inkscape:cy="7.8368323" inkscape:window-x="-11" inkscape:window-y="-11" inkscape:window-maximized="1" inkscape:current-layer="svg241" />
  <defs id="defs5">
    <clipPath clipPathUnits="userSpaceOnUse" id="clipPath1054">
      <rect style="fill:#000000;fill-opacity:0.54187191;stroke-width:1" id="rect1056" width="350" height="350" x="196.543" y="115.388" />
    </clipPath>
  </defs>
  <g transform="matrix(1.48,0,0,1.48,-290.88364,-170.77424)" clip-path="url(#clipPath1054)" id="g239" style="stroke-width:0.67567569">
    <g transform="translate(-123,-31)" id="g237" style="stroke-width:0.67567569">
      <rect x="0" y="0" width="1060" height="806" id="rect7" fill="rgba(0,0,0,0)" />
      <path d="m 494.5,2.5 v 804" stroke-miterlimit="10" id="path9" inkscape:connector-curvature="0" style="fill:none;stroke:#000000;stroke-width:0.67567569;stroke-miterlimit:10;stroke-opacity:1;paint-order:fill stroke markers" />
      <path d="m 494.5,1.5 -4,4" stroke-miterlimit="10" id="path11" inkscape:connector-curvature="0" style="fill:none;stroke:#000000;stroke-width:0.67567569;stroke-miterlimit:10;stroke-opacity:1;paint-order:fill stroke markers" />
      <path d="m 494.5,1.5 4,4" stroke-miterlimit="10" id="path13" inkscape:connector-curvature="0" style="fill:none;stroke:#000000;stroke-width:0.67567569;stroke-miterlimit:10;stroke-opacity:1;paint-order:fill stroke markers" />
      <path d="m 0.5,321.5 h 1058" stroke-miterlimit="10" id="path15" inkscape:connector-curvature="0" style="fill:none;stroke:#000000;stroke-width:0.67567569;stroke-miterlimit:10;stroke-opacity:1;paint-order:fill stroke markers" />
      <path d="m 1059.5,321.5 -4,-4" stroke-miterlimit="10" id="path17" inkscape:connector-curvature="0" style="fill:none;stroke:#000000;stroke-width:0.67567569;stroke-miterlimit:10;stroke-opacity:1;paint-order:fill stroke markers" />
      <path d="m 1059.5,321.5 -4,4" stroke-miterlimit="10" id="path19" inkscape:connector-curvature="0" style="fill:none;stroke:#000000;stroke-width:0.67567569;stroke-miterlimit:10;stroke-opacity:1;paint-order:fill stroke markers" />
      <text font-size="12px" font-style="normal" font-weight="normal" text-decoration="normal" x="39" y="337" dominant-baseline="alphabetic" id="text23" style="font-style:normal;font-weight:normal;font-size:12px;font-family:geogebra-sans-serif, sans-serif;dominant-baseline:alphabetic;text-anchor:start;fill:#000000;fill-opacity:1;stroke:none;stroke-width:0.67567569">–9</text>
      <path d="m 44.5,321.5 v 3" stroke-miterlimit="10" id="path25" inkscape:connector-curvature="0" style="fill:none;stroke:#000000;stroke-width:0.67567569;stroke-miterlimit:10;stroke-opacity:1;paint-order:fill stroke markers" />
      <text font-size="12px" font-style="normal" font-weight="normal" text-decoration="normal" x="89" y="337" dominant-baseline="alphabetic" id="text29" style="font-style:normal;font-weight:normal;font-size:12px;font-family:geogebra-sans-serif, sans-serif;dominant-baseline:alphabetic;text-anchor:start;fill:#000000;fill-opacity:1;stroke:none;stroke-width:0.67567569">–8</text>
      <path d="m 94.5,321.5 v 3" stroke-miterlimit="10" id="path31" inkscape:connector-curvature="0" style="fill:none;stroke:#000000;stroke-width:0.67567569;stroke-miterlimit:10;stroke-opacity:1;paint-order:fill stroke markers" />
      <text font-size="12px" font-style="normal" font-weight="normal" text-decoration="normal" x="139" y="337" dominant-baseline="alphabetic" id="text35" style="font-style:normal;font-weight:normal;font-size:12px;font-family:geogebra-sans-serif, sans-serif;dominant-baseline:alphabetic;text-anchor:start;fill:#000000;fill-opacity:1;stroke:none;stroke-width:0.67567569">–7</text>
      <path d="m 144.5,321.5 v 3" stroke-miterlimit="10" id="path37" inkscape:connector-curvature="0" style="fill:none;stroke:#000000;stroke-width:0.67567569;stroke-miterlimit:10;stroke-opacity:1;paint-order:fill stroke markers" />
      <text font-size="12px" font-style="normal" font-weight="normal" text-decoration="normal" x="189" y="337" dominant-baseline="alphabetic" id="text41" style="font-style:normal;font-weight:normal;font-size:12px;font-family:geogebra-sans-serif, sans-serif;dominant-baseline:alphabetic;text-anchor:start;fill:#000000;fill-opacity:1;stroke:none;stroke-width:0.67567569">–6</text>
      <path d="m 194.5,321.5 v 3" stroke-miterlimit="10" id="path43" inkscape:connector-curvature="0" style="fill:none;stroke:#000000;stroke-width:0.67567569;stroke-miterlimit:10;stroke-opacity:1;paint-order:fill stroke markers" />
      <text font-size="12px" font-style="normal" font-weight="normal" text-decoration="normal" x="239" y="337" dominant-baseline="alphabetic" id="text47" style="font-style:normal;font-weight:normal;font-size:12px;font-family:geogebra-sans-serif, sans-serif;dominant-baseline:alphabetic;text-anchor:start;fill:#000000;fill-opacity:1;stroke:none;stroke-width:0.67567569">–5</text>
      <path d="m 244.5,321.5 v 3" stroke-miterlimit="10" id="path49" inkscape:connector-curvature="0" style="fill:none;stroke:#000000;stroke-width:0.67567569;stroke-miterlimit:10;stroke-opacity:1;paint-order:fill stroke markers" />
      <text font-size="12px" font-style="normal" font-weight="normal" text-decoration="normal" x="289" y="337" dominant-baseline="alphabetic" id="text53" style="font-style:normal;font-weight:normal;font-size:12px;font-family:geogebra-sans-serif, sans-serif;dominant-baseline:alphabetic;text-anchor:start;fill:#000000;fill-opacity:1;stroke:none;stroke-width:0.67567569">–4</text>
      <path d="m 294.5,321.5 v 3" stroke-miterlimit="10" id="path55" inkscape:connector-curvature="0" style="fill:none;stroke:#000000;stroke-width:0.67567569;stroke-miterlimit:10;stroke-opacity:1;paint-order:fill stroke markers" />
      <text font-size="12px" font-style="normal" font-weight="normal" text-decoration="normal" x="339" y="337" dominant-baseline="alphabetic" id="text59" style="font-style:normal;font-weight:normal;font-size:12px;font-family:geogebra-sans-serif, sans-serif;dominant-baseline:alphabetic;text-anchor:start;fill:#000000;fill-opacity:1;stroke:none;stroke-width:0.67567569">–3</text>
      <path d="m 344.5,321.5 v 3" stroke-miterlimit="10" id="path61" inkscape:connector-curvature="0" style="fill:none;stroke:#000000;stroke-width:0.67567569;stroke-miterlimit:10;stroke-opacity:1;paint-order:fill stroke markers" />
      <text font-size="12px" font-style="normal" font-weight="normal" text-decoration="normal" x="389" y="337" dominant-baseline="alphabetic" id="text65" style="font-style:normal;font-weight:normal;font-size:12px;font-family:geogebra-sans-serif, sans-serif;dominant-baseline:alphabetic;text-anchor:start;fill:#000000;fill-opacity:1;stroke:none;stroke-width:0.67567569">–2</text>
      <path d="m 394.5,321.5 v 3" stroke-miterlimit="10" id="path67" inkscape:connector-curvature="0" style="fill:none;stroke:#000000;stroke-width:0.67567569;stroke-miterlimit:10;stroke-opacity:1;paint-order:fill stroke markers" />
      <text font-size="12px" font-style="normal" font-weight="normal" text-decoration="normal" x="439" y="337" dominant-baseline="alphabetic" id="text71" style="font-style:normal;font-weight:normal;font-size:12px;font-family:geogebra-sans-serif, sans-serif;dominant-baseline:alphabetic;text-anchor:start;fill:#000000;fill-opacity:1;stroke:none;stroke-width:0.67567569">–1</text>
      <path d="m 444.5,321.5 v 3" stroke-miterlimit="10" id="path73" inkscape:connector-curvature="0" style="fill:none;stroke:#000000;stroke-width:0.67567569;stroke-miterlimit:10;stroke-opacity:1;paint-order:fill stroke markers" />
      <text font-size="12px" font-style="normal" font-weight="normal" text-decoration="normal" x="542" y="337" dominant-baseline="alphabetic" id="text77" style="font-style:normal;font-weight:normal;font-size:12px;font-family:geogebra-sans-serif, sans-serif;dominant-baseline:alphabetic;text-anchor:start;fill:#000000;fill-opacity:1;stroke:none;stroke-width:0.67567569">1</text>
      <path d="m 544.5,321.5 v 3" stroke-miterlimit="10" id="path79" inkscape:connector-curvature="0" style="fill:none;stroke:#000000;stroke-width:0.67567569;stroke-miterlimit:10;stroke-opacity:1;paint-order:fill stroke markers" />
      <text font-size="12px" font-style="normal" font-weight="normal" text-decoration="normal" x="592" y="337" dominant-baseline="alphabetic" id="text83" style="font-style:normal;font-weight:normal;font-size:12px;font-family:geogebra-sans-serif, sans-serif;dominant-baseline:alphabetic;text-anchor:start;fill:#000000;fill-opacity:1;stroke:none;stroke-width:0.67567569">2</text>
      <path d="m 594.5,321.5 v 3" stroke-miterlimit="10" id="path85" inkscape:connector-curvature="0" style="fill:none;stroke:#000000;stroke-width:0.67567569;stroke-miterlimit:10;stroke-opacity:1;paint-order:fill stroke markers" />
      <text font-size="12px" font-style="normal" font-weight="normal" text-decoration="normal" x="642" y="337" dominant-baseline="alphabetic" id="text89" style="font-style:normal;font-weight:normal;font-size:12px;font-family:geogebra-sans-serif, sans-serif;dominant-baseline:alphabetic;text-anchor:start;fill:#000000;fill-opacity:1;stroke:none;stroke-width:0.67567569">3</text>
      <path d="m 644.5,321.5 v 3" stroke-miterlimit="10" id="path91" inkscape:connector-curvature="0" style="fill:none;stroke:#000000;stroke-width:0.67567569;stroke-miterlimit:10;stroke-opacity:1;paint-order:fill stroke markers" />
      <text font-size="12px" font-style="normal" font-weight="normal" text-decoration="normal" x="692" y="337" dominant-baseline="alphabetic" id="text95" style="font-style:normal;font-weight:normal;font-size:12px;font-family:geogebra-sans-serif, sans-serif;dominant-baseline:alphabetic;text-anchor:start;fill:#000000;fill-opacity:1;stroke:none;stroke-width:0.67567569">4</text>
      <path d="m 694.5,321.5 v 3" stroke-miterlimit="10" id="path97" inkscape:connector-curvature="0" style="fill:none;stroke:#000000;stroke-width:0.67567569;stroke-miterlimit:10;stroke-opacity:1;paint-order:fill stroke markers" />
      <text font-size="12px" font-style="normal" font-weight="normal" text-decoration="normal" x="742" y="337" dominant-baseline="alphabetic" id="text101" style="font-style:normal;font-weight:normal;font-size:12px;font-family:geogebra-sans-serif, sans-serif;dominant-baseline:alphabetic;text-anchor:start;fill:#000000;fill-opacity:1;stroke:none;stroke-width:0.67567569">5</text>
      <path d="m 744.5,321.5 v 3" stroke-miterlimit="10" id="path103" inkscape:connector-curvature="0" style="fill:none;stroke:#000000;stroke-width:0.67567569;stroke-miterlimit:10;stroke-opacity:1;paint-order:fill stroke markers" />
      <text font-size="12px" font-style="normal" font-weight="normal" text-decoration="normal" x="792" y="337" dominant-baseline="alphabetic" id="text107" style="font-style:normal;font-weight:normal;font-size:12px;font-family:geogebra-sans-serif, sans-serif;dominant-baseline:alphabetic;text-anchor:start;fill:#000000;fill-opacity:1;stroke:none;stroke-width:0.67567569">6</text>
      <path d="m 794.5,321.5 v 3" stroke-miterlimit="10" id="path109" inkscape:connector-curvature="0" style="fill:none;stroke:#000000;stroke-width:0.67567569;stroke-miterlimit:10;stroke-opacity:1;paint-order:fill stroke markers" />
      <text font-size="12px" font-style="normal" font-weight="normal" text-decoration="normal" x="842" y="337" dominant-baseline="alphabetic" id="text113" style="font-style:normal;font-weight:normal;font-size:12px;font-family:geogebra-sans-serif, sans-serif;dominant-baseline:alphabetic;text-anchor:start;fill:#000000;fill-opacity:1;stroke:none;stroke-width:0.67567569">7</text>
      <path d="m 844.5,321.5 v 3" stroke-miterlimit="10" id="path115" inkscape:connector-curvature="0" style="fill:none;stroke:#000000;stroke-width:0.67567569;stroke-miterlimit:10;stroke-opacity:1;paint-order:fill stroke markers" />
      <text font-size="12px" font-style="normal" font-weight="normal" text-decoration="normal" x="892" y="337" dominant-baseline="alphabetic" id="text119" style="font-style:normal;font-weight:normal;font-size:12px;font-family:geogebra-sans-serif, sans-serif;dominant-baseline:alphabetic;text-anchor:start;fill:#000000;fill-opacity:1;stroke:none;stroke-width:0.67567569">8</text>
      <path d="m 894.5,321.5 v 3" stroke-miterlimit="10" id="path121" inkscape:connector-curvature="0" style="fill:none;stroke:#000000;stroke-width:0.67567569;stroke-miterlimit:10;stroke-opacity:1;paint-order:fill stroke markers" />
      <text font-size="12px" font-style="normal" font-weight="normal" text-decoration="normal" x="942" y="337" dominant-baseline="alphabetic" id="text125" style="font-style:normal;font-weight:normal;font-size:12px;font-family:geogebra-sans-serif, sans-serif;dominant-baseline:alphabetic;text-anchor:start;fill:#000000;fill-opacity:1;stroke:none;stroke-width:0.67567569">9</text>
      <path d="m 944.5,321.5 v 3" stroke-miterlimit="10" id="path127" inkscape:connector-curvature="0" style="fill:none;stroke:#000000;stroke-width:0.67567569;stroke-miterlimit:10;stroke-opacity:1;paint-order:fill stroke markers" />
      <text font-size="12px" font-style="normal" font-weight="normal" text-decoration="normal" x="989" y="337" dominant-baseline="alphabetic" id="text131" style="font-style:normal;font-weight:normal;font-size:12px;font-family:geogebra-sans-serif, sans-serif;dominant-baseline:alphabetic;text-anchor:start;fill:#000000;fill-opacity:1;stroke:none;stroke-width:0.67567569">10</text>
      <path d="m 994.5,321.5 v 3" stroke-miterlimit="10" id="path133" inkscape:connector-curvature="0" style="fill:none;stroke:#000000;stroke-width:0.67567569;stroke-miterlimit:10;stroke-opacity:1;paint-order:fill stroke markers" />
      <text font-size="12px" font-style="normal" font-weight="normal" text-decoration="normal" x="1039" y="337" dominant-baseline="alphabetic" id="text137" style="font-style:normal;font-weight:normal;font-size:12px;font-family:geogebra-sans-serif, sans-serif;dominant-baseline:alphabetic;text-anchor:start;fill:#000000;fill-opacity:1;stroke:none;stroke-width:0.67567569">11</text>
      <path d="m 1044.5,321.5 v 3" stroke-miterlimit="10" id="path139" inkscape:connector-curvature="0" style="fill:none;stroke:#000000;stroke-width:0.67567569;stroke-miterlimit:10;stroke-opacity:1;paint-order:fill stroke markers" />
      <path d="m 491.5,771.5 h 3" stroke-miterlimit="10" id="path141" inkscape:connector-curvature="0" style="fill:none;stroke:#000000;stroke-width:0.67567569;stroke-miterlimit:10;stroke-opacity:1;paint-order:fill stroke markers" />
      <path d="m 491.5,721.5 h 3" stroke-miterlimit="10" id="path143" inkscape:connector-curvature="0" style="fill:none;stroke:#000000;stroke-width:0.67567569;stroke-miterlimit:10;stroke-opacity:1;paint-order:fill stroke markers" />
      <path d="m 491.5,671.5 h 3" stroke-miterlimit="10" id="path145" inkscape:connector-curvature="0" style="fill:none;stroke:#000000;stroke-width:0.67567569;stroke-miterlimit:10;stroke-opacity:1;paint-order:fill stroke markers" />
      <path d="m 491.5,621.5 h 3" stroke-miterlimit="10" id="path147" inkscape:connector-curvature="0" style="fill:none;stroke:#000000;stroke-width:0.67567569;stroke-miterlimit:10;stroke-opacity:1;paint-order:fill stroke markers" />
      <path d="m 491.5,571.5 h 3" stroke-miterlimit="10" id="path149" inkscape:connector-curvature="0" style="fill:none;stroke:#000000;stroke-width:0.67567569;stroke-miterlimit:10;stroke-opacity:1;paint-order:fill stroke markers" />
      <path d="m 491.5,521.5 h 3" stroke-miterlimit="10" id="path151" inkscape:connector-curvature="0" style="fill:none;stroke:#000000;stroke-width:0.67567569;stroke-miterlimit:10;stroke-opacity:1;paint-order:fill stroke markers" />
      <path d="m 491.5,471.5 h 3" stroke-miterlimit="10" id="path153" inkscape:connector-curvature="0" style="fill:none;stroke:#000000;stroke-width:0.67567569;stroke-miterlimit:10;stroke-opacity:1;paint-order:fill stroke markers" />
      <path d="m 491.5,421.5 h 3" stroke-miterlimit="10" id="path155" inkscape:connector-curvature="0" style="fill:none;stroke:#000000;stroke-width:0.67567569;stroke-miterlimit:10;stroke-opacity:1;paint-order:fill stroke markers" />
      <path d="m 491.5,371.5 h 3" stroke-miterlimit="10" id="path157" inkscape:connector-curvature="0" style="fill:none;stroke:#000000;stroke-width:0.67567569;stroke-miterlimit:10;stroke-opacity:1;paint-order:fill stroke markers" />
      <path d="m 491.5,271.5 h 3" stroke-miterlimit="10" id="path159" inkscape:connector-curvature="0" style="fill:none;stroke:#000000;stroke-width:0.67567569;stroke-miterlimit:10;stroke-opacity:1;paint-order:fill stroke markers" />
      <path d="m 491.5,221.5 h 3" stroke-miterlimit="10" id="path161" inkscape:connector-curvature="0" style="fill:none;stroke:#000000;stroke-width:0.67567569;stroke-miterlimit:10;stroke-opacity:1;paint-order:fill stroke markers" />
      <path d="m 491.5,171.5 h 3" stroke-miterlimit="10" id="path163" inkscape:connector-curvature="0" style="fill:none;stroke:#000000;stroke-width:0.67567569;stroke-miterlimit:10;stroke-opacity:1;paint-order:fill stroke markers" />
      <path d="m 491.5,121.5 h 3" stroke-miterlimit="10" id="path165" inkscape:connector-curvature="0" style="fill:none;stroke:#000000;stroke-width:0.67567569;stroke-miterlimit:10;stroke-opacity:1;paint-order:fill stroke markers" />
      <path d="m 491.5,71.5 h 3" stroke-miterlimit="10" id="path167" inkscape:connector-curvature="0" style="fill:none;stroke:#000000;stroke-width:0.67567569;stroke-miterlimit:10;stroke-opacity:1;paint-order:fill stroke markers" />
      <path d="m 491.5,21.5 h 3" stroke-miterlimit="10" id="path169" inkscape:connector-curvature="0" style="fill:none;stroke:#000000;stroke-width:0.67567569;stroke-miterlimit:10;stroke-opacity:1;paint-order:fill stroke markers" />
      <text font-size="12px" font-style="normal" font-weight="normal" text-decoration="normal" x="474" y="776" dominant-baseline="alphabetic" id="text173" style="font-style:normal;font-weight:normal;font-size:12px;font-family:geogebra-sans-serif, sans-serif;dominant-baseline:alphabetic;text-anchor:start;fill:#000000;fill-opacity:1;stroke:none;stroke-width:0.67567569">–9</text>
      <text font-size="12px" font-style="normal" font-weight="normal" text-decoration="normal" x="474" y="726" dominant-baseline="alphabetic" id="text177" style="font-style:normal;font-weight:normal;font-size:12px;font-family:geogebra-sans-serif, sans-serif;dominant-baseline:alphabetic;text-anchor:start;fill:#000000;fill-opacity:1;stroke:none;stroke-width:0.67567569">–8</text>
      <text font-size="12px" font-style="normal" font-weight="normal" text-decoration="normal" x="474" y="676" dominant-baseline="alphabetic" id="text181" style="font-style:normal;font-weight:normal;font-size:12px;font-family:geogebra-sans-serif, sans-serif;dominant-baseline:alphabetic;text-anchor:start;fill:#000000;fill-opacity:1;stroke:none;stroke-width:0.67567569">–7</text>
      <text font-size="12px" font-style="normal" font-weight="normal" text-decoration="normal" x="474" y="626" dominant-baseline="alphabetic" id="text185" style="font-style:normal;font-weight:normal;font-size:12px;font-family:geogebra-sans-serif, sans-serif;dominant-baseline:alphabetic;text-anchor:start;fill:#000000;fill-opacity:1;stroke:none;stroke-width:0.67567569">–6</text>
      <text font-size="12px" font-style="normal" font-weight="normal" text-decoration="normal" x="474" y="576" dominant-baseline="alphabetic" id="text189" style="font-style:normal;font-weight:normal;font-size:12px;font-family:geogebra-sans-serif, sans-serif;dominant-baseline:alphabetic;text-anchor:start;fill:#000000;fill-opacity:1;stroke:none;stroke-width:0.67567569">–5</text>
      <text font-size="12px" font-style="normal" font-weight="normal" text-decoration="normal" x="474" y="526" dominant-baseline="alphabetic" id="text193" style="font-style:normal;font-weight:normal;font-size:12px;font-family:geogebra-sans-serif, sans-serif;dominant-baseline:alphabetic;text-anchor:start;fill:#000000;fill-opacity:1;stroke:none;stroke-width:0.67567569">–4</text>
      <text font-size="12px" font-style="normal" font-weight="normal" text-decoration="normal" x="474" y="476" dominant-baseline="alphabetic" id="text197" style="font-style:normal;font-weight:normal;font-size:12px;font-family:geogebra-sans-serif, sans-serif;dominant-baseline:alphabetic;text-anchor:start;fill:#000000;fill-opacity:1;stroke:none;stroke-width:0.67567569">–3</text>
      <text font-size="12px" font-style="normal" font-weight="normal" text-decoration="normal" x="474" y="426" dominant-baseline="alphabetic" id="text201" style="font-style:normal;font-weight:normal;font-size:12px;font-family:geogebra-sans-serif, sans-serif;dominant-baseline:alphabetic;text-anchor:start;fill:#000000;fill-opacity:1;stroke:none;stroke-width:0.67567569">–2</text>
      <text font-size="12px" font-style="normal" font-weight="normal" text-decoration="normal" x="474" y="376" dominant-baseline="alphabetic" id="text205" style="font-style:normal;font-weight:normal;font-size:12px;font-family:geogebra-sans-serif, sans-serif;dominant-baseline:alphabetic;text-anchor:start;fill:#000000;fill-opacity:1;stroke:none;stroke-width:0.67567569">–1</text>
      <text font-size="12px" font-style="normal" font-weight="normal" text-decoration="normal" x="481" y="276" dominant-baseline="alphabetic" id="text209" style="font-style:normal;font-weight:normal;font-size:12px;font-family:geogebra-sans-serif, sans-serif;dominant-baseline:alphabetic;text-anchor:start;fill:#000000;fill-opacity:1;stroke:none;stroke-width:0.67567569">1</text>
      <text font-size="12px" font-style="normal" font-weight="normal" text-decoration="normal" x="481" y="226" dominant-baseline="alphabetic" id="text213" style="font-style:normal;font-weight:normal;font-size:12px;font-family:geogebra-sans-serif, sans-serif;dominant-baseline:alphabetic;text-anchor:start;fill:#000000;fill-opacity:1;stroke:none;stroke-width:0.67567569">2</text>
      <text font-size="12px" font-style="normal" font-weight="normal" text-decoration="normal" x="481" y="176" dominant-baseline="alphabetic" id="text217" style="font-style:normal;font-weight:normal;font-size:12px;font-family:geogebra-sans-serif, sans-serif;dominant-baseline:alphabetic;text-anchor:start;fill:#000000;fill-opacity:1;stroke:none;stroke-width:0.67567569">3</text>
      <text font-size="12px" font-style="normal" font-weight="normal" text-decoration="normal" x="481" y="126" dominant-baseline="alphabetic" id="text221" style="font-style:normal;font-weight:normal;font-size:12px;font-family:geogebra-sans-serif, sans-serif;dominant-baseline:alphabetic;text-anchor:start;fill:#000000;fill-opacity:1;stroke:none;stroke-width:0.67567569">4</text>
      <text font-size="12px" font-style="normal" font-weight="normal" text-decoration="normal" x="481" y="76" dominant-baseline="alphabetic" id="text225" style="font-style:normal;font-weight:normal;font-size:12px;font-family:geogebra-sans-serif, sans-serif;dominant-baseline:alphabetic;text-anchor:start;fill:#000000;fill-opacity:1;stroke:none;stroke-width:0.67567569">5</text>
      <text font-size="12px" font-style="normal" font-weight="normal" text-decoration="normal" x="481" y="26" dominant-baseline="alphabetic" id="text229" style="font-style:normal;font-weight:normal;font-size:12px;font-family:geogebra-sans-serif, sans-serif;dominant-baseline:alphabetic;text-anchor:start;fill:#000000;fill-opacity:1;stroke:none;stroke-width:0.67567569">6</text>
      <text font-size="12px" font-style="normal" font-weight="normal" text-decoration="normal" x="481" y="337" dominant-baseline="alphabetic" id="text233" style="font-style:normal;font-weight:normal;font-size:12px;font-family:geogebra-sans-serif, sans-serif;dominant-baseline:alphabetic;text-anchor:start;fill:#000000;fill-opacity:1;stroke:none;stroke-width:0.67567569">0</text>
      <path d="m 0,345.23731 4.140625,0.18685 4.140625,0.18958 4.140625,0.19236 4.140625,0.1952 4.140625,0.19809 4.140625,0.20105 4.140625,0.20406 4.140625,0.20714 4.140625,0.21027 4.140625,0.21348 4.140625,0.21674 4.140625,0.22007 4.140625,0.22347 4.140625,0.22694 4.140625,0.23048 4.140625,0.2341 4.140625,0.23777 4.140625,0.24154 4.140625,0.24537 4.140625,0.24928 4.140625,0.25327 4.140625,0.25735 4.140625,0.26149 4.140625,0.26572 4.14063,0.27003 4.14062,0.27444 4.14063,0.27891 4.14062,0.28348 4.14063,0.28812 4.14062,0.29287 4.14062,0.29768 4.14063,0.30258 4.14062,0.30757 4.14063,0.31264 4.14062,0.3178 4.14063,0.32303 4.14062,0.32833 4.14063,0.33372 4.14062,0.33918 4.14063,0.34469 4.14062,0.35028 4.14063,0.35592 4.14062,0.36161 4.14063,0.36733 4.14062,0.3731 4.14063,0.37887 4.14062,0.38466 4.14063,0.39043 4.14062,0.39617 4.14063,0.40188 4.14062,0.40752 4.14063,0.41305 4.14062,0.41846 4.14063,0.42371 4.14062,0.42876 4.14063,0.43356 4.14062,0.43808 4.14063,0.44223 4.14062,0.44597 4.14063,0.4492 4.14063,0.45184 4.14062,0.45381 4.14062,0.45497 4.14063,0.4552 4.14062,0.45435 4.14063,0.45225 4.14062,0.4487 4.14063,0.44348 4.14062,0.43632 4.14063,0.42694 4.14062,0.41499 4.14063,0.40008 4.14062,0.38177 4.14063,0.35951 4.14062,0.33272 4.14063,0.30072 4.14062,0.26268 4.14063,0.21769 4.14062,0.16467 4.14063,0.10237 4.14062,0.0294 4.14063,-0.056 4.14062,-0.15576 4.14063,-0.27206 4.14062,-0.40754 4.14063,-0.5652 4.14062,-0.74852 4.14063,-0.96145 4.14062,-1.20856 4.14063,-1.49496 4.14062,-1.82637 4.14063,-2.20908 4.14062,-2.64977 4.14063,-3.15516 4.14062,-3.73156 4.14063,-4.38372 4.14062,-5.11322 4.14063,-5.9156 4.14062,-6.7759 4.14063,-7.66137 4.14062,-8.51023 4.14063,-9.21459 4.14062,-9.59503 4.14063,-9.36601 4.14062,-8.09422 2.07032,-3.08155 1.03515,-1.18638 1.03516,-0.89863 0.51758,-0.32823 0.51758,-0.24007 0.51757,-0.14613 0.51758,-0.0462 0.51758,0.0598 0.51758,0.17211 0.51758,0.29077 0.51757,0.41589 0.51758,0.54752 0.51758,0.68568 1.03516,1.81176 2.07031,5.558 2.07031,8.41531 1.03516,5.3448 1.03515,6.10377 1.03516,6.83096 1.03516,7.49069 1.03515,8.03771 1.03516,8.4161 1.03516,8.55872 1.03515,8.38766 1.03516,7.81628 1.03515,6.75409 2.07032,7.94915 0.51758,0.35184 0.51757,-0.46747 0.25879,-0.56488 0.25879,-0.79734 0.51758,-2.32264 1.03516,-7.71124 0.51757,-5.42437 0.51758,-6.44278 0.51758,-7.39076 0.51758,-8.21874 0.51758,-8.86917 0.51757,-9.27745 0.51758,-9.37364 0.51758,-9.08581 0.51758,-8.34487 0.51758,-7.09165 1.03515,-8.20786 0.51758,-0.0347 0.25879,1.20249 0.25879,2.06966 0.51758,6.81808 0.25879,4.7411 0.25879,5.58728 0.25879,6.3696 0.25878,7.05869 0.25879,7.62277 0.25879,8.02841 0.25879,8.24154 0.25879,8.22878 0.25879,7.95908 0.25879,7.40591 0.25879,6.54972 0.25879,5.38075 0.51757,6.03601 0.38819,-0.64767 0.12939,-1.3317 0.25879,-4.40464 0.25879,-6.70539 0.25879,-8.85858 0.12939,-5.14756 0.1294,-5.55744 0.12939,-5.90163 0.1294,-6.16885 0.12939,-6.34805 0.1294,-6.42861 0.12939,-6.40069 0.1294,-6.25566 0.12939,-5.98633 0.1294,-5.58753 0.25878,-9.44958 0.25879,-6.28778 0.25879,-2.20479 0.1294,0.65156 0.12939,1.895 0.25879,7.56254 0.1294,5.59781 0.12939,6.69416 0.12939,7.64924 0.1294,8.41724 0.12939,8.95292 0.1294,9.21373 0.12939,9.16202 0.1294,8.76783 0.12939,8.01162 0.1294,6.88732 0.51757,9.7139 0.0324,-0.57159 0.0324,-0.72319 0.0647,-1.90145 0.12939,-5.59625 0.1294,-7.85569 0.12939,-9.82684 0.0647,-5.52057 0.0647,-5.83593 0.0647,-6.07288 0.0647,-6.22309 0.0647,-6.27902 0.0647,-6.23422 0.0647,-6.08357 0.0647,-5.82348 0.0647,-5.45218 0.0647,-4.96991 0.12939,-8.06395 0.25879,-6.04467 0.0647,0.98197 0.0647,2.04458 0.1294,7.22954 0.0647,5.09679 0.0647,5.98061 0.0647,6.75149 0.0647,7.38207 0.0647,7.84639 0.0647,8.12078 0.0647,8.18491 0.0647,8.02292 0.0647,7.62432 0.0647,6.98512 0.0647,6.10875 0.0647,5.00687 0.25878,5.40727 0.0162,-0.5492 0.0162,-0.6582 0.0324,-1.64178 0.0647,-4.55931 0.0647,-6.17117 0.0647,-7.61376 0.0647,-8.81587 0.0647,-9.70935 0.0324,-5.07622 0.0323,-5.15651 0.0324,-5.18268 0.0324,-5.1524 0.0647,-9.97994 0.0647,-9.1493 0.0647,-7.84699 0.0647,-6.10162 0.1294,-5.49883 0.0647,1.10388 0.0647,3.80134 0.0647,6.41053 0.0647,8.76801 0.0324,5.14383 0.0324,5.56381 0.0323,5.90692 0.0324,6.16449 0.0324,6.32874 0.0324,6.39312 0.0324,6.3524 0.0323,6.20291 0.0324,5.94274 0.0324,5.57192 0.0647,9.60127 0.25879,5.73194 0.0162,-1.69702 0.0162,-1.93334 0.0323,-4.54511 0.0324,-5.3847 0.0324,-6.12685 0.0324,-6.75018 0.0324,-7.23477 0.0324,-7.56286 0.0324,-7.71941 0.0323,-7.69279 0.0323,-7.4753 0.0324,-7.06374 0.0324,-6.45986 0.0323,-5.67078 0.0324,-4.70913 0.0647,-5.94041 0.0647,-0.58656 0.0162,0.74725 0.0162,1.10796 0.0324,3.28285 0.0324,4.65198 0.0324,5.91698 0.0324,7.03254 0.0323,7.95513 0.0324,8.64482 0.0324,9.06684 0.0323,9.19349 0.0324,9.00562 0.0324,8.49428 0.0324,7.66183 0.0324,6.52305 0.0323,5.10558 0.1294,2.34992 0.0162,-1.92397 0.0162,-2.40568 0.0323,-6.1792 0.0323,-7.8198 0.0324,-9.16733 0.0162,-4.9761 0.0162,-5.16884 0.0162,-5.30525 0.0162,-5.38224 0.0162,-5.39729 0.0162,-5.34861 0.0162,-5.23503 0.0162,-5.05622 0.0324,-9.31825 0.0323,-7.84776 0.0647,-9.56537 0.0324,-1.07585 0.0324,1.6286 0.0324,4.33229 0.0324,6.87962 0.0323,9.11193 0.0162,5.25264 0.0162,5.62442 0.0162,5.91679 0.0162,6.12295 0.0162,6.23717 0.0162,6.25501 0.0162,6.17339 0.0162,5.99078 0.0162,5.70724 0.0162,5.3246 0.0324,9.12433 0.0324,6.52736 0.0647,3.26888 0.0162,-1.41504 0.0162,-2.31254 0.0324,-7.19081 1.03516,-8.50233 0.0162,7.74608 0.0162,6.08408 0.0324,5.98991 0.0324,-3.33002 0.0162,-5.16089 0.0162,-7.25825 0.0162,-9.03656 0.0162,-10.39171 0.0162,-11.2363 0.0162,-11.50553 0.0162,-11.16239 0.0162,-10.20172 0.0162,-8.65277 0.0162,-6.58001 0.0323,-5.36906 0.0162,1.64985 0.0162,4.55809 0.0162,7.25825 0.0162,9.57394 0.0162,11.34314 0.0162,12.42998 0.0162,12.73556 0.0162,12.20755 0.0162,10.84717 0.0162,8.71322 0.0647,3.18458 0.0162,-7.80703 0.0162,-10.63287 0.0162,-12.71553 0.0162,-13.86023 0.0162,-13.93559 0.0162,-12.88937 0.0162,-10.75917 0.0162,-7.67626 0.0324,-3.47607 0.0162,4.71047 0.0162,8.72776 0.0162,12.05695 0.0162,14.35782 0.0162,15.36658 0.0162,14.92795 0.0162,13.01949 0.0162,9.76495 0.0324,5.85818 0.0162,-4.76609 0.0162,-9.58959 0.0162,-13.50194 0.0162,-16.02529 0.0162,-16.8086 0.0162,-15.67956 0.0162,-12.68068 0.0162,-8.08265 0.0162,-2.37076 0.0162,3.79745 0.0162,9.66164 0.0162,14.44908 0.0162,17.4767 0.0162,18.25204 0.0162,16.55856 0.0162,12.51118 0.0323,6.07207 0.0162,-7.70043 0.0162,-13.95801 0.0162,-18.25884 0.0162,-19.82804 0.0162,-18.2751 0.0162,-13.69447 0.0323,-5.04028 0.0162,9.97454 0.0162,16.78528 0.0162,20.77433 0.0162,21.05539 0.0162,17.37937 0.0162,10.24507 0.0162,0.87307 0.0162,-8.97123 0.0162,-17.29029 0.0162,-22.25501 0.0162,-22.61787 0.0162,-18.04759 0.0324,-7.43387 0.0162,12.95294 0.0162,21.31723 0.0162,24.75705 0.0162,22.13458 0.0162,13.77707 0.0162,1.54391 0.0162,-11.51381 0.0162,-21.86968 0.0162,-26.46764 0.0162,-23.65566 0.0162,-13.8256 0.0323,15.62635 0.0162,25.55841 0.0162,28.12624 0.0162,21.52866 0.0162,7.44201 0.0162,-9.7141 0.0162,-24.04685 0.0162,-30.17996 0.0647,-2.01256 0.0162,32.11432 0.0162,25.69835 0.0162,7.96658 0.0162,-13.94693 0.0162,-30.3525 0.0162,-33.24813 0.0162,-20.37584 0.0162,2.96903 0.0162,25.70718 0.0162,36.03783 0.0162,27.65757 0.0162,3.89759 0.0162,-22.95894 0.0162,-37.67047 0.0162,-30.72823 0.0162,-4.88677 0.0162,25.01166 0.0162,40.07151 0.0162,29.35221 0.0162,-1.6524 0.0162,-32.73853 0.0162,-41.63817 0.0324,-2.92593 0.0162,42.91392 0.0162,35.13785 0.0162,-1.93572 0.0162,-38.86348 0.0162,-43.31657 0.0162,-8.96779 0.0162,35.08491 0.0162,47.43955 0.0162,13.65722 0.0162,-35.32928 0.0162,-49.43785 0.0162,-10.95727 0.0162,41.22603 0.0162,48.42842 0.0162,-1.10521 0.0162,-51.29117 0.0162,-39.28474 0.0162,23.91261 0.0162,57.78775 0.0162,13.6525 0.0162,-51.55262 0.0162,-43.9728 0.0162,30.18399 0.0162,60.2316 0.0162,-5.23665 0.0162,-64.47415 0.0162,-15.7353 0.0162,62.5011 0.0162,29.81324 0.0162,-59.96276 0.0162,-36.64165 0.0162,60.65453 0.0162,36.00823 0.0162,-65.94996 0.0162,-26.25737 0.0162,73.90895 0.0162,4.37502 0.0162,-77.35395 0.0162,30.63538 0.0162,62.63924 0.0162,-69.2936 0.0162,-15.86874 0.0162,82.27657 0.0162,-53.94047 0.0162,-32.31763 0.0162,86.66728 0.0162,-62.86064 0.0162,-11.63283 0.0162,76.30176 0.0162,-90.5369 0.0162,54.10002 0.0162,6.15098 0.0162,-60.34208 0.0162,91.19974 0.0162,-96.48846 0.0162,83.45032 0.0162,-61.98046 0.0162,40.2728 0.0162,-23.44607 0.0162,14.05165 0.0324,8.05975 0.0162,-37.94976 0.0162,61.17482 0.0162,-84.69458 0.0162,96.25746 0.0162,-79.49747 0.0162,25.1206 0.0162,48.67076 0.0162,-86.59415 0.0162,37.61988 0.0162,55.82326 0.0162,-59.04632 0.0162,-40.39353 0.0162,41.75298 0.0162,49.11394 0.12939,5.38761 0.0647,2.92633 0.0162,-87.47553 0.0162,72.11234 0.0162,-78.83815 0.0162,90.63273 0.0162,-32.88285 0.0162,-50.75818 0.0323,-6.53749 0.0162,40.20474 0.0162,53.15414 0.0162,-98.28571 0.0162,93.83555 0.0162,-13.92495 0.0162,-5.93235 0.0162,24.48062 0.0162,-98.17753 0.0162,70.48017 0.0162,-5.18761 0.0162,-62.76182 0.0162,26.20883 0.0162,-29.40215 0.0162,53.73538 0.0162,-51.83825 m 0.0162,0.28992 0.0647,8.38309 m 0.0485,-6.78055 0.0162,52.59443 m 0.0162,-15.35311 0.0162,57.40657 m 0.0162,-9.07838 0.0162,-81.71761 0.0647,-6.47473 0.0162,53.99825 0.0162,44.45123 m 7.66663,-376.255226 0.12939,5.4179052 0.1294,5.240904 0.12939,5.0724378 0.25879,9.670954 0.25879,9.086773 0.25879,8.553972 0.25879,8.066697 0.25879,7.619906 0.25879,7.209233 0.25878,6.830889 0.25879,6.481568 0.25879,6.158374 0.25879,5.858764 0.25879,5.580501 0.25879,5.321602 0.51758,9.935376 0.51758,9.09178 0.51757,8.35125 0.51758,7.69764 0.51758,7.1179 0.51758,6.60125 0.51758,6.1389 0.51757,5.72347 0.51758,5.34883 0.51758,5.00981 1.03516,9.12381 1.03515,8.09736 1.03516,7.2349 1.03516,6.50326 1.03515,5.87727 1.03516,5.33751 1.03515,4.86884 2.07032,8.55866 2.07031,7.28016 2.07031,6.26824 2.07031,5.45358 4.14063,9.0254 4.14062,7.1634 4.14063,5.82374 4.14062,4.82774 4.14063,4.06713 4.14062,3.47315 4.14063,3.00043 4.14062,2.61806 4.14063,2.30442 4.14062,2.04396 4.14063,1.82528 4.14062,1.63992 4.14063,1.48143 4.14062,1.34485 4.14063,1.22634 4.14062,1.12283 4.14063,1.03188 4.14062,0.95157 4.14063,0.88027 4.14062,0.8167 4.14063,0.75978 4.14062,0.70861 4.14063,0.66243 4.14062,0.62063 4.14063,0.58267 4.14062,0.54808 4.14063,0.51649 4.14062,0.48754 4.14063,0.46098 4.14062,0.43651 4.14063,0.41395 4.14062,0.3931 4.14063,0.37377 4.14062,0.35585 4.14063,0.33918 4.14062,0.32365 4.14063,0.30917 4.14062,0.29564 4.14063,0.28297 4.14062,0.27111 4.14063,0.25997 4.14062,0.24951 4.14063,0.23967 4.14062,0.2304 4.14063,0.22165 4.14062,0.21339 4.14063,0.20559 4.14062,0.19821 4.14063,0.19121 4.14062,0.18459 4.14063,0.1783 4.14062,0.17232 4.14063,0.16665 4.14062,0.16124 4.14063,0.1561 4.14062,0.1512 4.14063,0.14652 4.14062,0.14206 4.14063,0.1378 4.14062,0.13374 4.14063,0.12983 4.14062,0.12611 4.14063,0.12255 4.14062,0.11912 4.14063,0.11585 4.14062,0.11271 4.14063,0.10968 4.14062,0.10679 4.14063,0.104 4.14062,0.10133 4.14063,0.0987 4.14062,0.0963 4.14063,0.0939 4.14062,0.0916 4.14063,0.0894 4.14062,0.0872 4.14063,0.0852 4.14062,0.0832 4.14063,0.0813 4.14062,0.0794 4.14063,0.0776 4.14062,0.0759 4.14063,0.0742 4.14062,0.0726 4.14063,0.071 4.14062,0.0695 4.14063,0.068 4.14062,0.0666 4.14063,0.0652 4.14062,0.0639 4.14063,0.0626 4.14062,0.0614 4.14063,0.0601 4.14062,0.059 4.14063,0.0578 4.14062,0.0567 4.14063,0.0556 4.14062,0.0546 4.14063,0.0535 4.14062,0.0525 4.14063,0.0516 4.14062,0.0506 4.14063,0.0497 4.14062,0.0488 4.14063,0.048 4.14062,0.0471 4.14063,0.0463 4.14062,0.0455 4.14063,0.0447 4.14062,0.044 4.14063,0.0432 4.14062,0.0425 4.14063,0.0418 4.14062,0.0411 4.14054,0.0404 4.1407,0.0398 4.1406,0.0391 4.1406,0.0385 4.1406,0.0379 4.1407,0.0373 4.1406,0.0367 4.1406,0.0362 4.1407,0.0356 4.1406,0.0351 4.1406,0.0345 4.1406,0.034 4.1407,0.0335 4.1406,0.033 4.1406,0.0325" stroke-miterlimit="10" id="path235" inkscape:connector-curvature="0" style="fill:none;stroke:#6699ff;stroke-width:1.68918931;stroke-linecap:round;stroke-linejoin:round;stroke-miterlimit:10;stroke-opacity:0.8;paint-order:fill stroke markers" />
    </g>
  </g>
</svg>