<?xml version="1.0" encoding="UTF-8" standalone="no"?>
<svg
   xmlns:dc="http://purl.org/dc/elements/1.1/"
   xmlns:cc="http://creativecommons.org/ns#"
   xmlns:rdf="http://www.w3.org/1999/02/22-rdf-syntax-ns#"
   xmlns:svg="http://www.w3.org/2000/svg"
   xmlns="http://www.w3.org/2000/svg"
   xmlns:sodipodi="http://sodipodi.sourceforge.net/DTD/sodipodi-0.dtd"
   xmlns:inkscape="http://www.inkscape.org/namespaces/inkscape"
   version="1.1"
   width="518"
   height="518"
   id="svg235"
   sodipodi:docname="discontinuity-example-3.svg"
   inkscape:version="0.92.2 (5c3e80d, 2017-08-06)"
   viewBox="0 0 518 518">
  <metadata
     id="metadata239">
    <rdf:RDF>
      <cc:Work
         rdf:about="">
        <dc:format>image/svg+xml</dc:format>
        <dc:type
           rdf:resource="http://purl.org/dc/dcmitype/StillImage" />
        <dc:title />
      </cc:Work>
    </rdf:RDF>
  </metadata>
  <sodipodi:namedview
     pagecolor="#ffffff"
     bordercolor="#666666"
     borderopacity="1"
     objecttolerance="10"
     gridtolerance="10"
     guidetolerance="10"
     inkscape:pageopacity="0"
     inkscape:pageshadow="2"
     inkscape:window-width="2160"
     inkscape:window-height="1360"
     id="namedview237"
     showgrid="false"
     inkscape:zoom="0.55436771"
     inkscape:cx="325.43275"
     inkscape:cy="87.052685"
     inkscape:window-x="-11"
     inkscape:window-y="-11"
     inkscape:window-maximized="1"
     inkscape:current-layer="svg235" />
  <defs
     id="defs5">
    <clipPath
       clipPathUnits="userSpaceOnUse"
       id="clipPath1048">
      <rect
         style="fill:#000000;fill-opacity:0.47290643;stroke-width:1"
         id="rect1050"
         width="350"
         height="350"
         x="249.504"
         y="182.46001" />
    </clipPath>
  </defs>
  <g
     transform="matrix(1.48,0,0,1.48,-369.26592,-270.04081)"
     clip-path="url(#clipPath1048)"
     id="g233"
     style="stroke-width:0.67567569">
    <g
       transform="translate(-106,-21)"
       id="g231"
       style="stroke-width:0.67567569">
      <rect
         x="0"
         y="0"
         width="1060"
         height="756"
         id="rect7"
         fill="rgba(0,0,0,0)" />
      <path
         d="m 530.5,2.5 v 754"
         stroke-miterlimit="10"
         id="path9"
         inkscape:connector-curvature="0"
         style="fill:none;stroke:#000000;stroke-width:0.67567569;stroke-miterlimit:10;stroke-opacity:1;paint-order:fill stroke markers" />
      <path
         d="m 530.5,1.5 -4,4"
         stroke-miterlimit="10"
         id="path11"
         inkscape:connector-curvature="0"
         style="fill:none;stroke:#000000;stroke-width:0.67567569;stroke-miterlimit:10;stroke-opacity:1;paint-order:fill stroke markers" />
      <path
         d="m 530.5,1.5 4,4"
         stroke-miterlimit="10"
         id="path13"
         inkscape:connector-curvature="0"
         style="fill:none;stroke:#000000;stroke-width:0.67567569;stroke-miterlimit:10;stroke-opacity:1;paint-order:fill stroke markers" />
      <path
         d="m 0.5,378.5 h 1058"
         stroke-miterlimit="10"
         id="path15"
         inkscape:connector-curvature="0"
         style="fill:none;stroke:#000000;stroke-width:0.67567569;stroke-miterlimit:10;stroke-opacity:1;paint-order:fill stroke markers" />
      <path
         d="m 1059.5,378.5 -4,-4"
         stroke-miterlimit="10"
         id="path17"
         inkscape:connector-curvature="0"
         style="fill:none;stroke:#000000;stroke-width:0.67567569;stroke-miterlimit:10;stroke-opacity:1;paint-order:fill stroke markers" />
      <path
         d="m 1059.5,378.5 -4,4"
         stroke-miterlimit="10"
         id="path19"
         inkscape:connector-curvature="0"
         style="fill:none;stroke:#000000;stroke-width:0.67567569;stroke-miterlimit:10;stroke-opacity:1;paint-order:fill stroke markers" />
      <text
         font-size="12px"
         font-style="normal"
         font-weight="normal"
         text-decoration="normal"
         x="22"
         y="394"
         dominant-baseline="alphabetic"
         id="text23"
         style="font-style:normal;font-weight:normal;font-size:12px;font-family:geogebra-sans-serif, sans-serif;dominant-baseline:alphabetic;text-anchor:start;fill:#000000;fill-opacity:1;stroke:none;stroke-width:0.67567569">–10</text>
      <path
         d="m 30.5,378.5 v 3"
         stroke-miterlimit="10"
         id="path25"
         inkscape:connector-curvature="0"
         style="fill:none;stroke:#000000;stroke-width:0.67567569;stroke-miterlimit:10;stroke-opacity:1;paint-order:fill stroke markers" />
      <text
         font-size="12px"
         font-style="normal"
         font-weight="normal"
         text-decoration="normal"
         x="75"
         y="394"
         dominant-baseline="alphabetic"
         id="text29"
         style="font-style:normal;font-weight:normal;font-size:12px;font-family:geogebra-sans-serif, sans-serif;dominant-baseline:alphabetic;text-anchor:start;fill:#000000;fill-opacity:1;stroke:none;stroke-width:0.67567569">–9</text>
      <path
         d="m 80.5,378.5 v 3"
         stroke-miterlimit="10"
         id="path31"
         inkscape:connector-curvature="0"
         style="fill:none;stroke:#000000;stroke-width:0.67567569;stroke-miterlimit:10;stroke-opacity:1;paint-order:fill stroke markers" />
      <text
         font-size="12px"
         font-style="normal"
         font-weight="normal"
         text-decoration="normal"
         x="125"
         y="394"
         dominant-baseline="alphabetic"
         id="text35"
         style="font-style:normal;font-weight:normal;font-size:12px;font-family:geogebra-sans-serif, sans-serif;dominant-baseline:alphabetic;text-anchor:start;fill:#000000;fill-opacity:1;stroke:none;stroke-width:0.67567569">–8</text>
      <path
         d="m 130.5,378.5 v 3"
         stroke-miterlimit="10"
         id="path37"
         inkscape:connector-curvature="0"
         style="fill:none;stroke:#000000;stroke-width:0.67567569;stroke-miterlimit:10;stroke-opacity:1;paint-order:fill stroke markers" />
      <text
         font-size="12px"
         font-style="normal"
         font-weight="normal"
         text-decoration="normal"
         x="175"
         y="394"
         dominant-baseline="alphabetic"
         id="text41"
         style="font-style:normal;font-weight:normal;font-size:12px;font-family:geogebra-sans-serif, sans-serif;dominant-baseline:alphabetic;text-anchor:start;fill:#000000;fill-opacity:1;stroke:none;stroke-width:0.67567569">–7</text>
      <path
         d="m 180.5,378.5 v 3"
         stroke-miterlimit="10"
         id="path43"
         inkscape:connector-curvature="0"
         style="fill:none;stroke:#000000;stroke-width:0.67567569;stroke-miterlimit:10;stroke-opacity:1;paint-order:fill stroke markers" />
      <text
         font-size="12px"
         font-style="normal"
         font-weight="normal"
         text-decoration="normal"
         x="225"
         y="394"
         dominant-baseline="alphabetic"
         id="text47"
         style="font-style:normal;font-weight:normal;font-size:12px;font-family:geogebra-sans-serif, sans-serif;dominant-baseline:alphabetic;text-anchor:start;fill:#000000;fill-opacity:1;stroke:none;stroke-width:0.67567569">–6</text>
      <path
         d="m 230.5,378.5 v 3"
         stroke-miterlimit="10"
         id="path49"
         inkscape:connector-curvature="0"
         style="fill:none;stroke:#000000;stroke-width:0.67567569;stroke-miterlimit:10;stroke-opacity:1;paint-order:fill stroke markers" />
      <text
         font-size="12px"
         font-style="normal"
         font-weight="normal"
         text-decoration="normal"
         x="275"
         y="394"
         dominant-baseline="alphabetic"
         id="text53"
         style="font-style:normal;font-weight:normal;font-size:12px;font-family:geogebra-sans-serif, sans-serif;dominant-baseline:alphabetic;text-anchor:start;fill:#000000;fill-opacity:1;stroke:none;stroke-width:0.67567569">–5</text>
      <path
         d="m 280.5,378.5 v 3"
         stroke-miterlimit="10"
         id="path55"
         inkscape:connector-curvature="0"
         style="fill:none;stroke:#000000;stroke-width:0.67567569;stroke-miterlimit:10;stroke-opacity:1;paint-order:fill stroke markers" />
      <text
         font-size="12px"
         font-style="normal"
         font-weight="normal"
         text-decoration="normal"
         x="325"
         y="394"
         dominant-baseline="alphabetic"
         id="text59"
         style="font-style:normal;font-weight:normal;font-size:12px;font-family:geogebra-sans-serif, sans-serif;dominant-baseline:alphabetic;text-anchor:start;fill:#000000;fill-opacity:1;stroke:none;stroke-width:0.67567569">–4</text>
      <path
         d="m 330.5,378.5 v 3"
         stroke-miterlimit="10"
         id="path61"
         inkscape:connector-curvature="0"
         style="fill:none;stroke:#000000;stroke-width:0.67567569;stroke-miterlimit:10;stroke-opacity:1;paint-order:fill stroke markers" />
      <text
         font-size="12px"
         font-style="normal"
         font-weight="normal"
         text-decoration="normal"
         x="375"
         y="394"
         dominant-baseline="alphabetic"
         id="text65"
         style="font-style:normal;font-weight:normal;font-size:12px;font-family:geogebra-sans-serif, sans-serif;dominant-baseline:alphabetic;text-anchor:start;fill:#000000;fill-opacity:1;stroke:none;stroke-width:0.67567569">–3</text>
      <path
         d="m 380.5,378.5 v 3"
         stroke-miterlimit="10"
         id="path67"
         inkscape:connector-curvature="0"
         style="fill:none;stroke:#000000;stroke-width:0.67567569;stroke-miterlimit:10;stroke-opacity:1;paint-order:fill stroke markers" />
      <text
         font-size="12px"
         font-style="normal"
         font-weight="normal"
         text-decoration="normal"
         x="425"
         y="394"
         dominant-baseline="alphabetic"
         id="text71"
         style="font-style:normal;font-weight:normal;font-size:12px;font-family:geogebra-sans-serif, sans-serif;dominant-baseline:alphabetic;text-anchor:start;fill:#000000;fill-opacity:1;stroke:none;stroke-width:0.67567569">–2</text>
      <path
         d="m 430.5,378.5 v 3"
         stroke-miterlimit="10"
         id="path73"
         inkscape:connector-curvature="0"
         style="fill:none;stroke:#000000;stroke-width:0.67567569;stroke-miterlimit:10;stroke-opacity:1;paint-order:fill stroke markers" />
      <text
         font-size="12px"
         font-style="normal"
         font-weight="normal"
         text-decoration="normal"
         x="475"
         y="394"
         dominant-baseline="alphabetic"
         id="text77"
         style="font-style:normal;font-weight:normal;font-size:12px;font-family:geogebra-sans-serif, sans-serif;dominant-baseline:alphabetic;text-anchor:start;fill:#000000;fill-opacity:1;stroke:none;stroke-width:0.67567569">–1</text>
      <path
         d="m 480.5,378.5 v 3"
         stroke-miterlimit="10"
         id="path79"
         inkscape:connector-curvature="0"
         style="fill:none;stroke:#000000;stroke-width:0.67567569;stroke-miterlimit:10;stroke-opacity:1;paint-order:fill stroke markers" />
      <text
         font-size="12px"
         font-style="normal"
         font-weight="normal"
         text-decoration="normal"
         x="578"
         y="394"
         dominant-baseline="alphabetic"
         id="text83"
         style="font-style:normal;font-weight:normal;font-size:12px;font-family:geogebra-sans-serif, sans-serif;dominant-baseline:alphabetic;text-anchor:start;fill:#000000;fill-opacity:1;stroke:none;stroke-width:0.67567569">1</text>
      <path
         d="m 580.5,378.5 v 3"
         stroke-miterlimit="10"
         id="path85"
         inkscape:connector-curvature="0"
         style="fill:none;stroke:#000000;stroke-width:0.67567569;stroke-miterlimit:10;stroke-opacity:1;paint-order:fill stroke markers" />
      <text
         font-size="12px"
         font-style="normal"
         font-weight="normal"
         text-decoration="normal"
         x="628"
         y="394"
         dominant-baseline="alphabetic"
         id="text89"
         style="font-style:normal;font-weight:normal;font-size:12px;font-family:geogebra-sans-serif, sans-serif;dominant-baseline:alphabetic;text-anchor:start;fill:#000000;fill-opacity:1;stroke:none;stroke-width:0.67567569">2</text>
      <path
         d="m 630.5,378.5 v 3"
         stroke-miterlimit="10"
         id="path91"
         inkscape:connector-curvature="0"
         style="fill:none;stroke:#000000;stroke-width:0.67567569;stroke-miterlimit:10;stroke-opacity:1;paint-order:fill stroke markers" />
      <text
         font-size="12px"
         font-style="normal"
         font-weight="normal"
         text-decoration="normal"
         x="678"
         y="394"
         dominant-baseline="alphabetic"
         id="text95"
         style="font-style:normal;font-weight:normal;font-size:12px;font-family:geogebra-sans-serif, sans-serif;dominant-baseline:alphabetic;text-anchor:start;fill:#000000;fill-opacity:1;stroke:none;stroke-width:0.67567569">3</text>
      <path
         d="m 680.5,378.5 v 3"
         stroke-miterlimit="10"
         id="path97"
         inkscape:connector-curvature="0"
         style="fill:none;stroke:#000000;stroke-width:0.67567569;stroke-miterlimit:10;stroke-opacity:1;paint-order:fill stroke markers" />
      <text
         font-size="12px"
         font-style="normal"
         font-weight="normal"
         text-decoration="normal"
         x="728"
         y="394"
         dominant-baseline="alphabetic"
         id="text101"
         style="font-style:normal;font-weight:normal;font-size:12px;font-family:geogebra-sans-serif, sans-serif;dominant-baseline:alphabetic;text-anchor:start;fill:#000000;fill-opacity:1;stroke:none;stroke-width:0.67567569">4</text>
      <path
         d="m 730.5,378.5 v 3"
         stroke-miterlimit="10"
         id="path103"
         inkscape:connector-curvature="0"
         style="fill:none;stroke:#000000;stroke-width:0.67567569;stroke-miterlimit:10;stroke-opacity:1;paint-order:fill stroke markers" />
      <text
         font-size="12px"
         font-style="normal"
         font-weight="normal"
         text-decoration="normal"
         x="778"
         y="394"
         dominant-baseline="alphabetic"
         id="text107"
         style="font-style:normal;font-weight:normal;font-size:12px;font-family:geogebra-sans-serif, sans-serif;dominant-baseline:alphabetic;text-anchor:start;fill:#000000;fill-opacity:1;stroke:none;stroke-width:0.67567569">5</text>
      <path
         d="m 780.5,378.5 v 3"
         stroke-miterlimit="10"
         id="path109"
         inkscape:connector-curvature="0"
         style="fill:none;stroke:#000000;stroke-width:0.67567569;stroke-miterlimit:10;stroke-opacity:1;paint-order:fill stroke markers" />
      <text
         font-size="12px"
         font-style="normal"
         font-weight="normal"
         text-decoration="normal"
         x="828"
         y="394"
         dominant-baseline="alphabetic"
         id="text113"
         style="font-style:normal;font-weight:normal;font-size:12px;font-family:geogebra-sans-serif, sans-serif;dominant-baseline:alphabetic;text-anchor:start;fill:#000000;fill-opacity:1;stroke:none;stroke-width:0.67567569">6</text>
      <path
         d="m 830.5,378.5 v 3"
         stroke-miterlimit="10"
         id="path115"
         inkscape:connector-curvature="0"
         style="fill:none;stroke:#000000;stroke-width:0.67567569;stroke-miterlimit:10;stroke-opacity:1;paint-order:fill stroke markers" />
      <text
         font-size="12px"
         font-style="normal"
         font-weight="normal"
         text-decoration="normal"
         x="878"
         y="394"
         dominant-baseline="alphabetic"
         id="text119"
         style="font-style:normal;font-weight:normal;font-size:12px;font-family:geogebra-sans-serif, sans-serif;dominant-baseline:alphabetic;text-anchor:start;fill:#000000;fill-opacity:1;stroke:none;stroke-width:0.67567569">7</text>
      <path
         d="m 880.5,378.5 v 3"
         stroke-miterlimit="10"
         id="path121"
         inkscape:connector-curvature="0"
         style="fill:none;stroke:#000000;stroke-width:0.67567569;stroke-miterlimit:10;stroke-opacity:1;paint-order:fill stroke markers" />
      <text
         font-size="12px"
         font-style="normal"
         font-weight="normal"
         text-decoration="normal"
         x="928"
         y="394"
         dominant-baseline="alphabetic"
         id="text125"
         style="font-style:normal;font-weight:normal;font-size:12px;font-family:geogebra-sans-serif, sans-serif;dominant-baseline:alphabetic;text-anchor:start;fill:#000000;fill-opacity:1;stroke:none;stroke-width:0.67567569">8</text>
      <path
         d="m 930.5,378.5 v 3"
         stroke-miterlimit="10"
         id="path127"
         inkscape:connector-curvature="0"
         style="fill:none;stroke:#000000;stroke-width:0.67567569;stroke-miterlimit:10;stroke-opacity:1;paint-order:fill stroke markers" />
      <text
         font-size="12px"
         font-style="normal"
         font-weight="normal"
         text-decoration="normal"
         x="978"
         y="394"
         dominant-baseline="alphabetic"
         id="text131"
         style="font-style:normal;font-weight:normal;font-size:12px;font-family:geogebra-sans-serif, sans-serif;dominant-baseline:alphabetic;text-anchor:start;fill:#000000;fill-opacity:1;stroke:none;stroke-width:0.67567569">9</text>
      <path
         d="m 980.5,378.5 v 3"
         stroke-miterlimit="10"
         id="path133"
         inkscape:connector-curvature="0"
         style="fill:none;stroke:#000000;stroke-width:0.67567569;stroke-miterlimit:10;stroke-opacity:1;paint-order:fill stroke markers" />
      <text
         font-size="12px"
         font-style="normal"
         font-weight="normal"
         text-decoration="normal"
         x="1025"
         y="394"
         dominant-baseline="alphabetic"
         id="text137"
         style="font-style:normal;font-weight:normal;font-size:12px;font-family:geogebra-sans-serif, sans-serif;dominant-baseline:alphabetic;text-anchor:start;fill:#000000;fill-opacity:1;stroke:none;stroke-width:0.67567569">10</text>
      <path
         d="m 1030.5,378.5 v 3"
         stroke-miterlimit="10"
         id="path139"
         inkscape:connector-curvature="0"
         style="fill:none;stroke:#000000;stroke-width:0.67567569;stroke-miterlimit:10;stroke-opacity:1;paint-order:fill stroke markers" />
      <path
         d="m 527.5,728.5 h 3"
         stroke-miterlimit="10"
         id="path141"
         inkscape:connector-curvature="0"
         style="fill:none;stroke:#000000;stroke-width:0.67567569;stroke-miterlimit:10;stroke-opacity:1;paint-order:fill stroke markers" />
      <path
         d="m 527.5,678.5 h 3"
         stroke-miterlimit="10"
         id="path143"
         inkscape:connector-curvature="0"
         style="fill:none;stroke:#000000;stroke-width:0.67567569;stroke-miterlimit:10;stroke-opacity:1;paint-order:fill stroke markers" />
      <path
         d="m 527.5,628.5 h 3"
         stroke-miterlimit="10"
         id="path145"
         inkscape:connector-curvature="0"
         style="fill:none;stroke:#000000;stroke-width:0.67567569;stroke-miterlimit:10;stroke-opacity:1;paint-order:fill stroke markers" />
      <path
         d="m 527.5,578.5 h 3"
         stroke-miterlimit="10"
         id="path147"
         inkscape:connector-curvature="0"
         style="fill:none;stroke:#000000;stroke-width:0.67567569;stroke-miterlimit:10;stroke-opacity:1;paint-order:fill stroke markers" />
      <path
         d="m 527.5,528.5 h 3"
         stroke-miterlimit="10"
         id="path149"
         inkscape:connector-curvature="0"
         style="fill:none;stroke:#000000;stroke-width:0.67567569;stroke-miterlimit:10;stroke-opacity:1;paint-order:fill stroke markers" />
      <path
         d="m 527.5,478.5 h 3"
         stroke-miterlimit="10"
         id="path151"
         inkscape:connector-curvature="0"
         style="fill:none;stroke:#000000;stroke-width:0.67567569;stroke-miterlimit:10;stroke-opacity:1;paint-order:fill stroke markers" />
      <path
         d="m 527.5,428.5 h 3"
         stroke-miterlimit="10"
         id="path153"
         inkscape:connector-curvature="0"
         style="fill:none;stroke:#000000;stroke-width:0.67567569;stroke-miterlimit:10;stroke-opacity:1;paint-order:fill stroke markers" />
      <path
         d="m 527.5,328.5 h 3"
         stroke-miterlimit="10"
         id="path155"
         inkscape:connector-curvature="0"
         style="fill:none;stroke:#000000;stroke-width:0.67567569;stroke-miterlimit:10;stroke-opacity:1;paint-order:fill stroke markers" />
      <path
         d="m 527.5,278.5 h 3"
         stroke-miterlimit="10"
         id="path157"
         inkscape:connector-curvature="0"
         style="fill:none;stroke:#000000;stroke-width:0.67567569;stroke-miterlimit:10;stroke-opacity:1;paint-order:fill stroke markers" />
      <path
         d="m 527.5,228.5 h 3"
         stroke-miterlimit="10"
         id="path159"
         inkscape:connector-curvature="0"
         style="fill:none;stroke:#000000;stroke-width:0.67567569;stroke-miterlimit:10;stroke-opacity:1;paint-order:fill stroke markers" />
      <path
         d="m 527.5,178.5 h 3"
         stroke-miterlimit="10"
         id="path161"
         inkscape:connector-curvature="0"
         style="fill:none;stroke:#000000;stroke-width:0.67567569;stroke-miterlimit:10;stroke-opacity:1;paint-order:fill stroke markers" />
      <path
         d="m 527.5,128.5 h 3"
         stroke-miterlimit="10"
         id="path163"
         inkscape:connector-curvature="0"
         style="fill:none;stroke:#000000;stroke-width:0.67567569;stroke-miterlimit:10;stroke-opacity:1;paint-order:fill stroke markers" />
      <path
         d="m 527.5,78.5 h 3"
         stroke-miterlimit="10"
         id="path165"
         inkscape:connector-curvature="0"
         style="fill:none;stroke:#000000;stroke-width:0.67567569;stroke-miterlimit:10;stroke-opacity:1;paint-order:fill stroke markers" />
      <path
         d="m 527.5,28.5 h 3"
         stroke-miterlimit="10"
         id="path167"
         inkscape:connector-curvature="0"
         style="fill:none;stroke:#000000;stroke-width:0.67567569;stroke-miterlimit:10;stroke-opacity:1;paint-order:fill stroke markers" />
      <text
         font-size="12px"
         font-style="normal"
         font-weight="normal"
         text-decoration="normal"
         x="510"
         y="733"
         dominant-baseline="alphabetic"
         id="text171"
         style="font-style:normal;font-weight:normal;font-size:12px;font-family:geogebra-sans-serif, sans-serif;dominant-baseline:alphabetic;text-anchor:start;fill:#000000;fill-opacity:1;stroke:none;stroke-width:0.67567569">–7</text>
      <text
         font-size="12px"
         font-style="normal"
         font-weight="normal"
         text-decoration="normal"
         x="510"
         y="683"
         dominant-baseline="alphabetic"
         id="text175"
         style="font-style:normal;font-weight:normal;font-size:12px;font-family:geogebra-sans-serif, sans-serif;dominant-baseline:alphabetic;text-anchor:start;fill:#000000;fill-opacity:1;stroke:none;stroke-width:0.67567569">–6</text>
      <text
         font-size="12px"
         font-style="normal"
         font-weight="normal"
         text-decoration="normal"
         x="510"
         y="633"
         dominant-baseline="alphabetic"
         id="text179"
         style="font-style:normal;font-weight:normal;font-size:12px;font-family:geogebra-sans-serif, sans-serif;dominant-baseline:alphabetic;text-anchor:start;fill:#000000;fill-opacity:1;stroke:none;stroke-width:0.67567569">–5</text>
      <text
         font-size="12px"
         font-style="normal"
         font-weight="normal"
         text-decoration="normal"
         x="510"
         y="583"
         dominant-baseline="alphabetic"
         id="text183"
         style="font-style:normal;font-weight:normal;font-size:12px;font-family:geogebra-sans-serif, sans-serif;dominant-baseline:alphabetic;text-anchor:start;fill:#000000;fill-opacity:1;stroke:none;stroke-width:0.67567569">–4</text>
      <text
         font-size="12px"
         font-style="normal"
         font-weight="normal"
         text-decoration="normal"
         x="510"
         y="533"
         dominant-baseline="alphabetic"
         id="text187"
         style="font-style:normal;font-weight:normal;font-size:12px;font-family:geogebra-sans-serif, sans-serif;dominant-baseline:alphabetic;text-anchor:start;fill:#000000;fill-opacity:1;stroke:none;stroke-width:0.67567569">–3</text>
      <text
         font-size="12px"
         font-style="normal"
         font-weight="normal"
         text-decoration="normal"
         x="510"
         y="483"
         dominant-baseline="alphabetic"
         id="text191"
         style="font-style:normal;font-weight:normal;font-size:12px;font-family:geogebra-sans-serif, sans-serif;dominant-baseline:alphabetic;text-anchor:start;fill:#000000;fill-opacity:1;stroke:none;stroke-width:0.67567569">–2</text>
      <text
         font-size="12px"
         font-style="normal"
         font-weight="normal"
         text-decoration="normal"
         x="510"
         y="433"
         dominant-baseline="alphabetic"
         id="text195"
         style="font-style:normal;font-weight:normal;font-size:12px;font-family:geogebra-sans-serif, sans-serif;dominant-baseline:alphabetic;text-anchor:start;fill:#000000;fill-opacity:1;stroke:none;stroke-width:0.67567569">–1</text>
      <text
         font-size="12px"
         font-style="normal"
         font-weight="normal"
         text-decoration="normal"
         x="517"
         y="333"
         dominant-baseline="alphabetic"
         id="text199"
         style="font-style:normal;font-weight:normal;font-size:12px;font-family:geogebra-sans-serif, sans-serif;dominant-baseline:alphabetic;text-anchor:start;fill:#000000;fill-opacity:1;stroke:none;stroke-width:0.67567569">1</text>
      <text
         font-size="12px"
         font-style="normal"
         font-weight="normal"
         text-decoration="normal"
         x="517"
         y="283"
         dominant-baseline="alphabetic"
         id="text203"
         style="font-style:normal;font-weight:normal;font-size:12px;font-family:geogebra-sans-serif, sans-serif;dominant-baseline:alphabetic;text-anchor:start;fill:#000000;fill-opacity:1;stroke:none;stroke-width:0.67567569">2</text>
      <text
         font-size="12px"
         font-style="normal"
         font-weight="normal"
         text-decoration="normal"
         x="517"
         y="233"
         dominant-baseline="alphabetic"
         id="text207"
         style="font-style:normal;font-weight:normal;font-size:12px;font-family:geogebra-sans-serif, sans-serif;dominant-baseline:alphabetic;text-anchor:start;fill:#000000;fill-opacity:1;stroke:none;stroke-width:0.67567569">3</text>
      <text
         font-size="12px"
         font-style="normal"
         font-weight="normal"
         text-decoration="normal"
         x="517"
         y="183"
         dominant-baseline="alphabetic"
         id="text211"
         style="font-style:normal;font-weight:normal;font-size:12px;font-family:geogebra-sans-serif, sans-serif;dominant-baseline:alphabetic;text-anchor:start;fill:#000000;fill-opacity:1;stroke:none;stroke-width:0.67567569">4</text>
      <text
         font-size="12px"
         font-style="normal"
         font-weight="normal"
         text-decoration="normal"
         x="517"
         y="133"
         dominant-baseline="alphabetic"
         id="text215"
         style="font-style:normal;font-weight:normal;font-size:12px;font-family:geogebra-sans-serif, sans-serif;dominant-baseline:alphabetic;text-anchor:start;fill:#000000;fill-opacity:1;stroke:none;stroke-width:0.67567569">5</text>
      <text
         font-size="12px"
         font-style="normal"
         font-weight="normal"
         text-decoration="normal"
         x="517"
         y="83"
         dominant-baseline="alphabetic"
         id="text219"
         style="font-style:normal;font-weight:normal;font-size:12px;font-family:geogebra-sans-serif, sans-serif;dominant-baseline:alphabetic;text-anchor:start;fill:#000000;fill-opacity:1;stroke:none;stroke-width:0.67567569">6</text>
      <text
         font-size="12px"
         font-style="normal"
         font-weight="normal"
         text-decoration="normal"
         x="517"
         y="33"
         dominant-baseline="alphabetic"
         id="text223"
         style="font-style:normal;font-weight:normal;font-size:12px;font-family:geogebra-sans-serif, sans-serif;dominant-baseline:alphabetic;text-anchor:start;fill:#000000;fill-opacity:1;stroke:none;stroke-width:0.67567569">7</text>
      <text
         font-size="12px"
         font-style="normal"
         font-weight="normal"
         text-decoration="normal"
         x="517"
         y="394"
         dominant-baseline="alphabetic"
         id="text227"
         style="font-style:normal;font-weight:normal;font-size:12px;font-family:geogebra-sans-serif, sans-serif;dominant-baseline:alphabetic;text-anchor:start;fill:#000000;fill-opacity:1;stroke:none;stroke-width:0.67567569">0</text>
      <path
         d="m 0,382.71698 4.140625,0.0371 4.140625,0.0377 4.140625,0.0383 4.140625,0.0389 4.140625,0.0396 4.140625,0.0402 4.140625,0.0409 4.140625,0.0416 4.140625,0.0423 4.140625,0.043 4.140625,0.0437 4.140625,0.0445 4.140625,0.0453 4.140625,0.0461 4.140625,0.0469 4.140625,0.0477 4.140625,0.0486 4.140625,0.0495 4.140625,0.0504 4.140625,0.0513 4.140625,0.0522 4.140625,0.0532 4.140625,0.0542 4.140625,0.0553 4.14063,0.0564 4.14062,0.0575 4.14063,0.0586 4.14062,0.0598 4.14063,0.061 4.14062,0.0622 4.14062,0.0635 4.14063,0.0648 4.14062,0.0662 4.14063,0.0676 4.14062,0.0691 4.14063,0.0706 4.14062,0.0721 4.14063,0.0737 4.14062,0.0754 4.14063,0.0771 4.14063,0.0789 4.14062,0.0807 4.14062,0.0826 4.14063,0.0846 4.14062,0.0866 4.14063,0.0887 4.14062,0.0909 4.14063,0.0932 4.14062,0.0955 4.14063,0.098 4.14062,0.10053 4.14063,0.10317 4.14062,0.10592 4.14063,0.10879 4.14062,0.11177 4.14063,0.11487 4.14062,0.11811 4.14063,0.12149 4.14062,0.125 4.14063,0.12868 4.14062,0.13253 4.14063,0.13653 4.14062,0.14074 4.14063,0.14514 4.14062,0.14975 4.14063,0.15457 4.14062,0.15965 4.14063,0.16496 4.14062,0.17056 4.14063,0.17644 4.14062,0.18263 4.14063,0.18915 4.14062,0.19603 4.14063,0.20329 4.14062,0.21096 4.14063,0.21908 4.14062,0.22767 4.14063,0.23677 4.14062,0.24644 4.14063,0.25671 4.14062,0.26763 4.14063,0.27926 4.14062,0.29168 4.14063,0.30494 4.14062,0.31912 4.14063,0.33431 4.14062,0.35062 4.14063,0.36816 4.14062,0.38703 4.14063,0.40741 4.14062,0.42942 4.14063,0.45329 4.14062,0.47918 4.14063,0.50738 4.14062,0.53812 4.14063,0.57175 4.14062,0.60865 4.14063,0.64922 4.14062,0.69399 4.14063,0.74356 4.14062,0.79864 4.14063,0.86008 4.14062,0.92888 4.14063,1.00629 4.14062,1.0938 4.14063,1.19322 4.14062,1.30687 4.14063,1.43756 4.14062,1.58888 4.14063,1.76542 4.14062,1.97311 4.14063,2.21976 4.14062,2.51572 4.14063,2.87511 4.14062,3.31744 4.14063,3.87035 4.14063,4.57404 4.14062,5.48885 4.14062,6.70859 4.14063,8.38575 2.07031,5.03144 2.07031,5.75023 2.07032,6.63487 2.07031,7.74069 2.07031,9.14809 1.03516,5.22747 1.03515,5.75023 1.03516,6.35551 1.03516,7.06168 1.03515,7.89246 1.03516,8.87903 0.51758,4.86914 0.51758,5.19375 0.51757,5.55194 0.51758,5.94851 0.51758,6.38914 0.51758,6.88061 0.51758,7.43106 0.51757,8.05031 0.51758,8.75034 0.51758,9.54583 0.25879,5.10591 0.25879,5.34904 0.25879,5.60998 0.25879,5.89047 0.25879,6.19255 0.25879,6.51848 0.25878,6.87082 0.25879,7.25254 0.25879,7.66696 0.25879,8.11797 0.25879,8.60996 0.25879,9.14808 0.25879,9.73829 0.12939,5.1086 0.1294,5.2789 0.12939,5.45784 0.1294,5.64604 0.12939,5.84415 0.1294,6.05287 0.12939,6.27297 0.1294,6.5053 0.12939,6.75079 0.12939,7.01044 0.1294,7.28535 0.12939,7.57676 m 12.93946,-772.8301843 0.12939,7.57676652 0.1294,7.28535248 0.12939,7.0104333 0.12939,6.750788 0.1294,6.505305 0.12939,6.272972 0.1294,6.052868 0.12939,5.844148 0.1294,5.646042 0.12939,5.45784 0.1294,5.278895 0.12939,5.108608 0.25879,9.738284 0.25879,9.148084 0.25879,8.609962 0.25879,8.117966 0.25879,7.66696 0.25879,7.25254 0.25878,6.87082 0.25879,6.51848 0.25879,6.19255 0.25879,5.89047 0.25879,5.60998 0.25879,5.34904 0.25879,5.10591 0.51758,9.54583 0.51757,8.75034 0.51758,8.05031 0.51758,7.43106 0.51758,6.88061 0.51758,6.38914 0.51758,5.94851 0.51757,5.55194 0.51758,5.19375 0.51758,4.86914 1.03516,8.87903 1.03515,7.89246 1.03516,7.06168 1.03515,6.35551 1.03516,5.75023 1.03516,5.22747 2.07031,9.14809 2.07031,7.74069 2.07031,6.63487 2.07032,5.75023 2.07031,5.03144 4.14062,8.38575 4.14063,6.70859 4.14062,5.48885 4.14063,4.57404 4.14062,3.87035 4.14063,3.31744 4.14062,2.87511 4.14063,2.51572 4.14062,2.21976 4.14063,1.97311 4.14062,1.76542 4.14063,1.58888 4.14062,1.43756 4.14063,1.30687 4.14062,1.19322 4.14063,1.0938 4.14062,1.00629 4.14063,0.92888 4.14062,0.86008 4.14063,0.79864 4.14062,0.74356 4.14063,0.69399 4.14062,0.64922 4.14063,0.60865 4.14062,0.57175 4.14063,0.53812 4.14062,0.50738 4.14063,0.47918 4.14062,0.45329 4.14063,0.42942 4.14062,0.40741 4.14063,0.38703 4.14062,0.36816 4.14063,0.35062 4.14062,0.33431 4.14063,0.31912 4.14062,0.30494 4.14063,0.29168 4.14062,0.27926 4.14063,0.26763 4.14062,0.25671 4.14063,0.24644 4.14062,0.23677 4.14063,0.22767 4.14062,0.21908 4.14063,0.21096 4.14062,0.20329 4.14063,0.19603 4.14062,0.18915 4.14063,0.18263 4.14062,0.17644 4.14063,0.17056 4.14062,0.16496 4.14063,0.15965 4.14062,0.15457 4.14063,0.14975 4.14062,0.14514 4.14063,0.14074 4.14062,0.13653 4.14063,0.13253 4.14062,0.12868 4.14063,0.125 4.14062,0.12149 4.14063,0.11811 4.14062,0.11487 4.14063,0.11177 4.14062,0.10879 4.14063,0.10592 4.14062,0.10317 4.14063,0.10053 4.14062,0.098 4.14063,0.0955 4.14062,0.0932 4.14063,0.0909 4.14062,0.0887 4.14063,0.0866 4.14062,0.0846 4.14063,0.0826 4.14062,0.0807 4.14063,0.0789 4.14062,0.0771 4.14063,0.0754 4.14062,0.0737 4.14063,0.0721 4.14062,0.0706 4.14063,0.0691 4.14062,0.0676 4.14063,0.0662 4.14062,0.0648 4.14063,0.0635 4.14062,0.0622 4.14063,0.061 4.14062,0.0598 4.14063,0.0586 4.14062,0.0575 4.14063,0.0564 4.14062,0.0553 4.14063,0.0542 4.14062,0.0532 4.14063,0.0522 4.14062,0.0513 4.14063,0.0504 4.14062,0.0495 4.14063,0.0486 4.14062,0.0477 4.14058,0.0469 4.1407,0.0461 4.1406,0.0453 4.1406,0.0445 4.1406,0.0437 4.1407,0.043 4.1406,0.0423 4.1406,0.0416 4.1407,0.0409 4.1406,0.0402 4.1406,0.0396 4.1406,0.0389 4.1407,0.0383 4.1406,0.0377 4.1406,0.0371"
         stroke-miterlimit="10"
         id="path229"
         inkscape:connector-curvature="0"
         style="fill:none;stroke:#6699ff;stroke-width:1.6891892;stroke-linecap:round;stroke-linejoin:round;stroke-miterlimit:10;stroke-opacity:0.8;paint-order:fill stroke markers" />
    </g>
  </g>
</svg>
