<?xml version="1.0" encoding="UTF-8" standalone="no"?>
<svg xmlns:dc="http://purl.org/dc/elements/1.1/" xmlns:cc="http://creativecommons.org/ns#" xmlns:rdf="http://www.w3.org/1999/02/22-rdf-syntax-ns#" xmlns:svg="http://www.w3.org/2000/svg" xmlns="http://www.w3.org/2000/svg" xmlns:sodipodi="http://sodipodi.sourceforge.net/DTD/sodipodi-0.dtd" xmlns:inkscape="http://www.inkscape.org/namespaces/inkscape" version="1.1" width="518" height="518" id="svg181" sodipodi:docname="dicontinuity-example-2.svg" inkscape:version="0.92.2 (5c3e80d, 2017-08-06)" viewBox="0 0 518 518">
  <metadata id="metadata185">
    <rdf:RDF>
      <cc:Work rdf:about="">
        <dc:format>image/svg+xml</dc:format>
        <dc:type rdf:resource="http://purl.org/dc/dcmitype/StillImage" />
        <dc:title>
        </dc:title>
      </cc:Work>
    </rdf:RDF>
  </metadata>
  <sodipodi:namedview pagecolor="#ffffff" bordercolor="#666666" borderopacity="1" objecttolerance="10" gridtolerance="10" guidetolerance="10" inkscape:pageopacity="0" inkscape:pageshadow="2" inkscape:window-width="725" inkscape:window-height="489" id="namedview183" showgrid="false" inkscape:zoom="1.3333333" inkscape:cx="397.82267" inkscape:cy="330.52245" inkscape:window-x="773" inkscape:window-y="972" inkscape:window-maximized="0" inkscape:current-layer="svg181" />
  <defs id="defs5">
    <clipPath id="KrCECiBzSNsT">
      <path d="M 0,0 H 854 V 708 H 0 Z" id="path2" inkscape:connector-curvature="0" style="fill:none;stroke:none" />
    </clipPath>
    <clipPath clipPathUnits="userSpaceOnUse" id="clipPath4683">
      <rect style="fill:#000000;fill-opacity:0.48275865;stroke-width:1" id="rect4685" width="350" height="350" x="217.55" y="190.25" />
    </clipPath>
  </defs>
  <g id="g4774" transform="matrix(1.48,0,0,1.48,-321.974,-0.37)" style="stroke-width:0.67567569">
    <g transform="translate(0,-190)" id="g179" clip-path="url(#clipPath4683)" style="stroke-width:0.67567569">
      <g id="g177" transform="translate(-138,-13)" style="stroke-width:0.67567569">
        <rect id="rect7" height="756" width="1060" y="0" x="0" fill="rgba(0,0,0,0)" />
        <path style="fill:none;stroke:#c0c0c0;stroke-width:0.67567569;stroke-linecap:round;stroke-linejoin:round;stroke-miterlimit:10;stroke-opacity:1;paint-order:fill stroke markers" inkscape:connector-curvature="0" id="path9" stroke-miterlimit="10" d="m 30.5,0.5 v 756 m 0,-756 v 756 m 50,-756 v 756 m 50,-756 v 756 m 50,-756 v 756 m 50,-756 v 756 m 50,-756 v 756 m 50,-756 v 756 m 50,-756 v 756 m 50,-756 v 756 m 50,-756 v 756 m 100,-756 v 756 m 50,-756 v 756 m 50,-756 v 756 m 50,-756 v 756 m 50,-756 v 756 m 50,-756 v 756 m 50,-756 v 756 m 50,-756 v 756 m 50,-756 v 756 m 50,-756 v 756" />
        <path style="fill:none;stroke:#c0c0c0;stroke-width:0.67567569;stroke-linecap:round;stroke-linejoin:round;stroke-miterlimit:10;stroke-opacity:0.23529412;paint-order:fill stroke markers" inkscape:connector-curvature="0" id="path11" stroke-miterlimit="10" d="m 0.5,0.5 v 756 m 10,-756 v 756 m 10,-756 v 756 m 20,-756 v 756 m 10,-756 v 756 m 10,-756 v 756 m 10,-756 v 756 m 20,-756 v 756 m 10,-756 v 756 m 10,-756 v 756 m 10,-756 v 756 m 20,-756 v 756 m 10,-756 v 756 m 10,-756 v 756 m 10,-756 v 756 m 20,-756 v 756 m 10,-756 v 756 m 10,-756 v 756 m 10,-756 v 756 m 20,-756 v 756 m 10,-756 v 756 m 10,-756 v 756 m 10,-756 v 756 m 20,-756 v 756 m 10,-756 v 756 m 10,-756 v 756 m 10,-756 v 756 m 20,-756 v 756 m 10,-756 v 756 m 10,-756 v 756 m 10,-756 v 756 m 20,-756 v 756 m 10,-756 v 756 m 10,-756 v 756 m 10,-756 v 756 m 20,-756 v 756 m 10,-756 v 756 m 10,-756 v 756 m 10,-756 v 756 m 20,-756 v 756 m 10,-756 v 756 m 10,-756 v 756 m 10,-756 v 756 m 20,-756 v 756 m 10,-756 v 756 m 10,-756 v 756 m 10,-756 v 756 m 20,-756 v 756 m 10,-756 v 756 m 10,-756 v 756 m 10,-756 v 756 m 20,-756 v 756 m 10,-756 v 756 m 10,-756 v 756 m 10,-756 v 756 m 20,-756 v 756 m 10,-756 v 756 m 10,-756 v 756 m 10,-756 v 756 m 20,-756 v 756 m 10,-756 v 756 m 10,-756 v 756 m 10,-756 v 756 m 20,-756 v 756 m 10,-756 v 756 m 10,-756 v 756 m 10,-756 v 756 m 20,-756 v 756 m 10,-756 v 756 m 10,-756 v 756 m 10,-756 v 756 m 20,-756 v 756 m 10,-756 v 756 m 10,-756 v 756 m 10,-756 v 756 m 20,-756 v 756 m 10,-756 v 756 m 9,-756 v 756 m 10,-756 v 756 m 20,-756 v 756 m 10,-756 v 756 m 10,-756 v 756 m 10,-756 v 756 m 20,-756 v 756 m 10,-756 v 756 m 10,-756 v 756" />
        <path style="fill:none;stroke:#c0c0c0;stroke-width:0.67567569;stroke-linecap:round;stroke-linejoin:round;stroke-miterlimit:10;stroke-opacity:1;paint-order:fill stroke markers" inkscape:connector-curvature="0" id="path13" stroke-miterlimit="10" d="m 0.5,27.5 h 1060 m -1060,0 h 1060 m -1060,50 h 1060 m -1060,50 h 1060 m -1060,50 h 1060 m -1060,50 h 1060 m -1060,50 h 1060 m -1060,50 h 1060 m -1060,101 h 1060 m -1060,50 h 1060 m -1060,50 h 1060 m -1060,50 h 1060 m -1060,50 h 1060 m -1060,50 h 1060 m -1060,50 h 1060" />
        <path style="fill:none;stroke:#c0c0c0;stroke-width:0.67567569;stroke-linecap:round;stroke-linejoin:round;stroke-miterlimit:10;stroke-opacity:0.23529412;paint-order:fill stroke markers" inkscape:connector-curvature="0" id="path15" stroke-miterlimit="10" d="m 0.5,7.5 h 1060 m -1060,0 h 1060 m -1060,10 h 1060 m -1060,20 h 1060 m -1060,10 h 1060 m -1060,10 h 1060 m -1060,10 h 1060 m -1060,20 h 1060 m -1060,10 h 1060 m -1060,10 h 1060 m -1060,10 h 1060 m -1060,20 h 1060 m -1060,10 h 1060 m -1060,10 h 1060 m -1060,10 h 1060 m -1060,20 h 1060 m -1060,10 h 1060 m -1060,10 h 1060 m -1060,10 h 1060 m -1060,20 h 1060 m -1060,10 h 1060 m -1060,10 h 1060 m -1060,10 h 1060 m -1060,20 h 1060 m -1060,10 h 1060 m -1060,10 h 1060 m -1060,10 h 1060 m -1060,20 h 1060 m -1060,11 h 1060 m -1060,10 h 1060 m -1060,10 h 1060 m -1060,20 h 1060 m -1060,10 h 1060 m -1060,10 h 1060 m -1060,10 h 1060 m -1060,20 h 1060 m -1060,10 h 1060 m -1060,10 h 1060 m -1060,10 h 1060 m -1060,20 h 1060 m -1060,10 h 1060 m -1060,10 h 1060 m -1060,10 h 1060 m -1060,20 h 1060 m -1060,10 h 1060 m -1060,10 h 1060 m -1060,10 h 1060 m -1060,20 h 1060 m -1060,10 h 1060 m -1060,10 h 1060 m -1060,10 h 1060 m -1060,20 h 1060 m -1060,10 h 1060 m -1060,10 h 1060 m -1060,10 h 1060 m -1060,20 h 1060 m -1060,10 h 1060 m -1060,10 h 1060 m -1060,10 h 1060 m -1060,20 h 1060 m -1060,10 h 1060" />
        <path style="fill:none;stroke:#000000;stroke-width:0.67567569;stroke-miterlimit:10;stroke-opacity:1;paint-order:fill stroke markers" inkscape:connector-curvature="0" id="path17" stroke-miterlimit="10" d="m 530.5,2.5 v 754" />
        <path style="fill:none;stroke:#000000;stroke-width:0.67567569;stroke-miterlimit:10;stroke-opacity:1;paint-order:fill stroke markers" inkscape:connector-curvature="0" id="path19" stroke-miterlimit="10" d="m 530.5,1.5 -4,4" />
        <path style="fill:none;stroke:#000000;stroke-width:0.67567569;stroke-miterlimit:10;stroke-opacity:1;paint-order:fill stroke markers" inkscape:connector-curvature="0" id="path21" stroke-miterlimit="10" d="m 530.5,1.5 4,4" />
        <path style="fill:none;stroke:#000000;stroke-width:0.67567569;stroke-miterlimit:10;stroke-opacity:1;paint-order:fill stroke markers" inkscape:connector-curvature="0" id="path23" stroke-miterlimit="10" d="m 0.5,378.5 h 1058" />
        <path style="fill:none;stroke:#000000;stroke-width:0.67567569;stroke-miterlimit:10;stroke-opacity:1;paint-order:fill stroke markers" inkscape:connector-curvature="0" id="path25" stroke-miterlimit="10" d="m 1059.5,378.5 -4,-4" />
        <path style="fill:none;stroke:#000000;stroke-width:0.67567569;stroke-miterlimit:10;stroke-opacity:1;paint-order:fill stroke markers" inkscape:connector-curvature="0" id="path27" stroke-miterlimit="10" d="m 1059.5,378.5 -4,4" />
        <text style="font-style:normal;font-weight:normal;font-size:12px;font-family:geogebra-sans-serif, sans-serif;dominant-baseline:alphabetic;text-anchor:start;fill:#000000;fill-opacity:1;stroke:none;stroke-width:0.67567569" id="text31" dominant-baseline="alphabetic" y="394" x="22" text-decoration="normal" font-weight="normal" font-style="normal" font-size="12px">–10</text>
        <text style="font-style:normal;font-weight:normal;font-size:12px;font-family:geogebra-sans-serif, sans-serif;dominant-baseline:alphabetic;text-anchor:start;fill:#000000;fill-opacity:1;stroke:none;stroke-width:0.67567569" id="text35" dominant-baseline="alphabetic" y="394" x="75" text-decoration="normal" font-weight="normal" font-style="normal" font-size="12px">–9</text>
        <text style="font-style:normal;font-weight:normal;font-size:12px;font-family:geogebra-sans-serif, sans-serif;dominant-baseline:alphabetic;text-anchor:start;fill:#000000;fill-opacity:1;stroke:none;stroke-width:0.67567569" id="text39" dominant-baseline="alphabetic" y="394" x="125" text-decoration="normal" font-weight="normal" font-style="normal" font-size="12px">–8</text>
        <text style="font-style:normal;font-weight:normal;font-size:12px;font-family:geogebra-sans-serif, sans-serif;dominant-baseline:alphabetic;text-anchor:start;fill:#000000;fill-opacity:1;stroke:none;stroke-width:0.67567569" id="text43" dominant-baseline="alphabetic" y="394" x="175" text-decoration="normal" font-weight="normal" font-style="normal" font-size="12px">–7</text>
        <text style="font-style:normal;font-weight:normal;font-size:12px;font-family:geogebra-sans-serif, sans-serif;dominant-baseline:alphabetic;text-anchor:start;fill:#000000;fill-opacity:1;stroke:none;stroke-width:0.67567569" id="text47" dominant-baseline="alphabetic" y="394" x="225" text-decoration="normal" font-weight="normal" font-style="normal" font-size="12px">–6</text>
        <text style="font-style:normal;font-weight:normal;font-size:12px;font-family:geogebra-sans-serif, sans-serif;dominant-baseline:alphabetic;text-anchor:start;fill:#000000;fill-opacity:1;stroke:none;stroke-width:0.67567569" id="text51" dominant-baseline="alphabetic" y="394" x="275" text-decoration="normal" font-weight="normal" font-style="normal" font-size="12px">–5</text>
        <text style="font-style:normal;font-weight:normal;font-size:12px;font-family:geogebra-sans-serif, sans-serif;dominant-baseline:alphabetic;text-anchor:start;fill:#000000;fill-opacity:1;stroke:none;stroke-width:0.67567569" id="text55" dominant-baseline="alphabetic" y="394" x="325" text-decoration="normal" font-weight="normal" font-style="normal" font-size="12px">–4</text>
        <text style="font-style:normal;font-weight:normal;font-size:12px;font-family:geogebra-sans-serif, sans-serif;dominant-baseline:alphabetic;text-anchor:start;fill:#000000;fill-opacity:1;stroke:none;stroke-width:0.67567569" id="text59" dominant-baseline="alphabetic" y="394" x="375" text-decoration="normal" font-weight="normal" font-style="normal" font-size="12px">–3</text>
        <text style="font-style:normal;font-weight:normal;font-size:12px;font-family:geogebra-sans-serif, sans-serif;dominant-baseline:alphabetic;text-anchor:start;fill:#000000;fill-opacity:1;stroke:none;stroke-width:0.67567569" id="text63" dominant-baseline="alphabetic" y="394" x="425" text-decoration="normal" font-weight="normal" font-style="normal" font-size="12px">–2</text>
        <text style="font-style:normal;font-weight:normal;font-size:12px;font-family:geogebra-sans-serif, sans-serif;dominant-baseline:alphabetic;text-anchor:start;fill:#000000;fill-opacity:1;stroke:none;stroke-width:0.67567569" id="text67" dominant-baseline="alphabetic" y="394" x="475" text-decoration="normal" font-weight="normal" font-style="normal" font-size="12px">–1</text>
        <text style="font-style:normal;font-weight:normal;font-size:12px;font-family:geogebra-sans-serif, sans-serif;dominant-baseline:alphabetic;text-anchor:start;fill:#000000;fill-opacity:1;stroke:none;stroke-width:0.67567569" id="text71" dominant-baseline="alphabetic" y="394" x="578" text-decoration="normal" font-weight="normal" font-style="normal" font-size="12px">1</text>
        <text style="font-style:normal;font-weight:normal;font-size:12px;font-family:geogebra-sans-serif, sans-serif;dominant-baseline:alphabetic;text-anchor:start;fill:#000000;fill-opacity:1;stroke:none;stroke-width:0.67567569" id="text75" dominant-baseline="alphabetic" y="394" x="628" text-decoration="normal" font-weight="normal" font-style="normal" font-size="12px">2</text>
        <text style="font-style:normal;font-weight:normal;font-size:12px;font-family:geogebra-sans-serif, sans-serif;dominant-baseline:alphabetic;text-anchor:start;fill:#000000;fill-opacity:1;stroke:none;stroke-width:0.67567569" id="text79" dominant-baseline="alphabetic" y="394" x="678" text-decoration="normal" font-weight="normal" font-style="normal" font-size="12px">3</text>
        <text style="font-style:normal;font-weight:normal;font-size:12px;font-family:geogebra-sans-serif, sans-serif;dominant-baseline:alphabetic;text-anchor:start;fill:#000000;fill-opacity:1;stroke:none;stroke-width:0.67567569" id="text83" dominant-baseline="alphabetic" y="394" x="728" text-decoration="normal" font-weight="normal" font-style="normal" font-size="12px">4</text>
        <text style="font-style:normal;font-weight:normal;font-size:12px;font-family:geogebra-sans-serif, sans-serif;dominant-baseline:alphabetic;text-anchor:start;fill:#000000;fill-opacity:1;stroke:none;stroke-width:0.67567569" id="text87" dominant-baseline="alphabetic" y="394" x="778" text-decoration="normal" font-weight="normal" font-style="normal" font-size="12px">5</text>
        <text style="font-style:normal;font-weight:normal;font-size:12px;font-family:geogebra-sans-serif, sans-serif;dominant-baseline:alphabetic;text-anchor:start;fill:#000000;fill-opacity:1;stroke:none;stroke-width:0.67567569" id="text91" dominant-baseline="alphabetic" y="394" x="828" text-decoration="normal" font-weight="normal" font-style="normal" font-size="12px">6</text>
        <text style="font-style:normal;font-weight:normal;font-size:12px;font-family:geogebra-sans-serif, sans-serif;dominant-baseline:alphabetic;text-anchor:start;fill:#000000;fill-opacity:1;stroke:none;stroke-width:0.67567569" id="text95" dominant-baseline="alphabetic" y="394" x="878" text-decoration="normal" font-weight="normal" font-style="normal" font-size="12px">7</text>
        <text style="font-style:normal;font-weight:normal;font-size:12px;font-family:geogebra-sans-serif, sans-serif;dominant-baseline:alphabetic;text-anchor:start;fill:#000000;fill-opacity:1;stroke:none;stroke-width:0.67567569" id="text99" dominant-baseline="alphabetic" y="394" x="928" text-decoration="normal" font-weight="normal" font-style="normal" font-size="12px">8</text>
        <text style="font-style:normal;font-weight:normal;font-size:12px;font-family:geogebra-sans-serif, sans-serif;dominant-baseline:alphabetic;text-anchor:start;fill:#000000;fill-opacity:1;stroke:none;stroke-width:0.67567569" id="text103" dominant-baseline="alphabetic" y="394" x="978" text-decoration="normal" font-weight="normal" font-style="normal" font-size="12px">9</text>
        <text style="font-style:normal;font-weight:normal;font-size:12px;font-family:geogebra-sans-serif, sans-serif;dominant-baseline:alphabetic;text-anchor:start;fill:#000000;fill-opacity:1;stroke:none;stroke-width:0.67567569" id="text107" dominant-baseline="alphabetic" y="394" x="1025" text-decoration="normal" font-weight="normal" font-style="normal" font-size="12px">10</text>
        <text style="font-style:normal;font-weight:normal;font-size:12px;font-family:geogebra-sans-serif, sans-serif;dominant-baseline:alphabetic;text-anchor:start;fill:#000000;fill-opacity:1;stroke:none;stroke-width:0.67567569" id="text111" dominant-baseline="alphabetic" y="733" x="510" text-decoration="normal" font-weight="normal" font-style="normal" font-size="12px">–7</text>
        <text style="font-style:normal;font-weight:normal;font-size:12px;font-family:geogebra-sans-serif, sans-serif;dominant-baseline:alphabetic;text-anchor:start;fill:#000000;fill-opacity:1;stroke:none;stroke-width:0.67567569" id="text115" dominant-baseline="alphabetic" y="683" x="510" text-decoration="normal" font-weight="normal" font-style="normal" font-size="12px">–6</text>
        <text style="font-style:normal;font-weight:normal;font-size:12px;font-family:geogebra-sans-serif, sans-serif;dominant-baseline:alphabetic;text-anchor:start;fill:#000000;fill-opacity:1;stroke:none;stroke-width:0.67567569" id="text119" dominant-baseline="alphabetic" y="633" x="510" text-decoration="normal" font-weight="normal" font-style="normal" font-size="12px">–5</text>
        <text style="font-style:normal;font-weight:normal;font-size:12px;font-family:geogebra-sans-serif, sans-serif;dominant-baseline:alphabetic;text-anchor:start;fill:#000000;fill-opacity:1;stroke:none;stroke-width:0.67567569" id="text123" dominant-baseline="alphabetic" y="583" x="510" text-decoration="normal" font-weight="normal" font-style="normal" font-size="12px">–4</text>
        <text style="font-style:normal;font-weight:normal;font-size:12px;font-family:geogebra-sans-serif, sans-serif;dominant-baseline:alphabetic;text-anchor:start;fill:#000000;fill-opacity:1;stroke:none;stroke-width:0.67567569" id="text127" dominant-baseline="alphabetic" y="533" x="510" text-decoration="normal" font-weight="normal" font-style="normal" font-size="12px">–3</text>
        <text style="font-style:normal;font-weight:normal;font-size:12px;font-family:geogebra-sans-serif, sans-serif;dominant-baseline:alphabetic;text-anchor:start;fill:#000000;fill-opacity:1;stroke:none;stroke-width:0.67567569" id="text131" dominant-baseline="alphabetic" y="482" x="510" text-decoration="normal" font-weight="normal" font-style="normal" font-size="12px">–2</text>
        <text style="font-style:normal;font-weight:normal;font-size:12px;font-family:geogebra-sans-serif, sans-serif;dominant-baseline:alphabetic;text-anchor:start;fill:#000000;fill-opacity:1;stroke:none;stroke-width:0.67567569" id="text135" dominant-baseline="alphabetic" y="432" x="510" text-decoration="normal" font-weight="normal" font-style="normal" font-size="12px">–1</text>
        <text style="font-style:normal;font-weight:normal;font-size:12px;font-family:geogebra-sans-serif, sans-serif;dominant-baseline:alphabetic;text-anchor:start;fill:#000000;fill-opacity:1;stroke:none;stroke-width:0.67567569" id="text139" dominant-baseline="alphabetic" y="332" x="517" text-decoration="normal" font-weight="normal" font-style="normal" font-size="12px">1</text>
        <text style="font-style:normal;font-weight:normal;font-size:12px;font-family:geogebra-sans-serif, sans-serif;dominant-baseline:alphabetic;text-anchor:start;fill:#000000;fill-opacity:1;stroke:none;stroke-width:0.67567569" id="text143" dominant-baseline="alphabetic" y="282" x="517" text-decoration="normal" font-weight="normal" font-style="normal" font-size="12px">2</text>
        <text style="font-style:normal;font-weight:normal;font-size:12px;font-family:geogebra-sans-serif, sans-serif;dominant-baseline:alphabetic;text-anchor:start;fill:#000000;fill-opacity:1;stroke:none;stroke-width:0.67567569" id="text147" dominant-baseline="alphabetic" y="232" x="517" text-decoration="normal" font-weight="normal" font-style="normal" font-size="12px">3</text>
        <text style="font-style:normal;font-weight:normal;font-size:12px;font-family:geogebra-sans-serif, sans-serif;dominant-baseline:alphabetic;text-anchor:start;fill:#000000;fill-opacity:1;stroke:none;stroke-width:0.67567569" id="text151" dominant-baseline="alphabetic" y="182" x="517" text-decoration="normal" font-weight="normal" font-style="normal" font-size="12px">4</text>
        <text style="font-style:normal;font-weight:normal;font-size:12px;font-family:geogebra-sans-serif, sans-serif;dominant-baseline:alphabetic;text-anchor:start;fill:#000000;fill-opacity:1;stroke:none;stroke-width:0.67567569" id="text155" dominant-baseline="alphabetic" y="132" x="517" text-decoration="normal" font-weight="normal" font-style="normal" font-size="12px">5</text>
        <text style="font-style:normal;font-weight:normal;font-size:12px;font-family:geogebra-sans-serif, sans-serif;dominant-baseline:alphabetic;text-anchor:start;fill:#000000;fill-opacity:1;stroke:none;stroke-width:0.67567569" id="text159" dominant-baseline="alphabetic" y="82" x="517" text-decoration="normal" font-weight="normal" font-style="normal" font-size="12px">6</text>
        <text style="font-style:normal;font-weight:normal;font-size:12px;font-family:geogebra-sans-serif, sans-serif;dominant-baseline:alphabetic;text-anchor:start;fill:#000000;fill-opacity:1;stroke:none;stroke-width:0.67567569" id="text163" dominant-baseline="alphabetic" y="32" x="517" text-decoration="normal" font-weight="normal" font-style="normal" font-size="12px">7</text>
        <text style="font-style:normal;font-weight:normal;font-size:12px;font-family:geogebra-sans-serif, sans-serif;dominant-baseline:alphabetic;text-anchor:start;fill:#000000;fill-opacity:1;stroke:none;stroke-width:0.67567569" id="text167" dominant-baseline="alphabetic" y="394" x="517" text-decoration="normal" font-weight="normal" font-style="normal" font-size="12px">0</text>
        <path style="fill:none;stroke:#6699ff;stroke-width:1.68918931;stroke-linecap:round;stroke-linejoin:round;stroke-miterlimit:10;stroke-opacity:0.8;paint-order:fill stroke markers" inkscape:connector-curvature="0" id="path169" stroke-miterlimit="10" d="m 0,428 h 4.140625 4.140625 4.140625 4.140625 4.140625 4.140625 4.140625 4.140625 4.140625 4.140625 4.140625 4.140625 4.140625 4.140625 4.140625 4.140625 4.140625 4.140625 4.140625 4.140625 4.140625 4.140625 4.140625 4.140625 4.14062 4.14063 4.14063 4.14062 4.14063 4.14062 4.14062 4.14063 4.14062 4.14063 4.14062 4.14063 4.14062 4.14063 4.14062 4.14063 4.14062 4.14063 4.14062 4.14063 4.14062 4.14063 4.14062 4.14063 4.14062 4.14063 4.14062 4.14063 4.14062 4.14063 4.14062 4.14063 4.14062 4.14063 4.14062 4.14063 4.14062 4.14063 4.14062 4.14063 4.14062 4.14063 4.14062 4.14063 4.14062 4.14063 4.14062 4.14063 4.14062 4.14063 4.14062 4.14063 4.14062 4.14063 4.14062 4.14063 4.14062 4.14063 4.14062 4.14063 4.14062 4.14063 4.14062 4.14063 4.14062 4.14063 4.14062 4.14063 4.14062 4.14063 4.14062 4.14063 4.14062 4.14063 4.14062 4.14063 4.14062 4.14063 4.14062 4.14063 4.14062 4.14063 4.14062 4.14063 4.14062 4.14063 4.14062 4.14063 4.14062 4.14063 4.14063 l 4.14062,-0.3125 0.51758,-0.51758 0.51758,-0.51758 1.03515,-1.03515 2.07031,-2.07031 4.14063,-4.14063 4.14062,-4.14062 4.14063,-4.14063 4.14062,-4.14062 4.14063,-4.14063 4.14062,-4.14063 4.14063,-4.14062 4.14062,-4.14063 4.14063,-4.14062 4.14062,-4.14063 L 530,378 l 4.14062,-4.14062 4.14063,-4.14063 4.14062,-4.14063 4.14063,-4.14062 4.14062,-4.14063 4.14063,-4.14062 4.14062,-4.14063 4.14063,-4.14062 4.14062,-4.14063 4.14063,-4.14062 4.14062,-4.14063 4.14063,-4.14062 4.14062,-4.14063 4.14063,-4.14062 4.14062,-4.14063 4.14063,-4.14062 4.14062,-4.14063 4.14063,-4.14062 4.14062,-4.14063 4.14063,-4.14062 4.14062,-4.14063 4.14063,-4.14062 4.14062,-4.14063 4.14063,-4.14062 0.51758,-0.51758 L 630.41016,278 h 1.03515 2.07031 4.14063 4.14062 4.14063 4.14062 4.14063 4.14062 4.14063 4.14062 4.14063 4.14062 4.14063 4.14062 4.14063 4.14062 4.14063 4.14062 4.14063 4.14062 4.14063 4.14062 4.14063 4.14062 4.14063 4.14062 4.14063 4.14062 4.14063 4.14062 4.14063 4.14062 4.14063 4.14062 4.14063 4.14062 4.14063 4.14062 4.14063 4.14062 4.14063 4.14062 4.14063 4.14062 4.14063 4.14062 4.14063 4.14062 4.14063 4.14062 4.14063 4.14062 4.14063 4.14062 4.14063 4.14062 4.14063 4.14062 4.14063 4.14062 4.14063 4.14062 4.14063 4.14063 4.14062 4.14062 4.14063 4.14062 4.14063 4.14062 4.14063 4.14062 4.14063 4.14062 4.14063 4.14062 4.14063 4.14062 4.14063 4.14062 4.14063 4.14062 4.14063 4.14062 4.14063 4.14062 4.14063 4.14062 4.14063 4.14062 4.14058 4.1407 4.1406 4.1406 4.1406 4.1407 4.1406 4.1406 4.1407 4.1406 4.1406 4.1406 4.1407 4.1406 4.1406" />
        <path style="fill:#6699ff;fill-opacity:1;stroke:none;stroke-width:0.67567569;paint-order:stroke fill markers" inkscape:connector-curvature="0" id="path171" d="m 635,228 c 0,2.76142 -2.23858,5 -5,5 -2.76142,0 -5,-2.23858 -5,-5 0,-2.76142 2.23858,-5 5,-5 2.76142,0 5,2.23858 5,5 z" />
        <path style="fill:#ffffff;fill-opacity:1;stroke:none;stroke-width:0.67567569;paint-order:stroke fill markers" inkscape:connector-curvature="0" id="path173" d="m 635,278 c 0,2.76142 -2.23858,5 -5,5 -2.76142,0 -5,-2.23858 -5,-5 0,-2.76142 2.23858,-5 5,-5 2.76142,0 5,2.23858 5,5 z" />
        <path style="fill:none;stroke:#6699ff;stroke-width:1.68918931;stroke-linecap:square;stroke-miterlimit:10;stroke-opacity:1;paint-order:fill stroke markers" inkscape:connector-curvature="0" id="path175" stroke-miterlimit="10" d="m 635,278 c 0,2.76142 -2.23858,5 -5,5 -2.76142,0 -5,-2.23858 -5,-5 0,-2.76142 2.23858,-5 5,-5 2.76142,0 5,2.23858 5,5 z" />
      </g>
    </g>
  </g>
</svg>