<svg version="1.1" xmlns="http://www.w3.org/2000/svg" xmlns:xlink="http://www.w3.org/1999/xlink" width="310" height="300" viewBox="0 0 310 300"><defs><clipPath id="lypeQaGorLRB"><path fill="none" stroke="none" d=" M 0 0 L 310 0 L 310 300 L 0 300 L 0 0 Z"/></clipPath></defs><g transform="scale(1,1)" clip-path="url(#lypeQaGorLRB)"><g transform="translate(-550,-212)"><rect fill="rgba(255,255,255,0)" stroke="none" x="0" y="0" width="1300" height="886" fill-opacity="1"/><path fill="none" stroke="rgb(192,192,192)" paint-order="fill stroke markers" d=" M 0.5 0.5 L 0.5 886.5 M 0.5 0.5 L 0.5 886.5 M 50.5 0.5 L 50.5 886.5 M 100.5 0.5 L 100.5 886.5 M 150.5 0.5 L 150.5 886.5 M 200.5 0.5 L 200.5 886.5 M 250.5 0.5 L 250.5 886.5 M 300.5 0.5 L 300.5 886.5 M 350.5 0.5 L 350.5 886.5 M 400.5 0.5 L 400.5 886.5 M 450.5 0.5 L 450.5 886.5 M 500.5 0.5 L 500.5 886.5 M 550.5 0.5 L 550.5 886.5 M 600.5 0.5 L 600.5 886.5 M 700.5 0.5 L 700.5 886.5 M 750.5 0.5 L 750.5 886.5 M 800.5 0.5 L 800.5 886.5 M 850.5 0.5 L 850.5 886.5 M 900.5 0.5 L 900.5 886.5 M 950.5 0.5 L 950.5 886.5 M 1000.5 0.5 L 1000.5 886.5 M 1050.5 0.5 L 1050.5 886.5 M 1100.5 0.5 L 1100.5 886.5 M 1150.5 0.5 L 1150.5 886.5 M 1200.5 0.5 L 1200.5 886.5 M 1250.5 0.5 L 1250.5 886.5 M 1300.5 0.5 L 1300.5 886.5" stroke-opacity="1" stroke-linecap="round" stroke-linejoin="round" stroke-miterlimit="10"/><path fill="none" stroke="rgb(192,192,192)" paint-order="fill stroke markers" d=" M 10.5 0.5 L 10.5 886.5 M 20.5 0.5 L 20.5 886.5 M 30.5 0.5 L 30.5 886.5 M 40.5 0.5 L 40.5 886.5 M 60.5 0.5 L 60.5 886.5 M 70.5 0.5 L 70.5 886.5 M 80.5 0.5 L 80.5 886.5 M 90.5 0.5 L 90.5 886.5 M 110.5 0.5 L 110.5 886.5 M 120.5 0.5 L 120.5 886.5 M 130.5 0.5 L 130.5 886.5 M 140.5 0.5 L 140.5 886.5 M 160.5 0.5 L 160.5 886.5 M 170.5 0.5 L 170.5 886.5 M 180.5 0.5 L 180.5 886.5 M 190.5 0.5 L 190.5 886.5 M 210.5 0.5 L 210.5 886.5 M 220.5 0.5 L 220.5 886.5 M 230.5 0.5 L 230.5 886.5 M 240.5 0.5 L 240.5 886.5 M 260.5 0.5 L 260.5 886.5 M 270.5 0.5 L 270.5 886.5 M 280.5 0.5 L 280.5 886.5 M 290.5 0.5 L 290.5 886.5 M 310.5 0.5 L 310.5 886.5 M 320.5 0.5 L 320.5 886.5 M 330.5 0.5 L 330.5 886.5 M 340.5 0.5 L 340.5 886.5 M 360.5 0.5 L 360.5 886.5 M 370.5 0.5 L 370.5 886.5 M 380.5 0.5 L 380.5 886.5 M 390.5 0.5 L 390.5 886.5 M 410.5 0.5 L 410.5 886.5 M 420.5 0.5 L 420.5 886.5 M 430.5 0.5 L 430.5 886.5 M 440.5 0.5 L 440.5 886.5 M 460.5 0.5 L 460.5 886.5 M 470.5 0.5 L 470.5 886.5 M 480.5 0.5 L 480.5 886.5 M 490.5 0.5 L 490.5 886.5 M 510.5 0.5 L 510.5 886.5 M 520.5 0.5 L 520.5 886.5 M 530.5 0.5 L 530.5 886.5 M 540.5 0.5 L 540.5 886.5 M 560.5 0.5 L 560.5 886.5 M 570.5 0.5 L 570.5 886.5 M 580.5 0.5 L 580.5 886.5 M 590.5 0.5 L 590.5 886.5 M 610.5 0.5 L 610.5 886.5 M 620.5 0.5 L 620.5 886.5 M 630.5 0.5 L 630.5 886.5 M 640.5 0.5 L 640.5 886.5 M 660.5 0.5 L 660.5 886.5 M 670.5 0.5 L 670.5 886.5 M 680.5 0.5 L 680.5 886.5 M 690.5 0.5 L 690.5 886.5 M 710.5 0.5 L 710.5 886.5 M 720.5 0.5 L 720.5 886.5 M 730.5 0.5 L 730.5 886.5 M 740.5 0.5 L 740.5 886.5 M 760.5 0.5 L 760.5 886.5 M 770.5 0.5 L 770.5 886.5 M 780.5 0.5 L 780.5 886.5 M 790.5 0.5 L 790.5 886.5 M 810.5 0.5 L 810.5 886.5 M 820.5 0.5 L 820.5 886.5 M 830.5 0.5 L 830.5 886.5 M 840.5 0.5 L 840.5 886.5 M 860.5 0.5 L 860.5 886.5 M 870.5 0.5 L 870.5 886.5 M 880.5 0.5 L 880.5 886.5 M 890.5 0.5 L 890.5 886.5 M 910.5 0.5 L 910.5 886.5 M 920.5 0.5 L 920.5 886.5 M 930.5 0.5 L 930.5 886.5 M 940.5 0.5 L 940.5 886.5 M 960.5 0.5 L 960.5 886.5 M 970.5 0.5 L 970.5 886.5 M 980.5 0.5 L 980.5 886.5 M 990.5 0.5 L 990.5 886.5 M 1010.5 0.5 L 1010.5 886.5 M 1020.5 0.5 L 1020.5 886.5 M 1030.5 0.5 L 1030.5 886.5 M 1040.5 0.5 L 1040.5 886.5 M 1060.5 0.5 L 1060.5 886.5 M 1070.5 0.5 L 1070.5 886.5 M 1080.5 0.5 L 1080.5 886.5 M 1090.5 0.5 L 1090.5 886.5 M 1110.5 0.5 L 1110.5 886.5 M 1120.5 0.5 L 1120.5 886.5 M 1130.5 0.5 L 1130.5 886.5 M 1140.5 0.5 L 1140.5 886.5 M 1160.5 0.5 L 1160.5 886.5 M 1170.5 0.5 L 1170.5 886.5 M 1180.5 0.5 L 1180.5 886.5 M 1190.5 0.5 L 1190.5 886.5 M 1210.5 0.5 L 1210.5 886.5 M 1220.5 0.5 L 1220.5 886.5 M 1230.5 0.5 L 1230.5 886.5 M 1240.5 0.5 L 1240.5 886.5 M 1260.5 0.5 L 1260.5 886.5 M 1270.5 0.5 L 1270.5 886.5 M 1280.5 0.5 L 1280.5 886.5 M 1290.5 0.5 L 1290.5 886.5" stroke-opacity="0.23529411764705882" stroke-linecap="round" stroke-linejoin="round" stroke-miterlimit="10"/><path fill="none" stroke="rgb(192,192,192)" paint-order="fill stroke markers" d=" M 0.5 42.5 L 1300.5 42.5 M 0.5 42.5 L 1300.5 42.5 M 0.5 92.5 L 1300.5 92.5 M 0.5 142.5 L 1300.5 142.5 M 0.5 192.5 L 1300.5 192.5 M 0.5 242.5 L 1300.5 242.5 M 0.5 292.5 L 1300.5 292.5 M 0.5 342.5 L 1300.5 342.5 M 0.5 392.5 L 1300.5 392.5 M 0.5 493.5 L 1300.5 493.5 M 0.5 543.5 L 1300.5 543.5 M 0.5 593.5 L 1300.5 593.5 M 0.5 643.5 L 1300.5 643.5 M 0.5 693.5 L 1300.5 693.5 M 0.5 743.5 L 1300.5 743.5 M 0.5 793.5 L 1300.5 793.5 M 0.5 843.5 L 1300.5 843.5" stroke-opacity="1" stroke-linecap="round" stroke-linejoin="round" stroke-miterlimit="10"/><path fill="none" stroke="rgb(192,192,192)" paint-order="fill stroke markers" d=" M 0.5 2.5 L 1300.5 2.5 M 0.5 12.5 L 1300.5 12.5 M 0.5 22.5 L 1300.5 22.5 M 0.5 32.5 L 1300.5 32.5 M 0.5 52.5 L 1300.5 52.5 M 0.5 62.5 L 1300.5 62.5 M 0.5 72.5 L 1300.5 72.5 M 0.5 82.5 L 1300.5 82.5 M 0.5 102.5 L 1300.5 102.5 M 0.5 112.5 L 1300.5 112.5 M 0.5 122.5 L 1300.5 122.5 M 0.5 132.5 L 1300.5 132.5 M 0.5 152.5 L 1300.5 152.5 M 0.5 162.5 L 1300.5 162.5 M 0.5 172.5 L 1300.5 172.5 M 0.5 182.5 L 1300.5 182.5 M 0.5 202.5 L 1300.5 202.5 M 0.5 212.5 L 1300.5 212.5 M 0.5 222.5 L 1300.5 222.5 M 0.5 232.5 L 1300.5 232.5 M 0.5 252.5 L 1300.5 252.5 M 0.5 262.5 L 1300.5 262.5 M 0.5 272.5 L 1300.5 272.5 M 0.5 282.5 L 1300.5 282.5 M 0.5 302.5 L 1300.5 302.5 M 0.5 312.5 L 1300.5 312.5 M 0.5 322.5 L 1300.5 322.5 M 0.5 332.5 L 1300.5 332.5 M 0.5 352.5 L 1300.5 352.5 M 0.5 362.5 L 1300.5 362.5 M 0.5 372.5 L 1300.5 372.5 M 0.5 382.5 L 1300.5 382.5 M 0.5 402.5 L 1300.5 402.5 M 0.5 412.5 L 1300.5 412.5 M 0.5 423.5 L 1300.5 423.5 M 0.5 433.5 L 1300.5 433.5 M 0.5 453.5 L 1300.5 453.5 M 0.5 463.5 L 1300.5 463.5 M 0.5 473.5 L 1300.5 473.5 M 0.5 483.5 L 1300.5 483.5 M 0.5 503.5 L 1300.5 503.5 M 0.5 513.5 L 1300.5 513.5 M 0.5 523.5 L 1300.5 523.5 M 0.5 533.5 L 1300.5 533.5 M 0.5 553.5 L 1300.5 553.5 M 0.5 563.5 L 1300.5 563.5 M 0.5 573.5 L 1300.5 573.5 M 0.5 583.5 L 1300.5 583.5 M 0.5 603.5 L 1300.5 603.5 M 0.5 613.5 L 1300.5 613.5 M 0.5 623.5 L 1300.5 623.5 M 0.5 633.5 L 1300.5 633.5 M 0.5 653.5 L 1300.5 653.5 M 0.5 663.5 L 1300.5 663.5 M 0.5 673.5 L 1300.5 673.5 M 0.5 683.5 L 1300.5 683.5 M 0.5 703.5 L 1300.5 703.5 M 0.5 713.5 L 1300.5 713.5 M 0.5 723.5 L 1300.5 723.5 M 0.5 733.5 L 1300.5 733.5 M 0.5 753.5 L 1300.5 753.5 M 0.5 763.5 L 1300.5 763.5 M 0.5 773.5 L 1300.5 773.5 M 0.5 783.5 L 1300.5 783.5 M 0.5 803.5 L 1300.5 803.5 M 0.5 813.5 L 1300.5 813.5 M 0.5 823.5 L 1300.5 823.5 M 0.5 833.5 L 1300.5 833.5 M 0.5 853.5 L 1300.5 853.5 M 0.5 863.5 L 1300.5 863.5 M 0.5 873.5 L 1300.5 873.5 M 0.5 883.5 L 1300.5 883.5" stroke-opacity="0.23529411764705882" stroke-linecap="round" stroke-linejoin="round" stroke-miterlimit="10"/><path fill="none" stroke="rgb(0,0,0)" paint-order="fill stroke markers" d=" M 650.5 2.5 L 650.5 886.5" stroke-opacity="1" stroke-miterlimit="10"/><path fill="none" stroke="rgb(0,0,0)" paint-order="fill stroke markers" d=" M 650.5 1.5 L 646.5 5.5" stroke-opacity="1" stroke-miterlimit="10"/><path fill="none" stroke="rgb(0,0,0)" paint-order="fill stroke markers" d=" M 650.5 1.5 L 654.5 5.5" stroke-opacity="1" stroke-miterlimit="10"/><path fill="none" stroke="rgb(0,0,0)" paint-order="fill stroke markers" d=" M 0.5 443.5 L 1298.5 443.5" stroke-opacity="1" stroke-miterlimit="10"/><path fill="none" stroke="rgb(0,0,0)" paint-order="fill stroke markers" d=" M 1299.5 443.5 L 1295.5 439.5" stroke-opacity="1" stroke-miterlimit="10"/><path fill="none" stroke="rgb(0,0,0)" paint-order="fill stroke markers" d=" M 1299.5 443.5 L 1295.5 447.5" stroke-opacity="1" stroke-miterlimit="10"/><text fill="none" stroke="rgb(255,255,255)" font-family="geogebra-sans-serif, sans-serif" font-size="12px" font-style="normal" font-weight="normal" text-decoration="normal" x="42" y="459" text-anchor="start" dominant-baseline="alphabetic" stroke-opacity="1" stroke-linejoin="bevel" stroke-miterlimit="10" stroke-width="3">–12</text><text fill="rgb(0,0,0)" stroke="none" font-family="geogebra-sans-serif, sans-serif" font-size="12px" font-style="normal" font-weight="normal" text-decoration="normal" x="42" y="459" text-anchor="start" dominant-baseline="alphabetic" fill-opacity="1">–12</text><text fill="none" stroke="rgb(255,255,255)" font-family="geogebra-sans-serif, sans-serif" font-size="12px" font-style="normal" font-weight="normal" text-decoration="normal" x="92" y="459" text-anchor="start" dominant-baseline="alphabetic" stroke-opacity="1" stroke-linejoin="bevel" stroke-miterlimit="10" stroke-width="3">–11</text><text fill="rgb(0,0,0)" stroke="none" font-family="geogebra-sans-serif, sans-serif" font-size="12px" font-style="normal" font-weight="normal" text-decoration="normal" x="92" y="459" text-anchor="start" dominant-baseline="alphabetic" fill-opacity="1">–11</text><text fill="none" stroke="rgb(255,255,255)" font-family="geogebra-sans-serif, sans-serif" font-size="12px" font-style="normal" font-weight="normal" text-decoration="normal" x="142" y="459" text-anchor="start" dominant-baseline="alphabetic" stroke-opacity="1" stroke-linejoin="bevel" stroke-miterlimit="10" stroke-width="3">–10</text><text fill="rgb(0,0,0)" stroke="none" font-family="geogebra-sans-serif, sans-serif" font-size="12px" font-style="normal" font-weight="normal" text-decoration="normal" x="142" y="459" text-anchor="start" dominant-baseline="alphabetic" fill-opacity="1">–10</text><text fill="none" stroke="rgb(255,255,255)" font-family="geogebra-sans-serif, sans-serif" font-size="12px" font-style="normal" font-weight="normal" text-decoration="normal" x="195" y="459" text-anchor="start" dominant-baseline="alphabetic" stroke-opacity="1" stroke-linejoin="bevel" stroke-miterlimit="10" stroke-width="3">–9</text><text fill="rgb(0,0,0)" stroke="none" font-family="geogebra-sans-serif, sans-serif" font-size="12px" font-style="normal" font-weight="normal" text-decoration="normal" x="195" y="459" text-anchor="start" dominant-baseline="alphabetic" fill-opacity="1">–9</text><text fill="none" stroke="rgb(255,255,255)" font-family="geogebra-sans-serif, sans-serif" font-size="12px" font-style="normal" font-weight="normal" text-decoration="normal" x="245" y="459" text-anchor="start" dominant-baseline="alphabetic" stroke-opacity="1" stroke-linejoin="bevel" stroke-miterlimit="10" stroke-width="3">–8</text><text fill="rgb(0,0,0)" stroke="none" font-family="geogebra-sans-serif, sans-serif" font-size="12px" font-style="normal" font-weight="normal" text-decoration="normal" x="245" y="459" text-anchor="start" dominant-baseline="alphabetic" fill-opacity="1">–8</text><text fill="none" stroke="rgb(255,255,255)" font-family="geogebra-sans-serif, sans-serif" font-size="12px" font-style="normal" font-weight="normal" text-decoration="normal" x="295" y="459" text-anchor="start" dominant-baseline="alphabetic" stroke-opacity="1" stroke-linejoin="bevel" stroke-miterlimit="10" stroke-width="3">–7</text><text fill="rgb(0,0,0)" stroke="none" font-family="geogebra-sans-serif, sans-serif" font-size="12px" font-style="normal" font-weight="normal" text-decoration="normal" x="295" y="459" text-anchor="start" dominant-baseline="alphabetic" fill-opacity="1">–7</text><text fill="none" stroke="rgb(255,255,255)" font-family="geogebra-sans-serif, sans-serif" font-size="12px" font-style="normal" font-weight="normal" text-decoration="normal" x="345" y="459" text-anchor="start" dominant-baseline="alphabetic" stroke-opacity="1" stroke-linejoin="bevel" stroke-miterlimit="10" stroke-width="3">–6</text><text fill="rgb(0,0,0)" stroke="none" font-family="geogebra-sans-serif, sans-serif" font-size="12px" font-style="normal" font-weight="normal" text-decoration="normal" x="345" y="459" text-anchor="start" dominant-baseline="alphabetic" fill-opacity="1">–6</text><text fill="none" stroke="rgb(255,255,255)" font-family="geogebra-sans-serif, sans-serif" font-size="12px" font-style="normal" font-weight="normal" text-decoration="normal" x="395" y="459" text-anchor="start" dominant-baseline="alphabetic" stroke-opacity="1" stroke-linejoin="bevel" stroke-miterlimit="10" stroke-width="3">–5</text><text fill="rgb(0,0,0)" stroke="none" font-family="geogebra-sans-serif, sans-serif" font-size="12px" font-style="normal" font-weight="normal" text-decoration="normal" x="395" y="459" text-anchor="start" dominant-baseline="alphabetic" fill-opacity="1">–5</text><text fill="none" stroke="rgb(255,255,255)" font-family="geogebra-sans-serif, sans-serif" font-size="12px" font-style="normal" font-weight="normal" text-decoration="normal" x="445" y="459" text-anchor="start" dominant-baseline="alphabetic" stroke-opacity="1" stroke-linejoin="bevel" stroke-miterlimit="10" stroke-width="3">–4</text><text fill="rgb(0,0,0)" stroke="none" font-family="geogebra-sans-serif, sans-serif" font-size="12px" font-style="normal" font-weight="normal" text-decoration="normal" x="445" y="459" text-anchor="start" dominant-baseline="alphabetic" fill-opacity="1">–4</text><text fill="none" stroke="rgb(255,255,255)" font-family="geogebra-sans-serif, sans-serif" font-size="12px" font-style="normal" font-weight="normal" text-decoration="normal" x="495" y="459" text-anchor="start" dominant-baseline="alphabetic" stroke-opacity="1" stroke-linejoin="bevel" stroke-miterlimit="10" stroke-width="3">–3</text><text fill="rgb(0,0,0)" stroke="none" font-family="geogebra-sans-serif, sans-serif" font-size="12px" font-style="normal" font-weight="normal" text-decoration="normal" x="495" y="459" text-anchor="start" dominant-baseline="alphabetic" fill-opacity="1">–3</text><text fill="none" stroke="rgb(255,255,255)" font-family="geogebra-sans-serif, sans-serif" font-size="12px" font-style="normal" font-weight="normal" text-decoration="normal" x="545" y="459" text-anchor="start" dominant-baseline="alphabetic" stroke-opacity="1" stroke-linejoin="bevel" stroke-miterlimit="10" stroke-width="3">–2</text><text fill="rgb(0,0,0)" stroke="none" font-family="geogebra-sans-serif, sans-serif" font-size="12px" font-style="normal" font-weight="normal" text-decoration="normal" x="545" y="459" text-anchor="start" dominant-baseline="alphabetic" fill-opacity="1">–2</text><text fill="none" stroke="rgb(255,255,255)" font-family="geogebra-sans-serif, sans-serif" font-size="12px" font-style="normal" font-weight="normal" text-decoration="normal" x="595" y="459" text-anchor="start" dominant-baseline="alphabetic" stroke-opacity="1" stroke-linejoin="bevel" stroke-miterlimit="10" stroke-width="3">–1</text><text fill="rgb(0,0,0)" stroke="none" font-family="geogebra-sans-serif, sans-serif" font-size="12px" font-style="normal" font-weight="normal" text-decoration="normal" x="595" y="459" text-anchor="start" dominant-baseline="alphabetic" fill-opacity="1">–1</text><text fill="none" stroke="rgb(255,255,255)" font-family="geogebra-sans-serif, sans-serif" font-size="12px" font-style="normal" font-weight="normal" text-decoration="normal" x="698" y="459" text-anchor="start" dominant-baseline="alphabetic" stroke-opacity="1" stroke-linejoin="bevel" stroke-miterlimit="10" stroke-width="3">1</text><text fill="rgb(0,0,0)" stroke="none" font-family="geogebra-sans-serif, sans-serif" font-size="12px" font-style="normal" font-weight="normal" text-decoration="normal" x="698" y="459" text-anchor="start" dominant-baseline="alphabetic" fill-opacity="1">1</text>

<text fill="none" stroke="rgba(255,255,255,0)" font-family="geogebra-sans-serif, sans-serif" font-size="12px" font-style="normal" font-weight="normal" text-decoration="normal" x="748" y="459" text-anchor="start" dominant-baseline="alphabetic" stroke-opacity="1" stroke-linejoin="bevel" stroke-miterlimit="10" stroke-width="3">2</text>


<text fill="rgb(0,0,0)" stroke="none" font-family="geogebra-sans-serif, sans-serif" font-size="12px" font-style="normal" font-weight="normal" text-decoration="normal" x="748" y="459" text-anchor="start" dominant-baseline="alphabetic" fill-opacity="1">2</text><text fill="none" stroke="rgb(255,255,255)" font-family="geogebra-sans-serif, sans-serif" font-size="12px" font-style="normal" font-weight="normal" text-decoration="normal" x="798" y="459" text-anchor="start" dominant-baseline="alphabetic" stroke-opacity="1" stroke-linejoin="bevel" stroke-miterlimit="10" stroke-width="3">3</text><text fill="rgb(0,0,0)" stroke="none" font-family="geogebra-sans-serif, sans-serif" font-size="12px" font-style="normal" font-weight="normal" text-decoration="normal" x="798" y="459" text-anchor="start" dominant-baseline="alphabetic" fill-opacity="1">3</text><text fill="none" stroke="rgb(255,255,255)" font-family="geogebra-sans-serif, sans-serif" font-size="12px" font-style="normal" font-weight="normal" text-decoration="normal" x="848" y="459" text-anchor="start" dominant-baseline="alphabetic" stroke-opacity="1" stroke-linejoin="bevel" stroke-miterlimit="10" stroke-width="3">4</text><text fill="rgb(0,0,0)" stroke="none" font-family="geogebra-sans-serif, sans-serif" font-size="12px" font-style="normal" font-weight="normal" text-decoration="normal" x="848" y="459" text-anchor="start" dominant-baseline="alphabetic" fill-opacity="1">4</text><text fill="none" stroke="rgb(255,255,255)" font-family="geogebra-sans-serif, sans-serif" font-size="12px" font-style="normal" font-weight="normal" text-decoration="normal" x="898" y="459" text-anchor="start" dominant-baseline="alphabetic" stroke-opacity="1" stroke-linejoin="bevel" stroke-miterlimit="10" stroke-width="3">5</text><text fill="rgb(0,0,0)" stroke="none" font-family="geogebra-sans-serif, sans-serif" font-size="12px" font-style="normal" font-weight="normal" text-decoration="normal" x="898" y="459" text-anchor="start" dominant-baseline="alphabetic" fill-opacity="1">5</text><text fill="none" stroke="rgb(255,255,255)" font-family="geogebra-sans-serif, sans-serif" font-size="12px" font-style="normal" font-weight="normal" text-decoration="normal" x="948" y="459" text-anchor="start" dominant-baseline="alphabetic" stroke-opacity="1" stroke-linejoin="bevel" stroke-miterlimit="10" stroke-width="3">6</text><text fill="rgb(0,0,0)" stroke="none" font-family="geogebra-sans-serif, sans-serif" font-size="12px" font-style="normal" font-weight="normal" text-decoration="normal" x="948" y="459" text-anchor="start" dominant-baseline="alphabetic" fill-opacity="1">6</text><text fill="none" stroke="rgb(255,255,255)" font-family="geogebra-sans-serif, sans-serif" font-size="12px" font-style="normal" font-weight="normal" text-decoration="normal" x="998" y="459" text-anchor="start" dominant-baseline="alphabetic" stroke-opacity="1" stroke-linejoin="bevel" stroke-miterlimit="10" stroke-width="3">7</text><text fill="rgb(0,0,0)" stroke="none" font-family="geogebra-sans-serif, sans-serif" font-size="12px" font-style="normal" font-weight="normal" text-decoration="normal" x="998" y="459" text-anchor="start" dominant-baseline="alphabetic" fill-opacity="1">7</text><text fill="none" stroke="rgb(255,255,255)" font-family="geogebra-sans-serif, sans-serif" font-size="12px" font-style="normal" font-weight="normal" text-decoration="normal" x="1048" y="459" text-anchor="start" dominant-baseline="alphabetic" stroke-opacity="1" stroke-linejoin="bevel" stroke-miterlimit="10" stroke-width="3">8</text><text fill="rgb(0,0,0)" stroke="none" font-family="geogebra-sans-serif, sans-serif" font-size="12px" font-style="normal" font-weight="normal" text-decoration="normal" x="1048" y="459" text-anchor="start" dominant-baseline="alphabetic" fill-opacity="1">8</text><text fill="none" stroke="rgb(255,255,255)" font-family="geogebra-sans-serif, sans-serif" font-size="12px" font-style="normal" font-weight="normal" text-decoration="normal" x="1098" y="459" text-anchor="start" dominant-baseline="alphabetic" stroke-opacity="1" stroke-linejoin="bevel" stroke-miterlimit="10" stroke-width="3">9</text><text fill="rgb(0,0,0)" stroke="none" font-family="geogebra-sans-serif, sans-serif" font-size="12px" font-style="normal" font-weight="normal" text-decoration="normal" x="1098" y="459" text-anchor="start" dominant-baseline="alphabetic" fill-opacity="1">9</text><text fill="none" stroke="rgb(255,255,255)" font-family="geogebra-sans-serif, sans-serif" font-size="12px" font-style="normal" font-weight="normal" text-decoration="normal" x="1145" y="459" text-anchor="start" dominant-baseline="alphabetic" stroke-opacity="1" stroke-linejoin="bevel" stroke-miterlimit="10" stroke-width="3">10</text><text fill="rgb(0,0,0)" stroke="none" font-family="geogebra-sans-serif, sans-serif" font-size="12px" font-style="normal" font-weight="normal" text-decoration="normal" x="1145" y="459" text-anchor="start" dominant-baseline="alphabetic" fill-opacity="1">10</text><text fill="none" stroke="rgb(255,255,255)" font-family="geogebra-sans-serif, sans-serif" font-size="12px" font-style="normal" font-weight="normal" text-decoration="normal" x="1195" y="459" text-anchor="start" dominant-baseline="alphabetic" stroke-opacity="1" stroke-linejoin="bevel" stroke-miterlimit="10" stroke-width="3">11</text><text fill="rgb(0,0,0)" stroke="none" font-family="geogebra-sans-serif, sans-serif" font-size="12px" font-style="normal" font-weight="normal" text-decoration="normal" x="1195" y="459" text-anchor="start" dominant-baseline="alphabetic" fill-opacity="1">11</text><text fill="none" stroke="rgb(255,255,255)" font-family="geogebra-sans-serif, sans-serif" font-size="12px" font-style="normal" font-weight="normal" text-decoration="normal" x="1245" y="459" text-anchor="start" dominant-baseline="alphabetic" stroke-opacity="1" stroke-linejoin="bevel" stroke-miterlimit="10" stroke-width="3">12</text><text fill="rgb(0,0,0)" stroke="none" font-family="geogebra-sans-serif, sans-serif" font-size="12px" font-style="normal" font-weight="normal" text-decoration="normal" x="1245" y="459" text-anchor="start" dominant-baseline="alphabetic" fill-opacity="1">12</text><text fill="none" stroke="rgb(255,255,255)" font-family="geogebra-sans-serif, sans-serif" font-size="12px" font-style="normal" font-weight="normal" text-decoration="normal" x="630" y="848" text-anchor="start" dominant-baseline="alphabetic" stroke-opacity="1" stroke-linejoin="bevel" stroke-miterlimit="10" stroke-width="3">–8</text><text fill="rgb(0,0,0)" stroke="none" font-family="geogebra-sans-serif, sans-serif" font-size="12px" font-style="normal" font-weight="normal" text-decoration="normal" x="630" y="848" text-anchor="start" dominant-baseline="alphabetic" fill-opacity="1">–8</text><text fill="none" stroke="rgb(255,255,255)" font-family="geogebra-sans-serif, sans-serif" font-size="12px" font-style="normal" font-weight="normal" text-decoration="normal" x="630" y="798" text-anchor="start" dominant-baseline="alphabetic" stroke-opacity="1" stroke-linejoin="bevel" stroke-miterlimit="10" stroke-width="3">–7</text><text fill="rgb(0,0,0)" stroke="none" font-family="geogebra-sans-serif, sans-serif" font-size="12px" font-style="normal" font-weight="normal" text-decoration="normal" x="630" y="798" text-anchor="start" dominant-baseline="alphabetic" fill-opacity="1">–7</text><text fill="none" stroke="rgb(255,255,255)" font-family="geogebra-sans-serif, sans-serif" font-size="12px" font-style="normal" font-weight="normal" text-decoration="normal" x="630" y="748" text-anchor="start" dominant-baseline="alphabetic" stroke-opacity="1" stroke-linejoin="bevel" stroke-miterlimit="10" stroke-width="3">–6</text><text fill="rgb(0,0,0)" stroke="none" font-family="geogebra-sans-serif, sans-serif" font-size="12px" font-style="normal" font-weight="normal" text-decoration="normal" x="630" y="748" text-anchor="start" dominant-baseline="alphabetic" fill-opacity="1">–6</text><text fill="none" stroke="rgb(255,255,255)" font-family="geogebra-sans-serif, sans-serif" font-size="12px" font-style="normal" font-weight="normal" text-decoration="normal" x="630" y="698" text-anchor="start" dominant-baseline="alphabetic" stroke-opacity="1" stroke-linejoin="bevel" stroke-miterlimit="10" stroke-width="3">–5</text><text fill="rgb(0,0,0)" stroke="none" font-family="geogebra-sans-serif, sans-serif" font-size="12px" font-style="normal" font-weight="normal" text-decoration="normal" x="630" y="698" text-anchor="start" dominant-baseline="alphabetic" fill-opacity="1">–5</text><text fill="none" stroke="rgb(255,255,255)" font-family="geogebra-sans-serif, sans-serif" font-size="12px" font-style="normal" font-weight="normal" text-decoration="normal" x="630" y="648" text-anchor="start" dominant-baseline="alphabetic" stroke-opacity="1" stroke-linejoin="bevel" stroke-miterlimit="10" stroke-width="3">–4</text><text fill="rgb(0,0,0)" stroke="none" font-family="geogebra-sans-serif, sans-serif" font-size="12px" font-style="normal" font-weight="normal" text-decoration="normal" x="630" y="648" text-anchor="start" dominant-baseline="alphabetic" fill-opacity="1">–4</text><text fill="none" stroke="rgb(255,255,255)" font-family="geogebra-sans-serif, sans-serif" font-size="12px" font-style="normal" font-weight="normal" text-decoration="normal" x="630" y="598" text-anchor="start" dominant-baseline="alphabetic" stroke-opacity="1" stroke-linejoin="bevel" stroke-miterlimit="10" stroke-width="3">–3</text><text fill="rgb(0,0,0)" stroke="none" font-family="geogebra-sans-serif, sans-serif" font-size="12px" font-style="normal" font-weight="normal" text-decoration="normal" x="630" y="598" text-anchor="start" dominant-baseline="alphabetic" fill-opacity="1">–3</text><text fill="none" stroke="rgb(255,255,255)" font-family="geogebra-sans-serif, sans-serif" font-size="12px" font-style="normal" font-weight="normal" text-decoration="normal" x="630" y="547" text-anchor="start" dominant-baseline="alphabetic" stroke-opacity="1" stroke-linejoin="bevel" stroke-miterlimit="10" stroke-width="3">–2</text><text fill="rgb(0,0,0)" stroke="none" font-family="geogebra-sans-serif, sans-serif" font-size="12px" font-style="normal" font-weight="normal" text-decoration="normal" x="630" y="547" text-anchor="start" dominant-baseline="alphabetic" fill-opacity="1">–2</text><text fill="none" stroke="rgb(255,255,255)" font-family="geogebra-sans-serif, sans-serif" font-size="12px" font-style="normal" font-weight="normal" text-decoration="normal" x="630" y="497" text-anchor="start" dominant-baseline="alphabetic" stroke-opacity="1" stroke-linejoin="bevel" stroke-miterlimit="10" stroke-width="3">–1</text><text fill="rgb(0,0,0)" stroke="none" font-family="geogebra-sans-serif, sans-serif" font-size="12px" font-style="normal" font-weight="normal" text-decoration="normal" x="630" y="497" text-anchor="start" dominant-baseline="alphabetic" fill-opacity="1">–1</text><text fill="none" stroke="rgb(255,255,255)" font-family="geogebra-sans-serif, sans-serif" font-size="12px" font-style="normal" font-weight="normal" text-decoration="normal" x="637" y="397" text-anchor="start" dominant-baseline="alphabetic" stroke-opacity="1" stroke-linejoin="bevel" stroke-miterlimit="10" stroke-width="3">1</text><text fill="rgb(0,0,0)" stroke="none" font-family="geogebra-sans-serif, sans-serif" font-size="12px" font-style="normal" font-weight="normal" text-decoration="normal" x="637" y="397" text-anchor="start" dominant-baseline="alphabetic" fill-opacity="1">1</text><text fill="none" stroke="rgb(255,255,255)" font-family="geogebra-sans-serif, sans-serif" font-size="12px" font-style="normal" font-weight="normal" text-decoration="normal" x="637" y="347" text-anchor="start" dominant-baseline="alphabetic" stroke-opacity="1" stroke-linejoin="bevel" stroke-miterlimit="10" stroke-width="3">2</text><text fill="rgb(0,0,0)" stroke="none" font-family="geogebra-sans-serif, sans-serif" font-size="12px" font-style="normal" font-weight="normal" text-decoration="normal" x="637" y="347" text-anchor="start" dominant-baseline="alphabetic" fill-opacity="1">2</text><text fill="none" stroke="rgb(255,255,255)" font-family="geogebra-sans-serif, sans-serif" font-size="12px" font-style="normal" font-weight="normal" text-decoration="normal" x="637" y="297" text-anchor="start" dominant-baseline="alphabetic" stroke-opacity="1" stroke-linejoin="bevel" stroke-miterlimit="10" stroke-width="3">3</text><text fill="rgb(0,0,0)" stroke="none" font-family="geogebra-sans-serif, sans-serif" font-size="12px" font-style="normal" font-weight="normal" text-decoration="normal" x="637" y="297" text-anchor="start" dominant-baseline="alphabetic" fill-opacity="1">3</text><text fill="none" stroke="rgb(255,255,255)" font-family="geogebra-sans-serif, sans-serif" font-size="12px" font-style="normal" font-weight="normal" text-decoration="normal" x="637" y="247" text-anchor="start" dominant-baseline="alphabetic" stroke-opacity="1" stroke-linejoin="bevel" stroke-miterlimit="10" stroke-width="3">4</text><text fill="rgb(0,0,0)" stroke="none" font-family="geogebra-sans-serif, sans-serif" font-size="12px" font-style="normal" font-weight="normal" text-decoration="normal" x="637" y="247" text-anchor="start" dominant-baseline="alphabetic" fill-opacity="1">4</text><text fill="none" stroke="rgb(255,255,255)" font-family="geogebra-sans-serif, sans-serif" font-size="12px" font-style="normal" font-weight="normal" text-decoration="normal" x="637" y="197" text-anchor="start" dominant-baseline="alphabetic" stroke-opacity="1" stroke-linejoin="bevel" stroke-miterlimit="10" stroke-width="3">5</text><text fill="rgb(0,0,0)" stroke="none" font-family="geogebra-sans-serif, sans-serif" font-size="12px" font-style="normal" font-weight="normal" text-decoration="normal" x="637" y="197" text-anchor="start" dominant-baseline="alphabetic" fill-opacity="1">5</text><text fill="none" stroke="rgb(255,255,255)" font-family="geogebra-sans-serif, sans-serif" font-size="12px" font-style="normal" font-weight="normal" text-decoration="normal" x="637" y="147" text-anchor="start" dominant-baseline="alphabetic" stroke-opacity="1" stroke-linejoin="bevel" stroke-miterlimit="10" stroke-width="3">6</text><text fill="rgb(0,0,0)" stroke="none" font-family="geogebra-sans-serif, sans-serif" font-size="12px" font-style="normal" font-weight="normal" text-decoration="normal" x="637" y="147" text-anchor="start" dominant-baseline="alphabetic" fill-opacity="1">6</text><text fill="none" stroke="rgb(255,255,255)" font-family="geogebra-sans-serif, sans-serif" font-size="12px" font-style="normal" font-weight="normal" text-decoration="normal" x="637" y="97" text-anchor="start" dominant-baseline="alphabetic" stroke-opacity="1" stroke-linejoin="bevel" stroke-miterlimit="10" stroke-width="3">7</text><text fill="rgb(0,0,0)" stroke="none" font-family="geogebra-sans-serif, sans-serif" font-size="12px" font-style="normal" font-weight="normal" text-decoration="normal" x="637" y="97" text-anchor="start" dominant-baseline="alphabetic" fill-opacity="1">7</text><text fill="none" stroke="rgb(255,255,255)" font-family="geogebra-sans-serif, sans-serif" font-size="12px" font-style="normal" font-weight="normal" text-decoration="normal" x="637" y="47" text-anchor="start" dominant-baseline="alphabetic" stroke-opacity="1" stroke-linejoin="bevel" stroke-miterlimit="10" stroke-width="3">8</text><text fill="rgb(0,0,0)" stroke="none" font-family="geogebra-sans-serif, sans-serif" font-size="12px" font-style="normal" font-weight="normal" text-decoration="normal" x="637" y="47" text-anchor="start" dominant-baseline="alphabetic" fill-opacity="1">8</text><text fill="none" stroke="rgb(255,255,255)" font-family="geogebra-sans-serif, sans-serif" font-size="12px" font-style="normal" font-weight="normal" text-decoration="normal" x="637" y="459" text-anchor="start" dominant-baseline="alphabetic" stroke-opacity="1" stroke-linejoin="bevel" stroke-miterlimit="10" stroke-width="3">0</text><text fill="rgb(0,0,0)" stroke="none" font-family="geogebra-sans-serif, sans-serif" font-size="12px" font-style="normal" font-weight="normal" text-decoration="normal" x="637" y="459" text-anchor="start" dominant-baseline="alphabetic" fill-opacity="1">0</text><path fill="none" stroke="rgb(102,153,255)" paint-order="fill stroke markers" d=" M 198.046875 894.9531250000007 L 203.125 889.8750000000007 L 208.203125 884.7968750000007 L 213.28125 879.7187500000007 L 218.359375 874.6406250000007 L 223.4375 869.5625000000007 L 228.515625 864.4843750000007 L 233.59375 859.4062500000006 L 238.671875 854.3281250000006 L 243.75 849.2500000000006 L 248.828125 844.1718750000006 L 253.90625 839.0937500000006 L 258.984375 834.0156250000006 L 264.0625 828.9375000000006 L 269.140625 823.8593750000006 L 274.21875 818.7812500000005 L 279.296875 813.7031250000005 L 284.375 808.6250000000005 L 289.453125 803.5468750000005 L 294.53125 798.4687500000005 L 299.609375 793.3906250000005 L 304.6875 788.3125000000005 L 309.765625 783.2343750000005 L 314.84375 778.1562500000005 L 319.921875 773.0781250000005 L 325 768.0000000000005 L 330.078125 762.9218750000005 L 335.15625 757.8437500000005 L 340.234375 752.7656250000005 L 345.3125 747.6875000000005 L 350.390625 742.6093750000005 L 355.46875 737.5312500000005 L 360.546875 732.4531250000005 L 365.625 727.3750000000005 L 370.703125 722.2968750000005 L 375.78125 717.2187500000005 L 380.859375 712.1406250000005 L 385.9375 707.0625000000005 L 391.015625 701.9843750000003 L 396.09375 696.9062500000003 L 401.171875 691.8281250000003 L 406.25 686.7500000000003 L 411.328125 681.6718750000003 L 416.40625 676.5937500000003 L 421.484375 671.5156250000003 L 426.5625 666.4375000000003 L 431.640625 661.3593750000003 L 436.71875 656.2812500000003 L 441.796875 651.2031250000002 L 446.875 646.1250000000002 L 451.953125 641.0468750000002 L 457.03125 635.9687500000002 L 462.109375 630.8906250000002 L 467.1875 625.8125000000002 L 472.265625 620.7343750000002 L 477.34375 615.6562500000002 L 482.421875 610.5781250000002 L 487.5 605.5000000000002 L 492.578125 600.4218750000002 L 497.65625 595.3437500000002 L 502.734375 590.2656250000002 L 507.8125 585.1875000000002 L 512.890625 580.1093750000002 L 517.96875 575.0312500000002 L 523.046875 569.9531250000002 L 528.125 564.8750000000002 L 533.203125 559.7968750000002 L 538.28125 554.7187500000001 L 543.359375 549.6406250000001 L 548.4375 544.5625000000001 L 553.515625 539.4843750000001 L 558.59375 534.4062500000001 L 563.671875 529.3281250000001 L 568.75 524.2500000000001 L 573.828125 519.1718750000001 L 578.90625 514.0937500000001 L 583.984375 509.0156250000001 L 589.0625 503.9375000000001 L 594.140625 498.85937500000006 L 599.21875 493.78125000000006 L 604.296875 488.70312500000006 L 609.375 483.62500000000006 L 614.453125 478.54687500000006 L 619.53125 473.46875000000006 L 624.609375 468.39062500000006 L 629.6875 463.3125 L 634.765625 458.234375 L 639.84375 453.15625 L 644.921875 448.078125 L 650 443 L 655.078125 437.921875 L 660.15625 432.84375 L 665.234375 427.765625 L 670.3125 422.6875 L 675.390625 417.60937499999994 L 680.46875 412.53124999999994 L 685.546875 407.45312499999994 L 690.625 402.37499999999994 L 695.703125 397.29687499999994 L 698.2421875 394.75781249999994 L 699.51171875 393.48828124999994 M 700.0076293945312 342.99237060546864 L 700.0274658203125 342.9725341796874 L 700.78125 342.2187499999999 L 705.859375 337.14062499999983 L 710.9375 332.06249999999983 L 716.015625 326.98437499999983 L 721.09375 321.90624999999983 L 726.171875 316.82812499999983 L 731.25 311.7499999999998 L 736.328125 306.6718749999998 L 741.40625 301.5937499999998 L 746.484375 296.5156249999998 L 751.5625 291.4374999999998 L 756.640625 286.3593749999998 L 761.71875 281.2812499999998 L 766.796875 276.2031249999998 L 771.875 271.1249999999998 L 776.953125 266.0468749999998 L 782.03125 260.9687499999998 L 787.109375 255.89062499999974 L 792.1875 250.81249999999972 L 797.265625 245.73437499999972 L 802.34375 240.65624999999972 L 807.421875 235.57812499999972 L 812.5 230.4999999999997 L 817.578125 225.4218749999997 L 822.65625 220.3437499999997 L 827.734375 215.2656249999997 L 832.8125 210.18749999999966 L 837.890625 205.10937499999966 L 842.96875 200.03124999999966 L 848.046875 194.95312499999966 L 853.125 189.87499999999963 L 858.203125 184.79687499999966 L 863.28125 179.7187499999996 L 868.359375 174.6406249999996 L 873.4375 169.5624999999996 L 878.515625 164.4843749999996 L 883.59375 159.4062499999996 L 888.671875 154.3281249999996 L 893.75 149.2499999999996 L 898.828125 144.1718749999996 L 903.90625 139.09374999999955 L 908.984375 134.01562499999955 L 914.0625 128.93749999999955 L 919.140625 123.85937499999955 L 924.21875 118.78124999999955 L 929.296875 113.70312499999955 L 934.375 108.62499999999955 L 939.453125 103.54687499999955 L 944.53125 98.46874999999949 L 949.609375 93.39062499999949 L 954.6875 88.31249999999949 L 959.765625 83.23437499999949 L 964.84375 78.15624999999949 L 969.921875 73.07812499999949 L 975 67.99999999999949 L 980.078125 62.92187499999943 L 985.15625 57.84374999999943 L 990.234375 52.76562499999943 L 995.3125 47.68749999999943 L 1000.390625 42.60937499999943 L 1005.46875 37.53124999999943 L 1010.546875 32.45312499999943 L 1015.625 27.37499999999943 L 1020.703125 22.296874999999375 L 1025.78125 17.218749999999375 L 1030.859375 12.140624999999375 L 1035.9375 7.062499999999375 L 1041.015625 1.9843749999993747 L 1046.09375 -3.0937500000006253 L 1051.171875 -8.171875000000625" stroke-opacity="0.6980392156862745" stroke-linecap="round" stroke-linejoin="round" stroke-miterlimit="10" stroke-width="2.5"/><path fill="rgb(102,153,255)" stroke="none" paint-order="stroke fill markers" d=" M 705 392.99999999999994 C 705 395.7614237491539 702.761423749154 397.99999999999994 700 397.99999999999994 C 697.238576250846 397.99999999999994 695 395.7614237491539 695 392.99999999999994 C 695 390.238576250846 697.238576250846 387.99999999999994 700 387.99999999999994 C 702.761423749154 387.99999999999994 705 390.238576250846 705 392.99999999999994 Z" fill-opacity="1"/><path fill="rgb(255,255,255)" stroke="none" paint-order="stroke fill markers" d=" M 705 342.9999999999999 C 705 345.76142374915383 702.761423749154 347.9999999999999 700 347.9999999999999 C 697.238576250846 347.9999999999999 695 345.76142374915383 695 342.9999999999999 C 695 340.23857625084594 697.238576250846 337.9999999999999 700 337.9999999999999 C 702.761423749154 337.9999999999999 705 340.23857625084594 705 342.9999999999999 Z" fill-opacity="1"/><path fill="none" stroke="rgb(102,153,255)" paint-order="fill stroke markers" d=" M 705 342.9999999999999 C 705 345.76142374915383 702.761423749154 347.9999999999999 700 347.9999999999999 C 697.238576250846 347.9999999999999 695 345.76142374915383 695 342.9999999999999 C 695 340.23857625084594 697.238576250846 337.9999999999999 700 337.9999999999999 C 702.761423749154 337.9999999999999 705 340.23857625084594 705 342.9999999999999 Z" stroke-opacity="1" stroke-linecap="square" stroke-miterlimit="10" stroke-width="2.5"/></g></g></svg>