<?xml version="1.0" encoding="UTF-8" standalone="no"?>
<svg xmlns:dc="http://purl.org/dc/elements/1.1/" xmlns:cc="http://creativecommons.org/ns#" xmlns:rdf="http://www.w3.org/1999/02/22-rdf-syntax-ns#" xmlns:svg="http://www.w3.org/2000/svg" xmlns="http://www.w3.org/2000/svg" xmlns:sodipodi="http://sodipodi.sourceforge.net/DTD/sodipodi-0.dtd" xmlns:inkscape="http://www.inkscape.org/namespaces/inkscape" version="1.1" width="518" height="518" id="svg157" sodipodi:docname="one-sided-limit-example-2.svg" inkscape:version="0.92.2 (5c3e80d, 2017-08-06)" viewBox="0 0 518 518">
  <metadata id="metadata161">
    <rdf:RDF>
      <cc:Work rdf:about="">
        <dc:format>image/svg+xml</dc:format>
        <dc:type rdf:resource="http://purl.org/dc/dcmitype/StillImage" />
        <dc:title>
        </dc:title>
      </cc:Work>
    </rdf:RDF>
  </metadata>
  <sodipodi:namedview pagecolor="#ffffff" bordercolor="#666666" borderopacity="1" objecttolerance="10" gridtolerance="10" guidetolerance="10" inkscape:pageopacity="0" inkscape:pageshadow="2" inkscape:window-width="2160" inkscape:window-height="1360" id="namedview159" showgrid="false" inkscape:zoom="0.36702955" inkscape:cx="279.83284" inkscape:cy="176.26356" inkscape:window-x="-11" inkscape:window-y="-11" inkscape:window-maximized="1" inkscape:current-layer="svg157" />
  <defs id="defs5">
    <clipPath id="zRLxBPZconEJ">
      <path d="M 0,0 H 836 V 643 H 0 Z" id="path2" inkscape:connector-curvature="0" style="fill:none;stroke:none" />
    </clipPath>
    <clipPath clipPathUnits="userSpaceOnUse" id="clipPath1295">
      <rect style="fill:#000000;fill-opacity:0.54187191;stroke-width:1" id="rect1297" width="350" height="350" x="250.233" y="172.556" />
    </clipPath>
  </defs>
  <g id="g1293" clip-path="url(#clipPath1295)" transform="matrix(1.48,0,0,1.48,-370.34484,-255.38288)" style="stroke-width:0.67567569">
    <g id="g1216" style="stroke-width:0.67567569">
      <rect x="-105" y="-30" width="1060" height="756" id="rect7" fill="rgba(0,0,0,0)" />
      <path d="m 425.5,-27.5 v 754" stroke-miterlimit="10" id="path9" inkscape:connector-curvature="0" style="fill:none;stroke:#000000;stroke-width:0.67567569;stroke-miterlimit:10;stroke-opacity:1;paint-order:fill stroke markers" />
      <path d="m 425.5,-28.5 -4,4" stroke-miterlimit="10" id="path11" inkscape:connector-curvature="0" style="fill:none;stroke:#000000;stroke-width:0.67567569;stroke-miterlimit:10;stroke-opacity:1;paint-order:fill stroke markers" />
      <path d="m 425.5,-28.5 4,4" stroke-miterlimit="10" id="path13" inkscape:connector-curvature="0" style="fill:none;stroke:#000000;stroke-width:0.67567569;stroke-miterlimit:10;stroke-opacity:1;paint-order:fill stroke markers" />
      <path style="fill:none;stroke:#000000;stroke-width:0.67567569;stroke-miterlimit:10;stroke-opacity:1;paint-order:fill stroke markers" d="M 351.35938,347.5 H 953.5" id="path1138" inkscape:connector-curvature="0" />
      <path style="fill:none;stroke:#000000;stroke-width:0.67567569;stroke-miterlimit:10;stroke-opacity:1;paint-order:fill stroke markers" d="M -104.5,347.5 H 341.56249" id="path15" inkscape:connector-curvature="0" />
      <path d="m 954.5,347.5 -4,-4" stroke-miterlimit="10" id="path17" inkscape:connector-curvature="0" style="fill:none;stroke:#000000;stroke-width:0.67567569;stroke-miterlimit:10;stroke-opacity:1;paint-order:fill stroke markers" />
      <path d="m 954.5,347.5 -4,4" stroke-miterlimit="10" id="path19" inkscape:connector-curvature="0" style="fill:none;stroke:#000000;stroke-width:0.67567569;stroke-miterlimit:10;stroke-opacity:1;paint-order:fill stroke markers" />
      <text font-size="12px" font-style="normal" font-weight="normal" text-decoration="normal" x="-55" y="363" dominant-baseline="alphabetic" id="text23" style="font-style:normal;font-weight:normal;font-size:12px;font-family:geogebra-sans-serif, sans-serif;dominant-baseline:alphabetic;text-anchor:start;fill:#000000;fill-opacity:1;stroke:none;stroke-width:0.67567569">–3π</text>
      <path d="m -46.5,347.5 v 3" stroke-miterlimit="10" id="path25" inkscape:connector-curvature="0" style="fill:none;stroke:#000000;stroke-width:0.67567569;stroke-miterlimit:10;stroke-opacity:1;paint-order:fill stroke markers" />
      <text font-size="12px" font-style="normal" font-weight="normal" text-decoration="normal" x="102" y="363" dominant-baseline="alphabetic" id="text29" style="font-style:normal;font-weight:normal;font-size:12px;font-family:geogebra-sans-serif, sans-serif;dominant-baseline:alphabetic;text-anchor:start;fill:#000000;fill-opacity:1;stroke:none;stroke-width:0.67567569">–2π</text>
      <path d="m 110.5,347.5 v 3" stroke-miterlimit="10" id="path31" inkscape:connector-curvature="0" style="fill:none;stroke:#000000;stroke-width:0.67567569;stroke-miterlimit:10;stroke-opacity:1;paint-order:fill stroke markers" />
      <text font-size="12px" font-style="normal" font-weight="normal" text-decoration="normal" x="262" y="363" dominant-baseline="alphabetic" id="text35" style="font-style:normal;font-weight:normal;font-size:12px;font-family:geogebra-sans-serif, sans-serif;dominant-baseline:alphabetic;text-anchor:start;fill:#000000;fill-opacity:1;stroke:none;stroke-width:0.67567569">–π</text>
      <path d="m 267.5,347.5 v 3" stroke-miterlimit="10" id="path37" inkscape:connector-curvature="0" style="fill:none;stroke:#000000;stroke-width:0.67567569;stroke-miterlimit:10;stroke-opacity:1;paint-order:fill stroke markers" />
      <text font-size="12px" font-style="normal" font-weight="normal" text-decoration="normal" x="580" y="363" dominant-baseline="alphabetic" id="text41" style="font-style:normal;font-weight:normal;font-size:12px;font-family:geogebra-sans-serif, sans-serif;dominant-baseline:alphabetic;text-anchor:start;fill:#000000;fill-opacity:1;stroke:none;stroke-width:0.67567569">π</text>
      <path d="m 582.5,347.5 v 3" stroke-miterlimit="10" id="path43" inkscape:connector-curvature="0" style="fill:none;stroke:#000000;stroke-width:0.67567569;stroke-miterlimit:10;stroke-opacity:1;paint-order:fill stroke markers" />
      <text font-size="12px" font-style="normal" font-weight="normal" text-decoration="normal" x="734" y="363" dominant-baseline="alphabetic" id="text47" style="font-style:normal;font-weight:normal;font-size:12px;font-family:geogebra-sans-serif, sans-serif;dominant-baseline:alphabetic;text-anchor:start;fill:#000000;fill-opacity:1;stroke:none;stroke-width:0.67567569">2π</text>
      <path d="m 739.5,347.5 v 3" stroke-miterlimit="10" id="path49" inkscape:connector-curvature="0" style="fill:none;stroke:#000000;stroke-width:0.67567569;stroke-miterlimit:10;stroke-opacity:1;paint-order:fill stroke markers" />
      <text font-size="12px" font-style="normal" font-weight="normal" text-decoration="normal" x="891" y="363" dominant-baseline="alphabetic" id="text53" style="font-style:normal;font-weight:normal;font-size:12px;font-family:geogebra-sans-serif, sans-serif;dominant-baseline:alphabetic;text-anchor:start;fill:#000000;fill-opacity:1;stroke:none;stroke-width:0.67567569">3π</text>
      <path d="m 896.5,347.5 v 3" stroke-miterlimit="10" id="path55" inkscape:connector-curvature="0" style="fill:none;stroke:#000000;stroke-width:0.67567569;stroke-miterlimit:10;stroke-opacity:1;paint-order:fill stroke markers" />
      <path d="m 422.5,698.5 h 3" stroke-miterlimit="10" id="path57" inkscape:connector-curvature="0" style="fill:none;stroke:#000000;stroke-width:0.67567569;stroke-miterlimit:10;stroke-opacity:1;paint-order:fill stroke markers" />
      <path d="m 422.5,648.5 h 3" stroke-miterlimit="10" id="path59" inkscape:connector-curvature="0" style="fill:none;stroke:#000000;stroke-width:0.67567569;stroke-miterlimit:10;stroke-opacity:1;paint-order:fill stroke markers" />
      <path d="m 422.5,598.5 h 3" stroke-miterlimit="10" id="path61" inkscape:connector-curvature="0" style="fill:none;stroke:#000000;stroke-width:0.67567569;stroke-miterlimit:10;stroke-opacity:1;paint-order:fill stroke markers" />
      <path d="m 422.5,548.5 h 3" stroke-miterlimit="10" id="path63" inkscape:connector-curvature="0" style="fill:none;stroke:#000000;stroke-width:0.67567569;stroke-miterlimit:10;stroke-opacity:1;paint-order:fill stroke markers" />
      <path d="m 422.5,498.5 h 3" stroke-miterlimit="10" id="path65" inkscape:connector-curvature="0" style="fill:none;stroke:#000000;stroke-width:0.67567569;stroke-miterlimit:10;stroke-opacity:1;paint-order:fill stroke markers" />
      <path d="m 422.5,448.5 h 3" stroke-miterlimit="10" id="path67" inkscape:connector-curvature="0" style="fill:none;stroke:#000000;stroke-width:0.67567569;stroke-miterlimit:10;stroke-opacity:1;paint-order:fill stroke markers" />
      <path d="m 422.5,398.5 h 3" stroke-miterlimit="10" id="path69" inkscape:connector-curvature="0" style="fill:none;stroke:#000000;stroke-width:0.67567569;stroke-miterlimit:10;stroke-opacity:1;paint-order:fill stroke markers" />
      <path d="m 422.5,298.5 h 3" stroke-miterlimit="10" id="path71" inkscape:connector-curvature="0" style="fill:none;stroke:#000000;stroke-width:0.67567569;stroke-miterlimit:10;stroke-opacity:1;paint-order:fill stroke markers" />
      <path d="m 422.5,247.5 h 3" stroke-miterlimit="10" id="path73" inkscape:connector-curvature="0" style="fill:none;stroke:#000000;stroke-width:0.67567569;stroke-miterlimit:10;stroke-opacity:1;paint-order:fill stroke markers" />
      <path d="m 422.5,197.5 h 3" stroke-miterlimit="10" id="path75" inkscape:connector-curvature="0" style="fill:none;stroke:#000000;stroke-width:0.67567569;stroke-miterlimit:10;stroke-opacity:1;paint-order:fill stroke markers" />
      <path d="m 422.5,147.5 h 3" stroke-miterlimit="10" id="path77" inkscape:connector-curvature="0" style="fill:none;stroke:#000000;stroke-width:0.67567569;stroke-miterlimit:10;stroke-opacity:1;paint-order:fill stroke markers" />
      <path d="m 422.5,97.5 h 3" stroke-miterlimit="10" id="path79" inkscape:connector-curvature="0" style="fill:none;stroke:#000000;stroke-width:0.67567569;stroke-miterlimit:10;stroke-opacity:1;paint-order:fill stroke markers" />
      <path d="m 422.5,47.5 h 3" stroke-miterlimit="10" id="path81" inkscape:connector-curvature="0" style="fill:none;stroke:#000000;stroke-width:0.67567569;stroke-miterlimit:10;stroke-opacity:1;paint-order:fill stroke markers" />
      <path d="m 422.5,-2.5 h 3" stroke-miterlimit="10" id="path83" inkscape:connector-curvature="0" style="fill:none;stroke:#000000;stroke-width:0.67567569;stroke-miterlimit:10;stroke-opacity:1;paint-order:fill stroke markers" />
      <text font-size="12px" font-style="normal" font-weight="normal" text-decoration="normal" x="405" y="703" dominant-baseline="alphabetic" id="text87" style="font-style:normal;font-weight:normal;font-size:12px;font-family:geogebra-sans-serif, sans-serif;dominant-baseline:alphabetic;text-anchor:start;fill:#000000;fill-opacity:1;stroke:none;stroke-width:0.67567569">–7</text>
      <text font-size="12px" font-style="normal" font-weight="normal" text-decoration="normal" x="405" y="653" dominant-baseline="alphabetic" id="text91" style="font-style:normal;font-weight:normal;font-size:12px;font-family:geogebra-sans-serif, sans-serif;dominant-baseline:alphabetic;text-anchor:start;fill:#000000;fill-opacity:1;stroke:none;stroke-width:0.67567569">–6</text>
      <text font-size="12px" font-style="normal" font-weight="normal" text-decoration="normal" x="405" y="603" dominant-baseline="alphabetic" id="text95" style="font-style:normal;font-weight:normal;font-size:12px;font-family:geogebra-sans-serif, sans-serif;dominant-baseline:alphabetic;text-anchor:start;fill:#000000;fill-opacity:1;stroke:none;stroke-width:0.67567569">–5</text>
      <text font-size="12px" font-style="normal" font-weight="normal" text-decoration="normal" x="405" y="553" dominant-baseline="alphabetic" id="text99" style="font-style:normal;font-weight:normal;font-size:12px;font-family:geogebra-sans-serif, sans-serif;dominant-baseline:alphabetic;text-anchor:start;fill:#000000;fill-opacity:1;stroke:none;stroke-width:0.67567569">–4</text>
      <text font-size="12px" font-style="normal" font-weight="normal" text-decoration="normal" x="405" y="503" dominant-baseline="alphabetic" id="text103" style="font-style:normal;font-weight:normal;font-size:12px;font-family:geogebra-sans-serif, sans-serif;dominant-baseline:alphabetic;text-anchor:start;fill:#000000;fill-opacity:1;stroke:none;stroke-width:0.67567569">–3</text>
      <text font-size="12px" font-style="normal" font-weight="normal" text-decoration="normal" x="405" y="453" dominant-baseline="alphabetic" id="text107" style="font-style:normal;font-weight:normal;font-size:12px;font-family:geogebra-sans-serif, sans-serif;dominant-baseline:alphabetic;text-anchor:start;fill:#000000;fill-opacity:1;stroke:none;stroke-width:0.67567569">–2</text>
      <text font-size="12px" font-style="normal" font-weight="normal" text-decoration="normal" x="405" y="403" dominant-baseline="alphabetic" id="text111" style="font-style:normal;font-weight:normal;font-size:12px;font-family:geogebra-sans-serif, sans-serif;dominant-baseline:alphabetic;text-anchor:start;fill:#000000;fill-opacity:1;stroke:none;stroke-width:0.67567569">–1</text>
      <text font-size="12px" font-style="normal" font-weight="normal" text-decoration="normal" x="412" y="303" dominant-baseline="alphabetic" id="text115" style="font-style:normal;font-weight:normal;font-size:12px;font-family:geogebra-sans-serif, sans-serif;dominant-baseline:alphabetic;text-anchor:start;fill:#000000;fill-opacity:1;stroke:none;stroke-width:0.67567569">1</text>
      <text font-size="12px" font-style="normal" font-weight="normal" text-decoration="normal" x="412" y="252" dominant-baseline="alphabetic" id="text119" style="font-style:normal;font-weight:normal;font-size:12px;font-family:geogebra-sans-serif, sans-serif;dominant-baseline:alphabetic;text-anchor:start;fill:#000000;fill-opacity:1;stroke:none;stroke-width:0.67567569">2</text>
      <text font-size="12px" font-style="normal" font-weight="normal" text-decoration="normal" x="412" y="202" dominant-baseline="alphabetic" id="text123" style="font-style:normal;font-weight:normal;font-size:12px;font-family:geogebra-sans-serif, sans-serif;dominant-baseline:alphabetic;text-anchor:start;fill:#000000;fill-opacity:1;stroke:none;stroke-width:0.67567569">3</text>
      <text font-size="12px" font-style="normal" font-weight="normal" text-decoration="normal" x="412" y="152" dominant-baseline="alphabetic" id="text127" style="font-style:normal;font-weight:normal;font-size:12px;font-family:geogebra-sans-serif, sans-serif;dominant-baseline:alphabetic;text-anchor:start;fill:#000000;fill-opacity:1;stroke:none;stroke-width:0.67567569">4</text>
      <text font-size="12px" font-style="normal" font-weight="normal" text-decoration="normal" x="412" y="102" dominant-baseline="alphabetic" id="text131" style="font-style:normal;font-weight:normal;font-size:12px;font-family:geogebra-sans-serif, sans-serif;dominant-baseline:alphabetic;text-anchor:start;fill:#000000;fill-opacity:1;stroke:none;stroke-width:0.67567569">5</text>
      <text font-size="12px" font-style="normal" font-weight="normal" text-decoration="normal" x="412" y="52" dominant-baseline="alphabetic" id="text135" style="font-style:normal;font-weight:normal;font-size:12px;font-family:geogebra-sans-serif, sans-serif;dominant-baseline:alphabetic;text-anchor:start;fill:#000000;fill-opacity:1;stroke:none;stroke-width:0.67567569">6</text>
      <text font-size="12px" font-style="normal" font-weight="normal" text-decoration="normal" x="412" y="2" dominant-baseline="alphabetic" id="text139" style="font-style:normal;font-weight:normal;font-size:12px;font-family:geogebra-sans-serif, sans-serif;dominant-baseline:alphabetic;text-anchor:start;fill:#000000;fill-opacity:1;stroke:none;stroke-width:0.67567569">7</text>
      <text font-size="12px" font-style="normal" font-weight="normal" text-decoration="normal" x="412" y="363" dominant-baseline="alphabetic" id="text143" style="font-style:normal;font-weight:normal;font-size:12px;font-family:geogebra-sans-serif, sans-serif;dominant-baseline:alphabetic;text-anchor:start;fill:#000000;fill-opacity:1;stroke:none;stroke-width:0.67567569">0</text>
      <path style="fill:none;stroke:#6699ff;stroke-width:1.68918931;stroke-linecap:round;stroke-linejoin:round;stroke-miterlimit:10;stroke-opacity:0.8;paint-order:fill stroke markers" d="m 349.99782,344.46617 0.47093,-0.47044 4.14062,-4.10889 4.14063,-4.05328 4.14062,-3.96989 4.14063,-3.85929 4.14063,-3.72225 4.14062,-3.55968 4.14062,-3.37272 4.14063,-3.16264 4.14062,-2.93089 4.14063,-2.67905 4.14062,-2.40884 4.14063,-2.12213 4.14062,-1.82088 4.14063,-1.50713 4.14062,-1.18306 4.14063,-0.85089 4.14062,-0.51287 L 425,298 l 4.14062,0.17135 4.14063,0.51287 4.14062,0.85089 4.14063,1.18306 4.14062,1.50713 4.14063,1.82088 4.14062,2.12213 4.14063,2.40884 4.14062,2.67905 4.14063,2.93089 4.14062,3.16264 4.14063,3.37272 4.14062,3.55968 4.14063,3.72225 4.14062,3.85929 4.14063,3.96989 4.14062,4.05328 4.14063,4.10889 4.14062,4.13633 4.14063,4.13543 4.14062,4.10617 4.14063,4.04879 4.14062,3.96364 4.14063,3.85133 4.14062,3.71262 4.14063,3.54847 4.14062,3.36 4.14063,3.14849 4.14062,2.91541 4.14063,2.66234 4.14062,2.39103 4.14063,2.10333 4.14062,1.80121 4.14063,1.48675 4.14062,1.16209 4.14063,0.82947 4.14062,0.49117 4.14063,0.1495 4.14062,-0.19319 4.14063,-0.53457 4.14062,-0.87227 4.14063,-1.204 4.14062,-1.52748 4.14063,-1.84048 4.14062,-2.14087 4.14063,-2.4266 4.14062,-2.69568 4.14063,-2.94629 4.14062,-3.1767 4.14063,-3.38535 4.14062,-3.5708 4.14063,-3.73175 4.14062,-3.86715 4.14063,-3.97603 4.14062,-4.05766 4.14063,-4.11148 4.14062,-4.13712 4.14063,-4.13441 4.14062,-4.10335 4.14063,-4.04418 4.14062,-3.95728 4.14063,-3.84326 4.14062,-3.70291 4.14063,-3.53716 4.14062,-3.34717 4.14063,-3.13426 4.14062,-2.89984 4.14063,-2.64556 4.14062,-2.37315 4.14063,-2.08447 4.14062,-1.78149 4.14063,-1.46632 4.14062,-1.14109 4.14063,-0.80804 4.14062,-0.46945 4.14063,-0.12765 4.14062,0.21503 4.14063,0.55624 4.14062,0.89364 4.14063,1.2249 4.14062,1.54778 4.14063,1.86004 4.14062,2.15956 4.14063,2.44428 4.14062,2.71223 4.14063,2.96161 4.14063,3.19068 4.14062,3.39789 4.14062,3.5818 4.14063,3.74117 4.14062,3.87489 4.14063,3.98206 4.14062,4.06193 4.14063,4.11396 4.14062,4.13779 4.14063,4.13327 4.14062,4.10042 4.14063,4.03946 4.14062,3.95081 4.14063,3.83508 4.14062,3.69308 4.14063,3.52576 4.14062,3.33426 4.14063,3.11993 4.14062,2.8842 4.14063,2.62871 4.14062,2.35519 4.14063,2.06555 4.14062,1.76173 4.14063,1.44585 4.14062,1.12006 4.14063,0.78658 4.14062,0.44772 4.14058,0.10579 4.1407,-0.23687 4.1406,-0.5779 4.1406,-0.91497 4.1406,-1.24577 4.1407,-1.56804 4.1406,-1.87955 4.1406,-2.17818 4.1407,-2.46189 4.1406,-2.72872 4.1406,-2.97684 4.1406,-3.20457 4.1407,-3.41032 4.1406,-3.59272 4.1406,-3.75047" id="path1133" inkscape:connector-curvature="0" />
      <path style="fill:none;stroke:#6699ff;stroke-width:1.68918931;stroke-linecap:round;stroke-linejoin:round;stroke-miterlimit:10;stroke-opacity:0.8;paint-order:fill stroke markers" d="m -105,367.26691 4.14062,3.75047 4.14063,3.59272 4.140625,3.41032 4.140625,3.20457 4.140625,2.97684 4.140625,2.72872 4.140625,2.46189 4.140625,2.17818 4.140625,1.87955 4.140625,1.56804 4.140625,1.24577 4.140625,0.91497 4.140625,0.5779 4.140625,0.23687 4.140625,-0.10579 4.140625,-0.44772 4.140625,-0.78658 4.140625,-1.12006 4.140625,-1.44585 4.140625,-1.76173 4.140625,-2.06555 4.140625,-2.35519 4.140625,-2.62871 4.140625,-2.8842 4.14062,-3.11993 4.14063,-3.33426 4.14063,-3.52576 4.14062,-3.69308 4.14063,-3.83508 4.14062,-3.95081 4.14062,-4.03946 4.14063,-4.10042 4.14062,-4.13327 4.14063,-4.13779 4.14062,-4.11396 4.14063,-4.06193 4.14062,-3.98206 4.14063,-3.87489 4.14062,-3.74117 4.14063,-3.5818 4.14062,-3.39789 4.14063,-3.19068 4.14062,-2.96161 4.14063,-2.71223 4.14062,-2.44428 4.14063,-2.15956 4.14062,-1.86004 4.14063,-1.54778 4.14062,-1.2249 4.14063,-0.89364 4.14062,-0.55624 4.14063,-0.21503 4.14062,0.12765 4.14063,0.46945 4.14062,0.80804 4.14063,1.14109 4.14062,1.46632 4.14063,1.78149 4.14062,2.08447 4.14063,2.37315 4.14062,2.64556 4.14063,2.89984 4.14062,3.13426 4.14063,3.34717 4.14062,3.53716 4.14063,3.70291 4.14062,3.84326 4.14063,3.95728 4.14062,4.04418 4.14063,4.10335 4.14062,4.13441 4.14063,4.13712 4.14062,4.11148 4.14063,4.05766 4.14062,3.97603 4.14063,3.86715 4.14062,3.73175 4.14063,3.5708 4.14062,3.38535 4.14063,3.1767 4.14062,2.94629 4.14063,2.69568 4.14062,2.4266 4.14063,2.14087 4.14062,1.84048 4.14063,1.52748 4.14062,1.204 4.14063,0.87227 4.14062,0.53457 4.14063,0.19319 4.14062,-0.1495 4.14063,-0.49117 4.14062,-0.82947 4.14063,-1.16209 4.14062,-1.48675 4.14063,-1.80121 4.14062,-2.10333 4.14063,-2.39103 4.14062,-2.66234 4.14063,-2.91541 4.14062,-3.14849 4.14063,-3.36 4.14062,-3.54847 4.14063,-3.71262 4.14062,-3.85133 4.14063,-3.96364 4.14062,-4.04879 4.14063,-4.10617 0.73489,-0.73397" id="path145" inkscape:connector-curvature="0" />
      <path d="m 351.46018,273 c 0,2.76142 -2.23857,5 -5,5 -2.76142,0 -5,-2.23858 -5,-5 0,-2.76142 2.23858,-5 5,-5 2.76143,0 5,2.23858 5,5 z" id="path147" inkscape:connector-curvature="0" style="fill:#6699ff;fill-opacity:1;stroke:none;stroke-width:0.67567569;paint-order:stroke fill markers" />
      <path d="m 351.46018,348 c 0,2.76142 -2.23857,5 -5,5 -2.76142,0 -5,-2.23858 -5,-5 0,-2.76142 2.23858,-5 5,-5 2.76143,0 5,2.23858 5,5 z" stroke-miterlimit="10" id="path151" inkscape:connector-curvature="0" style="fill:none;stroke:#6699ff;stroke-width:1.68918931;stroke-linecap:square;stroke-miterlimit:10;stroke-opacity:1;paint-order:fill stroke markers" />
    </g>
  </g>
</svg>