<svg version="1.1" xmlns="http://www.w3.org/2000/svg" xmlns:xlink="http://www.w3.org/1999/xlink" width="400" height="399" viewBox="0 0 400 399">
  <defs>
    <clipPath id="ApwobTqmwIoX">
      <path fill="none" stroke="none" d=" M 0 0 L 400 0 L 400 399 L 0 399 L 0 0 Z" />
    </clipPath>
  </defs>
  <g transform="scale(1,1)" clip-path="url(#ApwobTqmwIoX)">
    <g transform="translate(-304,-176)">
      <rect fill="rgba(255,255,255,0)" stroke="none" x="0" y="0" width="1300" height="886" fill-opacity="1" />
      <path fill="none" stroke="rgb(192,192,192)" paint-order="fill stroke markers" d=" M 37.5 0.5 L 37.5 886.5 M 37.5 0.5 L 37.5 886.5 M 104.5 0.5 L 104.5 886.5 M 171.5 0.5 L 171.5 886.5 M 237.5 0.5 L 237.5 886.5 M 304.5 0.5 L 304.5 886.5 M 370.5 0.5 L 370.5 886.5 M 503.5 0.5 L 503.5 886.5 M 570.5 0.5 L 570.5 886.5 M 636.5 0.5 L 636.5 886.5 M 703.5 0.5 L 703.5 886.5 M 769.5 0.5 L 769.5 886.5 M 836.5 0.5 L 836.5 886.5 M 903.5 0.5 L 903.5 886.5 M 969.5 0.5 L 969.5 886.5 M 1036.5 0.5 L 1036.5 886.5 M 1102.5 0.5 L 1102.5 886.5 M 1169.5 0.5 L 1169.5 886.5 M 1235.5 0.5 L 1235.5 886.5" stroke-opacity="1" stroke-linecap="round" stroke-linejoin="round" stroke-miterlimit="10" />
      <path fill="none" stroke="rgb(192,192,192)" paint-order="fill stroke markers" d=" M 11.5 0.5 L 11.5 886.5 M 24.5 0.5 L 24.5 886.5 M 51.5 0.5 L 51.5 886.5 M 64.5 0.5 L 64.5 886.5 M 77.5 0.5 L 77.5 886.5 M 91.5 0.5 L 91.5 886.5 M 117.5 0.5 L 117.5 886.5 M 131.5 0.5 L 131.5 886.5 M 144.5 0.5 L 144.5 886.5 M 157.5 0.5 L 157.5 886.5 M 184.5 0.5 L 184.5 886.5 M 197.5 0.5 L 197.5 886.5 M 210.5 0.5 L 210.5 886.5 M 224.5 0.5 L 224.5 886.5 M 250.5 0.5 L 250.5 886.5 M 264.5 0.5 L 264.5 886.5 M 277.5 0.5 L 277.5 886.5 M 290.5 0.5 L 290.5 886.5 M 317.5 0.5 L 317.5 886.5 M 330.5 0.5 L 330.5 886.5 M 344.5 0.5 L 344.5 886.5 M 357.5 0.5 L 357.5 886.5 M 383.5 0.5 L 383.5 886.5 M 397.5 0.5 L 397.5 886.5 M 410.5 0.5 L 410.5 886.5 M 423.5 0.5 L 423.5 886.5 M 450.5 0.5 L 450.5 886.5 M 463.5 0.5 L 463.5 886.5 M 477.5 0.5 L 477.5 886.5 M 490.5 0.5 L 490.5 886.5 M 517.5 0.5 L 517.5 886.5 M 530.5 0.5 L 530.5 886.5 M 543.5 0.5 L 543.5 886.5 M 556.5 0.5 L 556.5 886.5 M 583.5 0.5 L 583.5 886.5 M 596.5 0.5 L 596.5 886.5 M 610.5 0.5 L 610.5 886.5 M 623.5 0.5 L 623.5 886.5 M 650.5 0.5 L 650.5 886.5 M 663.5 0.5 L 663.5 886.5 M 676.5 0.5 L 676.5 886.5 M 690.5 0.5 L 690.5 886.5 M 716.5 0.5 L 716.5 886.5 M 730.5 0.5 L 730.5 886.5 M 743.5 0.5 L 743.5 886.5 M 756.5 0.5 L 756.5 886.5 M 783.5 0.5 L 783.5 886.5 M 796.5 0.5 L 796.5 886.5 M 809.5 0.5 L 809.5 886.5 M 823.5 0.5 L 823.5 886.5 M 849.5 0.5 L 849.5 886.5 M 863.5 0.5 L 863.5 886.5 M 876.5 0.5 L 876.5 886.5 M 889.5 0.5 L 889.5 886.5 M 916.5 0.5 L 916.5 886.5 M 929.5 0.5 L 929.5 886.5 M 942.5 0.5 L 942.5 886.5 M 956.5 0.5 L 956.5 886.5 M 982.5 0.5 L 982.5 886.5 M 996.5 0.5 L 996.5 886.5 M 1009.5 0.5 L 1009.5 886.5 M 1022.5 0.5 L 1022.5 886.5 M 1049.5 0.5 L 1049.5 886.5 M 1062.5 0.5 L 1062.5 886.5 M 1076.5 0.5 L 1076.5 886.5 M 1089.5 0.5 L 1089.5 886.5 M 1116.5 0.5 L 1116.5 886.5 M 1129.5 0.5 L 1129.5 886.5 M 1142.5 0.5 L 1142.5 886.5 M 1155.5 0.5 L 1155.5 886.5 M 1182.5 0.5 L 1182.5 886.5 M 1195.5 0.5 L 1195.5 886.5 M 1209.5 0.5 L 1209.5 886.5 M 1222.5 0.5 L 1222.5 886.5 M 1249.5 0.5 L 1249.5 886.5 M 1262.5 0.5 L 1262.5 886.5 M 1275.5 0.5 L 1275.5 886.5 M 1289.5 0.5 L 1289.5 886.5" stroke-opacity="0.23529411764705882" stroke-linecap="round" stroke-linejoin="round" stroke-miterlimit="10" />
      <path fill="none" stroke="rgb(192,192,192)" paint-order="fill stroke markers" d=" M 0.5 9.5 L 1300.5 9.5 M 0.5 9.5 L 1300.5 9.5 M 0.5 75.5 L 1300.5 75.5 M 0.5 142.5 L 1300.5 142.5 M 0.5 208.5 L 1300.5 208.5 M 0.5 275.5 L 1300.5 275.5 M 0.5 342.5 L 1300.5 342.5 M 0.5 408.5 L 1300.5 408.5 M 0.5 541.5 L 1300.5 541.5 M 0.5 608.5 L 1300.5 608.5 M 0.5 674.5 L 1300.5 674.5 M 0.5 741.5 L 1300.5 741.5 M 0.5 807.5 L 1300.5 807.5 M 0.5 874.5 L 1300.5 874.5" stroke-opacity="1" stroke-linecap="round" stroke-linejoin="round" stroke-miterlimit="10" />
      <path fill="none" stroke="rgb(192,192,192)" paint-order="fill stroke markers" d=" M 0.5 9.5 L 1300.5 9.5 M 0.5 22.5 L 1300.5 22.5 M 0.5 35.5 L 1300.5 35.5 M 0.5 49.5 L 1300.5 49.5 M 0.5 62.5 L 1300.5 62.5 M 0.5 89.5 L 1300.5 89.5 M 0.5 102.5 L 1300.5 102.5 M 0.5 115.5 L 1300.5 115.5 M 0.5 129.5 L 1300.5 129.5 M 0.5 155.5 L 1300.5 155.5 M 0.5 169.5 L 1300.5 169.5 M 0.5 182.5 L 1300.5 182.5 M 0.5 195.5 L 1300.5 195.5 M 0.5 222.5 L 1300.5 222.5 M 0.5 235.5 L 1300.5 235.5 M 0.5 248.5 L 1300.5 248.5 M 0.5 262.5 L 1300.5 262.5 M 0.5 288.5 L 1300.5 288.5 M 0.5 302.5 L 1300.5 302.5 M 0.5 315.5 L 1300.5 315.5 M 0.5 328.5 L 1300.5 328.5 M 0.5 355.5 L 1300.5 355.5 M 0.5 368.5 L 1300.5 368.5 M 0.5 381.5 L 1300.5 381.5 M 0.5 395.5 L 1300.5 395.5 M 0.5 421.5 L 1300.5 421.5 M 0.5 435.5 L 1300.5 435.5 M 0.5 448.5 L 1300.5 448.5 M 0.5 461.5 L 1300.5 461.5 M 0.5 488.5 L 1300.5 488.5 M 0.5 501.5 L 1300.5 501.5 M 0.5 515.5 L 1300.5 515.5 M 0.5 528.5 L 1300.5 528.5 M 0.5 555.5 L 1300.5 555.5 M 0.5 568.5 L 1300.5 568.5 M 0.5 581.5 L 1300.5 581.5 M 0.5 594.5 L 1300.5 594.5 M 0.5 621.5 L 1300.5 621.5 M 0.5 634.5 L 1300.5 634.5 M 0.5 648.5 L 1300.5 648.5 M 0.5 661.5 L 1300.5 661.5 M 0.5 688.5 L 1300.5 688.5 M 0.5 701.5 L 1300.5 701.5 M 0.5 714.5 L 1300.5 714.5 M 0.5 728.5 L 1300.5 728.5 M 0.5 754.5 L 1300.5 754.5 M 0.5 767.5 L 1300.5 767.5 M 0.5 781.5 L 1300.5 781.5 M 0.5 794.5 L 1300.5 794.5 M 0.5 821.5 L 1300.5 821.5 M 0.5 834.5 L 1300.5 834.5 M 0.5 847.5 L 1300.5 847.5 M 0.5 861.5 L 1300.5 861.5" stroke-opacity="0.23529411764705882" stroke-linecap="round" stroke-linejoin="round" stroke-miterlimit="10" />
      <path fill="none" stroke="rgb(0,0,0)" paint-order="fill stroke markers" d=" M 437.5 2.5 L 437.5 886.5" stroke-opacity="1" stroke-miterlimit="10" />
      <path fill="none" stroke="rgb(0,0,0)" paint-order="fill stroke markers" d=" M 437.5 1.5 L 433.5 5.5" stroke-opacity="1" stroke-miterlimit="10" />
      <path fill="none" stroke="rgb(0,0,0)" paint-order="fill stroke markers" d=" M 437.5 1.5 L 441.5 5.5" stroke-opacity="1" stroke-miterlimit="10" />
      <path fill="none" stroke="rgb(0,0,0)" paint-order="fill stroke markers" d=" M 0.5 475.5 L 1298.5 475.5" stroke-opacity="1" stroke-miterlimit="10" />
      <path fill="none" stroke="rgb(0,0,0)" paint-order="fill stroke markers" d=" M 1299.5 475.5 L 1295.5 471.5" stroke-opacity="1" stroke-miterlimit="10" />
      <path fill="none" stroke="rgb(0,0,0)" paint-order="fill stroke markers" d=" M 1299.5 475.5 L 1295.5 479.5" stroke-opacity="1" stroke-miterlimit="10" />
      <text fill="rgb(0,0,0)" stroke="none" font-family="geogebra-sans-serif, sans-serif" font-size="12px" font-style="normal" font-weight="normal" text-decoration="normal" x="32" y="491" text-anchor="start" dominant-baseline="alphabetic" fill-opacity="1">–6</text>
      <text fill="rgb(0,0,0)" stroke="none" font-family="geogebra-sans-serif, sans-serif" font-size="12px" font-style="normal" font-weight="normal" text-decoration="normal" x="99" y="491" text-anchor="start" dominant-baseline="alphabetic" fill-opacity="1">–5</text>
      <text fill="rgb(0,0,0)" stroke="none" font-family="geogebra-sans-serif, sans-serif" font-size="12px" font-style="normal" font-weight="normal" text-decoration="normal" x="166" y="491" text-anchor="start" dominant-baseline="alphabetic" fill-opacity="1">–4</text>
      <text fill="rgb(0,0,0)" stroke="none" font-family="geogebra-sans-serif, sans-serif" font-size="12px" font-style="normal" font-weight="normal" text-decoration="normal" x="232" y="491" text-anchor="start" dominant-baseline="alphabetic" fill-opacity="1">–3</text>
      <text fill="rgb(0,0,0)" stroke="none" font-family="geogebra-sans-serif, sans-serif" font-size="12px" font-style="normal" font-weight="normal" text-decoration="normal" x="299" y="491" text-anchor="start" dominant-baseline="alphabetic" fill-opacity="1">–2</text>
      <text fill="rgb(0,0,0)" stroke="none" font-family="geogebra-sans-serif, sans-serif" font-size="12px" font-style="normal" font-weight="normal" text-decoration="normal" x="365" y="491" text-anchor="start" dominant-baseline="alphabetic" fill-opacity="1">–1</text>
      <text fill="rgb(0,0,0)" stroke="none" font-family="geogebra-sans-serif, sans-serif" font-size="12px" font-style="normal" font-weight="normal" text-decoration="normal" x="501" y="491" text-anchor="start" dominant-baseline="alphabetic" fill-opacity="1">1</text>
      <text fill="rgb(0,0,0)" stroke="none" font-family="geogebra-sans-serif, sans-serif" font-size="12px" font-style="normal" font-weight="normal" text-decoration="normal" x="568" y="491" text-anchor="start" dominant-baseline="alphabetic" fill-opacity="1">2</text>
      <text fill="rgb(0,0,0)" stroke="none" font-family="geogebra-sans-serif, sans-serif" font-size="12px" font-style="normal" font-weight="normal" text-decoration="normal" x="634" y="491" text-anchor="start" dominant-baseline="alphabetic" fill-opacity="1">3</text>
      <text fill="rgb(0,0,0)" stroke="none" font-family="geogebra-sans-serif, sans-serif" font-size="12px" font-style="normal" font-weight="normal" text-decoration="normal" x="701" y="491" text-anchor="start" dominant-baseline="alphabetic" fill-opacity="1">4</text>
      <text fill="rgb(0,0,0)" stroke="none" font-family="geogebra-sans-serif, sans-serif" font-size="12px" font-style="normal" font-weight="normal" text-decoration="normal" x="767" y="491" text-anchor="start" dominant-baseline="alphabetic" fill-opacity="1">5</text>
      <text fill="rgb(0,0,0)" stroke="none" font-family="geogebra-sans-serif, sans-serif" font-size="12px" font-style="normal" font-weight="normal" text-decoration="normal" x="834" y="491" text-anchor="start" dominant-baseline="alphabetic" fill-opacity="1">6</text>
      <text fill="rgb(0,0,0)" stroke="none" font-family="geogebra-sans-serif, sans-serif" font-size="12px" font-style="normal" font-weight="normal" text-decoration="normal" x="901" y="491" text-anchor="start" dominant-baseline="alphabetic" fill-opacity="1">7</text>
      <text fill="rgb(0,0,0)" stroke="none" font-family="geogebra-sans-serif, sans-serif" font-size="12px" font-style="normal" font-weight="normal" text-decoration="normal" x="967" y="491" text-anchor="start" dominant-baseline="alphabetic" fill-opacity="1">8</text>
      <text fill="rgb(0,0,0)" stroke="none" font-family="geogebra-sans-serif, sans-serif" font-size="12px" font-style="normal" font-weight="normal" text-decoration="normal" x="1034" y="491" text-anchor="start" dominant-baseline="alphabetic" fill-opacity="1">9</text>
      <text fill="rgb(0,0,0)" stroke="none" font-family="geogebra-sans-serif, sans-serif" font-size="12px" font-style="normal" font-weight="normal" text-decoration="normal" x="1097" y="491" text-anchor="start" dominant-baseline="alphabetic" fill-opacity="1">10</text>
      <text fill="rgb(0,0,0)" stroke="none" font-family="geogebra-sans-serif, sans-serif" font-size="12px" font-style="normal" font-weight="normal" text-decoration="normal" x="1164" y="491" text-anchor="start" dominant-baseline="alphabetic" fill-opacity="1">11</text>
      <text fill="rgb(0,0,0)" stroke="none" font-family="geogebra-sans-serif, sans-serif" font-size="12px" font-style="normal" font-weight="normal" text-decoration="normal" x="1230" y="491" text-anchor="start" dominant-baseline="alphabetic" fill-opacity="1">12</text>
      <text fill="rgb(0,0,0)" stroke="none" font-family="geogebra-sans-serif, sans-serif" font-size="12px" font-style="normal" font-weight="normal" text-decoration="normal" x="417" y="879" text-anchor="start" dominant-baseline="alphabetic" fill-opacity="1">–6</text>
      <text fill="rgb(0,0,0)" stroke="none" font-family="geogebra-sans-serif, sans-serif" font-size="12px" font-style="normal" font-weight="normal" text-decoration="normal" x="417" y="812" text-anchor="start" dominant-baseline="alphabetic" fill-opacity="1">–5</text>
      <text fill="rgb(0,0,0)" stroke="none" font-family="geogebra-sans-serif, sans-serif" font-size="12px" font-style="normal" font-weight="normal" text-decoration="normal" x="417" y="746" text-anchor="start" dominant-baseline="alphabetic" fill-opacity="1">–4</text>
      <text fill="rgb(0,0,0)" stroke="none" font-family="geogebra-sans-serif, sans-serif" font-size="12px" font-style="normal" font-weight="normal" text-decoration="normal" x="417" y="679" text-anchor="start" dominant-baseline="alphabetic" fill-opacity="1">–3</text>
      <text fill="rgb(0,0,0)" stroke="none" font-family="geogebra-sans-serif, sans-serif" font-size="12px" font-style="normal" font-weight="normal" text-decoration="normal" x="417" y="613" text-anchor="start" dominant-baseline="alphabetic" fill-opacity="1">–2</text>
      <text fill="rgb(0,0,0)" stroke="none" font-family="geogebra-sans-serif, sans-serif" font-size="12px" font-style="normal" font-weight="normal" text-decoration="normal" x="417" y="546" text-anchor="start" dominant-baseline="alphabetic" fill-opacity="1">–1</text>
      <text fill="rgb(0,0,0)" stroke="none" font-family="geogebra-sans-serif, sans-serif" font-size="12px" font-style="normal" font-weight="normal" text-decoration="normal" x="424" y="413" text-anchor="start" dominant-baseline="alphabetic" fill-opacity="1">1</text>
      <text fill="rgb(0,0,0)" stroke="none" font-family="geogebra-sans-serif, sans-serif" font-size="12px" font-style="normal" font-weight="normal" text-decoration="normal" x="424" y="347" text-anchor="start" dominant-baseline="alphabetic" fill-opacity="1">2</text>
      <text fill="rgb(0,0,0)" stroke="none" font-family="geogebra-sans-serif, sans-serif" font-size="12px" font-style="normal" font-weight="normal" text-decoration="normal" x="424" y="280" text-anchor="start" dominant-baseline="alphabetic" fill-opacity="1">3</text>
      <text fill="rgb(0,0,0)" stroke="none" font-family="geogebra-sans-serif, sans-serif" font-size="12px" font-style="normal" font-weight="normal" text-decoration="normal" x="424" y="213" text-anchor="start" dominant-baseline="alphabetic" fill-opacity="1">4</text>
      <text fill="rgb(0,0,0)" stroke="none" font-family="geogebra-sans-serif, sans-serif" font-size="12px" font-style="normal" font-weight="normal" text-decoration="normal" x="424" y="147" text-anchor="start" dominant-baseline="alphabetic" fill-opacity="1">5</text>
      <text fill="rgb(0,0,0)" stroke="none" font-family="geogebra-sans-serif, sans-serif" font-size="12px" font-style="normal" font-weight="normal" text-decoration="normal" x="424" y="80" text-anchor="start" dominant-baseline="alphabetic" fill-opacity="1">6</text>
      <text fill="rgb(255,0,0)" stroke="none" font-family="geogebra-sans-serif, sans-serif" font-size="12px" font-style="normal" font-weight="normal" text-decoration="normal" x="424" y="491" text-anchor="start" dominant-baseline="alphabetic" fill-opacity="1">0</text>
      <path fill="none" stroke="rgb(102,153,255)" paint-order="fill stroke markers" d=" M 20.312500000000057 892.0500000000009 L 25.390625 886.9718750000009 L 30.468750000000057 881.8937500000009 L 35.546875 876.8156250000009 L 40.625 871.7375000000009 L 45.703125 866.6593750000009 L 50.78125 861.5812500000009 L 55.85937500000006 856.5031250000009 L 60.9375 851.4250000000009 L 66.01562500000006 846.3468750000009 L 71.09375 841.2687500000009 L 76.171875 836.1906250000009 L 81.25 831.1125000000009 L 86.32812500000006 826.0343750000009 L 91.40625000000006 820.9562500000009 L 96.484375 815.8781250000009 L 101.56250000000006 810.8000000000008 L 106.640625 805.7218750000009 L 111.71875 800.6437500000009 L 116.796875 795.5656250000008 L 121.87500000000006 790.4875000000008 L 126.953125 785.4093750000008 L 132.03125 780.3312500000008 L 137.10937500000006 775.2531250000006 L 142.1875 770.1750000000008 L 147.265625 765.0968750000008 L 152.34375 760.0187500000006 L 157.42187500000006 754.9406250000006 L 162.5 749.8625000000006 L 167.578125 744.7843750000006 L 172.65625 739.7062500000006 L 177.73437500000006 734.6281250000006 L 182.81250000000003 729.5500000000006 L 187.890625 724.4718750000006 L 192.96875 719.3937500000006 L 198.04687500000003 714.3156250000006 L 203.12500000000003 709.2375000000006 L 208.20312500000003 704.1593750000006 L 213.28125000000003 699.0812500000006 L 218.35937500000003 694.0031250000006 L 223.4375 688.9250000000006 L 228.515625 683.8468750000006 L 233.59375 678.7687500000006 L 238.671875 673.6906250000005 L 243.75000000000003 668.6125000000005 L 248.82812500000003 663.5343750000005 L 253.90625000000003 658.4562500000005 L 258.984375 653.3781250000005 L 264.0625 648.3000000000005 L 269.140625 643.2218750000005 L 274.21875 638.1437500000004 L 279.296875 633.0656250000005 L 284.375 627.9875000000005 L 289.453125 622.9093750000004 L 294.53125 617.8312500000005 L 299.609375 612.7531250000004 L 304.6875 607.6750000000004 L 309.765625 602.5968750000004 L 314.84375 597.5187500000004 L 319.92187500000006 592.4406250000004 L 325 587.3625000000004 L 330.078125 582.2843750000004 L 335.15625 577.2062500000004 L 340.234375 572.1281250000004 L 345.3125 567.0500000000004 L 350.390625 561.9718750000004 L 355.46875 556.8937500000003 L 360.546875 551.8156250000004 L 365.62500000000006 546.7375000000003 L 370.703125 541.6593750000003 L 375.78125 536.5812500000004 L 380.859375 531.5031250000003 L 385.9375 526.4250000000003 L 391.015625 521.3468750000003 L 396.09375 516.2687500000003 L 401.17187500000006 511.19062500000024 L 406.25 506.1125000000003 L 411.328125 501.0343750000003 L 416.40625 495.95625000000024 L 421.484375 490.8781250000003 L 426.5625 485.80000000000024 L 431.640625 480.72187500000024 L 436.71875000000006 475.6437500000002 L 441.796875 470.56562500000024 L 446.875 465.48750000000024 L 451.953125 460.4093750000002 L 457.03125 455.33125000000024 L 462.109375 450.2531250000002 L 467.1875 445.1750000000002 L 472.265625 440.0968750000002 L 477.34375 435.0187500000002 L 482.42187500000006 429.9406250000001 L 487.5 424.8625000000001 L 492.578125 419.7843750000002 L 497.65625 414.7062500000001 L 502.734375 409.6281250000001 L 503.369140625 408.99335937500007 M 503.765869140625 342.04663085937494 L 503.78570556640625 342.02679443359375 L 505.2734375 340.5390625 L 507.8125 337.99999999999994 L 512.890625 332.921875 L 517.96875 327.8437499999999 L 523.046875 322.76562499999994 L 528.125 317.6874999999999 L 533.203125 312.609375 L 538.28125 307.5312499999999 L 543.359375 302.4531249999999 L 548.4375 297.3749999999999 L 553.515625 292.2968749999999 L 558.59375 287.2187499999999 L 563.671875 282.14062499999983 L 568.75 277.0624999999999 L 573.828125 271.9843749999999 L 578.90625 266.90624999999983 L 583.984375 261.8281249999998 L 589.0625 256.7499999999999 L 594.140625 251.67187499999983 L 599.21875 246.59374999999977 L 604.296875 241.51562499999974 L 609.375 236.43749999999983 L 614.453125 231.35937499999977 L 619.53125 226.28124999999974 L 624.609375 221.2031249999998 L 629.6875 216.12499999999977 L 634.765625 211.04687499999972 L 639.84375 205.96874999999966 L 644.921875 200.89062499999977 L 650 195.81249999999972 L 655.078125 190.73437499999966 L 660.15625 185.65624999999977 L 665.234375 180.57812499999972 L 670.3125 175.49999999999966 L 675.390625 170.4218749999996 L 680.46875 165.34374999999972 L 685.546875 160.26562499999966 L 690.625 155.1874999999996 L 695.703125 150.10937499999972 L 700.78125 145.03124999999966 L 705.859375 139.9531249999996 L 710.9375 134.8749999999996 L 716.015625 129.79687499999966 L 721.09375 124.7187499999996 L 726.171875 119.64062499999955 L 731.25 114.56249999999955 L 736.328125 109.4843749999996 L 741.40625 104.40624999999955 L 746.484375 99.32812499999955 L 751.5625 94.2499999999996 L 756.640625 89.17187499999955 L 761.71875 84.09374999999949 L 766.796875 79.01562499999949 L 771.875 73.93749999999955 L 776.953125 68.85937499999949 L 782.03125 63.78124999999949 L 787.109375 58.703124999999545 L 792.1875 53.62499999999949 L 797.265625 48.54687499999943 L 802.34375 43.46874999999943 L 807.421875 38.39062499999949 L 812.5 33.31249999999943 L 817.578125 28.23437499999943 L 822.65625 23.15624999999949 L 827.734375 18.07812499999943 L 832.8125 12.999999999999375 L 837.890625 7.921874999999375 L 842.96875 2.8437499999994316 L 848.046875 -2.2343750000006253 L 853.125 -7.312500000000625" stroke-opacity="0.6980392156862745" stroke-linecap="round" stroke-linejoin="round" stroke-miterlimit="10" stroke-width="2.5" />
      <path fill="rgb(102,153,255)" stroke="none" paint-order="stroke fill markers" d=" M 508.75300000000027 408.6094999999998 C 508.75300000000027 411.37092374915375 506.5144237491542 413.6094999999998 503.75300000000027 413.6094999999998 C 500.9915762508463 413.6094999999998 498.75300000000027 411.37092374915375 498.75300000000027 408.6094999999998 C 498.75300000000027 405.84807625084585 500.9915762508463 403.6094999999998 503.75300000000027 403.6094999999998 C 506.5144237491542 403.6094999999998 508.75300000000027 405.84807625084585 508.75300000000027 408.6094999999998 Z" fill-opacity="1" />
      <path fill="rgb(255,255,255)" stroke="none" paint-order="stroke fill markers" d=" M 508.75300000000027 342.0594999999997 C 508.75300000000027 344.8209237491536 506.5144237491542 347.0594999999997 503.75300000000027 347.0594999999997 C 500.9915762508463 347.0594999999997 498.75300000000027 344.8209237491536 498.75300000000027 342.0594999999997 C 498.75300000000027 339.2980762508457 500.9915762508463 337.0594999999997 503.75300000000027 337.0594999999997 C 506.5144237491542 337.0594999999997 508.75300000000027 339.2980762508457 508.75300000000027 342.0594999999997 Z" fill-opacity="1" />
      <path fill="none" stroke="rgb(102,153,255)" paint-order="fill stroke markers" d=" M 508.75300000000027 342.0594999999997 C 508.75300000000027 344.8209237491536 506.5144237491542 347.0594999999997 503.75300000000027 347.0594999999997 C 500.9915762508463 347.0594999999997 498.75300000000027 344.8209237491536 498.75300000000027 342.0594999999997 C 498.75300000000027 339.2980762508457 500.9915762508463 337.0594999999997 503.75300000000027 337.0594999999997 C 506.5144237491542 337.0594999999997 508.75300000000027 339.2980762508457 508.75300000000027 342.0594999999997 Z" stroke-opacity="1" stroke-linecap="square" stroke-miterlimit="10" stroke-width="2.5" />
    </g>
  </g>
</svg>