<?xml version="1.0" encoding="UTF-8" standalone="no"?>
<svg xmlns:dc="http://purl.org/dc/elements/1.1/" xmlns:cc="http://creativecommons.org/ns#" xmlns:rdf="http://www.w3.org/1999/02/22-rdf-syntax-ns#" xmlns:svg="http://www.w3.org/2000/svg" xmlns="http://www.w3.org/2000/svg" xmlns:sodipodi="http://sodipodi.sourceforge.net/DTD/sodipodi-0.dtd" xmlns:inkscape="http://www.inkscape.org/namespaces/inkscape" version="1.1" width="518" height="518" id="svg177" sodipodi:docname="one-sided-limit-example-1.svg" inkscape:version="0.92.2 (5c3e80d, 2017-08-06)" viewBox="0 0 518 518">
  <metadata id="metadata181">
    <rdf:RDF>
      <cc:Work rdf:about="">
        <dc:format>image/svg+xml</dc:format>
        <dc:type rdf:resource="http://purl.org/dc/dcmitype/StillImage" />
        <dc:title>
        </dc:title>
      </cc:Work>
    </rdf:RDF>
  </metadata>
  <sodipodi:namedview pagecolor="#ffffff" bordercolor="#666666" borderopacity="1" objecttolerance="10" gridtolerance="10" guidetolerance="10" inkscape:pageopacity="0" inkscape:pageshadow="2" inkscape:window-width="2160" inkscape:window-height="1360" id="namedview179" showgrid="false" inkscape:zoom="0.67332382" inkscape:cx="935.81027" inkscape:cy="401.58261" inkscape:window-x="-11" inkscape:window-y="-11" inkscape:window-maximized="1" inkscape:current-layer="svg177" />
  <defs id="defs5">
    <clipPath id="dqIfvPbkIcvP">
      <path d="M 0,0 H 797 V 701 H 0 Z" id="path2" inkscape:connector-curvature="0" style="fill:none;stroke:none" />
    </clipPath>
    <clipPath clipPathUnits="userSpaceOnUse" id="clipPath990">
      <rect style="fill:#000000;fill-opacity:0.66995072;stroke-width:1" id="rect992" width="518" height="518" x="144.06145" y="79.038116" inkscape:transform-center-x="-11.881356" inkscape:transform-center-y="-191.58686" />
    </clipPath>
  </defs>
  <g clip-path="url(#clipPath990)" id="g175" transform="translate(-144.06145,-79.038116)">
    <g transform="translate(-102,-19)" id="g173">
      <rect x="0" y="0" width="1060" height="756" id="rect7" fill="rgba(0,0,0,0)" />
      <path d="m 3.5,0.5 v 756 m 0,-756 v 756 m 50,-756 v 756 m 50,-756 v 756 m 50,-756 v 756 m 50,-756 v 756 m 50,-756 v 756 m 50,-756 v 756 m 50,-756 v 756 m 50,-756 v 756 m 100,-756 v 756 m 50,-756 v 756 m 50,-756 v 756 m 50,-756 v 756 m 50,-756 v 756 m 50,-756 v 756 m 50,-756 v 756 m 50,-756 v 756 m 50,-756 v 756 m 50,-756 v 756 m 50,-756 v 756 m 50,-756 v 756" stroke-miterlimit="10" id="path9" inkscape:connector-curvature="0" style="fill:none;stroke:#c0c0c0;stroke-linecap:round;stroke-linejoin:round;stroke-miterlimit:10;stroke-opacity:1;paint-order:fill stroke markers" />
      <path d="m 13.5,0.5 v 756 m 10,-756 v 756 m 10,-756 v 756 m 10,-756 v 756 m 20,-756 v 756 m 10,-756 v 756 m 10,-756 v 756 m 10,-756 v 756 m 20,-756 v 756 m 10,-756 v 756 m 10,-756 v 756 m 10,-756 v 756 m 20,-756 v 756 m 10,-756 v 756 m 10,-756 v 756 m 10,-756 v 756 m 20,-756 v 756 m 10,-756 v 756 m 10,-756 v 756 m 10,-756 v 756 m 20,-756 v 756 m 10,-756 v 756 m 10,-756 v 756 m 10,-756 v 756 m 20,-756 v 756 m 10,-756 v 756 m 10,-756 v 756 m 10,-756 v 756 m 20,-756 v 756 m 10,-756 v 756 m 10,-756 v 756 m 10,-756 v 756 m 20,-756 v 756 m 10,-756 v 756 m 10,-756 v 756 m 10,-756 v 756 m 20,-756 v 756 m 10,-756 v 756 m 10,-756 v 756 m 10,-756 v 756 m 20,-756 v 756 m 10,-756 v 756 m 10,-756 v 756 m 10,-756 v 756 m 20,-756 v 756 m 10,-756 v 756 m 10,-756 v 756 m 10,-756 v 756 m 20,-756 v 756 m 10,-756 v 756 m 10,-756 v 756 m 10,-756 v 756 m 20,-756 v 756 m 10,-756 v 756 m 10,-756 v 756 m 10,-756 v 756 m 20,-756 v 756 m 10,-756 v 756 m 10,-756 v 756 m 10,-756 v 756 m 20,-756 v 756 m 10,-756 v 756 m 10,-756 v 756 m 10,-756 v 756 m 20,-756 v 756 m 9,-756 v 756 m 10,-756 v 756 m 10,-756 v 756 m 20,-756 v 756 m 10,-756 v 756 m 10,-756 v 756 m 10,-756 v 756 m 20,-756 v 756 m 10,-756 v 756 m 10,-756 v 756 m 10,-756 v 756 m 20,-756 v 756 m 10,-756 v 756 m 10,-756 v 756 m 10,-756 v 756 m 20,-756 v 756 m 10,-756 v 756 m 11,-756 v 756 m 10,-756 v 756" stroke-miterlimit="10" id="path11" inkscape:connector-curvature="0" style="fill:none;stroke:#c0c0c0;stroke-linecap:round;stroke-linejoin:round;stroke-miterlimit:10;stroke-opacity:0.23529412;paint-order:fill stroke markers" />
      <path d="m 0.5,25.5 h 1060 m -1060,0 h 1060 m -1060,50 h 1060 m -1060,50 h 1060 m -1060,50 h 1060 m -1060,50 h 1060 m -1060,50 h 1060 m -1060,50 h 1060 m -1060,50 h 1060 m -1060,101 h 1060 m -1060,50 h 1060 m -1060,50 h 1060 m -1060,50 h 1060 m -1060,50 h 1060 m -1060,50 h 1060" stroke-miterlimit="10" id="path13" inkscape:connector-curvature="0" style="fill:none;stroke:#c0c0c0;stroke-linecap:round;stroke-linejoin:round;stroke-miterlimit:10;stroke-opacity:1;paint-order:fill stroke markers" />
      <path d="m 0.5,5.5 h 1060 m -1060,0 h 1060 m -1060,10 h 1060 m -1060,20 h 1060 m -1060,10 h 1060 m -1060,10 h 1060 m -1060,10 h 1060 m -1060,20 h 1060 m -1060,10 h 1060 m -1060,10 h 1060 m -1060,10 h 1060 m -1060,20 h 1060 m -1060,10 h 1060 m -1060,10 h 1060 m -1060,10 h 1060 m -1060,20 h 1060 m -1060,10 h 1060 m -1060,10 h 1060 m -1060,10 h 1060 m -1060,20 h 1060 m -1060,10 h 1060 m -1060,10 h 1060 m -1060,10 h 1060 m -1060,20 h 1060 m -1060,10 h 1060 m -1060,10 h 1060 m -1060,10 h 1060 m -1060,20 h 1060 m -1060,10 h 1060 m -1060,10 h 1060 m -1060,10 h 1060 m -1060,20 h 1060 m -1060,10 h 1060 m -1060,10 h 1060 m -1060,10 h 1060 m -1060,20 h 1060 m -1060,11 h 1060 m -1060,10 h 1060 m -1060,10 h 1060 m -1060,20 h 1060 m -1060,10 h 1060 m -1060,10 h 1060 m -1060,10 h 1060 m -1060,20 h 1060 m -1060,10 h 1060 m -1060,10 h 1060 m -1060,10 h 1060 m -1060,20 h 1060 m -1060,10 h 1060 m -1060,10 h 1060 m -1060,10 h 1060 m -1060,20 h 1060 m -1060,10 h 1060 m -1060,10 h 1060 m -1060,10 h 1060 m -1060,20 h 1060 m -1060,10 h 1060 m -1060,10 h 1060 m -1060,10 h 1060 m -1060,20 h 1060 m -1060,10 h 1060" stroke-miterlimit="10" id="path15" inkscape:connector-curvature="0" style="fill:none;stroke:#c0c0c0;stroke-linecap:round;stroke-linejoin:round;stroke-miterlimit:10;stroke-opacity:0.23529412;paint-order:fill stroke markers" />
      <path d="m 453.5,2.5 v 754" stroke-miterlimit="10" id="path17" inkscape:connector-curvature="0" style="fill:none;stroke:#000000;stroke-miterlimit:10;stroke-opacity:1;paint-order:fill stroke markers" />
      <path d="m 453.5,1.5 -4,4" stroke-miterlimit="10" id="path19" inkscape:connector-curvature="0" style="fill:none;stroke:#000000;stroke-miterlimit:10;stroke-opacity:1;paint-order:fill stroke markers" />
      <path d="m 453.5,1.5 4,4" stroke-miterlimit="10" id="path21" inkscape:connector-curvature="0" style="fill:none;stroke:#000000;stroke-miterlimit:10;stroke-opacity:1;paint-order:fill stroke markers" />
      <path d="m 0.5,425.5 h 1058" stroke-miterlimit="10" id="path23" inkscape:connector-curvature="0" style="fill:none;stroke:#000000;stroke-miterlimit:10;stroke-opacity:1;paint-order:fill stroke markers" />
      <path d="m 1059.5,425.5 -4,-4" stroke-miterlimit="10" id="path25" inkscape:connector-curvature="0" style="fill:none;stroke:#000000;stroke-miterlimit:10;stroke-opacity:1;paint-order:fill stroke markers" />
      <path d="m 1059.5,425.5 -4,4" stroke-miterlimit="10" id="path27" inkscape:connector-curvature="0" style="fill:none;stroke:#000000;stroke-miterlimit:10;stroke-opacity:1;paint-order:fill stroke markers" />
      <text font-size="12px" font-style="normal" font-weight="normal" text-decoration="normal" x="48" y="441" dominant-baseline="alphabetic" id="text31" style="font-style:normal;font-weight:normal;font-size:12px;font-family:geogebra-sans-serif, sans-serif;dominant-baseline:alphabetic;text-anchor:start;fill:#000000;fill-opacity:1;stroke:none">–8</text>
      <text font-size="12px" font-style="normal" font-weight="normal" text-decoration="normal" x="98" y="441" dominant-baseline="alphabetic" id="text35" style="font-style:normal;font-weight:normal;font-size:12px;font-family:geogebra-sans-serif, sans-serif;dominant-baseline:alphabetic;text-anchor:start;fill:#000000;fill-opacity:1;stroke:none">–7</text>
      <text font-size="12px" font-style="normal" font-weight="normal" text-decoration="normal" x="148" y="441" dominant-baseline="alphabetic" id="text39" style="font-style:normal;font-weight:normal;font-size:12px;font-family:geogebra-sans-serif, sans-serif;dominant-baseline:alphabetic;text-anchor:start;fill:#000000;fill-opacity:1;stroke:none">–6</text>
      <text font-size="12px" font-style="normal" font-weight="normal" text-decoration="normal" x="198" y="441" dominant-baseline="alphabetic" id="text43" style="font-style:normal;font-weight:normal;font-size:12px;font-family:geogebra-sans-serif, sans-serif;dominant-baseline:alphabetic;text-anchor:start;fill:#000000;fill-opacity:1;stroke:none">–5</text>
      <text font-size="12px" font-style="normal" font-weight="normal" text-decoration="normal" x="248" y="441" dominant-baseline="alphabetic" id="text47" style="font-style:normal;font-weight:normal;font-size:12px;font-family:geogebra-sans-serif, sans-serif;dominant-baseline:alphabetic;text-anchor:start;fill:#000000;fill-opacity:1;stroke:none">–4</text>
      <text font-size="12px" font-style="normal" font-weight="normal" text-decoration="normal" x="298" y="441" dominant-baseline="alphabetic" id="text51" style="font-style:normal;font-weight:normal;font-size:12px;font-family:geogebra-sans-serif, sans-serif;dominant-baseline:alphabetic;text-anchor:start;fill:#000000;fill-opacity:1;stroke:none">–3</text>
      <text font-size="12px" font-style="normal" font-weight="normal" text-decoration="normal" x="348" y="441" dominant-baseline="alphabetic" id="text55" style="font-style:normal;font-weight:normal;font-size:12px;font-family:geogebra-sans-serif, sans-serif;dominant-baseline:alphabetic;text-anchor:start;fill:#000000;fill-opacity:1;stroke:none">–2</text>
      <text font-size="12px" font-style="normal" font-weight="normal" text-decoration="normal" x="398" y="441" dominant-baseline="alphabetic" id="text59" style="font-style:normal;font-weight:normal;font-size:12px;font-family:geogebra-sans-serif, sans-serif;dominant-baseline:alphabetic;text-anchor:start;fill:#000000;fill-opacity:1;stroke:none">–1</text>
      <text font-size="12px" font-style="normal" font-weight="normal" text-decoration="normal" x="501" y="441" dominant-baseline="alphabetic" id="text63" style="font-style:normal;font-weight:normal;font-size:12px;font-family:geogebra-sans-serif, sans-serif;dominant-baseline:alphabetic;text-anchor:start;fill:#000000;fill-opacity:1;stroke:none">1</text>
      <text font-size="12px" font-style="normal" font-weight="normal" text-decoration="normal" x="551" y="441" dominant-baseline="alphabetic" id="text67" style="font-style:normal;font-weight:normal;font-size:12px;font-family:geogebra-sans-serif, sans-serif;dominant-baseline:alphabetic;text-anchor:start;fill:#000000;fill-opacity:1;stroke:none">2</text>
      <text font-size="12px" font-style="normal" font-weight="normal" text-decoration="normal" x="601" y="441" dominant-baseline="alphabetic" id="text71" style="font-style:normal;font-weight:normal;font-size:12px;font-family:geogebra-sans-serif, sans-serif;dominant-baseline:alphabetic;text-anchor:start;fill:#000000;fill-opacity:1;stroke:none">3</text>
      <text font-size="12px" font-style="normal" font-weight="normal" text-decoration="normal" x="651" y="441" dominant-baseline="alphabetic" id="text75" style="font-style:normal;font-weight:normal;font-size:12px;font-family:geogebra-sans-serif, sans-serif;dominant-baseline:alphabetic;text-anchor:start;fill:#000000;fill-opacity:1;stroke:none">4</text>
      <text font-size="12px" font-style="normal" font-weight="normal" text-decoration="normal" x="701" y="441" dominant-baseline="alphabetic" id="text79" style="font-style:normal;font-weight:normal;font-size:12px;font-family:geogebra-sans-serif, sans-serif;dominant-baseline:alphabetic;text-anchor:start;fill:#000000;fill-opacity:1;stroke:none">5</text>
      <text font-size="12px" font-style="normal" font-weight="normal" text-decoration="normal" x="751" y="441" dominant-baseline="alphabetic" id="text83" style="font-style:normal;font-weight:normal;font-size:12px;font-family:geogebra-sans-serif, sans-serif;dominant-baseline:alphabetic;text-anchor:start;fill:#000000;fill-opacity:1;stroke:none">6</text>
      <text font-size="12px" font-style="normal" font-weight="normal" text-decoration="normal" x="801" y="441" dominant-baseline="alphabetic" id="text87" style="font-style:normal;font-weight:normal;font-size:12px;font-family:geogebra-sans-serif, sans-serif;dominant-baseline:alphabetic;text-anchor:start;fill:#000000;fill-opacity:1;stroke:none">7</text>
      <text font-size="12px" font-style="normal" font-weight="normal" text-decoration="normal" x="851" y="441" dominant-baseline="alphabetic" id="text91" style="font-style:normal;font-weight:normal;font-size:12px;font-family:geogebra-sans-serif, sans-serif;dominant-baseline:alphabetic;text-anchor:start;fill:#000000;fill-opacity:1;stroke:none">8</text>
      <text font-size="12px" font-style="normal" font-weight="normal" text-decoration="normal" x="901" y="441" dominant-baseline="alphabetic" id="text95" style="font-style:normal;font-weight:normal;font-size:12px;font-family:geogebra-sans-serif, sans-serif;dominant-baseline:alphabetic;text-anchor:start;fill:#000000;fill-opacity:1;stroke:none">9</text>
      <text font-size="12px" font-style="normal" font-weight="normal" text-decoration="normal" x="948" y="441" dominant-baseline="alphabetic" id="text99" style="font-style:normal;font-weight:normal;font-size:12px;font-family:geogebra-sans-serif, sans-serif;dominant-baseline:alphabetic;text-anchor:start;fill:#000000;fill-opacity:1;stroke:none">10</text>
      <text font-size="12px" font-style="normal" font-weight="normal" text-decoration="normal" x="998" y="441" dominant-baseline="alphabetic" id="text103" style="font-style:normal;font-weight:normal;font-size:12px;font-family:geogebra-sans-serif, sans-serif;dominant-baseline:alphabetic;text-anchor:start;fill:#000000;fill-opacity:1;stroke:none">11</text>
      <text font-size="12px" font-style="normal" font-weight="normal" text-decoration="normal" x="433" y="731" dominant-baseline="alphabetic" id="text107" style="font-style:normal;font-weight:normal;font-size:12px;font-family:geogebra-sans-serif, sans-serif;dominant-baseline:alphabetic;text-anchor:start;fill:#000000;fill-opacity:1;stroke:none">–6</text>
      <text font-size="12px" font-style="normal" font-weight="normal" text-decoration="normal" x="433" y="681" dominant-baseline="alphabetic" id="text111" style="font-style:normal;font-weight:normal;font-size:12px;font-family:geogebra-sans-serif, sans-serif;dominant-baseline:alphabetic;text-anchor:start;fill:#000000;fill-opacity:1;stroke:none">–5</text>
      <text font-size="12px" font-style="normal" font-weight="normal" text-decoration="normal" x="433" y="631" dominant-baseline="alphabetic" id="text115" style="font-style:normal;font-weight:normal;font-size:12px;font-family:geogebra-sans-serif, sans-serif;dominant-baseline:alphabetic;text-anchor:start;fill:#000000;fill-opacity:1;stroke:none">–4</text>
      <text font-size="12px" font-style="normal" font-weight="normal" text-decoration="normal" x="433" y="581" dominant-baseline="alphabetic" id="text119" style="font-style:normal;font-weight:normal;font-size:12px;font-family:geogebra-sans-serif, sans-serif;dominant-baseline:alphabetic;text-anchor:start;fill:#000000;fill-opacity:1;stroke:none">–3</text>
      <text font-size="12px" font-style="normal" font-weight="normal" text-decoration="normal" x="433" y="531" dominant-baseline="alphabetic" id="text123" style="font-style:normal;font-weight:normal;font-size:12px;font-family:geogebra-sans-serif, sans-serif;dominant-baseline:alphabetic;text-anchor:start;fill:#000000;fill-opacity:1;stroke:none">–2</text>
      <text font-size="12px" font-style="normal" font-weight="normal" text-decoration="normal" x="433" y="481" dominant-baseline="alphabetic" id="text127" style="font-style:normal;font-weight:normal;font-size:12px;font-family:geogebra-sans-serif, sans-serif;dominant-baseline:alphabetic;text-anchor:start;fill:#000000;fill-opacity:1;stroke:none">–1</text>
      <text font-size="12px" font-style="normal" font-weight="normal" text-decoration="normal" x="440" y="381" dominant-baseline="alphabetic" id="text131" style="font-style:normal;font-weight:normal;font-size:12px;font-family:geogebra-sans-serif, sans-serif;dominant-baseline:alphabetic;text-anchor:start;fill:#000000;fill-opacity:1;stroke:none">1</text>
      <text font-size="12px" font-style="normal" font-weight="normal" text-decoration="normal" x="440" y="331" dominant-baseline="alphabetic" id="text135" style="font-style:normal;font-weight:normal;font-size:12px;font-family:geogebra-sans-serif, sans-serif;dominant-baseline:alphabetic;text-anchor:start;fill:#000000;fill-opacity:1;stroke:none">2</text>
      <text font-size="12px" font-style="normal" font-weight="normal" text-decoration="normal" x="440" y="280" dominant-baseline="alphabetic" id="text139" style="font-style:normal;font-weight:normal;font-size:12px;font-family:geogebra-sans-serif, sans-serif;dominant-baseline:alphabetic;text-anchor:start;fill:#000000;fill-opacity:1;stroke:none">3</text>
      <text font-size="12px" font-style="normal" font-weight="normal" text-decoration="normal" x="440" y="230" dominant-baseline="alphabetic" id="text143" style="font-style:normal;font-weight:normal;font-size:12px;font-family:geogebra-sans-serif, sans-serif;dominant-baseline:alphabetic;text-anchor:start;fill:#000000;fill-opacity:1;stroke:none">4</text>
      <text font-size="12px" font-style="normal" font-weight="normal" text-decoration="normal" x="440" y="180" dominant-baseline="alphabetic" id="text147" style="font-style:normal;font-weight:normal;font-size:12px;font-family:geogebra-sans-serif, sans-serif;dominant-baseline:alphabetic;text-anchor:start;fill:#000000;fill-opacity:1;stroke:none">5</text>
      <text font-size="12px" font-style="normal" font-weight="normal" text-decoration="normal" x="440" y="130" dominant-baseline="alphabetic" id="text151" style="font-style:normal;font-weight:normal;font-size:12px;font-family:geogebra-sans-serif, sans-serif;dominant-baseline:alphabetic;text-anchor:start;fill:#000000;fill-opacity:1;stroke:none">6</text>
      <text font-size="12px" font-style="normal" font-weight="normal" text-decoration="normal" x="440" y="80" dominant-baseline="alphabetic" id="text155" style="font-style:normal;font-weight:normal;font-size:12px;font-family:geogebra-sans-serif, sans-serif;dominant-baseline:alphabetic;text-anchor:start;fill:#000000;fill-opacity:1;stroke:none">7</text>
      <text font-size="12px" font-style="normal" font-weight="normal" text-decoration="normal" x="440" y="30" dominant-baseline="alphabetic" id="text159" style="font-style:normal;font-weight:normal;font-size:12px;font-family:geogebra-sans-serif, sans-serif;dominant-baseline:alphabetic;text-anchor:start;fill:#000000;fill-opacity:1;stroke:none">8</text>
      <text font-size="12px" font-style="normal" font-weight="normal" text-decoration="normal" x="440" y="441" dominant-baseline="alphabetic" id="text163" style="font-style:normal;font-weight:normal;font-size:12px;font-family:geogebra-sans-serif, sans-serif;dominant-baseline:alphabetic;text-anchor:start;fill:#000000;fill-opacity:1;stroke:none">0</text>
      <path d="m 115.9375,763.0625 4.14063,-4.14062 4.14062,-4.14063 4.14062,-4.14062 L 132.5,746.5 l 4.14062,-4.14062 4.14063,-4.14063 4.14062,-4.14062 4.14063,-4.14063 4.14062,-4.14062 4.14063,-4.14063 4.14062,-4.14062 4.14063,-4.14063 4.14063,-4.14062 4.14062,-4.14063 4.14062,-4.14062 4.14063,-4.14063 4.14062,-4.14062 4.14063,-4.14063 4.14062,-4.14062 4.14063,-4.14063 4.14063,-4.14062 4.14062,-4.14063 4.14062,-4.14062 4.14063,-4.14063 4.14062,-4.14062 4.14063,-4.14063 4.14063,-4.14062 4.14062,-4.14063 4.14062,-4.14062 4.14063,-4.14063 4.14062,-4.14062 4.14063,-4.14063 4.14063,-4.14062 4.14062,-4.14063 4.14062,-4.14062 L 265,614 l 4.14062,-4.14062 4.14063,-4.14063 4.14062,-4.14062 4.14063,-4.14063 4.14062,-4.14062 4.14063,-4.14063 4.14062,-4.14062 4.14063,-4.14063 4.14062,-4.14062 4.14063,-4.14063 4.14062,-4.14062 4.14063,-4.14063 4.14062,-4.14062 4.14063,-4.14063 4.14062,-4.14062 4.14063,-4.14063 4.14062,-4.14062 4.14063,-4.14063 4.14062,-4.14062 4.14063,-4.14063 4.14062,-4.14062 4.14063,-4.14063 4.14062,-4.14062 4.14063,-4.14063 4.14062,-4.14062 4.14063,-4.14063 4.14062,-4.14062 4.14063,-4.14063 4.14062,-4.14062 4.14063,-4.14063 4.14062,-4.14062 L 397.5,481.5 l 4.14062,-4.14062 4.14063,-4.14063 4.14062,-4.14062 4.14063,-4.14063 4.14062,-4.14062 4.14063,-4.14063 4.14062,-4.14063 4.14063,-4.14062 4.14063,-4.14063 4.14062,-4.14062 4.14062,-4.14062 4.14063,-4.14063 4.14062,-4.14063 4.14063,-4.14062 4.14062,-4.14063 4.14063,-4.14062 4.14062,-4.14063 4.14063,-4.14062 4.14062,-4.14063 4.14063,-4.14062 4.14063,-4.14063 4.14062,-4.14062 4.14062,-4.14063 4.14063,-4.14062 4.14062,-4.14063 1.03516,-1.03515 0.51758,-0.51758 m 0.43671,-50.43671 0.0162,-0.0162 2.13501,-2.13501 4.14062,-4.14063 4.14063,-4.14062 4.14062,-4.14063 4.14063,-4.14062 4.14062,-4.14063 L 530,299 l 4.14062,-4.14063 4.14063,-4.14062 4.14062,-4.14063 4.14063,-4.14062 4.14062,-4.14063 4.14063,-4.14062 4.14062,-4.14063 4.14063,-4.14062 4.14062,-4.14063 4.14063,-4.14062 4.14062,-4.14063 4.14063,-4.14062 4.14062,-4.14063 4.14063,-4.14062 4.14062,-4.14063 4.14063,-4.14062 4.14062,-4.14063 4.14063,-4.14062 4.14062,-4.14063 4.14063,-4.14062 4.14062,-4.14063 4.14063,-4.14062 4.14062,-4.14063 4.14063,-4.14062 4.14062,-4.14063 4.14063,-4.14062 4.14062,-4.14063 4.14063,-4.14062 4.14062,-4.14063 4.14063,-4.14062 4.14062,-4.14063 L 662.5,166.5 l 4.14062,-4.14063 4.14063,-4.14062 4.14062,-4.14063 4.14063,-4.14062 4.14062,-4.14063 4.14063,-4.14062 4.14062,-4.14063 4.14063,-4.14062 4.14062,-4.14063 4.14063,-4.14062 4.14062,-4.14063 4.14063,-4.14062 4.14062,-4.14063 4.14063,-4.14062 4.14062,-4.14063 4.14063,-4.14062 4.14062,-4.140625 4.14063,-4.140625 4.14062,-4.140625 4.14063,-4.140625 4.14062,-4.140625 4.14063,-4.140625 4.14062,-4.140625 4.14063,-4.140625 4.14062,-4.140625 4.14063,-4.140625 4.14062,-4.140625 4.14063,-4.140625 4.14062,-4.140625 4.14063,-4.140625 4.14062,-4.140625 L 795,34 l 4.14062,-4.140625 4.14063,-4.140625 4.14062,-4.140625 4.14063,-4.140625 4.14062,-4.140625 4.14063,-4.140625 4.14062,-4.140625 4.14063,-4.140625 4.14062,-4.140625 4.14063,-4.140625" stroke-miterlimit="10" id="path165" inkscape:connector-curvature="0" style="fill:none;stroke:#6699ff;stroke-width:2.5;stroke-linecap:round;stroke-linejoin:round;stroke-miterlimit:10;stroke-opacity:0.69803922;paint-order:fill stroke markers" />
      <path d="m 508,376 c 0,2.76142 -2.23858,5 -5,5 -2.76142,0 -5,-2.23858 -5,-5 0,-2.76142 2.23858,-5 5,-5 2.76142,0 5,2.23858 5,5 z" id="path167" inkscape:connector-curvature="0" style="fill:#6699ff;fill-opacity:1;stroke:none;paint-order:stroke fill markers" />
      <path d="m 508,326 c 0,2.76142 -2.23858,5 -5,5 -2.76142,0 -5,-2.23858 -5,-5 0,-2.76142 2.23858,-5 5,-5 2.76142,0 5,2.23858 5,5 z" id="path169" inkscape:connector-curvature="0" style="fill:#ffffff;fill-opacity:1;stroke:none;paint-order:stroke fill markers" />
      <path d="m 508,326 c 0,2.76142 -2.23858,5 -5,5 -2.76142,0 -5,-2.23858 -5,-5 0,-2.76142 2.23858,-5 5,-5 2.76142,0 5,2.23858 5,5 z" stroke-miterlimit="10" id="path171" inkscape:connector-curvature="0" style="fill:none;stroke:#6699ff;stroke-width:2.5;stroke-linecap:square;stroke-miterlimit:10;stroke-opacity:1;paint-order:fill stroke markers" />
    </g>
  </g>
</svg>