<?xml version="1.0" encoding="UTF-8" standalone="no"?>
<svg xmlns:dc="http://purl.org/dc/elements/1.1/" xmlns:cc="http://creativecommons.org/ns#" xmlns:rdf="http://www.w3.org/1999/02/22-rdf-syntax-ns#" xmlns:svg="http://www.w3.org/2000/svg" xmlns="http://www.w3.org/2000/svg" xmlns:sodipodi="http://sodipodi.sourceforge.net/DTD/sodipodi-0.dtd" xmlns:inkscape="http://www.inkscape.org/namespaces/inkscape" version="1.1" width="518" height="518" id="svg175" sodipodi:docname="sinx.svg" inkscape:version="0.92.2 (5c3e80d, 2017-08-06)" viewBox="0 0 518 518">
  <metadata id="metadata179">
    <rdf:RDF>
      <cc:Work rdf:about="">
        <dc:format>image/svg+xml</dc:format>
        <dc:type rdf:resource="http://purl.org/dc/dcmitype/StillImage" />
        <dc:title>
        </dc:title>
      </cc:Work>
    </rdf:RDF>
  </metadata>
  <sodipodi:namedview pagecolor="#ffffff" bordercolor="#666666" borderopacity="1" objecttolerance="10" gridtolerance="10" guidetolerance="10" inkscape:pageopacity="0" inkscape:pageshadow="2" inkscape:window-width="2160" inkscape:window-height="1360" id="namedview177" showgrid="false" inkscape:zoom="1.0495421" inkscape:cx="318.53077" inkscape:cy="156.57012" inkscape:window-x="-11" inkscape:window-y="-11" inkscape:window-maximized="1" inkscape:current-layer="svg175" />
  <defs id="defs5">
    <clipPath id="yTIyLDTRVfWJ">
      <path d="M 0,0 H 809 V 636 H 0 Z" id="path2" inkscape:connector-curvature="0" style="fill:none;stroke:none" />
    </clipPath>
    <clipPath clipPathUnits="userSpaceOnUse" id="clipPath990">
      <rect style="fill:#000000;fill-opacity:0.47290643;stroke-width:1" id="rect992" width="350" height="350" x="244.57001" y="150.28101" />
    </clipPath>
  </defs>
  <g transform="matrix(1.48,0,0,1.48,-361.96361,-222.41589)" clip-path="url(#clipPath990)" id="g173" style="stroke-width:0.67567569">
    <g transform="translate(-111,-53)" id="g171" style="stroke-width:0.67567569">
      <rect x="0" y="0" width="1060" height="756" id="rect7" fill="rgba(0,0,0,0)" />
      <path d="m 30.5,0.5 v 756 m 0,-756 v 756 m 50,-756 v 756 m 50,-756 v 756 m 50,-756 v 756 m 50,-756 v 756 m 50,-756 v 756 m 50,-756 v 756 m 50,-756 v 756 m 50,-756 v 756 m 50,-756 v 756 m 100,-756 v 756 m 50,-756 v 756 m 50,-756 v 756 m 50,-756 v 756 m 50,-756 v 756 m 50,-756 v 756 m 50,-756 v 756 m 50,-756 v 756 m 50,-756 v 756 m 50,-756 v 756" stroke-miterlimit="10" id="path9" inkscape:connector-curvature="0" style="fill:none;stroke:#c0c0c0;stroke-width:0.67567569;stroke-linecap:round;stroke-linejoin:round;stroke-miterlimit:10;stroke-opacity:1;paint-order:fill stroke markers" />
      <path d="m 0.5,0.5 v 756 m 10,-756 v 756 m 10,-756 v 756 m 20,-756 v 756 m 10,-756 v 756 m 10,-756 v 756 m 10,-756 v 756 m 20,-756 v 756 m 10,-756 v 756 m 10,-756 v 756 m 10,-756 v 756 m 20,-756 v 756 m 10,-756 v 756 m 10,-756 v 756 m 10,-756 v 756 m 20,-756 v 756 m 10,-756 v 756 m 10,-756 v 756 m 10,-756 v 756 m 20,-756 v 756 m 10,-756 v 756 m 10,-756 v 756 m 10,-756 v 756 m 20,-756 v 756 m 10,-756 v 756 m 10,-756 v 756 m 10,-756 v 756 m 20,-756 v 756 m 10,-756 v 756 m 10,-756 v 756 m 10,-756 v 756 m 20,-756 v 756 m 10,-756 v 756 m 10,-756 v 756 m 10,-756 v 756 m 20,-756 v 756 m 10,-756 v 756 m 10,-756 v 756 m 10,-756 v 756 m 20,-756 v 756 m 10,-756 v 756 m 10,-756 v 756 m 10,-756 v 756 m 20,-756 v 756 m 10,-756 v 756 m 10,-756 v 756 m 10,-756 v 756 m 20,-756 v 756 m 10,-756 v 756 m 10,-756 v 756 m 10,-756 v 756 m 20,-756 v 756 m 10,-756 v 756 m 10,-756 v 756 m 10,-756 v 756 m 20,-756 v 756 m 10,-756 v 756 m 10,-756 v 756 m 10,-756 v 756 m 20,-756 v 756 m 10,-756 v 756 m 10,-756 v 756 m 10,-756 v 756 m 20,-756 v 756 m 10,-756 v 756 m 10,-756 v 756 m 10,-756 v 756 m 20,-756 v 756 m 10,-756 v 756 m 10,-756 v 756 m 10,-756 v 756 m 20,-756 v 756 m 10,-756 v 756 m 10,-756 v 756 m 10,-756 v 756 m 20,-756 v 756 m 10,-756 v 756 m 9,-756 v 756 m 10,-756 v 756 m 20,-756 v 756 m 10,-756 v 756 m 10,-756 v 756 m 10,-756 v 756 m 20,-756 v 756 m 10,-756 v 756 m 10,-756 v 756" stroke-miterlimit="10" id="path11" inkscape:connector-curvature="0" style="fill:none;stroke:#c0c0c0;stroke-width:0.67567569;stroke-linecap:round;stroke-linejoin:round;stroke-miterlimit:10;stroke-opacity:0.23529412;paint-order:fill stroke markers" />
      <path d="m 0.5,27.5 h 1060 m -1060,0 h 1060 m -1060,50 h 1060 m -1060,50 h 1060 m -1060,50 h 1060 m -1060,50 h 1060 m -1060,50 h 1060 m -1060,51 h 1060 m -1060,100 h 1060 m -1060,50 h 1060 m -1060,50 h 1060 m -1060,50 h 1060 m -1060,50 h 1060 m -1060,50 h 1060 m -1060,50 h 1060" stroke-miterlimit="10" id="path13" inkscape:connector-curvature="0" style="fill:none;stroke:#c0c0c0;stroke-width:0.67567569;stroke-linecap:round;stroke-linejoin:round;stroke-miterlimit:10;stroke-opacity:1;paint-order:fill stroke markers" />
      <path d="m 0.5,7.5 h 1060 m -1060,0 h 1060 m -1060,10 h 1060 m -1060,20 h 1060 m -1060,10 h 1060 m -1060,10 h 1060 m -1060,10 h 1060 m -1060,20 h 1060 m -1060,10 h 1060 m -1060,10 h 1060 m -1060,10 h 1060 m -1060,20 h 1060 m -1060,10 h 1060 m -1060,10 h 1060 m -1060,10 h 1060 m -1060,20 h 1060 m -1060,10 h 1060 m -1060,10 h 1060 m -1060,11 h 1060 m -1060,20 h 1060 m -1060,10 h 1060 m -1060,10 h 1060 m -1060,10 h 1060 m -1060,20 h 1060 m -1060,10 h 1060 m -1060,10 h 1060 m -1060,10 h 1060 m -1060,20 h 1060 m -1060,10 h 1060 m -1060,10 h 1060 m -1060,10 h 1060 m -1060,20 h 1060 m -1060,10 h 1060 m -1060,10 h 1060 m -1060,10 h 1060 m -1060,20 h 1060 m -1060,10 h 1060 m -1060,10 h 1060 m -1060,10 h 1060 m -1060,20 h 1060 m -1060,10 h 1060 m -1060,10 h 1060 m -1060,10 h 1060 m -1060,20 h 1060 m -1060,10 h 1060 m -1060,10 h 1060 m -1060,10 h 1060 m -1060,20 h 1060 m -1060,10 h 1060 m -1060,10 h 1060 m -1060,10 h 1060 m -1060,20 h 1060 m -1060,10 h 1060 m -1060,10 h 1060 m -1060,10 h 1060 m -1060,20 h 1060 m -1060,10 h 1060 m -1060,10 h 1060 m -1060,10 h 1060 m -1060,20 h 1060 m -1060,10 h 1060" stroke-miterlimit="10" id="path15" inkscape:connector-curvature="0" style="fill:none;stroke:#c0c0c0;stroke-width:0.67567569;stroke-linecap:round;stroke-linejoin:round;stroke-miterlimit:10;stroke-opacity:0.23529412;paint-order:fill stroke markers" />
      <path d="m 530.5,2.5 v 754" stroke-miterlimit="10" id="path17" inkscape:connector-curvature="0" style="fill:none;stroke:#000000;stroke-width:0.67567569;stroke-miterlimit:10;stroke-opacity:1;paint-order:fill stroke markers" />
      <path d="m 530.5,1.5 -4,4" stroke-miterlimit="10" id="path19" inkscape:connector-curvature="0" style="fill:none;stroke:#000000;stroke-width:0.67567569;stroke-miterlimit:10;stroke-opacity:1;paint-order:fill stroke markers" />
      <path d="m 530.5,1.5 4,4" stroke-miterlimit="10" id="path21" inkscape:connector-curvature="0" style="fill:none;stroke:#000000;stroke-width:0.67567569;stroke-miterlimit:10;stroke-opacity:1;paint-order:fill stroke markers" />
      <path d="m 0.5,378.5 h 1058" stroke-miterlimit="10" id="path23" inkscape:connector-curvature="0" style="fill:none;stroke:#000000;stroke-width:0.67567569;stroke-miterlimit:10;stroke-opacity:1;paint-order:fill stroke markers" />
      <path d="m 1059.5,378.5 -4,-4" stroke-miterlimit="10" id="path25" inkscape:connector-curvature="0" style="fill:none;stroke:#000000;stroke-width:0.67567569;stroke-miterlimit:10;stroke-opacity:1;paint-order:fill stroke markers" />
      <path d="m 1059.5,378.5 -4,4" stroke-miterlimit="10" id="path27" inkscape:connector-curvature="0" style="fill:none;stroke:#000000;stroke-width:0.67567569;stroke-miterlimit:10;stroke-opacity:1;paint-order:fill stroke markers" />
      <text font-size="12px" font-style="normal" font-weight="normal" text-decoration="normal" x="22" y="394" dominant-baseline="alphabetic" id="text31" style="font-style:normal;font-weight:normal;font-size:12px;font-family:geogebra-sans-serif, sans-serif;dominant-baseline:alphabetic;text-anchor:start;fill:#000000;fill-opacity:1;stroke:none;stroke-width:0.67567569">–10</text>
      <text font-size="12px" font-style="normal" font-weight="normal" text-decoration="normal" x="75" y="394" dominant-baseline="alphabetic" id="text35" style="font-style:normal;font-weight:normal;font-size:12px;font-family:geogebra-sans-serif, sans-serif;dominant-baseline:alphabetic;text-anchor:start;fill:#000000;fill-opacity:1;stroke:none;stroke-width:0.67567569">–9</text>
      <text font-size="12px" font-style="normal" font-weight="normal" text-decoration="normal" x="125" y="394" dominant-baseline="alphabetic" id="text39" style="font-style:normal;font-weight:normal;font-size:12px;font-family:geogebra-sans-serif, sans-serif;dominant-baseline:alphabetic;text-anchor:start;fill:#000000;fill-opacity:1;stroke:none;stroke-width:0.67567569">–8</text>
      <text font-size="12px" font-style="normal" font-weight="normal" text-decoration="normal" x="175" y="394" dominant-baseline="alphabetic" id="text43" style="font-style:normal;font-weight:normal;font-size:12px;font-family:geogebra-sans-serif, sans-serif;dominant-baseline:alphabetic;text-anchor:start;fill:#000000;fill-opacity:1;stroke:none;stroke-width:0.67567569">–7</text>
      <text font-size="12px" font-style="normal" font-weight="normal" text-decoration="normal" x="225" y="394" dominant-baseline="alphabetic" id="text47" style="font-style:normal;font-weight:normal;font-size:12px;font-family:geogebra-sans-serif, sans-serif;dominant-baseline:alphabetic;text-anchor:start;fill:#000000;fill-opacity:1;stroke:none;stroke-width:0.67567569">–6</text>
      <text font-size="12px" font-style="normal" font-weight="normal" text-decoration="normal" x="275" y="394" dominant-baseline="alphabetic" id="text51" style="font-style:normal;font-weight:normal;font-size:12px;font-family:geogebra-sans-serif, sans-serif;dominant-baseline:alphabetic;text-anchor:start;fill:#000000;fill-opacity:1;stroke:none;stroke-width:0.67567569">–5</text>
      <text font-size="12px" font-style="normal" font-weight="normal" text-decoration="normal" x="325" y="394" dominant-baseline="alphabetic" id="text55" style="font-style:normal;font-weight:normal;font-size:12px;font-family:geogebra-sans-serif, sans-serif;dominant-baseline:alphabetic;text-anchor:start;fill:#000000;fill-opacity:1;stroke:none;stroke-width:0.67567569">–4</text>
      <text font-size="12px" font-style="normal" font-weight="normal" text-decoration="normal" x="375" y="394" dominant-baseline="alphabetic" id="text59" style="font-style:normal;font-weight:normal;font-size:12px;font-family:geogebra-sans-serif, sans-serif;dominant-baseline:alphabetic;text-anchor:start;fill:#000000;fill-opacity:1;stroke:none;stroke-width:0.67567569">–3</text>
      <text font-size="12px" font-style="normal" font-weight="normal" text-decoration="normal" x="425" y="394" dominant-baseline="alphabetic" id="text63" style="font-style:normal;font-weight:normal;font-size:12px;font-family:geogebra-sans-serif, sans-serif;dominant-baseline:alphabetic;text-anchor:start;fill:#000000;fill-opacity:1;stroke:none;stroke-width:0.67567569">–2</text>
      <text font-size="12px" font-style="normal" font-weight="normal" text-decoration="normal" x="475" y="394" dominant-baseline="alphabetic" id="text67" style="font-style:normal;font-weight:normal;font-size:12px;font-family:geogebra-sans-serif, sans-serif;dominant-baseline:alphabetic;text-anchor:start;fill:#000000;fill-opacity:1;stroke:none;stroke-width:0.67567569">–1</text>
      <text font-size="12px" font-style="normal" font-weight="normal" text-decoration="normal" x="578" y="394" dominant-baseline="alphabetic" id="text71" style="font-style:normal;font-weight:normal;font-size:12px;font-family:geogebra-sans-serif, sans-serif;dominant-baseline:alphabetic;text-anchor:start;fill:#000000;fill-opacity:1;stroke:none;stroke-width:0.67567569">1</text>
      <text font-size="12px" font-style="normal" font-weight="normal" text-decoration="normal" x="628" y="394" dominant-baseline="alphabetic" id="text75" style="font-style:normal;font-weight:normal;font-size:12px;font-family:geogebra-sans-serif, sans-serif;dominant-baseline:alphabetic;text-anchor:start;fill:#000000;fill-opacity:1;stroke:none;stroke-width:0.67567569">2</text>
      <text font-size="12px" font-style="normal" font-weight="normal" text-decoration="normal" x="678" y="394" dominant-baseline="alphabetic" id="text79" style="font-style:normal;font-weight:normal;font-size:12px;font-family:geogebra-sans-serif, sans-serif;dominant-baseline:alphabetic;text-anchor:start;fill:#000000;fill-opacity:1;stroke:none;stroke-width:0.67567569">3</text>
      <text font-size="12px" font-style="normal" font-weight="normal" text-decoration="normal" x="728" y="394" dominant-baseline="alphabetic" id="text83" style="font-style:normal;font-weight:normal;font-size:12px;font-family:geogebra-sans-serif, sans-serif;dominant-baseline:alphabetic;text-anchor:start;fill:#000000;fill-opacity:1;stroke:none;stroke-width:0.67567569">4</text>
      <text font-size="12px" font-style="normal" font-weight="normal" text-decoration="normal" x="778" y="394" dominant-baseline="alphabetic" id="text87" style="font-style:normal;font-weight:normal;font-size:12px;font-family:geogebra-sans-serif, sans-serif;dominant-baseline:alphabetic;text-anchor:start;fill:#000000;fill-opacity:1;stroke:none;stroke-width:0.67567569">5</text>
      <text font-size="12px" font-style="normal" font-weight="normal" text-decoration="normal" x="828" y="394" dominant-baseline="alphabetic" id="text91" style="font-style:normal;font-weight:normal;font-size:12px;font-family:geogebra-sans-serif, sans-serif;dominant-baseline:alphabetic;text-anchor:start;fill:#000000;fill-opacity:1;stroke:none;stroke-width:0.67567569">6</text>
      <text font-size="12px" font-style="normal" font-weight="normal" text-decoration="normal" x="878" y="394" dominant-baseline="alphabetic" id="text95" style="font-style:normal;font-weight:normal;font-size:12px;font-family:geogebra-sans-serif, sans-serif;dominant-baseline:alphabetic;text-anchor:start;fill:#000000;fill-opacity:1;stroke:none;stroke-width:0.67567569">7</text>
      <text font-size="12px" font-style="normal" font-weight="normal" text-decoration="normal" x="928" y="394" dominant-baseline="alphabetic" id="text99" style="font-style:normal;font-weight:normal;font-size:12px;font-family:geogebra-sans-serif, sans-serif;dominant-baseline:alphabetic;text-anchor:start;fill:#000000;fill-opacity:1;stroke:none;stroke-width:0.67567569">8</text>
      <text font-size="12px" font-style="normal" font-weight="normal" text-decoration="normal" x="978" y="394" dominant-baseline="alphabetic" id="text103" style="font-style:normal;font-weight:normal;font-size:12px;font-family:geogebra-sans-serif, sans-serif;dominant-baseline:alphabetic;text-anchor:start;fill:#000000;fill-opacity:1;stroke:none;stroke-width:0.67567569">9</text>
      <text font-size="12px" font-style="normal" font-weight="normal" text-decoration="normal" x="1025" y="394" dominant-baseline="alphabetic" id="text107" style="font-style:normal;font-weight:normal;font-size:12px;font-family:geogebra-sans-serif, sans-serif;dominant-baseline:alphabetic;text-anchor:start;fill:#000000;fill-opacity:1;stroke:none;stroke-width:0.67567569">10</text>
      <text font-size="12px" font-style="normal" font-weight="normal" text-decoration="normal" x="510" y="733" dominant-baseline="alphabetic" id="text111" style="font-style:normal;font-weight:normal;font-size:12px;font-family:geogebra-sans-serif, sans-serif;dominant-baseline:alphabetic;text-anchor:start;fill:#000000;fill-opacity:1;stroke:none;stroke-width:0.67567569">–7</text>
      <text font-size="12px" font-style="normal" font-weight="normal" text-decoration="normal" x="510" y="683" dominant-baseline="alphabetic" id="text115" style="font-style:normal;font-weight:normal;font-size:12px;font-family:geogebra-sans-serif, sans-serif;dominant-baseline:alphabetic;text-anchor:start;fill:#000000;fill-opacity:1;stroke:none;stroke-width:0.67567569">–6</text>
      <text font-size="12px" font-style="normal" font-weight="normal" text-decoration="normal" x="510" y="633" dominant-baseline="alphabetic" id="text119" style="font-style:normal;font-weight:normal;font-size:12px;font-family:geogebra-sans-serif, sans-serif;dominant-baseline:alphabetic;text-anchor:start;fill:#000000;fill-opacity:1;stroke:none;stroke-width:0.67567569">–5</text>
      <text font-size="12px" font-style="normal" font-weight="normal" text-decoration="normal" x="510" y="583" dominant-baseline="alphabetic" id="text123" style="font-style:normal;font-weight:normal;font-size:12px;font-family:geogebra-sans-serif, sans-serif;dominant-baseline:alphabetic;text-anchor:start;fill:#000000;fill-opacity:1;stroke:none;stroke-width:0.67567569">–4</text>
      <text font-size="12px" font-style="normal" font-weight="normal" text-decoration="normal" x="510" y="533" dominant-baseline="alphabetic" id="text127" style="font-style:normal;font-weight:normal;font-size:12px;font-family:geogebra-sans-serif, sans-serif;dominant-baseline:alphabetic;text-anchor:start;fill:#000000;fill-opacity:1;stroke:none;stroke-width:0.67567569">–3</text>
      <text font-size="12px" font-style="normal" font-weight="normal" text-decoration="normal" x="510" y="483" dominant-baseline="alphabetic" id="text131" style="font-style:normal;font-weight:normal;font-size:12px;font-family:geogebra-sans-serif, sans-serif;dominant-baseline:alphabetic;text-anchor:start;fill:#000000;fill-opacity:1;stroke:none;stroke-width:0.67567569">–2</text>
      <text font-size="12px" font-style="normal" font-weight="normal" text-decoration="normal" x="510" y="433" dominant-baseline="alphabetic" id="text135" style="font-style:normal;font-weight:normal;font-size:12px;font-family:geogebra-sans-serif, sans-serif;dominant-baseline:alphabetic;text-anchor:start;fill:#000000;fill-opacity:1;stroke:none;stroke-width:0.67567569">–1</text>
      <text font-size="12px" font-style="normal" font-weight="normal" text-decoration="normal" x="517" y="333" dominant-baseline="alphabetic" id="text139" style="font-style:normal;font-weight:normal;font-size:12px;font-family:geogebra-sans-serif, sans-serif;dominant-baseline:alphabetic;text-anchor:start;fill:#000000;fill-opacity:1;stroke:none;stroke-width:0.67567569">1</text>
      <text font-size="12px" font-style="normal" font-weight="normal" text-decoration="normal" x="517" y="283" dominant-baseline="alphabetic" id="text143" style="font-style:normal;font-weight:normal;font-size:12px;font-family:geogebra-sans-serif, sans-serif;dominant-baseline:alphabetic;text-anchor:start;fill:#000000;fill-opacity:1;stroke:none;stroke-width:0.67567569">2</text>
      <text font-size="12px" font-style="normal" font-weight="normal" text-decoration="normal" x="517" y="233" dominant-baseline="alphabetic" id="text147" style="font-style:normal;font-weight:normal;font-size:12px;font-family:geogebra-sans-serif, sans-serif;dominant-baseline:alphabetic;text-anchor:start;fill:#000000;fill-opacity:1;stroke:none;stroke-width:0.67567569">3</text>
      <text font-size="12px" font-style="normal" font-weight="normal" text-decoration="normal" x="517" y="183" dominant-baseline="alphabetic" id="text151" style="font-style:normal;font-weight:normal;font-size:12px;font-family:geogebra-sans-serif, sans-serif;dominant-baseline:alphabetic;text-anchor:start;fill:#000000;fill-opacity:1;stroke:none;stroke-width:0.67567569">4</text>
      <text font-size="12px" font-style="normal" font-weight="normal" text-decoration="normal" x="517" y="133" dominant-baseline="alphabetic" id="text155" style="font-style:normal;font-weight:normal;font-size:12px;font-family:geogebra-sans-serif, sans-serif;dominant-baseline:alphabetic;text-anchor:start;fill:#000000;fill-opacity:1;stroke:none;stroke-width:0.67567569">5</text>
      <text font-size="12px" font-style="normal" font-weight="normal" text-decoration="normal" x="517" y="83" dominant-baseline="alphabetic" id="text159" style="font-style:normal;font-weight:normal;font-size:12px;font-family:geogebra-sans-serif, sans-serif;dominant-baseline:alphabetic;text-anchor:start;fill:#000000;fill-opacity:1;stroke:none;stroke-width:0.67567569">6</text>
      <text font-size="12px" font-style="normal" font-weight="normal" text-decoration="normal" x="517" y="32" dominant-baseline="alphabetic" id="text163" style="font-style:normal;font-weight:normal;font-size:12px;font-family:geogebra-sans-serif, sans-serif;dominant-baseline:alphabetic;text-anchor:start;fill:#000000;fill-opacity:1;stroke:none;stroke-width:0.67567569">7</text>
      <text font-size="12px" font-style="normal" font-weight="normal" text-decoration="normal" x="517" y="394" dominant-baseline="alphabetic" id="text167" style="font-style:normal;font-weight:normal;font-size:12px;font-family:geogebra-sans-serif, sans-serif;dominant-baseline:alphabetic;text-anchor:start;fill:#000000;fill-opacity:1;stroke:none;stroke-width:0.67567569">0</text>
      <path d="m 0,331.86123 4.140625,1.75183 4.140625,2.05607 4.140625,2.3462 4.140625,2.62025 4.140625,2.87635 4.140625,3.11273 4.140625,3.32777 4.140625,3.52002 4.140625,3.68812 4.140625,3.83096 4.140625,3.94753 4.140625,4.03706 4.140625,4.0989 4.140625,4.13266 4.140625,4.13809 4.140625,4.11516 4.140625,4.06402 4.140625,3.98503 4.140625,3.87872 4.140625,3.74584 4.140625,3.58727 4.140625,3.40411 4.140625,3.19764 4.140625,2.96924 4.14062,2.72048 4.14063,2.45309 4.14063,2.16888 4.14062,1.8698 4.14063,1.55792 4.14062,1.23534 4.14062,0.90431 4.14063,0.56707 4.14062,0.22595 4.14063,-0.11672 4.14062,-0.45859 4.14063,-0.79731 4.14062,-1.13058 4.14063,-1.45609 4.14062,-1.77162 4.14063,-2.07501 4.14062,-2.36418 4.14063,-2.63715 4.14062,-2.89203 4.14063,-3.1271 4.14062,-3.34073 4.14063,-3.53147 4.14062,-3.698 4.14063,-3.83919 4.14062,-3.95406 4.14063,-4.04183 4.14062,-4.1019 4.14063,-4.13386 4.14062,-4.13747 4.14063,-4.11273 4.14062,-4.05981 4.14063,-3.97906 4.14062,-3.87103 4.14063,-3.73648 4.14062,-3.57631 4.14063,-3.39163 4.14062,-3.1837 4.14063,-2.95396 4.14062,-2.70397 4.14063,-2.43544 4.14062,-2.15023 4.14063,-1.85027 4.14062,-1.53763 4.14063,-1.21445 4.14062,-0.88296 4.14063,-0.54541 4.14062,-0.20411 4.14063,0.13857 4.14062,0.48032 4.14063,0.81876 4.14062,1.15159 4.14063,1.47654 4.14062,1.79136 4.14063,2.0939 4.14062,2.3821 4.14063,2.65396 4.14062,2.90764 4.14063,3.14138 4.14062,3.3536 4.14063,3.54283 4.14062,3.70777 4.14063,3.84731 4.14062,3.96048 4.14063,4.04649 4.14062,4.10478 4.14063,4.13493 4.14062,4.13675 4.14063,4.11019 4.14062,4.05549 4.14063,3.97297 4.14062,3.86323 4.14063,3.72702 4.14062,3.56525 4.14063,3.37904 4.14062,3.16969 4.14063,2.9386 4.14062,2.68737 4.14063,2.41773 4.14062,2.13151 4.14063,1.83068 4.14062,1.51731 4.14063,1.19354 4.14062,0.86158 4.14063,0.52372 4.14062,0.18228 4.14063,-0.16043 4.14062,-0.50202 4.14063,-0.84019 4.14062,-1.17258 4.14063,-1.49694 4.14063,-1.81105 4.14062,-2.11274 4.14062,-2.39994 4.14063,-2.67071 4.14062,-2.92316 4.14063,-3.15557 4.14062,-3.36637 4.14063,-3.55409 4.14062,-3.71745 4.14063,-3.85532 4.14062,-3.96678 4.14063,-4.05105 4.14062,-4.10755 L 530,378 l 4.14062,-4.13589 4.14063,-4.10755 4.14062,-4.05105 4.14063,-3.96678 4.14062,-3.85532 4.14063,-3.71745 4.14062,-3.55409 4.14063,-3.36637 4.14062,-3.15557 4.14063,-2.92316 4.14062,-2.67071 4.14063,-2.39994 4.14062,-2.11274 4.14063,-1.81105 4.14062,-1.49694 4.14063,-1.17258 4.14062,-0.84019 4.14063,-0.50202 4.14062,-0.16043 4.14063,0.18228 4.14062,0.52372 4.14063,0.86158 4.14062,1.19354 4.14063,1.51731 4.14062,1.83068 4.14063,2.13151 4.14062,2.41773 4.14063,2.68737 4.14062,2.9386 4.14063,3.16969 4.14062,3.37904 4.14063,3.56525 4.14062,3.72702 4.14063,3.86323 4.14062,3.97297 4.14063,4.05549 4.14062,4.11019 4.14063,4.13675 4.14062,4.13493 4.14063,4.10478 4.14062,4.04649 4.14063,3.96048 4.14062,3.84731 4.14063,3.70777 4.14062,3.54283 4.14063,3.3536 4.14062,3.14138 4.14063,2.90764 4.14062,2.65396 4.14063,2.3821 4.14062,2.0939 4.14063,1.79136 4.14062,1.47654 4.14063,1.15159 4.14062,0.81876 4.14063,0.48032 4.14062,0.13857 4.14063,-0.20411 4.14062,-0.54541 4.14063,-0.88296 4.14062,-1.21445 4.14063,-1.53763 4.14062,-1.85027 4.14063,-2.15023 4.14062,-2.43544 4.14063,-2.70397 4.14062,-2.95396 4.14063,-3.1837 4.14062,-3.39163 4.14063,-3.57631 4.14062,-3.73648 4.14063,-3.87103 4.14062,-3.97906 4.14063,-4.05981 4.14062,-4.11273 4.14063,-4.13747 4.14062,-4.13386 4.14063,-4.1019 4.14062,-4.04183 4.14063,-3.95406 4.14062,-3.83919 4.14063,-3.698 4.14062,-3.53147 4.14063,-3.34073 4.14062,-3.1271 4.14063,-2.89203 4.14063,-2.63715 4.14062,-2.36418 4.14062,-2.07501 4.14063,-1.77162 4.14062,-1.45609 4.14063,-1.13058 4.14062,-0.79731 4.14063,-0.45859 4.14062,-0.11672 4.14063,0.22595 4.14062,0.56707 4.14063,0.90431 4.14062,1.23534 4.14063,1.55792 4.14062,1.8698 4.14063,2.16888 4.14062,2.45309 4.14063,2.72048 4.14062,2.96924 4.14063,3.19764 4.14062,3.40411 4.14063,3.58727 4.14062,3.74584 4.14063,3.87872 4.14062,3.98503 4.14063,4.06402 4.14062,4.11516 4.14058,4.13809 4.1407,4.13266 4.1406,4.0989 4.1406,4.03706 4.1406,3.94753 4.1407,3.83096 4.1406,3.68812 4.1406,3.52002 4.1407,3.32777 4.1406,3.11273 4.1406,2.87635 4.1406,2.62025 4.1407,2.3462 4.1406,2.05607 4.1406,1.75183" stroke-miterlimit="10" id="path169" inkscape:connector-curvature="0" style="fill:none;stroke:#6699ff;stroke-width:1.68918931;stroke-linecap:round;stroke-linejoin:round;stroke-miterlimit:10;stroke-opacity:0.8;paint-order:fill stroke markers" />
    </g>
  </g>
</svg>