<?xml version="1.0" encoding="UTF-8" standalone="no"?>
<svg xmlns:dc="http://purl.org/dc/elements/1.1/" xmlns:cc="http://creativecommons.org/ns#" xmlns:rdf="http://www.w3.org/1999/02/22-rdf-syntax-ns#" xmlns:svg="http://www.w3.org/2000/svg" xmlns="http://www.w3.org/2000/svg" xmlns:sodipodi="http://sodipodi.sourceforge.net/DTD/sodipodi-0.dtd" xmlns:inkscape="http://www.inkscape.org/namespaces/inkscape" version="1.1" width="518" height="518" id="svg115" sodipodi:docname="sinx.svg" inkscape:version="0.92.2 (5c3e80d, 2017-08-06)" viewBox="0 0 518 518">
  <metadata id="metadata119">
    <rdf:RDF>
      <cc:Work rdf:about="">
        <dc:format>image/svg+xml</dc:format>
        <dc:type rdf:resource="http://purl.org/dc/dcmitype/StillImage" />
        <dc:title>
        </dc:title>
      </cc:Work>
    </rdf:RDF>
  </metadata>
  <sodipodi:namedview pagecolor="#ffffff" bordercolor="#666666" borderopacity="1" objecttolerance="10" gridtolerance="10" guidetolerance="10" inkscape:pageopacity="0" inkscape:pageshadow="2" inkscape:window-width="2160" inkscape:window-height="1360" id="namedview117" showgrid="false" inkscape:zoom="0.92838498" inkscape:cx="448.75553" inkscape:cy="320.2922" inkscape:window-x="-11" inkscape:window-y="-11" inkscape:window-maximized="1" inkscape:current-layer="svg115" />
  <defs id="defs5">
    <clipPath id="lSsogyrccSMO">
      <path d="M 0,0 H 786 V 719 H 0 Z" id="path2" inkscape:connector-curvature="0" style="fill:none;stroke:none" />
    </clipPath>
    <clipPath clipPathUnits="userSpaceOnUse" id="clipPath928">
      <rect style="fill:#000000;fill-opacity:0.51724135;stroke-width:1" id="rect930" width="518" height="518" x="132.48271" y="130.65892" />
    </clipPath>
  </defs>
  <g id="g986" transform="translate(-132.48271,70.34108)">
    <g transform="translate(0,-201)" id="g113" clip-path="url(#clipPath928)">
      <g id="g111" transform="translate(-102,-9)">
        <rect id="rect7" height="756" width="1060" y="0" x="0" fill="rgba(0,0,0,0)" />
        <path style="fill:none;stroke:#c0c0c0;stroke-linecap:round;stroke-linejoin:round;stroke-miterlimit:10;stroke-opacity:1;paint-order:fill stroke markers" inkscape:connector-curvature="0" id="path9" stroke-miterlimit="10" d="m 98.5,0.5 v 756 m 0,-756 v 756 m 157,-756 v 756 m 315,-756 v 756 m 157,-756 v 756 m 157,-756 v 756 m 157,-756 v 756" />
        <path style="fill:none;stroke:#c0c0c0;stroke-linecap:round;stroke-linejoin:round;stroke-miterlimit:10;stroke-opacity:0.23529412;paint-order:fill stroke markers" inkscape:connector-curvature="0" id="path11" stroke-miterlimit="10" d="m 4.5,0.5 v 756 m 32,-756 v 756 m 31,-756 v 756 m 63,-756 v 756 m 31,-756 v 756 m 32,-756 v 756 m 31,-756 v 756 m 63,-756 v 756 m 31,-756 v 756 m 32,-756 v 756 m 31,-756 v 756 m 63,-756 v 756 m 31,-756 v 756 m 32,-756 v 756 m 31,-756 v 756 m 63,-756 v 756 m 31,-756 v 756 m 32,-756 v 756 m 31,-756 v 756 m 63,-756 v 756 m 31,-756 v 756 m 32,-756 v 756 m 31,-756 v 756 m 63,-756 v 756 m 32,-756 v 756 m 31,-756 v 756 m 31,-756 v 756" />
        <path style="fill:none;stroke:#c0c0c0;stroke-linecap:round;stroke-linejoin:round;stroke-miterlimit:10;stroke-opacity:1;paint-order:fill stroke markers" inkscape:connector-curvature="0" id="path13" stroke-miterlimit="10" d="m 0.5,47.5 h 1060 m -1060,0 h 1060 m -1060,50 h 1060 m -1060,50 h 1060 m -1060,50 h 1060 m -1060,50 h 1060 m -1060,50 h 1060 m -1060,51 h 1060 m -1060,100 h 1060 m -1060,50 h 1060 m -1060,50 h 1060 m -1060,50 h 1060 m -1060,50 h 1060 m -1060,50 h 1060 m -1060,50 h 1060" />
        <path style="fill:none;stroke:#c0c0c0;stroke-linecap:round;stroke-linejoin:round;stroke-miterlimit:10;stroke-opacity:0.23529412;paint-order:fill stroke markers" inkscape:connector-curvature="0" id="path15" stroke-miterlimit="10" d="m 0.5,7.5 h 1060 m -1060,10 h 1060 m -1060,10 h 1060 m -1060,10 h 1060 m -1060,20 h 1060 m -1060,10 h 1060 m -1060,10 h 1060 m -1060,10 h 1060 m -1060,20 h 1060 m -1060,10 h 1060 m -1060,10 h 1060 m -1060,10 h 1060 m -1060,20 h 1060 m -1060,10 h 1060 m -1060,10 h 1060 m -1060,10 h 1060 m -1060,20 h 1060 m -1060,11 h 1060 m -1060,10 h 1060 m -1060,10 h 1060 m -1060,20 h 1060 m -1060,10 h 1060 m -1060,10 h 1060 m -1060,10 h 1060 m -1060,20 h 1060 m -1060,10 h 1060 m -1060,10 h 1060 m -1060,10 h 1060 m -1060,20 h 1060 m -1060,10 h 1060 m -1060,10 h 1060 m -1060,10 h 1060 m -1060,20 h 1060 m -1060,10 h 1060 m -1060,10 h 1060 m -1060,10 h 1060 m -1060,20 h 1060 m -1060,10 h 1060 m -1060,10 h 1060 m -1060,10 h 1060 m -1060,20 h 1060 m -1060,10 h 1060 m -1060,10 h 1060 m -1060,10 h 1060 m -1060,20 h 1060 m -1060,10 h 1060 m -1060,10 h 1060 m -1060,10 h 1060 m -1060,20 h 1060 m -1060,10 h 1060 m -1060,10 h 1060 m -1060,10 h 1060 m -1060,20 h 1060 m -1060,10 h 1060 m -1060,10 h 1060 m -1060,10 h 1060 m -1060,20 h 1060 m -1060,10 h 1060 m -1060,10 h 1060 m -1060,10 h 1060" />
        <path style="fill:none;stroke:#000000;stroke-miterlimit:10;stroke-opacity:1;paint-order:fill stroke markers" inkscape:connector-curvature="0" id="path17" stroke-miterlimit="10" d="m 413.5,2.5 v 754" />
        <path style="fill:none;stroke:#000000;stroke-miterlimit:10;stroke-opacity:1;paint-order:fill stroke markers" inkscape:connector-curvature="0" id="path19" stroke-miterlimit="10" d="m 413.5,1.5 -4,4" />
        <path style="fill:none;stroke:#000000;stroke-miterlimit:10;stroke-opacity:1;paint-order:fill stroke markers" inkscape:connector-curvature="0" id="path21" stroke-miterlimit="10" d="m 413.5,1.5 4,4" />
        <path style="fill:none;stroke:#000000;stroke-miterlimit:10;stroke-opacity:1;paint-order:fill stroke markers" inkscape:connector-curvature="0" id="path23" stroke-miterlimit="10" d="m 0.5,398.5 h 1058" />
        <path style="fill:none;stroke:#000000;stroke-miterlimit:10;stroke-opacity:1;paint-order:fill stroke markers" inkscape:connector-curvature="0" id="path25" stroke-miterlimit="10" d="m 1059.5,398.5 -4,-4" />
        <path style="fill:none;stroke:#000000;stroke-miterlimit:10;stroke-opacity:1;paint-order:fill stroke markers" inkscape:connector-curvature="0" id="path27" stroke-miterlimit="10" d="m 1059.5,398.5 -4,4" />
        <text style="font-style:normal;font-weight:normal;font-size:12px;font-family:geogebra-sans-serif, sans-serif;dominant-baseline:alphabetic;text-anchor:start;fill:#000000;fill-opacity:1;stroke:none" id="text31" dominant-baseline="alphabetic" y="414" x="90" text-decoration="normal" font-weight="normal" font-style="normal" font-size="12px">–2π</text>
        <text style="font-style:normal;font-weight:normal;font-size:12px;font-family:geogebra-sans-serif, sans-serif;dominant-baseline:alphabetic;text-anchor:start;fill:#000000;fill-opacity:1;stroke:none" id="text35" dominant-baseline="alphabetic" y="414" x="250" text-decoration="normal" font-weight="normal" font-style="normal" font-size="12px">–π</text>
        <text style="font-style:normal;font-weight:normal;font-size:12px;font-family:geogebra-sans-serif, sans-serif;dominant-baseline:alphabetic;text-anchor:start;fill:#000000;fill-opacity:1;stroke:none" id="text39" dominant-baseline="alphabetic" y="414" x="568" text-decoration="normal" font-weight="normal" font-style="normal" font-size="12px">π</text>
        <text style="font-style:normal;font-weight:normal;font-size:12px;font-family:geogebra-sans-serif, sans-serif;dominant-baseline:alphabetic;text-anchor:start;fill:#000000;fill-opacity:1;stroke:none" id="text43" dominant-baseline="alphabetic" y="414" x="722" text-decoration="normal" font-weight="normal" font-style="normal" font-size="12px">2π</text>
        <text style="font-style:normal;font-weight:normal;font-size:12px;font-family:geogebra-sans-serif, sans-serif;dominant-baseline:alphabetic;text-anchor:start;fill:#000000;fill-opacity:1;stroke:none" id="text47" dominant-baseline="alphabetic" y="414" x="879" text-decoration="normal" font-weight="normal" font-style="normal" font-size="12px">3π</text>
        <text style="font-style:normal;font-weight:normal;font-size:12px;font-family:geogebra-sans-serif, sans-serif;dominant-baseline:alphabetic;text-anchor:start;fill:#000000;fill-opacity:1;stroke:none" id="text51" dominant-baseline="alphabetic" y="414" x="1036" text-decoration="normal" font-weight="normal" font-style="normal" font-size="12px">4π</text>
        <text style="font-style:normal;font-weight:normal;font-size:12px;font-family:geogebra-sans-serif, sans-serif;dominant-baseline:alphabetic;text-anchor:start;fill:#000000;fill-opacity:1;stroke:none" id="text55" dominant-baseline="alphabetic" y="703" x="393" text-decoration="normal" font-weight="normal" font-style="normal" font-size="12px">–6</text>
        <text style="font-style:normal;font-weight:normal;font-size:12px;font-family:geogebra-sans-serif, sans-serif;dominant-baseline:alphabetic;text-anchor:start;fill:#000000;fill-opacity:1;stroke:none" id="text59" dominant-baseline="alphabetic" y="653" x="393" text-decoration="normal" font-weight="normal" font-style="normal" font-size="12px">–5</text>
        <text style="font-style:normal;font-weight:normal;font-size:12px;font-family:geogebra-sans-serif, sans-serif;dominant-baseline:alphabetic;text-anchor:start;fill:#000000;fill-opacity:1;stroke:none" id="text63" dominant-baseline="alphabetic" y="603" x="393" text-decoration="normal" font-weight="normal" font-style="normal" font-size="12px">–4</text>
        <text style="font-style:normal;font-weight:normal;font-size:12px;font-family:geogebra-sans-serif, sans-serif;dominant-baseline:alphabetic;text-anchor:start;fill:#000000;fill-opacity:1;stroke:none" id="text67" dominant-baseline="alphabetic" y="553" x="393" text-decoration="normal" font-weight="normal" font-style="normal" font-size="12px">–3</text>
        <text style="font-style:normal;font-weight:normal;font-size:12px;font-family:geogebra-sans-serif, sans-serif;dominant-baseline:alphabetic;text-anchor:start;fill:#000000;fill-opacity:1;stroke:none" id="text71" dominant-baseline="alphabetic" y="503" x="393" text-decoration="normal" font-weight="normal" font-style="normal" font-size="12px">–2</text>
        <text style="font-style:normal;font-weight:normal;font-size:12px;font-family:geogebra-sans-serif, sans-serif;dominant-baseline:alphabetic;text-anchor:start;fill:#000000;fill-opacity:1;stroke:none" id="text75" dominant-baseline="alphabetic" y="453" x="393" text-decoration="normal" font-weight="normal" font-style="normal" font-size="12px">–1</text>
        <text style="font-style:normal;font-weight:normal;font-size:12px;font-family:geogebra-sans-serif, sans-serif;dominant-baseline:alphabetic;text-anchor:start;fill:#000000;fill-opacity:1;stroke:none" id="text79" dominant-baseline="alphabetic" y="353" x="400" text-decoration="normal" font-weight="normal" font-style="normal" font-size="12px">1</text>
        <text style="font-style:normal;font-weight:normal;font-size:12px;font-family:geogebra-sans-serif, sans-serif;dominant-baseline:alphabetic;text-anchor:start;fill:#000000;fill-opacity:1;stroke:none" id="text83" dominant-baseline="alphabetic" y="303" x="400" text-decoration="normal" font-weight="normal" font-style="normal" font-size="12px">2</text>
        <text style="font-style:normal;font-weight:normal;font-size:12px;font-family:geogebra-sans-serif, sans-serif;dominant-baseline:alphabetic;text-anchor:start;fill:#000000;fill-opacity:1;stroke:none" id="text87" dominant-baseline="alphabetic" y="253" x="400" text-decoration="normal" font-weight="normal" font-style="normal" font-size="12px">3</text>
        <text style="font-style:normal;font-weight:normal;font-size:12px;font-family:geogebra-sans-serif, sans-serif;dominant-baseline:alphabetic;text-anchor:start;fill:#000000;fill-opacity:1;stroke:none" id="text91" dominant-baseline="alphabetic" y="203" x="400" text-decoration="normal" font-weight="normal" font-style="normal" font-size="12px">4</text>
        <text style="font-style:normal;font-weight:normal;font-size:12px;font-family:geogebra-sans-serif, sans-serif;dominant-baseline:alphabetic;text-anchor:start;fill:#000000;fill-opacity:1;stroke:none" id="text95" dominant-baseline="alphabetic" y="153" x="400" text-decoration="normal" font-weight="normal" font-style="normal" font-size="12px">5</text>
        <text style="font-style:normal;font-weight:normal;font-size:12px;font-family:geogebra-sans-serif, sans-serif;dominant-baseline:alphabetic;text-anchor:start;fill:#000000;fill-opacity:1;stroke:none" id="text99" dominant-baseline="alphabetic" y="103" x="400" text-decoration="normal" font-weight="normal" font-style="normal" font-size="12px">6</text>
        <text style="font-style:normal;font-weight:normal;font-size:12px;font-family:geogebra-sans-serif, sans-serif;dominant-baseline:alphabetic;text-anchor:start;fill:#000000;fill-opacity:1;stroke:none" id="text103" dominant-baseline="alphabetic" y="52" x="400" text-decoration="normal" font-weight="normal" font-style="normal" font-size="12px">7</text>
        <text style="font-style:normal;font-weight:normal;font-size:12px;font-family:geogebra-sans-serif, sans-serif;dominant-baseline:alphabetic;text-anchor:start;fill:#000000;fill-opacity:1;stroke:none" id="text107" dominant-baseline="alphabetic" y="414" x="400" text-decoration="normal" font-weight="normal" font-style="normal" font-size="12px">0</text>
        <path style="fill:none;stroke:#6699ff;stroke-width:2.5;stroke-linecap:round;stroke-linejoin:round;stroke-miterlimit:10;stroke-opacity:0.8;paint-order:fill stroke markers" inkscape:connector-curvature="0" id="path109" stroke-miterlimit="10" d="m 0,443.93503 4.140625,1.47607 4.140625,1.15112 4.140625,0.81827 4.140625,0.47982 4.140625,0.13807 4.140625,-0.20461 4.140625,-0.5459 4.140625,-0.88345 4.140625,-1.21493 4.140625,-1.53809 4.140625,-1.85072 4.140625,-2.15065 4.140625,-2.43585 4.140625,-2.70434 4.140625,-2.95431 4.140625,-3.18403 4.140625,-3.39191 4.140625,-3.57656 4.140625,-3.73669 4.140625,-3.87121 4.140625,-3.9792 4.140625,-4.0599 4.140625,-4.1128 4.140625,-4.13749 4.14063,-4.13382 4.14062,-4.10183 4.14063,-4.04173 4.14062,-3.95391 4.14063,-3.839 4.14062,-3.69778 4.14062,-3.53121 4.14063,-3.34044 4.14062,-3.12677 4.14063,-2.89168 4.14063,-2.63676 4.14062,-2.36377 4.14062,-2.07458 4.14063,-1.77117 4.14063,-1.45562 4.14062,-1.13009 4.14062,-0.79683 4.14063,-0.45809 4.14062,-0.11622 4.14063,0.22645 4.14063,0.56757 4.14062,0.90479 4.14063,1.23582 4.14062,1.55837 4.14062,1.87025 4.14063,2.16931 4.14063,2.45349 4.14062,2.72086 4.14063,2.96959 4.14062,3.19795 4.14062,3.4044 4.14063,3.58752 4.14063,3.74605 4.14062,3.87889 4.14063,3.98517 4.14062,4.06411 4.14062,4.11522 4.14063,4.1381 4.14062,4.13263 4.14063,4.09883 4.14062,4.03695 4.14063,3.94738 4.14062,3.83077 4.14063,3.6879 4.14062,3.51975 4.14063,3.32748 4.14062,3.1124 4.14063,2.87599 4.14063,2.61987 4.14062,2.34578 4.14062,2.05563 4.14063,1.75138 4.14062,1.43514 4.14063,1.10904 4.14063,0.77536 4.14062,0.43635 4.14062,0.0944 4.14063,-0.24828 4.14062,-0.58922 4.14063,-0.92611 4.14063,-1.25667 4.14062,-1.57861 4.14062,-1.88973 4.14063,-2.1879 4.14062,-2.47107 4.14063,-2.7373 4.14063,-2.98478 4.14062,-3.21179 4.14062,-3.41679 4.14063,-3.59838 4.14062,-3.7553 4.14063,-3.88648 4.14063,-3.99102 4.14062,-4.06821 4.14063,-4.11752 4.14062,-4.1386 4.14063,-4.13132 4.14062,-4.09572 4.14062,-4.03205 4.14063,-3.94075 4.14062,-3.82243 4.14063,-3.67792 4.14062,-3.50819 4.14063,-3.31442 4.14062,-3.09795 4.14063,-2.86022 4.14063,-2.6029 4.14062,-2.32774 4.14063,-2.03662 4.14062,-1.73155 4.14063,-1.4146 4.14062,-1.08796 4.14062,-0.75387 4.14063,-0.4146 4.14062,-0.0725 4.14063,0.2701 4.14062,0.61086 4.14063,0.94741 4.14063,1.27749 4.14062,1.5988 4.14062,1.90916 4.14063,2.20643 4.14063,2.48857 4.14062,2.75367 4.14062,2.99989 4.14063,3.22554 4.14062,3.42909 4.14063,3.60913 4.14062,3.76445 4.14063,3.89395 4.14062,3.99677 4.14063,4.07219 4.14062,4.11971 4.14063,4.13898 4.14062,4.12989 4.14063,4.0925 4.14062,4.02705 4.14063,3.93399 4.14062,3.81399 4.14063,3.66783 4.14062,3.49654 4.14063,3.30128 4.14062,3.08339 4.14063,2.84438 4.14062,2.58586 4.14063,2.30963 4.14062,2.01756 4.14063,1.71166 4.14063,1.39403 4.14062,1.06685 4.14062,0.73236 4.14063,0.39284 4.14062,0.0506 4.14063,-0.29191 4.14062,-0.63248 4.14063,-0.96868 4.14062,-1.29827 4.14063,-1.61895 4.14062,-1.92853 4.14063,-2.2249 4.14062,-2.50602 4.14063,-2.76995 4.14062,-3.01491 4.14063,-3.2392 4.14062,-3.44129 4.14063,-3.61979 4.14062,-3.77349 4.14063,-3.90132 4.14062,-4.0024 4.14063,-4.07606 4.14062,-4.12178 4.14063,-4.13926 4.14062,-4.12835 4.14063,-4.08915 4.14062,-4.02193 4.14063,-3.92714 4.14062,-3.80543 4.14063,-3.65765 4.14062,-3.48478 4.14063,-3.28805 4.14062,-3.06876 4.14063,-2.82845 4.14062,-2.56875 4.14063,-2.29145 4.14062,-1.99844 4.14063,-1.69172 4.14062,-1.37343 4.14063,-1.04571 4.14062,-0.71082 4.14063,-0.37107 4.14062,-0.0288 4.14063,0.31372 4.14063,0.65407 4.14062,0.98994 4.14062,1.31901 4.14063,1.63905 4.14062,1.94785 4.14063,2.24331 4.14062,2.52338 4.14063,2.78617 4.14062,3.02985 4.14063,3.25277 4.14063,3.45339 4.14062,3.63035 4.14062,3.78243 4.14063,3.90857 4.14063,4.00792 4.14062,4.07982 4.14062,4.12374 4.14063,4.13941 4.14062,4.12669 4.14063,4.0857 4.14063,4.0167 4.14062,3.92017 4.14062,3.79678 4.14063,3.64735 4.14063,3.47294 4.14062,3.27471 4.14062,3.05405 4.14063,2.81244 4.14062,2.55157 4.14063,2.27321 4.14063,1.97926 4.14062,1.67175 4.14062,1.35277 4.14063,1.02454 4.14063,0.68928 4.14062,0.34928 4.14062,0.007 4.14063,-0.33553 4.14063,-0.67565 4.14062,-1.01115 4.14062,-1.33972 4.14063,-1.65911 4.14062,-1.96712 4.14063,-2.26165 4.14063,-2.54068 4.14057,-2.8023 4.1407,-3.04471 4.1406,-3.26624 4.1406,-3.46541 4.1407,-3.6408 4.1406,-3.79125 4.1406,-3.91572 4.1406,-4.01334 4.1407,-4.08346 4.1406,-4.12559 4.1406,-4.13944 4.1406,-4.12492 4.1407,-4.08213 4.1406,-4.01136 4.1406,-3.91309" />
      </g>
    </g>
  </g>
</svg>