<?xml version="1.0" encoding="UTF-8" standalone="no"?>
<svg
   xmlns:dc="http://purl.org/dc/elements/1.1/"
   xmlns:cc="http://creativecommons.org/ns#"
   xmlns:rdf="http://www.w3.org/1999/02/22-rdf-syntax-ns#"
   xmlns:svg="http://www.w3.org/2000/svg"
   xmlns="http://www.w3.org/2000/svg"
   xmlns:sodipodi="http://sodipodi.sourceforge.net/DTD/sodipodi-0.dtd"
   xmlns:inkscape="http://www.inkscape.org/namespaces/inkscape"
   version="1.1"
   width="650"
   height="325"
   id="svg115"
   sodipodi:docname="squeeze-theorem.svg"
   inkscape:version="0.92.3 (2405546, 2018-03-11)"
   viewBox="0 0 650 325">
  <metadata
     id="metadata119">
    <rdf:RDF>
      <cc:Work
         rdf:about="">
        <dc:format>image/svg+xml</dc:format>
        <dc:type
           rdf:resource="http://purl.org/dc/dcmitype/StillImage" />
        <dc:title></dc:title>
      </cc:Work>
    </rdf:RDF>
  </metadata>
  <sodipodi:namedview
     pagecolor="#ffffff"
     bordercolor="#666666"
     borderopacity="1"
     objecttolerance="10"
     gridtolerance="10"
     guidetolerance="10"
     inkscape:pageopacity="0"
     inkscape:pageshadow="2"
     inkscape:window-width="2160"
     inkscape:window-height="1360"
     id="namedview117"
     showgrid="false"
     inkscape:zoom="0.85859613"
     inkscape:cx="219.52614"
     inkscape:cy="145.38402"
     inkscape:window-x="-11"
     inkscape:window-y="-11"
     inkscape:window-maximized="1"
     inkscape:current-layer="svg115" />
  <defs
     id="defs5">
    <clipPath
       clipPathUnits="userSpaceOnUse"
       id="clipPath928">
      <rect
         style="fill:#ffafff;fill-opacity:1;stroke:none;stroke-width:2.5;stroke-miterlimit:10;stroke-dasharray:none;stroke-opacity:0.4921875"
         id="rect930"
         width="983"
         height="491.5"
         x="0"
         y="0.74999827" />
    </clipPath>
  </defs>
  <g
     id="g898"
     transform="translate(8.4499999e-7,-1.0070219e-6)">
    <g
       style="stroke-width:1.51230764"
       id="g113"
       clip-path="url(#clipPath928)"
       transform="matrix(0.6612411,0,0,0.6612411,-1.495e-6,-0.495929)">
      <g
         style="stroke-width:1.51230764"
         id="g111"
         transform="translate(-48,-87)">
        <rect
           style="stroke-width:1.51230764"
           fill="rgba(0,0,0,0)"
           id="rect7"
           height="756"
           width="1060"
           y="0"
           x="0" />
        <path
           style="fill:none;stroke:#000000;stroke-width:1.51230764;stroke-miterlimit:10;stroke-opacity:1;paint-order:fill stroke markers"
           inkscape:connector-curvature="0"
           id="path9"
           stroke-miterlimit="10"
           d="m 539.5,2.5 v 754" />
        <path
           style="fill:none;stroke:#000000;stroke-width:1.51230764;stroke-miterlimit:10;stroke-opacity:1;paint-order:fill stroke markers"
           inkscape:connector-curvature="0"
           id="path11"
           stroke-miterlimit="10"
           d="m 539.5,1.5 -4,4" />
        <path
           style="fill:none;stroke:#000000;stroke-width:1.51230764;stroke-miterlimit:10;stroke-opacity:1;paint-order:fill stroke markers"
           inkscape:connector-curvature="0"
           id="path13"
           stroke-miterlimit="10"
           d="m 539.5,1.5 4,4" />
        <path
           style="fill:none;stroke:#000000;stroke-width:1.51230764;stroke-miterlimit:10;stroke-opacity:1;paint-order:fill stroke markers"
           inkscape:connector-curvature="0"
           id="path15"
           stroke-miterlimit="10"
           d="m 0.5,332.5 h 1058" />
        <path
           style="fill:none;stroke:#000000;stroke-width:1.51230764;stroke-miterlimit:10;stroke-opacity:1;paint-order:fill stroke markers"
           inkscape:connector-curvature="0"
           id="path17"
           stroke-miterlimit="10"
           d="m 1059.5,332.5 -4,-4" />
        <path
           style="fill:none;stroke:#000000;stroke-width:1.51230764;stroke-miterlimit:10;stroke-opacity:1;paint-order:fill stroke markers"
           inkscape:connector-curvature="0"
           id="path19"
           stroke-miterlimit="10"
           d="m 1059.5,332.5 -4,4" />
        <text
           style="font-style:normal;font-weight:normal;font-size:12px;font-family:geogebra-sans-serif, sans-serif;dominant-baseline:alphabetic;text-anchor:start;fill:#000000;fill-opacity:1;stroke:none;stroke-width:1.51230764"
           id="text23"
           dominant-baseline="alphabetic"
           y="348"
           x="82"
           text-decoration="normal"
           font-weight="normal"
           font-style="normal"
           font-size="12px">–0.4</text>
        <path
           style="fill:none;stroke:#000000;stroke-width:1.51230764;stroke-miterlimit:10;stroke-opacity:1;paint-order:fill stroke markers"
           inkscape:connector-curvature="0"
           id="path25"
           stroke-miterlimit="10"
           d="m 93.5,332.5 v 3" />
        <text
           style="font-style:normal;font-weight:normal;font-size:12px;font-family:geogebra-sans-serif, sans-serif;dominant-baseline:alphabetic;text-anchor:start;fill:#000000;fill-opacity:1;stroke:none;stroke-width:1.51230764"
           id="text29"
           dominant-baseline="alphabetic"
           y="348"
           x="194"
           text-decoration="normal"
           font-weight="normal"
           font-style="normal"
           font-size="12px">–0.3</text>
        <path
           style="fill:none;stroke:#000000;stroke-width:1.51230764;stroke-miterlimit:10;stroke-opacity:1;paint-order:fill stroke markers"
           inkscape:connector-curvature="0"
           id="path31"
           stroke-miterlimit="10"
           d="m 205.5,332.5 v 3" />
        <text
           style="font-style:normal;font-weight:normal;font-size:12px;font-family:geogebra-sans-serif, sans-serif;dominant-baseline:alphabetic;text-anchor:start;fill:#000000;fill-opacity:1;stroke:none;stroke-width:1.51230764"
           id="text35"
           dominant-baseline="alphabetic"
           y="348"
           x="305"
           text-decoration="normal"
           font-weight="normal"
           font-style="normal"
           font-size="12px">–0.2</text>
        <path
           style="fill:none;stroke:#000000;stroke-width:1.51230764;stroke-miterlimit:10;stroke-opacity:1;paint-order:fill stroke markers"
           inkscape:connector-curvature="0"
           id="path37"
           stroke-miterlimit="10"
           d="m 316.5,332.5 v 3" />
        <text
           style="font-style:normal;font-weight:normal;font-size:12px;font-family:geogebra-sans-serif, sans-serif;dominant-baseline:alphabetic;text-anchor:start;fill:#000000;fill-opacity:1;stroke:none;stroke-width:1.51230764"
           id="text41"
           dominant-baseline="alphabetic"
           y="348"
           x="416"
           text-decoration="normal"
           font-weight="normal"
           font-style="normal"
           font-size="12px">–0.1</text>
        <path
           style="fill:none;stroke:#000000;stroke-width:1.51230764;stroke-miterlimit:10;stroke-opacity:1;paint-order:fill stroke markers"
           inkscape:connector-curvature="0"
           id="path43"
           stroke-miterlimit="10"
           d="m 427.5,332.5 v 3" />
        <path
           style="fill:none;stroke:#000000;stroke-width:1.51230764;stroke-miterlimit:10;stroke-opacity:1;paint-order:fill stroke markers"
           inkscape:connector-curvature="0"
           id="path45"
           stroke-miterlimit="10"
           d="m 539.5,332.5 v 3" />
        <text
           style="font-style:normal;font-weight:normal;font-size:12px;font-family:geogebra-sans-serif, sans-serif;dominant-baseline:alphabetic;text-anchor:start;fill:#000000;fill-opacity:1;stroke:none;stroke-width:1.51230764"
           id="text49"
           dominant-baseline="alphabetic"
           y="348"
           x="642"
           text-decoration="normal"
           font-weight="normal"
           font-style="normal"
           font-size="12px">0.1</text>
        <path
           style="fill:none;stroke:#000000;stroke-width:1.51230764;stroke-miterlimit:10;stroke-opacity:1;paint-order:fill stroke markers"
           inkscape:connector-curvature="0"
           id="path51"
           stroke-miterlimit="10"
           d="m 650.5,332.5 v 3" />
        <text
           style="font-style:normal;font-weight:normal;font-size:12px;font-family:geogebra-sans-serif, sans-serif;dominant-baseline:alphabetic;text-anchor:start;fill:#000000;fill-opacity:1;stroke:none;stroke-width:1.51230764"
           id="text55"
           dominant-baseline="alphabetic"
           y="348"
           x="753"
           text-decoration="normal"
           font-weight="normal"
           font-style="normal"
           font-size="12px">0.2</text>
        <path
           style="fill:none;stroke:#000000;stroke-width:1.51230764;stroke-miterlimit:10;stroke-opacity:1;paint-order:fill stroke markers"
           inkscape:connector-curvature="0"
           id="path57"
           stroke-miterlimit="10"
           d="m 761.5,332.5 v 3" />
        <text
           style="font-style:normal;font-weight:normal;font-size:12px;font-family:geogebra-sans-serif, sans-serif;dominant-baseline:alphabetic;text-anchor:start;fill:#000000;fill-opacity:1;stroke:none;stroke-width:1.51230764"
           id="text61"
           dominant-baseline="alphabetic"
           y="348"
           x="865"
           text-decoration="normal"
           font-weight="normal"
           font-style="normal"
           font-size="12px">0.3</text>
        <path
           style="fill:none;stroke:#000000;stroke-width:1.51230764;stroke-miterlimit:10;stroke-opacity:1;paint-order:fill stroke markers"
           inkscape:connector-curvature="0"
           id="path63"
           stroke-miterlimit="10"
           d="m 873.5,332.5 v 3" />
        <text
           style="font-style:normal;font-weight:normal;font-size:12px;font-family:geogebra-sans-serif, sans-serif;dominant-baseline:alphabetic;text-anchor:start;fill:#000000;fill-opacity:1;stroke:none;stroke-width:1.51230764"
           id="text67"
           dominant-baseline="alphabetic"
           y="348"
           x="976"
           text-decoration="normal"
           font-weight="normal"
           font-style="normal"
           font-size="12px">0.4</text>
        <path
           style="fill:none;stroke:#000000;stroke-width:1.51230764;stroke-miterlimit:10;stroke-opacity:1;paint-order:fill stroke markers"
           inkscape:connector-curvature="0"
           id="path69"
           stroke-miterlimit="10"
           d="m 984.5,332.5 v 3" />
        <path
           style="fill:none;stroke:#000000;stroke-width:1.51230764;stroke-miterlimit:10;stroke-opacity:1;paint-order:fill stroke markers"
           inkscape:connector-curvature="0"
           id="path71"
           stroke-miterlimit="10"
           d="m 536.5,666.5 h 3" />
        <path
           style="fill:none;stroke:#000000;stroke-width:1.51230764;stroke-miterlimit:10;stroke-opacity:1;paint-order:fill stroke markers"
           inkscape:connector-curvature="0"
           id="path73"
           stroke-miterlimit="10"
           d="m 536.5,555.5 h 3" />
        <path
           style="fill:none;stroke:#000000;stroke-width:1.51230764;stroke-miterlimit:10;stroke-opacity:1;paint-order:fill stroke markers"
           inkscape:connector-curvature="0"
           id="path75"
           stroke-miterlimit="10"
           d="m 536.5,444.5 h 3" />
        <path
           style="fill:none;stroke:#000000;stroke-width:1.51230764;stroke-miterlimit:10;stroke-opacity:1;paint-order:fill stroke markers"
           inkscape:connector-curvature="0"
           id="path77"
           stroke-miterlimit="10"
           d="m 536.5,221.5 h 3" />
        <path
           style="fill:none;stroke:#000000;stroke-width:1.51230764;stroke-miterlimit:10;stroke-opacity:1;paint-order:fill stroke markers"
           inkscape:connector-curvature="0"
           id="path79"
           stroke-miterlimit="10"
           d="m 536.5,110.5 h 3" />
        <text
           style="font-style:normal;font-weight:normal;font-size:12px;font-family:geogebra-sans-serif, sans-serif;dominant-baseline:alphabetic;text-anchor:start;fill:#000000;fill-opacity:1;stroke:none;stroke-width:1.51230764"
           id="text83"
           dominant-baseline="alphabetic"
           y="671"
           x="509"
           text-decoration="normal"
           font-weight="normal"
           font-style="normal"
           font-size="12px">–0.3</text>
        <text
           style="font-style:normal;font-weight:normal;font-size:12px;font-family:geogebra-sans-serif, sans-serif;dominant-baseline:alphabetic;text-anchor:start;fill:#000000;fill-opacity:1;stroke:none;stroke-width:1.51230764"
           id="text87"
           dominant-baseline="alphabetic"
           y="560"
           x="509"
           text-decoration="normal"
           font-weight="normal"
           font-style="normal"
           font-size="12px">–0.2</text>
        <text
           style="font-style:normal;font-weight:normal;font-size:12px;font-family:geogebra-sans-serif, sans-serif;dominant-baseline:alphabetic;text-anchor:start;fill:#000000;fill-opacity:1;stroke:none;stroke-width:1.51230764"
           id="text91"
           dominant-baseline="alphabetic"
           y="449"
           x="509"
           text-decoration="normal"
           font-weight="normal"
           font-style="normal"
           font-size="12px">–0.1</text>
        <text
           style="font-style:normal;font-weight:normal;font-size:12px;font-family:geogebra-sans-serif, sans-serif;dominant-baseline:alphabetic;text-anchor:start;fill:#000000;fill-opacity:1;stroke:none;stroke-width:1.51230764"
           id="text95"
           dominant-baseline="alphabetic"
           y="226"
           x="516"
           text-decoration="normal"
           font-weight="normal"
           font-style="normal"
           font-size="12px">0.1</text>
        <text
           style="font-style:normal;font-weight:normal;font-size:12px;font-family:geogebra-sans-serif, sans-serif;dominant-baseline:alphabetic;text-anchor:start;fill:#000000;fill-opacity:1;stroke:none;stroke-width:1.51230764"
           id="text99"
           dominant-baseline="alphabetic"
           y="115"
           x="516"
           text-decoration="normal"
           font-weight="normal"
           font-style="normal"
           font-size="12px">0.2</text>
        <text
           style="font-style:normal;font-weight:normal;font-size:12px;font-family:geogebra-sans-serif, sans-serif;dominant-baseline:alphabetic;text-anchor:start;fill:#000000;fill-opacity:1;stroke:none;stroke-width:1.51230764"
           id="text103"
           dominant-baseline="alphabetic"
           y="348"
           x="526"
           text-decoration="normal"
           font-weight="normal"
           font-style="normal"
           font-size="12px">0</text>
        <path
           style="fill:none;stroke:#000000;stroke-width:3.78076935;stroke-linecap:round;stroke-linejoin:round;stroke-miterlimit:10;stroke-opacity:0.8;paint-order:fill stroke markers"
           inkscape:connector-curvature="0"
           id="path105"
           stroke-miterlimit="10"
           d="m 0,562.80003 4.140625,-5.49465 4.140625,-5.49467 4.140625,-5.49415 4.140625,-5.49305 4.140625,-5.49134 4.140625,-5.48899 4.140625,-5.48595 4.140625,-5.48219 4.140625,-5.47766 4.140625,-5.47232 4.140625,-5.46612 4.140625,-5.45899 4.140625,-5.45092 4.140625,-5.44181 4.140625,-5.43163 4.140625,-5.42031 4.140625,-5.40777 4.140625,-5.39395 4.140625,-5.37879 4.140625,-5.3622 4.140625,-5.3441 4.140625,-5.32441 4.140625,-5.30303 4.140625,-5.27987 4.14063,-5.25484 4.14062,-5.22782 4.14063,-5.19871 4.14062,-5.16738 4.14063,-5.13374 4.14062,-5.09763 4.14062,-5.05892 4.14063,-5.01747 4.14063,-4.97315 4.14062,-4.92578 4.14062,-4.87522 4.14063,-4.82126 4.14063,-4.76376 4.14062,-4.70252 4.14062,-4.63734 4.14063,-4.56801 4.14063,-4.49433 4.14062,-4.41608 4.14062,-4.333 4.14063,-4.2449 4.14063,-4.15148 4.14062,-4.05252 4.14062,-3.94775 4.14063,-3.83688 4.14063,-3.71965 4.14062,-3.59579 4.14062,-3.46498 4.14063,-3.32695 4.14063,-3.18142 4.14062,-3.02808 4.14062,-2.86665 4.14063,-2.69688 4.14063,-2.51847 4.14062,-2.33119 4.14062,-2.13482 4.14063,-1.92915 4.14063,-1.71404 4.14062,-1.48936 4.14062,-1.25506 4.14063,-1.01115 4.14062,-0.75772 4.14063,-0.49499 4.14062,-0.22322 4.14063,0.0571 4.14062,0.34535 4.14063,0.64076 4.14062,0.94228 4.14063,1.24865 4.14062,1.55829 4.14063,1.86929 4.14062,2.17937 4.14063,2.48582 4.14062,2.78546 4.14063,3.07454 4.14062,3.34879 4.14063,3.60329 4.14062,3.83241 4.14063,4.02993 4.14062,4.1888 4.14063,4.30141 4.14062,4.35947 4.14063,4.35421 4.14062,4.27661 4.14063,4.1176 4.14062,3.86864 4.14063,3.52219 4.14062,3.07261 4.14063,2.51716 4.14062,1.85738 4.14063,1.10067 2.07031,0.24017 2.07031,0.022 4.14063,-0.63306 2.07031,-0.66022 2.07031,-0.88782 4.14063,-2.43199 4.14062,-3.21941 4.14063,-3.83076 4.14062,-4.17625 4.14063,-4.16411 4.14062,-3.71518 4.14063,-2.78584 1.03516,-0.49584 1.03515,-0.40221 2.07031,-0.50124 1.03516,-0.0898 1.03516,0.0219 2.07031,0.3855 1.03516,0.36342 1.03515,0.47446 2.07031,1.2633 4.14063,3.54276 4.14062,4.13855 4.14063,3.4427 0.51758,0.30897 0.51758,0.27305 1.03515,0.42921 1.03516,0.26016 1.03515,0.0789 0.51758,-0.031 0.51758,-0.0785 1.03516,-0.29907 1.03515,-0.48291 1.03516,-0.65344 2.07031,-1.72442 2.07031,-2.04357 4.14063,-3.46811 0.51758,-0.24506 0.51758,-0.18371 0.51757,-0.11829 0.51758,-0.0498 0.51758,0.0208 0.51758,0.092 0.51758,0.16262 0.51757,0.2311 1.03516,0.65132 1.03516,0.86024 2.07031,2.03123 2.07031,1.74911 0.51758,0.28977 0.51758,0.20705 0.51758,0.1158 0.51757,0.0188 0.51758,-0.0807 0.51758,-0.17897 1.03516,-0.6279 1.03515,-0.90478 1.03516,-1.02861 2.07031,-1.63456 0.51758,-0.18001 0.51758,-0.054 0.51758,0.0781 0.51757,0.20783 0.51758,0.32574 0.51758,0.42226 1.03516,1.00519 2.07031,1.49019 0.51758,0.0429 0.51758,-0.12669 0.51757,-0.28603 0.51758,-0.41535 2.07031,-1.81151 0.51758,-0.16392 0.51758,0.0434 0.51758,0.24854 0.51758,0.41412 2.07031,1.55676 0.51758,-0.0772 0.51758,-0.31707 1.03515,-0.98087 0.51758,-0.37583 0.51758,-0.12117 0.51758,0.18291 0.51757,0.42709 1.03516,0.88135 0.51758,0.0655 0.51758,-0.28325 1.03515,-0.92256 0.51758,-0.10499 0.51758,0.2967 1.03516,0.82976 0.51757,-0.11389 0.51758,-0.46654 0.51758,-0.38104 0.51758,0.0995 1.03515,0.7567 0.51758,-0.28582 0.51758,-0.44729 0.51758,0.0836 0.51758,0.47079 0.51758,-0.005 0.51757,-0.46002 0.51758,0.0837 0.51758,0.40794 0.51758,-0.30225 0.51758,-0.14542 0.51757,0.40399 0.51758,-0.33611 0.51758,0.11871 0.51758,0.0689 0.51758,-0.16443 0.51757,0.17683 0.51758,-0.1198 0.51758,-0.006 0.51758,0.1584 0.51758,-0.17873 0.51758,-0.0284 0.51757,0.0723 0.51758,0.0295 0.51758,-0.0263 0.51758,-0.0482 0.51758,0.0828 0.51757,-0.0402 0.51758,0.0622 0.51758,-0.008 0.51758,-0.0633 1.03515,0.0236 4.14063,0.007 4.14062,0.009 4.14063,0.0313 4.14062,-0.16013 4.14063,-0.1015 4.14062,0.43829 0.51758,0.11329 0.51758,-0.43575 0.51758,-0.30778 0.51758,0.25807 1.03515,0.60488 0.51758,-0.36544 0.51758,-0.47371 0.51758,-0.13507 0.51758,0.31355 1.03515,0.81303 0.51758,-0.0865 0.51758,-0.42009 1.03515,-0.79332 0.51758,0.0493 0.51758,0.36287 1.03516,0.94117 0.51758,0.19612 0.51757,-0.10774 0.51758,-0.36664 0.51758,-0.50122 1.03516,-0.8081 0.51757,-0.0889 0.51758,0.1647 0.51758,0.3729 0.51758,0.49295 1.03515,0.92684 0.51758,0.25717 0.51758,0.0529 0.51758,-0.155 0.51758,-0.33328 2.07031,-1.88884 0.51758,-0.29267 0.51758,-0.13427 0.51757,0.0352 0.51758,0.19714 0.51758,0.33567 0.51758,0.43913 1.03515,1.01748 2.07032,1.46068 0.51758,0.0841 0.51757,-0.0481 0.51758,-0.17456 0.51758,-0.28784 1.03516,-0.83538 1.03515,-1.01679 2.07031,-1.78009 0.51758,-0.2761 0.51758,-0.18332 0.51758,-0.0852 0.51758,0.0143 0.51758,0.11152 0.51757,0.20308 0.51758,0.28625 0.51758,0.35874 4.14062,3.86898 1.03516,0.76819 1.03516,0.53285 0.51758,0.16577 0.51757,0.0952 0.51758,0.024 0.51758,-0.0466 0.51758,-0.11524 0.51758,-0.18084 1.03515,-0.54142 1.03516,-0.74512 1.03515,-0.89838 4.14063,-4.03427 2.07031,-1.60368 1.03516,-0.5742 1.03515,-0.39633 1.03516,-0.20884 0.51758,-0.0331 0.51758,0.0141 1.03515,0.16667 1.03516,0.34265 1.03516,0.5044 1.03515,0.64831 2.07031,1.64486 4.14063,4.04281 4.14062,3.89706 4.14063,2.71651 0.51758,0.22482 0.51758,0.19704 1.03515,0.30944 2.07031,0.27649 1.03516,-0.0318 1.03516,-0.14212 2.07031,-0.59978 2.07031,-0.98599 2.07031,-1.32174 4.14063,-3.41864 4.14062,-4.04814 4.14063,-4.21857 4.14062,-3.99866 4.14063,-3.47758 4.14062,-2.74714 4.14063,-1.8914 2.07031,-0.60549 2.07031,-0.37597 4.14063,-0.0736 2.07031,0.2911 2.07031,0.49892 4.14063,1.58014 4.14062,2.27806 4.14063,2.87368 4.14062,3.36343 4.14063,3.74861 4.14062,4.03388 4.14063,4.22616 4.14062,4.33369 4.14063,4.36542 4.14062,4.33041 4.14063,4.23756 4.14062,4.09535 4.14063,3.91169 4.14062,3.69382 4.14063,3.44828 4.14062,3.18094 4.14063,2.89696 4.14062,2.60087 4.14063,2.29662 4.14062,1.98757 4.14063,1.67662 4.14062,1.36623 4.14063,1.05841 4.14062,0.75487 4.14063,0.45701 4.14062,0.16592 4.14063,-0.11751 4.14062,-0.39257 4.14063,-0.6588 4.14062,-0.9158 4.14063,-1.16334 4.14062,-1.40131 4.14063,-1.62964 4.14062,-1.8484 4.14063,-2.05763 4.14062,-2.25753 4.14063,-2.44824 4.14062,-2.62999 4.14063,-2.80303 4.14062,-2.9676 4.14063,-3.12398 4.14062,-3.27246 4.14063,-3.41331 4.14062,-3.54682 4.14063,-3.67331 4.14062,-3.79302 4.14063,-3.90628 4.14062,-4.01334 4.14063,-4.11448 4.14062,-4.20997 4.14063,-4.30008 4.14062,-4.38503 4.14063,-4.46509 4.14062,-4.5405 4.14063,-4.61144 4.14062,-4.67819 4.14063,-4.7409 4.14062,-4.7998 4.14063,-4.85509 4.14062,-4.90692 4.14063,-4.95548 4.14062,-5.00095 4.14063,-5.04348 4.14062,-5.0832 4.14063,-5.12029 4.14062,-5.15486 4.14063,-5.18705 4.14062,-5.217 4.14063,-5.24479 4.14062,-5.27057 4.14063,-5.29443 4.14062,-5.31647 4.14063,-5.3368 4.14062,-5.35549 4.14058,-5.37265 4.1407,-5.38834 4.1406,-5.40267 4.1406,-5.41568 4.1406,-5.42745 4.1407,-5.43807 4.1406,-5.44758 4.1406,-5.45604 4.1407,-5.46351 4.1406,-5.47006 4.1406,-5.47573 4.1406,-5.48056 4.1407,-5.48461 4.1406,-5.48792 4.1406,-5.49052" />
        <path
           style="fill:none;stroke:#6699ff;stroke-width:3.78076935;stroke-linecap:round;stroke-linejoin:round;stroke-miterlimit:10;stroke-opacity:0.8;paint-order:fill stroke markers"
           inkscape:connector-curvature="0"
           id="path107"
           stroke-miterlimit="10"
           d="m 0,71.934231 4.140625,3.994891 4.140625,3.964087 4.140625,3.933284 4.140625,3.902481 4.140625,3.871677 4.140625,3.840874 4.140625,3.810071 4.140625,3.779264 4.140625,3.74847 4.140625,3.71766 4.140625,3.68686 4.140625,3.65605 4.140625,3.62525 4.140625,3.59445 4.140625,3.56364 4.140625,3.53284 4.140625,3.50204 4.140625,3.47124 4.140625,3.44043 4.140625,3.40963 4.140625,3.37882 4.140625,3.34802 4.140625,3.31722 4.140625,3.28641 4.14063,3.25561 4.14062,3.22481 4.14063,3.19401 4.14062,3.1632 4.14063,3.1324 4.14062,3.10159 4.14062,3.07079 4.14063,3.03999 4.14063,3.00919 4.14062,2.97838 4.14062,2.94758 4.14063,2.91677 4.14063,2.88597 4.14062,2.85517 4.14062,2.82437 4.14063,2.79356 4.14063,2.76276 4.14062,2.73195 4.14062,2.70115 4.14063,2.67035 4.14063,2.63955 4.14062,2.60874 4.14062,2.57794 4.14063,2.54713 4.14063,2.51633 4.14062,2.48553 4.14062,2.45473 4.14063,2.42392 4.14063,2.39312 4.14062,2.36231 4.14062,2.33152 4.14063,2.30071 4.14063,2.2699 4.14062,2.2391 4.14062,2.2083 4.14063,2.1775 4.14063,2.14669 4.14062,2.11589 4.14062,2.08509 4.14063,2.05428 4.14062,2.02348 4.14063,1.99267 4.14062,1.96187 4.14063,1.93107 4.14062,1.90027 4.14063,1.86946 4.14062,1.83866 4.14063,1.80786 4.14062,1.77705 4.14063,1.74625 4.14062,1.71545 4.14063,1.68464 4.14062,1.65384 4.14063,1.62303 4.14062,1.59224 4.14063,1.56143 4.14062,1.53062 4.14063,1.49983 4.14062,1.46902 4.14063,1.43821 4.14062,1.40741 4.14063,1.37661 4.14062,1.34581 4.14063,1.315 4.14062,1.2842 4.14063,1.2534 4.14062,1.22259 4.14063,1.19179 4.14062,1.16099 4.14063,1.13018 4.14062,1.09938 4.14063,1.06858 4.14062,1.03777 4.14063,1.00697 4.14062,0.97617 4.14063,0.94536 4.14062,0.91456 4.14063,0.88376 4.14062,0.85295 4.14063,0.82215 4.14062,0.79135 4.14063,0.76055 4.14062,0.72974 4.14063,0.69893 4.14062,0.66814 4.14063,0.63733 4.14062,0.60652 4.14063,0.57573 4.14062,0.54492 4.14063,0.51412 4.14062,0.48331 4.14063,0.45251 4.14062,0.42171 4.14063,0.3909 4.14062,0.3601 4.14063,0.3293 4.14062,0.29849 4.14063,0.26769 4.14062,0.23689 4.14063,0.20609 4.14062,0.17528 4.14063,0.14447 4.14062,0.11368 4.14063,0.0829 4.14062,0.0521 4.14063,0.0213 4.14062,-0.01 4.14063,-0.0403 4.14062,-0.0711 4.14063,-0.10194 4.14062,-0.13276 4.14063,-0.16355 4.14062,-0.19436 4.14063,-0.22516 4.14062,-0.25597 4.14063,-0.28677 4.14062,-0.31757 4.14063,-0.34837 4.14062,-0.37918 4.14063,-0.40999 4.14062,-0.44078 4.14063,-0.47159 4.14062,-0.50239 4.14063,-0.5332 4.14062,-0.56399 4.14063,-0.59481 4.14062,-0.6256 4.14063,-0.65641 4.14062,-0.68721 4.14063,-0.71802 4.14062,-0.74881 4.14063,-0.77963 4.14062,-0.81042 4.14063,-0.84123 4.14062,-0.87203 4.14063,-0.90284 4.14062,-0.93363 4.14063,-0.96445 4.14062,-0.99524 4.14063,-1.02605 4.14062,-1.05685 4.14063,-1.08765 4.14062,-1.11846 4.14063,-1.14926 4.14062,-1.18007 4.14063,-1.21087 4.14062,-1.24167 4.14063,-1.27247 4.14062,-1.30328 4.14063,-1.33408 4.14062,-1.36488 4.14063,-1.39569 4.14062,-1.42649 4.14063,-1.4573 4.14062,-1.48809 4.14063,-1.51891 4.14062,-1.5497 4.14063,-1.58051 4.14062,-1.61131 4.14063,-1.64211 4.14062,-1.67292 4.14063,-1.70372 4.14062,-1.73452 4.14063,-1.76533 4.14062,-1.79613 4.14063,-1.82694 4.14062,-1.85773 4.14063,-1.88854 4.14062,-1.91935 4.14063,-1.95015 4.14062,-1.98095 4.14063,-2.01175 4.14062,-2.04256 4.14063,-2.07336 4.14062,-2.10416 4.14063,-2.13497 4.14062,-2.16577 4.14063,-2.19657 4.14062,-2.22738 4.14063,-2.25818 4.14062,-2.28898 4.14063,-2.31979 4.14062,-2.35059 4.14063,-2.38139 4.14062,-2.4122 4.14063,-2.443 4.14062,-2.4738 4.14063,-2.50461 4.14062,-2.53541 4.14063,-2.56621 4.14062,-2.59702 4.14063,-2.62782 4.14062,-2.65862 4.14063,-2.68943 4.14062,-2.72023 4.14063,-2.75103 4.14062,-2.78184 4.14063,-2.81264 4.14062,-2.84344 4.14063,-2.87425 4.14062,-2.90505 4.14063,-2.93585 4.14062,-2.96666 4.14063,-2.99745 4.14062,-3.02827 4.14063,-3.05906 4.14062,-3.08987 4.14063,-3.12068 4.14062,-3.15147 4.14063,-3.18228 4.14062,-3.21308 4.14063,-3.24389 4.14062,-3.27469 4.14063,-3.30549 4.14062,-3.3363 4.14063,-3.3671 4.14062,-3.3979 4.14058,-3.4287 4.1407,-3.45951 4.1406,-3.49032 4.1406,-3.52111 4.1406,-3.55192 4.1407,-3.58272 4.1406,-3.61353 4.1406,-3.64433 4.1407,-3.67513 4.1406,-3.70594 4.1406,-3.73673 4.1406,-3.76755 4.1407,-3.798342 4.1406,-3.829148 4.1406,-3.859952" />
        <path
           style="fill:none;stroke:#6699ff;stroke-width:3.78076935;stroke-linecap:round;stroke-linejoin:round;stroke-miterlimit:10;stroke-opacity:0.8;paint-order:fill stroke markers"
           inkscape:connector-curvature="0"
           id="path109"
           stroke-miterlimit="10"
           d="m 0,594.03549 4.140625,-3.99489 4.140625,-3.96409 4.140625,-3.93328 4.140625,-3.90249 4.140625,-3.87167 4.140625,-3.84088 4.140625,-3.81007 4.140625,-3.77927 4.140625,-3.74846 4.140625,-3.71766 4.140625,-3.68686 4.140625,-3.65605 4.140625,-3.62525 4.140625,-3.59445 4.140625,-3.56365 4.140625,-3.53284 4.140625,-3.50203 4.140625,-3.47124 4.140625,-3.44043 4.140625,-3.40963 4.140625,-3.37882 4.140625,-3.34802 4.140625,-3.31722 4.140625,-3.28642 4.14063,-3.25561 4.14062,-3.2248 4.14063,-3.19401 4.14062,-3.1632 4.14063,-3.1324 4.14062,-3.10159 4.14062,-3.0708 4.14063,-3.03998 4.14063,-3.00919 4.14062,-2.97838 4.14062,-2.94758 4.14063,-2.91677 4.14063,-2.88597 4.14062,-2.85517 4.14062,-2.82437 4.14063,-2.79356 4.14063,-2.76276 4.14062,-2.73195 4.14062,-2.70115 4.14063,-2.67035 4.14063,-2.63955 4.14062,-2.60874 4.14062,-2.57794 4.14063,-2.54713 4.14063,-2.51634 4.14062,-2.48552 4.14062,-2.45473 4.14063,-2.42392 4.14063,-2.39312 4.14062,-2.36232 4.14062,-2.33151 4.14063,-2.30071 4.14063,-2.2699 4.14062,-2.23911 4.14062,-2.20829 4.14063,-2.1775 4.14063,-2.14669 4.14062,-2.11589 4.14062,-2.08509 4.14063,-2.05428 4.14062,-2.02348 4.14063,-1.99267 4.14062,-1.96188 4.14063,-1.93107 4.14062,-1.90026 4.14063,-1.86946 4.14062,-1.83866 4.14063,-1.80786 4.14062,-1.77705 4.14063,-1.74625 4.14062,-1.71545 4.14063,-1.68464 4.14062,-1.65384 4.14063,-1.62304 4.14062,-1.59223 4.14063,-1.56143 4.14062,-1.53063 4.14063,-1.49982 4.14062,-1.46902 4.14063,-1.43821 4.14062,-1.40742 4.14063,-1.37661 4.14062,-1.3458 4.14063,-1.31501 4.14062,-1.2842 4.14063,-1.25339 4.14062,-1.2226 4.14063,-1.19179 4.14062,-1.16098 4.14063,-1.13019 4.14062,-1.09938 4.14063,-1.06857 4.14062,-1.03778 4.14063,-1.00697 4.14062,-0.97616 4.14063,-0.94537 4.14062,-0.91456 4.14063,-0.88375 4.14062,-0.85296 4.14063,-0.82215 4.14062,-0.79134 4.14063,-0.76055 4.14062,-0.72974 4.14063,-0.69893 4.14062,-0.66814 4.14063,-0.63733 4.14062,-0.60653 4.14063,-0.57572 4.14062,-0.54492 4.14063,-0.51412 4.14062,-0.48331 4.14063,-0.45251 4.14062,-0.42171 4.14063,-0.3909 4.14062,-0.3601 4.14063,-0.3293 4.14062,-0.2985 4.14063,-0.26769 4.14062,-0.23688 4.14063,-0.20609 4.14062,-0.17528 4.14063,-0.14448 4.14062,-0.11367 4.14063,-0.0829 4.14062,-0.0521 4.14063,-0.0213 4.14062,0.01 4.14063,0.0403 4.14062,0.0711 4.14063,0.10195 4.14062,0.13275 4.14063,0.16356 4.14062,0.19436 4.14063,0.22516 4.14062,0.25597 4.14063,0.28677 4.14062,0.31757 4.14063,0.34837 4.14062,0.37918 4.14063,0.40998 4.14062,0.44079 4.14063,0.47159 4.14062,0.50239 4.14063,0.53319 4.14062,0.564 4.14063,0.5948 4.14062,0.62561 4.14063,0.65641 4.14062,0.68721 4.14063,0.71801 4.14062,0.74882 4.14063,0.77962 4.14062,0.81043 4.14063,0.84123 4.14062,0.87203 4.14063,0.90283 4.14062,0.93364 4.14063,0.96444 4.14062,0.99525 4.14063,1.02605 4.14062,1.05685 4.14063,1.08765 4.14062,1.11846 4.14063,1.14926 4.14062,1.18007 4.14063,1.21086 4.14062,1.24167 4.14063,1.27248 4.14062,1.30328 4.14063,1.33408 4.14062,1.36488 4.14063,1.39569 4.14062,1.42649 4.14063,1.4573 4.14062,1.48809 4.14063,1.5189 4.14062,1.54971 4.14063,1.58051 4.14062,1.61131 4.14063,1.64211 4.14062,1.67292 4.14063,1.70372 4.14062,1.73452 4.14063,1.76533 4.14062,1.79613 4.14063,1.82693 4.14062,1.85774 4.14063,1.88854 4.14062,1.91935 4.14063,1.95014 4.14062,1.98095 4.14063,2.01176 4.14062,2.04255 4.14063,2.07336 4.14062,2.10417 4.14063,2.13497 4.14062,2.16577 4.14063,2.19657 4.14062,2.22738 4.14063,2.25818 4.14062,2.28898 4.14063,2.31979 4.14062,2.35059 4.14063,2.38139 4.14062,2.4122 4.14063,2.443 4.14062,2.4738 4.14063,2.50461 4.14062,2.53541 4.14063,2.56621 4.14062,2.59702 4.14063,2.62782 4.14062,2.65862 4.14063,2.68943 4.14062,2.72023 4.14063,2.75103 4.14062,2.78184 4.14063,2.81264 4.14062,2.84344 4.14063,2.87424 4.14062,2.90505 4.14063,2.93586 4.14062,2.96665 4.14063,2.99746 4.14062,3.02827 4.14063,3.05906 4.14062,3.08987 4.14063,3.12067 4.14062,3.15148 4.14063,3.18228 4.14062,3.21308 4.14063,3.24389 4.14062,3.27469 4.14063,3.30549 4.14062,3.3363 4.14063,3.36709 4.14062,3.39791 4.14058,3.4287 4.1407,3.45951 4.1406,3.49031 4.1406,3.52112 4.1406,3.55192 4.1407,3.58272 4.1406,3.61353 4.1406,3.64433 4.1407,3.67513 4.1406,3.70593 4.1406,3.73674 4.1406,3.76754 4.1407,3.79835 4.1406,3.82915 4.1406,3.85995" />
      </g>
    </g>
  </g>
</svg>
