<svg version="1.1" xmlns="http://www.w3.org/2000/svg" xmlns:xlink="http://www.w3.org/1999/xlink" width="982" height="490" viewBox="0 0 982 490">
  <defs>
    <clipPath id="DvnskouKwlmO">
      <path fill="none" stroke="none" d=" M 0 0 L 982 0 L 982 490 L 0 490 L 0 0 Z" />
    </clipPath>
  </defs>
  <g transform="scale(1,1)" clip-path="url(#DvnskouKwlmO)">
    <g transform="translate(-36,-109)">
      <rect fill="rgba(255,255,255,0)" stroke="none" x="0" y="0" width="1060" height="756" fill-opacity="1" />
      <path fill="none" stroke="rgb(0,0,0)" paint-order="fill stroke markers" d=" M 527.5 2.5 L 527.5 756.5" stroke-opacity="1" stroke-miterlimit="10" />
      <path fill="none" stroke="rgb(0,0,0)" paint-order="fill stroke markers" d=" M 527.5 1.5 L 523.5 5.5" stroke-opacity="1" stroke-miterlimit="10" />
      <path fill="none" stroke="rgb(0,0,0)" paint-order="fill stroke markers" d=" M 527.5 1.5 L 531.5 5.5" stroke-opacity="1" stroke-miterlimit="10" />
      <path fill="none" stroke="rgb(0,0,0)" paint-order="fill stroke markers" d=" M 0.5 353.5 L 1058.5 353.5" stroke-opacity="1" stroke-miterlimit="10" />
      <path fill="none" stroke="rgb(0,0,0)" paint-order="fill stroke markers" d=" M 1059.5 353.5 L 1055.5 349.5" stroke-opacity="1" stroke-miterlimit="10" />
      <path fill="none" stroke="rgb(0,0,0)" paint-order="fill stroke markers" d=" M 1059.5 353.5 L 1055.5 357.5" stroke-opacity="1" stroke-miterlimit="10" />
      <text fill="rgb(0,0,0)" stroke="none" font-family="geogebra-sans-serif, sans-serif" font-size="12px" font-style="normal" font-weight="normal" text-decoration="normal" x="70" y="369" text-anchor="start" dominant-baseline="alphabetic" fill-opacity="1">–0.4</text>
      <path fill="none" stroke="rgb(0,0,0)" paint-order="fill stroke markers" d=" M 81.5 353.5 L 81.5 356.5" stroke-opacity="1" stroke-miterlimit="10" />
      <text fill="rgb(0,0,0)" stroke="none" font-family="geogebra-sans-serif, sans-serif" font-size="12px" font-style="normal" font-weight="normal" text-decoration="normal" x="182" y="369" text-anchor="start" dominant-baseline="alphabetic" fill-opacity="1">–0.3</text>
      <path fill="none" stroke="rgb(0,0,0)" paint-order="fill stroke markers" d=" M 193.5 353.5 L 193.5 356.5" stroke-opacity="1" stroke-miterlimit="10" />
      <text fill="rgb(0,0,0)" stroke="none" font-family="geogebra-sans-serif, sans-serif" font-size="12px" font-style="normal" font-weight="normal" text-decoration="normal" x="293" y="369" text-anchor="start" dominant-baseline="alphabetic" fill-opacity="1">–0.2</text>
      <path fill="none" stroke="rgb(0,0,0)" paint-order="fill stroke markers" d=" M 304.5 353.5 L 304.5 356.5" stroke-opacity="1" stroke-miterlimit="10" />
      <text fill="rgb(0,0,0)" stroke="none" font-family="geogebra-sans-serif, sans-serif" font-size="12px" font-style="normal" font-weight="normal" text-decoration="normal" x="404" y="369" text-anchor="start" dominant-baseline="alphabetic" fill-opacity="1">–0.1</text>
      <path fill="none" stroke="rgb(0,0,0)" paint-order="fill stroke markers" d=" M 415.5 353.5 L 415.5 356.5" stroke-opacity="1" stroke-miterlimit="10" />
      <path fill="none" stroke="rgb(0,0,0)" paint-order="fill stroke markers" d=" M 527.5 353.5 L 527.5 356.5" stroke-opacity="1" stroke-miterlimit="10" />
      <text fill="rgb(0,0,0)" stroke="none" font-family="geogebra-sans-serif, sans-serif" font-size="12px" font-style="normal" font-weight="normal" text-decoration="normal" x="630" y="369" text-anchor="start" dominant-baseline="alphabetic" fill-opacity="1">0.1</text>
      <path fill="none" stroke="rgb(0,0,0)" paint-order="fill stroke markers" d=" M 638.5 353.5 L 638.5 356.5" stroke-opacity="1" stroke-miterlimit="10" />
      <text fill="rgb(0,0,0)" stroke="none" font-family="geogebra-sans-serif, sans-serif" font-size="12px" font-style="normal" font-weight="normal" text-decoration="normal" x="741" y="369" text-anchor="start" dominant-baseline="alphabetic" fill-opacity="1">0.2</text>
      <path fill="none" stroke="rgb(0,0,0)" paint-order="fill stroke markers" d=" M 749.5 353.5 L 749.5 356.5" stroke-opacity="1" stroke-miterlimit="10" />
      <text fill="rgb(0,0,0)" stroke="none" font-family="geogebra-sans-serif, sans-serif" font-size="12px" font-style="normal" font-weight="normal" text-decoration="normal" x="853" y="369" text-anchor="start" dominant-baseline="alphabetic" fill-opacity="1">0.3</text>
      <path fill="none" stroke="rgb(0,0,0)" paint-order="fill stroke markers" d=" M 861.5 353.5 L 861.5 356.5" stroke-opacity="1" stroke-miterlimit="10" />
      <text fill="rgb(0,0,0)" stroke="none" font-family="geogebra-sans-serif, sans-serif" font-size="12px" font-style="normal" font-weight="normal" text-decoration="normal" x="964" y="369" text-anchor="start" dominant-baseline="alphabetic" fill-opacity="1">0.4</text>
      <path fill="none" stroke="rgb(0,0,0)" paint-order="fill stroke markers" d=" M 972.5 353.5 L 972.5 356.5" stroke-opacity="1" stroke-miterlimit="10" />
      <path fill="none" stroke="rgb(0,0,0)" paint-order="fill stroke markers" d=" M 524.5 687.5 L 527.5 687.5" stroke-opacity="1" stroke-miterlimit="10" />
      <path fill="none" stroke="rgb(0,0,0)" paint-order="fill stroke markers" d=" M 524.5 576.5 L 527.5 576.5" stroke-opacity="1" stroke-miterlimit="10" />
      <path fill="none" stroke="rgb(0,0,0)" paint-order="fill stroke markers" d=" M 524.5 465.5 L 527.5 465.5" stroke-opacity="1" stroke-miterlimit="10" />
      <path fill="none" stroke="rgb(0,0,0)" paint-order="fill stroke markers" d=" M 524.5 242.5 L 527.5 242.5" stroke-opacity="1" stroke-miterlimit="10" />
      <path fill="none" stroke="rgb(0,0,0)" paint-order="fill stroke markers" d=" M 524.5 131.5 L 527.5 131.5" stroke-opacity="1" stroke-miterlimit="10" />
      <path fill="none" stroke="rgb(0,0,0)" paint-order="fill stroke markers" d=" M 524.5 20.5 L 527.5 20.5" stroke-opacity="1" stroke-miterlimit="10" />
      <text fill="rgb(0,0,0)" stroke="none" font-family="geogebra-sans-serif, sans-serif" font-size="12px" font-style="normal" font-weight="normal" text-decoration="normal" x="497" y="692" text-anchor="start" dominant-baseline="alphabetic" fill-opacity="1">–0.3</text>
      <text fill="rgb(0,0,0)" stroke="none" font-family="geogebra-sans-serif, sans-serif" font-size="12px" font-style="normal" font-weight="normal" text-decoration="normal" x="497" y="581" text-anchor="start" dominant-baseline="alphabetic" fill-opacity="1">–0.2</text>
      <text fill="rgb(0,0,0)" stroke="none" font-family="geogebra-sans-serif, sans-serif" font-size="12px" font-style="normal" font-weight="normal" text-decoration="normal" x="497" y="470" text-anchor="start" dominant-baseline="alphabetic" fill-opacity="1">–0.1</text>
      <text fill="rgb(0,0,0)" stroke="none" font-family="geogebra-sans-serif, sans-serif" font-size="12px" font-style="normal" font-weight="normal" text-decoration="normal" x="504" y="247" text-anchor="start" dominant-baseline="alphabetic" fill-opacity="1">0.1</text>
      <text fill="rgb(0,0,0)" stroke="none" font-family="geogebra-sans-serif, sans-serif" font-size="12px" font-style="normal" font-weight="normal" text-decoration="normal" x="504" y="136" text-anchor="start" dominant-baseline="alphabetic" fill-opacity="1">0.2</text>
      <text fill="rgb(0,0,0)" stroke="none" font-family="geogebra-sans-serif, sans-serif" font-size="12px" font-style="normal" font-weight="normal" text-decoration="normal" x="504" y="25" text-anchor="start" dominant-baseline="alphabetic" fill-opacity="1">0.3</text>
      <text fill="rgb(0,0,0)" stroke="none" font-family="geogebra-sans-serif, sans-serif" font-size="12px" font-style="normal" font-weight="normal" text-decoration="normal" x="514" y="369" text-anchor="start" dominant-baseline="alphabetic" fill-opacity="1">0</text>
      <path fill="none" stroke="rgb(0,0,0)" paint-order="fill stroke markers" d=" M 0 567.8763021343499 L 4.140625 562.3831156510563 L 8.28125 556.8915720189975 L 12.421875 551.4023128413222 L 16.5625 545.9160182757704 L 20.703125000000057 540.4334091309747 L 24.843750000000057 534.9552490758683 L 28.984375 529.4823469680814 L 33.125 524.0155593074553 L 37.26562500000006 518.555792821059 L 41.40625 513.1040071863338 L 45.546875 507.66121789924085 L 49.6875 502.2284992945254 L 53.828125 496.80698772542553 L 57.96875000000006 491.39788491037416 L 62.109375 486.00246145442065 L 66.25 480.62206055326277 L 70.390625 475.25810188790086 L 74.53125 469.91208571800445 L 78.671875 464.58559718210824 L 82.8125 459.2803108127098 L 86.953125 453.9979952742161 L 91.09375000000006 448.7405183314654 L 95.234375 443.50985205620975 L 99.375 438.30807827846166 L 103.515625 433.13739428896446 L 107.65625 428.00011879819596 L 111.796875 422.89869815624036 L 115.9375 417.8357128365101 L 120.078125 412.8138841846229 L 124.21875000000006 407.836081431686 L 128.359375 402.90532896874623 L 132.5 398.02481387615103 L 136.640625 393.197893697954 L 140.78125 388.4281044471833 L 144.921875 383.71916882266333 L 149.0625 379.07500461200954 L 153.203125 374.4997332482401 L 157.34375000000006 369.99768847901555 L 161.484375 365.5734250976034 L 165.625 361.2317276730625 L 169.765625 356.9776192035777 L 173.90624999999994 352.81636960105294 L 178.046875 348.75350389665186 L 182.1875 344.7948100355716 L 186.328125 340.94634610449555 L 190.46875000000006 337.2144468064137 L 194.609375 333.60572896423673 L 198.75 330.12709579624396 L 202.890625 326.7857396621726 L 207.03124999999994 323.5891429278773 L 211.171875 320.5450765380943 L 215.3125 317.66159581994896 L 219.453125 314.9470329633938 L 223.59375000000006 312.40998553762375 L 227.734375 310.059300303463 L 231.875 307.9040514695007 L 236.015625 305.9535124131064 L 240.15624999999994 304.21711974513113 L 244.296875 302.70442843800316 L 248.4375 301.425056560156 L 252.578125 300.3886179647795 L 256.71875 299.6046410678648 L 260.859375 299.0824716203832 L 265 298.8311571344758 L 269.140625 298.8593103677998 L 273.28125 299.17494901026447 L 277.421875 299.7853084633224 L 281.5625 300.6966243684386 L 285.703125 301.9138813492572 L 289.84375 303.44052431051654 L 293.984375 305.27812862602366 L 298.125 307.4260257022939 L 302.265625 309.8808807964956 L 306.40625 312.636220693363 L 310.546875 315.6819100318563 L 314.6875 319.0035768819737 L 318.828125 322.5819908146297 L 322.96875 326.392400447713 L 327.109375 330.40384261917956 L 331.25 334.57844233663934 L 335.390625 338.8707319636672 L 339.53125 343.2270302817086 L 343.671875 347.5849377239419 L 347.8125 351.87302383394143 L 351.953125 356.01080739546796 L 356.09374999999994 359.9091590022576 L 360.234375 363.47128985739073 L 364.375 366.5945281087996 L 368.515625 369.17312216902127 L 372.65625 371.1023436399597 L 376.796875 372.2841808274352 L 378.8671875 372.56785724156225 L 380.9375 372.63490119153926 L 385.078125 372.0946921589408 L 387.1484375 371.48119310057655 L 389.21874999999994 370.63942698582764 L 393.359375 368.29429307408935 L 397.5 365.148495410976 L 401.640625 361.36942727087086 L 405.78125 357.2135098047253 L 409.921875 353.0293170440436 L 414.0625 349.24673800298217 L 418.203125 346.34420199905037 L 420.2734375 345.3709017645394 L 422.34374999999994 344.7853970036244 L 423.37890625 344.65087914309134 L 424.4140625 344.6269358418539 L 426.48437499999994 344.9193653080154 L 427.51953125 345.23672584618316 L 428.5546875 345.666335180484 L 430.625 346.84653747964416 L 434.765625 350.2723916441435 L 438.90625 354.4034044180653 L 443.04687499999994 357.98352543342367 L 444.08203125 358.62242736364203 L 445.1171875 359.116070003681 L 446.15234374999994 359.44684809775833 L 447.1875 359.6007989784755 L 447.705078125 359.60833990382986 L 448.22265625 359.5685903441103 L 449.25781249999994 359.3465018062304 L 450.29296875 358.93734851057525 L 451.328125 358.3512827025842 L 453.3984375 356.7290405298717 L 455.46874999999994 354.72273409832314 L 459.60937499999994 351.0712008157553 L 460.126953125 350.77975893131185 L 460.64453125 350.5456977083205 L 461.6796875 350.2679828217485 L 462.19726562499994 350.23115903974195 L 462.71484374999994 350.2650898860608 L 463.23242187499994 350.370257738913 L 463.75 350.54574883109876 L 464.78515625 351.0965073808895 L 465.82031249999994 351.8791163270131 L 467.890625 353.8618505172763 L 472.03125 356.6546223522913 L 472.54882812499994 356.6551179667105 L 473.06640624999994 356.5560597038085 L 473.583984375 356.35935743402194 L 474.1015625 356.07096222580554 L 475.13671875 355.2638014439072 L 476.17187499999994 354.2638074671632 L 478.2421875 352.43780543064383 L 478.75976562499994 352.1647669764796 L 479.27734374999994 352.00723619173874 L 479.79492187499994 351.9774307070745 L 480.3125 352.0799945595276 L 480.830078125 352.3108079002659 L 481.34765625 352.6562837038973 L 482.38281249999994 353.5900288711206 L 484.453125 355.347268839656 L 484.970703125 355.5228794638096 L 485.48828124999994 355.53449198042114 L 486.00585937499994 355.37698082653674 L 486.52343749999994 355.0641984535576 L 488.59374999999994 353.17188563322827 L 489.11132812499994 352.8606978791393 L 489.62890624999994 352.7336473179496 L 490.146484375 352.8161907235874 L 490.6640625 353.09945386008303 L 492.73437499999994 354.8789668638761 L 493.25195312499994 355.0097290733103 L 493.76953125 354.8851578177731 L 494.287109375 354.5305744805835 L 494.8046875 354.03723389792566 L 495.83984374999994 353.20904894560124 L 496.35742187499994 353.14337845464183 L 496.875 353.37939196320036 L 498.94531249999994 354.6612846013707 L 499.46289062499994 354.32359465148534 L 499.98046874999994 353.81993864204026 L 500.498046875 353.4336497994854 L 501.015625 353.40504105238523 L 505.15625 354.20450012920264 L 505.67382812499994 354.3885019641858 L 506.19140624999994 354.01952192851576 L 506.708984375 353.6295418571436 L 507.2265625 353.8314186962186 L 507.744140625 354.27650234402444 L 508.26171875 354.13792981491025 L 508.77929687499994 353.7078915413001 L 509.29687499999994 353.9293724815139 L 509.81445312499994 354.25066722967824 L 510.33203125 353.85646875920827 L 510.849609375 353.8749159153575 L 511.3671875 354.20159364099857 L 511.88476562499994 353.8048580254823 L 512.40234375 354.07727923327235 L 512.919921875 353.96094976419835 L 513.4375 353.98132584238334 L 513.955078125 353.9755768308175 L 514.47265625 354.0411865624726 L 514.990234375 353.8710834052996 L 515.4916381835938 354.09877574282115 L 516.025390625 354.0135004450658 L 516.5267944335938 353.8909291137729 L 517.060546875 353.89905796451814 L 517.578125 353.9148097426951 L 518.095703125 353.91258667344806 L 518.61328125 353.965633687922 L 519.1146850585936 354.04114645647627 L 519.6484375 353.9497059235897 L 520.68359375 353.9482505212957 L 521.7187499999999 354.001492445098 L 525.859375 353.9854460736424 L 530 353.98260221493655 L 534.140625 353.9697870809188 L 538.28125 354.0918763589116 L 542.421875 354.0374517927354 L 546.5625 353.80430882210624 L 550.703125 353.9734126795002 L 554.8437499999999 353.5067022339389 L 555.87890625 353.38272595989025 L 556.396484375 353.787641360342 L 556.9140625 354.29656889292096 L 557.431640625 354.69736370990995 L 557.94921875 354.8387579936461 L 558.466796875 354.67681421580545 L 558.984375 354.2743155436997 L 561.0546874999999 352.9751077808116 L 561.5722656249999 353.1833073025625 L 562.08984375 353.58592745975585 L 563.125 354.58736566530337 L 563.642578125 354.98211991973244 L 564.16015625 355.203509451603 L 564.677734375 355.2172080380325 L 565.1953125 355.02613361339365 L 565.712890625 354.66528636174587 L 566.23046875 354.19240853543886 L 567.2656249999999 353.18844577291514 L 567.7832031249999 352.788636411793 L 568.30078125 352.5235168388654 L 568.818359375 352.4203386194673 L 569.3359375 352.48660272221133 L 569.853515625 352.7115299955614 L 570.37109375 353.06924898579945 L 571.40625 354.0298980719552 L 573.4765624999999 355.7472522816173 L 573.9941406249999 355.93746011153155 L 574.5117187499999 355.9970657619361 L 575.029296875 355.92489816077665 L 575.546875 355.7282089765843 L 576.064453125 355.4213603694881 L 576.58203125 355.0242441936624 L 577.6171875 354.05622962600984 L 579.6874999999999 352.14047510097834 L 580.2050781249999 351.79562907301164 L 580.7226562499999 351.5360891573386 L 581.2402343749999 351.370629144139 L 581.7578125 351.30386451521764 L 582.275390625 351.336450222369 L 582.79296875 351.4654131502403 L 583.310546875 351.68458452051743 L 583.828125 351.9850993942261 L 584.86328125 352.7844512628065 L 585.8984375 353.7591370039182 L 587.9687499999999 355.7844328653965 L 590.0390625 357.2668037911845 L 590.556640625 357.4885245347913 L 591.07421875 357.64137909159365 L 591.591796875 357.7234543686459 L 592.109375 357.7343014737978 L 592.626953125 357.6748316944604 L 593.1445312499999 357.5471947500414 L 594.1796874999999 357.10139602280117 L 595.21484375 356.43359617459 L 596.25 355.5912028300914 L 600.3906249999999 351.5610368024223 L 604.53125 348.74081660639115 L 605.048828125 348.57429654646194 L 605.56640625 348.45488994868833 L 606.6015624999999 348.3586665661597 L 607.1191406249999 348.3814327467815 L 607.6367187499999 348.4505344922077 L 608.671875 348.72294852131 L 609.70703125 349.16339858849636 L 610.7421875 349.75540047391536 L 612.8125 351.31401337664516 L 616.953125 355.2966269707021 L 621.0937499999999 359.2639848485746 L 625.234375 362.1335085890131 L 625.751953125 362.38061370136654 L 626.2695312499999 362.60032714482736 L 627.3046874999999 362.9558754652678 L 629.375 363.325422973245 L 630.41015625 363.33943738268545 L 631.4453125 363.24191353719857 L 633.5156249999999 362.7261242928365 L 635.5859375 361.8150300508904 L 637.65625 360.5572316108854 L 641.796875 357.22996982094503 L 645.9374999999999 353.2241105751028 L 650.078125 349.00366130378535 L 654.2187499999999 344.96724487145144 L 658.359375 341.4254906409488 L 662.5 338.5968799147155 L 666.6406249999999 336.61472543545955 L 668.7109375 335.9625035124107 L 670.78125 335.53982821254766 L 674.921875 335.3751321461989 L 676.9921875 335.6227796234612 L 679.0625 336.08012122647324 L 683.203125 337.58373360229166 L 687.3437499999999 339.7952544340701 L 691.484375 342.6130753275492 L 695.625 345.93144906990346 L 699.7656249999999 349.6454866610578 L 703.90625 353.6546853824243 L 708.046875 357.86527391973874 L 712.1874999999999 362.1916344914104 L 716.328125 366.5570257856152 L 720.4687499999999 370.89379213291977 L 724.609375 375.1432080436238 L 728.75 379.25507509309307 L 732.8906249999999 383.18716087410536 L 737.03125 386.90454732313833 L 741.171875 390.3789377472883 L 745.3125 393.58795774299324 L 749.453125 396.51447428261184 L 753.5937499999999 399.14594895846153 L 757.734375 401.4738351901133 L 761.875 403.4930246708591 L 766.0156249999999 405.2013450813559 L 770.15625 406.5991088308224 L 774.296875 407.6887110582397 L 778.4374999999999 408.4742741486164 L 782.578125 408.9613354455983 L 786.71875 409.15657455867535 L 790.859375 409.0675765851998 L 795 408.70262762987767 L 799.1406249999999 408.07053915939787 L 803.28125 407.1804979422049 L 807.421875 406.04193856763624 L 811.5625 404.6644357966248 L 815.703125 403.05761425534047 L 819.8437499999999 401.2310732350361 L 823.984375 399.19432460054134 L 828.125 396.95674203305754 L 832.2656249999999 394.5275200384764 L 836.40625 391.91564133981115 L 840.546875 389.12985144166726 L 844.6874999999999 386.17863930668244 L 848.828125 383.0702232195323 L 852.9687499999999 379.81254103459395 L 857.109375 376.4132441099501 L 861.25 372.8796943243702 L 865.3906249999999 369.2189636564574 L 869.53125 365.43783587749977 L 873.671875 361.5428099727988 L 877.8125 357.54010496141086 L 881.953125 353.4356658322503 L 886.0937499999999 349.23517035621103 L 890.234375 344.9440365701438 L 894.375 340.567430759839 L 898.5156249999999 336.1102757962296 L 902.65625 331.5772597023855 L 906.796875 326.97284434898336 L 910.9374999999999 322.3012741932265 L 915.078125 317.5665849910431 L 919.2187499999999 312.7726124250985 L 923.359375 307.9230006020299 L 927.5 303.0212103815888 L 931.6406249999999 298.0705275082575 L 935.78125 293.07407052260766 L 939.921875 288.03479843533023 L 944.0625 282.95551815163753 L 948.203125 277.83889163775484 L 952.3437499999999 272.6874428245629 L 956.484375 267.5035642462475 L 960.625 262.28952341411025 L 964.7656249999999 257.0474689275829 L 968.90625 251.7794363260296 L 973.046875 246.4873536861461 L 977.1874999999999 241.17304697074542 L 981.328125 235.83824513548126 L 985.4687499999999 230.48458500062986 L 989.609375 225.11361589547198 L 993.75 219.72680408310944 L 997.8906249999999 214.32553697372316 L 1002.03125 208.91112713437494 L 1006.1718749999999 203.48481610346525 L 1010.3125 198.04777801790877 L 1014.453125 192.60112306099919 L 1018.5937499999999 187.1459007387834 L 1022.734375 181.68310299260543 L 1026.875 176.21366715527645 L 1031.015625 170.7384787581129 L 1035.15625 165.25837419585798 L 1039.296875 159.77414325625818 L 1043.4375 154.28653152082074 L 1047.578125 148.7962426430317 L 1051.71875 143.30394051006058 L 1055.859375 137.81025129372668 L 1060 132.31576539626298" stroke-opacity="0.8" stroke-linecap="round" stroke-linejoin="round" stroke-miterlimit="10" stroke-width="2.5" />
      <path fill="none" stroke="rgb(102,153,255)" paint-order="fill stroke markers" d=" M 0 104.42715250267176 L 4.140625 108.33277163598015 L 8.28125 112.20758746487635 L 12.421875 116.05159998936051 L 16.5625 119.86480920943254 L 20.703125000000057 123.64721512509243 L 24.843750000000057 127.39881773634019 L 28.984375 131.1196170431758 L 33.125 134.80961304559932 L 37.26562500000006 138.46880574361074 L 41.40625 142.09719513720998 L 45.546875 145.69478122639717 L 49.6875 149.2615640111722 L 53.828125 152.79754349153512 L 57.96875000000006 156.30271966748592 L 62.109375 159.77709253902458 L 66.25 163.22066210615114 L 70.390625 166.63342836886557 L 74.53125 170.01539132716783 L 78.671875 173.36655098105803 L 82.8125 176.68690733053612 L 86.953125 179.97646037560207 L 91.09375000000006 183.23521011625593 L 95.234375 186.4631565524976 L 99.375 189.66029968432719 L 103.515625 192.82663951174467 L 107.65625 195.96217603474997 L 111.796875 199.0669092533432 L 115.9375 202.1408391675243 L 120.078125 205.18396577729328 L 124.21875000000006 208.19628908265014 L 128.359375 211.17780908359484 L 132.5 214.12852578012746 L 136.640625 217.04843917224798 L 140.78125 219.9375492599563 L 144.921875 222.7958560432526 L 149.0625 225.62335952213675 L 153.203125 228.42005969660875 L 157.34375000000006 231.18595656666866 L 161.484375 233.9210501323164 L 165.625 236.62534039355205 L 169.765625 239.29882735037557 L 173.90624999999994 241.94151100278697 L 178.046875 244.55339135078623 L 182.1875 247.1344683943734 L 186.328125 249.68474213354847 L 190.46875000000006 252.2042125683114 L 194.609375 254.69287969866215 L 198.75 257.15074352460084 L 202.890625 259.5778040461274 L 207.03124999999994 261.9740612632418 L 211.171875 264.33951517594414 L 215.3125 266.67416578423433 L 219.453125 268.97801308811245 L 223.59375000000006 271.2510570875784 L 227.734375 273.4932977826322 L 231.875 275.7047351732739 L 236.015625 277.8853692595035 L 240.15624999999994 280.03520004132093 L 244.296875 282.1542275187263 L 248.4375 284.24245169171957 L 252.578125 286.2998725603006 L 256.71875 288.3264901244696 L 260.859375 290.32230438422647 L 265 292.28731533957125 L 269.140625 294.22152299050384 L 273.28125 296.12492733702436 L 277.421875 297.9975283791327 L 281.5625 299.83932611682894 L 285.703125 301.6503205501131 L 289.84375 303.4305116789851 L 293.984375 305.17989950344503 L 298.125 306.89848402349276 L 302.265625 308.58626523912847 L 306.40625 310.243243150352 L 310.546875 311.8694177571634 L 314.6875 313.4647890595627 L 318.828125 315.0293570575498 L 322.96875 316.56312175112487 L 327.109375 318.0660831402878 L 331.25 319.5382412250386 L 335.390625 320.9795960053773 L 339.53125 322.39014748130387 L 343.671875 323.76989565281826 L 347.8125 325.1188405199206 L 351.953125 326.4369820826108 L 356.09374999999994 327.7243203408889 L 360.234375 328.9808552947548 L 364.375 330.20658694420865 L 368.515625 331.40151528925037 L 372.65625 332.56564032987995 L 376.796875 333.6989620660974 L 380.9375 334.8014804979028 L 385.078125 335.87319562529603 L 389.21874999999994 336.9141074482771 L 393.359375 337.92421596684613 L 397.5 338.903521181003 L 401.640625 339.8520230907477 L 405.78125 340.76972169608035 L 409.921875 341.65661699700087 L 414.0625 342.51270899350925 L 418.203125 343.3379976856055 L 422.34374999999994 344.1324830732896 L 426.48437499999994 344.89616515656166 L 430.625 345.6290439354215 L 434.765625 346.3311194098693 L 438.90625 347.002391579905 L 443.04687499999994 347.6428604455285 L 447.1875 348.2525260067399 L 451.328125 348.8313882635392 L 455.46874999999994 349.3794472159264 L 459.60937499999994 349.89670286390145 L 463.75 350.38315520746437 L 467.890625 350.83880424661515 L 472.03125 351.26364998135386 L 476.17187499999994 351.65769241168044 L 480.3125 352.0209315375949 L 484.453125 352.3533673590972 L 488.59374999999994 352.6549998761874 L 492.73437499999994 352.9258290888655 L 496.875 353.1658549971314 L 501.015625 353.37507760098526 L 505.15625 353.553496900427 L 509.29687499999994 353.70111289545656 L 513.4375 353.81792558607407 L 517.578125 353.90393497227944 L 521.7187499999999 353.95914105407263 L 525.859375 353.98354383145374 L 530 353.9771433044228 L 534.140625 353.93993947297963 L 538.28125 353.87193233712435 L 542.421875 353.773121896857 L 546.5625 353.6435081521775 L 550.703125 353.4830911030859 L 554.8437499999999 353.2918707495822 L 558.984375 353.0698470916663 L 563.125 352.81702012933835 L 567.2656249999999 352.53338986259826 L 571.40625 352.21895629144603 L 575.546875 351.8737194158817 L 579.6874999999999 351.4976792359052 L 583.828125 351.09083575151664 L 587.9687499999999 350.65318896271594 L 592.109375 350.18473886950306 L 596.25 349.68548547187817 L 600.3906249999999 349.1554287698411 L 604.53125 348.5945687633919 L 608.671875 348.00290545253057 L 612.8125 347.38043883725715 L 616.953125 346.7271689175716 L 621.0937499999999 346.04309569347396 L 625.234375 345.32821916496414 L 629.375 344.58253933204224 L 633.5156249999999 343.8060561947082 L 637.65625 342.998769752962 L 641.796875 342.1606800068038 L 645.9374999999999 341.29178695623335 L 650.078125 340.39209060125086 L 654.2187499999999 339.46159094185623 L 658.359375 338.5002879780494 L 662.5 337.5081817098305 L 666.6406249999999 336.48527213719956 L 670.78125 335.4315592601564 L 674.921875 334.3470430787012 L 679.0625 333.2317235928338 L 683.203125 332.0856008025543 L 687.3437499999999 330.9086747078627 L 691.484375 329.70094530875895 L 695.625 328.4624126052431 L 699.7656249999999 327.19307659731516 L 703.90625 325.89293728497506 L 708.046875 324.56199466822284 L 712.1874999999999 323.20024874705854 L 716.328125 321.80769952148205 L 720.4687499999999 320.3843469914935 L 724.609375 318.93019115709274 L 728.75 317.44523201827997 L 732.8906249999999 315.929469575055 L 737.03125 314.3829038274179 L 741.171875 312.80553477536876 L 745.3125 311.19736241890746 L 749.453125 309.55838675803403 L 753.5937499999999 307.88860779274853 L 757.734375 306.1880255230508 L 761.875 304.456639948941 L 766.0156249999999 302.6944510704192 L 770.15625 300.9014588874851 L 774.296875 299.07766340013893 L 778.4374999999999 297.2230646083807 L 782.578125 295.3376625122103 L 786.71875 293.4214571116278 L 790.859375 291.4744484066331 L 795 289.4966363972264 L 799.1406249999999 287.4880210834075 L 803.28125 285.44860246517646 L 807.421875 283.37838054253336 L 811.5625 281.2773553154781 L 815.703125 279.14552678401077 L 819.8437499999999 276.9828949481313 L 823.984375 274.78945980783965 L 828.125 272.56522136313595 L 832.2656249999999 270.3101796140201 L 836.40625 268.0243345604921 L 840.546875 265.70768620255205 L 844.6874999999999 263.3602345401999 L 848.828125 260.9819795734355 L 852.9687499999999 258.5729213022591 L 857.109375 256.13305972667047 L 861.25 253.66239484666977 L 865.3906249999999 251.160926662257 L 869.53125 248.62865517343204 L 873.671875 246.065580380195 L 877.8125 243.47170228254578 L 881.953125 240.84702088048448 L 886.0937499999999 238.1915361740111 L 890.234375 235.5052481631255 L 894.375 232.78815684782788 L 898.5156249999999 230.04026222811814 L 902.65625 227.26156430399615 L 906.796875 224.45206307546218 L 910.9374999999999 221.61175854251607 L 915.078125 218.74065070515772 L 919.2187499999999 215.83873956338738 L 923.359375 212.90602511720482 L 927.5 209.94250736661022 L 931.6406249999999 206.94818631160348 L 935.78125 203.92306195218458 L 939.921875 200.86713428835358 L 944.0625 197.78040332011042 L 948.203125 194.66286904745522 L 952.3437499999999 191.5145314703879 L 956.484375 188.33539058890835 L 960.625 185.12544640301678 L 964.7656249999999 181.8846989127131 L 968.90625 178.6131481179972 L 973.046875 175.31079401886927 L 977.1874999999999 171.97763661532923 L 981.328125 168.61367590737697 L 985.4687499999999 165.2189118950127 L 989.609375 161.79334457823617 L 993.75 158.33697395704763 L 997.8906249999999 154.849800031447 L 1002.03125 151.3318228014341 L 1006.1718749999999 147.78304226700922 L 1010.3125 144.2034584281721 L 1014.453125 140.59307128492296 L 1018.5937499999999 136.9518808372617 L 1022.734375 133.27988708518825 L 1026.875 129.57709002870274 L 1031.015625 125.84348966780513 L 1035.15625 122.07908600249527 L 1039.296875 118.2838790327734 L 1043.4375 114.45786875863942 L 1047.578125 110.60105518009323 L 1051.71875 106.71343829713499 L 1055.859375 102.79501810976453 L 1060 98.84579461798202" stroke-opacity="0.8" stroke-linecap="round" stroke-linejoin="round" stroke-miterlimit="10" stroke-width="2.5" />
      <path fill="none" stroke="rgb(102,153,255)" paint-order="fill stroke markers" d=" M 0 603.5425654057877 L 4.140625 599.6369462724793 L 8.28125 595.7621304435831 L 12.421875 591.918117919099 L 16.5625 588.104908699027 L 20.703125000000057 584.3225027833671 L 24.843750000000057 580.5709001721193 L 28.984375 576.8501008652837 L 33.125 573.1601048628602 L 37.26562500000006 569.5009121648488 L 41.40625 565.8725227712496 L 45.546875 562.2749366820624 L 49.6875 558.7081538972873 L 53.828125 555.1721744169245 L 57.96875000000006 551.6669982409736 L 62.109375 548.192625369435 L 66.25 544.7490558023084 L 70.390625 541.336289539594 L 74.53125 537.9543265812918 L 78.671875 534.6031669274015 L 82.8125 531.2828105779234 L 86.953125 527.9932575328575 L 91.09375000000006 524.7345077922037 L 95.234375 521.5065613559619 L 99.375 518.3094182241323 L 103.515625 515.1430783967148 L 107.65625 512.0075418737096 L 111.796875 508.90280865511636 L 115.9375 505.82887874093524 L 120.078125 502.78575213116625 L 124.21875000000006 499.7734288258094 L 128.359375 496.79190882486466 L 132.5 493.84119212833207 L 136.640625 490.92127873621155 L 140.78125 488.0321686485032 L 144.921875 485.17386186520696 L 149.0625 482.3463583863228 L 153.203125 479.5496582118508 L 157.34375000000006 476.78376134179086 L 161.484375 474.04866777614313 L 165.625 471.3443775149075 L 169.765625 468.67089055808395 L 173.90624999999994 466.02820690567256 L 178.046875 463.4163265576733 L 182.1875 460.8352495140861 L 186.328125 458.28497577491106 L 190.46875000000006 455.76550534014814 L 194.609375 453.27683820979735 L 198.75 450.8189743838587 L 202.890625 448.3919138623321 L 207.03124999999994 445.9956566452177 L 211.171875 443.6302027325154 L 215.3125 441.2955521242252 L 219.453125 438.9917048203471 L 223.59375000000006 436.71866082088115 L 227.734375 434.4764201258273 L 231.875 432.26498273518564 L 236.015625 430.08434864895605 L 240.15624999999994 427.9345178671386 L 244.296875 425.8154903897332 L 248.4375 423.72726621673996 L 252.578125 421.6698453481589 L 256.71875 419.6432277839899 L 260.859375 417.64741352423306 L 265 415.6824025688883 L 269.140625 413.7481949179557 L 273.28125 411.84479057143517 L 277.421875 409.97218952932684 L 281.5625 408.1303917916306 L 285.703125 406.3193973583464 L 289.84375 404.5392062294744 L 293.984375 402.7898184050145 L 298.125 401.0712338849668 L 302.265625 399.38345266933106 L 306.40625 397.72647475810754 L 310.546875 396.10030015129615 L 314.6875 394.50492884889684 L 318.828125 392.9403608509097 L 322.96875 391.40659615733466 L 327.109375 389.90363476817174 L 331.25 388.43147668342095 L 335.390625 386.99012190308224 L 339.53125 385.57957042715566 L 343.671875 384.19982225564127 L 347.8125 382.85087738853895 L 351.953125 381.5327358258487 L 356.09374999999994 380.24539756757065 L 360.234375 378.9888626137047 L 364.375 377.7631309642509 L 368.515625 376.56820261920916 L 372.65625 375.4040775785796 L 376.796875 374.2707558423621 L 380.9375 373.16823741055674 L 385.078125 372.0965222831635 L 389.21874999999994 371.05561046018244 L 393.359375 370.0455019416134 L 397.5 369.06619672745654 L 401.640625 368.1176948177118 L 405.78125 367.1999962123792 L 409.921875 366.31310091145866 L 414.0625 365.4570089149503 L 418.203125 364.631720222854 L 422.34374999999994 363.8372348351699 L 426.48437499999994 363.07355275189786 L 430.625 362.340673973038 L 434.765625 361.6385984985902 L 438.90625 360.9673263285545 L 443.04687499999994 360.326857462931 L 447.1875 359.7171919017196 L 451.328125 359.1383296449203 L 455.46874999999994 358.5902706925331 L 459.60937499999994 358.0730150445581 L 463.75 357.58656270099516 L 467.890625 357.1309136618444 L 472.03125 356.70606792710566 L 476.17187499999994 356.3120254967791 L 480.3125 355.94878637086464 L 484.453125 355.6163505493623 L 488.59374999999994 355.31471803227214 L 492.73437499999994 355.04388881959403 L 496.875 354.8038629113281 L 501.015625 354.59464030747426 L 505.15625 354.41622100803255 L 509.29687499999994 354.26860501300297 L 513.4375 354.15179232238546 L 517.578125 354.0657829361801 L 521.7187499999999 354.0105768543869 L 525.859375 353.9861740770058 L 530 353.99257460403675 L 534.140625 354.0297784354799 L 538.28125 354.0977855713352 L 542.421875 354.19659601160254 L 546.5625 354.326209756282 L 550.703125 354.48662680537365 L 554.8437499999999 354.67784715887734 L 558.984375 354.8998708167932 L 563.125 355.1526977791212 L 567.2656249999999 355.4363280458613 L 571.40625 355.7507616170135 L 575.546875 356.09599849257785 L 579.6874999999999 356.47203867255433 L 583.828125 356.8788821569429 L 587.9687499999999 357.3165289457436 L 592.109375 357.78497903895646 L 596.25 358.28423243658136 L 600.3906249999999 358.81428913861845 L 604.53125 359.3751491450676 L 608.671875 359.96681245592896 L 612.8125 360.5892790712024 L 616.953125 361.24254899088794 L 621.0937499999999 361.92662221498557 L 625.234375 362.6414987434954 L 629.375 363.3871785764173 L 633.5156249999999 364.1636617137513 L 637.65625 364.9709481554975 L 641.796875 365.80903790165576 L 645.9374999999999 366.6779309522262 L 650.078125 367.5776273072087 L 654.2187499999999 368.5081269666033 L 658.359375 369.4694299304101 L 662.5 370.461536198629 L 666.6406249999999 371.48444577125997 L 670.78125 372.5381586483031 L 674.921875 373.62267482975835 L 679.0625 374.7379943156257 L 683.203125 375.8841171059052 L 687.3437499999999 377.0610432005968 L 691.484375 378.2687725997006 L 695.625 379.5073053032164 L 699.7656249999999 380.7766413111444 L 703.90625 382.07678062348447 L 708.046875 383.4077232402367 L 712.1874999999999 384.769469161401 L 716.328125 386.1620183869775 L 720.4687499999999 387.58537091696604 L 724.609375 389.0395267513668 L 728.75 390.52448589017956 L 732.8906249999999 392.0402483334045 L 737.03125 393.5868140810416 L 741.171875 395.1641831330908 L 745.3125 396.77235548955207 L 749.453125 398.4113311504255 L 753.5937499999999 400.081110115711 L 757.734375 401.78169238540875 L 761.875 403.5130779595185 L 766.0156249999999 405.27526683804035 L 770.15625 407.06825902097444 L 774.296875 408.8920545083206 L 778.4374999999999 410.74665330007883 L 782.578125 412.63205539624926 L 786.71875 414.54826079683176 L 790.859375 416.49526950182644 L 795 418.47308151123315 L 799.1406249999999 420.48169682505204 L 803.28125 422.52111544328307 L 807.421875 424.59133736592617 L 811.5625 426.69236259298145 L 815.703125 428.82419112444876 L 819.8437499999999 430.98682296032825 L 823.984375 433.1802581006199 L 828.125 435.4044965453236 L 832.2656249999999 437.6595382944394 L 836.40625 439.94538334796744 L 840.546875 442.2620317059075 L 844.6874999999999 444.60948336825965 L 848.828125 446.987738335024 L 852.9687499999999 449.39679660620044 L 857.109375 451.83665818178906 L 861.25 454.30732306178976 L 865.3906249999999 456.80879124620253 L 869.53125 459.3410627350275 L 873.671875 461.9041375282645 L 877.8125 464.49801562591375 L 881.953125 467.12269702797505 L 886.0937499999999 469.7781817344484 L 890.234375 472.46446974533404 L 894.375 475.1815610606317 L 898.5156249999999 477.9294556803414 L 902.65625 480.7081536044634 L 906.796875 483.5176548329973 L 910.9374999999999 486.35795936594343 L 915.078125 489.22906720330184 L 919.2187499999999 492.13097834507215 L 923.359375 495.0636927912547 L 927.5 498.0272105418493 L 931.6406249999999 501.02153159685605 L 935.78125 504.04665595627495 L 939.921875 507.102583620106 L 944.0625 510.18931458834913 L 948.203125 513.3068488610043 L 952.3437499999999 516.4551864380717 L 956.484375 519.6343273195512 L 960.625 522.8442715054427 L 964.7656249999999 526.0850189957464 L 968.90625 529.3565697904623 L 973.046875 532.6589238895903 L 977.1874999999999 535.9920812931302 L 981.328125 539.3560420010825 L 985.4687499999999 542.7508060134469 L 989.609375 546.1763733302233 L 993.75 549.6327439514118 L 997.8906249999999 553.1199178770125 L 1002.03125 556.6378951070254 L 1006.1718749999999 560.1866756414503 L 1010.3125 563.7662594802874 L 1014.453125 567.3766466235365 L 1018.5937499999999 571.0178370711978 L 1022.734375 574.6898308232712 L 1026.875 578.3926278797568 L 1031.015625 582.1262282406544 L 1035.15625 585.8906319059643 L 1039.296875 589.6858388756862 L 1043.4375 593.5118491498201 L 1047.578125 597.3686627283663 L 1051.71875 601.2562796113245 L 1055.859375 605.174699798695 L 1060 609.1239232904775" stroke-opacity="0.8" stroke-linecap="round" stroke-linejoin="round" stroke-miterlimit="10" stroke-width="2.5" />
      <g transform="scale(25,25)">
        <g transform="translate(3.12,12.450012)">
          <path fill="rgb(0,0,0)" stroke="none" paint-order="stroke fill markers" d=" M 0.26 -0.229 L 0.46 0 L 0.377 0 L 0.227 -0.188 L 0.082 0 L 0 0 L 0.194 -0.229 L 0.006 -0.444 L 0.089 -0.444 L 0.227 -0.279 L 0.361 -0.444 L 0.443 -0.444 L 0.26 -0.229 Z" />
        </g>
        <g transform="translate(3.581113,12.03712) scale(0.7,0.7)">
          <path fill="rgb(0,0,0)" stroke="none" paint-order="stroke fill markers" d=" M 0.17400000000000002 -0.188 L 0.251 -0.259 Q 0.281 -0.29 0.2955 -0.3055 Q 0.31 -0.321 0.33 -0.34900000000000003 Q 0.35000000000000003 -0.377 0.3585 -0.404 Q 0.367 -0.431 0.367 -0.461 Q 0.367 -0.523 0.328 -0.5685 Q 0.289 -0.614 0.222 -0.614 Q 0.161 -0.614 0.1315 -0.5730000000000001 Q 0.10200000000000001 -0.532 0.083 -0.459 Q 0.066 -0.484 0.061 -0.488 Q 0.06 -0.489 0.0545 -0.4965 Q 0.049 -0.504 0.042 -0.514 Q 0.088 -0.678 0.23600000000000002 -0.678 Q 0.332 -0.678 0.3905 -0.6155 Q 0.449 -0.553 0.449 -0.463 Q 0.449 -0.424 0.4315 -0.3865 Q 0.41400000000000003 -0.34900000000000003 0.398 -0.3305 Q 0.382 -0.312 0.35000000000000003 -0.28 Q 0.34 -0.271 0.3055 -0.241 Q 0.271 -0.211 0.261 -0.202 Q 0.254 -0.196 0.1975 -0.14100000000000001 Q 0.14100000000000001 -0.08600000000000001 0.122 -0.07 L 0.231 -0.07 Q 0.23700000000000002 -0.07 0.249 -0.07050000000000001 Q 0.261 -0.07100000000000001 0.267 -0.07100000000000001 L 0.449 -0.07100000000000001 L 0.449 0 L 0.05 0 L 0.05 -0.064 L 0.17400000000000002 -0.188 Z" />
        </g>
        <g transform="translate(4.117781566666666,12.450012)">
          <path fill="rgb(0,0,0)" stroke="none" paint-order="stroke fill markers" d=" M 0.343 -0.429 L 0.331 -0.364 Q 0.267 -0.402 0.189 -0.402 Q 0.10400000000000001 -0.402 0.10400000000000001 -0.34 Q 0.10400000000000001 -0.326 0.11 -0.315 Q 0.116 -0.304 0.1235 -0.2975 Q 0.131 -0.291 0.1465 -0.28550000000000003 Q 0.162 -0.28 0.17300000000000001 -0.277 Q 0.184 -0.274 0.20500000000000002 -0.27 Q 0.248 -0.262 0.271 -0.253 Q 0.294 -0.244 0.321 -0.22 L 0.326 -0.214 Q 0.331 -0.209 0.336 -0.2015 Q 0.341 -0.194 0.34700000000000003 -0.1835 Q 0.353 -0.17300000000000001 0.3565 -0.158 Q 0.36 -0.14300000000000002 0.36 -0.128 Q 0.36 -0.058 0.312 -0.021 Q 0.269 0.011 0.196 0.011 Q 0.116 0.011 0.028 -0.033 L 0.04 -0.101 Q 0.114 -0.052000000000000005 0.195 -0.052000000000000005 Q 0.289 -0.052000000000000005 0.289 -0.121 Q 0.289 -0.136 0.28200000000000003 -0.148 Q 0.275 -0.16 0.2665 -0.167 Q 0.258 -0.17400000000000002 0.243 -0.18 Q 0.228 -0.186 0.219 -0.188 Q 0.21 -0.19 0.195 -0.193 Q 0.161 -0.2 0.148 -0.203 Q 0.135 -0.20600000000000002 0.11850000000000001 -0.2125 Q 0.10200000000000001 -0.219 0.08700000000000001 -0.23 Q 0.033 -0.271 0.033 -0.33 Q 0.033 -0.367 0.0485 -0.3935 Q 0.064 -0.42 0.0835 -0.4325 Q 0.10300000000000001 -0.445 0.1305 -0.452 Q 0.158 -0.459 0.171 -0.46 Q 0.184 -0.461 0.199 -0.461 Q 0.274 -0.461 0.343 -0.429 Z" />
        </g>
        <g transform="translate(4.501115566666666,12.450012)">
          <path fill="rgb(0,0,0)" stroke="none" paint-order="stroke fill markers" d=" M 0.163 -0.68 L 0.163 -0.591 L 0.074 -0.591 L 0.074 -0.68 L 0.163 -0.68 M 0.156 -0.444 L 0.156 0 L 0.081 0 L 0.081 -0.444 L 0.156 -0.444 Z" />
        </g>
        <g transform="translate(4.740005566666666,12.450012)">
          <path fill="rgb(0,0,0)" stroke="none" paint-order="stroke fill markers" d=" M 0.435 -0.298 L 0.435 0 L 0.357 0 L 0.357 -0.291 Q 0.357 -0.305 0.3565 -0.3145 Q 0.356 -0.324 0.35050000000000003 -0.3405 Q 0.34500000000000003 -0.357 0.3355 -0.3675 Q 0.326 -0.378 0.3065 -0.386 Q 0.28700000000000003 -0.394 0.26 -0.394 Q 0.20800000000000002 -0.394 0.1835 -0.34900000000000003 Q 0.159 -0.304 0.159 -0.245 L 0.159 0 L 0.081 0 L 0.081 -0.45 L 0.153 -0.45 L 0.153 -0.379 Q 0.21 -0.455 0.298 -0.455 Q 0.435 -0.455 0.435 -0.298 Z" />
        </g>
        <g transform="translate(5.423340733333333,11.039999)">
          <path fill="rgb(0,0,0)" stroke="none" paint-order="stroke fill markers" d=" M 0.662109375 2.35693359375 Q 0.5390625 2.248046875 0.451171875 2.10888671875 Q 0.36328125 1.9697265625 0.31005859375 1.81494140625 Q 0.2568359375 1.66015625 0.232421875 1.494873046875 Q 0.2080078125 1.32958984375 0.2080078125 1.16015625 Q 0.2080078125 0.98974609375 0.232421875 0.823974609375 Q 0.2568359375 0.658203125 0.309814453125 0.50390625 Q 0.36279296875 0.349609375 0.450927734375 0.210205078125 Q 0.5390625 0.07080078125 0.662109375 -0.0380859375 Q 0.662109375 -0.0400390625 0.6669921875 -0.0400390625 L 0.69287109375 -0.0400390625 Q 0.69580078125 -0.0400390625 0.698486328125 -0.037109375 Q 0.701171875 -0.0341796875 0.701171875 -0.03076171875 Q 0.701171875 -0.02685546875 0.69921875 -0.02490234375 Q 0.5849609375 0.087890625 0.506103515625 0.22607421875 Q 0.42724609375 0.3642578125 0.380859375 0.51708984375 Q 0.33447265625 0.669921875 0.314697265625 0.8310546875 Q 0.294921875 0.9921875 0.294921875 1.16015625 Q 0.294921875 1.32763671875 0.314453125 1.486572265625 Q 0.333984375 1.6455078125 0.380859375 1.80029296875 Q 0.427734375 1.955078125 0.5068359375 2.09326171875 Q 0.5859375 2.2314453125 0.69921875 2.34423828125 Q 0.701171875 2.34619140625 0.701171875 2.35009765625 Q 0.701171875 2.35302734375 0.6982421875 2.35595703125 Q 0.6953125 2.35888671875 0.69287109375 2.35888671875 L 0.6669921875 2.35888671875 Q 0.662109375 2.35888671875 0.662109375 2.35693359375 Z" />
        </g>
        <g transform="translate(6.279455230651124,11.773503999999999)">
          <path fill="rgb(0,0,0)" stroke="none" paint-order="stroke fill markers" d=" M 0.299 -0.678 L 0.299 -0.058 L 0.424 -0.058 L 0.424 0 L 0.095 0 L 0.095 -0.058 L 0.22 -0.058 L 0.22 -0.578 Q 0.169 -0.556 0.089 -0.554 L 0.089 -0.612 Q 0.22 -0.617 0.279 -0.678 L 0.299 -0.678 Z" />
        </g>
        <rect fill="rgb(0,0,0)" stroke="none" x="6.279455230651124" y="12.180012499999998" width="0.500002" height="0.039999" />
        <g transform="translate(6.298899730651124,13.135962999999999)">
          <path fill="rgb(0,0,0)" stroke="none" paint-order="stroke fill markers" d=" M 0.26 -0.229 L 0.46 0 L 0.377 0 L 0.227 -0.188 L 0.082 0 L 0 0 L 0.194 -0.229 L 0.006 -0.444 L 0.089 -0.444 L 0.227 -0.279 L 0.361 -0.444 L 0.443 -0.444 L 0.26 -0.229 Z" />
        </g>
        <g transform="translate(6.899457227968916,11.039999)">
          <path fill="rgb(0,0,0)" stroke="none" paint-order="stroke fill markers" d=" M 0.04296875 2.35888671875 Q 0.0341796875 2.35888671875 0.0341796875 2.35009765625 Q 0.0341796875 2.34619140625 0.0361328125 2.34423828125 Q 0.150390625 2.2314453125 0.22900390625 2.093017578125 Q 0.3076171875 1.95458984375 0.35400390625 1.802001953125 Q 0.400390625 1.6494140625 0.420166015625 1.489990234375 Q 0.43994140625 1.33056640625 0.43994140625 1.1591796875 Q 0.43994140625 0.98583984375 0.420166015625 0.82763671875 Q 0.400390625 0.66943359375 0.3544921875 0.517578125 Q 0.30859375 0.36572265625 0.22900390625 0.226318359375 Q 0.1494140625 0.0869140625 0.0361328125 -0.02490234375 Q 0.0341796875 -0.02685546875 0.0341796875 -0.03076171875 Q 0.0341796875 -0.0400390625 0.04296875 -0.0400390625 L 0.06884765625 -0.0400390625 Q 0.072265625 -0.0400390625 0.07421875 -0.0380859375 Q 0.19775390625 0.0712890625 0.28564453125 0.210693359375 Q 0.37353515625 0.35009765625 0.42626953125 0.5048828125 Q 0.47900390625 0.65966796875 0.5029296875 0.82470703125 Q 0.52685546875 0.98974609375 0.52685546875 1.16015625 Q 0.52685546875 1.32958984375 0.5029296875 1.494140625 Q 0.47900390625 1.65869140625 0.42626953125 1.813720703125 Q 0.37353515625 1.96875 0.28564453125 2.108154296875 Q 0.19775390625 2.24755859375 0.07421875 2.35693359375 Q 0.072265625 2.35888671875 0.06884765625 2.35888671875 L 0.04296875 2.35888671875 Z" />
        </g>
      </g>
      <g transform="scale(25,25)">
        <g transform="translate(6.32,8.631781199999999)">
          <path fill="rgb(102,153,255)" stroke="none" paint-order="stroke fill markers" d=" M 0.26 -0.229 L 0.46 0 L 0.377 0 L 0.227 -0.188 L 0.082 0 L 0 0 L 0.194 -0.229 L 0.006 -0.444 L 0.089 -0.444 L 0.227 -0.279 L 0.361 -0.444 L 0.443 -0.444 L 0.26 -0.229 Z" />
        </g>
        <g transform="translate(6.781113,8.2188892) scale(0.7,0.7)">
          <path fill="rgb(102,153,255)" stroke="none" paint-order="stroke fill markers" d=" M 0.17400000000000002 -0.188 L 0.251 -0.259 Q 0.281 -0.29 0.2955 -0.3055 Q 0.31 -0.321 0.33 -0.34900000000000003 Q 0.35000000000000003 -0.377 0.3585 -0.404 Q 0.367 -0.431 0.367 -0.461 Q 0.367 -0.523 0.328 -0.5685 Q 0.289 -0.614 0.222 -0.614 Q 0.161 -0.614 0.1315 -0.5730000000000001 Q 0.10200000000000001 -0.532 0.083 -0.459 Q 0.066 -0.484 0.061 -0.488 Q 0.06 -0.489 0.0545 -0.4965 Q 0.049 -0.504 0.042 -0.514 Q 0.088 -0.678 0.23600000000000002 -0.678 Q 0.332 -0.678 0.3905 -0.6155 Q 0.449 -0.553 0.449 -0.463 Q 0.449 -0.424 0.4315 -0.3865 Q 0.41400000000000003 -0.34900000000000003 0.398 -0.3305 Q 0.382 -0.312 0.35000000000000003 -0.28 Q 0.34 -0.271 0.3055 -0.241 Q 0.271 -0.211 0.261 -0.202 Q 0.254 -0.196 0.1975 -0.14100000000000001 Q 0.14100000000000001 -0.08600000000000001 0.122 -0.07 L 0.231 -0.07 Q 0.23700000000000002 -0.07 0.249 -0.07050000000000001 Q 0.261 -0.07100000000000001 0.267 -0.07100000000000001 L 0.449 -0.07100000000000001 L 0.449 0 L 0.05 0 L 0.05 -0.064 L 0.17400000000000002 -0.188 Z" />
        </g>
      </g>
      <g transform="scale(25,25)">
        <g transform="translate(5.56,20.3517812)">
          <path fill="rgb(102,153,255)" stroke="none" paint-order="stroke fill markers" d=" M 0.661 -0.23 L 0.116 -0.23 Q 0.084 -0.23 0.083 -0.25 Q 0.083 -0.27 0.116 -0.27 L 0.661 -0.27 Q 0.6930000000000001 -0.27 0.6940000000000001 -0.25 Q 0.6940000000000001 -0.23 0.661 -0.23 Z" />
        </g>
        <g transform="translate(6.337781,20.3517812)">
          <path fill="rgb(102,153,255)" stroke="none" paint-order="stroke fill markers" d=" M 0.26 -0.229 L 0.46 0 L 0.377 0 L 0.227 -0.188 L 0.082 0 L 0 0 L 0.194 -0.229 L 0.006 -0.444 L 0.089 -0.444 L 0.227 -0.279 L 0.361 -0.444 L 0.443 -0.444 L 0.26 -0.229 Z" />
        </g>
        <g transform="translate(6.798894,19.938889200000002) scale(0.7,0.7)">
          <path fill="rgb(102,153,255)" stroke="none" paint-order="stroke fill markers" d=" M 0.17400000000000002 -0.188 L 0.251 -0.259 Q 0.281 -0.29 0.2955 -0.3055 Q 0.31 -0.321 0.33 -0.34900000000000003 Q 0.35000000000000003 -0.377 0.3585 -0.404 Q 0.367 -0.431 0.367 -0.461 Q 0.367 -0.523 0.328 -0.5685 Q 0.289 -0.614 0.222 -0.614 Q 0.161 -0.614 0.1315 -0.5730000000000001 Q 0.10200000000000001 -0.532 0.083 -0.459 Q 0.066 -0.484 0.061 -0.488 Q 0.06 -0.489 0.0545 -0.4965 Q 0.049 -0.504 0.042 -0.514 Q 0.088 -0.678 0.23600000000000002 -0.678 Q 0.332 -0.678 0.3905 -0.6155 Q 0.449 -0.553 0.449 -0.463 Q 0.449 -0.424 0.4315 -0.3865 Q 0.41400000000000003 -0.34900000000000003 0.398 -0.3305 Q 0.382 -0.312 0.35000000000000003 -0.28 Q 0.34 -0.271 0.3055 -0.241 Q 0.271 -0.211 0.261 -0.202 Q 0.254 -0.196 0.1975 -0.14100000000000001 Q 0.14100000000000001 -0.08600000000000001 0.122 -0.07 L 0.231 -0.07 Q 0.23700000000000002 -0.07 0.249 -0.07050000000000001 Q 0.261 -0.07100000000000001 0.267 -0.07100000000000001 L 0.449 -0.07100000000000001 L 0.449 0 L 0.05 0 L 0.05 -0.064 L 0.17400000000000002 -0.188 Z" />
        </g>
      </g>
    </g>
  </g>
</svg>