<?xml version="1.0" encoding="UTF-8" standalone="no"?>
<svg
   xmlns:dc="http://purl.org/dc/elements/1.1/"
   xmlns:cc="http://creativecommons.org/ns#"
   xmlns:rdf="http://www.w3.org/1999/02/22-rdf-syntax-ns#"
   xmlns:svg="http://www.w3.org/2000/svg"
   xmlns="http://www.w3.org/2000/svg"
   xmlns:sodipodi="http://sodipodi.sourceforge.net/DTD/sodipodi-0.dtd"
   xmlns:inkscape="http://www.inkscape.org/namespaces/inkscape"
   version="1.1"
   width="690"
   height="690"
   id="svg145"
   sodipodi:docname="tangent-lines-3.svg"
   inkscape:version="0.92.3 (2405546, 2018-03-11)"
   viewBox="0 0 690 690">
  <metadata
     id="metadata149">
    <rdf:RDF>
      <cc:Work
         rdf:about="">
        <dc:format>image/svg+xml</dc:format>
        <dc:type
           rdf:resource="http://purl.org/dc/dcmitype/StillImage" />
        <dc:title />
      </cc:Work>
    </rdf:RDF>
  </metadata>
  <sodipodi:namedview
     pagecolor="#ffffff"
     bordercolor="#666666"
     borderopacity="1"
     objecttolerance="10"
     gridtolerance="10"
     guidetolerance="10"
     inkscape:pageopacity="0"
     inkscape:pageshadow="2"
     inkscape:window-width="1920"
     inkscape:window-height="1057"
     id="namedview147"
     showgrid="false"
     inkscape:zoom="0.33908046"
     inkscape:cx="431.48387"
     inkscape:cy="53.06061"
     inkscape:window-x="1912"
     inkscape:window-y="-8"
     inkscape:window-maximized="1"
     inkscape:current-layer="svg145" />
  <defs
     id="defs5">
    <clipPath
       id="TtDyhLnlFfXZ">
      <path
         d="M 0,0 H 693 V 696 H 0 Z"
         id="path2"
         inkscape:connector-curvature="0"
         style="fill:none;stroke:none" />
    </clipPath>
    <clipPath
       clipPathUnits="userSpaceOnUse"
       id="clipPath958">
      <rect
         style="fill:#3f3f3f;fill-opacity:0.23737374;stroke:#000000;stroke-width:0;stroke-miterlimit:4;stroke-dasharray:none;stroke-dashoffset:0;stroke-opacity:1"
         id="rect960"
         width="690"
         height="690"
         x="0"
         y="6" />
    </clipPath>
    <clipPath
       clipPathUnits="userSpaceOnUse"
       id="clipPath1023">
      <rect
         x="0"
         y="0"
         width="690"
         height="690"
         id="rect1025"
         style="fill:#000000;fill-opacity:0.23204423;stroke-width:0.58790064" />
    </clipPath>
  </defs>
  <g
     id="g1017"
     clip-path="url(#clipPath1023)">
    <path
       style="fill:none;stroke:#000000;stroke-miterlimit:10;stroke-opacity:1;paint-order:fill stroke markers"
       inkscape:connector-curvature="0"
       id="path9"
       stroke-miterlimit="10"
       d="m 359.5,-21.5 v 930" />
    <path
       style="fill:none;stroke:#000000;stroke-miterlimit:10;stroke-opacity:1;paint-order:fill stroke markers"
       inkscape:connector-curvature="0"
       id="path11"
       stroke-miterlimit="10"
       d="m 359.5,-22.5 -4,4" />
    <path
       style="fill:none;stroke:#000000;stroke-miterlimit:10;stroke-opacity:1;paint-order:fill stroke markers"
       inkscape:connector-curvature="0"
       id="path13"
       stroke-miterlimit="10"
       d="m 359.5,-22.5 4,4" />
    <path
       style="fill:none;stroke:#000000;stroke-miterlimit:10;stroke-opacity:1;paint-order:fill stroke markers"
       inkscape:connector-curvature="0"
       id="path15"
       stroke-miterlimit="10"
       d="m -306.5,567.5 h 1476" />
    <path
       style="fill:none;stroke:#000000;stroke-miterlimit:10;stroke-opacity:1;paint-order:fill stroke markers"
       inkscape:connector-curvature="0"
       id="path17"
       stroke-miterlimit="10"
       d="m 1170.5,567.5 -4,-4" />
    <path
       style="fill:none;stroke:#000000;stroke-miterlimit:10;stroke-opacity:1;paint-order:fill stroke markers"
       inkscape:connector-curvature="0"
       id="path19"
       stroke-miterlimit="10"
       d="m 1170.5,567.5 -4,4" />
    <text
       style="font-style:normal;font-weight:normal;font-size:12px;font-family:geogebra-sans-serif, sans-serif;dominant-baseline:alphabetic;text-anchor:start;fill:#000000;fill-opacity:1;stroke:none"
       id="text23"
       dominant-baseline="alphabetic"
       y="583"
       x="-223"
       text-decoration="normal"
       font-weight="normal"
       font-style="normal"
       font-size="12px">–3</text>
    <path
       style="fill:none;stroke:#000000;stroke-miterlimit:10;stroke-opacity:1;paint-order:fill stroke markers"
       inkscape:connector-curvature="0"
       id="path25"
       stroke-miterlimit="10"
       d="m -217.5,567.5 v 3" />
    <text
       style="font-style:normal;font-weight:normal;font-size:12px;font-family:geogebra-sans-serif, sans-serif;dominant-baseline:alphabetic;text-anchor:start;fill:#000000;fill-opacity:1;stroke:none"
       id="text29"
       dominant-baseline="alphabetic"
       y="583"
       x="-31"
       text-decoration="normal"
       font-weight="normal"
       font-style="normal"
       font-size="12px">–2</text>
    <path
       style="fill:none;stroke:#000000;stroke-miterlimit:10;stroke-opacity:1;paint-order:fill stroke markers"
       inkscape:connector-curvature="0"
       id="path31"
       stroke-miterlimit="10"
       d="m -25.5,567.5 v 3" />
    <text
       style="font-style:normal;font-weight:normal;font-size:12px;font-family:geogebra-sans-serif, sans-serif;dominant-baseline:alphabetic;text-anchor:start;fill:#000000;fill-opacity:1;stroke:none"
       id="text35"
       dominant-baseline="alphabetic"
       y="583"
       x="162"
       text-decoration="normal"
       font-weight="normal"
       font-style="normal"
       font-size="12px">–1</text>
    <path
       style="fill:none;stroke:#000000;stroke-miterlimit:10;stroke-opacity:1;paint-order:fill stroke markers"
       inkscape:connector-curvature="0"
       id="path37"
       stroke-miterlimit="10"
       d="m 167.5,567.5 v 3" />
    <path
       style="fill:none;stroke:#000000;stroke-miterlimit:10;stroke-opacity:1;paint-order:fill stroke markers"
       inkscape:connector-curvature="0"
       id="path39"
       stroke-miterlimit="10"
       d="m 359.5,567.5 v 3" />
    <text
       style="font-style:normal;font-weight:normal;font-size:12px;font-family:geogebra-sans-serif, sans-serif;dominant-baseline:alphabetic;text-anchor:start;fill:#000000;fill-opacity:1;stroke:none"
       id="text43"
       dominant-baseline="alphabetic"
       y="583"
       x="550"
       text-decoration="normal"
       font-weight="normal"
       font-style="normal"
       font-size="12px">1</text>
    <path
       style="fill:none;stroke:#000000;stroke-miterlimit:10;stroke-opacity:1;paint-order:fill stroke markers"
       inkscape:connector-curvature="0"
       id="path45"
       stroke-miterlimit="10"
       d="m 552.5,567.5 v 3" />
    <text
       style="font-style:normal;font-weight:normal;font-size:12px;font-family:geogebra-sans-serif, sans-serif;dominant-baseline:alphabetic;text-anchor:start;fill:#000000;fill-opacity:1;stroke:none"
       id="text49"
       dominant-baseline="alphabetic"
       y="583"
       x="742"
       text-decoration="normal"
       font-weight="normal"
       font-style="normal"
       font-size="12px">2</text>
    <path
       style="fill:none;stroke:#000000;stroke-miterlimit:10;stroke-opacity:1;paint-order:fill stroke markers"
       inkscape:connector-curvature="0"
       id="path51"
       stroke-miterlimit="10"
       d="m 744.5,567.5 v 3" />
    <text
       style="font-style:normal;font-weight:normal;font-size:12px;font-family:geogebra-sans-serif, sans-serif;dominant-baseline:alphabetic;text-anchor:start;fill:#000000;fill-opacity:1;stroke:none"
       id="text55"
       dominant-baseline="alphabetic"
       y="583"
       x="935"
       text-decoration="normal"
       font-weight="normal"
       font-style="normal"
       font-size="12px">3</text>
    <path
       style="fill:none;stroke:#000000;stroke-miterlimit:10;stroke-opacity:1;paint-order:fill stroke markers"
       inkscape:connector-curvature="0"
       id="path57"
       stroke-miterlimit="10"
       d="m 937.5,567.5 v 3" />
    <text
       style="font-style:normal;font-weight:normal;font-size:12px;font-family:geogebra-sans-serif, sans-serif;dominant-baseline:alphabetic;text-anchor:start;fill:#000000;fill-opacity:1;stroke:none"
       id="text61"
       dominant-baseline="alphabetic"
       y="583"
       x="1127"
       text-decoration="normal"
       font-weight="normal"
       font-style="normal"
       font-size="12px">4</text>
    <path
       style="fill:none;stroke:#000000;stroke-miterlimit:10;stroke-opacity:1;paint-order:fill stroke markers"
       inkscape:connector-curvature="0"
       id="path63"
       stroke-miterlimit="10"
       d="m 1129.5,567.5 v 3" />
    <path
       style="fill:none;stroke:#000000;stroke-miterlimit:10;stroke-opacity:1;paint-order:fill stroke markers"
       inkscape:connector-curvature="0"
       id="path65"
       stroke-miterlimit="10"
       d="m 356.5,855.5 h 3" />
    <path
       style="fill:none;stroke:#000000;stroke-miterlimit:10;stroke-opacity:1;paint-order:fill stroke markers"
       inkscape:connector-curvature="0"
       id="path67"
       stroke-miterlimit="10"
       d="m 356.5,759.5 h 3" />
    <path
       style="fill:none;stroke:#000000;stroke-miterlimit:10;stroke-opacity:1;paint-order:fill stroke markers"
       inkscape:connector-curvature="0"
       id="path69"
       stroke-miterlimit="10"
       d="m 356.5,663.5 h 3" />
    <path
       style="fill:none;stroke:#000000;stroke-miterlimit:10;stroke-opacity:1;paint-order:fill stroke markers"
       inkscape:connector-curvature="0"
       id="path71"
       stroke-miterlimit="10"
       d="m 356.5,470.5 h 3" />
    <path
       style="fill:none;stroke:#000000;stroke-miterlimit:10;stroke-opacity:1;paint-order:fill stroke markers"
       inkscape:connector-curvature="0"
       id="path73"
       stroke-miterlimit="10"
       d="m 356.5,374.5 h 3" />
    <path
       style="fill:none;stroke:#000000;stroke-miterlimit:10;stroke-opacity:1;paint-order:fill stroke markers"
       inkscape:connector-curvature="0"
       id="path75"
       stroke-miterlimit="10"
       d="m 356.5,278.5 h 3" />
    <path
       style="fill:none;stroke:#000000;stroke-miterlimit:10;stroke-opacity:1;paint-order:fill stroke markers"
       inkscape:connector-curvature="0"
       id="path77"
       stroke-miterlimit="10"
       d="m 356.5,182.5 h 3" />
    <path
       style="fill:none;stroke:#000000;stroke-miterlimit:10;stroke-opacity:1;paint-order:fill stroke markers"
       inkscape:connector-curvature="0"
       id="path79"
       stroke-miterlimit="10"
       d="m 356.5,85.5 h 3" />
    <path
       style="fill:none;stroke:#000000;stroke-miterlimit:10;stroke-opacity:1;paint-order:fill stroke markers"
       inkscape:connector-curvature="0"
       id="path81"
       stroke-miterlimit="10"
       d="m 356.5,-10.5 h 3" />
    <text
       style="font-style:normal;font-weight:normal;font-size:12px;font-family:geogebra-sans-serif, sans-serif;dominant-baseline:alphabetic;text-anchor:start;fill:#000000;fill-opacity:1;stroke:none"
       id="text85"
       dominant-baseline="alphabetic"
       y="860"
       x="329"
       text-decoration="normal"
       font-weight="normal"
       font-style="normal"
       font-size="12px">–1.5</text>
    <text
       style="font-style:normal;font-weight:normal;font-size:12px;font-family:geogebra-sans-serif, sans-serif;dominant-baseline:alphabetic;text-anchor:start;fill:#000000;fill-opacity:1;stroke:none"
       id="text89"
       dominant-baseline="alphabetic"
       y="764"
       x="339"
       text-decoration="normal"
       font-weight="normal"
       font-style="normal"
       font-size="12px">–1</text>
    <text
       style="font-style:normal;font-weight:normal;font-size:12px;font-family:geogebra-sans-serif, sans-serif;dominant-baseline:alphabetic;text-anchor:start;fill:#000000;fill-opacity:1;stroke:none"
       id="text93"
       dominant-baseline="alphabetic"
       y="668"
       x="329"
       text-decoration="normal"
       font-weight="normal"
       font-style="normal"
       font-size="12px">–0.5</text>
    <text
       style="font-style:normal;font-weight:normal;font-size:12px;font-family:geogebra-sans-serif, sans-serif;dominant-baseline:alphabetic;text-anchor:start;fill:#000000;fill-opacity:1;stroke:none"
       id="text97"
       dominant-baseline="alphabetic"
       y="475"
       x="336"
       text-decoration="normal"
       font-weight="normal"
       font-style="normal"
       font-size="12px">0.5</text>
    <text
       style="font-style:normal;font-weight:normal;font-size:12px;font-family:geogebra-sans-serif, sans-serif;dominant-baseline:alphabetic;text-anchor:start;fill:#000000;fill-opacity:1;stroke:none"
       id="text101"
       dominant-baseline="alphabetic"
       y="379"
       x="346"
       text-decoration="normal"
       font-weight="normal"
       font-style="normal"
       font-size="12px">1</text>
    <text
       style="font-style:normal;font-weight:normal;font-size:12px;font-family:geogebra-sans-serif, sans-serif;dominant-baseline:alphabetic;text-anchor:start;fill:#000000;fill-opacity:1;stroke:none"
       id="text105"
       dominant-baseline="alphabetic"
       y="283"
       x="336"
       text-decoration="normal"
       font-weight="normal"
       font-style="normal"
       font-size="12px">1.5</text>
    <text
       style="font-style:normal;font-weight:normal;font-size:12px;font-family:geogebra-sans-serif, sans-serif;dominant-baseline:alphabetic;text-anchor:start;fill:#000000;fill-opacity:1;stroke:none"
       id="text109"
       dominant-baseline="alphabetic"
       y="187"
       x="346"
       text-decoration="normal"
       font-weight="normal"
       font-style="normal"
       font-size="12px">2</text>
    <text
       style="font-style:normal;font-weight:normal;font-size:12px;font-family:geogebra-sans-serif, sans-serif;dominant-baseline:alphabetic;text-anchor:start;fill:#000000;fill-opacity:1;stroke:none"
       id="text113"
       dominant-baseline="alphabetic"
       y="90"
       x="336"
       text-decoration="normal"
       font-weight="normal"
       font-style="normal"
       font-size="12px">2.5</text>
    <text
       style="font-style:normal;font-weight:normal;font-size:12px;font-family:geogebra-sans-serif, sans-serif;dominant-baseline:alphabetic;text-anchor:start;fill:#000000;fill-opacity:1;stroke:none"
       id="text117"
       dominant-baseline="alphabetic"
       y="-6"
       x="346"
       text-decoration="normal"
       font-weight="normal"
       font-style="normal"
       font-size="12px">3</text>
    <text
       style="font-style:normal;font-weight:normal;font-size:12px;font-family:geogebra-sans-serif, sans-serif;dominant-baseline:alphabetic;text-anchor:start;fill:#000000;fill-opacity:1;stroke:none"
       id="text121"
       dominant-baseline="alphabetic"
       y="583"
       x="346"
       text-decoration="normal"
       font-weight="normal"
       font-style="normal"
       font-size="12px">0</text>
    <path
       style="fill:none;stroke:#6699ff;stroke-width:2.5;stroke-linecap:round;stroke-linejoin:round;stroke-miterlimit:10;stroke-opacity:0.69803922;paint-order:fill stroke markers"
       inkscape:connector-curvature="0"
       id="path123"
       stroke-miterlimit="10"
       d="m 20.64258,-30.505961 1.44336,5.075364 1.44336,5.053719 1.44336,5.032074 2.88671,9.999215 2.88672,9.912636 2.88672,9.826057 2.88672,9.739478 2.88672,9.6529 2.88672,9.566322 2.88672,9.479742 2.88672,9.393164 2.88671,9.306585 2.88672,9.220005 2.88672,9.13343 2.88672,9.04685 2.88672,8.96027 2.88672,8.87369 2.88672,8.78712 2.88672,8.70053 2.88672,8.61396 2.88671,8.52737 2.88672,8.4408 2.88672,8.35422 2.88672,8.26764 2.88672,8.18107 2.88672,8.09448 2.88672,8.00791 2.88671,7.92132 2.88672,7.83475 2.88672,7.74817 2.88672,7.66159 2.88672,7.57501 2.88672,7.48844 2.88672,7.40185 2.88672,7.31528 2.88671,7.22869 2.88672,7.14212 2.88672,7.05554 2.88672,6.96897 2.88672,6.88238 2.88672,6.7958 2.88672,6.70923 2.88672,6.62265 2.88671,6.53606 2.88672,6.44949 2.88672,6.36291 2.88672,6.27634 2.88672,6.18975 2.88672,6.10317 2.88672,6.0166 2.88672,5.93002 2.88671,5.84344 2.88672,5.75686 2.88672,5.67028 2.88672,5.5837 2.88672,5.49713 2.88672,5.41054 2.88672,5.32397 2.88672,5.23739 2.88671,5.15081 2.88672,5.06423 2.88672,4.97765 5.77344,9.69557 5.77344,9.34925 5.77343,9.00294 5.77344,8.65663 5.77344,8.31031 5.77344,7.964 5.77343,7.61768 5.77344,7.27136 5.77344,6.92505 5.77344,6.57874 5.77343,6.23242 5.77344,5.88611 5.77344,5.5398 5.77344,5.19347 5.77343,4.84717 5.77344,4.50085 5.77344,4.15453 5.77344,3.80822 5.77343,3.46191 5.77344,3.11559 5.77344,2.76928 5.77344,2.42296 5.77343,2.07664 5.77344,1.73034 5.77344,1.38401 5.77344,1.03771 5.77343,0.69139 5.77344,0.34507 5.77344,-0.001 5.77344,-0.34756 5.77343,-0.69387 5.77344,-1.04018 5.77344,-1.3865 5.77344,-1.73281 5.77343,-2.07913 5.77344,-2.42545 5.77344,-2.77175 5.77344,-3.11808 5.77343,-3.46438 5.77344,-3.81071 5.77344,-4.15701 5.77344,-4.50333 5.77343,-4.84965 5.77344,-5.19596 5.77344,-5.54227 5.77344,-5.88859 5.77344,-6.23491 5.77343,-6.58122 5.77344,-6.92753 5.77344,-7.27385 5.77344,-7.62016 5.77343,-7.96648 5.77344,-8.31279 5.77344,-8.65911 5.77343,-9.00542 5.77344,-9.35173 5.77344,-9.69805 2.88672,-4.9789 2.88672,-5.06547 2.88672,-5.15205 2.88671,-5.23863 2.88672,-5.32521 2.88672,-5.41178 2.88672,-5.49837 2.88672,-5.58494 2.88672,-5.67152 2.88672,-5.7581 2.88672,-5.84468 2.88671,-5.93126 2.88672,-6.01784 2.88672,-6.10442 2.88672,-6.19099 2.88672,-6.27757 2.88672,-6.36415 2.88672,-6.45073 2.88672,-6.53731 2.88671,-6.62389 2.88672,-6.71047 2.88672,-6.79704 2.88672,-6.88363 2.88672,-6.9702 2.88672,-7.05678 2.88672,-7.14336 2.88672,-7.22994 2.88672,-7.31651 2.88671,-7.4031 2.88672,-7.48967 2.88672,-7.57626 2.88672,-7.66283 2.88672,-7.74941 2.88672,-7.83599 2.88672,-7.92257 2.88671,-8.00914 2.88672,-8.09573 2.88672,-8.1823 2.88672,-8.26888 2.88672,-8.35546 2.88672,-8.44204 2.88672,-8.52862 2.88672,-8.6152 2.88671,-8.70177 2.88672,-8.78836 2.88672,-8.87493 2.88672,-8.96151 2.88672,-9.04809 2.88672,-9.13467 2.88672,-9.221248 2.88672,-9.307826 2.88671,-9.394404 2.88672,-9.480984 2.88672,-9.567562 2.88672,-9.654141 2.88672,-9.740719 2.88672,-9.827298 2.88672,-9.913877 1.44331,-4.989405 1.4434,-5.01105 1.4434,-5.032694 1.4433,-5.05434 1.4434,-5.075984" />
    <path
       style="fill:none;stroke:#606060;stroke-width:2.5;stroke-linejoin:round;stroke-miterlimit:10;stroke-dasharray:10.5, 8;stroke-opacity:0.69803922;paint-order:fill stroke markers"
       inkscape:connector-curvature="0"
       id="path125"
       stroke-miterlimit="10"
       d="m 56.72656,918.29393 5.77344,-5.77344 5.77344,-5.77343 5.77344,-5.77344 5.77343,-5.77344 5.77344,-5.77344 5.77344,-5.77343 5.77343,-5.77344 5.77344,-5.77344 5.77344,-5.77344 5.77344,-5.77343 5.77343,-5.77344 5.77344,-5.77344 5.77344,-5.77344 5.77344,-5.77343 5.77343,-5.77344 5.77344,-5.77344 5.77344,-5.77344 5.77344,-5.77343 5.77343,-5.77344 5.77344,-5.77344 5.77344,-5.77344 5.77344,-5.77343 5.77343,-5.77344 5.77344,-5.77344 5.77344,-5.77344 5.77344,-5.77343 5.77343,-5.77344 5.77344,-5.77344 5.77344,-5.77344 5.77344,-5.77343 5.77343,-5.77344 5.77344,-5.77344 5.77344,-5.77344 5.77344,-5.77343 5.77343,-5.77344 5.77344,-5.77344 5.77344,-5.77344 5.77344,-5.77343 5.77343,-5.77344 5.77344,-5.77344 5.77344,-5.77344 5.77344,-5.77343 5.77343,-5.77344 5.77344,-5.77344 5.77344,-5.77344 5.77344,-5.77343 5.77343,-5.77344 5.77344,-5.77344 5.77344,-5.77344 5.77344,-5.77343 5.77343,-5.77344 5.77344,-5.77344 5.77344,-5.77344 5.77344,-5.77343 5.77343,-5.77344 5.77344,-5.77344 5.77344,-5.77344 5.77344,-5.77343 5.77343,-5.77344 5.77344,-5.77344 5.77344,-5.77344 5.77344,-5.77343 5.77343,-5.77344 5.77344,-5.77344 5.77344,-5.77344 5.77344,-5.77343 5.77343,-5.77344 5.77344,-5.77344 5.77344,-5.77344 5.77344,-5.77343 5.77344,-5.77344 5.77343,-5.77344 5.77344,-5.77344 5.77344,-5.77343 5.77344,-5.77344 5.77343,-5.77344 5.77344,-5.77344 5.77344,-5.77343 5.77343,-5.77344 5.77344,-5.77344 5.77344,-5.77344 5.77344,-5.77343 5.77343,-5.77344 5.77344,-5.77344 5.77344,-5.77344 5.77344,-5.77343 5.77343,-5.77344 5.77344,-5.77344 5.77344,-5.77344 5.77344,-5.77343 5.77343,-5.77344 5.77344,-5.77344 5.77344,-5.77344 5.77344,-5.77343 5.77344,-5.77344 5.77343,-5.77344 5.77344,-5.77344 5.77344,-5.77343 5.77343,-5.77344 5.77344,-5.77344 5.77344,-5.77344 5.77344,-5.77343 5.77343,-5.77344 5.77344,-5.77344 5.77344,-5.77344 5.77344,-5.77343 5.77343,-5.77344 5.77344,-5.77344 5.77344,-5.77344 5.77344,-5.77343 5.77341,-5.77344 5.7735,-5.77344 5.7734,-5.77344 5.7734,-5.77343 5.7735,-5.77344 5.7734,-5.77344 5.7735,-5.77344 5.7734,-5.77343 5.7734,-5.77344 5.7735,-5.77344 5.7734,-5.77344 5.7734,-5.77343 5.7735,-5.77344 5.7734,-5.77344 5.7735,-5.77344 5.7734,-5.77343 5.7734,-5.77344 5.7735,-5.77344 5.7734,-5.77344 5.7734,-5.77343 5.7735,-5.77344 5.7734,-5.77344 5.7735,-5.77344 5.7734,-5.77343 5.7734,-5.77344 5.7735,-5.77344 5.7734,-5.77344 5.7734,-5.77343 5.7735,-5.77344 5.7734,-5.77344 5.7735,-5.77344 5.7734,-5.77343 5.7734,-5.77344 5.7735,-5.77344 5.7734,-5.77344 5.7734,-5.773433 5.7735,-5.773438 5.7734,-5.773437 5.7735,-5.773438 5.7734,-5.773437 5.7734,-5.773438 5.7735,-5.773437 5.7734,-5.773438 5.7734,-5.773437 5.7735,-5.773438 5.7734,-5.773437 5.7735,-5.773438 5.7734,-5.773437 5.7734,-5.773438 5.7735,-5.773437 5.7734,-5.773438 5.7734,-5.773437 5.7735,-5.773438 5.7734,-5.773437 5.7735,-5.773438" />
    <path
       style="fill:none;stroke:#00ff00;stroke-width:2.5;stroke-linecap:round;stroke-linejoin:round;stroke-miterlimit:10;stroke-opacity:0.69803922;paint-order:fill stroke markers"
       inkscape:connector-curvature="0"
       id="path127"
       stroke-miterlimit="10"
       d="m 62.5,916.4561 5.77344,-5.83117 5.77344,-5.83117 5.77343,-5.83117 5.77344,-5.83118 5.77344,-5.83117 5.77343,-5.83117 5.77344,-5.83117 5.77344,-5.83117 5.77344,-5.83118 5.77343,-5.83117 5.77344,-5.83117 5.77344,-5.83117 5.77344,-5.83117 5.77343,-5.83117 5.77344,-5.83118 5.77344,-5.83117 5.77344,-5.83117 5.77343,-5.83117 5.77344,-5.83117 5.77344,-5.83118 5.77344,-5.83117 5.77343,-5.83117 5.77344,-5.83117 5.77344,-5.83117 5.77344,-5.83118 5.77343,-5.83117 5.77344,-5.83117 5.77344,-5.83117 5.77344,-5.83117 5.77343,-5.83117 5.77344,-5.83118 5.77344,-5.83117 5.77344,-5.83117 5.77343,-5.83117 5.77344,-5.83117 5.77344,-5.83118 5.77344,-5.83117 5.77343,-5.83117 5.77344,-5.83117 5.77344,-5.83117 5.77344,-5.83118 5.77343,-5.83117 5.77344,-5.83117 5.77344,-5.83117 5.77344,-5.83117 5.77343,-5.83117 5.77344,-5.83118 5.77344,-5.83117 5.77344,-5.83117 5.77343,-5.83117 5.77344,-5.83117 5.77344,-5.83118 5.77344,-5.83117 5.77343,-5.83117 5.77344,-5.83117 5.77344,-5.83117 5.77344,-5.83118 5.77343,-5.83117 5.77344,-5.83117 5.77344,-5.83117 5.77344,-5.83117 5.77343,-5.83117 5.77344,-5.83118 5.77344,-5.83117 5.77344,-5.83117 5.77343,-5.83117 5.77344,-5.83117 5.77344,-5.83118 5.77344,-5.83117 5.77344,-5.83117 5.77343,-5.83117 5.77344,-5.83117 5.77344,-5.83118 5.77344,-5.83117 5.77343,-5.83117 5.77344,-5.83117 5.77344,-5.83117 5.77343,-5.83117 5.77344,-5.83118 5.77344,-5.83117 5.77344,-5.83117 5.77343,-5.83117 5.77344,-5.83117 5.77344,-5.83118 5.77344,-5.83117 5.77343,-5.83117 5.77344,-5.83117 5.77344,-5.83117 5.77344,-5.83118 5.77343,-5.83117 5.77344,-5.83117 5.77344,-5.83117 5.77344,-5.83117 5.77344,-5.83117 5.77343,-5.83118 5.77344,-5.83117 5.77344,-5.83117 5.77343,-5.83117 5.77344,-5.83117 5.77344,-5.83118 5.77344,-5.83117 5.77343,-5.83117 5.77344,-5.83117 5.77344,-5.83117 5.77344,-5.83118 5.77343,-5.83117 5.77344,-5.83117 5.77344,-5.83117 5.77344,-5.83117 5.77341,-5.83117 5.7735,-5.83118 5.7734,-5.83117 5.7734,-5.83117 5.7735,-5.83117 5.7734,-5.83117 5.7735,-5.83118 5.7734,-5.83117 5.7734,-5.83117 5.7735,-5.83117 5.7734,-5.83117 5.7734,-5.83118 5.7735,-5.83117 5.7734,-5.83117 5.7735,-5.83117 5.7734,-5.83117 5.7734,-5.83117 5.7735,-5.83118 5.7734,-5.83117 5.7734,-5.83117 5.7735,-5.83117 5.7734,-5.83117 5.7735,-5.83118 5.7734,-5.83117 5.7734,-5.83117 5.7735,-5.83117 5.7734,-5.83117 5.7734,-5.83118 5.7735,-5.83117 5.7734,-5.83117 5.7735,-5.83117 5.7734,-5.83117 5.7734,-5.83117 5.7735,-5.83118 5.7734,-5.83117 5.7734,-5.83117 5.7735,-5.831172 5.7734,-5.831172 5.7735,-5.831172 5.7734,-5.831172 5.7734,-5.831171 5.7735,-5.831172 5.7734,-5.831172 5.7734,-5.831172 5.7735,-5.831172 5.7734,-5.831172 5.7735,-5.831172 5.7734,-5.831172 5.7734,-5.831171 5.7735,-5.831172 5.7734,-5.831172 5.7734,-5.831172 5.7735,-5.831172 5.7734,-5.831172" />
    <path
       style="fill:#444444;fill-opacity:1;stroke:none;paint-order:stroke fill markers"
       inkscape:connector-curvature="0"
       id="path129"
       d="m 461.98575,517.01549 c 0,2.20914 -1.79086,4 -4,4 -2.20914,0 -4,-1.79086 -4,-4 0,-2.20913 1.79086,-4 4,-4 2.20914,0 4,1.79087 4,4 z" />
    <path
       style="fill:none;stroke:#000000;stroke-linecap:round;stroke-linejoin:round;stroke-miterlimit:10;stroke-opacity:1;paint-order:fill stroke markers"
       inkscape:connector-curvature="0"
       id="path131"
       stroke-miterlimit="10"
       d="m 461.98575,517.01549 c 0,2.20914 -1.79086,4 -4,4 -2.20914,0 -4,-1.79086 -4,-4 0,-2.20913 1.79086,-4 4,-4 2.20914,0 4,1.79087 4,4 z" />
    <path
       style="fill:#444444;fill-opacity:1;stroke:none;paint-order:stroke fill markers"
       inkscape:connector-curvature="0"
       id="path133"
       d="m 460.06076,518.95973 c 0,2.20914 -1.79086,4 -4,4 -2.20914,0 -4,-1.79086 -4,-4 0,-2.20914 1.79086,-4 4,-4 2.20914,0 4,1.79086 4,4 z" />
    <path
       style="fill:none;stroke:#000000;stroke-linecap:round;stroke-linejoin:round;stroke-miterlimit:10;stroke-opacity:1;paint-order:fill stroke markers"
       inkscape:connector-curvature="0"
       id="path135"
       stroke-miterlimit="10"
       d="m 460.06076,518.95973 c 0,2.20914 -1.79086,4 -4,4 -2.20914,0 -4,-1.79086 -4,-4 0,-2.20914 1.79086,-4 4,-4 2.20914,0 4,1.79086 4,4 z" />
    <text
       style="font-style:normal;font-weight:normal;font-size:26.66666603px;font-family:geogebra-sans-serif, sans-serif;dominant-baseline:alphabetic;text-anchor:start;fill:#000000;fill-opacity:1;stroke:none"
       id="text137"
       dominant-baseline="alphabetic"
       y="511.42371"
       x="433.41525"
       text-decoration="normal"
       font-weight="normal"
       font-style="normal"
       font-size="16px">P</text>
    <text
       style="font-style:normal;font-weight:normal;font-size:26.66666603px;font-family:geogebra-sans-serif, sans-serif;dominant-baseline:alphabetic;text-anchor:start;fill:#000000;fill-opacity:1;stroke:none"
       id="text139"
       dominant-baseline="alphabetic"
       y="505.23727"
       x="437.26273"
       text-decoration="normal"
       font-weight="normal"
       font-style="normal"
       font-size="16px">Q</text>
  </g>
</svg>
