<?xml version="1.0" encoding="UTF-8" standalone="no"?>
<svg
   xmlns:dc="http://purl.org/dc/elements/1.1/"
   xmlns:cc="http://creativecommons.org/ns#"
   xmlns:rdf="http://www.w3.org/1999/02/22-rdf-syntax-ns#"
   xmlns:svg="http://www.w3.org/2000/svg"
   xmlns="http://www.w3.org/2000/svg"
   xmlns:sodipodi="http://sodipodi.sourceforge.net/DTD/sodipodi-0.dtd"
   xmlns:inkscape="http://www.inkscape.org/namespaces/inkscape"
   version="1.1"
   width="690"
   height="690"
   id="svg145"
   sodipodi:docname="tangent-lines-1 (1).svg"
   inkscape:version="0.92.3 (2405546, 2018-03-11)">
  <metadata
     id="metadata149">
    <rdf:RDF>
      <cc:Work
         rdf:about="">
        <dc:format>image/svg+xml</dc:format>
        <dc:type
           rdf:resource="http://purl.org/dc/dcmitype/StillImage" />
        <dc:title></dc:title>
      </cc:Work>
    </rdf:RDF>
  </metadata>
  <sodipodi:namedview
     pagecolor="#ffffff"
     bordercolor="#666666"
     borderopacity="1"
     objecttolerance="10"
     gridtolerance="10"
     guidetolerance="10"
     inkscape:pageopacity="0"
     inkscape:pageshadow="2"
     inkscape:window-width="1920"
     inkscape:window-height="1057"
     id="namedview147"
     showgrid="false"
     inkscape:zoom="0.33956835"
     inkscape:cx="347"
     inkscape:cy="347.5"
     inkscape:window-x="1912"
     inkscape:window-y="-8"
     inkscape:window-maximized="1"
     inkscape:current-layer="svg145" />
  <defs
     id="defs5">
    <clipPath
       id="prwJaTMGfxIF">
      <path
         d="M 0,0 H 694 V 695 H 0 Z"
         id="path2"
         inkscape:connector-curvature="0"
         style="fill:none;stroke:none" />
    </clipPath>
    <clipPath
       clipPathUnits="userSpaceOnUse"
       id="clipPath958">
      <rect
         style="fill:#000000;fill-opacity:0.25125631;stroke:#000000;stroke-width:0;stroke-miterlimit:4;stroke-dasharray:none;stroke-dashoffset:0;stroke-opacity:1"
         id="rect960"
         width="690"
         height="690"
         x="2.8421709e-014"
         y="5" />
    </clipPath>
  </defs>
  <g
     clip-path="url(#clipPath958)"
     id="g143"
     transform="translate(0,-5)">
    <g
       transform="translate(-307,-18)"
       id="g141">
      <rect
         x="0"
         y="0"
         width="1478"
         height="932"
         id="rect7"
         style="fill:#ffffff;fill-opacity:1;stroke:none" />
      <path
         d="m 666.5,2.5 v 930"
         stroke-miterlimit="10"
         id="path9"
         inkscape:connector-curvature="0"
         style="fill:none;stroke:#000000;stroke-miterlimit:10;stroke-opacity:1;paint-order:fill stroke markers" />
      <path
         d="m 666.5,1.5 -4,4"
         stroke-miterlimit="10"
         id="path11"
         inkscape:connector-curvature="0"
         style="fill:none;stroke:#000000;stroke-miterlimit:10;stroke-opacity:1;paint-order:fill stroke markers" />
      <path
         d="m 666.5,1.5 4,4"
         stroke-miterlimit="10"
         id="path13"
         inkscape:connector-curvature="0"
         style="fill:none;stroke:#000000;stroke-miterlimit:10;stroke-opacity:1;paint-order:fill stroke markers" />
      <path
         d="m 0.5,591.5 h 1476"
         stroke-miterlimit="10"
         id="path15"
         inkscape:connector-curvature="0"
         style="fill:none;stroke:#000000;stroke-miterlimit:10;stroke-opacity:1;paint-order:fill stroke markers" />
      <path
         d="m 1477.5,591.5 -4,-4"
         stroke-miterlimit="10"
         id="path17"
         inkscape:connector-curvature="0"
         style="fill:none;stroke:#000000;stroke-miterlimit:10;stroke-opacity:1;paint-order:fill stroke markers" />
      <path
         d="m 1477.5,591.5 -4,4"
         stroke-miterlimit="10"
         id="path19"
         inkscape:connector-curvature="0"
         style="fill:none;stroke:#000000;stroke-miterlimit:10;stroke-opacity:1;paint-order:fill stroke markers" />
      <text
         font-size="12px"
         font-style="normal"
         font-weight="normal"
         text-decoration="normal"
         x="84"
         y="607"
         dominant-baseline="alphabetic"
         stroke-miterlimit="10"
         id="text21"
         style="font-style:normal;font-weight:normal;font-size:12px;font-family:geogebra-sans-serif, sans-serif;dominant-baseline:alphabetic;text-anchor:start;fill:none;stroke:#ffffff;stroke-width:3;stroke-linejoin:bevel;stroke-miterlimit:10;stroke-opacity:1">–3</text>
      <text
         font-size="12px"
         font-style="normal"
         font-weight="normal"
         text-decoration="normal"
         x="84"
         y="607"
         dominant-baseline="alphabetic"
         id="text23"
         style="font-style:normal;font-weight:normal;font-size:12px;font-family:geogebra-sans-serif, sans-serif;dominant-baseline:alphabetic;text-anchor:start;fill:#000000;fill-opacity:1;stroke:none">–3</text>
      <path
         d="m 89.5,591.5 v 3"
         stroke-miterlimit="10"
         id="path25"
         inkscape:connector-curvature="0"
         style="fill:none;stroke:#000000;stroke-miterlimit:10;stroke-opacity:1;paint-order:fill stroke markers" />
      <text
         font-size="12px"
         font-style="normal"
         font-weight="normal"
         text-decoration="normal"
         x="276"
         y="607"
         dominant-baseline="alphabetic"
         stroke-miterlimit="10"
         id="text27"
         style="font-style:normal;font-weight:normal;font-size:12px;font-family:geogebra-sans-serif, sans-serif;dominant-baseline:alphabetic;text-anchor:start;fill:none;stroke:#ffffff;stroke-width:3;stroke-linejoin:bevel;stroke-miterlimit:10;stroke-opacity:1">–2</text>
      <text
         font-size="12px"
         font-style="normal"
         font-weight="normal"
         text-decoration="normal"
         x="276"
         y="607"
         dominant-baseline="alphabetic"
         id="text29"
         style="font-style:normal;font-weight:normal;font-size:12px;font-family:geogebra-sans-serif, sans-serif;dominant-baseline:alphabetic;text-anchor:start;fill:#000000;fill-opacity:1;stroke:none">–2</text>
      <path
         d="m 281.5,591.5 v 3"
         stroke-miterlimit="10"
         id="path31"
         inkscape:connector-curvature="0"
         style="fill:none;stroke:#000000;stroke-miterlimit:10;stroke-opacity:1;paint-order:fill stroke markers" />
      <text
         font-size="12px"
         font-style="normal"
         font-weight="normal"
         text-decoration="normal"
         x="469"
         y="607"
         dominant-baseline="alphabetic"
         stroke-miterlimit="10"
         id="text33"
         style="font-style:normal;font-weight:normal;font-size:12px;font-family:geogebra-sans-serif, sans-serif;dominant-baseline:alphabetic;text-anchor:start;fill:none;stroke:#ffffff;stroke-width:3;stroke-linejoin:bevel;stroke-miterlimit:10;stroke-opacity:1">–1</text>
      <text
         font-size="12px"
         font-style="normal"
         font-weight="normal"
         text-decoration="normal"
         x="469"
         y="607"
         dominant-baseline="alphabetic"
         id="text35"
         style="font-style:normal;font-weight:normal;font-size:12px;font-family:geogebra-sans-serif, sans-serif;dominant-baseline:alphabetic;text-anchor:start;fill:#000000;fill-opacity:1;stroke:none">–1</text>
      <path
         d="m 474.5,591.5 v 3"
         stroke-miterlimit="10"
         id="path37"
         inkscape:connector-curvature="0"
         style="fill:none;stroke:#000000;stroke-miterlimit:10;stroke-opacity:1;paint-order:fill stroke markers" />
      <path
         d="m 666.5,591.5 v 3"
         stroke-miterlimit="10"
         id="path39"
         inkscape:connector-curvature="0"
         style="fill:none;stroke:#000000;stroke-miterlimit:10;stroke-opacity:1;paint-order:fill stroke markers" />
      <text
         font-size="12px"
         font-style="normal"
         font-weight="normal"
         text-decoration="normal"
         x="857"
         y="607"
         dominant-baseline="alphabetic"
         stroke-miterlimit="10"
         id="text41"
         style="font-style:normal;font-weight:normal;font-size:12px;font-family:geogebra-sans-serif, sans-serif;dominant-baseline:alphabetic;text-anchor:start;fill:none;stroke:#ffffff;stroke-width:3;stroke-linejoin:bevel;stroke-miterlimit:10;stroke-opacity:1">1</text>
      <text
         font-size="12px"
         font-style="normal"
         font-weight="normal"
         text-decoration="normal"
         x="857"
         y="607"
         dominant-baseline="alphabetic"
         id="text43"
         style="font-style:normal;font-weight:normal;font-size:12px;font-family:geogebra-sans-serif, sans-serif;dominant-baseline:alphabetic;text-anchor:start;fill:#000000;fill-opacity:1;stroke:none">1</text>
      <path
         d="m 859.5,591.5 v 3"
         stroke-miterlimit="10"
         id="path45"
         inkscape:connector-curvature="0"
         style="fill:none;stroke:#000000;stroke-miterlimit:10;stroke-opacity:1;paint-order:fill stroke markers" />
      <text
         font-size="12px"
         font-style="normal"
         font-weight="normal"
         text-decoration="normal"
         x="1049"
         y="607"
         dominant-baseline="alphabetic"
         stroke-miterlimit="10"
         id="text47"
         style="font-style:normal;font-weight:normal;font-size:12px;font-family:geogebra-sans-serif, sans-serif;dominant-baseline:alphabetic;text-anchor:start;fill:none;stroke:#ffffff;stroke-width:3;stroke-linejoin:bevel;stroke-miterlimit:10;stroke-opacity:1">2</text>
      <text
         font-size="12px"
         font-style="normal"
         font-weight="normal"
         text-decoration="normal"
         x="1049"
         y="607"
         dominant-baseline="alphabetic"
         id="text49"
         style="font-style:normal;font-weight:normal;font-size:12px;font-family:geogebra-sans-serif, sans-serif;dominant-baseline:alphabetic;text-anchor:start;fill:#000000;fill-opacity:1;stroke:none">2</text>
      <path
         d="m 1051.5,591.5 v 3"
         stroke-miterlimit="10"
         id="path51"
         inkscape:connector-curvature="0"
         style="fill:none;stroke:#000000;stroke-miterlimit:10;stroke-opacity:1;paint-order:fill stroke markers" />
      <text
         font-size="12px"
         font-style="normal"
         font-weight="normal"
         text-decoration="normal"
         x="1242"
         y="607"
         dominant-baseline="alphabetic"
         stroke-miterlimit="10"
         id="text53"
         style="font-style:normal;font-weight:normal;font-size:12px;font-family:geogebra-sans-serif, sans-serif;dominant-baseline:alphabetic;text-anchor:start;fill:none;stroke:#ffffff;stroke-width:3;stroke-linejoin:bevel;stroke-miterlimit:10;stroke-opacity:1">3</text>
      <text
         font-size="12px"
         font-style="normal"
         font-weight="normal"
         text-decoration="normal"
         x="1242"
         y="607"
         dominant-baseline="alphabetic"
         id="text55"
         style="font-style:normal;font-weight:normal;font-size:12px;font-family:geogebra-sans-serif, sans-serif;dominant-baseline:alphabetic;text-anchor:start;fill:#000000;fill-opacity:1;stroke:none">3</text>
      <path
         d="m 1244.5,591.5 v 3"
         stroke-miterlimit="10"
         id="path57"
         inkscape:connector-curvature="0"
         style="fill:none;stroke:#000000;stroke-miterlimit:10;stroke-opacity:1;paint-order:fill stroke markers" />
      <text
         font-size="12px"
         font-style="normal"
         font-weight="normal"
         text-decoration="normal"
         x="1434"
         y="607"
         dominant-baseline="alphabetic"
         stroke-miterlimit="10"
         id="text59"
         style="font-style:normal;font-weight:normal;font-size:12px;font-family:geogebra-sans-serif, sans-serif;dominant-baseline:alphabetic;text-anchor:start;fill:none;stroke:#ffffff;stroke-width:3;stroke-linejoin:bevel;stroke-miterlimit:10;stroke-opacity:1">4</text>
      <text
         font-size="12px"
         font-style="normal"
         font-weight="normal"
         text-decoration="normal"
         x="1434"
         y="607"
         dominant-baseline="alphabetic"
         id="text61"
         style="font-style:normal;font-weight:normal;font-size:12px;font-family:geogebra-sans-serif, sans-serif;dominant-baseline:alphabetic;text-anchor:start;fill:#000000;fill-opacity:1;stroke:none">4</text>
      <path
         d="m 1436.5,591.5 v 3"
         stroke-miterlimit="10"
         id="path63"
         inkscape:connector-curvature="0"
         style="fill:none;stroke:#000000;stroke-miterlimit:10;stroke-opacity:1;paint-order:fill stroke markers" />
      <path
         d="m 663.5,879.5 h 3"
         stroke-miterlimit="10"
         id="path65"
         inkscape:connector-curvature="0"
         style="fill:none;stroke:#000000;stroke-miterlimit:10;stroke-opacity:1;paint-order:fill stroke markers" />
      <path
         d="m 663.5,783.5 h 3"
         stroke-miterlimit="10"
         id="path67"
         inkscape:connector-curvature="0"
         style="fill:none;stroke:#000000;stroke-miterlimit:10;stroke-opacity:1;paint-order:fill stroke markers" />
      <path
         d="m 663.5,687.5 h 3"
         stroke-miterlimit="10"
         id="path69"
         inkscape:connector-curvature="0"
         style="fill:none;stroke:#000000;stroke-miterlimit:10;stroke-opacity:1;paint-order:fill stroke markers" />
      <path
         d="m 663.5,494.5 h 3"
         stroke-miterlimit="10"
         id="path71"
         inkscape:connector-curvature="0"
         style="fill:none;stroke:#000000;stroke-miterlimit:10;stroke-opacity:1;paint-order:fill stroke markers" />
      <path
         d="m 663.5,398.5 h 3"
         stroke-miterlimit="10"
         id="path73"
         inkscape:connector-curvature="0"
         style="fill:none;stroke:#000000;stroke-miterlimit:10;stroke-opacity:1;paint-order:fill stroke markers" />
      <path
         d="m 663.5,302.5 h 3"
         stroke-miterlimit="10"
         id="path75"
         inkscape:connector-curvature="0"
         style="fill:none;stroke:#000000;stroke-miterlimit:10;stroke-opacity:1;paint-order:fill stroke markers" />
      <path
         d="m 663.5,206.5 h 3"
         stroke-miterlimit="10"
         id="path77"
         inkscape:connector-curvature="0"
         style="fill:none;stroke:#000000;stroke-miterlimit:10;stroke-opacity:1;paint-order:fill stroke markers" />
      <path
         d="m 663.5,109.5 h 3"
         stroke-miterlimit="10"
         id="path79"
         inkscape:connector-curvature="0"
         style="fill:none;stroke:#000000;stroke-miterlimit:10;stroke-opacity:1;paint-order:fill stroke markers" />
      <path
         d="m 663.5,13.5 h 3"
         stroke-miterlimit="10"
         id="path81"
         inkscape:connector-curvature="0"
         style="fill:none;stroke:#000000;stroke-miterlimit:10;stroke-opacity:1;paint-order:fill stroke markers" />
      <text
         font-size="12px"
         font-style="normal"
         font-weight="normal"
         text-decoration="normal"
         x="636"
         y="884"
         dominant-baseline="alphabetic"
         stroke-miterlimit="10"
         id="text83"
         style="font-style:normal;font-weight:normal;font-size:12px;font-family:geogebra-sans-serif, sans-serif;dominant-baseline:alphabetic;text-anchor:start;fill:none;stroke:#ffffff;stroke-width:3;stroke-linejoin:bevel;stroke-miterlimit:10;stroke-opacity:1">–1.5</text>
      <text
         font-size="12px"
         font-style="normal"
         font-weight="normal"
         text-decoration="normal"
         x="636"
         y="884"
         dominant-baseline="alphabetic"
         id="text85"
         style="font-style:normal;font-weight:normal;font-size:12px;font-family:geogebra-sans-serif, sans-serif;dominant-baseline:alphabetic;text-anchor:start;fill:#000000;fill-opacity:1;stroke:none">–1.5</text>
      <text
         font-size="12px"
         font-style="normal"
         font-weight="normal"
         text-decoration="normal"
         x="646"
         y="788"
         dominant-baseline="alphabetic"
         stroke-miterlimit="10"
         id="text87"
         style="font-style:normal;font-weight:normal;font-size:12px;font-family:geogebra-sans-serif, sans-serif;dominant-baseline:alphabetic;text-anchor:start;fill:none;stroke:#ffffff;stroke-width:3;stroke-linejoin:bevel;stroke-miterlimit:10;stroke-opacity:1">–1</text>
      <text
         font-size="12px"
         font-style="normal"
         font-weight="normal"
         text-decoration="normal"
         x="646"
         y="788"
         dominant-baseline="alphabetic"
         id="text89"
         style="font-style:normal;font-weight:normal;font-size:12px;font-family:geogebra-sans-serif, sans-serif;dominant-baseline:alphabetic;text-anchor:start;fill:#000000;fill-opacity:1;stroke:none">–1</text>
      <text
         font-size="12px"
         font-style="normal"
         font-weight="normal"
         text-decoration="normal"
         x="636"
         y="692"
         dominant-baseline="alphabetic"
         stroke-miterlimit="10"
         id="text91"
         style="font-style:normal;font-weight:normal;font-size:12px;font-family:geogebra-sans-serif, sans-serif;dominant-baseline:alphabetic;text-anchor:start;fill:none;stroke:#ffffff;stroke-width:3;stroke-linejoin:bevel;stroke-miterlimit:10;stroke-opacity:1">–0.5</text>
      <text
         font-size="12px"
         font-style="normal"
         font-weight="normal"
         text-decoration="normal"
         x="636"
         y="692"
         dominant-baseline="alphabetic"
         id="text93"
         style="font-style:normal;font-weight:normal;font-size:12px;font-family:geogebra-sans-serif, sans-serif;dominant-baseline:alphabetic;text-anchor:start;fill:#000000;fill-opacity:1;stroke:none">–0.5</text>
      <text
         font-size="12px"
         font-style="normal"
         font-weight="normal"
         text-decoration="normal"
         x="643"
         y="499"
         dominant-baseline="alphabetic"
         stroke-miterlimit="10"
         id="text95"
         style="font-style:normal;font-weight:normal;font-size:12px;font-family:geogebra-sans-serif, sans-serif;dominant-baseline:alphabetic;text-anchor:start;fill:none;stroke:#ffffff;stroke-width:3;stroke-linejoin:bevel;stroke-miterlimit:10;stroke-opacity:1">0.5</text>
      <text
         font-size="12px"
         font-style="normal"
         font-weight="normal"
         text-decoration="normal"
         x="643"
         y="499"
         dominant-baseline="alphabetic"
         id="text97"
         style="font-style:normal;font-weight:normal;font-size:12px;font-family:geogebra-sans-serif, sans-serif;dominant-baseline:alphabetic;text-anchor:start;fill:#000000;fill-opacity:1;stroke:none">0.5</text>
      <text
         font-size="12px"
         font-style="normal"
         font-weight="normal"
         text-decoration="normal"
         x="653"
         y="403"
         dominant-baseline="alphabetic"
         stroke-miterlimit="10"
         id="text99"
         style="font-style:normal;font-weight:normal;font-size:12px;font-family:geogebra-sans-serif, sans-serif;dominant-baseline:alphabetic;text-anchor:start;fill:none;stroke:#ffffff;stroke-width:3;stroke-linejoin:bevel;stroke-miterlimit:10;stroke-opacity:1">1</text>
      <text
         font-size="12px"
         font-style="normal"
         font-weight="normal"
         text-decoration="normal"
         x="653"
         y="403"
         dominant-baseline="alphabetic"
         id="text101"
         style="font-style:normal;font-weight:normal;font-size:12px;font-family:geogebra-sans-serif, sans-serif;dominant-baseline:alphabetic;text-anchor:start;fill:#000000;fill-opacity:1;stroke:none">1</text>
      <text
         font-size="12px"
         font-style="normal"
         font-weight="normal"
         text-decoration="normal"
         x="643"
         y="307"
         dominant-baseline="alphabetic"
         stroke-miterlimit="10"
         id="text103"
         style="font-style:normal;font-weight:normal;font-size:12px;font-family:geogebra-sans-serif, sans-serif;dominant-baseline:alphabetic;text-anchor:start;fill:none;stroke:#ffffff;stroke-width:3;stroke-linejoin:bevel;stroke-miterlimit:10;stroke-opacity:1">1.5</text>
      <text
         font-size="12px"
         font-style="normal"
         font-weight="normal"
         text-decoration="normal"
         x="643"
         y="307"
         dominant-baseline="alphabetic"
         id="text105"
         style="font-style:normal;font-weight:normal;font-size:12px;font-family:geogebra-sans-serif, sans-serif;dominant-baseline:alphabetic;text-anchor:start;fill:#000000;fill-opacity:1;stroke:none">1.5</text>
      <text
         font-size="12px"
         font-style="normal"
         font-weight="normal"
         text-decoration="normal"
         x="653"
         y="211"
         dominant-baseline="alphabetic"
         stroke-miterlimit="10"
         id="text107"
         style="font-style:normal;font-weight:normal;font-size:12px;font-family:geogebra-sans-serif, sans-serif;dominant-baseline:alphabetic;text-anchor:start;fill:none;stroke:#ffffff;stroke-width:3;stroke-linejoin:bevel;stroke-miterlimit:10;stroke-opacity:1">2</text>
      <text
         font-size="12px"
         font-style="normal"
         font-weight="normal"
         text-decoration="normal"
         x="653"
         y="211"
         dominant-baseline="alphabetic"
         id="text109"
         style="font-style:normal;font-weight:normal;font-size:12px;font-family:geogebra-sans-serif, sans-serif;dominant-baseline:alphabetic;text-anchor:start;fill:#000000;fill-opacity:1;stroke:none">2</text>
      <text
         font-size="12px"
         font-style="normal"
         font-weight="normal"
         text-decoration="normal"
         x="643"
         y="114"
         dominant-baseline="alphabetic"
         stroke-miterlimit="10"
         id="text111"
         style="font-style:normal;font-weight:normal;font-size:12px;font-family:geogebra-sans-serif, sans-serif;dominant-baseline:alphabetic;text-anchor:start;fill:none;stroke:#ffffff;stroke-width:3;stroke-linejoin:bevel;stroke-miterlimit:10;stroke-opacity:1">2.5</text>
      <text
         font-size="12px"
         font-style="normal"
         font-weight="normal"
         text-decoration="normal"
         x="643"
         y="114"
         dominant-baseline="alphabetic"
         id="text113"
         style="font-style:normal;font-weight:normal;font-size:12px;font-family:geogebra-sans-serif, sans-serif;dominant-baseline:alphabetic;text-anchor:start;fill:#000000;fill-opacity:1;stroke:none">2.5</text>
      <text
         font-size="12px"
         font-style="normal"
         font-weight="normal"
         text-decoration="normal"
         x="653"
         y="18"
         dominant-baseline="alphabetic"
         stroke-miterlimit="10"
         id="text115"
         style="font-style:normal;font-weight:normal;font-size:12px;font-family:geogebra-sans-serif, sans-serif;dominant-baseline:alphabetic;text-anchor:start;fill:none;stroke:#ffffff;stroke-width:3;stroke-linejoin:bevel;stroke-miterlimit:10;stroke-opacity:1">3</text>
      <text
         font-size="12px"
         font-style="normal"
         font-weight="normal"
         text-decoration="normal"
         x="653"
         y="18"
         dominant-baseline="alphabetic"
         id="text117"
         style="font-style:normal;font-weight:normal;font-size:12px;font-family:geogebra-sans-serif, sans-serif;dominant-baseline:alphabetic;text-anchor:start;fill:#000000;fill-opacity:1;stroke:none">3</text>
      <text
         font-size="12px"
         font-style="normal"
         font-weight="normal"
         text-decoration="normal"
         x="653"
         y="607"
         dominant-baseline="alphabetic"
         stroke-miterlimit="10"
         id="text119"
         style="font-style:normal;font-weight:normal;font-size:12px;font-family:geogebra-sans-serif, sans-serif;dominant-baseline:alphabetic;text-anchor:start;fill:none;stroke:#ffffff;stroke-width:3;stroke-linejoin:bevel;stroke-miterlimit:10;stroke-opacity:1">0</text>
      <text
         font-size="12px"
         font-style="normal"
         font-weight="normal"
         text-decoration="normal"
         x="653"
         y="607"
         dominant-baseline="alphabetic"
         id="text121"
         style="font-style:normal;font-weight:normal;font-size:12px;font-family:geogebra-sans-serif, sans-serif;dominant-baseline:alphabetic;text-anchor:start;fill:#000000;fill-opacity:1;stroke:none">0</text>
      <path
         d="m 327.64258,-6.5059607 1.44336,5.0753636 1.44336,5.0537189 1.44336,5.0320743 2.88671,9.9992149 2.88672,9.912636 2.88672,9.826057 2.88672,9.739478 2.88672,9.6529 2.88672,9.566322 2.88672,9.479742 2.88672,9.393164 2.88671,9.306585 2.88672,9.220005 2.88672,9.13343 2.88672,9.04685 2.88672,8.96027 2.88672,8.87369 2.88672,8.78712 2.88672,8.70053 2.88672,8.61396 2.88671,8.52737 2.88672,8.4408 2.88672,8.35422 2.88672,8.26764 2.88672,8.18107 2.88672,8.09448 2.88672,8.00791 2.88671,7.92132 2.88672,7.83475 2.88672,7.74817 2.88672,7.66159 2.88672,7.57501 2.88672,7.48844 2.88672,7.40185 2.88672,7.31528 2.88671,7.22869 2.88672,7.14212 2.88672,7.05554 2.88672,6.96897 2.88672,6.88238 2.88672,6.7958 2.88672,6.70923 2.88672,6.62265 2.88671,6.53606 2.88672,6.44949 2.88672,6.36291 2.88672,6.27634 2.88672,6.18975 2.88672,6.10317 2.88672,6.0166 2.88672,5.93002 2.88671,5.84344 2.88672,5.75686 2.88672,5.67028 2.88672,5.5837 2.88672,5.49713 2.88672,5.41054 2.88672,5.32397 2.88672,5.23739 2.88671,5.15081 2.88672,5.06423 2.88672,4.97765 5.77344,9.69557 5.77344,9.34925 5.77343,9.00294 5.77344,8.65663 5.77344,8.31031 5.77344,7.964 5.77343,7.61768 5.77344,7.27136 5.77344,6.92505 5.77344,6.57874 5.77343,6.23242 5.77344,5.88611 5.77344,5.5398 5.77344,5.19347 5.77343,4.84717 5.77344,4.50085 5.77344,4.15453 5.77344,3.80822 5.77343,3.46191 5.77344,3.11559 5.77344,2.76928 5.77344,2.42296 5.77343,2.07664 5.77344,1.73034 5.77344,1.38401 5.77344,1.03771 5.77343,0.69139 5.77344,0.34507 5.77344,-0.001 5.77344,-0.34756 5.77343,-0.69387 5.77344,-1.04018 5.77344,-1.3865 5.77344,-1.73281 5.77343,-2.07913 5.77344,-2.42545 5.77344,-2.77175 5.77344,-3.11808 5.77343,-3.46438 5.77344,-3.81071 5.77344,-4.15701 5.77344,-4.50333 5.77343,-4.84965 5.77344,-5.19596 5.77344,-5.54227 5.77344,-5.88859 5.77344,-6.23491 5.77343,-6.58122 5.77344,-6.92753 5.77344,-7.27385 5.77344,-7.62016 5.77343,-7.96648 5.77344,-8.31279 5.77344,-8.65911 5.77343,-9.00542 5.77344,-9.35173 5.77344,-9.69805 2.88672,-4.9789 2.88672,-5.06547 2.88672,-5.15205 2.88671,-5.23863 2.88672,-5.32521 2.88672,-5.41178 2.88672,-5.49837 2.88672,-5.58494 2.88672,-5.67152 2.88672,-5.7581 2.88672,-5.84468 2.88671,-5.93126 2.88672,-6.01784 2.88672,-6.10442 2.88672,-6.19099 2.88672,-6.27757 2.88672,-6.36415 2.88672,-6.45073 2.88672,-6.53731 2.88671,-6.62389 2.88672,-6.71047 2.88672,-6.79704 2.88672,-6.88363 2.88672,-6.9702 2.88672,-7.05678 2.88672,-7.14336 2.88672,-7.22994 2.88672,-7.31651 2.88671,-7.4031 2.88672,-7.48967 2.88672,-7.57626 2.88672,-7.66283 2.88672,-7.74941 2.88672,-7.83599 2.88672,-7.92257 2.88671,-8.00914 2.88672,-8.09573 2.88672,-8.1823 2.88672,-8.26888 2.88672,-8.35546 2.88672,-8.44204 2.88672,-8.52862 2.88672,-8.6152 2.88671,-8.70177 2.88672,-8.78836 2.88672,-8.87493 2.88672,-8.96151 2.88672,-9.04809 2.88672,-9.13467 2.88672,-9.221248 2.88672,-9.307826 2.88671,-9.394404 2.88672,-9.480984 2.88672,-9.567562 2.88672,-9.654141 2.88672,-9.740719 2.88672,-9.827298 2.88672,-9.913877 1.44331,-4.989405 1.4434,-5.0110499 1.4434,-5.0326946 1.4433,-5.0543393 1.4434,-5.075984"
         stroke-miterlimit="10"
         id="path123"
         inkscape:connector-curvature="0"
         style="fill:none;stroke:#6699ff;stroke-width:2.5;stroke-linecap:round;stroke-linejoin:round;stroke-miterlimit:10;stroke-opacity:0.69803922;paint-order:fill stroke markers" />
      <path
         d="m 363.72656,942.29393 5.77344,-5.77344 5.77344,-5.77343 5.77344,-5.77344 5.77343,-5.77344 5.77344,-5.77344 5.77344,-5.77343 5.77343,-5.77344 5.77344,-5.77344 5.77344,-5.77344 5.77344,-5.77343 5.77343,-5.77344 5.77344,-5.77344 5.77344,-5.77344 5.77344,-5.77343 5.77343,-5.77344 5.77344,-5.77344 5.77344,-5.77344 5.77344,-5.77343 5.77343,-5.77344 5.77344,-5.77344 5.77344,-5.77344 5.77344,-5.77343 5.77343,-5.77344 5.77344,-5.77344 5.77344,-5.77344 5.77344,-5.77343 5.77343,-5.77344 5.77344,-5.77344 5.77344,-5.77344 5.77344,-5.77343 5.77343,-5.77344 5.77344,-5.77344 5.77344,-5.77344 5.77344,-5.77343 5.77343,-5.77344 5.77344,-5.77344 5.77344,-5.77344 5.77344,-5.77343 5.77343,-5.77344 5.77344,-5.77344 5.77344,-5.77344 5.77344,-5.77343 5.77343,-5.77344 5.77344,-5.77344 5.77344,-5.77344 5.77344,-5.77343 5.77343,-5.77344 5.77344,-5.77344 5.77344,-5.77344 5.77344,-5.77343 5.77343,-5.77344 5.77344,-5.77344 5.77344,-5.77344 5.77344,-5.77343 5.77343,-5.77344 5.77344,-5.77344 5.77344,-5.77344 5.77344,-5.77343 5.77343,-5.77344 5.77344,-5.77344 5.77344,-5.77344 5.77344,-5.77343 5.77343,-5.77344 5.77344,-5.77344 5.77344,-5.77344 5.77344,-5.77343 5.77343,-5.77344 5.77344,-5.77344 5.77344,-5.77344 5.77344,-5.77343 5.77344,-5.77344 5.77343,-5.77344 5.77344,-5.77344 5.77344,-5.77343 5.77344,-5.77344 5.77343,-5.77344 5.77344,-5.77344 5.77344,-5.77343 5.77343,-5.77344 5.77344,-5.77344 5.77344,-5.77344 5.77344,-5.77343 5.77343,-5.77344 5.77344,-5.77344 5.77344,-5.77344 5.77344,-5.77343 5.77343,-5.77344 5.77344,-5.77344 5.77344,-5.77344 5.77344,-5.77343 5.77343,-5.77344 5.77344,-5.77344 5.77344,-5.77344 5.77344,-5.77343 5.77344,-5.77344 5.77343,-5.77344 5.77344,-5.77344 5.77344,-5.77343 5.77343,-5.77344 5.77344,-5.77344 5.77344,-5.77344 5.77344,-5.77343 5.77343,-5.77344 5.77344,-5.77344 5.77344,-5.77344 5.77344,-5.77343 5.77343,-5.77344 5.77344,-5.77344 5.77344,-5.77344 5.77344,-5.77343 5.77341,-5.77344 5.7735,-5.77344 5.7734,-5.77344 5.7734,-5.77343 5.7735,-5.77344 5.7734,-5.77344 5.7735,-5.77344 5.7734,-5.77343 5.7734,-5.77344 5.7735,-5.77344 5.7734,-5.77344 5.7734,-5.77343 5.7735,-5.77344 5.7734,-5.77344 5.7735,-5.77344 5.7734,-5.77343 5.7734,-5.77344 5.7735,-5.77344 5.7734,-5.77344 5.7734,-5.77343 5.7735,-5.77344 5.7734,-5.77344 5.7735,-5.77344 5.7734,-5.77343 5.7734,-5.77344 5.7735,-5.77344 5.7734,-5.77344 5.7734,-5.77343 5.7735,-5.77344 5.7734,-5.77344 5.7735,-5.77344 5.7734,-5.77343 5.7734,-5.77344 5.7735,-5.77344 5.7734,-5.77344 5.7734,-5.773433 5.7735,-5.773438 5.7734,-5.773437 5.7735,-5.773438 5.7734,-5.773437 5.7734,-5.773438 5.7735,-5.773437 5.7734,-5.773438 5.7734,-5.773437 5.7735,-5.773438 5.7734,-5.773437 5.7735,-5.773438 5.7734,-5.773437 5.7734,-5.773438 5.7735,-5.773437 5.7734,-5.773438 5.7734,-5.7734373 5.7735,-5.7734375 5.7734,-5.7734375 5.7735,-5.7734377"
         stroke-miterlimit="10"
         id="path125"
         inkscape:connector-curvature="0"
         style="fill:none;stroke:#606060;stroke-width:2.5;stroke-linejoin:round;stroke-miterlimit:10;stroke-dasharray:10.5, 8;stroke-opacity:0.69803922;paint-order:fill stroke markers" />
      <path
         d="m 565.79687,937.48751 2.88672,-5.77344 2.88672,-5.77344 2.88672,-5.77344 2.88672,-5.77343 2.88672,-5.77344 2.88672,-5.77344 2.88672,-5.77344 2.88671,-5.77343 2.88672,-5.77344 2.88672,-5.77344 2.88672,-5.77344 2.88672,-5.77343 2.88672,-5.77344 2.88672,-5.77344 2.88672,-5.77344 2.88671,-5.77343 2.88672,-5.77344 2.88672,-5.77344 2.88672,-5.77344 2.88672,-5.77343 2.88672,-5.77344 2.88672,-5.77344 2.88672,-5.77344 2.88671,-5.77343 2.88672,-5.77344 2.88672,-5.77344 2.88672,-5.77344 2.88672,-5.77343 2.88672,-5.77344 2.88672,-5.77344 2.88672,-5.77344 2.88671,-5.77343 2.88672,-5.77344 2.88672,-5.77344 2.88672,-5.77344 2.88672,-5.77343 2.88672,-5.77344 2.88672,-5.77344 2.88672,-5.77344 2.88671,-5.77343 2.88672,-5.77344 2.88672,-5.77344 2.88672,-5.77344 2.88672,-5.77343 2.88672,-5.77344 2.88672,-5.77344 2.88672,-5.77344 2.88671,-5.77343 2.88672,-5.77344 2.88672,-5.77344 2.88672,-5.77344 2.88672,-5.77343 2.88672,-5.77344 2.88672,-5.77344 2.88672,-5.77344 2.88671,-5.77343 2.88672,-5.77344 2.88672,-5.77344 2.88672,-5.77344 2.88672,-5.77343 2.88672,-5.77344 2.88672,-5.77344 2.88672,-5.77344 2.88671,-5.77343 2.88672,-5.77344 2.88672,-5.77344 2.88672,-5.77344 2.88672,-5.77343 2.88672,-5.77344 2.88672,-5.77344 2.88672,-5.77344 2.88672,-5.77343 2.88671,-5.77344 2.88672,-5.77344 2.88672,-5.77344 2.88672,-5.77343 2.88672,-5.77344 2.88672,-5.77344 2.88672,-5.77344 2.88672,-5.77343 2.88671,-5.77344 2.88672,-5.77344 2.88672,-5.77344 2.88672,-5.77343 2.88672,-5.77344 2.88672,-5.77344 2.88672,-5.77344 2.88671,-5.77343 2.88672,-5.77344 2.88672,-5.77344 2.88672,-5.77344 2.88672,-5.77343 2.88672,-5.77344 2.88672,-5.77344 2.88672,-5.77344 2.88671,-5.77343 2.88672,-5.77344 2.88672,-5.77344 2.88672,-5.77344 2.88672,-5.77343 2.88672,-5.77344 2.88672,-5.77344 2.88672,-5.77344 2.88671,-5.77343 2.88672,-5.77344 2.88672,-5.77344 2.88672,-5.77344 2.88672,-5.77343 2.88672,-5.77344 2.88672,-5.77344 2.88672,-5.77344 2.88671,-5.77343 2.88672,-5.77344 2.88672,-5.77344 2.88672,-5.77344 2.88672,-5.77343 2.88672,-5.77344 2.88672,-5.77344 2.88672,-5.77344 2.88672,-5.77343 2.88671,-5.77344 2.88672,-5.77344 2.88672,-5.77344 2.88672,-5.77343 2.88672,-5.77344 2.88672,-5.77344 2.88672,-5.77344 2.88671,-5.77343 2.88672,-5.77344 2.88672,-5.77344 2.88672,-5.77344 2.88672,-5.77343 2.88672,-5.77344 2.88672,-5.77344 2.88672,-5.77344 2.88671,-5.77343 2.88672,-5.77344 2.88672,-5.77344 2.88672,-5.77344 2.88672,-5.77343 2.88672,-5.77344 2.88672,-5.77344 2.88672,-5.77344 2.88671,-5.77343 2.88672,-5.77344 2.88672,-5.773439 2.88672,-5.773438 2.88672,-5.773437 2.88672,-5.773438 2.88672,-5.773437 2.88671,-5.773438 2.8867,-5.773437 2.8867,-5.773438 2.8868,-5.773437 2.8867,-5.773438 2.8867,-5.773437 2.8867,-5.773438 2.8867,-5.773437 2.8868,-5.773438 2.8867,-5.773437 2.8867,-5.7734379 2.8867,-5.7734375 2.8867,-5.7734375 2.8868,-5.7734375"
         stroke-miterlimit="10"
         id="path127"
         inkscape:connector-curvature="0"
         style="fill:none;stroke:#ff0000;stroke-width:2.5;stroke-linecap:round;stroke-linejoin:round;stroke-miterlimit:10;stroke-opacity:0.69803922;paint-order:fill stroke markers" />
      <path
         d="m 959.55959,157.96207 c 0,2.20914 -1.79086,4 -4,4 -2.20914,0 -4,-1.79086 -4,-4 0,-2.20914 1.79086,-4 4,-4 2.20914,0 4,1.79086 4,4 z"
         id="path129"
         inkscape:connector-curvature="0"
         style="fill:#444444;fill-opacity:1;stroke:none;paint-order:stroke fill markers" />
      <path
         d="m 959.55959,157.96207 c 0,2.20914 -1.79086,4 -4,4 -2.20914,0 -4,-1.79086 -4,-4 0,-2.20914 1.79086,-4 4,-4 2.20914,0 4,1.79086 4,4 z"
         stroke-miterlimit="10"
         id="path131"
         inkscape:connector-curvature="0"
         style="fill:none;stroke:#000000;stroke-linecap:round;stroke-linejoin:round;stroke-miterlimit:10;stroke-opacity:1;paint-order:fill stroke markers" />
      <path
         d="m 767.06076,542.95973 c 0,2.20914 -1.79086,4 -4,4 -2.20914,0 -4,-1.79086 -4,-4 0,-2.20914 1.79086,-4 4,-4 2.20914,0 4,1.79086 4,4 z"
         id="path133"
         inkscape:connector-curvature="0"
         style="fill:#444444;fill-opacity:1;stroke:none;paint-order:stroke fill markers" />
      <path
         d="m 767.06076,542.95973 c 0,2.20914 -1.79086,4 -4,4 -2.20914,0 -4,-1.79086 -4,-4 0,-2.20914 1.79086,-4 4,-4 2.20914,0 4,1.79086 4,4 z"
         stroke-miterlimit="10"
         id="path135"
         inkscape:connector-curvature="0"
         style="fill:none;stroke:#000000;stroke-linecap:round;stroke-linejoin:round;stroke-miterlimit:10;stroke-opacity:1;paint-order:fill stroke markers" />
      <text
         font-size="16px"
         font-style="normal"
         font-weight="normal"
         text-decoration="normal"
         x="750"
         y="531"
         dominant-baseline="alphabetic"
         id="text137"
         style="font-style:normal;font-weight:normal;font-size:16px;font-family:geogebra-sans-serif, sans-serif;dominant-baseline:alphabetic;text-anchor:start;fill:#000000;fill-opacity:1;stroke:none">P</text>
      <text
         font-size="16px"
         font-style="normal"
         font-weight="normal"
         text-decoration="normal"
         x="938"
         y="145"
         dominant-baseline="alphabetic"
         id="text139"
         style="font-style:normal;font-weight:normal;font-size:16px;font-family:geogebra-sans-serif, sans-serif;dominant-baseline:alphabetic;text-anchor:start;fill:#000000;fill-opacity:1;stroke:none">Q</text>
    </g>
  </g>
</svg>
