<svg version="1.1" xmlns="http://www.w3.org/2000/svg" xmlns:xlink="http://www.w3.org/1999/xlink" width="358" height="181" viewBox="0 0 358 181"><defs><clipPath id="MqrtHXoJuAgI"><path fill="none" stroke="none" d=" M 0 0 L 358 0 L 358 181 L 0 181 L 0 0 Z"/></clipPath></defs><g transform="scale(1,1)" clip-path="url(#MqrtHXoJuAgI)"><g transform="translate(-369,-266)"><rect fill="rgba(255,255,255,0)" stroke="none" x="0" y="0" width="755" height="837" fill-opacity="1"/><path fill="none" stroke="rgb(0,0,0)" paint-order="fill stroke markers" d=" M 377.5 418.5 L 626.9153162899183 274.5000000000015" stroke-opacity="1" stroke-linecap="round" stroke-linejoin="round" stroke-miterlimit="10" stroke-width="2.5"/><path fill="none" stroke="rgb(0,0,0)" paint-order="fill stroke markers" d=" M 626.9153162899183 274.5000000000015 L 626.9153162899183 418.5" stroke-opacity="1" stroke-linecap="round" stroke-linejoin="round" stroke-miterlimit="10" stroke-width="2.5"/><path fill="none" stroke="rgb(0,0,0)" paint-order="fill stroke markers" d=" M 626.9153162899183 418.5 L 377.5 418.5" stroke-opacity="1" stroke-linecap="round" stroke-linejoin="round" stroke-miterlimit="10" stroke-width="2.5"/><path fill="none" stroke="rgb(0,0,0)" paint-order="fill stroke markers" d=" M 601.9153162899183 418.5 L 601.9153162899183 393.5000000000003" stroke-opacity="1" stroke-linecap="round" stroke-linejoin="round" stroke-miterlimit="10" stroke-width="2.5"/><path fill="none" stroke="rgb(0,0,0)" paint-order="fill stroke markers" d=" M 601.9153162899183 393.5000000000003 L 626.9153162899183 393.5000000000003" stroke-opacity="1" stroke-linecap="round" stroke-linejoin="round" stroke-miterlimit="10" stroke-width="2.5"/><g transform="scale(19,19)"><g transform="translate(22.157894736842106,21.694445)"><path fill="rgb(0,0,0)" stroke="none" paint-order="stroke fill markers" d=" M 0.455 -0.5 L 0.455 -0.5 Q 0.455 -0.34700000000000003 0.377 -0.19 Q 0.307 -0.05 0.222 -0.005 Q 0.191 0.011 0.162 0.011 Q 0.08 0.011 0.052000000000000005 -0.101 Q 0.042 -0.14300000000000002 0.042 -0.194 Q 0.042 -0.35100000000000003 0.122 -0.509 Q 0.192 -0.646 0.277 -0.6900000000000001 Q 0.307 -0.705 0.335 -0.705 Q 0.422 -0.705 0.447 -0.578 Q 0.455 -0.54 0.455 -0.5 M 0.148 -0.363 L 0.148 -0.363 L 0.357 -0.363 Q 0.389 -0.495 0.389 -0.562 Q 0.389 -0.675 0.342 -0.682 Q 0.338 -0.683 0.334 -0.683 Q 0.28300000000000003 -0.683 0.225 -0.578 Q 0.187 -0.511 0.149 -0.368 Q 0.149 -0.365 0.148 -0.363 M 0.34800000000000003 -0.331 L 0.14 -0.331 Q 0.108 -0.21 0.108 -0.133 Q 0.108 -0.013000000000000001 0.162 -0.011 Q 0.218 -0.011 0.278 -0.128 Q 0.317 -0.202 0.34800000000000003 -0.331 Z"/></g></g><g transform="scale(19,19)"><g transform="translate(33.36842105263158,18.74707657894737)"><path fill="rgb(0,0,0)" stroke="none" paint-order="stroke fill markers" d=" M 0.5865 -0.608 Q 0.5865 -0.608 0.63275 -0.554 Q 0.679 -0.5 0.679 -0.34500000000000003 Q 0.679 -0.19 0.5865 -0.084 Q 0.494 0.022 0.367 0.022 Q 0.242 0.022 0.149 -0.0835 Q 0.056 -0.189 0.056 -0.34500000000000003 Q 0.056 -0.5 0.148 -0.608 Q 0.24 -0.716 0.368 -0.716 Q 0.494 -0.716 0.5865 -0.608 M 0.368 -0.043000000000000003 Q 0.458 -0.043000000000000003 0.524 -0.131 Q 0.59 -0.219 0.59 -0.36 Q 0.59 -0.49 0.524 -0.5710000000000001 Q 0.458 -0.652 0.367 -0.652 Q 0.278 -0.652 0.2115 -0.5715 Q 0.145 -0.491 0.145 -0.36 Q 0.145 -0.22 0.2105 -0.1315 Q 0.276 -0.043000000000000003 0.368 -0.043000000000000003 Z"/></g><g transform="translate(34.104534052631585,18.74707657894737)"><path fill="rgb(0,0,0)" stroke="none" paint-order="stroke fill markers" d=" M 0.16 -0.046 L 0.16 0.194 L 0.082 0.194 L 0.082 -0.444 L 0.157 -0.444 L 0.157 -0.395 Q 0.228 -0.455 0.321 -0.455 Q 0.391 -0.455 0.4355 -0.386 Q 0.48 -0.317 0.48 -0.223 Q 0.48 -0.123 0.425 -0.056 Q 0.37 0.011 0.295 0.011 Q 0.221 0.011 0.16 -0.046 M 0.16 -0.333 L 0.16 -0.132 Q 0.16 -0.112 0.17 -0.097 Q 0.20500000000000002 -0.05 0.256 -0.05 Q 0.314 -0.05 0.358 -0.099 Q 0.402 -0.148 0.402 -0.223 Q 0.402 -0.292 0.3625 -0.3415 Q 0.323 -0.391 0.266 -0.391 Q 0.2 -0.391 0.16 -0.333 Z"/></g><g transform="translate(34.62120205263159,18.74707657894737)"><path fill="rgb(0,0,0)" stroke="none" paint-order="stroke fill markers" d=" M 0.16 -0.046 L 0.16 0.194 L 0.082 0.194 L 0.082 -0.444 L 0.157 -0.444 L 0.157 -0.395 Q 0.228 -0.455 0.321 -0.455 Q 0.391 -0.455 0.4355 -0.386 Q 0.48 -0.317 0.48 -0.223 Q 0.48 -0.123 0.425 -0.056 Q 0.37 0.011 0.295 0.011 Q 0.221 0.011 0.16 -0.046 M 0.16 -0.333 L 0.16 -0.132 Q 0.16 -0.112 0.17 -0.097 Q 0.20500000000000002 -0.05 0.256 -0.05 Q 0.314 -0.05 0.358 -0.099 Q 0.402 -0.148 0.402 -0.223 Q 0.402 -0.292 0.3625 -0.3415 Q 0.323 -0.391 0.266 -0.391 Q 0.2 -0.391 0.16 -0.333 Z"/></g><g transform="translate(35.16564905263159,18.74707657894737)"><path fill="rgb(0,0,0)" stroke="none" paint-order="stroke fill markers" d=" M 0.46900000000000003 -0.22 Q 0.46900000000000003 -0.123 0.4045 -0.056 Q 0.34 0.011 0.249 0.011 Q 0.16 0.011 0.095 -0.0555 Q 0.03 -0.122 0.03 -0.22 Q 0.03 -0.319 0.094 -0.39 Q 0.158 -0.461 0.25 -0.461 Q 0.34 -0.461 0.4045 -0.3905 Q 0.46900000000000003 -0.32 0.46900000000000003 -0.22 M 0.249 -0.053 Q 0.308 -0.053 0.34950000000000003 -0.0995 Q 0.391 -0.146 0.391 -0.23 Q 0.391 -0.313 0.34900000000000003 -0.3565 Q 0.307 -0.4 0.249 -0.4 Q 0.193 -0.4 0.1505 -0.357 Q 0.108 -0.314 0.108 -0.23 Q 0.108 -0.145 0.15 -0.099 Q 0.192 -0.053 0.249 -0.053 Z"/></g><g transform="translate(35.665651052631596,18.74707657894737)"><path fill="rgb(0,0,0)" stroke="none" paint-order="stroke fill markers" d=" M 0.343 -0.429 L 0.331 -0.364 Q 0.267 -0.402 0.189 -0.402 Q 0.10400000000000001 -0.402 0.10400000000000001 -0.34 Q 0.10400000000000001 -0.326 0.11 -0.315 Q 0.116 -0.304 0.1235 -0.2975 Q 0.131 -0.291 0.1465 -0.28550000000000003 Q 0.162 -0.28 0.17300000000000001 -0.277 Q 0.184 -0.274 0.20500000000000002 -0.27 Q 0.248 -0.262 0.271 -0.253 Q 0.294 -0.244 0.321 -0.22 L 0.326 -0.214 Q 0.331 -0.209 0.336 -0.2015 Q 0.341 -0.194 0.34700000000000003 -0.1835 Q 0.353 -0.17300000000000001 0.3565 -0.158 Q 0.36 -0.14300000000000002 0.36 -0.128 Q 0.36 -0.058 0.312 -0.021 Q 0.269 0.011 0.196 0.011 Q 0.116 0.011 0.028 -0.033 L 0.04 -0.101 Q 0.114 -0.052000000000000005 0.195 -0.052000000000000005 Q 0.289 -0.052000000000000005 0.289 -0.121 Q 0.289 -0.136 0.28200000000000003 -0.148 Q 0.275 -0.16 0.2665 -0.167 Q 0.258 -0.17400000000000002 0.243 -0.18 Q 0.228 -0.186 0.219 -0.188 Q 0.21 -0.19 0.195 -0.193 Q 0.161 -0.2 0.148 -0.203 Q 0.135 -0.20600000000000002 0.11850000000000001 -0.2125 Q 0.10200000000000001 -0.219 0.08700000000000001 -0.23 Q 0.033 -0.271 0.033 -0.33 Q 0.033 -0.367 0.0485 -0.3935 Q 0.064 -0.42 0.0835 -0.4325 Q 0.10300000000000001 -0.445 0.1305 -0.452 Q 0.158 -0.459 0.171 -0.46 Q 0.184 -0.461 0.199 -0.461 Q 0.274 -0.461 0.343 -0.429 Z"/></g><g transform="translate(36.04898505263159,18.74707657894737)"><path fill="rgb(0,0,0)" stroke="none" paint-order="stroke fill markers" d=" M 0.163 -0.68 L 0.163 -0.591 L 0.074 -0.591 L 0.074 -0.68 L 0.163 -0.68 M 0.156 -0.444 L 0.156 0 L 0.081 0 L 0.081 -0.444 L 0.156 -0.444 Z"/></g><g transform="translate(36.28787505263159,18.74707657894737)"><path fill="rgb(0,0,0)" stroke="none" paint-order="stroke fill markers" d=" M 0.17500000000000002 -0.386 L 0.17500000000000002 -0.136 Q 0.17500000000000002 -0.053 0.226 -0.053 Q 0.275 -0.053 0.316 -0.08600000000000001 L 0.332 -0.027 Q 0.259 0.011 0.186 0.011 Q 0.10300000000000001 0.011 0.10300000000000001 -0.11900000000000001 L 0.10300000000000001 -0.386 L 0.019 -0.386 L 0.019 -0.444 L 0.106 -0.444 L 0.106 -0.5710000000000001 L 0.17500000000000002 -0.5710000000000001 L 0.17500000000000002 -0.444 L 0.316 -0.444 L 0.316 -0.386 L 0.17500000000000002 -0.386 Z"/></g><g transform="translate(36.64898705263159,18.74707657894737)"><path fill="rgb(0,0,0)" stroke="none" paint-order="stroke fill markers" d=" M 0.41400000000000003 -0.219 L 0.105 -0.219 Q 0.107 -0.146 0.1495 -0.098 Q 0.192 -0.05 0.252 -0.05 Q 0.336 -0.05 0.404 -0.106 L 0.41000000000000003 -0.041 Q 0.338 0.011 0.251 0.011 Q 0.161 0.011 0.098 -0.058 Q 0.035 -0.127 0.035 -0.226 Q 0.035 -0.323 0.094 -0.392 Q 0.153 -0.461 0.23600000000000002 -0.461 Q 0.326 -0.461 0.374 -0.388 Q 0.41400000000000003 -0.326 0.41400000000000003 -0.219 M 0.11 -0.274 L 0.357 -0.274 Q 0.34800000000000003 -0.338 0.314 -0.369 Q 0.28 -0.4 0.23600000000000002 -0.4 Q 0.193 -0.4 0.1575 -0.365 Q 0.122 -0.33 0.11 -0.274 Z"/></g><g transform="translate(37.42676705263159,18.74707657894737)"><path fill="rgb(0,0,0)" stroke="none" paint-order="stroke fill markers" d=" M 0.455 -0.5 L 0.455 -0.5 Q 0.455 -0.34700000000000003 0.377 -0.19 Q 0.307 -0.05 0.222 -0.005 Q 0.191 0.011 0.162 0.011 Q 0.08 0.011 0.052000000000000005 -0.101 Q 0.042 -0.14300000000000002 0.042 -0.194 Q 0.042 -0.35100000000000003 0.122 -0.509 Q 0.192 -0.646 0.277 -0.6900000000000001 Q 0.307 -0.705 0.335 -0.705 Q 0.422 -0.705 0.447 -0.578 Q 0.455 -0.54 0.455 -0.5 M 0.148 -0.363 L 0.148 -0.363 L 0.357 -0.363 Q 0.389 -0.495 0.389 -0.562 Q 0.389 -0.675 0.342 -0.682 Q 0.338 -0.683 0.334 -0.683 Q 0.28300000000000003 -0.683 0.225 -0.578 Q 0.187 -0.511 0.149 -0.368 Q 0.149 -0.365 0.148 -0.363 M 0.34800000000000003 -0.331 L 0.14 -0.331 Q 0.108 -0.21 0.108 -0.133 Q 0.108 -0.013000000000000001 0.162 -0.011 Q 0.218 -0.011 0.278 -0.128 Q 0.317 -0.202 0.34800000000000003 -0.331 Z"/></g></g><g transform="scale(19,19)"><g transform="translate(21.94736842105263,17.641813421052632)"><path fill="rgb(0,0,0)" stroke="none" paint-order="stroke fill markers" d=" M 0.613 -0.6940000000000001 L 0.613 0 L 0.524 0 L 0.524 -0.33 L 0.183 -0.33 L 0.183 0 L 0.094 0 L 0.094 -0.6940000000000001 L 0.183 -0.6940000000000001 L 0.183 -0.391 L 0.524 -0.391 L 0.524 -0.6940000000000001 L 0.613 -0.6940000000000001 Z"/></g><g transform="translate(22.65570642105263,17.641813421052632)"><path fill="rgb(0,0,0)" stroke="none" paint-order="stroke fill markers" d=" M 0.446 -0.444 L 0.228 0.091 Q 0.2 0.16 0.17350000000000002 0.1825 Q 0.147 0.20500000000000002 0.115 0.20500000000000002 Q 0.078 0.20500000000000002 0.043000000000000003 0.197 L 0.037 0.132 Q 0.077 0.148 0.115 0.148 Q 0.125 0.148 0.131 0.146 Q 0.137 0.14400000000000002 0.1485 0.1305 Q 0.16 0.117 0.17200000000000001 0.09 Q 0.181 0.07 0.20800000000000002 0 L 0.014 -0.444 L 0.093 -0.444 L 0.147 -0.319 Q 0.155 -0.301 0.1715 -0.261 Q 0.188 -0.221 0.211 -0.154 Q 0.234 -0.08700000000000001 0.23700000000000002 -0.057 L 0.23800000000000002 -0.057 Q 0.241 -0.126 0.371 -0.444 L 0.446 -0.444 Z"/></g><g transform="translate(23.13070742105263,17.641813421052632)"><path fill="rgb(0,0,0)" stroke="none" paint-order="stroke fill markers" d=" M 0.16 -0.046 L 0.16 0.194 L 0.082 0.194 L 0.082 -0.444 L 0.157 -0.444 L 0.157 -0.395 Q 0.228 -0.455 0.321 -0.455 Q 0.391 -0.455 0.4355 -0.386 Q 0.48 -0.317 0.48 -0.223 Q 0.48 -0.123 0.425 -0.056 Q 0.37 0.011 0.295 0.011 Q 0.221 0.011 0.16 -0.046 M 0.16 -0.333 L 0.16 -0.132 Q 0.16 -0.112 0.17 -0.097 Q 0.20500000000000002 -0.05 0.256 -0.05 Q 0.314 -0.05 0.358 -0.099 Q 0.402 -0.148 0.402 -0.223 Q 0.402 -0.292 0.3625 -0.3415 Q 0.323 -0.391 0.266 -0.391 Q 0.2 -0.391 0.16 -0.333 Z"/></g><g transform="translate(23.67515442105263,17.641813421052632)"><path fill="rgb(0,0,0)" stroke="none" paint-order="stroke fill markers" d=" M 0.46900000000000003 -0.22 Q 0.46900000000000003 -0.123 0.4045 -0.056 Q 0.34 0.011 0.249 0.011 Q 0.16 0.011 0.095 -0.0555 Q 0.03 -0.122 0.03 -0.22 Q 0.03 -0.319 0.094 -0.39 Q 0.158 -0.461 0.25 -0.461 Q 0.34 -0.461 0.4045 -0.3905 Q 0.46900000000000003 -0.32 0.46900000000000003 -0.22 M 0.249 -0.053 Q 0.308 -0.053 0.34950000000000003 -0.0995 Q 0.391 -0.146 0.391 -0.23 Q 0.391 -0.313 0.34900000000000003 -0.3565 Q 0.307 -0.4 0.249 -0.4 Q 0.193 -0.4 0.1505 -0.357 Q 0.108 -0.314 0.108 -0.23 Q 0.108 -0.145 0.15 -0.099 Q 0.192 -0.053 0.249 -0.053 Z"/></g><g transform="translate(24.175156421052627,17.641813421052632)"><path fill="rgb(0,0,0)" stroke="none" paint-order="stroke fill markers" d=" M 0.17500000000000002 -0.386 L 0.17500000000000002 -0.136 Q 0.17500000000000002 -0.053 0.226 -0.053 Q 0.275 -0.053 0.316 -0.08600000000000001 L 0.332 -0.027 Q 0.259 0.011 0.186 0.011 Q 0.10300000000000001 0.011 0.10300000000000001 -0.11900000000000001 L 0.10300000000000001 -0.386 L 0.019 -0.386 L 0.019 -0.444 L 0.106 -0.444 L 0.106 -0.5710000000000001 L 0.17500000000000002 -0.5710000000000001 L 0.17500000000000002 -0.444 L 0.316 -0.444 L 0.316 -0.386 L 0.17500000000000002 -0.386 Z"/></g><g transform="translate(24.536268421052625,17.641813421052632)"><path fill="rgb(0,0,0)" stroke="none" paint-order="stroke fill markers" d=" M 0.41400000000000003 -0.219 L 0.105 -0.219 Q 0.107 -0.146 0.1495 -0.098 Q 0.192 -0.05 0.252 -0.05 Q 0.336 -0.05 0.404 -0.106 L 0.41000000000000003 -0.041 Q 0.338 0.011 0.251 0.011 Q 0.161 0.011 0.098 -0.058 Q 0.035 -0.127 0.035 -0.226 Q 0.035 -0.323 0.094 -0.392 Q 0.153 -0.461 0.23600000000000002 -0.461 Q 0.326 -0.461 0.374 -0.388 Q 0.41400000000000003 -0.326 0.41400000000000003 -0.219 M 0.11 -0.274 L 0.357 -0.274 Q 0.34800000000000003 -0.338 0.314 -0.369 Q 0.28 -0.4 0.23600000000000002 -0.4 Q 0.193 -0.4 0.1575 -0.365 Q 0.122 -0.33 0.11 -0.274 Z"/></g><g transform="translate(24.980714421052625,17.641813421052632)"><path fill="rgb(0,0,0)" stroke="none" paint-order="stroke fill markers" d=" M 0.435 -0.298 L 0.435 0 L 0.357 0 L 0.357 -0.291 Q 0.357 -0.305 0.3565 -0.3145 Q 0.356 -0.324 0.35050000000000003 -0.3405 Q 0.34500000000000003 -0.357 0.3355 -0.3675 Q 0.326 -0.378 0.3065 -0.386 Q 0.28700000000000003 -0.394 0.26 -0.394 Q 0.20800000000000002 -0.394 0.1835 -0.34900000000000003 Q 0.159 -0.304 0.159 -0.245 L 0.159 0 L 0.081 0 L 0.081 -0.45 L 0.153 -0.45 L 0.153 -0.379 Q 0.21 -0.455 0.298 -0.455 Q 0.435 -0.455 0.435 -0.298 Z"/></g><g transform="translate(25.497382421052624,17.641813421052632)"><path fill="rgb(0,0,0)" stroke="none" paint-order="stroke fill markers" d=" M 0.435 -0.444 L 0.435 0 L 0.36 0 L 0.36 -0.048 Q 0.293 0.011 0.187 0.011 Q 0.128 0.011 0.1045 -0.0195 Q 0.081 -0.05 0.081 -0.109 L 0.081 -0.444 L 0.159 -0.444 L 0.159 -0.113 Q 0.159 -0.076 0.17350000000000002 -0.06 Q 0.188 -0.044 0.23700000000000002 -0.044 Q 0.28800000000000003 -0.044 0.3225 -0.0725 Q 0.357 -0.101 0.357 -0.154 L 0.357 -0.444 L 0.435 -0.444 Z"/></g><g transform="translate(26.014050421052623,17.641813421052632)"><path fill="rgb(0,0,0)" stroke="none" paint-order="stroke fill markers" d=" M 0.343 -0.429 L 0.331 -0.364 Q 0.267 -0.402 0.189 -0.402 Q 0.10400000000000001 -0.402 0.10400000000000001 -0.34 Q 0.10400000000000001 -0.326 0.11 -0.315 Q 0.116 -0.304 0.1235 -0.2975 Q 0.131 -0.291 0.1465 -0.28550000000000003 Q 0.162 -0.28 0.17300000000000001 -0.277 Q 0.184 -0.274 0.20500000000000002 -0.27 Q 0.248 -0.262 0.271 -0.253 Q 0.294 -0.244 0.321 -0.22 L 0.326 -0.214 Q 0.331 -0.209 0.336 -0.2015 Q 0.341 -0.194 0.34700000000000003 -0.1835 Q 0.353 -0.17300000000000001 0.3565 -0.158 Q 0.36 -0.14300000000000002 0.36 -0.128 Q 0.36 -0.058 0.312 -0.021 Q 0.269 0.011 0.196 0.011 Q 0.116 0.011 0.028 -0.033 L 0.04 -0.101 Q 0.114 -0.052000000000000005 0.195 -0.052000000000000005 Q 0.289 -0.052000000000000005 0.289 -0.121 Q 0.289 -0.136 0.28200000000000003 -0.148 Q 0.275 -0.16 0.2665 -0.167 Q 0.258 -0.17400000000000002 0.243 -0.18 Q 0.228 -0.186 0.219 -0.188 Q 0.21 -0.19 0.195 -0.193 Q 0.161 -0.2 0.148 -0.203 Q 0.135 -0.20600000000000002 0.11850000000000001 -0.2125 Q 0.10200000000000001 -0.219 0.08700000000000001 -0.23 Q 0.033 -0.271 0.033 -0.33 Q 0.033 -0.367 0.0485 -0.3935 Q 0.064 -0.42 0.0835 -0.4325 Q 0.10300000000000001 -0.445 0.1305 -0.452 Q 0.158 -0.459 0.171 -0.46 Q 0.184 -0.461 0.199 -0.461 Q 0.274 -0.461 0.343 -0.429 Z"/></g><g transform="translate(26.397384421052625,17.641813421052632)"><path fill="rgb(0,0,0)" stroke="none" paint-order="stroke fill markers" d=" M 0.41400000000000003 -0.219 L 0.105 -0.219 Q 0.107 -0.146 0.1495 -0.098 Q 0.192 -0.05 0.252 -0.05 Q 0.336 -0.05 0.404 -0.106 L 0.41000000000000003 -0.041 Q 0.338 0.011 0.251 0.011 Q 0.161 0.011 0.098 -0.058 Q 0.035 -0.127 0.035 -0.226 Q 0.035 -0.323 0.094 -0.392 Q 0.153 -0.461 0.23600000000000002 -0.461 Q 0.326 -0.461 0.374 -0.388 Q 0.41400000000000003 -0.326 0.41400000000000003 -0.219 M 0.11 -0.274 L 0.357 -0.274 Q 0.34800000000000003 -0.338 0.314 -0.369 Q 0.28 -0.4 0.23600000000000002 -0.4 Q 0.193 -0.4 0.1575 -0.365 Q 0.122 -0.33 0.11 -0.274 Z"/></g></g><g transform="scale(19,19)"><g transform="translate(24.526315789473685,23.115497631578947)"><path fill="rgb(0,0,0)" stroke="none" paint-order="stroke fill markers" d=" M 0.377 -0.6940000000000001 L 0.638 0 L 0.546 0 L 0.47000000000000003 -0.20400000000000001 L 0.179 -0.20400000000000001 L 0.10200000000000001 0 L 0.028 0 L 0.289 -0.6940000000000001 L 0.377 -0.6940000000000001 M 0.448 -0.26 L 0.357 -0.517 Q 0.328 -0.6 0.325 -0.622 L 0.324 -0.622 Q 0.318 -0.589 0.265 -0.441 L 0.2 -0.26 L 0.448 -0.26 Z"/></g><g transform="translate(25.192985789473685,23.115497631578947)"><path fill="rgb(0,0,0)" stroke="none" paint-order="stroke fill markers" d=" M 0.434 -0.6940000000000001 L 0.434 0 L 0.356 0 L 0.356 -0.052000000000000005 Q 0.291 0.011 0.20800000000000002 0.011 Q 0.136 0.011 0.08600000000000001 -0.0565 Q 0.036000000000000004 -0.124 0.036000000000000004 -0.222 Q 0.036000000000000004 -0.319 0.08750000000000001 -0.387 Q 0.139 -0.455 0.213 -0.455 Q 0.293 -0.455 0.359 -0.4 L 0.359 -0.6940000000000001 L 0.434 -0.6940000000000001 M 0.356 -0.139 L 0.356 -0.339 Q 0.318 -0.394 0.259 -0.394 Q 0.20400000000000001 -0.394 0.159 -0.352 Q 0.114 -0.31 0.114 -0.221 Q 0.114 -0.135 0.1545 -0.0925 Q 0.195 -0.05 0.249 -0.05 Q 0.291 -0.05 0.323 -0.078 Q 0.356 -0.108 0.356 -0.139 Z"/></g><g transform="translate(25.709653789473684,23.115497631578947)"><path fill="rgb(0,0,0)" stroke="none" paint-order="stroke fill markers" d=" M 0.184 -0.68 L 0.184 -0.591 L 0.095 -0.591 L 0.095 -0.68 L 0.184 -0.68 M -0.061 0.171 L -0.046 0.11 Q -0.012 0.14100000000000001 0.031 0.14100000000000001 Q 0.109 0.14100000000000001 0.109 0.068 L 0.109 -0.444 L 0.184 -0.444 L 0.184 0.059000000000000004 Q 0.184 0.126 0.1465 0.1655 Q 0.109 0.20500000000000002 0.059000000000000004 0.20500000000000002 Q -0.003 0.20500000000000002 -0.061 0.171 Z"/></g><g transform="translate(25.976321789473683,23.115497631578947)"><path fill="rgb(0,0,0)" stroke="none" paint-order="stroke fill markers" d=" M 0.399 -0.289 L 0.399 0 L 0.324 0 L 0.324 -0.036000000000000004 Q 0.263 0.011 0.158 0.011 Q 0.1 0.011 0.07200000000000001 -0.029500000000000002 Q 0.044 -0.07 0.044 -0.113 Q 0.044 -0.176 0.1225 -0.2095 Q 0.201 -0.243 0.321 -0.245 L 0.321 -0.28800000000000003 Q 0.321 -0.341 0.296 -0.3715 Q 0.271 -0.402 0.234 -0.402 Q 0.153 -0.402 0.083 -0.352 L 0.077 -0.418 Q 0.152 -0.461 0.234 -0.461 Q 0.304 -0.461 0.35150000000000003 -0.41250000000000003 Q 0.399 -0.364 0.399 -0.289 M 0.321 -0.132 L 0.321 -0.194 Q 0.116 -0.184 0.116 -0.115 Q 0.116 -0.085 0.14350000000000002 -0.0675 Q 0.171 -0.05 0.209 -0.05 Q 0.256 -0.05 0.28700000000000003 -0.069 Q 0.321 -0.088 0.321 -0.132 Z"/></g><g transform="translate(26.456878789473684,23.115497631578947)"><path fill="rgb(0,0,0)" stroke="none" paint-order="stroke fill markers" d=" M 0.41000000000000003 -0.418 L 0.398 -0.353 Q 0.358 -0.379 0.328 -0.388 Q 0.298 -0.397 0.257 -0.397 Q 0.20700000000000002 -0.397 0.17350000000000002 -0.369 Q 0.14 -0.341 0.127 -0.3035 Q 0.114 -0.266 0.114 -0.223 Q 0.114 -0.149 0.1525 -0.101 Q 0.191 -0.053 0.253 -0.053 Q 0.34 -0.053 0.40900000000000003 -0.107 L 0.41500000000000004 -0.04 Q 0.341 0.011 0.252 0.011 Q 0.16 0.011 0.098 -0.058 Q 0.036000000000000004 -0.127 0.036000000000000004 -0.222 Q 0.036000000000000004 -0.317 0.0965 -0.389 Q 0.157 -0.461 0.256 -0.461 Q 0.302 -0.461 0.334 -0.452 Q 0.366 -0.443 0.41000000000000003 -0.418 Z"/></g><g transform="translate(26.901324789473684,23.115497631578947)"><path fill="rgb(0,0,0)" stroke="none" paint-order="stroke fill markers" d=" M 0.41400000000000003 -0.219 L 0.105 -0.219 Q 0.107 -0.146 0.1495 -0.098 Q 0.192 -0.05 0.252 -0.05 Q 0.336 -0.05 0.404 -0.106 L 0.41000000000000003 -0.041 Q 0.338 0.011 0.251 0.011 Q 0.161 0.011 0.098 -0.058 Q 0.035 -0.127 0.035 -0.226 Q 0.035 -0.323 0.094 -0.392 Q 0.153 -0.461 0.23600000000000002 -0.461 Q 0.326 -0.461 0.374 -0.388 Q 0.41400000000000003 -0.326 0.41400000000000003 -0.219 M 0.11 -0.274 L 0.357 -0.274 Q 0.34800000000000003 -0.338 0.314 -0.369 Q 0.28 -0.4 0.23600000000000002 -0.4 Q 0.193 -0.4 0.1575 -0.365 Q 0.122 -0.33 0.11 -0.274 Z"/></g><g transform="translate(27.345770789473683,23.115497631578947)"><path fill="rgb(0,0,0)" stroke="none" paint-order="stroke fill markers" d=" M 0.435 -0.298 L 0.435 0 L 0.357 0 L 0.357 -0.291 Q 0.357 -0.305 0.3565 -0.3145 Q 0.356 -0.324 0.35050000000000003 -0.3405 Q 0.34500000000000003 -0.357 0.3355 -0.3675 Q 0.326 -0.378 0.3065 -0.386 Q 0.28700000000000003 -0.394 0.26 -0.394 Q 0.20800000000000002 -0.394 0.1835 -0.34900000000000003 Q 0.159 -0.304 0.159 -0.245 L 0.159 0 L 0.081 0 L 0.081 -0.45 L 0.153 -0.45 L 0.153 -0.379 Q 0.21 -0.455 0.298 -0.455 Q 0.435 -0.455 0.435 -0.298 Z"/></g><g transform="translate(27.862438789473682,23.115497631578947)"><path fill="rgb(0,0,0)" stroke="none" paint-order="stroke fill markers" d=" M 0.17500000000000002 -0.386 L 0.17500000000000002 -0.136 Q 0.17500000000000002 -0.053 0.226 -0.053 Q 0.275 -0.053 0.316 -0.08600000000000001 L 0.332 -0.027 Q 0.259 0.011 0.186 0.011 Q 0.10300000000000001 0.011 0.10300000000000001 -0.11900000000000001 L 0.10300000000000001 -0.386 L 0.019 -0.386 L 0.019 -0.444 L 0.106 -0.444 L 0.106 -0.5710000000000001 L 0.17500000000000002 -0.5710000000000001 L 0.17500000000000002 -0.444 L 0.316 -0.444 L 0.316 -0.386 L 0.17500000000000002 -0.386 Z"/></g><g transform="translate(28.55688478947368,23.115497631578947)"><path fill="rgb(0,0,0)" stroke="none" paint-order="stroke fill markers" d=" M 0.17500000000000002 -0.386 L 0.17500000000000002 -0.136 Q 0.17500000000000002 -0.053 0.226 -0.053 Q 0.275 -0.053 0.316 -0.08600000000000001 L 0.332 -0.027 Q 0.259 0.011 0.186 0.011 Q 0.10300000000000001 0.011 0.10300000000000001 -0.11900000000000001 L 0.10300000000000001 -0.386 L 0.019 -0.386 L 0.019 -0.444 L 0.106 -0.444 L 0.106 -0.5710000000000001 L 0.17500000000000002 -0.5710000000000001 L 0.17500000000000002 -0.444 L 0.316 -0.444 L 0.316 -0.386 L 0.17500000000000002 -0.386 Z"/></g><g transform="translate(28.91799678947368,23.115497631578947)"><path fill="rgb(0,0,0)" stroke="none" paint-order="stroke fill markers" d=" M 0.46900000000000003 -0.22 Q 0.46900000000000003 -0.123 0.4045 -0.056 Q 0.34 0.011 0.249 0.011 Q 0.16 0.011 0.095 -0.0555 Q 0.03 -0.122 0.03 -0.22 Q 0.03 -0.319 0.094 -0.39 Q 0.158 -0.461 0.25 -0.461 Q 0.34 -0.461 0.4045 -0.3905 Q 0.46900000000000003 -0.32 0.46900000000000003 -0.22 M 0.249 -0.053 Q 0.308 -0.053 0.34950000000000003 -0.0995 Q 0.391 -0.146 0.391 -0.23 Q 0.391 -0.313 0.34900000000000003 -0.3565 Q 0.307 -0.4 0.249 -0.4 Q 0.193 -0.4 0.1505 -0.357 Q 0.108 -0.314 0.108 -0.23 Q 0.108 -0.145 0.15 -0.099 Q 0.192 -0.053 0.249 -0.053 Z"/></g><g transform="translate(29.75133278947368,23.115497631578947)"><path fill="rgb(0,0,0)" stroke="none" paint-order="stroke fill markers" d=" M 0.455 -0.5 L 0.455 -0.5 Q 0.455 -0.34700000000000003 0.377 -0.19 Q 0.307 -0.05 0.222 -0.005 Q 0.191 0.011 0.162 0.011 Q 0.08 0.011 0.052000000000000005 -0.101 Q 0.042 -0.14300000000000002 0.042 -0.194 Q 0.042 -0.35100000000000003 0.122 -0.509 Q 0.192 -0.646 0.277 -0.6900000000000001 Q 0.307 -0.705 0.335 -0.705 Q 0.422 -0.705 0.447 -0.578 Q 0.455 -0.54 0.455 -0.5 M 0.148 -0.363 L 0.148 -0.363 L 0.357 -0.363 Q 0.389 -0.495 0.389 -0.562 Q 0.389 -0.675 0.342 -0.682 Q 0.338 -0.683 0.334 -0.683 Q 0.28300000000000003 -0.683 0.225 -0.578 Q 0.187 -0.511 0.149 -0.368 Q 0.149 -0.365 0.148 -0.363 M 0.34800000000000003 -0.331 L 0.14 -0.331 Q 0.108 -0.21 0.108 -0.133 Q 0.108 -0.013000000000000001 0.162 -0.011 Q 0.218 -0.011 0.278 -0.128 Q 0.317 -0.202 0.34800000000000003 -0.331 Z"/></g></g></g></g></svg>