<?xml version="1.0" encoding="UTF-8" standalone="no"?>
<svg xmlns:dc="http://purl.org/dc/elements/1.1/" xmlns:cc="http://creativecommons.org/ns#" xmlns:rdf="http://www.w3.org/1999/02/22-rdf-syntax-ns#" xmlns:svg="http://www.w3.org/2000/svg" xmlns="http://www.w3.org/2000/svg" xmlns:sodipodi="http://sodipodi.sourceforge.net/DTD/sodipodi-0.dtd" xmlns:inkscape="http://www.inkscape.org/namespaces/inkscape" version="1.1" width="500" height="330" id="svg51" sodipodi:docname="cofunction-definition.svg" inkscape:version="0.92.3 (2405546, 2018-03-11)" viewBox="0 0 500 330">
  <metadata id="metadata55">
    <rdf:RDF>
      <cc:Work rdf:about="">
        <dc:format>image/svg+xml</dc:format>
        <dc:type rdf:resource="http://purl.org/dc/dcmitype/StillImage" />
        <dc:title>
        </dc:title>
      </cc:Work>
    </rdf:RDF>
  </metadata>
  <sodipodi:namedview pagecolor="#ffffff" bordercolor="#666666" borderopacity="1" objecttolerance="10" gridtolerance="10" guidetolerance="10" inkscape:pageopacity="0" inkscape:pageshadow="2" inkscape:window-width="2160" inkscape:window-height="1360" id="namedview53" showgrid="false" inkscape:zoom="0.33110556" inkscape:cx="498.03916" inkscape:cy="8.1890497" inkscape:window-x="-11" inkscape:window-y="-11" inkscape:window-maximized="1" inkscape:current-layer="svg51" />
  <defs id="defs5">
    <clipPath id="sWaAxJDEtNBq">
      <path d="M 0,0 H 680 V 504 H 0 Z" id="path2" inkscape:connector-curvature="0" style="fill:none;stroke:none" />
    </clipPath>
  </defs>
  <rect x="0" y="0" width="500" height="330" id="rect7" fill="rgba(0,0,0,0)" />
  <g id="g1508" transform="matrix(0.99978837,0,0,0.99978776,0.0029147,0.0350196)" style="stroke-width:1.00021195">
    <g style="stroke-width:0.95175403" id="g23" transform="matrix(26.266648,0,0,26.279069,-259.10832,-125.54124)">
      <g style="stroke-width:0.95175403" id="g21" transform="translate(13.16,16.414445)">
        <path style="fill:#000000;stroke:none;stroke-width:0.95175403;paint-order:stroke fill markers" inkscape:connector-curvature="0" id="path19" d="m 0.455,-0.5 v 0 q 0,0.153 -0.078,0.31 -0.07,0.14 -0.155,0.185 -0.031,0.016 -0.06,0.016 -0.082,0 -0.11,-0.112 -0.01,-0.042 -0.01,-0.093 0,-0.157 0.08,-0.315 0.07,-0.137 0.155,-0.181 0.03,-0.015 0.058,-0.015 0.087,0 0.112,0.127 0.008,0.038 0.008,0.078 m -0.307,0.137 v 0 h 0.209 q 0.032,-0.132 0.032,-0.199 0,-0.113 -0.047,-0.12 -0.004,-0.001 -0.008,-0.001 -0.051,0 -0.109,0.105 -0.038,0.067 -0.076,0.21 0,0.003 -0.001,0.005 m 0.2,0.032 H 0.14 q -0.032,0.121 -0.032,0.198 0,0.12 0.054,0.122 0.056,0 0.116,-0.117 0.039,-0.074 0.07,-0.203 z" />
      </g>
    </g>
    <g style="stroke-width:0.95175403" id="g45" transform="matrix(26.266648,0,0,26.279069,-1454.1602,577.27415)">
      <g transform="translate(47.448644,-29.041368)" id="g1466" style="stroke-width:0.95175403">
        <g transform="translate(23.04,10.604004)" id="g27" style="stroke-width:0.95175403">
          <path d="m 0.072,-0.024 0.031,-0.053 q 0.046,0.038 0.103,0.038 0.064,0 0.1115,-0.0615 Q 0.365,-0.162 0.373,-0.277 0.341,-0.237 0.296,-0.2155 0.251,-0.194 0.204,-0.194 q -0.07,0 -0.116,-0.0705 -0.046,-0.0705 -0.046,-0.1695 0,-0.107 0.065,-0.177 0.063,-0.067 0.146,-0.067 0.036,0 0.0685,0.015 0.0325,0.015 0.0645,0.0505 0.032,0.0355 0.0515,0.107 0.0195,0.0715 0.0195,0.1705 0,0.158 -0.075,0.2575 -0.075,0.0995 -0.177,0.0995 -0.07,0 -0.133,-0.046 M 0.37,-0.435 Q 0.369,-0.46 0.364,-0.486 0.359,-0.512 0.348,-0.545 0.337,-0.578 0.312,-0.599 0.287,-0.62 0.253,-0.62 q -0.061,0 -0.1,0.057 -0.029,0.046 -0.029,0.129 0,0.078 0.023,0.119 0.034,0.06 0.096,0.06 0.057,0 0.0925,-0.046 0.0355,-0.046 0.0355,-0.11 0,-0.017 -0.001,-0.024 z" id="path25" inkscape:connector-curvature="0" style="fill:#000000;stroke:none;stroke-width:0.95175403;paint-order:stroke fill markers" />
        </g>
        <g transform="translate(23.540002,10.604004)" id="g31" style="stroke-width:0.95175403">
          <path d="m 0.457,-0.326 q 0,0.151 -0.04,0.238 Q 0.393,-0.036 0.3485,-0.007 0.304,0.022 0.249,0.022 0.217,0.022 0.1875,0.012 0.158,0.002 0.1265,-0.027 0.095,-0.056 0.076,-0.101 0.042,-0.184 0.042,-0.326 q 0,-0.152 0.038,-0.236 0.028,-0.062 0.074,-0.089 0.046,-0.027 0.096,-0.027 0.044,0 0.0885,0.0235 0.0445,0.0235 0.0725,0.0755 0.046,0.089 0.046,0.253 M 0.25,-0.039 q 0.08,0 0.111,-0.107 0.018,-0.063 0.018,-0.192 0,-0.129 -0.019,-0.185 Q 0.354,-0.538 0.3495,-0.5465 0.345,-0.555 0.332,-0.575 0.319,-0.595 0.2975,-0.606 0.276,-0.617 0.249,-0.617 q -0.08,0 -0.112,0.101 -0.017,0.055 -0.017,0.178 0,0.128 0.017,0.189 0.031,0.11 0.113,0.11 z" id="path29" inkscape:connector-curvature="0" style="fill:#000000;stroke:none;stroke-width:0.95175403;paint-order:stroke fill markers" />
        </g>
        <g transform="matrix(0.7,0,0,0.7,24.040004,10.191112)" id="g35" style="stroke-width:0.95175403">
          <path d="m 0.443,-0.25 v 0 q 0,0.089 -0.067,0.147 -0.055,0.047 -0.127,0.047 -0.088,0 -0.146,-0.068 -0.047,-0.055 -0.047,-0.126 0,-0.089 0.067,-0.147 0.055,-0.047 0.127,-0.047 0.088,0 0.146,0.068 0.047,0.055 0.047,0.126 M 0.25,-0.096 v 0 q 0.075,0 0.121,-0.06 0.032,-0.042 0.032,-0.094 0,-0.076 -0.06,-0.122 -0.041,-0.032 -0.093,-0.032 -0.077,0 -0.124,0.062 -0.03,0.041 -0.03,0.092 0,0.075 0.059,0.121 0.042,0.033 0.095,0.033 z" id="path33" inkscape:connector-curvature="0" style="fill:#000000;stroke:none;stroke-width:0.95175403;paint-order:stroke fill markers" />
        </g>
        <g transform="translate(24.632228,10.604004)" id="g39" style="stroke-width:0.95175403">
          <path d="M 0.661,-0.23 H 0.116 q -0.032,0 -0.033,-0.02 0,-0.02 0.033,-0.02 h 0.545 q 0.032,0 0.033,0.02 0,0.02 -0.033,0.02 z" id="path37" inkscape:connector-curvature="0" style="fill:#000000;stroke:none;stroke-width:0.95175403;paint-order:stroke fill markers" />
        </g>
        <g transform="translate(25.632232,10.604004)" id="g43" style="stroke-width:0.95175403">
          <path d="m 0.455,-0.5 v 0 q 0,0.153 -0.078,0.31 -0.07,0.14 -0.155,0.185 -0.031,0.016 -0.06,0.016 -0.082,0 -0.11,-0.112 -0.01,-0.042 -0.01,-0.093 0,-0.157 0.08,-0.315 0.07,-0.137 0.155,-0.181 0.03,-0.015 0.058,-0.015 0.087,0 0.112,0.127 0.008,0.038 0.008,0.078 m -0.307,0.137 v 0 h 0.209 q 0.032,-0.132 0.032,-0.199 0,-0.113 -0.047,-0.12 -0.004,-0.001 -0.008,-0.001 -0.051,0 -0.109,0.105 -0.038,0.067 -0.076,0.21 0,0.003 -0.001,0.005 m 0.2,0.032 H 0.14 q -0.032,0.121 -0.032,0.198 0,0.12 0.054,0.122 0.056,0 0.116,-0.117 0.039,-0.074 0.07,-0.203 z" id="path41" inkscape:connector-curvature="0" style="fill:#000000;stroke:none;stroke-width:0.95175403;paint-order:stroke fill markers" />
        </g>
      </g>
    </g>
    <path style="fill:none;stroke:#000000;stroke-width:2.50053;stroke-linecap:round;stroke-linejoin:round;stroke-miterlimit:10;stroke-opacity:1;paint-order:fill stroke markers" inkscape:connector-curvature="0" id="path9-8" stroke-miterlimit="10" d="M 486.23219,318.37957 V 11.62043" />
    <path style="fill:none;stroke:#000000;stroke-width:2.50053;stroke-linecap:round;stroke-linejoin:round;stroke-miterlimit:10;stroke-opacity:1;paint-order:fill stroke markers" inkscape:connector-curvature="0" id="path11-8" stroke-miterlimit="10" d="M 486.23219,11.62043 13.767808,318.37957" />
    <path style="fill:none;stroke:#000000;stroke-width:2.50053;stroke-linecap:round;stroke-linejoin:round;stroke-miterlimit:10;stroke-opacity:1;paint-order:fill stroke markers" inkscape:connector-curvature="0" id="path13-7" stroke-miterlimit="10" d="M 13.767808,318.37957 H 486.23219" />
    <path style="fill:none;stroke:#000000;stroke-width:2.50053;stroke-linecap:round;stroke-linejoin:round;stroke-miterlimit:10;stroke-opacity:1;paint-order:fill stroke markers" inkscape:connector-curvature="0" id="path15-7" stroke-miterlimit="10" d="M 463.69823,318.37957 V 295.85021" />
    <path style="fill:none;stroke:#000000;stroke-width:2.50053;stroke-linecap:round;stroke-linejoin:round;stroke-miterlimit:10;stroke-opacity:1;paint-order:fill stroke markers" inkscape:connector-curvature="0" id="path17-5" stroke-miterlimit="10" d="m 463.69823,295.85021 h 22.53396" />
  </g>
</svg>