<?xml version="1.0" encoding="UTF-8" standalone="no"?>
<svg
   xmlns:dc="http://purl.org/dc/elements/1.1/"
   xmlns:cc="http://creativecommons.org/ns#"
   xmlns:rdf="http://www.w3.org/1999/02/22-rdf-syntax-ns#"
   xmlns:svg="http://www.w3.org/2000/svg"
   xmlns="http://www.w3.org/2000/svg"
   xmlns:sodipodi="http://sodipodi.sourceforge.net/DTD/sodipodi-0.dtd"
   xmlns:inkscape="http://www.inkscape.org/namespaces/inkscape"
   version="1.1"
   width="500"
   height="300"
   id="svg35"
   sodipodi:docname="cofunction-definition.svg"
   inkscape:version="0.92.3 (2405546, 2018-03-11)"
   viewBox="0 0 500 300">
  <metadata
     id="metadata39">
    <rdf:RDF>
      <cc:Work
         rdf:about="">
        <dc:format>image/svg+xml</dc:format>
        <dc:type
           rdf:resource="http://purl.org/dc/dcmitype/StillImage" />
        <dc:title />
      </cc:Work>
    </rdf:RDF>
  </metadata>
  <sodipodi:namedview
     pagecolor="#ffffff"
     bordercolor="#666666"
     borderopacity="1"
     objecttolerance="10"
     gridtolerance="10"
     guidetolerance="10"
     inkscape:pageopacity="0"
     inkscape:pageshadow="2"
     inkscape:window-width="2160"
     inkscape:window-height="1360"
     id="namedview37"
     showgrid="false"
     inkscape:zoom="1.5275081"
     inkscape:cx="335.69272"
     inkscape:cy="3.8270167"
     inkscape:window-x="-11"
     inkscape:window-y="-11"
     inkscape:window-maximized="1"
     inkscape:current-layer="svg35" />
  <defs
     id="defs5">
    <clipPath
       id="smKOrTVPwmEw">
      <path
         d="M 0,0 H 503 V 309 H 0 Z"
         id="path2"
         inkscape:connector-curvature="0"
         style="fill:none;stroke:none" />
    </clipPath>
  </defs>
  <g
     id="g945">
    <rect
       id="rect7"
       height="300"
       width="500"
       y="0"
       x="0"
       fill="rgba(0,0,0,0)" />
    <g
       id="g934">
      <path
         d="M 21.267805,282.10964 478.7322,17.890357"
         stroke-miterlimit="10"
         id="path9"
         inkscape:connector-curvature="0"
         style="fill:none;stroke:#000000;stroke-width:2.5;stroke-linecap:round;stroke-linejoin:round;stroke-miterlimit:10;stroke-opacity:0.96347034;paint-order:fill stroke markers" />
      <path
         d="M 478.7322,17.890357 V 282.10964"
         stroke-miterlimit="10"
         id="path11"
         inkscape:connector-curvature="0"
         style="fill:none;stroke:#000000;stroke-width:2.5;stroke-linecap:round;stroke-linejoin:round;stroke-miterlimit:10;stroke-opacity:0.96347034;paint-order:fill stroke markers" />
      <path
         d="M 478.7322,282.10964 H 21.267805"
         stroke-miterlimit="10"
         id="path13"
         inkscape:connector-curvature="0"
         style="fill:none;stroke:#000000;stroke-width:2.5;stroke-linecap:round;stroke-linejoin:round;stroke-miterlimit:10;stroke-opacity:0.96347034;paint-order:fill stroke markers" />
      <path
         d="M 453.09941,282.10964 V 255.68772"
         stroke-miterlimit="10"
         id="path15"
         inkscape:connector-curvature="0"
         style="fill:none;stroke:#000000;stroke-width:2.5;stroke-linecap:round;stroke-linejoin:round;stroke-miterlimit:10;stroke-opacity:0.96347034;paint-order:fill stroke markers" />
      <path
         d="M 453.09941,255.68772 H 478.7322"
         stroke-miterlimit="10"
         id="path17"
         inkscape:connector-curvature="0"
         style="fill:none;stroke:#000000;stroke-width:2.5;stroke-linecap:round;stroke-linejoin:round;stroke-miterlimit:10;stroke-opacity:0.96347034;paint-order:fill stroke markers" />
      <path
         d="m 106.84867,262.95413 v 0 1.69921 q 1.78075,-2.21994 2.68482,-5.42652 0.27396,-0.54813 0.41094,-0.57554 0.32875,0 0.32875,0.27407 0,0.46591 -0.63011,2.0829 -0.93147,2.35698 -2.52044,4.35766 -0.27396,0.54814 -0.27396,0.95924 0,2.79548 0.84928,2.79548 0.84928,0 1.3698,-0.95924 0.0822,-0.16444 0.16438,-0.38369 0.10958,-0.27407 0.35615,-0.27407 0.32875,0 0.32875,0.27407 0,0.52073 -0.6849,1.2333 -0.7123,0.71257 -1.61637,0.71257 -1.72595,0 -2.38346,-1.89106 -0.0548,-0.19184 -0.10958,-0.4111 -2.87659,2.30216 -5.780576,2.30216 -2.575231,0 -3.780659,-2.0555 -0.657506,-1.12367 -0.657506,-2.57622 0,-2.79548 2.136895,-5.17986 2.109498,-2.35698 4.766916,-2.57623 0.24657,-0.0274 0.46573,-0.0274 2.30128,0 3.5615,1.80884 0,0.0274 0.0274,0.0274 0.98626,1.45255 0.98626,3.80953 m -1.83554,3.75471 v 0 q -0.0548,-0.46591 -0.0548,-3.06955 0,-3.37102 -0.73969,-4.60432 -0.32876,-0.54813 -0.79449,-0.8222 l -0.0274,-0.0274 v 0 h -0.0274 q -0.49313,-0.27407 -1.12324,-0.27407 -1.94512,0 -3.5067,2.19253 l -0.219168,0.32888 q -0.986259,1.58959 -1.451992,4.43988 -0.136981,0.76739 -0.136981,1.26071 0,2.30216 1.616369,2.85029 0.383545,0.13704 0.849278,0.13704 2.849194,0 5.616194,-2.41179 z"
         id="path19"
         inkscape:connector-curvature="0"
         style="fill:#000000;stroke:none;stroke-width:25;paint-order:stroke fill markers" />
      <path
         d="m 447.40934,76.284284 4.1642,-16.608442 q 0.79449,-3.12436 3.06837,-5.316894 2.13689,-2.028093 4.49295,-2.028093 2.27388,0 3.26014,1.80884 0.41094,0.767387 0.41094,1.699213 0,2.055501 -1.69856,3.782121 -0.57532,0.57554 -1.26022,0.98664 1.83554,1.260707 1.83554,3.809527 0,2.822887 -2.19169,5.152454 -2.1095,2.21994 -4.73952,2.411787 h -0.35615 q -2.65742,0 -3.89024,-2.0555 -0.32876,-0.548134 -0.49313,-1.15108 l -2.05471,8.030154 -0.0274,0.05481 q -0.10959,0.109627 -0.27397,0.109627 -0.32875,0 -0.32875,-0.274067 0,-0.08222 0.0822,-0.4111 m 8.21882,-15.621802 q 0.46574,0.16444 1.17804,0.16444 0.82188,0 1.31501,-0.219253 -0.35615,-0.16444 -1.09585,-0.16444 -0.95886,0 -1.3972,0.219253 m 3.34233,-0.548133 q 1.67116,-1.260707 2.0547,-4.275441 v -0.02741 -0.05481 q 0.0548,-0.383693 0.0548,-0.602946 0,-1.945874 -1.58897,-2.192534 -0.19177,-0.02741 -0.38354,-0.02741 -2.27388,0 -4.27379,2.110314 -1.89033,1.97328 -2.71221,5.207267 l -1.26022,5.070234 q -0.35615,1.425147 -0.35615,2.0555 0,2.247347 1.61637,3.343614 0.93146,0.65776 2.21908,0.65776 2.13689,0 3.67107,-2.30216 0.19178,-0.24666 0.32876,-0.520727 0.95886,-1.80884 1.28761,-4.412474 0.0548,-0.465913 0.0548,-0.767386 0,-1.452554 -0.82188,-2.302161 -0.87667,0.356287 -2.0547,0.356287 -1.86294,0 -1.86294,-0.712573 0,-0.877014 2.1369,-0.877014 1.12324,0 1.89033,0.274067 z"
         id="path25"
         inkscape:connector-curvature="0"
         style="fill:#000000;stroke:none;stroke-width:25;paint-order:stroke fill markers" />
    </g>
  </g>
</svg>
