<?xml version="1.0" encoding="UTF-8" standalone="no"?>
<svg xmlns:dc="http://purl.org/dc/elements/1.1/" xmlns:cc="http://creativecommons.org/ns#" xmlns:rdf="http://www.w3.org/1999/02/22-rdf-syntax-ns#" xmlns:svg="http://www.w3.org/2000/svg" xmlns="http://www.w3.org/2000/svg" xmlns:sodipodi="http://sodipodi.sourceforge.net/DTD/sodipodi-0.dtd" xmlns:inkscape="http://www.inkscape.org/namespaces/inkscape" version="1.1" width="630" height="320.06201" id="svg69" sodipodi:docname="similiar triangles.svg" inkscape:version="0.92.3 (2405546, 2018-03-11)" viewBox="0 0 630 320.06201">
  <metadata id="metadata73">
    <rdf:RDF>
      <cc:Work rdf:about="">
        <dc:format>image/svg+xml</dc:format>
        <dc:type rdf:resource="http://purl.org/dc/dcmitype/StillImage" />
        <dc:title>
        </dc:title>
        <dc:title>
        </dc:title>
      </cc:Work>
    </rdf:RDF>
  </metadata>
  <sodipodi:namedview pagecolor="#ffffff" bordercolor="#666666" borderopacity="1" objecttolerance="10" gridtolerance="10" guidetolerance="10" inkscape:pageopacity="0" inkscape:pageshadow="2" inkscape:window-width="2160" inkscape:window-height="1360" id="namedview71" showgrid="false" showguides="false" inkscape:zoom="0.80488827" inkscape:cx="-78.464205" inkscape:cy="100.25346" inkscape:window-x="-11" inkscape:window-y="-11" inkscape:window-maximized="1" inkscape:current-layer="svg69" />
  <defs id="defs5">
    <clipPath id="aNEmRQeJcFFu">
      <path d="M 0,0 H 624 V 320 H 0 Z" id="path2" inkscape:connector-curvature="0" style="fill:none;stroke:none" />
    </clipPath>
  </defs>
  <rect x="0" y="0.031005859" width="630" height="320" id="rect7" fill="rgba(0,0,0,0)" />
  <g id="g970" transform="matrix(1.0453803,0,0,1.0454826,-13.828316,-6.0555186)" style="stroke-width:0.95654291">
    <path style="fill:none;stroke:#000000;stroke-width:2.39135718;stroke-linecap:round;stroke-linejoin:round;stroke-miterlimit:10;stroke-opacity:0.69803922;paint-order:fill stroke markers" inkscape:connector-curvature="0" id="path9" stroke-miterlimit="10" d="M 43.95474,146.06496 V 275.56022" />
    <path style="fill:none;stroke:#000000;stroke-width:2.39135718;stroke-linecap:round;stroke-linejoin:round;stroke-miterlimit:10;stroke-opacity:0.69803922;paint-order:fill stroke markers" inkscape:connector-curvature="0" id="path11" stroke-miterlimit="10" d="M 43.95474,146.06496 216.61509,275.56022" />
    <path style="fill:none;stroke:#000000;stroke-width:2.39135718;stroke-linecap:round;stroke-linejoin:round;stroke-miterlimit:10;stroke-opacity:0.69803922;paint-order:fill stroke markers" inkscape:connector-curvature="0" id="path13" stroke-miterlimit="10" d="M 43.95474,275.56022 H 216.61509" />
    <path style="fill:none;stroke:#000000;stroke-width:2.39135718;stroke-linecap:round;stroke-linejoin:round;stroke-miterlimit:10;stroke-opacity:0.69803922;paint-order:fill stroke markers" inkscape:connector-curvature="0" id="path15" stroke-miterlimit="10" d="M 43.95474,253.97768 H 65.53729" />
    <path style="fill:none;stroke:#000000;stroke-width:2.39135718;stroke-linecap:round;stroke-linejoin:round;stroke-miterlimit:10;stroke-opacity:0.69803922;paint-order:fill stroke markers" inkscape:connector-curvature="0" id="path17" stroke-miterlimit="10" d="m 65.53729,253.97768 v 21.58254" />
    <path style="fill:none;stroke:#000000;stroke-width:2.39135718;stroke-linecap:round;stroke-linejoin:round;stroke-miterlimit:10;stroke-opacity:0.69803922;paint-order:fill stroke markers" inkscape:connector-curvature="0" id="path19" stroke-miterlimit="10" d="M 259.78018,16.56969 V 275.56022" />
    <path style="fill:none;stroke:#000000;stroke-width:2.39135718;stroke-linecap:round;stroke-linejoin:round;stroke-miterlimit:10;stroke-opacity:0.69803922;paint-order:fill stroke markers" inkscape:connector-curvature="0" id="path21" stroke-miterlimit="10" d="M 259.78018,16.56969 605.10089,275.56022" />
    <path style="fill:none;stroke:#000000;stroke-width:2.39135718;stroke-linecap:round;stroke-linejoin:round;stroke-miterlimit:10;stroke-opacity:0.69803922;paint-order:fill stroke markers" inkscape:connector-curvature="0" id="path23" stroke-miterlimit="10" d="M 259.78018,275.56022 H 605.10089" />
    <path style="fill:none;stroke:#000000;stroke-width:2.39135718;stroke-linecap:round;stroke-linejoin:round;stroke-miterlimit:10;stroke-opacity:0.69803922;paint-order:fill stroke markers" inkscape:connector-curvature="0" id="path25" stroke-miterlimit="10" d="m 259.78018,253.97768 h 21.58255" />
    <path style="fill:none;stroke:#000000;stroke-width:2.39135718;stroke-linecap:round;stroke-linejoin:round;stroke-miterlimit:10;stroke-opacity:0.69803922;paint-order:fill stroke markers" inkscape:connector-curvature="0" id="path27" stroke-miterlimit="10" d="m 281.36273,253.97768 v 21.58254" />
    <text style="font-style:normal;font-weight:normal;font-size:22px;font-family:geogebra-sans-serif, sans-serif;dominant-baseline:alphabetic;text-anchor:start;fill:#000000;fill-opacity:1;stroke:none;stroke-width:0.95654291" id="text29" dominant-baseline="alphabetic" y="302" x="121" text-decoration="normal" font-weight="normal" font-style="normal" font-size="22px">4</text>
    <text style="font-style:normal;font-weight:normal;font-size:22px;font-family:geogebra-sans-serif, sans-serif;dominant-baseline:alphabetic;text-anchor:start;fill:#000000;fill-opacity:1;stroke:none;stroke-width:0.95654291" id="text31" dominant-baseline="alphabetic" y="216" x="21" text-decoration="normal" font-weight="normal" font-style="normal" font-size="22px">3</text>
    <text style="font-style:normal;font-weight:normal;font-size:22px;font-family:geogebra-sans-serif, sans-serif;dominant-baseline:alphabetic;text-anchor:start;fill:#000000;fill-opacity:1;stroke:none;stroke-width:0.95654291" id="text33" dominant-baseline="alphabetic" y="195" x="131" text-decoration="normal" font-weight="normal" font-style="normal" font-size="22px">5</text>
    <text style="font-style:normal;font-weight:normal;font-size:22px;font-family:geogebra-sans-serif, sans-serif;dominant-baseline:alphabetic;text-anchor:start;fill:#000000;fill-opacity:1;stroke:none;stroke-width:0.95654291" id="text35" dominant-baseline="alphabetic" y="302" x="420" text-decoration="normal" font-weight="normal" font-style="normal" font-size="22px">8</text>
    <text style="font-style:normal;font-weight:normal;font-size:22px;font-family:geogebra-sans-serif, sans-serif;dominant-baseline:alphabetic;text-anchor:start;fill:#000000;fill-opacity:1;stroke:none;stroke-width:0.95654291" id="text37" dominant-baseline="alphabetic" y="155" x="237" text-decoration="normal" font-weight="normal" font-style="normal" font-size="22px">6</text>
    <text style="font-style:normal;font-weight:normal;font-size:22px;font-family:geogebra-sans-serif, sans-serif;dominant-baseline:alphabetic;text-anchor:start;fill:#000000;fill-opacity:1;stroke:none;stroke-width:0.95654291" id="text39" dominant-baseline="alphabetic" y="123" x="422" text-decoration="normal" font-weight="normal" font-style="normal" font-size="22px">10</text>
    <g id="g45" transform="matrix(25,0,0,25,-130,-95)" style="stroke-width:0.95654291">
      <g id="g43" transform="translate(7.28,11.110555)" style="stroke-width:0.95654291">
        <path style="fill:#000000;stroke:none;stroke-width:0.95654291;paint-order:stroke fill markers" inkscape:connector-curvature="0" id="path41" d="m 0.477,-0.236 v 0 0.062 q 0.065,-0.081 0.098,-0.198 0.01,-0.02 0.015,-0.021 0.012,0 0.012,0.01 0,0.017 -0.023,0.076 -0.034,0.086 -0.092,0.159 -0.01,0.02 -0.01,0.035 0,0.102 0.031,0.102 0.031,0 0.05,-0.035 0.003,-0.006 0.006,-0.014 0.004,-0.01 0.013,-0.01 0.012,0 0.012,0.01 0,0.019 -0.025,0.045 -0.026,0.026 -0.059,0.026 -0.063,0 -0.087,-0.069 -0.002,-0.007 -0.004,-0.015 -0.105,0.084 -0.211,0.084 -0.094,0 -0.138,-0.075 -0.024,-0.041 -0.024,-0.094 0,-0.102 0.078,-0.189 0.077,-0.086 0.174,-0.094 0.009,-0.001 0.017,-0.001 0.084,0 0.13,0.066 0,0.001 0.001,0.001 0.036,0.053 0.036,0.139 M 0.41,-0.099 v 0 q -0.002,-0.017 -0.002,-0.112 0,-0.123 -0.027,-0.168 -0.012,-0.02 -0.029,-0.03 L 0.351,-0.41 v 0 H 0.35 q -0.018,-0.01 -0.041,-0.01 -0.071,0 -0.128,0.08 L 0.173,-0.328 Q 0.137,-0.27 0.12,-0.166 0.115,-0.138 0.115,-0.12 q 0,0.084 0.059,0.104 0.014,0.005 0.031,0.005 0.104,0 0.205,-0.088 z" />
      </g>
    </g>
    <g id="g51" transform="matrix(25,0,0,25,-134,-95)" style="stroke-width:0.95654291">
      <g id="g49" transform="translate(16.08,6.110555)" style="stroke-width:0.95654291">
        <path style="fill:#000000;stroke:none;stroke-width:0.95654291;paint-order:stroke fill markers" inkscape:connector-curvature="0" id="path47" d="m 0.477,-0.236 v 0 0.062 q 0.065,-0.081 0.098,-0.198 0.01,-0.02 0.015,-0.021 0.012,0 0.012,0.01 0,0.017 -0.023,0.076 -0.034,0.086 -0.092,0.159 -0.01,0.02 -0.01,0.035 0,0.102 0.031,0.102 0.031,0 0.05,-0.035 0.003,-0.006 0.006,-0.014 0.004,-0.01 0.013,-0.01 0.012,0 0.012,0.01 0,0.019 -0.025,0.045 -0.026,0.026 -0.059,0.026 -0.063,0 -0.087,-0.069 -0.002,-0.007 -0.004,-0.015 -0.105,0.084 -0.211,0.084 -0.094,0 -0.138,-0.075 -0.024,-0.041 -0.024,-0.094 0,-0.102 0.078,-0.189 0.077,-0.086 0.174,-0.094 0.009,-0.001 0.017,-0.001 0.084,0 0.13,0.066 0,0.001 0.001,0.001 0.036,0.053 0.036,0.139 M 0.41,-0.099 v 0 q -0.002,-0.017 -0.002,-0.112 0,-0.123 -0.027,-0.168 -0.012,-0.02 -0.029,-0.03 L 0.351,-0.41 v 0 H 0.35 q -0.018,-0.01 -0.041,-0.01 -0.071,0 -0.128,0.08 L 0.173,-0.328 Q 0.137,-0.27 0.12,-0.166 0.115,-0.138 0.115,-0.12 q 0,0.084 0.059,0.104 0.014,0.005 0.031,0.005 0.104,0 0.205,-0.088 z" />
      </g>
    </g>
    <g id="g57" transform="matrix(25,0,0,25,-130,-93)" style="stroke-width:0.95654291">
      <g id="g55" transform="translate(11.48,14.374445)" style="stroke-width:0.95654291">
        <path style="fill:#000000;stroke:none;stroke-width:0.95654291;paint-order:stroke fill markers" inkscape:connector-curvature="0" id="path53" d="M 0.028,0.169 0.18,-0.437 q 0.029,-0.114 0.112,-0.194 0.078,-0.074 0.164,-0.074 0.083,0 0.119,0.066 0.015,0.028 0.015,0.062 0,0.075 -0.062,0.138 -0.021,0.021 -0.046,0.036 0.067,0.046 0.067,0.139 0,0.103 -0.08,0.188 Q 0.392,0.005 0.296,0.012 H 0.283 q -0.097,0 -0.142,-0.075 -0.012,-0.02 -0.018,-0.042 L 0.048,0.188 0.047,0.19 q -0.004,0.004 -0.01,0.004 -0.012,0 -0.012,-0.01 0,-0.003 0.003,-0.015 m 0.3,-0.57 q 0.017,0.006 0.043,0.006 0.03,0 0.048,-0.008 -0.013,-0.006 -0.04,-0.006 -0.035,0 -0.051,0.008 M 0.45,-0.421 Q 0.511,-0.467 0.525,-0.577 V -0.578 -0.58 q 0.002,-0.014 0.002,-0.022 0,-0.071 -0.058,-0.08 -0.007,-0.001 -0.014,-0.001 -0.083,0 -0.156,0.077 -0.069,0.072 -0.099,0.19 l -0.046,0.185 q -0.013,0.052 -0.013,0.075 0,0.082 0.059,0.122 0.034,0.024 0.081,0.024 0.078,0 0.134,-0.084 0.007,-0.009 0.012,-0.019 0.035,-0.066 0.047,-0.161 0.002,-0.017 0.002,-0.028 0,-0.053 -0.03,-0.084 -0.032,0.013 -0.075,0.013 -0.068,0 -0.068,-0.026 0,-0.032 0.078,-0.032 0.041,0 0.069,0.01 z" />
      </g>
    </g>
    <g id="g63" transform="matrix(25,0,0,25,-130,-93)" style="stroke-width:0.95654291">
      <g id="g61" transform="translate(26.8,14.334445)" style="stroke-width:0.95654291">
        <path style="fill:#000000;stroke:none;stroke-width:0.95654291;paint-order:stroke fill markers" inkscape:connector-curvature="0" id="path59" d="M 0.028,0.169 0.18,-0.437 q 0.029,-0.114 0.112,-0.194 0.078,-0.074 0.164,-0.074 0.083,0 0.119,0.066 0.015,0.028 0.015,0.062 0,0.075 -0.062,0.138 -0.021,0.021 -0.046,0.036 0.067,0.046 0.067,0.139 0,0.103 -0.08,0.188 Q 0.392,0.005 0.296,0.012 H 0.283 q -0.097,0 -0.142,-0.075 -0.012,-0.02 -0.018,-0.042 L 0.048,0.188 0.047,0.19 q -0.004,0.004 -0.01,0.004 -0.012,0 -0.012,-0.01 0,-0.003 0.003,-0.015 m 0.3,-0.57 q 0.017,0.006 0.043,0.006 0.03,0 0.048,-0.008 -0.013,-0.006 -0.04,-0.006 -0.035,0 -0.051,0.008 M 0.45,-0.421 Q 0.511,-0.467 0.525,-0.577 V -0.578 -0.58 q 0.002,-0.014 0.002,-0.022 0,-0.071 -0.058,-0.08 -0.007,-0.001 -0.014,-0.001 -0.083,0 -0.156,0.077 -0.069,0.072 -0.099,0.19 l -0.046,0.185 q -0.013,0.052 -0.013,0.075 0,0.082 0.059,0.122 0.034,0.024 0.081,0.024 0.078,0 0.134,-0.084 0.007,-0.009 0.012,-0.019 0.035,-0.066 0.047,-0.161 0.002,-0.017 0.002,-0.028 0,-0.053 -0.03,-0.084 -0.032,0.013 -0.075,0.013 -0.068,0 -0.068,-0.026 0,-0.032 0.078,-0.032 0.041,0 0.069,0.01 z" />
      </g>
    </g>
  </g>
</svg>