<?xml version="1.0" encoding="UTF-8" standalone="no"?>
<svg xmlns:dc="http://purl.org/dc/elements/1.1/" xmlns:cc="http://creativecommons.org/ns#" xmlns:rdf="http://www.w3.org/1999/02/22-rdf-syntax-ns#" xmlns:svg="http://www.w3.org/2000/svg" xmlns="http://www.w3.org/2000/svg" xmlns:sodipodi="http://sodipodi.sourceforge.net/DTD/sodipodi-0.dtd" xmlns:inkscape="http://www.inkscape.org/namespaces/inkscape" version="1.1" width="610" height="311" viewBox="0 0 610 311" id="svg69" sodipodi:docname="similiar-triangles.svg" inkscape:version="0.92.3 (2405546, 2018-03-11)">
  <metadata id="metadata73">
    <rdf:RDF>
      <cc:Work rdf:about="">
        <dc:format>image/svg+xml</dc:format>
        <dc:type rdf:resource="http://purl.org/dc/dcmitype/StillImage" />
        <dc:title />
      </cc:Work>
    </rdf:RDF>
  </metadata>
  <sodipodi:namedview pagecolor="#ffffff" bordercolor="#666666" borderopacity="1" objecttolerance="10" gridtolerance="10" guidetolerance="10" inkscape:pageopacity="0" inkscape:pageshadow="2" inkscape:window-width="2160" inkscape:window-height="1360" id="namedview71" showgrid="false" inkscape:zoom="1.3836066" inkscape:cx="160.96614" inkscape:cy="239.12353" inkscape:window-x="-11" inkscape:window-y="-11" inkscape:window-maximized="1" inkscape:current-layer="svg69" />
  <defs id="defs5">
    <clipPath id="PtHAchhUTvzI">
      <path fill="none" stroke="none" d=" M 0 0 L 610 0 L 610 311 L 0 311 L 0 0 Z" id="path2" />
    </clipPath>
  </defs>
  <path d="M 34.95474,147.06496 V 276.56022" stroke-miterlimit="10" id="path9" inkscape:connector-curvature="0" style="fill:none;stroke:#000000;stroke-width:2.5;stroke-linecap:round;stroke-linejoin:round;stroke-miterlimit:10;stroke-opacity:0.96803653;paint-order:fill stroke markers" />
  <path d="M 34.95474,147.06496 207.61509,276.56022" stroke-miterlimit="10" id="path11" inkscape:connector-curvature="0" style="fill:none;stroke:#000000;stroke-width:2.5;stroke-linecap:round;stroke-linejoin:round;stroke-miterlimit:10;stroke-opacity:0.96803653;paint-order:fill stroke markers" />
  <path d="M 34.95474,276.56022 H 207.61509" stroke-miterlimit="10" id="path13" inkscape:connector-curvature="0" style="fill:none;stroke:#000000;stroke-width:2.5;stroke-linecap:round;stroke-linejoin:round;stroke-miterlimit:10;stroke-opacity:0.96803653;paint-order:fill stroke markers" />
  <path d="M 34.95474,254.97768 H 56.53729" stroke-miterlimit="10" id="path15" inkscape:connector-curvature="0" style="fill:none;stroke:#000000;stroke-width:2.5;stroke-linecap:round;stroke-linejoin:round;stroke-miterlimit:10;stroke-opacity:0.96803653;paint-order:fill stroke markers" />
  <path d="m 56.53729,254.97768 v 21.58254" stroke-miterlimit="10" id="path17" inkscape:connector-curvature="0" style="fill:none;stroke:#000000;stroke-width:2.5;stroke-linecap:round;stroke-linejoin:round;stroke-miterlimit:10;stroke-opacity:0.96803653;paint-order:fill stroke markers" />
  <path d="M 250.78018,17.56969 V 276.56022" stroke-miterlimit="10" id="path19" inkscape:connector-curvature="0" style="fill:none;stroke:#000000;stroke-width:2.5;stroke-linecap:round;stroke-linejoin:round;stroke-miterlimit:10;stroke-opacity:0.86757994;paint-order:fill stroke markers" />
  <path d="M 250.78018,17.56969 596.10089,276.56022" stroke-miterlimit="10" id="path21" inkscape:connector-curvature="0" style="fill:none;stroke:#000000;stroke-width:2.5;stroke-linecap:round;stroke-linejoin:round;stroke-miterlimit:10;stroke-opacity:0.86757994;paint-order:fill stroke markers" />
  <path d="M 250.78018,276.56022 H 596.10089" stroke-miterlimit="10" id="path23" inkscape:connector-curvature="0" style="fill:none;stroke:#000000;stroke-width:2.5;stroke-linecap:round;stroke-linejoin:round;stroke-miterlimit:10;stroke-opacity:0.86757994;paint-order:fill stroke markers" />
  <path d="m 250.78018,254.97768 h 21.58255" stroke-miterlimit="10" id="path25" inkscape:connector-curvature="0" style="fill:none;stroke:#000000;stroke-width:2.5;stroke-linecap:round;stroke-linejoin:round;stroke-miterlimit:10;stroke-opacity:0.86757994;paint-order:fill stroke markers" />
  <path d="m 272.36273,254.97768 v 21.58254" stroke-miterlimit="10" id="path27" inkscape:connector-curvature="0" style="fill:none;stroke:#000000;stroke-width:2.5;stroke-linecap:round;stroke-linejoin:round;stroke-miterlimit:10;stroke-opacity:0.86757994;paint-order:fill stroke markers" />
  <text fill="rgba(0,0,0,255)" font-size="16px" font-style="normal" font-weight="normal" text-decoration="normal" x="117" y="298" dominant-baseline="alphabetic" id="text29" style="font-style:normal;font-weight:normal;font-size:16px;font-family:geogebra-sans-serif, sans-serif;dominant-baseline:alphabetic;text-anchor:start;fill-opacity:1;stroke:none">4</text>
  <text fill="rgba(0,0,0,255)" font-size="16px" font-style="normal" font-weight="normal" text-decoration="normal" x="14" y="220" dominant-baseline="alphabetic" id="text31" style="font-style:normal;font-weight:normal;font-size:16px;font-family:geogebra-sans-serif, sans-serif;dominant-baseline:alphabetic;text-anchor:start;fill-opacity:1;stroke:none">3</text>
  <text fill="rgba(0,0,0,255)" font-size="16px" font-style="normal" font-weight="normal" text-decoration="normal" x="125" y="199" dominant-baseline="alphabetic" id="text33" style="font-style:normal;font-weight:normal;font-size:16px;font-family:geogebra-sans-serif, sans-serif;dominant-baseline:alphabetic;text-anchor:start;fill-opacity:1;stroke:none">5</text>
  <text fill="rgba(0,0,0,255)" font-size="16px" font-style="normal" font-weight="normal" text-decoration="normal" x="419" y="299" dominant-baseline="alphabetic" id="text35" style="font-style:normal;font-weight:normal;font-size:16px;font-family:geogebra-sans-serif, sans-serif;dominant-baseline:alphabetic;text-anchor:start;fill-opacity:1;stroke:none">8</text>
  <text fill="rgba(0,0,0,255)" font-size="16px" font-style="normal" font-weight="normal" text-decoration="normal" x="233" y="163" dominant-baseline="alphabetic" id="text37" style="font-style:normal;font-weight:normal;font-size:16px;font-family:geogebra-sans-serif, sans-serif;dominant-baseline:alphabetic;text-anchor:start;fill-opacity:1;stroke:none">6</text>
  <text fill="rgba(0,0,0,255)" font-size="16px" font-style="normal" font-weight="normal" text-decoration="normal" x="413" y="124" dominant-baseline="alphabetic" id="text39" style="font-style:normal;font-weight:normal;font-size:16px;font-family:geogebra-sans-serif, sans-serif;dominant-baseline:alphabetic;text-anchor:start;fill-opacity:1;stroke:none">10</text>
  <path d="m 50.062991,171.69655 v 0 1.178 q 1.235,-1.539 1.862,-3.762 0.19,-0.38 0.285,-0.399 0.228,0 0.228,0.19 0,0.323 -0.437,1.444 -0.646,1.634 -1.748,3.021 -0.19,0.38 -0.19,0.665 0,1.938 0.589,1.938 0.589,0 0.95,-0.665 0.057,-0.114 0.114,-0.266 0.076,-0.19 0.247,-0.19 0.228,0 0.228,0.19 0,0.361 -0.475,0.855 -0.494,0.494 -1.121,0.494 -1.197,0 -1.653,-1.311 -0.038,-0.133 -0.076,-0.285 -1.995,1.596 -4.009,1.596 -1.786,0 -2.622,-1.425 -0.456,-0.779 -0.456,-1.786 0,-1.938 1.482,-3.591 1.463,-1.634 3.306,-1.786 0.171,-0.019 0.323,-0.019 1.596,0 2.47,1.254 0,0.019 0.019,0.019 0.684,1.007 0.684,2.641 m -1.273,2.603 v 0 q -0.038,-0.323 -0.038,-2.128 0,-2.337 -0.513,-3.192 -0.228,-0.38 -0.551,-0.57 l -0.019,-0.019 v 0 h -0.019 q -0.342,-0.19 -0.779,-0.19 -1.349,0 -2.432,1.52 l -0.152,0.228 q -0.684,1.102 -1.007,3.078 -0.095,0.532 -0.095,0.874 0,1.596 1.121,1.976 0.266,0.095 0.589,0.095 1.976,0 3.895,-1.672 z" id="path41" inkscape:connector-curvature="0" style="fill:#000000;stroke:none;stroke-width:19;paint-order:stroke fill markers" />
  <path d="m 265.063,41.696545 v 0 1.178 q 1.235,-1.539 1.862,-3.762 0.19,-0.38 0.285,-0.399 0.228,0 0.228,0.19 0,0.323 -0.437,1.444 -0.646,1.634 -1.748,3.021 -0.19,0.38 -0.19,0.665 0,1.938 0.589,1.938 0.589,0 0.95,-0.665 0.057,-0.114 0.114,-0.266 0.076,-0.19 0.247,-0.19 0.228,0 0.228,0.19 0,0.361 -0.475,0.855 -0.494,0.494 -1.121,0.494 -1.197,0 -1.653,-1.311 -0.038,-0.133 -0.076,-0.285 -1.995,1.596 -4.009,1.596 -1.786,0 -2.622,-1.425 -0.456,-0.779 -0.456,-1.786 0,-1.938 1.482,-3.591 1.463,-1.634 3.306,-1.786 0.171,-0.019 0.323,-0.019 1.596,0 2.47,1.254 0,0.019 0.019,0.019 0.684,1.007 0.684,2.641 m -1.273,2.603 v 0 q -0.038,-0.323 -0.038,-2.128 0,-2.337 -0.513,-3.192 -0.228,-0.38 -0.551,-0.57 l -0.019,-0.019 v 0 h -0.019 q -0.342,-0.19 -0.779,-0.19 -1.349,0 -2.432,1.52 l -0.152,0.228 q -0.684,1.102 -1.007,3.078 -0.095,0.532 -0.095,0.874 0,1.596 1.121,1.976 0.266,0.095 0.589,0.095 1.976,0 3.895,-1.672 z" id="path47" inkscape:connector-curvature="0" style="fill:#000000;stroke:none;stroke-width:19;paint-order:stroke fill markers" />
  <path d="m 163.532,273.40545 2.888,-11.514 q 0.551,-2.166 2.128,-3.686 1.482,-1.406 3.116,-1.406 1.577,0 2.261,1.254 0.285,0.532 0.285,1.178 0,1.425 -1.178,2.622 -0.399,0.399 -0.874,0.684 1.273,0.874 1.273,2.641 0,1.957 -1.52,3.572 -1.463,1.539 -3.287,1.672 h -0.247 q -1.843,0 -2.698,-1.425 -0.228,-0.38 -0.342,-0.798 l -1.425,5.567 -0.019,0.038 q -0.076,0.076 -0.19,0.076 -0.228,0 -0.228,-0.19 0,-0.057 0.057,-0.285 m 5.7,-10.83 q 0.323,0.114 0.817,0.114 0.57,0 0.912,-0.152 -0.247,-0.114 -0.76,-0.114 -0.665,0 -0.969,0.152 m 2.318,-0.38 q 1.159,-0.874 1.425,-2.964 v -0.019 -0.038 q 0.038,-0.266 0.038,-0.418 0,-1.349 -1.102,-1.52 -0.133,-0.019 -0.266,-0.019 -1.577,0 -2.964,1.463 -1.311,1.368 -1.881,3.61 l -0.874,3.515 q -0.247,0.988 -0.247,1.425 0,1.558 1.121,2.318 0.646,0.456 1.539,0.456 1.482,0 2.546,-1.596 0.133,-0.171 0.228,-0.361 0.665,-1.254 0.893,-3.059 0.038,-0.323 0.038,-0.532 0,-1.007 -0.57,-1.596 -0.608,0.247 -1.425,0.247 -1.292,0 -1.292,-0.494 0,-0.608 1.482,-0.608 0.779,0 1.311,0.19 z" id="path53" inkscape:connector-curvature="0" style="fill:#000000;stroke:none;stroke-width:19;paint-order:stroke fill markers" />
  <path d="m 553.532,273.40545 2.888,-11.514 q 0.551,-2.166 2.128,-3.686 1.482,-1.406 3.116,-1.406 1.577,0 2.261,1.254 0.285,0.532 0.285,1.178 0,1.425 -1.178,2.622 -0.399,0.399 -0.874,0.684 1.273,0.874 1.273,2.641 0,1.957 -1.52,3.572 -1.463,1.539 -3.287,1.672 h -0.247 q -1.843,0 -2.698,-1.425 -0.228,-0.38 -0.342,-0.798 l -1.425,5.567 -0.019,0.038 q -0.076,0.076 -0.19,0.076 -0.228,0 -0.228,-0.19 0,-0.057 0.057,-0.285 m 5.7,-10.83 q 0.323,0.114 0.817,0.114 0.57,0 0.912,-0.152 -0.247,-0.114 -0.76,-0.114 -0.665,0 -0.969,0.152 m 2.318,-0.38 q 1.159,-0.874 1.425,-2.964 v -0.019 -0.038 q 0.038,-0.266 0.038,-0.418 0,-1.349 -1.102,-1.52 -0.133,-0.019 -0.266,-0.019 -1.577,0 -2.964,1.463 -1.311,1.368 -1.881,3.61 l -0.874,3.515 q -0.247,0.988 -0.247,1.425 0,1.558 1.121,2.318 0.646,0.456 1.539,0.456 1.482,0 2.546,-1.596 0.133,-0.171 0.228,-0.361 0.665,-1.254 0.893,-3.059 0.038,-0.323 0.038,-0.532 0,-1.007 -0.57,-1.596 -0.608,0.247 -1.425,0.247 -1.292,0 -1.292,-0.494 0,-0.608 1.482,-0.608 0.779,0 1.311,0.19 z" id="path59" inkscape:connector-curvature="0" style="fill:#000000;stroke:none;stroke-width:19;paint-order:stroke fill markers" />
  <rect id="rect841" width="609" height="310" x="0.5" y="0.5" fill="rgba(0,0,0,0)" />
</svg>