<?xml version="1.0" encoding="UTF-8" standalone="no"?>
<svg xmlns:dc="http://purl.org/dc/elements/1.1/" xmlns:cc="http://creativecommons.org/ns#" xmlns:rdf="http://www.w3.org/1999/02/22-rdf-syntax-ns#" xmlns:svg="http://www.w3.org/2000/svg" xmlns="http://www.w3.org/2000/svg" xmlns:sodipodi="http://sodipodi.sourceforge.net/DTD/sodipodi-0.dtd" xmlns:inkscape="http://www.inkscape.org/namespaces/inkscape" version="1.1" width="316" height="255" id="svg63" sodipodi:docname="solving-right-triangles-example-2.svg" inkscape:version="0.92.3 (2405546, 2018-03-11)" viewBox="0 0 316 255">
  <metadata id="metadata67">
    <rdf:RDF>
      <cc:Work rdf:about="">
        <dc:format>image/svg+xml</dc:format>
        <dc:type rdf:resource="http://purl.org/dc/dcmitype/StillImage" />
        <dc:title>
        </dc:title>
      </cc:Work>
    </rdf:RDF>
  </metadata>
  <sodipodi:namedview pagecolor="#ffffff" bordercolor="#666666" borderopacity="1" objecttolerance="10" gridtolerance="10" guidetolerance="10" inkscape:pageopacity="0" inkscape:pageshadow="2" inkscape:window-width="1920" inkscape:window-height="1057" id="namedview65" showgrid="false" inkscape:zoom="0.9044586" inkscape:cx="157" inkscape:cy="108.5" inkscape:window-x="1912" inkscape:window-y="-8" inkscape:window-maximized="1" inkscape:current-layer="svg63" />
  <defs id="defs5">
    <clipPath id="bepmDuxCmtTJ">
      <path d="M 0,0 H 314 V 217 H 0 Z" id="path2" inkscape:connector-curvature="0" style="fill:none;stroke:none" />
    </clipPath>
  </defs>
  <rect id="rect957" width="316" height="255" x="0" y="0" fill="rgba(0,0,0,0)" />
  <g id="g955" transform="translate(-0.2534975,-18.969514)">
    <path style="fill:none;stroke:#000000;stroke-width:2.5;stroke-linecap:round;stroke-linejoin:round;stroke-miterlimit:10;stroke-opacity:1;paint-order:fill stroke markers" inkscape:connector-curvature="0" id="path9" stroke-miterlimit="10" d="M 29.51338,222.55487 H 286.52979" />
    <path style="fill:none;stroke:#000000;stroke-width:2.5;stroke-linecap:round;stroke-linejoin:round;stroke-miterlimit:10;stroke-opacity:1;paint-order:fill stroke markers" inkscape:connector-curvature="0" id="path11" stroke-miterlimit="10" d="M 286.52979,222.55487 V 68.34502" />
    <path style="fill:none;stroke:#000000;stroke-width:2.5;stroke-linecap:round;stroke-linejoin:round;stroke-miterlimit:10;stroke-opacity:1;paint-order:fill stroke markers" inkscape:connector-curvature="0" id="path13" stroke-miterlimit="10" d="M 286.52979,68.34502 29.51338,222.55487" />
    <path style="fill:none;stroke:#000000;stroke-width:2.5;stroke-linecap:round;stroke-linejoin:round;stroke-miterlimit:10;stroke-opacity:1;paint-order:fill stroke markers" inkscape:connector-curvature="0" id="path15" stroke-miterlimit="10" d="M 263.39832,222.55487 V 199.42339" />
    <path style="fill:none;stroke:#000000;stroke-width:2.5;stroke-linecap:round;stroke-linejoin:round;stroke-miterlimit:10;stroke-opacity:1;paint-order:fill stroke markers" inkscape:connector-curvature="0" id="path17" stroke-miterlimit="10" d="m 263.39832,199.42339 h 23.13147" />
    <g id="g27" transform="matrix(19,0,0,19,-387,-231)">
      <g id="g21" transform="translate(28.263158,25.023977)">
        <path style="fill:#000000;stroke:none;paint-order:stroke fill markers" inkscape:connector-curvature="0" id="path19" d="m 0.299,-0.678 v 0.62 H 0.424 V 0 H 0.095 V -0.058 H 0.22 v -0.52 q -0.051,0.022 -0.131,0.024 v -0.058 q 0.131,-0.005 0.19,-0.066 z" />
      </g>
      <g id="g25" transform="translate(28.76316,25.023977)">
        <path style="fill:#000000;stroke:none;paint-order:stroke fill markers" inkscape:connector-curvature="0" id="path23" d="m 0.457,-0.326 q 0,0.151 -0.04,0.238 Q 0.393,-0.036 0.3485,-0.007 0.304,0.022 0.249,0.022 0.217,0.022 0.1875,0.012 0.158,0.002 0.1265,-0.027 0.095,-0.056 0.076,-0.101 0.042,-0.184 0.042,-0.326 q 0,-0.152 0.038,-0.236 0.028,-0.062 0.074,-0.089 0.046,-0.027 0.096,-0.027 0.044,0 0.0885,0.0235 0.0445,0.0235 0.0725,0.0755 0.046,0.089 0.046,0.253 M 0.25,-0.039 q 0.08,0 0.111,-0.107 0.018,-0.063 0.018,-0.192 0,-0.129 -0.019,-0.185 Q 0.354,-0.538 0.3495,-0.5465 0.345,-0.555 0.332,-0.575 0.319,-0.595 0.2975,-0.606 0.276,-0.617 0.249,-0.617 q -0.08,0 -0.112,0.101 -0.017,0.055 -0.017,0.178 0,0.128 0.017,0.189 0.031,0.11 0.113,0.11 z" />
      </g>
    </g>
    <g id="g33" transform="matrix(19,0,0,19,-387,-231)">
      <g id="g31" transform="translate(35.947368,20.181872)">
        <path style="fill:#000000;stroke:none;paint-order:stroke fill markers" inkscape:connector-curvature="0" id="path29" d="m 0.415,-0.658 v 0.059 Q 0.362,-0.62 0.31,-0.62 0.238,-0.62 0.1865,-0.5575 0.135,-0.495 0.126,-0.379 q 0.068,-0.083 0.169,-0.083 0.07,0 0.116,0.0705 0.046,0.0705 0.046,0.1695 0,0.058 -0.0145,0.0975 Q 0.428,-0.085 0.393,-0.046 0.334,0.022 0.251,0.022 0.223,0.022 0.1965,0.014 0.17,0.006 0.141,-0.0175 0.112,-0.041 0.091,-0.078 0.07,-0.115 0.056,-0.178 0.042,-0.241 0.042,-0.322 q 0,-0.157 0.079,-0.2565 0.079,-0.0995 0.188,-0.0995 0.055,0 0.106,0.02 m -0.288,0.439 q 0.002,0.023 0.0065,0.044 0.0045,0.021 0.0165,0.0565 0.012,0.0355 0.038,0.0575 0.026,0.022 0.063,0.022 0.062,0 0.1,-0.062 0.024,-0.041 0.024,-0.121 0,-0.076 -0.023,-0.117 -0.034,-0.062 -0.096,-0.062 -0.059,0 -0.0935,0.047 -0.0345,0.047 -0.0345,0.107 -0.001,0.012 -0.001,0.028 z" />
      </g>
    </g>
    <g id="g39" transform="matrix(19,0,0,19,-387,-231)">
      <g id="g37" transform="translate(28.421053,19.076024)">
        <path style="fill:#a38f8c;stroke:none;paint-order:stroke fill markers" inkscape:connector-curvature="0" id="path35" d="M 0.414,-0.219 H 0.105 q 0.002,0.073 0.0445,0.121 0.0425,0.048 0.1025,0.048 0.084,0 0.152,-0.056 l 0.006,0.065 q -0.072,0.052 -0.159,0.052 -0.09,0 -0.153,-0.069 -0.063,-0.069 -0.063,-0.168 0,-0.097 0.059,-0.166 0.059,-0.069 0.142,-0.069 0.09,0 0.138,0.073 0.04,0.062 0.04,0.169 M 0.11,-0.274 H 0.357 Q 0.348,-0.338 0.314,-0.369 0.28,-0.4 0.236,-0.4 0.193,-0.4 0.1575,-0.365 0.122,-0.33 0.11,-0.274 Z" />
      </g>
    </g>
    <g id="g45" transform="matrix(19,0,0,19,-387,-231)">
      <g id="g43" transform="translate(35.842105,15.378656)">
        <path style="fill:#a38f8c;stroke:none;paint-order:stroke fill markers" inkscape:connector-curvature="0" id="path41" d="M 0.485,-0.315 H 0.183 V 0 H 0.094 v -0.691 h 0.432 v 0.065 H 0.35 q -0.006,0 -0.018,-5e-4 -0.012,-5e-4 -0.018,-5e-4 H 0.183 v 0.251 h 0.302 z" />
      </g>
    </g>
    <g id="g51" transform="matrix(19,0,0,19,-387,-231)">
      <g id="g49" transform="translate(35.789474,25.010234)">
        <path style="fill:#000000;stroke:none;paint-order:stroke fill markers" inkscape:connector-curvature="0" id="path47" d="m 0.513,-0.329 h -0.33 v 0.259 h 0.209 q 0.006,0 0.018,-5e-4 0.012,-5e-4 0.018,-5e-4 H 0.554 V 0 H 0.094 V -0.691 H 0.54 v 0.065 H 0.357 q -0.006,0 -0.018,-5e-4 -0.012,-5e-4 -0.018,-5e-4 H 0.183 v 0.237 h 0.33 z" />
      </g>
    </g>
    <g id="g57" transform="matrix(19,0,0,19,-387,-231)">
      <g id="g55" transform="translate(20.894737,25.010234)">
        <path style="fill:#a38f8c;stroke:none;paint-order:stroke fill markers" inkscape:connector-curvature="0" id="path53" d="m 0.096,-0.694 h 0.262 q 0.128,0 0.2175,0.1035 0.0895,0.1035 0.0895,0.2495 0,0.142 -0.0895,0.2415 Q 0.486,0 0.359,0 H 0.096 v -0.694 m 0.086,0.638 h 0.153 q 0.106,0 0.175,-0.0795 Q 0.579,-0.215 0.579,-0.341 0.579,-0.472 0.51,-0.555 0.441,-0.638 0.335,-0.638 H 0.182 Z" />
      </g>
    </g>
  </g>
</svg>