<?xml version="1.0" encoding="UTF-8" standalone="no"?>
<svg xmlns:dc="http://purl.org/dc/elements/1.1/" xmlns:cc="http://creativecommons.org/ns#" xmlns:rdf="http://www.w3.org/1999/02/22-rdf-syntax-ns#" xmlns:svg="http://www.w3.org/2000/svg" xmlns="http://www.w3.org/2000/svg" xmlns:sodipodi="http://sodipodi.sourceforge.net/DTD/sodipodi-0.dtd" xmlns:inkscape="http://www.inkscape.org/namespaces/inkscape" version="1.1" width="316" height="255" viewBox="0 0 316 255" id="svg85" sodipodi:docname="solving-right-triangles-example-1.svg" inkscape:version="0.92.3 (2405546, 2018-03-11)">
  <metadata id="metadata89">
    <rdf:RDF>
      <cc:Work rdf:about="">
        <dc:format>image/svg+xml</dc:format>
        <dc:type rdf:resource="http://purl.org/dc/dcmitype/StillImage" />
        <dc:title>
        </dc:title>
      </cc:Work>
    </rdf:RDF>
  </metadata>
  <sodipodi:namedview pagecolor="#ffffff" bordercolor="#666666" borderopacity="1" objecttolerance="10" gridtolerance="10" guidetolerance="10" inkscape:pageopacity="0" inkscape:pageshadow="2" inkscape:window-width="1920" inkscape:window-height="1057" id="namedview87" showgrid="false" inkscape:zoom="0.91909385" inkscape:cx="154.5" inkscape:cy="125" inkscape:window-x="1912" inkscape:window-y="-8" inkscape:window-maximized="1" inkscape:current-layer="svg85" />
  <defs id="defs5">
    <clipPath id="HMQowvFLLtJB">
      <path d="M 0,0 H 309 V 250 H 0 Z" id="path2" inkscape:connector-curvature="0" style="fill:none;stroke:none" />
    </clipPath>
  </defs>
  <rect id="rect1028" width="316" height="255" x="0" y="0" fill="rgba(0,0,0,0)" />
  <g id="g1026" transform="translate(3.6480005)">
    <path style="fill:none;stroke:#000000;stroke-width:2.5;stroke-linecap:round;stroke-linejoin:round;stroke-miterlimit:10;stroke-opacity:1;paint-order:fill stroke markers" inkscape:connector-curvature="0" id="path9" stroke-miterlimit="10" d="M 33.83937,221.03051 V 38.7103" />
    <path style="fill:none;stroke:#000000;stroke-width:2.5;stroke-linecap:round;stroke-linejoin:round;stroke-miterlimit:10;stroke-opacity:1;paint-order:fill stroke markers" inkscape:connector-curvature="0" id="path11" stroke-miterlimit="10" d="m 33.83937,38.7103 243.0936,182.32021" />
    <path style="fill:none;stroke:#000000;stroke-width:2.5;stroke-linecap:round;stroke-linejoin:round;stroke-miterlimit:10;stroke-opacity:1;paint-order:fill stroke markers" inkscape:connector-curvature="0" id="path13" stroke-miterlimit="10" d="M 276.93297,221.03051 H 33.83937" />
    <path style="fill:none;stroke:#000000;stroke-width:2.5;stroke-linecap:round;stroke-linejoin:round;stroke-miterlimit:10;stroke-opacity:1;paint-order:fill stroke markers" inkscape:connector-curvature="0" id="path15" stroke-miterlimit="10" d="M 33.83937,196.72115 H 58.14873" />
    <path style="fill:none;stroke:#000000;stroke-width:2.5;stroke-linecap:round;stroke-linejoin:round;stroke-miterlimit:10;stroke-opacity:1;paint-order:fill stroke markers" inkscape:connector-curvature="0" id="path17" stroke-miterlimit="10" d="m 58.14873,196.72115 v 24.30936" />
    <g transform="matrix(19,0,0,19,172,125.45557)" id="g21">
      <path d="m 0.299,-0.678 v 0.62 H 0.424 V 0 H 0.095 V -0.058 H 0.22 v -0.52 q -0.051,0.022 -0.131,0.024 v -0.058 q 0.131,-0.005 0.19,-0.066 z" id="path19" inkscape:connector-curvature="0" style="fill:#000000;stroke:none;paint-order:stroke fill markers" />
    </g>
    <g transform="matrix(19,0,0,19,42.999992,108.75608)" id="g27">
      <path d="m 0.153,-0.592 v 0.206 q 0.046,-0.041 0.107,-0.041 0.078,0 0.1335,0.0655 0.0555,0.0655 0.0555,0.1585 0,0.094 -0.0645,0.1595 Q 0.32,0.022 0.23,0.022 0.171,0.022 0.121,-0.005 0.071,-0.032 0.039,-0.076 l 0.033,-0.056 q 0.022,0.041 0.065,0.067 0.043,0.026 0.092,0.026 0.008,0 0.0175,-0.001 Q 0.256,-0.041 0.2785,-0.05 0.301,-0.059 0.317,-0.0745 0.333,-0.09 0.3465,-0.124 0.36,-0.158 0.36,-0.205 0.36,-0.288 0.33,-0.327 0.3,-0.366 0.259,-0.366 0.219,-0.366 0.19,-0.3435 0.161,-0.321 0.147,-0.287 H 0.081 v -0.369 h 0.335 v 0.064 z" id="path25" inkscape:connector-curvature="0" style="fill:#000000;stroke:none;paint-order:stroke fill markers" />
    </g>
    <g transform="matrix(19,0,0,19,52.50003,108.75608)" id="g31">
      <path d="M 0.092,-0.514 0.056,-0.568 Q 0.087,-0.62 0.1385,-0.649 0.19,-0.678 0.248,-0.678 q 0.075,0 0.1285,0.044 0.0535,0.044 0.0535,0.108 0,0.05 -0.028,0.0965 -0.028,0.0465 -0.083,0.0755 0.056,0.017 0.097,0.0635 0.041,0.0465 0.041,0.1105 0,0.081 -0.0605,0.1415 Q 0.336,0.022 0.247,0.022 q -0.124,0 -0.205,-0.104 l 0.011,-0.06 q 0.032,0.049 0.085,0.076 0.053,0.027 0.107,0.027 0.056,0 0.0895,-0.041 0.0335,-0.041 0.0335,-0.101 0,-0.022 -0.0055,-0.044 Q 0.357,-0.247 0.344,-0.2705 0.331,-0.294 0.3035,-0.309 0.276,-0.324 0.238,-0.324 H 0.167 V -0.385 Q 0.242,-0.391 0.246,-0.392 0.291,-0.402 0.3195,-0.4405 0.348,-0.479 0.348,-0.526 0.348,-0.571 0.3185,-0.5955 0.289,-0.62 0.247,-0.62 q -0.048,0 -0.091,0.028 -0.043,0.028 -0.064,0.078 z" id="path29" inkscape:connector-curvature="0" style="fill:#000000;stroke:none;paint-order:stroke fill markers" />
    </g>
    <g transform="matrix(19,0,0,19,62.000068,108.75608)" id="g35">
      <path d="M 0.18,-0.083 V 0 H 0.097 v -0.083 z" id="path33" inkscape:connector-curvature="0" style="fill:#000000;stroke:none;paint-order:stroke fill markers" />
    </g>
    <g transform="matrix(19,0,0,19,67.277869,108.75608)" id="g39">
      <path d="m 0.299,-0.678 v 0.62 H 0.424 V 0 H 0.095 V -0.058 H 0.22 v -0.52 q -0.051,0.022 -0.131,0.024 v -0.058 q 0.131,-0.005 0.19,-0.066 z" id="path37" inkscape:connector-curvature="0" style="fill:#000000;stroke:none;paint-order:stroke fill markers" />
    </g>
    <g transform="matrix(19,0,0,19,76.777907,108.75608)" id="g43">
      <path d="M 0.092,-0.514 0.056,-0.568 Q 0.087,-0.62 0.1385,-0.649 0.19,-0.678 0.248,-0.678 q 0.075,0 0.1285,0.044 0.0535,0.044 0.0535,0.108 0,0.05 -0.028,0.0965 -0.028,0.0465 -0.083,0.0755 0.056,0.017 0.097,0.0635 0.041,0.0465 0.041,0.1105 0,0.081 -0.0605,0.1415 Q 0.336,0.022 0.247,0.022 q -0.124,0 -0.205,-0.104 l 0.011,-0.06 q 0.032,0.049 0.085,0.076 0.053,0.027 0.107,0.027 0.056,0 0.0895,-0.041 0.0335,-0.041 0.0335,-0.101 0,-0.022 -0.0055,-0.044 Q 0.357,-0.247 0.344,-0.2705 0.331,-0.294 0.3035,-0.309 0.276,-0.324 0.238,-0.324 H 0.167 V -0.385 Q 0.242,-0.391 0.246,-0.392 0.291,-0.402 0.3195,-0.4405 0.348,-0.479 0.348,-0.526 0.348,-0.571 0.3185,-0.5955 0.289,-0.62 0.247,-0.62 q -0.048,0 -0.091,0.028 -0.043,0.028 -0.064,0.078 z" id="path41" inkscape:connector-curvature="0" style="fill:#000000;stroke:none;paint-order:stroke fill markers" />
    </g>
    <g transform="matrix(13.3,0,0,13.3,86.277945,100.91113)" id="g47">
      <path d="m 0.443,-0.25 v 0 q 0,0.089 -0.067,0.147 -0.055,0.047 -0.127,0.047 -0.088,0 -0.146,-0.068 -0.047,-0.055 -0.047,-0.126 0,-0.089 0.067,-0.147 0.055,-0.047 0.127,-0.047 0.088,0 0.146,0.068 0.047,0.055 0.047,0.126 M 0.25,-0.096 v 0 q 0.075,0 0.121,-0.06 0.032,-0.042 0.032,-0.094 0,-0.076 -0.06,-0.122 -0.041,-0.032 -0.093,-0.032 -0.077,0 -0.124,0.062 -0.03,0.041 -0.03,0.092 0,0.075 0.059,0.121 0.042,0.033 0.095,0.033 z" id="path45" inkscape:connector-curvature="0" style="fill:#000000;stroke:none;paint-order:stroke fill markers" />
    </g>
    <g transform="matrix(19,0,0,19,12.999999,29.194454)" id="g53">
      <path d="M 0.377,-0.694 0.638,0 H 0.546 L 0.47,-0.204 H 0.179 L 0.102,0 H 0.028 L 0.289,-0.694 H 0.377 M 0.448,-0.26 0.357,-0.517 Q 0.328,-0.6 0.325,-0.622 H 0.324 Q 0.318,-0.589 0.265,-0.441 L 0.2,-0.26 Z" id="path51" inkscape:connector-curvature="0" style="fill:#000000;stroke:none;paint-order:stroke fill markers" />
    </g>
    <g transform="matrix(19,0,0,19,12.999999,243.19445)" id="g59">
      <path d="m 0.097,-0.694 h 0.237 q 0.105,0 0.177,0.052 0.072,0.052 0.072,0.122 0,0.055 -0.047,0.097 -0.047,0.042 -0.119,0.06 0.081,0.013 0.137,0.062 0.056,0.049 0.056,0.113 0,0.075 -0.0715,0.1315 Q 0.467,0 0.361,0 H 0.097 v -0.694 m 0.083,0.303 h 0.116 q 0.097,0 0.153,-0.039 0.056,-0.039 0.056,-0.089 0,-0.05 -0.058,-0.0845 Q 0.389,-0.638 0.306,-0.638 H 0.18 v 0.247 m 0,0.335 h 0.153 q 0.081,0 0.1385,-0.0385 0.0575,-0.0385 0.0575,-0.0945 0,-0.059 -0.0615,-0.1 Q 0.406,-0.33 0.325,-0.33 H 0.18 Z" id="path57" inkscape:connector-curvature="0" style="fill:#000000;stroke:none;paint-order:stroke fill markers" />
    </g>
    <g transform="matrix(19,0,0,19,284,242.19446)" id="g65">
      <path d="M 0.577,-0.681 0.562,-0.6 q -0.081,-0.052 -0.169,-0.052 -0.102,0 -0.1695,0.09 -0.0675,0.09 -0.0675,0.215 0,0.122 0.066,0.2135 0.066,0.0915 0.174,0.0915 0.055,0 0.0945,-0.012 Q 0.53,-0.066 0.582,-0.103 l 0.006,0.069 Q 0.534,-0.001 0.495,0.0105 0.456,0.022 0.395,0.022 q -0.142,0 -0.235,-0.11 -0.093,-0.11 -0.093,-0.259 0,-0.151 0.093,-0.26 0.093,-0.109 0.234,-0.109 0.091,0 0.183,0.035 z" id="path63" inkscape:connector-curvature="0" style="fill:#a38f8c;stroke:none;paint-order:stroke fill markers" />
    </g>
    <g transform="matrix(19,0,0,19,151,241.44445)" id="g71">
      <path d="M 0.399,-0.289 V 0 H 0.324 V -0.036 Q 0.263,0.011 0.158,0.011 0.1,0.011 0.072,-0.0295 0.044,-0.07 0.044,-0.113 0.044,-0.176 0.1225,-0.2095 0.201,-0.243 0.321,-0.245 v -0.043 q 0,-0.053 -0.025,-0.0835 -0.025,-0.0305 -0.062,-0.0305 -0.081,0 -0.151,0.05 L 0.077,-0.418 q 0.075,-0.043 0.157,-0.043 0.07,0 0.1175,0.0485 0.0475,0.0485 0.0475,0.1235 m -0.078,0.157 v -0.062 q -0.205,0.01 -0.205,0.079 0,0.03 0.0275,0.0475 0.0275,0.0175 0.0655,0.0175 0.047,0 0.078,-0.019 0.034,-0.019 0.034,-0.063 z" id="path69" inkscape:connector-curvature="0" style="fill:#a38f8c;stroke:none;paint-order:stroke fill markers" />
    </g>
    <g transform="matrix(19,0,0,19,14.999996,134.44445)" id="g77">
      <path d="m 0.41,-0.418 -0.012,0.065 q -0.04,-0.026 -0.07,-0.035 -0.03,-0.009 -0.071,-0.009 -0.05,0 -0.0835,0.028 Q 0.14,-0.341 0.127,-0.3035 0.114,-0.266 0.114,-0.223 q 0,0.074 0.0385,0.122 0.0385,0.048 0.1005,0.048 0.087,0 0.156,-0.054 L 0.415,-0.04 Q 0.341,0.011 0.252,0.011 0.16,0.011 0.098,-0.058 0.036,-0.127 0.036,-0.222 q 0,-0.095 0.0605,-0.167 0.0605,-0.072 0.1595,-0.072 0.046,0 0.078,0.009 0.032,0.009 0.076,0.034 z" id="path75" inkscape:connector-curvature="0" style="fill:#a38f8c;stroke:none;paint-order:stroke fill markers" />
    </g>
  </g>
</svg>