<?xml version="1.0" encoding="UTF-8" standalone="no"?>
<svg xmlns:dc="http://purl.org/dc/elements/1.1/" xmlns:cc="http://creativecommons.org/ns#" xmlns:rdf="http://www.w3.org/1999/02/22-rdf-syntax-ns#" xmlns:svg="http://www.w3.org/2000/svg" xmlns="http://www.w3.org/2000/svg" xmlns:sodipodi="http://sodipodi.sourceforge.net/DTD/sodipodi-0.dtd" xmlns:inkscape="http://www.inkscape.org/namespaces/inkscape" version="1.1" width="361" height="360" id="svg71" sodipodi:docname="triangle-45-45.svg" inkscape:version="0.92.3 (2405546, 2018-03-11)" viewBox="0 0 361 360">
  <metadata id="metadata75">
    <rdf:RDF>
      <cc:Work rdf:about="">
        <dc:format>image/svg+xml</dc:format>
        <dc:type rdf:resource="http://purl.org/dc/dcmitype/StillImage" />
        <dc:title>
        </dc:title>
      </cc:Work>
    </rdf:RDF>
  </metadata>
  <sodipodi:namedview pagecolor="#ffffff" bordercolor="#666666" borderopacity="1" objecttolerance="10" gridtolerance="10" guidetolerance="10" inkscape:pageopacity="0" inkscape:pageshadow="2" inkscape:window-width="2160" inkscape:window-height="1440" id="namedview73" showgrid="false" inkscape:zoom="1.3111111" inkscape:cx="77.83855" inkscape:cy="218.68029" inkscape:window-x="0" inkscape:window-y="0" inkscape:window-maximized="1" inkscape:current-layer="svg71" />
  <defs id="defs5">
    <clipPath id="dikeHoixZSZC">
      <path fill="none" stroke="none" d=" M 0 0 L 361 0 L 361 360 L 0 360 L 0 0 Z" id="path2" />
    </clipPath>
  </defs>
  <rect id="rect837" width="358.5" height="357.5" x="1.25" y="1.25" fill="rgba(0,0,0,0)" />
  <g id="g4683">
    <g id="g4661">
      <g id="g4640">
        <g id="g4620">
          <g id="g4601">
            <path style="fill:none;stroke:#000000;stroke-width:2.5;stroke-linecap:round;stroke-linejoin:round;stroke-miterlimit:10;stroke-opacity:1;paint-order:fill stroke markers" inkscape:connector-curvature="0" id="path9" stroke-miterlimit="10" d="M 51.44559,301.31334 309.25758,43.50135" />
            <path style="fill:none;stroke:#000000;stroke-width:2.5;stroke-linecap:round;stroke-linejoin:round;stroke-miterlimit:10;stroke-opacity:1;paint-order:fill stroke markers" inkscape:connector-curvature="0" id="path11" stroke-miterlimit="10" d="M 309.25758,43.50135 V 301.31334" />
            <path style="fill:none;stroke:#000000;stroke-width:2.5;stroke-linecap:round;stroke-linejoin:round;stroke-miterlimit:10;stroke-opacity:1;paint-order:fill stroke markers" inkscape:connector-curvature="0" id="path13" stroke-miterlimit="10" d="M 309.25758,301.31334 H 51.44559" />
            <path style="fill:none;stroke:#000000;stroke-width:2.5;stroke-linecap:round;stroke-linejoin:round;stroke-miterlimit:10;stroke-opacity:1;paint-order:fill stroke markers" inkscape:connector-curvature="0" id="path15" stroke-miterlimit="10" d="M 309.25758,278.11026 H 286.0545" />
            <path style="fill:none;stroke:#000000;stroke-width:2.5;stroke-linecap:round;stroke-linejoin:round;stroke-miterlimit:10;stroke-opacity:1;paint-order:fill stroke markers" inkscape:connector-curvature="0" id="path17" stroke-miterlimit="10" d="m 286.0545,278.11026 v 23.20308" />
            <text style="font-style:normal;font-weight:normal;font-size:22px;font-family:geogebra-sans-serif, sans-serif;dominant-baseline:alphabetic;text-anchor:start;fill:#a38f8c;fill-opacity:1;stroke:none" id="text25" dominant-baseline="alphabetic" y="177" x="321" text-decoration="normal" font-weight="normal" font-style="normal" font-size="22px">1</text>
            <path style="fill:#000000;stroke:none;stroke-width:25;paint-order:stroke fill markers" inkscape:connector-curvature="0" id="path27" d="m 127.725,179.37495 10.575,-21.9 q 0.325,-0.425 0.525,-0.475 0.425,0 0.5,0.5 0,0.1 -0.15,0.425 l -11.4,23.6 q -0.2,0.4 -0.4,0.45 -0.075,0.025 -0.225,0.025 -0.3,0 -0.4,-0.225 l -0.075,-0.15 -4.95,-10.875 -1.3,0.975 q -0.225,0.2 -0.35,0.2 -0.25,0 -0.25,-0.275 0,-0.1 0.3,-0.35 l 2.475,-1.875 q 0.225,-0.2 0.35,-0.2 0.15,0 0.325,0.35 z" />
            <rect style="fill:#000000;fill-opacity:1" x="138.8334" y="156.99997" width="13.888943" height="0.99997503" id="rect31" fill="rgba(0,0,0,0)" />
            <path style="fill:#000000;stroke:none;stroke-width:25;paint-order:stroke fill markers" inkscape:connector-curvature="0" id="path33" d="m 143.1834,175.33987 1.925,-1.775 q 0.75,-0.775 1.1125,-1.1625 0.3625,-0.3875 0.8625,-1.0875 0.5,-0.7 0.7125,-1.375 0.2125,-0.675 0.2125,-1.425 0,-1.55 -0.975,-2.6875 -0.975,-1.1375 -2.65,-1.1375 -1.525,0 -2.2625,1.025 -0.7375,1.025 -1.2125,2.85 -0.425,-0.625 -0.55,-0.725 -0.025,-0.025 -0.1625,-0.2125 -0.1375,-0.1875 -0.3125,-0.4375 1.15,-4.1 4.85,-4.1 2.4,0 3.8625,1.5625 1.4625,1.5625 1.4625,3.8125 0,0.975 -0.4375,1.9125 -0.4375,0.9375 -0.8375,1.4 -0.4,0.4625 -1.2,1.2625 -0.25,0.225 -1.1125,0.975 -0.8625,0.75 -1.1125,0.975 -0.175,0.15 -1.5875,1.525 -1.4125,1.375 -1.8875,1.775 h 2.725 q 0.15,0 0.45,-0.0125 0.3,-0.0125 0.45,-0.0125 h 4.55 v 1.775 h -9.975 v -1.6 z" />
            <path style="fill:#000000;stroke:none;stroke-width:25;paint-order:stroke fill markers" inkscape:connector-curvature="0" id="path39" d="m 273.3,112.82511 v 4.275 h -1.975 v -4.275 H 264.7 v -1.525 l 6.325,-10.6 h 2.275 v 10.6 h 2.475 v 1.525 H 273.3 m -6.65,-1.525 h 4.825 v -9.5 q 0,1.525 -4.825,9.5 z" />
            <path style="fill:#000000;stroke:none;stroke-width:25;paint-order:stroke fill markers" inkscape:connector-curvature="0" id="path43" d="m 280.32505,102.30011 v 5.15 q 1.15,-1.025 2.675,-1.025 1.95,0 3.3375,1.6375 1.3875,1.6375 1.3875,3.9625 0,2.35 -1.6125,3.9875 -1.6125,1.6375 -3.8625,1.6375 -1.475,0 -2.725,-0.675 -1.25,-0.675 -2.05,-1.775 l 0.825,-1.4 q 0.55,1.025 1.625,1.675 1.075,0.65 2.3,0.65 0.2,0 0.4375,-0.025 0.2375,-0.025 0.8,-0.25 0.5625,-0.225 0.9625,-0.6125 0.4,-0.3875 0.7375,-1.2375 0.3375,-0.85 0.3375,-2.025 0,-2.075 -0.75,-3.05 -0.75,-0.975 -1.775,-0.975 -1,0 -1.725,0.5625 -0.725,0.5625 -1.075,1.4125 h -1.65 v -9.225 h 8.375 v 1.6 z" />
            <path style="fill:#000000;stroke:none;stroke-width:17.5;paint-order:stroke fill markers" inkscape:connector-curvature="0" id="path47" d="m 296.7526,102.40281 v 0 q 0,1.5575 -1.1725,2.5725 -0.9625,0.8225 -2.2225,0.8225 -1.54,0 -2.555,-1.19 -0.8225,-0.9625 -0.8225,-2.205 0,-1.5575 1.1725,-2.5725 0.9625,-0.8225 2.2225,-0.8225 1.54,0 2.555,1.19 0.8225,0.9625 0.8225,2.205 m -3.3775,2.695 v 0 q 1.3125,0 2.1175,-1.05 0.56,-0.735 0.56,-1.645 0,-1.33 -1.05,-2.135 -0.7175,-0.56 -1.6275,-0.56 -1.3475,0 -2.17,1.085 -0.525,0.7175 -0.525,1.61 0,1.3125 1.0325,2.1175 0.735,0.5775 1.6625,0.5775 z" />
            <path style="fill:#000000;stroke:none;stroke-width:25;paint-order:stroke fill markers" inkscape:connector-curvature="0" id="path53" d="m 105.3,284.8251 v 4.275 h -1.975 v -4.275 H 96.7 v -1.525 l 6.325,-10.6 h 2.275 v 10.6 h 2.475 v 1.525 H 105.3 m -6.65,-1.525 h 4.825 v -9.5 q 0,1.525 -4.825,9.5 z" />
            <path style="fill:#000000;stroke:none;stroke-width:25;paint-order:stroke fill markers" inkscape:connector-curvature="0" id="path57" d="m 112.32505,274.3001 v 5.15 q 1.15,-1.025 2.675,-1.025 1.95,0 3.3375,1.6375 1.3875,1.6375 1.3875,3.9625 0,2.35 -1.6125,3.9875 -1.6125,1.6375 -3.8625,1.6375 -1.475,0 -2.725,-0.675 -1.25,-0.675 -2.05,-1.775 l 0.825,-1.4 q 0.55,1.025 1.625,1.675 1.075,0.65 2.3,0.65 0.2,0 0.4375,-0.025 0.2375,-0.025 0.8,-0.25 0.5625,-0.225 0.9625,-0.6125 0.4,-0.3875 0.7375,-1.2375 0.3375,-0.85 0.3375,-2.025 0,-2.075 -0.75,-3.05 -0.75,-0.975 -1.775,-0.975 -1,0 -1.725,0.5625 -0.725,0.5625 -1.075,1.4125 h -1.65 v -9.225 h 8.375 v 1.6 z" />
            <path style="fill:#000000;stroke:none;stroke-width:17.5;paint-order:stroke fill markers" inkscape:connector-curvature="0" id="path61" d="m 128.7526,274.4028 v 0 q 0,1.5575 -1.1725,2.5725 -0.9625,0.8225 -2.2225,0.8225 -1.54,0 -2.555,-1.19 -0.8225,-0.9625 -0.8225,-2.205 0,-1.5575 1.1725,-2.5725 0.9625,-0.8225 2.2225,-0.8225 1.54,0 2.555,1.19 0.8225,0.9625 0.8225,2.205 m -3.3775,2.695 v 0 q 1.3125,0 2.1175,-1.05 0.56,-0.735 0.56,-1.645 0,-1.33 -1.05,-2.135 -0.7175,-0.56 -1.6275,-0.56 -1.3475,0 -2.17,1.085 -0.525,0.7175 -0.525,1.61 0,1.3125 1.0325,2.1175 0.735,0.5775 1.6625,0.5775 z" />
            <text style="font-style:normal;font-weight:normal;font-size:22px;font-family:geogebra-sans-serif, sans-serif;dominant-baseline:alphabetic;text-anchor:start;fill:#a38f8c;fill-opacity:1;stroke:none" id="text25-0" dominant-baseline="alphabetic" y="331.08856" x="175.1479" text-decoration="normal" font-weight="normal" font-style="normal" font-size="22px">1</text>
          </g>
        </g>
      </g>
    </g>
  </g>
</svg>