<?xml version="1.0" encoding="UTF-8" standalone="no"?>
<svg xmlns:dc="http://purl.org/dc/elements/1.1/" xmlns:cc="http://creativecommons.org/ns#" xmlns:rdf="http://www.w3.org/1999/02/22-rdf-syntax-ns#" xmlns:svg="http://www.w3.org/2000/svg" xmlns="http://www.w3.org/2000/svg" xmlns:sodipodi="http://sodipodi.sourceforge.net/DTD/sodipodi-0.dtd" xmlns:inkscape="http://www.inkscape.org/namespaces/inkscape" version="1.1" width="362" height="362" viewBox="0 0 362 362" id="svg89" sodipodi:docname="triangle-30-60.svg" inkscape:version="0.92.3 (2405546, 2018-03-11)">
  <metadata id="metadata93">
    <rdf:RDF>
      <cc:Work rdf:about="">
        <dc:format>image/svg+xml</dc:format>
        <dc:type rdf:resource="http://purl.org/dc/dcmitype/StillImage" />
        <dc:title>
        </dc:title>
      </cc:Work>
    </rdf:RDF>
  </metadata>
  <sodipodi:namedview pagecolor="#ffffff" bordercolor="#666666" borderopacity="1" objecttolerance="10" gridtolerance="10" guidetolerance="10" inkscape:pageopacity="0" inkscape:pageshadow="2" inkscape:window-width="2160" inkscape:window-height="1360" id="namedview91" showgrid="false" inkscape:zoom="1.3038674" inkscape:cx="4.4412735" inkscape:cy="230.09144" inkscape:window-x="-11" inkscape:window-y="-11" inkscape:window-maximized="1" inkscape:current-layer="svg89" />
  <defs id="defs5">
    <clipPath id="HTQpBpnGznqU">
      <path fill="none" stroke="none" d=" M 0 0 L 362 0 L 362 362 L 0 362 L 0 0 Z" id="path2" />
    </clipPath>
  </defs>
  <rect fill="rgba(0,0,0,0)" x="0" y="0" width="362" height="362" id="rect7" />
  <g id="g1035" transform="translate(-1.526915,0.16654156)">
    <path style="fill:none;stroke:#000000;stroke-width:2.5;stroke-linecap:round;stroke-linejoin:round;stroke-miterlimit:10;stroke-opacity:1;paint-order:fill stroke markers" inkscape:connector-curvature="0" id="path9" stroke-miterlimit="10" d="M 28.04651,301.11372 182.52691,33.54582" />
    <path style="fill:none;stroke:#000000;stroke-width:2.5;stroke-linecap:round;stroke-linejoin:round;stroke-miterlimit:10;stroke-opacity:1;paint-order:fill stroke markers" inkscape:connector-curvature="0" id="path11" stroke-miterlimit="10" d="m 182.52691,33.54582 154.48041,267.5679" />
    <path style="fill:none;stroke:#000000;stroke-width:2.5;stroke-linecap:round;stroke-linejoin:round;stroke-miterlimit:10;stroke-opacity:1;paint-order:fill stroke markers" inkscape:connector-curvature="0" id="path13" stroke-miterlimit="10" d="M 337.00732,301.11372 H 28.04651" />
    <path style="fill:none;stroke:#000000;stroke-width:2.5;stroke-linecap:round;stroke-linejoin:round;stroke-miterlimit:10;stroke-opacity:1;paint-order:fill stroke markers" inkscape:connector-curvature="0" id="path15" stroke-miterlimit="10" d="m 182.52691,33.54582 v 267.5679" />
    <path style="fill:none;stroke:#000000;stroke-width:2.5;stroke-linecap:round;stroke-linejoin:round;stroke-miterlimit:10;stroke-opacity:1;paint-order:fill stroke markers" inkscape:connector-curvature="0" id="path17" stroke-miterlimit="10" d="m 182.52691,277.94166 h 23.17206" />
    <path style="fill:none;stroke:#000000;stroke-width:2.5;stroke-linecap:round;stroke-linejoin:round;stroke-miterlimit:10;stroke-opacity:1;paint-order:fill stroke markers" inkscape:connector-curvature="0" id="path19" stroke-miterlimit="10" d="m 205.69897,277.94166 v 23.17206" />
    <path style="fill:#a38f8c;stroke:none;stroke-width:25;paint-order:stroke fill markers" inkscape:connector-curvature="0" id="path21" d="m 256.475,312.4389 v 15.5 h 3.125 v 1.45 h -8.225 v -1.45 h 3.125 v -13 q -1.275,0.55 -3.275,0.6 v -1.45 q 3.275,-0.125 4.75,-1.65 z" />
    <path style="fill:#000000;stroke:none;stroke-width:25;paint-order:stroke fill markers" inkscape:connector-curvature="0" id="path27" d="m 102.475,312.4389 v 15.5 h 3.125 v 1.45 h -8.225 v -1.45 h 3.125 v -13 q -1.275,0.55 -3.275,0.6 v -1.45 q 3.275,-0.125 4.75,-1.65 z" />
    <path style="fill:#000000;stroke:none;stroke-width:25;paint-order:stroke fill markers" inkscape:connector-curvature="0" id="path33" d="m 76.35,176.6889 1.925,-1.775 q 0.75,-0.775 1.1125,-1.1625 0.3625,-0.3875 0.8625,-1.0875 0.5,-0.7 0.7125,-1.375 0.2125,-0.675 0.2125,-1.425 0,-1.55 -0.975,-2.6875 -0.975,-1.1375 -2.65,-1.1375 -1.525,0 -2.2625,1.025 -0.7375,1.025 -1.2125,2.85 -0.425,-0.625 -0.55,-0.725 -0.025,-0.025 -0.1625,-0.2125 -0.1375,-0.1875 -0.3125,-0.4375 1.15,-4.1 4.85,-4.1 2.4,0 3.8625,1.5625 1.4625,1.5625 1.4625,3.8125 0,0.975 -0.4375,1.9125 -0.4375,0.9375 -0.8375,1.4 -0.4,0.4625 -1.2,1.2625 -0.25,0.225 -1.1125,0.975 -0.8625,0.75 -1.1125,0.975 -0.175,0.15 -1.5875,1.525 -1.4125,1.375 -1.8875,1.775 h 2.725 q 0.15,0 0.45,-0.0125 0.3,-0.0125 0.45,-0.0125 h 4.55 v 1.775 H 73.25 v -1.6 z" />
    <path style="fill:#a38f8c;stroke:none;stroke-width:25;paint-order:stroke fill markers" inkscape:connector-curvature="0" id="path39" d="m 287.35,177.6889 1.925,-1.775 q 0.75,-0.775 1.1125,-1.1625 0.3625,-0.3875 0.8625,-1.0875 0.5,-0.7 0.7125,-1.375 0.2125,-0.675 0.2125,-1.425 0,-1.55 -0.975,-2.6875 -0.975,-1.1375 -2.65,-1.1375 -1.525,0 -2.2625,1.025 -0.7375,1.025 -1.2125,2.85 -0.425,-0.625 -0.55,-0.725 -0.025,-0.025 -0.1625,-0.2125 -0.1375,-0.1875 -0.3125,-0.4375 1.15,-4.1 4.85,-4.1 2.4,0 3.8625,1.5625 1.4625,1.5625 1.4625,3.8125 0,0.975 -0.4375,1.9125 -0.4375,0.9375 -0.8375,1.4 -0.4,0.4625 -1.2,1.2625 -0.25,0.225 -1.1125,0.975 -0.8625,0.75 -1.1125,0.975 -0.175,0.15 -1.5875,1.525 -1.4125,1.375 -1.8875,1.775 h 2.725 q 0.15,0 0.45,-0.0125 0.3,-0.0125 0.45,-0.0125 h 4.55 v 1.775 h -9.975 v -1.6 z" />
    <path style="fill:#000000;stroke:none;stroke-width:25;paint-order:stroke fill markers" inkscape:connector-curvature="0" id="path45" d="m 191.3,113.2501 -0.9,-1.35 q 0.775,-1.3 2.0625,-2.025 1.2875,-0.725 2.7375,-0.725 1.875,0 3.2125,1.1 1.3375,1.1 1.3375,2.7 0,1.25 -0.7,2.4125 -0.7,1.1625 -2.075,1.8875 1.4,0.425 2.425,1.5875 1.025,1.1625 1.025,2.7625 0,2.025 -1.5125,3.5375 -1.5125,1.5125 -3.7375,1.5125 -3.1,0 -5.125,-2.6 l 0.275,-1.5 q 0.8,1.225 2.125,1.9 1.325,0.675 2.675,0.675 1.4,0 2.2375,-1.025 0.8375,-1.025 0.8375,-2.525 0,-0.55 -0.1375,-1.1 -0.1375,-0.55 -0.4625,-1.1375 -0.325,-0.5875 -1.0125,-0.9625 -0.6875,-0.375 -1.6375,-0.375 h -1.775 v -1.525 q 1.875,-0.15 1.975,-0.175 1.125,-0.25 1.8375,-1.2125 0.7125,-0.9625 0.7125,-2.1375 0,-1.125 -0.7375,-1.7375 -0.7375,-0.6125 -1.7875,-0.6125 -1.2,0 -2.275,0.7 -1.075,0.7 -1.6,1.95 z" />
    <path style="fill:#000000;stroke:none;stroke-width:25;paint-order:stroke fill markers" inkscape:connector-curvature="0" id="path49" d="m 212.92505,117.9501 q 0,3.775 -1,5.95 -0.6,1.3 -1.7125,2.025 -1.1125,0.725 -2.4875,0.725 -0.8,0 -1.5375,-0.25 -0.7375,-0.25 -1.525,-0.975 -0.7875,-0.725 -1.2625,-1.85 -0.85,-2.075 -0.85,-5.625 0,-3.8 0.95,-5.9 0.7,-1.55 1.85,-2.225 1.15,-0.675 2.4,-0.675 1.1,0 2.2125,0.5875 1.1125,0.5875 1.8125,1.8875 1.15,2.225 1.15,6.325 m -5.175,7.175 q 2,0 2.775,-2.675 0.45,-1.575 0.45,-4.8 0,-3.225 -0.475,-4.625 -0.15,-0.375 -0.2625,-0.5875 -0.1125,-0.2125 -0.4375,-0.7125 -0.325,-0.5 -0.8625,-0.775 -0.5375,-0.275 -1.2125,-0.275 -2,0 -2.8,2.525 -0.425,1.375 -0.425,4.45 0,3.2 0.425,4.725 0.775,2.75 2.825,2.75 z" />
    <path style="fill:#000000;stroke:none;stroke-width:17.5;paint-order:stroke fill markers" inkscape:connector-curvature="0" id="path53" d="m 221.7526,111.40281 v 0 q 0,1.5575 -1.1725,2.5725 -0.9625,0.8225 -2.2225,0.8225 -1.54,0 -2.555,-1.19 -0.8225,-0.9625 -0.8225,-2.205 0,-1.5575 1.1725,-2.5725 0.9625,-0.8225 2.2225,-0.8225 1.54,0 2.555,1.19 0.8225,0.9625 0.8225,2.205 m -3.3775,2.695 v 0 q 1.3125,0 2.1175,-1.05 0.56,-0.735 0.56,-1.645 0,-1.33 -1.05,-2.135 -0.7175,-0.56 -1.6275,-0.56 -1.3475,0 -2.17,1.085 -0.525,0.7175 -0.525,1.61 0,1.3125 1.0325,2.1175 0.735,0.5775 1.6625,0.5775 z" />
    <path style="fill:#000000;stroke:none;stroke-width:25;paint-order:stroke fill markers" inkscape:connector-curvature="0" id="path59" d="m 291.375,275.6501 v 1.475 q -1.325,-0.525 -2.625,-0.525 -1.8,0 -3.0875,1.5625 -1.2875,1.5625 -1.5125,4.4625 1.7,-2.075 4.225,-2.075 1.75,0 2.9,1.7625 1.15,1.7625 1.15,4.2375 0,1.45 -0.3625,2.4375 -0.3625,0.9875 -1.2375,1.9625 -1.475,1.7 -3.55,1.7 -0.7,0 -1.3625,-0.2 -0.6625,-0.2 -1.3875,-0.7875 -0.725,-0.5875 -1.25,-1.5125 -0.525,-0.925 -0.875,-2.5 -0.35,-1.575 -0.35,-3.6 0,-3.925 1.975,-6.4125 1.975,-2.4875 4.7,-2.4875 1.375,0 2.65,0.5 m -7.2,10.975 q 0.05,0.575 0.1625,1.1 0.1125,0.525 0.4125,1.4125 0.3,0.8875 0.95,1.4375 0.65,0.55 1.575,0.55 1.55,0 2.5,-1.55 0.6,-1.025 0.6,-3.025 0,-1.9 -0.575,-2.925 -0.85,-1.55 -2.4,-1.55 -1.475,0 -2.3375,1.175 -0.8625,1.175 -0.8625,2.675 -0.025,0.3 -0.025,0.7 z" />
    <path style="fill:#000000;stroke:none;stroke-width:25;paint-order:stroke fill markers" inkscape:connector-curvature="0" id="path63" d="m 304.92505,283.9501 q 0,3.775 -1,5.95 -0.6,1.3 -1.7125,2.025 -1.1125,0.725 -2.4875,0.725 -0.8,0 -1.5375,-0.25 -0.7375,-0.25 -1.525,-0.975 -0.7875,-0.725 -1.2625,-1.85 -0.85,-2.075 -0.85,-5.625 0,-3.8 0.95,-5.9 0.7,-1.55 1.85,-2.225 1.15,-0.675 2.4,-0.675 1.1,0 2.2125,0.5875 1.1125,0.5875 1.8125,1.8875 1.15,2.225 1.15,6.325 m -5.175,7.175 q 2,0 2.775,-2.675 0.45,-1.575 0.45,-4.8 0,-3.225 -0.475,-4.625 -0.15,-0.375 -0.2625,-0.5875 -0.1125,-0.2125 -0.4375,-0.7125 -0.325,-0.5 -0.8625,-0.775 -0.5375,-0.275 -1.2125,-0.275 -2,0 -2.8,2.525 -0.425,1.375 -0.425,4.45 0,3.2 0.425,4.725 0.775,2.75 2.825,2.75 z" />
    <path style="fill:#000000;stroke:none;stroke-width:17.5;paint-order:stroke fill markers" inkscape:connector-curvature="0" id="path67" d="m 313.7526,277.4028 v 0 q 0,1.5575 -1.1725,2.5725 -0.9625,0.8225 -2.2225,0.8225 -1.54,0 -2.555,-1.19 -0.8225,-0.9625 -0.8225,-2.205 0,-1.5575 1.1725,-2.5725 0.9625,-0.8225 2.2225,-0.8225 1.54,0 2.555,1.19 0.8225,0.9625 0.8225,2.205 m -3.3775,2.695 v 0 q 1.3125,0 2.1175,-1.05 0.56,-0.735 0.56,-1.645 0,-1.33 -1.05,-2.135 -0.7175,-0.56 -1.6275,-0.56 -1.3475,0 -2.17,1.085 -0.525,0.7175 -0.525,1.61 0,1.3125 1.0325,2.1175 0.735,0.5775 1.6625,0.5775 z" />
    <path style="fill:#000000;stroke:none;stroke-width:25;paint-order:stroke fill markers" inkscape:connector-curvature="0" id="path73" d="m 149.725,181.37495 10.575,-21.9 q 0.325,-0.425 0.525,-0.475 0.425,0 0.5,0.5 0,0.1 -0.15,0.425 l -11.4,23.6 q -0.2,0.4 -0.4,0.45 -0.075,0.025 -0.225,0.025 -0.3,0 -0.4,-0.225 l -0.075,-0.15 -4.95,-10.875 -1.3,0.975 q -0.225,0.2 -0.35,0.2 -0.25,0 -0.25,-0.275 0,-0.1 0.3,-0.35 l 2.475,-1.875 q 0.225,-0.2 0.35,-0.2 0.15,0 0.325,0.35 z" />
    <rect x="160.8334" y="158.99998" width="13.888943" height="0.99997503" id="rect77" style="fill:#000000;stroke:none;stroke-width:25" />
    <path style="fill:#000000;stroke:none;stroke-width:25;paint-order:stroke fill markers" inkscape:connector-curvature="0" id="path79" d="m 163.1334,169.18987 -0.9,-1.35 q 0.775,-1.3 2.0625,-2.025 1.2875,-0.725 2.7375,-0.725 1.875,0 3.2125,1.1 1.3375,1.1 1.3375,2.7 0,1.25 -0.7,2.4125 -0.7,1.1625 -2.075,1.8875 1.4,0.425 2.425,1.5875 1.025,1.1625 1.025,2.7625 0,2.025 -1.5125,3.5375 -1.5125,1.5125 -3.7375,1.5125 -3.1,0 -5.125,-2.6 l 0.275,-1.5 q 0.8,1.225 2.125,1.9 1.325,0.675 2.675,0.675 1.4,0 2.2375,-1.025 0.8375,-1.025 0.8375,-2.525 0,-0.55 -0.1375,-1.1 -0.1375,-0.55 -0.4625,-1.1375 -0.325,-0.5875 -1.0125,-0.9625 -0.6875,-0.375 -1.6375,-0.375 h -1.775 v -1.525 q 1.875,-0.15 1.975,-0.175 1.125,-0.25 1.8375,-1.2125 0.7125,-0.9625 0.7125,-2.1375 0,-1.125 -0.7375,-1.7375 -0.7375,-0.6125 -1.7875,-0.6125 -1.2,0 -2.275,0.7 -1.075,0.7 -1.6,1.95 z" />
  </g>
</svg>