<svg version="1.1" xmlns="http://www.w3.org/2000/svg" xmlns:xlink="http://www.w3.org/1999/xlink" width="362" height="362" viewBox="0 0 362 362">
  <defs>
    <clipPath id="HTQpBpnGznqU">
      <path fill="none" stroke="none" d=" M 0 0 L 362 0 L 362 362 L 0 362 L 0 0 Z" />
    </clipPath>
  </defs>
  <g transform="scale(1,1)" clip-path="url(#HTQpBpnGznqU)">
    <g transform="translate(-96,-86)">
      <rect fill="rgba(255,255,255,0)" stroke="none" x="0" y="0" width="1060" height="800" fill-opacity="1" />
      <path fill="none" stroke="rgb(0,0,0)" paint-order="fill stroke markers" d=" M 124.0465137107058 387.1137232516724 L 278.5269148198979 119.54581975693202" stroke-opacity="1" stroke-linecap="round" stroke-linejoin="round" stroke-miterlimit="10" stroke-width="2.5" />
      <path fill="none" stroke="rgb(0,0,0)" paint-order="fill stroke markers" d=" M 278.5269148198979 119.54581975693202 L 433.00731592909005 387.1137232516724" stroke-opacity="1" stroke-linecap="round" stroke-linejoin="round" stroke-miterlimit="10" stroke-width="2.5" />
      <path fill="none" stroke="rgb(0,0,0)" paint-order="fill stroke markers" d=" M 433.00731592909005 387.1137232516724 L 124.0465137107058 387.1137232516724" stroke-opacity="1" stroke-linecap="round" stroke-linejoin="round" stroke-miterlimit="10" stroke-width="2.5" />
      <path fill="none" stroke="rgb(0,0,0)" paint-order="fill stroke markers" d=" M 278.5269148198979 119.54581975693202 L 278.5269148198979 387.1137232516724" stroke-opacity="1" stroke-linecap="round" stroke-linejoin="round" stroke-miterlimit="10" stroke-width="2.5" />
      <path fill="none" stroke="rgb(0,0,0)" paint-order="fill stroke markers" d=" M 278.5269148198979 363.9416630852936 L 301.6989749862767 363.9416630852936" stroke-opacity="1" stroke-linecap="round" stroke-linejoin="round" stroke-miterlimit="10" stroke-width="2.5" />
      <path fill="none" stroke="rgb(0,0,0)" paint-order="fill stroke markers" d=" M 301.6989749862767 363.9416630852936 L 301.6989749862767 387.1137232516724" stroke-opacity="1" stroke-linecap="round" stroke-linejoin="round" stroke-miterlimit="10" stroke-width="2.5" />
      <g transform="scale(25,25)">
        <g transform="translate(13.8,16.615556)">
          <path fill="rgb(163,143,140)" stroke="none" paint-order="stroke fill markers" d=" M 0.299 -0.678 L 0.299 -0.058 L 0.424 -0.058 L 0.424 0 L 0.095 0 L 0.095 -0.058 L 0.22 -0.058 L 0.22 -0.578 Q 0.169 -0.556 0.089 -0.554 L 0.089 -0.612 Q 0.22 -0.617 0.279 -0.678 L 0.299 -0.678 Z" />
        </g>
      </g>
      <g transform="scale(25,25)">
        <g transform="translate(7.64,16.615556)">
          <path fill="rgb(0,0,0)" stroke="none" paint-order="stroke fill markers" d=" M 0.299 -0.678 L 0.299 -0.058 L 0.424 -0.058 L 0.424 0 L 0.095 0 L 0.095 -0.058 L 0.22 -0.058 L 0.22 -0.578 Q 0.169 -0.556 0.089 -0.554 L 0.089 -0.612 Q 0.22 -0.617 0.279 -0.678 L 0.299 -0.678 Z" />
        </g>
      </g>
      <g transform="scale(25,25)">
        <g transform="translate(6.72,10.695556)">
          <path fill="rgb(0,0,0)" stroke="none" paint-order="stroke fill markers" d=" M 0.17400000000000002 -0.188 L 0.251 -0.259 Q 0.281 -0.29 0.2955 -0.3055 Q 0.31 -0.321 0.33 -0.34900000000000003 Q 0.35000000000000003 -0.377 0.3585 -0.404 Q 0.367 -0.431 0.367 -0.461 Q 0.367 -0.523 0.328 -0.5685 Q 0.289 -0.614 0.222 -0.614 Q 0.161 -0.614 0.1315 -0.5730000000000001 Q 0.10200000000000001 -0.532 0.083 -0.459 Q 0.066 -0.484 0.061 -0.488 Q 0.06 -0.489 0.0545 -0.4965 Q 0.049 -0.504 0.042 -0.514 Q 0.088 -0.678 0.23600000000000002 -0.678 Q 0.332 -0.678 0.3905 -0.6155 Q 0.449 -0.553 0.449 -0.463 Q 0.449 -0.424 0.4315 -0.3865 Q 0.41400000000000003 -0.34900000000000003 0.398 -0.3305 Q 0.382 -0.312 0.35000000000000003 -0.28 Q 0.34 -0.271 0.3055 -0.241 Q 0.271 -0.211 0.261 -0.202 Q 0.254 -0.196 0.1975 -0.14100000000000001 Q 0.14100000000000001 -0.08600000000000001 0.122 -0.07 L 0.231 -0.07 Q 0.23700000000000002 -0.07 0.249 -0.07050000000000001 Q 0.261 -0.07100000000000001 0.267 -0.07100000000000001 L 0.449 -0.07100000000000001 L 0.449 0 L 0.05 0 L 0.05 -0.064 L 0.17400000000000002 -0.188 Z" />
        </g>
      </g>
      <g transform="scale(25,25)">
        <g transform="translate(15.16,10.735556)">
          <path fill="rgb(163,143,140)" stroke="none" paint-order="stroke fill markers" d=" M 0.17400000000000002 -0.188 L 0.251 -0.259 Q 0.281 -0.29 0.2955 -0.3055 Q 0.31 -0.321 0.33 -0.34900000000000003 Q 0.35000000000000003 -0.377 0.3585 -0.404 Q 0.367 -0.431 0.367 -0.461 Q 0.367 -0.523 0.328 -0.5685 Q 0.289 -0.614 0.222 -0.614 Q 0.161 -0.614 0.1315 -0.5730000000000001 Q 0.10200000000000001 -0.532 0.083 -0.459 Q 0.066 -0.484 0.061 -0.488 Q 0.06 -0.489 0.0545 -0.4965 Q 0.049 -0.504 0.042 -0.514 Q 0.088 -0.678 0.23600000000000002 -0.678 Q 0.332 -0.678 0.3905 -0.6155 Q 0.449 -0.553 0.449 -0.463 Q 0.449 -0.424 0.4315 -0.3865 Q 0.41400000000000003 -0.34900000000000003 0.398 -0.3305 Q 0.382 -0.312 0.35000000000000003 -0.28 Q 0.34 -0.271 0.3055 -0.241 Q 0.271 -0.211 0.261 -0.202 Q 0.254 -0.196 0.1975 -0.14100000000000001 Q 0.14100000000000001 -0.08600000000000001 0.122 -0.07 L 0.231 -0.07 Q 0.23700000000000002 -0.07 0.249 -0.07050000000000001 Q 0.261 -0.07100000000000001 0.267 -0.07100000000000001 L 0.449 -0.07100000000000001 L 0.449 0 L 0.05 0 L 0.05 -0.064 L 0.17400000000000002 -0.188 Z" />
        </g>
      </g>
      <g transform="scale(25,25)">
        <g transform="translate(11.4,8.4840042)">
          <path fill="rgb(0,0,0)" stroke="none" paint-order="stroke fill markers" d=" M 0.092 -0.514 L 0.056 -0.5680000000000001 Q 0.08700000000000001 -0.62 0.1385 -0.649 Q 0.19 -0.678 0.248 -0.678 Q 0.323 -0.678 0.3765 -0.634 Q 0.43 -0.59 0.43 -0.526 Q 0.43 -0.47600000000000003 0.402 -0.4295 Q 0.374 -0.383 0.319 -0.354 Q 0.375 -0.337 0.41600000000000004 -0.2905 Q 0.457 -0.244 0.457 -0.18 Q 0.457 -0.099 0.3965 -0.0385 Q 0.336 0.022 0.247 0.022 Q 0.123 0.022 0.042 -0.082 L 0.053 -0.14200000000000002 Q 0.085 -0.093 0.138 -0.066 Q 0.191 -0.039 0.245 -0.039 Q 0.301 -0.039 0.3345 -0.08 Q 0.368 -0.121 0.368 -0.181 Q 0.368 -0.203 0.3625 -0.225 Q 0.357 -0.247 0.34400000000000003 -0.2705 Q 0.331 -0.294 0.3035 -0.309 Q 0.276 -0.324 0.23800000000000002 -0.324 L 0.167 -0.324 L 0.167 -0.385 Q 0.242 -0.391 0.246 -0.392 Q 0.291 -0.402 0.3195 -0.4405 Q 0.34800000000000003 -0.47900000000000004 0.34800000000000003 -0.526 Q 0.34800000000000003 -0.5710000000000001 0.3185 -0.5955 Q 0.289 -0.62 0.247 -0.62 Q 0.199 -0.62 0.156 -0.592 Q 0.113 -0.5640000000000001 0.092 -0.514 Z" />
        </g>
        <g transform="translate(11.900002,8.4840042)">
          <path fill="rgb(0,0,0)" stroke="none" paint-order="stroke fill markers" d=" M 0.457 -0.326 Q 0.457 -0.17500000000000002 0.417 -0.088 Q 0.393 -0.036000000000000004 0.34850000000000003 -0.007 Q 0.304 0.022 0.249 0.022 Q 0.217 0.022 0.1875 0.012 Q 0.158 0.002 0.1265 -0.027 Q 0.095 -0.056 0.076 -0.101 Q 0.042 -0.184 0.042 -0.326 Q 0.042 -0.47800000000000004 0.08 -0.562 Q 0.108 -0.624 0.154 -0.651 Q 0.2 -0.678 0.25 -0.678 Q 0.294 -0.678 0.3385 -0.6545 Q 0.383 -0.631 0.41100000000000003 -0.579 Q 0.457 -0.49 0.457 -0.326 M 0.25 -0.039 Q 0.33 -0.039 0.361 -0.146 Q 0.379 -0.209 0.379 -0.338 Q 0.379 -0.467 0.36 -0.523 Q 0.354 -0.538 0.34950000000000003 -0.5465 Q 0.34500000000000003 -0.555 0.332 -0.5750000000000001 Q 0.319 -0.595 0.2975 -0.606 Q 0.276 -0.617 0.249 -0.617 Q 0.169 -0.617 0.137 -0.516 Q 0.12 -0.461 0.12 -0.338 Q 0.12 -0.21 0.137 -0.149 Q 0.168 -0.039 0.25 -0.039 Z" />
        </g>
        <g transform="translate(12.400004000000001,8.0711122) scale(0.7,0.7)">
          <path fill="rgb(0,0,0)" stroke="none" paint-order="stroke fill markers" d=" M 0.443 -0.25 L 0.443 -0.25 Q 0.443 -0.161 0.376 -0.10300000000000001 Q 0.321 -0.056 0.249 -0.056 Q 0.161 -0.056 0.10300000000000001 -0.124 Q 0.056 -0.179 0.056 -0.25 Q 0.056 -0.339 0.123 -0.397 Q 0.178 -0.444 0.25 -0.444 Q 0.338 -0.444 0.396 -0.376 Q 0.443 -0.321 0.443 -0.25 M 0.25 -0.096 L 0.25 -0.096 Q 0.325 -0.096 0.371 -0.156 Q 0.403 -0.198 0.403 -0.25 Q 0.403 -0.326 0.343 -0.372 Q 0.302 -0.404 0.25 -0.404 Q 0.17300000000000001 -0.404 0.126 -0.342 Q 0.096 -0.301 0.096 -0.25 Q 0.096 -0.17500000000000002 0.155 -0.129 Q 0.197 -0.096 0.25 -0.096 Z" />
        </g>
      </g>
      <g transform="scale(25,25)">
        <g transform="translate(15.08,15.1240042)">
          <path fill="rgb(0,0,0)" stroke="none" paint-order="stroke fill markers" d=" M 0.41500000000000004 -0.658 L 0.41500000000000004 -0.599 Q 0.362 -0.62 0.31 -0.62 Q 0.23800000000000002 -0.62 0.1865 -0.5575 Q 0.135 -0.495 0.126 -0.379 Q 0.194 -0.462 0.295 -0.462 Q 0.365 -0.462 0.41100000000000003 -0.3915 Q 0.457 -0.321 0.457 -0.222 Q 0.457 -0.164 0.4425 -0.1245 Q 0.428 -0.085 0.393 -0.046 Q 0.334 0.022 0.251 0.022 Q 0.223 0.022 0.1965 0.014 Q 0.17 0.006 0.14100000000000001 -0.0175 Q 0.112 -0.041 0.091 -0.078 Q 0.07 -0.115 0.056 -0.178 Q 0.042 -0.241 0.042 -0.322 Q 0.042 -0.47900000000000004 0.121 -0.5785 Q 0.2 -0.678 0.309 -0.678 Q 0.364 -0.678 0.41500000000000004 -0.658 M 0.127 -0.219 Q 0.129 -0.196 0.1335 -0.17500000000000002 Q 0.138 -0.154 0.15 -0.11850000000000001 Q 0.162 -0.083 0.188 -0.061 Q 0.214 -0.039 0.251 -0.039 Q 0.313 -0.039 0.35100000000000003 -0.101 Q 0.375 -0.14200000000000002 0.375 -0.222 Q 0.375 -0.298 0.352 -0.339 Q 0.318 -0.401 0.256 -0.401 Q 0.197 -0.401 0.1625 -0.354 Q 0.128 -0.307 0.128 -0.247 Q 0.127 -0.23500000000000001 0.127 -0.219 Z" />
        </g>
        <g transform="translate(15.580002,15.1240042)">
          <path fill="rgb(0,0,0)" stroke="none" paint-order="stroke fill markers" d=" M 0.457 -0.326 Q 0.457 -0.17500000000000002 0.417 -0.088 Q 0.393 -0.036000000000000004 0.34850000000000003 -0.007 Q 0.304 0.022 0.249 0.022 Q 0.217 0.022 0.1875 0.012 Q 0.158 0.002 0.1265 -0.027 Q 0.095 -0.056 0.076 -0.101 Q 0.042 -0.184 0.042 -0.326 Q 0.042 -0.47800000000000004 0.08 -0.562 Q 0.108 -0.624 0.154 -0.651 Q 0.2 -0.678 0.25 -0.678 Q 0.294 -0.678 0.3385 -0.6545 Q 0.383 -0.631 0.41100000000000003 -0.579 Q 0.457 -0.49 0.457 -0.326 M 0.25 -0.039 Q 0.33 -0.039 0.361 -0.146 Q 0.379 -0.209 0.379 -0.338 Q 0.379 -0.467 0.36 -0.523 Q 0.354 -0.538 0.34950000000000003 -0.5465 Q 0.34500000000000003 -0.555 0.332 -0.5750000000000001 Q 0.319 -0.595 0.2975 -0.606 Q 0.276 -0.617 0.249 -0.617 Q 0.169 -0.617 0.137 -0.516 Q 0.12 -0.461 0.12 -0.338 Q 0.12 -0.21 0.137 -0.149 Q 0.168 -0.039 0.25 -0.039 Z" />
        </g>
        <g transform="translate(16.080004,14.7111122) scale(0.7,0.7)">
          <path fill="rgb(0,0,0)" stroke="none" paint-order="stroke fill markers" d=" M 0.443 -0.25 L 0.443 -0.25 Q 0.443 -0.161 0.376 -0.10300000000000001 Q 0.321 -0.056 0.249 -0.056 Q 0.161 -0.056 0.10300000000000001 -0.124 Q 0.056 -0.179 0.056 -0.25 Q 0.056 -0.339 0.123 -0.397 Q 0.178 -0.444 0.25 -0.444 Q 0.338 -0.444 0.396 -0.376 Q 0.443 -0.321 0.443 -0.25 M 0.25 -0.096 L 0.25 -0.096 Q 0.325 -0.096 0.371 -0.156 Q 0.403 -0.198 0.403 -0.25 Q 0.403 -0.326 0.343 -0.372 Q 0.302 -0.404 0.25 -0.404 Q 0.17300000000000001 -0.404 0.126 -0.342 Q 0.096 -0.301 0.096 -0.25 Q 0.096 -0.17500000000000002 0.155 -0.129 Q 0.197 -0.096 0.25 -0.096 Z" />
        </g>
      </g>
      <g transform="scale(25,25)">
        <g transform="translate(9.52,9.839998)">
          <path fill="rgb(0,0,0)" stroke="none" paint-order="stroke fill markers" d=" M 0.389 0.855 L 0.812 -0.021 Q 0.8250000000000001 -0.038 0.833 -0.04 Q 0.85 -0.04 0.853 -0.02 Q 0.853 -0.016 0.847 -0.003 L 0.391 0.9410000000000001 Q 0.383 0.9570000000000001 0.375 0.9590000000000001 Q 0.372 0.96 0.366 0.96 Q 0.354 0.96 0.35000000000000003 0.9510000000000001 L 0.34700000000000003 0.9450000000000001 L 0.149 0.51 L 0.097 0.549 Q 0.088 0.557 0.083 0.557 Q 0.073 0.557 0.073 0.546 Q 0.073 0.542 0.085 0.532 L 0.184 0.457 Q 0.193 0.449 0.198 0.449 Q 0.20400000000000001 0.449 0.211 0.463 L 0.389 0.855 Z" />
        </g>
        <rect fill="rgb(0,0,0)" stroke="none" x="10.353335999999999" y="9.799999" width="0.5555577222222222" height="0.039999" />
        <g transform="translate(10.353335999999999,10.721595375)">
          <path fill="rgb(0,0,0)" stroke="none" paint-order="stroke fill markers" d=" M 0.092 -0.514 L 0.056 -0.5680000000000001 Q 0.08700000000000001 -0.62 0.1385 -0.649 Q 0.19 -0.678 0.248 -0.678 Q 0.323 -0.678 0.3765 -0.634 Q 0.43 -0.59 0.43 -0.526 Q 0.43 -0.47600000000000003 0.402 -0.4295 Q 0.374 -0.383 0.319 -0.354 Q 0.375 -0.337 0.41600000000000004 -0.2905 Q 0.457 -0.244 0.457 -0.18 Q 0.457 -0.099 0.3965 -0.0385 Q 0.336 0.022 0.247 0.022 Q 0.123 0.022 0.042 -0.082 L 0.053 -0.14200000000000002 Q 0.085 -0.093 0.138 -0.066 Q 0.191 -0.039 0.245 -0.039 Q 0.301 -0.039 0.3345 -0.08 Q 0.368 -0.121 0.368 -0.181 Q 0.368 -0.203 0.3625 -0.225 Q 0.357 -0.247 0.34400000000000003 -0.2705 Q 0.331 -0.294 0.3035 -0.309 Q 0.276 -0.324 0.23800000000000002 -0.324 L 0.167 -0.324 L 0.167 -0.385 Q 0.242 -0.391 0.246 -0.392 Q 0.291 -0.402 0.3195 -0.4405 Q 0.34800000000000003 -0.47900000000000004 0.34800000000000003 -0.526 Q 0.34800000000000003 -0.5710000000000001 0.3185 -0.5955 Q 0.289 -0.62 0.247 -0.62 Q 0.199 -0.62 0.156 -0.592 Q 0.113 -0.5640000000000001 0.092 -0.514 Z" />
        </g>
      </g>
    </g>
  </g>
</svg>